<?xml version="1.0" encoding="UTF-8" standalone="yes"?>
<svg viewBox="0 0 24 24" xmlns="http://www.w3.org/2000/svg">
  <symbol id="_attach">
    <g fill-rule="nonzero">
      <path d="M20.438 11.904H3.58V2.721A2.543 2.543 0 015.866 0h12.285a2.543 2.543 0 012.286 2.721v9.183h.001zM18.151 24H5.866a2.543 2.543 0 01-2.286-2.721v-3.741h16.858v3.743A2.552 2.552 0 0118.151 24z" fill="#21c9b8"/>
      <path d="M17.959 4.87h-11.9a.683.683 0 01-.68-.68c0-.373.307-.68.68-.68h11.9c.373 0 .68.307.68.68a.694.694 0 01-.68.68z" fill="#fff"/>
      <path d="M21.6 19.945H2.4A2.586 2.586 0 010 17.224v-6.122a2.587 2.587 0 012.4-2.721h19.2a2.586 2.586 0 012.4 2.721v6.118a2.587 2.587 0 01-2.4 2.721v.004z" fill="#90e4dc"/>
      <path d="M17.959 7.522h-11.9a.684.684 0 01-.681-.68c0-.374.308-.681.681-.681h11.9c.373 0 .68.307.68.68a.694.694 0 01-.68.68v.001z" fill="#fff"/>
      <g fill="#fff">
        <path d="M9.311 15.27h.072l.376-.161c.036-.018.072-.072.054-.107-.16-.4-.345-.788-.555-1.164a.1.1 0 00-.125-.036l-.322.161a.087.087 0 00-.05.078c0 .017.005.033.014.047.179.358.34.752.5 1.164.01.01.022.016.036.018zm-1.915-1.361c.179-.483.322-.949.448-1.36v-.376-.005a.085.085 0 00-.085-.085H6.263a.085.085 0 00-.085.085V16.939c0 .047.038.085.085.085h.385a.085.085 0 00.085-.085v-.845h.018a2.5 2.5 0 00.519 0c.483-.09.68-.483.573-1.181a2.794 2.794 0 00-.447-1.004zm-.662-1.289h.483c-.143.5-.286.967-.412 1.36-.018.036 0 .054.018.09.215.254.369.554.448.877.072.376.018.591-.161.627-.12.011-.24.005-.358-.018V12.62h-.018z"/>
        <path d="M8.971 11.994c-.018-.018-.036-.036-.054-.036l-.394-.09c-.054-.018-.09.018-.107.072a7.257 7.257 0 01-.9 2.023.113.113 0 000 .107c.077.113.144.233.2.358.018.036.036.054.072.054a.139.139 0 00.089-.036c.072-.107.143-.215.215-.34v2.85c0 .047.038.085.085.085h.404a.085.085 0 00.085-.085v-3.978c.107-.269.215-.573.322-.877 0-.054 0-.089-.018-.107h.001z"/>
        <path d="M11.084 12.961h-.555v-1-.004a.085.085 0 00-.085-.085h-.406a.085.085 0 00-.085.085v1.004H8.748a.085.085 0 00-.085.085v.386c0 .047.038.085.085.085H9.953v2.56c0 .179-.089.268-.286.268a4.709 4.709 0 01-.627-.054c-.036 0-.054 0-.072.036-.018.036-.036.054-.018.072a2.1 2.1 0 01.072.43.082.082 0 00.09.072c.215 0 .412.018.609.018.537 0 .823-.269.823-.77V13.5h.56a.085.085 0 00.085-.085v-.381a.147.147 0 00-.107-.072l.002-.001zm3.186-.913c-.018-.018-.036-.036-.054-.036l-.412-.125h-.072c-.018.018-.036.036-.036.054a9.386 9.386 0 01-1.11 2.488.08.08 0 000 .089c.067.14.127.284.179.43.018.036.036.054.072.054s.072 0 .09-.036c.146-.187.277-.385.394-.591V16.922c0 .047.038.085.085.085h.402a.085.085 0 00.085-.085v-3.713c.156-.361.287-.732.394-1.11a.064.064 0 00-.017-.051z"/>
        <path d="M17.743 14.698h-1.289v-1.11H17.587a.085.085 0 00.085-.085v-.363-.005a.085.085 0 00-.085-.085H16.454v-1.092-.005a.085.085 0 00-.085-.085h-.421a.085.085 0 00-.085.085v1.097h-.644c.054-.2.125-.394.179-.609a.088.088 0 00-.054-.107l-.412-.125a.108.108 0 00-.072.018c-.018.018-.036.036-.036.054a6.94 6.94 0 01-.7 1.88.095.095 0 00.036.125c.119.075.227.165.322.268.018.018.054.036.072.018a.092.092 0 00.072-.036c.172-.297.315-.608.43-.931h.823v1.11h-1.688a.085.085 0 00-.085.085v.367c0 .047.038.085.085.085h1.688v1.688c0 .047.038.085.085.085h.421a.085.085 0 00.085-.085v-1.688h1.295a.085.085 0 00.084-.084v-.358a.13.13 0 00-.106-.112z"/>
      </g>
    </g>
  </symbol>
  <symbol id="_collect">
    <path d="M5.51 2.186a2.735 2.735 0 002.67 2.181h7.638a2.737 2.737 0 002.67-2.181h2.237A3.287 3.287 0 0124 5.452v15.282A3.285 3.285 0 0120.73 24H3.273A3.289 3.289 0 010 20.734V5.452a3.285 3.285 0 013.27-3.266H5.51zM6.547 8.73c-.598 0-1.091.493-1.091 1.091s.493 1.091 1.091 1.091h6.547c.598 0 1.091-.493 1.091-1.09 0-.599-.493-1.092-1.091-1.092H6.547zm0 4.363c-.598 0-1.091.493-1.091 1.091s.493 1.091 1.091 1.091h10.912c.598 0 1.09-.493 1.09-1.09 0-.599-.492-1.092-1.09-1.092H6.547zm0 4.364c-.598 0-1.091.492-1.091 1.09 0 .598.493 1.091 1.091 1.091h6.547c.598 0 1.091-.493 1.091-1.09 0-.599-.493-1.091-1.091-1.091H6.547zM8.183 0h7.638c.898 0 1.638.738 1.638 1.637 0 .897-.74 1.635-1.638 1.635H8.183a1.644 1.644 0 01-1.636-1.635C6.547.738 7.286 0 8.183 0z" fill="#508cff" fill-rule="nonzero"/>
  </symbol>
  <symbol id="_image">
    <path fill="#e0f0ff" fill-rule="nonzero" d="M0 0h23v23H0z"/>
    <path d="M9.01 12.011a2.659 2.659 0 01-1.179-.266 3.002 3.002 0 01-.949-.724 3.605 3.605 0 01-.642-1.065 3.55 3.55 0 01.642-3.631c.267-.297.589-.539.949-.713a2.66 2.66 0 011.179-.267c.402-.002.799.089 1.16.266.36.174.682.416.949.713a3.567 3.567 0 010 4.696 3.002 3.002 0 01-.949.724 2.605 2.605 0 01-1.16.266v.001zM24 24H0V0h24v24zM21.603 2.662H2.415v16.461c.23-.369.486-.738.767-1.107.269-.355.564-.689.882-1a5.01 5.01 0 01.949-.735c.297-.184.638-.283.987-.288.345-.004.689.03 1.026.1.263.056.52.138.767.245.215.095.424.205.623.33.199.125.408.235.623.33.244.106.497.188.757.245.334.071.675.104 1.016.1.38.006.748-.135 1.026-.394.312-.291.581-.624.8-.99.243-.4.485-.826.728-1.278.239-.448.514-.876.824-1.278a4.13 4.13 0 011.093-.99 2.841 2.841 0 011.534-.394 2.456 2.456 0 011.476.522c.502.378.943.832 1.307 1.344a12.88 12.88 0 011.112 1.853c.339.681.636 1.348.891 2V2.662z" fill="#508cff" fill-rule="nonzero"/>
  </symbol>
  <symbol id="_user">
    <path d="M12 0c6.583 0 12 5.417 12 12s-5.417 12-12 12S0 18.583 0 12 5.417 0 12 0z" fill="#edf6fe" fill-rule="nonzero"/>
    <path d="M17.814 11.16c-1.706 1.042-5.222-.764-5.81-3.253-.587 2.498-4.121 4.31-5.818 3.242a5.033 5.033 0 01-.007-.265v.1c0 3.192 2.628 5.82 5.82 5.82 3.125 0 5.72-2.516 5.817-5.64l-.002-.004z" fill="#fce9ea" fill-rule="nonzero"/>
    <path d="M14.673 17.213l.067.023c-.066.186-.15.365-.253.534.416.636.313 3.419-.312 2.979l-1.09-.764L12 19.221l.071-.05h-.145l.071.05-1.086.764-1.09.764c-.623.44-.728-2.35-.311-2.981a2.894 2.894 0 01-.25-.53l.067-.025a6.755 6.755 0 00-4.381 4.577 12.388 12.388 0 0014.113 0 6.757 6.757 0 00-4.384-4.575v-.002zm-3.74-.374l.103-.014-.103.014zm-.675.115l.1-.02-.1.02zm-.318.073h.007-.007zm3.703-.093l.102.02-.102-.02zm.727.18l.105.032-.105-.033zm-.321-.09l.02.006-.02-.005zm-4.518.12l.1-.03-.1.03zm3.433-.317l.104.013-.104-.013z" fill="#508cff" fill-rule="nonzero"/>
    <path d="M9.508 17.768c.083-.125.187-.166.311-.079l1.09.765 1.015.717h.145l1.016-.718 1.09-.764c.124-.087.228-.046.311.082.102-.17.187-.348.253-.534l-.066-.024a7.007 7.007 0 00-.199-.064l-.105-.033c-.1-.03-.2-.058-.3-.083l-.021-.005a8.412 8.412 0 00-.304-.07l-.102-.02a7.893 7.893 0 00-.574-.094l-.104-.013a8.285 8.285 0 00-.338-.033h-.665c-.046.003-.091.003-.137 0h-.448a8.33 8.33 0 00-.34.033l-.102.013a9.373 9.373 0 00-.576.094l-.101.02a7.475 7.475 0 00-.311.071h-.007a8.926 8.926 0 00-.31.086l-.099.031-.206.068-.068.025c.066.184.15.362.252.529z" fill="#fff" fill-rule="nonzero"/>
    <path d="M14.174 17.69l-1.09.763-1.015.718-.07.05 1.086.764 1.09.764c.624.44.728-2.343.311-2.98-.083-.126-.187-.167-.312-.08zm-4.355 0c-.124-.088-.228-.047-.311.078-.418.631-.312 3.421.311 2.981l1.09-.764 1.086-.764-.07-.05-1.016-.718-1.09-.764z" fill="#ffb67e" fill-rule="nonzero"/>
    <path d="M12.004 7.907V5.152c-3.165-.009-5.783 2.57-5.825 5.733 0 .088 0 .176.007.265 1.692 1.066 5.23-.744 5.818-3.243z" fill="#acd7fe" fill-rule="nonzero"/>
    <path d="M12.004 7.906c.588 2.489 4.104 4.295 5.81 3.253l.02-.01.002-.195c0-3.184-2.62-5.803-5.803-5.803h-.03v2.755z" fill="#61b1f9" fill-rule="nonzero"/>
  </symbol>
  <symbol id="_wechat">
    <path d="M12 0C5.417 0 0 5.417 0 12s5.417 12 12 12 12-5.417 12-12S18.583 0 12 0zm6.017 10.786a3.559 3.559 0 01-2.047 1.541 1.934 1.934 0 01-.574.1l-.026.001a.685.685 0 01-.682-.682c0-.375.308-.682.682-.682h.026a.373.373 0 00.151-.029 2.146 2.146 0 001.31-.96 1.76 1.76 0 00.259-.929 2.117 2.117 0 00-2.21-1.966c-.42.001-.833.109-1.2.314a1.922 1.922 0 00-1.025 1.651v5.724a3.25 3.25 0 01-1.7 2.822 3.743 3.743 0 01-1.87.48 3.494 3.494 0 01-3.6-3.329 3.198 3.198 0 01.46-1.642 3.559 3.559 0 012.047-1.541 2 2 0 01.574-.1l.026-.001c.374 0 .682.308.682.682a.685.685 0 01-.682.682h-.026a.373.373 0 00-.151.029 2.25 2.25 0 00-1.31.96 1.76 1.76 0 00-.259.929A2.123 2.123 0 009.1 16.812c.42-.001.833-.109 1.2-.314a1.921 1.921 0 001.022-1.651v-5.7a3.256 3.256 0 011.706-2.825 3.547 3.547 0 011.855-.5 3.494 3.494 0 013.6 3.329 3.186 3.186 0 01-.463 1.637l-.003-.002z" fill="#e0f0ff" fill-rule="nonzero"/>
    <path d="M18.037 10.779a3.574 3.574 0 01-2.057 1.549c-.186.062-.38.096-.576.1a.688.688 0 01-.684-.684c0-.375.309-.684.684-.684a.377.377 0 00.152-.029 2.152 2.152 0 001.315-.964 1.77 1.77 0 00.26-.932 2.125 2.125 0 00-2.218-1.973c-.42.002-.833.11-1.2.316a1.931 1.931 0 00-1.033 1.653v5.748a3.26 3.26 0 01-1.71 2.833 3.754 3.754 0 01-1.876.482 3.506 3.506 0 01-3.612-3.341c.003-.58.164-1.148.465-1.643a3.576 3.576 0 012.054-1.547c.186-.061.38-.095.576-.1.375 0 .684.309.684.684a.688.688 0 01-.684.684.377.377 0 00-.152.029 2.257 2.257 0 00-1.315.964 1.77 1.77 0 00-.26.932 2.13 2.13 0 002.232 1.973c.42-.002.833-.11 1.2-.316a1.93 1.93 0 001.026-1.657V9.139a3.267 3.267 0 011.712-2.835 3.555 3.555 0 011.861-.506 3.506 3.506 0 013.612 3.341 3.194 3.194 0 01-.465 1.643l.009-.003z" fill="#508cff" fill-rule="nonzero"/>
  </symbol>
</svg>