<?xml version="1.0" encoding="UTF-8" standalone="yes"?>
<svg viewBox="0 0 24 24" xmlns="http://www.w3.org/2000/svg">
  <symbol id="arr_a_down">
    <path d="M24 12c0 6.628-5.372 12-12 12S0 18.628 0 12 5.372 0 12 0s12 5.372 12 12zM12 2.4c-5.302 0-9.6 4.298-9.6 9.6s4.298 9.6 9.6 9.6 9.6-4.298 9.6-9.6-4.298-9.6-9.6-9.6zm-.84 12.648L6.9 10.8l1.692-1.692L12 12.48l3.396-3.384 1.692 1.704L12 15.888l-.84-.84z"/>
  </symbol>
  <symbol id="arr_a_left">
    <path d="M12 24C5.372 24 0 18.628 0 12S5.372 0 12 0s12 5.372 12 12-5.372 12-12 12zm9.6-12c0-5.302-4.298-9.6-9.6-9.6S2.4 6.698 2.4 12s4.298 9.6 9.6 9.6 9.6-4.298 9.6-9.6zm-12.648-.84L13.2 6.9l1.692 1.692L11.52 12l3.384 3.396-1.704 1.692L8.112 12l.84-.84z"/>
  </symbol>
  <symbol id="arr_a_right">
    <path d="M12 0c6.628 0 12 5.372 12 12s-5.372 12-12 12S0 18.628 0 12 5.372 0 12 0zM2.4 12c0 5.302 4.298 9.6 9.6 9.6s9.6-4.298 9.6-9.6-4.298-9.6-9.6-9.6S2.4 6.698 2.4 12zm12.648.84L10.8 17.1l-1.692-1.692L12.48 12 9.12 8.604l1.68-1.692L15.888 12l-.84.84z"/>
  </symbol>
  <symbol id="arr_a_up">
    <path d="M0 12C0 5.372 5.372 0 12 0s12 5.372 12 12-5.372 12-12 12S0 18.628 0 12zm12 9.6c5.302 0 9.6-4.298 9.6-9.6S17.302 2.4 12 2.4 2.4 6.698 2.4 12s4.298 9.6 9.6 9.6zm.84-12.648L17.1 13.2l-1.692 1.692L12 11.52l-3.396 3.36-1.692-1.68L12 8.112l.84.84z"/>
  </symbol>
  <symbol id="arr_c_down">
    <path d="M12 24C5.372 24 0 18.628 0 12S5.372 0 12 0s12 5.372 12 12-5.372 12-12 12zm0-2.4c5.302 0 9.6-4.298 9.6-9.6S17.302 2.4 12 2.4 2.4 6.698 2.4 12s4.298 9.6 9.6 9.6zM9.6 12V6h4.8v6H18l-6 6-6-6h3.6z"/>
  </symbol>
  <symbol id="arr_c_left">
    <path d="M0 12C0 5.372 5.372 0 12 0s12 5.372 12 12-5.372 12-12 12S0 18.628 0 12zm2.4 0c0 5.302 4.298 9.6 9.6 9.6s9.6-4.298 9.6-9.6-4.298-9.6-9.6-9.6S2.4 6.698 2.4 12zM12 9.6h6v4.8h-6V18l-6-6 6-6v3.6z"/>
  </symbol>
  <symbol id="arr_c_right">
    <path d="M24 12c0 6.628-5.372 12-12 12S0 18.628 0 12 5.372 0 12 0s12 5.372 12 12zm-2.4 0c0-5.302-4.298-9.6-9.6-9.6S2.4 6.698 2.4 12s4.298 9.6 9.6 9.6 9.6-4.298 9.6-9.6zM12 14.4H6V9.6h6V6l6 6-6 6v-3.6z"/>
  </symbol>
  <symbol id="arr_c_up">
    <path d="M12 0c6.628 0 12 5.372 12 12s-5.372 12-12 12S0 18.628 0 12 5.372 0 12 0zm0 2.4c-5.302 0-9.6 4.298-9.6 9.6s4.298 9.6 9.6 9.6 9.6-4.298 9.6-9.6-4.298-9.6-9.6-9.6zm2.4 9.6v6H9.6v-6H6l6-6 6 6h-3.6z"/>
  </symbol>
  <symbol id="arr_d_down">
    <path d="M10.8 19.406l-7.285-7.285-1.697 1.697L12 24l10.182-10.182-1.697-1.697-7.285 7.285V0h-2.4z"/>
  </symbol>
  <symbol id="arr_d_left">
    <path d="M4.594 10.8l7.285-7.285-1.697-1.697L0 12l10.182 10.182 1.697-1.697L4.594 13.2H24v-2.4H4.594z"/>
  </symbol>
  <symbol id="arr_d_right">
    <path d="M19.406 10.8l-7.285-7.285 1.697-1.697L24 12 13.818 22.182l-1.697-1.697 7.285-7.285H0v-2.4z"/>
  </symbol>
  <symbol id="arr_d_up">
    <path d="M10.8 4.594l-7.285 7.285-1.697-1.697L12 0l10.182 10.182-1.697 1.697L13.2 4.594V24h-2.4V4.594z"/>
  </symbol>
  <symbol id="arr_e_down">
    <path d="M13.188 18.205a1.47 1.47 0 01-1.224.553c-.433.073-.84-.264-1.176-.553L.395 7.765a1.358 1.358 0 011.92-1.92l9.673 9.937 9.696-9.936a1.358 1.358 0 011.92 1.92L13.188 18.205z" fill-rule="nonzero"/>
  </symbol>
  <symbol id="arr_e_left">
    <path d="M6.015 10.812c-.37.295-.576.75-.553 1.223-.074.433.264.84.553 1.176l10.44 10.394a1.358 1.358 0 001.92-1.92l-9.936-9.673 9.935-9.696a1.358 1.358 0 00-1.92-1.92L6.015 10.812z" fill-rule="nonzero"/>
  </symbol>
  <symbol id="arr_e_right">
    <path d="M18.205 10.812c.37.295.577.751.553 1.224.073.433-.264.84-.553 1.176L7.765 23.605a1.358 1.358 0 01-1.92-1.92l9.937-9.673-9.936-9.696a1.358 1.358 0 011.92-1.92l10.439 10.416z" fill-rule="nonzero"/>
  </symbol>
  <symbol id="arr_e_up">
    <path d="M10.812 5.795a1.47 1.47 0 011.224-.553c.433-.073.84.264 1.176.553l10.393 10.44a1.358 1.358 0 01-1.92 1.92l-9.673-9.937-9.696 9.935a1.358 1.358 0 01-1.92-1.92L10.812 5.796z" fill-rule="nonzero"/>
  </symbol>
  <symbol id="arr_f_down">
    <path d="M8.4 12V2.4h7.2V12h6L12 21.6 2.4 12h6z"/>
  </symbol>
  <symbol id="arr_f_left">
    <path d="M12 15.6h9.6V8.4H12v-6L2.4 12l9.6 9.6v-6z"/>
  </symbol>
  <symbol id="arr_f_right">
    <path d="M12 8.4H2.4v7.2H12v6l9.6-9.6L12 2.4v6z"/>
  </symbol>
  <symbol id="arr_f_up">
    <path d="M8.4 12v9.6h7.2V12h6L12 2.4 2.4 12h6z"/>
  </symbol>
  <symbol id="arr_g_down">
    <path d="M11.999 13.888l-9.247-9.1L0 7.534 11.999 19.5l12-11.967-2.753-2.744-9.247 9.099z" fill-rule="nonzero"/>
  </symbol>
  <symbol id="arr_g_left">
    <path d="M9.966 12l9.1-9.247L16.32.001 4.354 12l11.967 12 2.744-2.753L9.966 12z" fill-rule="nonzero"/>
  </symbol>
  <symbol id="arr_g_right">
    <path d="M13.888 12.001l-9.1 9.247L7.534 24 19.5 12.001 7.533.001 4.789 2.754l9.099 9.247z" fill-rule="nonzero"/>
  </symbol>
  <symbol id="arr_g_top">
    <path d="M12.001 10.112l9.247 9.1L24 16.466 12.001 4.5l-12 11.967 2.753 2.744 9.247-9.099z" fill-rule="nonzero"/>
  </symbol>
  <symbol id="bars">
    <path d="M23 22v-1h-1v1h-1V12h-5v10h-1V2h-5v20H9V10H8V9H7v1H5V9H4v13H2V0H0v24h24v-2h-1zM7 22H6V12h1v10zm6 0h-1V4h1v18zm6 0h-1v-8h1v8zM4 0h1v1H4zm3 0h1v1H7zm3 0h1v1h-1zm3 0h1v1h-1zm3 0h1v1h-1zm3 0h1v1h-1zm3 0h1v1h-1zm0 3h1v1h-1zm-3 0h1v1h-1zm-3 0h1v1h-1zm0 3h1v1h-1zm3 0h1v1h-1zm3 0h1v1h-1zm0 3.002h1v1h-1zM19 9h1v1h-1zm-3 0h1v1h-1zm6 3h1v1h-1zm0 3h1v1h-1zm0 3h1v1h-1zM7 3h1v1H7zm0 3h1v1H7zM4 6h1v1H4zm0-3h1v1H4z"/>
  </symbol>
  <symbol id="bat_25">
    <path d="M20.82 8a3.002 3.002 0 00-2.826-2H3.007A3.002 3.002 0 00.01 9v7c0 1.654 1.344 3 2.997 3h14.987a3.002 3.002 0 002.826-2h2.17V8h-2.17zm-1.826 8c0 .551-.449 1-1 1H3.007a1 1 0 01-.999-1V9a1 1 0 01.999-1h14.987c.551 0 1 .449 1 1v7zm1.998-1h-1v-5h1v5zM3.007 11v3c0 1.1.674 2 1.499 2h1.498V9H4.506c-.825 0-1.499.9-1.499 2z"/>
  </symbol>
  <symbol id="bat_50">
    <path d="M20.82 8a3.002 3.002 0 00-2.826-2H3.007A3.002 3.002 0 00.01 9v7c0 1.654 1.344 3 2.997 3h14.987a3.002 3.002 0 002.826-2h2.17V8h-2.17zm-1.826 8c0 .551-.449 1-1 1H3.007a1 1 0 01-.999-1V9a1 1 0 01.999-1h14.987c.551 0 1 .449 1 1v7zm1.998-1h-1v-5h1v5zM7.003 9h2.998v7H7.003zm-3.996 2v3c0 1.1.674 2 1.499 2h1.498V9H4.506c-.825 0-1.499.9-1.499 2z"/>
  </symbol>
  <symbol id="bat_75">
    <path d="M20.82 8a3.002 3.002 0 00-2.826-2H3.007A3.002 3.002 0 00.01 9v7c0 1.654 1.344 3 2.997 3h14.987a3.002 3.002 0 002.826-2h2.17V8h-2.17zm-1.826 8c0 .551-.449 1-1 1H3.007a1 1 0 01-.999-1V9a1 1 0 01.999-1h14.987c.551 0 1 .449 1 1v7zm1.998-1h-1v-5h1v5zM7.003 9h2.998v7H7.003zM11 9h2.998v7H11zm-7.993 2v3c0 1.1.674 2 1.499 2h1.498V9H4.506c-.825 0-1.499.9-1.499 2z"/>
  </symbol>
  <symbol id="bat_chg">
    <path d="M20.812 8a3.002 3.002 0 00-2.826-2H2.998A3.003 3.003 0 000 9v7c0 1.654 1.345 3 2.998 3h14.987a3.002 3.002 0 002.826-2h2.169V8h-2.168zm-1.829 8a1 1 0 01-.998 1H2.998c-.552 0-1-.449-1-1V9c0-.551.448-1 1-1h14.987a1 1 0 01.998 1v7zm1.999-1h-.999v-5h.999v5zm-10.885 0l.998-2h4.996l-5.994-3-1 2H4.101l5.996 3z"/>
  </symbol>
  <symbol id="bat_ept">
    <path d="M20.82 8a3.002 3.002 0 00-2.826-2H3.007A3.002 3.002 0 00.01 9v7c0 1.654 1.344 3 2.997 3h14.987a3.002 3.002 0 002.826-2h2.17V8h-2.17zm-1.826 8c0 .551-.449 1-1 1H3.007a1 1 0 01-.999-1V9a1 1 0 01.999-1h14.987c.551 0 1 .449 1 1v7zm1.998-1h-1v-5h1v5z"/>
  </symbol>
  <symbol id="bat_ful">
    <path d="M20.82 8a3.002 3.002 0 00-2.826-2H3.007A3.002 3.002 0 00.01 9v7c0 1.654 1.344 3 2.997 3h14.987a3.002 3.002 0 002.826-2h2.17V8h-2.17zm-1.826 8c0 .551-.449 1-1 1H3.007a1 1 0 01-.999-1V9a1 1 0 01.999-1h14.987c.551 0 1 .449 1 1v7zm1.998-1h-1v-5h1v5zM7.003 9h2.998v7H7.003zM11 9h2.998v7H11zm5.496 0h-1.5v7h1.5c.824 0 1.498-.9 1.498-2v-3c0-1.1-.674-2-1.498-2zM3.007 11v3c0 1.1.674 2 1.499 2h1.498V9H4.506c-.825 0-1.499.9-1.499 2z"/>
  </symbol>
  <symbol id="bm_ept">
    <path d="M2.4 2.4C2.4 1.08 3.48 0 4.8 0h14.4a2.4 2.4 0 012.4 2.4V24L12 19.2 2.4 24V2.4zm2.4 0v18l7.2-3.6 7.2 3.6v-18H4.8z"/>
  </symbol>
  <symbol id="bm_lin">
    <path d="M3 0v23.18l8.182-4.764L20 23.551V0H3zm2 19.701V2h6v14.375l-.637.312L5 19.701zm13 .371l-5.562-3.385-.438-.291V2h6v18.072z"/>
  </symbol>
  <symbol id="calc">
    <path d="M4 16h3v-3H4v3zm1-2h1v1H5v-1zm3 2h3v-3H8v3zm1-2h1v1H9v-1zm-1 6h3v-3H8v3zm1-2h1v1H9v-1zm-5 2h3v-3H4v3zm1-2h1v1H5v-1zm7-2h3v-3h-3v3zm1-2h1v1h-1v-1zm-3-4h1V9h-1v1zm-2 0h1V9H8v1zm-4 2h16V3H4v9zm1-8h14v7H5V4zm15-4H4a3 3 0 00-3 3v18a3 3 0 003 3h16a3 3 0 003-3V3a3 3 0 00-3-3zm1 21a1 1 0 01-1 1H4a1 1 0 01-1-1V3a1 1 0 011-1h16a1 1 0 011 1v18zm-9-1h3v-3h-3v3zm1-2h1v1h-1v-1zm3 2h4v-7h-4v7zm1-6h2v5h-2v-5zM6 10h1V9H6v1z"/>
  </symbol>
  <symbol id="chat">
    <path d="M20 1H3C1.346 1 0 2.346 0 4v12c0 1.654 2 2 3 2v6l9-6h8c1.654 0 3-1.346 3-3V4c0-1.654-1.346-3-3-3zm1 14c0 .551-.449 1-1 1h-9l-6 5v-5H3c-.551 0-1-.449-1-1V4c0-.551.449-1 1-1h17c.551 0 1 .449 1 1v11z"/>
  </symbol>
  <symbol id="chat_1">
    <path d="M6.5 9a1.5 1.5 0 110 3 1.5 1.5 0 010-3zM20 1H3C1.346 1 0 2.346 0 4v12c0 1.654 2 2 3 2v6l9-6h8c1.654 0 3-1.346 3-3V4c0-1.654-1.346-3-3-3zm1 14c0 .551-.449 1-1 1h-9l-6 5v-5H3c-.551 0-1-.449-1-1V4c0-.551.449-1 1-1h17c.551 0 1 .449 1 1v11z"/>
  </symbol>
  <symbol id="chat_2">
    <path d="M6.5 9a1.5 1.5 0 110 3 1.5 1.5 0 010-3zm5 0a1.5 1.5 0 110 3 1.5 1.5 0 010-3zM20 1H3C1.346 1 0 2.346 0 4v12c0 1.654 2 2 3 2v6l9-6h8c1.654 0 3-1.346 3-3V4c0-1.654-1.346-3-3-3zm1 14c0 .551-.449 1-1 1h-9l-6 5v-5H3c-.551 0-1-.449-1-1V4c0-.551.449-1 1-1h17c.551 0 1 .449 1 1v11z"/>
  </symbol>
  <symbol id="chat_3">
    <path d="M6.5 9a1.5 1.5 0 110 3 1.5 1.5 0 010-3zm5 0a1.5 1.5 0 110 3 1.5 1.5 0 010-3zm5 0a1.5 1.5 0 110 3 1.5 1.5 0 010-3zM20 1H3C1.346 1 0 2.346 0 4v12c0 1.654 2 2 3 2v6l9-6h8c1.654 0 3-1.346 3-3V4c0-1.654-1.346-3-3-3zm1 14c0 .551-.449 1-1 1h-9l-6 5v-5H3c-.551 0-1-.449-1-1V4c0-.551.449-1 1-1h17c.551 0 1 .449 1 1v11z"/>
  </symbol>
  <symbol id="chat_comment">
    <path d="M20 1H3C1.346 1 0 2.346 0 4v12c0 1.654 2 2 3 2v6l9-6h8c1.654 0 3-1.346 3-3V4c0-1.654-1.346-3-3-3zm1 14c0 .551-.449 1-1 1h-9l-6 5v-5H3c-.551 0-1-.449-1-1V4c0-.551.449-1 1-1h17c.551 0 1 .449 1 1v11zM4 6h12v2H4zm0 3h15v1H4zm0 2h15v1H4zm0 2h8v1H4z"/>
  </symbol>
  <symbol id="checkbox">
    <path d="M2 4v18h19V4H2zm17 16H4V6h15v14zm-2.002-8H6v3h10.998v-3z"/>
  </symbol>
  <symbol id="checkbox_c">
    <path d="M4 6l9.652.014 1.178-2L2 4v10l2-2V6zm0 14c-.039-.068.023-2.403.023-3.006A5062.721 5062.721 0 012 14v8l5.738.014-1.342-1.986C5.614 20.027 4.398 20 4 20zm15 0l-5.941.014-1.178 2L21 22V8l-2 2v10zm-.986-18.5l-8.25 14.025-2.289-4.004-3.473 1.984L9.713 23.5 21.461 3.527 18.014 1.5z"/>
  </symbol>
  <symbol id="checkmark">
    <path d="M8.98 23l-5.71-9.994 3.473-1.984 2.289 4.004L17.283 1l3.447 2.027L8.98 23z"/>
  </symbol>
  <symbol id="cloud">
    <path d="M19.126 21c2.864 0 4.756-3.161 4.756-6.375 0-2.762-2.28-5.211-5.034-5.578l-.457-1.219C17.282 4.896 14.579 3 11.504 3c-4.102 0-7.438 3.364-7.438 7.5 0 .181.009.358.025.53A4.504 4.504 0 00.118 15.5c0 2.141 1.663 5.193 4.008 5.5h15zm-5.161-8.224c.888-1.278 2.675-1.408 3.473-1.796l.007.02h.692c1.96 0 3.744 1.5 3.744 3.398 0 1.842-1.221 4.602-3.193 4.602H4.241c-1.099 0-2.123-2.373-2.123-3.727.001-1.543 1.366-2.663 2.978-2.336l1.551.37-.381-1.507c-.1-.398-.2-.854-.2-1.314 0-3.033 2.439-5.493 5.438-5.493 2.27 0 4.191 1.357 5.016 3.536-2.023 1.196-2.644 4.035-2.644 4.035"/>
  </symbol>
  <symbol id="conn_50">
    <path d="M14 2v4h-4v4H6v4H2v8h19V2h-7zm1 18h-3V8h3v12zm4 0h-3V4h3v16z"/>
  </symbol>
  <symbol id="conn_ept">
    <path d="M14 2v4h-4v4H6v4H2v8h19V2h-7zM7 20H4v-4h3v4zm4 0H8v-8h3v8zm4 0h-3V8h3v12zm4 0h-3V4h3v16z"/>
  </symbol>
  <symbol id="crop">
    <path d="M19 13V5h-8V1H5v4H1v6h4v8h8v4h6v-4h4v-6h-4zm-9-6h7v7h-2V9h-5V7zm3 4v2h-2v-2h2zM6 9H3V7h3v2zm11 12h-2v-3h2v3zm4-4H7V3h2v12h12v2z"/>
  </symbol>
  <symbol id="cube">
    <path d="M12.111.5L1 5.952v11.034L12 23.5l11-6.514V5.952L12.111.5zM11 20.584l-8-4.738V9.171l8 3.953v7.46zM3.464 7.106l8.664-4.366 8.664 4.366-8.664 4.281-8.664-4.281zM21 15.846l-9 5.33v-7.722l9-4.283v6.675z"/>
  </symbol>
  <symbol id="del">
    <path d="M21.554 23.58l-9.555-9.553-9.555 9.553a1.441 1.441 0 01-2.028 0 1.44 1.44 0 010-2.027L9.972 12 .416 2.447a1.44 1.44 0 010-2.027 1.434 1.434 0 012.028 0l9.555 9.553L21.554.42a1.433 1.433 0 112.025 2.027L14.024 12l9.555 9.553a1.434 1.434 0 11-2.025 2.027z" fill-rule="nonzero"/>
  </symbol>
  <symbol id="disk">
    <path d="M21 0H0v24h24V3l-3-3zm-9 3h3v6h-3V3zm9 18H3V3h1.5v7.5H18V3h1.757L21 4.243V21z" fill-rule="nonzero"/>
  </symbol>
  <symbol id="download">
    <path d="M15 11V0h-5v11H6.047l6.363 6.364L18.773 11zm5.16-4H17v2h3.16c.551 0 .84.016.84.566v7.5c0 .828-.514 1.934-1.34 1.934H4.342c-.826 0-1.34-1.106-1.34-1.934v-7.5c0-.55.289-.566.84-.566h3.16V7h-3.16c-1.654 0-2.84.912-2.84 2.566v11C1.002 22.22 2.188 24 3.842 24H20.16c1.654 0 2.84-1.779 2.84-3.434v-11C23 7.912 21.814 7 20.16 7zM21 20.566c0 .551-.289 1.434-.84 1.434H3.842c-.551 0-.84-.883-.84-1.434v-1.513c0 .317.775.946 1.34.946H19.66c.564 0 1.34-.629 1.34-.946v1.513z"/>
  </symbol>
  <symbol id="edit_a">
    <path d="M2 4v14h14v-6l2-2v10H0V2h10L8 4H2zm10.3-.3l4 4L8 16H4v-4l8.3-8.3zm1.4-1.4L16 0l4 4-2.3 2.3-4-4z"/>
  </symbol>
  <symbol id="edit_b">
    <path d="M3.197 24A3.212 3.212 0 010 20.804V3.196A3.212 3.212 0 013.197 0H12c.657 0 1.2.542 1.2 1.2v.002c0 .658-.543 1.2-1.2 1.2H3.996c-.877 0-1.599.721-1.599 1.597v16c0 .877.722 1.598 1.599 1.598H20c.876 0 1.598-.721 1.598-1.598v-8.002c0-.658.54-1.198 1.199-1.198h.003c.658 0 1.2.54 1.2 1.198v8.802a3.212 3.212 0 01-3.197 3.195L3.197 24zm4.996-8.349a1.359 1.359 0 010-1.911L20.04 1.895a1.353 1.353 0 011.913 1.913L10.105 15.65a1.353 1.353 0 01-.957.396 1.351 1.351 0 01-.95-.396h-.005z" fill-rule="nonzero"/>
  </symbol>
  <symbol id="enter">
    <path d="M12.199 11.566L8 7.367V10H1v3h7v2.766l4.199-4.2zM9 1v3.367l2 2V3h8.089L13 5v12h-2v-.234l-2 2V19h4v4l9-3V1z"/>
  </symbol>
  <symbol id="envelope">
    <path d="M1 6v13h21V6H1zm2 11V9.134L18.544 17H3zm17-1.051l-6.378-3.407L20 9.134v6.815zm-7.912-4.541L5.382 8h13.195l-6.489 3.408z"/>
  </symbol>
  <symbol id="f_book">
    <path d="M9.946 9.363c-1.693-1.309-3.755-2.696-7-2.959l7 2.959zm0 3c-1.693-1.309-3.755-2.696-7-2.959l7 2.959zm-3.001 1.088a11.425 11.425 0 00-3.999-1.047l3.999 1.047zm6.109-4.088l7-2.959c-3.245.263-5.307 1.651-7 2.959zm0 3l7-2.959c-3.245.263-5.307 1.651-7 2.959zm7 .041a11.404 11.404 0 00-3.999 1.047l3.999-1.047zm2-12.041c-4.38 0-8.389 2.045-10.415 3.664h-.277C9.335 2.408 5.326.363.946.363H0v19h.946c3.236 0 6.823 1.246 8.418 2.449.474.359.907.734 1.288 1.116l.801.735h.094l.801-.735c.381-.382.814-.757 1.288-1.116 1.595-1.203 5.182-2.449 8.418-2.449H23v-19h-.946zM11 20.521c0-.102-.244-.205-.376-.305C8.951 18.955 5 17.62 2 17.396V2.404c4 .306 7.263 2.249 8.681 3.662l.271.297H11v14.158zm10-3.125c-3 .224-6.951 1.559-8.624 2.82-.132.1-.376.204-.376.305V6.363h.049l.271-.297C13.737 4.653 17 2.71 21 2.404v14.992z"/>
  </symbol>
  <symbol id="f_box">
    <path d="M1 3v7h1v11h20V10h1V3H1zm19 16H4v-9h16v9zm1-11H3V5h18v3zm-3 3H6v7h12v-7zm-1 6H7v-5h10v5zm-1-4H8v1h8v-1zm-3 2H8v1h5v-1z"/>
  </symbol>
  <symbol id="f_broken">
    <path d="M3 2v21h17V2H3zm15 19H5V4h13v17zm-8.975-5.111l2.475-2.475 2.475 2.475 1.414-1.414L12.914 12l2.475-2.475-1.414-1.414-2.475 2.475-2.475-2.475-1.414 1.414L10.086 12l-2.475 2.475 1.414 1.414z"/>
  </symbol>
  <symbol id="f_bs">
    <path d="M0 1v22h24V1H0zm22 20H2V8h20v13zm0-14H2V3h20v4zM11 4H9v2h2V4zM8 4H6v2h2V4zM5 4H3v2h2V4z"/>
  </symbol>
  <symbol id="f_cald">
    <path d="M20 4V0h-6v4h-4V0H4v4H0v19h24V4h-4zm-4-2h2v4h-2V2zM6 2h2v4H6V2zm16 19H2V10h20v11zm0-12H2V6h2v2h6V6h4v2h6V6h2v3zM5.001 12.999h1.998v2H5.001zm3 0h1.998v2H8.001zm2.997 0h1.998v2h-1.998zm3 0h1.998v2h-1.998zm3.003 0h1.998v2h-1.998zm-12 2.999h1.998v2H5.001zm3 0h1.998v2H8.001zm2.997 0h1.998v2h-1.998z"/>
  </symbol>
  <symbol id="f_clipboard">
    <path d="M2 0v24h20V0H2zm18 22H4V2h16v20zM19 4h-3V3H8v1H5v17h14V4zM9 4h6v1H9V4zm9 16H6V5h2v1h8V5h2v15zM7 9h9V7H7v2zm0 2h9v-1H7v1zm0 2h9v-1H7v1zm0 2h9v-1H7v1zm0 2h4v-1H7v1z"/>
  </symbol>
  <symbol id="f_email">
    <path d="M13 6H7v2h6V6zm3 3H7v1h9V9zm0 2H7v1h9v-1zm4 1.001V1H3v11.033L1 11v13h21V11.008l-2 .993zM5 3h13v9.909l-2 1.072V13H7v1h8.965l-4.492 2.408L5 13.065V3zM3 22v-7.866L17.651 22H3zm17-1.051l-6.378-3.407L20 14.134v6.815z"/>
  </symbol>
  <symbol id="f_file">
    <path d="M7 7h6v2H7zm0 3h9v1H7zm0 2h9v1H7zm0 2h9v1H7zm0 2h3v1H7zm9.43-14H3v21h17V5.535L16.43 2zM18 6.363V7h-3V4h.602L18 6.363zM5 21V4h9v4h4v13H5z"/>
  </symbol>
  <symbol id="f_file_add">
    <path d="M8 7v2h6V7H8zm0 4h9v-1H8v1zm9 1H9v1h8v-1zm0 3v-1h-7v1h7zm-9-1H5v3H2v3h3v3h3v-3h3v-3H8v-3zM4 2v10h2V4h13v17h-6.643l-1 2H21V2H4z"/>
  </symbol>
  <symbol id="f_files">
    <path d="M5 0v3H2v21h17v-3h3V0H5zm12 22H4V5h1v16h12v1zm3-3H7V2h13v17zM15 5H9v2h6V5zm3 3H9v1h9V8zm0 2H9v1h9v-1zm0 2H9v1h9v-1zm-6 2H9v1h3v-1z"/>
  </symbol>
  <symbol id="f_folder_add">
    <path d="M14 3V2a2 2 0 00-2-2H8a2 2 0 00-2 2v1H2v3H1v7h2V8h18v12H10v2h13V3h-9zm7 3H4V5h4V2h4v3h9v1zM6 14H3v3H0v3h3v3h3v-3h3v-3H6z"/>
  </symbol>
  <symbol id="f_folder_check">
    <path d="M14 4V3a2 2 0 00-2-2H8a2 2 0 00-2 2v1H2v3H1v7h2V9h18v12H10v2h13V4h-9zm7 3H4V6h4V3h4v3h9v1zM4.002 19.5l-.743-1.875-1.483 1.848 2.44 3.271 4.02-6.535-1.473-.865z"/>
  </symbol>
  <symbol id="f_folder_set">
    <path d="M14 4V3a2 2 0 00-2-2H8a2 2 0 00-2 2v1H2v3H1v7h2V9h18v12H10v2h13V4h-9zm7 3H4V6h4V3h4v3h9v1zM7.448 19.521c.04-.168.051-.342.051-.521 0-.18-.024-.353-.063-.521l1.543-.923-.888-1.356-1.455.927c-.213-.162-.619-.291-.619-.38V15H3.983v1.747c0 .089-.406.218-.619.38L1.909 16.2l-.888 1.356 1.543.923a2.351 2.351 0 00-.063.521c0 .179.011.353.051.521l-1.554.923.863 1.357 1.502-.928c.214.162.62.291.62.381V23h2.033v-1.746c0-.09.406-.219.62-.381l1.502.928.863-1.357-1.553-.923zM5 20.599c-.918-.006-1.662-.719-1.662-1.599S4.082 17.407 5 17.401c.918.006 1.662.719 1.662 1.599S5.918 20.593 5 20.599z"/>
  </symbol>
  <symbol id="f_window">
    <path d="M0 1v22h24V1H0zm22 20H2V8h20v13zm0-14H2V3h20v4zM11 4H9v2h2V4zM8 4H6v2h2V4zM5 4H3v2h2V4zm4.025 13.889l2.475-2.475 2.475 2.475 1.414-1.414L12.914 14l2.475-2.475-1.414-1.414-2.475 2.475-2.475-2.475-1.414 1.414L10.086 14l-2.475 2.475 1.414 1.414z"/>
  </symbol>
  <symbol id="f_windows">
    <path d="M3 1v3H0v19h21v-3h3V1H3zm16 20H2V6h1v14h16v1zm3-3H5V8h17v10zm0-11H5V3h17v4zm-8-3h-2v2h2V4zm-3 0H9v2h2V4zM8 4H6v2h2V4z"/>
  </symbol>
  <symbol id="f_zip">
    <path d="M21 11V4h-3V1H2v10H1v2h1v11h20V13h1v-2h-2zm-2-5v5H7V6h12zM4 3h12v1H5v7H4V3zm16 19H4v-9h16v9zm-2-8H6v7h12v-7zm-1 6H7v-5h10v5zm-1-4H8v1h8v-1zm-3 2H8v1h5v-1z"/>
  </symbol>
  <symbol id="grid">
    <path d="M1 2v21h20.98V2H1zm18.982 7h-4.996V4h4.996v5zm0 6h-4.996v-5h4.996v5zm0 6h-4.996v-5h4.996v5zM2.998 16h4.996v5H2.998v-5zm0-6h4.996v5H2.998v-5zm0-6h4.996v5H2.998V4zm10.99 5H8.993V4h4.996v5zm0 6H8.993v-5h4.996v5zm-4.995 1h4.996v5H8.993v-5z"/>
  </symbol>
  <symbol id="home_a">
    <path d="M21 7.651V1h-5v2.963L11.982 1 0 10h3v13h18V10l3 .002-3-2.351zM12 21H8v-8h4v8zm7 0h-6v-9H7v9H5V9l7.009-5L19 9v12zm0-15.868l-1-.667V3h1v2.132zM18 14h-4v4h4v-4zm-1 3h-2v-2h2v2zm-6 0h-1v1h1v-1z"/>
  </symbol>
  <symbol id="home_b">
    <path d="M4.808 23.222c-1.627-.004-2.964-1.365-2.967-3.02v-7.54l-.13.132a.994.994 0 01-1.417 0 1.026 1.026 0 01-.294-.72c0-.271.105-.531.294-.722L9.9 1.577a2.951 2.951 0 014.2 0l9.606 9.775c.189.19.294.451.294.721 0 .27-.105.53-.294.721a.993.993 0 01-1.419 0l-.13-.133v7.541c-.003 1.655-1.34 3.016-2.967 3.02H4.808zm6.51-20.203l-7.472 7.603v9.58c0 .538.435.98.964.98h14.378a.976.976 0 00.964-.98v-9.58l-7.47-7.603a.956.956 0 00-1.362 0h-.001zM6.294 13.398a.96.96 0 01.39-1.292.938.938 0 011.272.397 4.624 4.624 0 004.043 2.674 4.624 4.624 0 004.043-2.674.94.94 0 01.831-.51.954.954 0 01.94.957c0 .156-.037.31-.109.448-1.065 2.222-3.276 3.652-5.706 3.691-2.43-.04-4.639-1.47-5.704-3.691z" fill-rule="nonzero"/>
  </symbol>
  <symbol id="image">
    <path d="M0 3v18h24V3H0zm22 16H2V5h20v14zm-7.5-6.556c1.103 0 2-.896 2-2s-.897-2-2-2-2 .896-2 2 .897 2 2 2zm-1-3h2v2h-2v-2zM21 6H3v12h18V6zM4 12.965l6.049 1.728L4 15.761v-2.796zM20 17H4v-.225l16-2.823V17zm0-4.048l-8 1.492-8-2.479V7h16v5.952z"/>
  </symbol>
  <symbol id="list">
    <path d="M9.004 3v19h11.989v-8h2.996V3H9.004zm9.99 17h-7.992v-3h7.992v3zm0-4h-7.992v-3h7.992v3zm2.997-4H11.002V9h10.989v3zm0-4H11.002V5h10.989v3zM.011 22h6.995V3H.011v19zM2.009 5h2.998v3H2.009V5zm0 4h2.998v3H2.009V9zm0 4h2.998v3H2.009v-3zm0 4h2.998v3H2.009v-3z"/>
  </symbol>
  <symbol id="loading">
    <path d="M13.545 23.155l-1.074-4.33a1.124 1.124 0 011.094-1.31c.479 0 .906.312 1.055.77l1.075 4.33a1.124 1.124 0 01-1.094 1.31 1.117 1.117 0 01-1.056-.77zm-4.464.812a1.124 1.124 0 01-.81-1.352l1.075-4.33a1.113 1.113 0 011.06-.787 1.122 1.122 0 011.09 1.327l-1.075 4.33a1.12 1.12 0 01-1.346.812h.006zm9.383-2.803l-2.974-3.32a1.119 1.119 0 01.825-1.863c.314 0 .615.134.826.37l2.972 3.315a1.116 1.116 0 01-.82 1.862h-.005c-.314 0-.615-.134-.825-.37v.006zm-14.524.071a1.129 1.129 0 01-.082-1.575l2.973-3.316c.21-.235.51-.37.825-.37a1.119 1.119 0 01.825 1.864l-2.972 3.32a1.117 1.117 0 01-1.569.077zm17.924-4.117l-4.147-1.593a1.121 1.121 0 01-.685-1.03 1.122 1.122 0 011.114-1.115c.126 0 .249.022.367.063l4.143 1.599c.442.157.74.58.74 1.052a1.124 1.124 0 01-1.116 1.112 1.12 1.12 0 01-.42-.082l.004-.006zm-21.19-.634a1.128 1.128 0 01.64-1.44l4.143-1.606c.12-.043.247-.065.375-.065.61 0 1.112.501 1.117 1.113 0 .454-.276.864-.695 1.034l-4.141 1.604a1.119 1.119 0 01-1.433-.642l-.006.002zm16.721-4.979a1.124 1.124 0 01.961-1.243l4.409-.543A1.124 1.124 0 0124 10.827a1.122 1.122 0 01-.964 1.106l-4.41.545a1.123 1.123 0 01-1.237-.972h.006zm-12.048.973l-4.41-.546A1.121 1.121 0 010 10.83a1.124 1.124 0 011.209-1.111l4.408.545c.562.06.993.542.993 1.11a1.124 1.124 0 01-1.263 1.104zm11.13-3.403a1.113 1.113 0 01.274-1.56l3.636-2.554a1.1 1.1 0 01.607-.18 1.118 1.118 0 01.666 2.007l-3.636 2.559a1.111 1.111 0 01-1.553-.274l.007.002zM5.95 9.347L2.311 6.788a1.119 1.119 0 01-.504-.934V5.85c0-.611.5-1.114 1.11-1.114.241 0 .475.08.667.224l3.64 2.559a1.117 1.117 0 01-.618 2.043 1.11 1.11 0 01-.657-.216zm8.55-2.04a1.124 1.124 0 01-.458-1.507l2.086-3.939c.195-.352.568-.572.97-.573a1.119 1.119 0 01.99 1.62l-2.086 3.943c-.287.54-.964.747-1.501.46v-.003zm-6.526-.456L5.887 2.912A1.123 1.123 0 016.891 1.32c.391 0 .755.208.955.545l2.086 3.938a1.122 1.122 0 01-.971 1.658 1.11 1.11 0 01-.99-.61h.002zm2.903-1.272V1.118A1.12 1.12 0 0111.99 0c.61 0 1.112.504 1.112 1.117v4.496c0 .613-.5 1.115-1.11 1.115a1.123 1.123 0 01-1.11-1.115v-.036l-.005.001z"/>
  </symbol>
  <symbol id="lock">
    <path d="M19 9V6c0-2-2-5-7-5S5 4 5 6v3H3v11c0 1.654 1.346 3 3 3h12c1.654 0 3-1.346 3-3V9h-2zM7 5s1-2 5-2 5 2 5 2v4H7V5zm12 15c0 .551-.448 1-1 1H6c-.552 0-1-.449-1-1v-9h14v9zm-8-3.277V19h2v-2.277A1.99 1.99 0 0014 15a2 2 0 00-4 0c0 .738.404 1.376 1 1.723z"/>
  </symbol>
  <symbol id="locked_un">
    <path d="M19 0c-4 0-5 3-5 5v5H0v11c0 1.654 1.346 3 3 3h12c1.654 0 3-1.346 3-3V10h-2V4s0-2 3-2 3 2 3 2v4h2V5c0-2-1-5-5-5zm-3 21c0 .551-.448 1-1 1H3c-.552 0-1-.449-1-1v-9h14v9zm-8-3.277V20h2v-2.277A1.99 1.99 0 0011 16a2 2 0 00-4 0c0 .738.404 1.376 1 1.723z"/>
  </symbol>
  <symbol id="mp_off">
    <path d="M4 14.758l1-1V10H4v2H3v2h1v.758zM19 12v-2h-1v5c0 1.121-1.944 2-3.54 2H9.548l-2 1H9v3H7v2h9v-2h-2v-3h.46c2.717 0 4.54-.757 4.54-3v-1h1v-2h-1zm-6-6V5h-1v1h1zm-5 4h2V9H8V8h2V7H8V6h2V5H8V4c0-.551-.246-1 .306-1h5c.48 0 .863.347.959.799l1.504-1.504A2.996 2.996 0 0013.306 1h-5C6.651 1 6 2.346 6 4v8.758l2-2V10zm5.306 4h-1.758l-2 2h3.758C14.96 16 17 14.654 17 13V9.242l-2 2V13c0 .551-1.143 1-1.694 1zm4.25-10.604l-14 14 1 2 14-14-1-2z"/>
  </symbol>
  <symbol id="mp_on">
    <path d="M14 1H9a3 3 0 00-3 3v9a3 3 0 003 3h5a3 3 0 003-3V4a3 3 0 00-3-3zm1 5v1h-2v1h2v1h-2v1h2v1h-2v1h2v1c0 .551.072 1-.479 1H8.479C7.928 14 8 13.551 8 13v-1h2v-1H8v-1h2V9H8V8h2V7H8V6h2V5H8V4c0-.551-.072-1 .479-1h6.041c.552 0 .48.449.48 1v1h-2v1h2zm4 6v-2h-1v5c0 1.121-.729 2-2.325 2h-8.35C5.729 17 5 16.121 5 15v-5H4v2H3v2h1v1c0 2.243.608 3 3.325 3H9v3H7v2h9v-2h-2v-3h1.675C18.392 18 19 17.243 19 15v-1h1v-2h-1z"/>
  </symbol>
  <symbol id="mw">
    <path d="M21 3H3C1.346 3 0 4.346 0 6v11c0 1.654 1.346 3 3 3h1l1 2h1l1-2h10l1 2h1l1-2h1c1.654 0 3-1.346 3-3V6c0-1.654-1.346-3-3-3zm1 14c0 .552-.449 1-1 1H3c-.551 0-1-.448-1-1V6c0-.551.449-1 1-1h18c.551 0 1 .449 1 1v11zM3 17h15V6H3v11zM4 7h13v9H4V7zm15 0h1v1h-1zm1 1h1v1h-1zm-1 1h1v1h-1zm1 1h1v1h-1zm-1 3h2v1h-2zm0 2h2v1h-2z"/>
  </symbol>
  <symbol id="pc_laptop">
    <path d="M3 6h18v10h2V4H1v12h2V6zm13 11c-.192.402-1.145.725-2 .886V18h-4v-.114c-.855-.161-1.808-.484-2-.886H0v1c0 1.1 3 2 3 2h18s3-.9 3-2v-1h-8zm4 2h-1v-1h1v1z"/>
  </symbol>
  <symbol id="pc_phone">
    <path d="M16 3H8c-1.1 0-2 .9-2 2v14c0 1.1.9 2 2 2h8c1.1 0 2-.9 2-2V5c0-1.1-.9-2-2-2zm-3 17h-2v-2h2v2zm3-3H8V5h8v12z"/>
  </symbol>
  <symbol id="pc_screen">
    <path d="M0 2v14h9.75L8 19h8l-1.75-3H24V2H0zm22 12H2V4h20v10zm-5 6H7c-.55 0-1 .45-1 1s.45 1 1 1h10c.55 0 1-.45 1-1s-.45-1-1-1z"/>
  </symbol>
  <symbol id="pc_tablet">
    <path d="M19 1H5c-1.1 0-2 .9-2 2v18c0 1.1.9 2 2 2h14c1.1 0 2-.9 2-2V3c0-1.1-.9-2-2-2zm-6 21h-2v-2h2v2zm6-3H5V3h14v16z"/>
  </symbol>
  <symbol id="pencil">
    <path d="M12.91.604L4.111 16.309l.045.023.445 7.064 6.447-3.202.041.023 8.799-15.704L12.91.604zM6.055 20.9l-.061-3.539 3.199 1.793L6.055 20.9zm4.267-3.404l-3.488-1.955 5.377-9.597 3.49 1.954-5.379 9.598zm2.377-12.425l.979-1.745 3.488 1.955-.977 1.744-3.49-1.954z"/>
  </symbol>
  <symbol id="qrcode">
    <path d="M7.5 1.5h-6v6h6v-6zM9 0v9H0V0h9zM3 3h3v3H3V3zm19.5-1.5h-6v6h6v-6zM24 0v9h-9V0h9zm-6 3h3v3h-3V3zM7.5 16.5h-6v6h6v-6zM9 15v9H0v-9h9zm-6 3h3v3H3v-3zm7.5-18H12v1.5h-1.5V0zM12 1.5h1.5V3H12V1.5zM10.5 3H12v1.5h-1.5V3zM12 4.5h1.5V6H12V4.5zM10.5 6H12v1.5h-1.5V6zM12 7.5h1.5V9H12V7.5zM10.5 9H12v1.5h-1.5V9zm0 3H12v1.5h-1.5V12zm1.5 1.5h1.5V15H12v-1.5zM10.5 15H12v1.5h-1.5V15zm1.5 1.5h1.5V18H12v-1.5zM10.5 18H12v1.5h-1.5V18zm1.5 1.5h1.5V21H12v-1.5zM10.5 21H12v1.5h-1.5V21zm1.5 1.5h1.5V24H12v-1.5zM22.5 12H24v1.5h-1.5V12zm-21 0H3v1.5H1.5V12zM3 10.5h1.5V12H3v-1.5zm-3 0h1.5V12H0v-1.5zm6 0h1.5V12H6v-1.5zM7.5 12H9v1.5H7.5V12zM9 10.5h1.5V12H9v-1.5zm4.5 1.5H15v1.5h-1.5V12zm1.5-1.5h1.5V12H15v-1.5zm1.5 1.5H18v1.5h-1.5V12zm1.5-1.5h1.5V12H18v-1.5zm1.5 1.5H21v1.5h-1.5V12zm1.5-1.5h1.5V12H21v-1.5zm1.5 4.5H24v1.5h-1.5V15zm-9 0H15v1.5h-1.5V15zm1.5-1.5h1.5V15H15v-1.5zm1.5 1.5H18v1.5h-1.5V15zm3 0H21v1.5h-1.5V15zm1.5-1.5h1.5V15H21v-1.5zm1.5 4.5H24v1.5h-1.5V18zm-9 0H15v1.5h-1.5V18zm1.5-1.5h1.5V18H15v-1.5zm3 0h1.5V18H18v-1.5zm1.5 1.5H21v1.5h-1.5V18zm1.5-1.5h1.5V18H21v-1.5zm1.5 4.5H24v1.5h-1.5V21zM15 19.5h1.5V21H15v-1.5zm1.5 1.5H18v1.5h-1.5V21zm1.5-1.5h1.5V21H18v-1.5zm1.5 1.5H21v1.5h-1.5V21zM15 22.5h1.5V24H15v-1.5zm3 0h1.5V24H18v-1.5zm3 0h1.5V24H21v-1.5z" fill-rule="nonzero"/>
  </symbol>
  <symbol id="return_lt">
    <path d="M21.6 14.4v1.2h-12v6l-7.2-7.2 7.2-7.2v6h9.6V2.4h2.4z"/>
  </symbol>
  <symbol id="return_rt">
    <path d="M4.2 15.6h10.2v6l7.2-7.2-7.2-7.2v6H4.8V2.4H2.4v13.2z"/>
  </symbol>
  <symbol id="select">
    <path d="M19 .999H4v21h8v-7h7v-14zm-8 19H6v-5h5v5zm0-6H6v-5h5v5zm0-6H6v-5h5v5zm6 6h-5v-5h5v5zm0-6h-5v-5h5v5zm-2.975 9.109l2 6.111.75-3.223H19.9l-5.875-2.888z"/>
  </symbol>
  <symbol id="settings">
    <path d="M9.998 8.498c2.039 0 3.702 1.531 3.95 3.502h3.516a7.622 7.622 0 00-.212-1.379l2.841-1.64-2.001-3.466-2.837 1.638A7.482 7.482 0 0012 5.276V1.998H7.998v3.278a7.484 7.484 0 00-3.256 1.876L1.906 5.515-.095 8.981l2.839 1.639c-.155.602-.247 1.228-.247 1.878s.091 1.277.247 1.878l-2.839 1.64 2.001 3.465 2.835-1.637a7.477 7.477 0 003.257 1.876v3.278H12v-7.055a3.963 3.963 0 01-2.002.556 4 4 0 010-8.001zm13 9.502c0-.37-.066-.722-.161-1.062l1.857-1.072-.999-1.73-1.844 1.064a4.004 4.004 0 00-1.853-1.061V12H18v2.139a3.981 3.981 0 00-1.856 1.06l-1.841-1.063-.999 1.73 1.853 1.069c-.095.342-.162.694-.162 1.065s.067.724.162 1.065l-1.853 1.069.999 1.73 1.841-1.063A3.986 3.986 0 0018 21.861V24h1.998v-2.14a4.004 4.004 0 001.853-1.061l1.845 1.065.999-1.73-1.857-1.072c.094-.34.16-.692.16-1.062zm-4.002 1.998a1.998 1.998 0 110-3.996 1.998 1.998 0 010 3.996z"/>
  </symbol>
  <symbol id="stack">
    <path d="M21 6V3H0v15h3v3h21V6h-3zM3 16H2V5h17v1H3v10zm19 3H5V8h17v11z"/>
  </symbol>
  <symbol id="star">
    <path d="M18.364 23.523c-.379.002-.777-.107-1.184-.322l-3.876-2.037c-.648-.342-1.96-.342-2.61 0L6.82 23.201c-.97.51-1.941.389-2.494-.266-.267-.316-.551-.891-.39-1.828l.74-4.316c.13-.76-.255-1.943-.807-2.482L.732 11.253C.075 10.61-.173 9.847.051 9.157c.225-.689.875-1.161 1.785-1.293l4.332-.63c.764-.111 1.771-.842 2.111-1.533l1.939-3.928C10.625.949 11.274.477 12 .477s1.375.473 1.781 1.297l1.939 3.928c.341.691 1.348 1.422 2.111 1.533l4.332.63c.91.132 1.561.604 1.785 1.293s-.024 1.453-.683 2.096l-3.137 3.056c-.552.539-.937 1.723-.807 2.482l.74 4.316c.161.938-.123 1.512-.39 1.826-.317.38-.783.589-1.307.589zM12 18.895c.83 0 1.624.178 2.235.5l3.853 2.025-.735-4.291c-.243-1.418.351-3.246 1.381-4.252l3.118-3.037-4.307-.627c-1.426-.207-2.981-1.336-3.617-2.627L12 2.683l-1.928 3.903c-.636 1.291-2.191 2.42-3.617 2.627l-4.307.627 3.118 3.037c1.03 1.006 1.624 2.834 1.381 4.252l-.735 4.291 3.852-2.025c.612-.323 1.406-.5 2.236-.5z"/>
  </symbol>
  <symbol id="stats_bars">
    <path d="M0 20.5h24v3H0v-3zm3-6h3V19H3v-4.5zm4.5-6h3V19h-3V8.5zM12 13h3v6h-3v-6zm4.5-9h3v15h-3V4z" fill-rule="nonzero"/>
  </symbol>
  <symbol id="stats_dots">
    <path d="M3 21h21v3H0V0h3v21zm3.75-1.5a2.25 2.25 0 11.197-4.491l2.418-4.031a2.25 2.25 0 113.77 0l2.418 4.031a2.428 2.428 0 01.345-.004l3.993-6.987a2.25 2.25 0 111.71.976l-3.992 6.988a2.25 2.25 0 11-3.743.04l-2.42-4.032a2.428 2.428 0 01-.393 0l-2.418 4.031A2.25 2.25 0 016.75 19.5v.001z" fill-rule="nonzero"/>
  </symbol>
  <symbol id="stats_graph">
    <path d="M22.998 22.002H21V21h-1.002v1.002h-1.995V21h-1.002v1.002h-1.998V21h-1.002v1.002h-1.998V21h-1.002v1.002H9.003V21H8.001v1.002H3.6l5.27-3.167 2.608-7.622 3.874 6.809 7.507-12.508-1.714-1.03-5.747 9.576-4.376-7.691-3.809 11.128-5.215 3.134V0H0v24h24v-3h-1.002zm0-22.002H24v1.002h-1.002zm-3 0H21v1.002h-1.002zm-2.997 0h1.002v1.002h-1.002zm-3 0h1.002v1.002h-1.002zm-3 0h1.002v1.002h-1.002zm-3 0h1.002v1.002H8.001zm-3 0h1.002v1.002H5.001zm-3 0h1.002v1.002H2.001zm20.997 3H24v1.002h-1.002zm-3 0H21v1.002h-1.002zm-2.997 0h1.002v1.002h-1.002zm-3 0h1.002v1.002h-1.002zm-3 0h1.002v1.002h-1.002zm-3 0h1.002v1.002H8.001zm-3 0h1.002v1.002H5.001zm-3 0h1.002v1.002H2.001zm20.997 2.997H24v1.002h-1.002zm-5.997 0h1.002v1.002h-1.002zm-3 0h1.002v1.002h-1.002zm-6 0h1.002v1.002H8.001zm-3 0h1.002v1.002H5.001zm-3 0h1.002v1.002H2.001zm20.997 3H24v1.002h-1.002zm-8.997 0h1.002v1.002h-1.002zm-6 0h1.002v1.002H8.001zm-3 0h1.002v1.002H5.001zm-3 0h1.002v1.002H2.001zm20.997 3.002H24v1.002h-1.002zm-3 0H21v1.002h-1.002zm-14.997 0h1.002v1.002H5.001zm-3 0h1.002v1.002H2.001zm20.997 3H24v1.002h-1.002zm-3 0H21v1.002h-1.002zm-8.997 0h1.002v1.002h-1.002zm-6 0h1.002v1.002H5.001zm-3 0h1.002v1.002H2.001zm20.997 2.997H24v1.002h-1.002zm-3 0H21v1.002h-1.002zm-2.997 0h1.002v1.002h-1.002zm-6 0h1.002v1.002h-1.002zm-9 0h1.002v1.002H2.001z"/>
  </symbol>
  <symbol id="trash_a">
    <path d="M3 7.5v15c0 .825.675 1.5 1.5 1.5H18c.825 0 1.5-.675 1.5-1.5v-15H3zM7.5 21H6V10.5h1.5V21zm3 0H9V10.5h1.5V21zm3 0H12V10.5h1.5V21zm3 0H15V10.5h1.5V21zM19.875 3H15V1.125C15 .506 14.494 0 13.875 0h-5.25C8.006 0 7.5.506 7.5 1.125V3H2.625C2.006 3 1.5 3.506 1.5 4.125V6H21V4.125C21 3.506 20.494 3 19.875 3zM13.5 3H9V1.519h4.5V3z" fill-rule="nonzero"/>
  </symbol>
  <symbol id="trash_b">
    <path d="M15 4V1H9v3H5v2h14V4h-4zm-1.982 0h-2V3h2v1zM5 7v15l2 2h10l2-2V7H5zm3 15H7V11h1v11zm2 0H9V11h1v11zm2 0h-1V11h1v11zm5 0h-4V11h4v11zm0-12H7V9h10v1z"/>
  </symbol>
  <symbol id="usr">
    <path d="M23.676 19.99c-1.677-4.008-4.914-5.873-7.423-6.739 1.12-1.537 1.733-3.792 1.757-6.55.041-4.656-3.798-5.921-5.833-5.938s-5.896 1.18-5.938 5.836c-.024 2.757.55 5.021 1.642 6.579-2.523.82-5.795 2.632-7.54 6.608l-.413.938.949.39c.207.083 5.126 2.07 11.102 2.122 5.977.053 10.93-1.847 11.139-1.927l.955-.372-.397-.947zM12.153 2.763c.399.008 3.89.178 3.857 3.921-.026 2.996-.841 5.274-2.232 6.251l-1.721 1.208-1.696-1.237c-1.375-1.002-2.149-3.294-2.122-6.29.033-3.744 3.527-3.852 3.914-3.853zm-.156 18.474c-4.046-.035-7.648-1.047-9.341-1.607 1.83-3.205 4.931-4.457 7.312-4.937l2.089-.421 2.081.456c2.373.523 5.452 1.829 7.227 5.064-1.699.532-5.31 1.481-9.368 1.445z"/>
  </symbol>
  <symbol id="usrs">
    <path d="M23.588 19.96c-1.459-3.359-4.841-5.31-7.296-6.144 1.504-1.229 2.392-3.547 2.392-6.583 0-4.035-3.373-5.102-5.157-5.102-.287 0-.617.032-.965.095C11.604 1.365 10.337 1 9.329 1 7.465 1 4.692 2.222 4.692 5.587c0 2.678.782 4.729 2.109 5.833-2.088.546-4.932 1.894-6.389 5.249L0 17.618l.963.38c.086.034 1.27.488 3.062.889a9.928 9.928 0 00-.561 1.073l-.413.949.963.38C4.192 21.358 8.415 23 13.526 23s9.334-1.642 9.512-1.711l.962-.38-.412-.949zM16.684 7.234c0 3.431-1.21 5.562-3.157 5.562s-3.157-2.131-3.157-5.562c0-2.92 2.635-3.096 3.152-3.102.527.006 3.162.182 3.162 3.102zM9.329 3c.101 0 .501.017.958.165-1.07.77-1.917 2.046-1.917 4.069 0 1.099.119 2.102.338 2.996-1.472-.469-2.016-2.615-2.016-4.643 0-2.431 2.202-2.582 2.637-2.587zm0 10.046c.012 0 .29.006.726.062a4.56 4.56 0 001.527 1.239c-1.574.315-3.816 1.067-5.634 2.865a25.488 25.488 0 01-3.185-.72c2.147-3.38 6.374-3.445 6.566-3.446zM13.526 21c-3.276 0-6.567-.75-8.071-1.214.237-.687.986-1.595 1.246-1.907 2.793-2.705 6.784-2.762 6.822-2.762.008 0 .729.011 1.755.216 1.782.45 4.55 2.095 5.974 4.451-1.503.464-4.445 1.216-7.726 1.216z"/>
  </symbol>
  <symbol id="vol_d">
    <path d="M11.768 1l-4 5h-4C2.113 6 1 7.596 1 9.25V15c0 1.654 1.113 3 2.768 3h4l4 5H14V1h-2.232zM7 16H3.768C3.215 16 3 15.551 3 15V9.25C3 8.699 3.215 8 3.768 8H7v8zm5 4l-4-4V8l4-4v16zm5-9h6v2h-6z"/>
  </symbol>
  <symbol id="vol_i">
    <path d="M11.768 1l-4 5h-4C2.113 6 1 7.596 1 9.25V15c0 1.654 1.113 3 2.768 3h4l4 5H14V1h-2.232zM7 16H3.768C3.215 16 3 15.551 3 15V9.25C3 8.699 3.215 8 3.768 8H7v8zm5 4l-4-4V8l4-4v16zm11-9h-2V9h-2v2h-2v2h2v2h2v-2h2z"/>
  </symbol>
  <symbol id="vol_n">
    <path d="M12.768 1l-4 5h-4C3.113 6 2 7.596 2 9.25V15c0 1.654 1.113 3 2.768 3h4l4 5H15V1h-2.232zM8 16H4.768C4.215 16 4 15.551 4 15V9.25C4 8.699 4.215 8 4.768 8H8v8zm5 4l-4-4V8l4-4v16zm4-13v2.083c2 .415 2 1.515 2 2.815 0 1.303 0 2.402-2 2.816v2.083c3-.465 4-2.484 4-4.899C21 9.484 20 7.465 17 7z"/>
  </symbol>
  <symbol id="vol_no">
    <path d="M14 13.242V20l-3.379-3.379L9.242 18h.525l4 5h2.232V11.242l-1.999 2zm-8.983 1.913C5.013 15.103 5 15.055 5 15V9.25C5 8.699 5.215 8 5.768 8H9v3.172l1-1V8l4-4v2.172l2-2V1h-2.232l-4 5h-4C4.113 6 3 7.596 3 9.25V15c0 .636.167 1.223.463 1.709l1.554-1.554zm-1.603 6.552L2 20.293l18.5-18.5 1.414 1.414-18.5 18.5z"/>
  </symbol>
  <symbol id="wifi_ful">
    <path d="M6.984 15.918L8.4 17.334c.922-.922 2.195-1.494 3.6-1.494s2.678.572 3.6 1.494l1.416-1.416C15.732 14.635 13.959 13.84 12 13.84s-3.732.795-5.016 2.078zm-3.226-3.227l1.418 1.418C6.924 12.36 9.338 11.277 12 11.277s5.076 1.083 6.824 2.832l1.418-1.418C18.133 10.582 15.219 9.277 12 9.277s-6.133 1.305-8.242 3.414zM12 4.715A16.167 16.167 0 00.531 9.466l1.419 1.419C4.525 8.31 8.08 6.715 12 6.715s7.475 1.595 10.05 4.17l1.419-1.419A16.167 16.167 0 0012 4.715zM12 18a1.5 1.5 0 10.001 3.001A1.5 1.5 0 0012 18z"/>
  </symbol>
  <symbol id="wifi_mid">
    <path d="M6.984 12.918L8.4 14.334c.922-.922 2.195-1.494 3.6-1.494s2.678.572 3.6 1.494l1.416-1.416C15.732 11.634 13.959 10.84 12 10.84s-3.732.794-5.016 2.078zM12 6.277a11.62 11.62 0 00-8.242 3.414l1.418 1.418C6.924 9.36 9.338 8.277 12 8.277s5.076 1.083 6.824 2.832l1.418-1.418A11.62 11.62 0 0012 6.277zM12 15a1.5 1.5 0 10.001 3.001A1.5 1.5 0 0012 15z"/>
  </symbol>
  <symbol id="y_atom">
    <path d="M12 8.999a3.001 3.001 0 000 6 3.001 3.001 0 000-6zm9.231.366a2.447 2.447 0 01-.869-.493c-.404.744-.902 1.507-1.439 2.272a34.772 34.772 0 00-2.851-3.219 34.616 34.616 0 00-3.226-2.854c2.577-1.816 5.054-2.909 6.817-2.909.716 0 1.264.185 1.628.549.396.396.571 1.018.54 1.806.057-.004.11-.018.168-.018.288 0 .562.059.819.148.062-1.121-.204-2.027-.82-2.644-.559-.559-1.344-.842-2.335-.842-2.043 0-4.812 1.219-7.662 3.277C9.151 2.38 6.382 1.16 4.339 1.16c-.212 0-.411.02-.604.046.273.264.479.59.61.955 1.763.002 4.238 1.095 6.813 2.91A34.568 34.568 0 007.93 7.927a34.665 34.665 0 00-2.856 3.234c-.855-1.211-1.56-2.412-2.065-3.553a10.702 10.702 0 01-.712-2.14c-.099.013-.195.031-.297.031a2.49 2.49 0 01-.736-.123c.134.796.405 1.678.831 2.638.567 1.281 1.365 2.632 2.345 3.988-.979 1.354-1.775 2.705-2.343 3.985-1.209 2.727-1.241 4.861-.091 6.011.559.559 1.344.842 2.335.842 3.02 0 7.626-2.656 11.735-6.767a34.216 34.216 0 002.859-3.243c2.77 3.914 3.564 7.25 2.355 8.459-.364.364-.912.549-1.628.549-.943 0-2.095-.318-3.354-.887-.133.32-.33.604-.575.842 1.458.675 2.804 1.045 3.929 1.045.991 0 1.776-.283 2.335-.842 1.738-1.738.641-5.731-2.449-10.011.635-.881 1.215-1.761 1.683-2.62zM4.341 21.84c-.716 0-1.264-.185-1.628-.549-.825-.825-.717-2.61.298-4.898.505-1.14 1.209-2.339 2.062-3.55a33.993 33.993 0 006.1 6.076C8.59 20.743 6.106 21.84 4.341 21.84zm11.028-6.474a33.118 33.118 0 01-3.364 2.942 33.3 33.3 0 01-6.314-6.306 33.267 33.267 0 012.946-3.368 33.184 33.184 0 013.365-2.944 33.25 33.25 0 013.363 2.942 33.868 33.868 0 012.952 3.36 32.866 32.866 0 01-2.948 3.374zM22 5.999a1 1 0 100 2 1 1 0 100-2zm-8 13a1 1 0 100 2 1 1 0 100-2zm-12-15a1 1 0 100-2 1 1 0 100 2z"/>
  </symbol>
  <symbol id="y_bolt">
    <path d="M16.609 11.585l-4.331-.93 1.999-9.306-6.886 10.302 3.49.75L8.68 22.65l7.929-11.065z"/>
  </symbol>
  <symbol id="y_bt">
    <path d="M11.292 0l7.2 7.2-4.8 4.8 4.8 4.8-7.2 7.2H10.8v-9.108l-3.96 3.96-1.68-1.704L10.296 12l-5.16-5.16L6.84 5.16l3.96 3.936V0h.492zM13.2 5.292V9.12l1.908-1.92L13.2 5.292zM15.108 16.8L13.2 14.892v3.816l1.908-1.908z"/>
  </symbol>
  <symbol id="y_diamond">
    <path d="M17.408 1.967H6.592L0 8.5l12 13.533L24 8.5l-6.592-6.533zm4.186 7.061l-.014-.061h-8.902l4.268-4.609 4.648 4.67zm-11.196 8.358L3.375 9.967H8l-.465.223 2.863 7.196zM8.537 9.967h6.924L12 18.621 8.537 9.967zm7.463 0h4.623L13.6 17.386l2.863-7.196L16 9.967zm-4-1.738L8.086 3.967h7.826L12 8.229zM7.053 4.396l4.268 4.571H2.418l-.012.023 4.647-4.594z"/>
  </symbol>
  <symbol id="y_email">
    <path d="M10.781 14.274L10 22l4.77-5.893 4.564 2.06L24 2 10.781 14.274zM24 2L0 11.865 5.666 13 10 22l-3.125-9L24 2z"/>
  </symbol>
  <symbol id="y_gift">
    <path d="M14.83 4H20v6h-1v10H1V10H0V4h5.17A3 3 0 0110.003.762L10 .76a3 3 0 014.823 3.261L14.83 4zM8 10H3v8h5v-8zm4 0v8h5v-8h-5zM8 6H2v2h6V6zm4 0v2h6V6h-6zM8 4a1 1 0 000-2 1 1 0 000 2zm4 0a1 1 0 000-2 1 1 0 000 2z"/>
  </symbol>
  <symbol id="y_headphone">
    <g fill-rule="nonzero">
      <path d="M6.75 13.5h-1.5V24h1.5c.413 0 .75-.337.75-.75v-9a.752.752 0 00-.75-.75zM17.25 13.5a.752.752 0 00-.75.75v9c0 .413.337.75.75.75h1.5V13.5h-1.5z"/>
      <path d="M24 12c0-6.628-5.372-12-12-12S0 5.372 0 12c0 1.44.254 2.82.718 4.098A5.252 5.252 0 004.5 23.947V13.554a5.218 5.218 0 00-2.056.759A9.75 9.75 0 0112 2.625a9.75 9.75 0 019.557 11.688 5.222 5.222 0 00-2.057-.76v10.394a5.25 5.25 0 003.782-7.849c.464-1.279.718-2.659.718-4.099V12z"/>
    </g>
  </symbol>
  <symbol id="y_health">
    <path d="M20.785 3.193a63.922 63.922 0 00-18.126.002C1.094 3.429 0 4.91 0 6.498v11c0 1.588.908 3.07 2.482 3.306 3.021.43 5.916.647 8.968.647s6.406-.218 9.434-.648C22.451 20.568 24 19.086 24 17.498V6.5c0-1.588-1.639-3.07-3.215-3.307zM2 6.5c0-.605.178-1.238.764-1.326a61.05 61.05 0 017.829-.612l-3.919 6.956H2V6.5zm20 10.998c0 .605-.908 1.237-1.496 1.325a62.041 62.041 0 01-17.549.001c-.596-.089-.955-.72-.955-1.326v-3.98h5.861l1.771-2.758.849 7.18 5.142-4.422H22v3.98zm0-5.98h-7.088l-2.858 2.813-1.091-9.776c.164-.001.323-.009.487-.009 2.958 0 6.218.212 9.138.626.596.09 1.412.722 1.412 1.326v5.02zm-5.998-4.52h.996V8h-.996zm1.998 0h1.002V8H18z"/>
  </symbol>
  <symbol id="y_heart">
    <path d="M12 19.654l-.035.043L4 9.5c-.363-.458-1-1.011-1-2.268 0-2.206 1.795-4 4-4 2.206 0 5 1.794 5 4V3.919a5.998 5.998 0 00-5-2.687c-3.309 0-6 2.691-6 6 0 2.056 1 3 1.258 3.669L12 22.723v-3.069zm0 0l.035.043L20 9.5c.363-.458 1-1.011 1-2.268 0-2.206-1.795-4-4-4s-5 1.794-5 4V3.919a6 6 0 015-2.687c3.309 0 6 2.691 6 6 0 2.056-1 3-1.258 3.669L12 22.723v-3.069z"/>
  </symbol>
  <symbol id="y_lab">
    <path d="M20.997 16.742S14.011 9.731 13.998 9V7.998h2.004v-6H7v6h2L9.004 9c-.013.731-6.999 7.742-6.999 7.742-1.317 1.478-1.041 2.686-.807 3.232S2.327 22 2.975 22h17.052c.648 0 1.542-1.479 1.776-2.025s.511-1.755-.806-3.233zm-1.031 2.445a4.756 4.756 0 01-.5.813H3.536a4.683 4.683 0 01-.499-.813c-.144-.334.192-.804.428-1.076 7.513-7.542 7.524-8.218 7.539-9.11V6.002L8.997 6 9 4.002h4.998L14.001 6H12l-.001 3.035c.015.857.026 1.534 7.539 9.076.235.272.57.742.428 1.076zM12 12h-1.002l-6 6v1.002H18V18l-6-6zm-1.998 3l.996-1.998H12L13.002 15h-3z"/>
  </symbol>
  <symbol id="y_map">
    <path d="M15.418.581l-7.201 3.99L0 0v18.303l8.434 4.572 6.799-4.008L23 23.145V4.874L15.418.581zM21 12.234l-5-2.562V3.394l5 2.678v6.162zM9 6.304l5-2.857v6.272l-5 2.857V6.304zm0 7.425l5-2.858v6.274L9 20v-6.271zM7 6.304v6.235L2 9.532V3.446l5 2.858zM2 10.7l5 3.007V20l-5-2.855V10.7zm14 6.425v-6.329l5 2.562v6.445l-5-2.678z"/>
  </symbol>
  <symbol id="y_paperclip">
    <path d="M21.169 4.707l-2.828-2.828a5.006 5.006 0 00-7.071 0l-9.9 9.899 1.414 1.414 9.9-9.899a3.002 3.002 0 014.242 0l2.829 2.829a3.002 3.002 0 010 4.242l-9.899 9.899c-1.275 1.275-2.693 1.549-3.073 1.17l-.463-.462-2.254-2.254c-.176-.176-.032-1.119.486-1.637l9.897-9.897c.116-.115 1.062.354 1.768 1.061l-.353.354-7.182 7.181 1.414 1.414 7.182-7.181c.855-.854 1.918-1.618.354-3.182-1.563-1.564-3.137-2.52-4.596-1.061l-9.9 9.897c-1.168 1.17-1.623 3.326-.484 4.465l1.545 1.547 1.172 1.17c1.326 1.326 3.918.812 5.9-1.17l9.899-9.899a5.007 5.007 0 00.001-7.072z"/>
  </symbol>
  <symbol id="y_pill">
    <path d="M20.486 3.515a6.01 6.01 0 00-8.487 0L3.515 12c-2.339 2.34-2.34 6.146 0 8.485s6.145 2.339 8.485 0L20.486 12a6.007 6.007 0 000-8.485zm-1.414 1.414a4.006 4.006 0 010 5.657l-4.244 4.242-5.656-5.656 4.242-4.243a4.005 4.005 0 015.658 0z"/>
  </symbol>
  <symbol id="y_sun">
    <path d="M23.986 12l-2.658-3.061.369-4.052-3.932-.897L15.704.488 12 2.101 8.294.488 6.235 3.99l-3.933.898.368 4.051L.014 12l2.656 3.061-.368 4.053 3.934.896 2.061 3.502L12 21.901l3.704 1.61 2.059-3.5 3.935-.896-.369-4.055L23.986 12zm-7.467 6.283l-1.613 2.744L12 19.765l-2.905 1.263-1.615-2.744-3.086-.706.289-3.176L2.598 12l2.085-2.399-.289-3.178 3.088-.706 1.611-2.742L12 4.237l2.905-1.263 1.613 2.742 3.086.706-.289 3.176L21.4 12l-2.085 2.401.289 3.178-3.085.704zM12 5.621c-3.484 0-6.319 2.862-6.319 6.379S8.516 18.379 12 18.379s6.319-2.861 6.319-6.379c0-3.517-2.835-6.379-6.319-6.379zm0 11.776c-2.948 0-5.347-2.421-5.347-5.397S9.052 6.603 12 6.603c2.947 0 5.347 2.421 5.347 5.397s-2.4 5.397-5.347 5.397z"/>
  </symbol>
  <symbol id="y_syringe">
    <path d="M19.602 5.105l1.414 1.414 1.414-1.414-3.535-3.535-1.415 1.414 1.414 1.414-2.122 2.122-4.243-4.243-1.414 1.414 1.414 1.414L1.924 15.712l2.424 2.425L1.57 22.43l4.293-2.777 2.424 2.424L18.895 11.47l1.414 1.414 1.414-1.414-4.243-4.242 2.122-2.123zm-2.122 4.951l-2.123 2.121-2.121-2.122-.707.707 2.121 2.122-1.414 1.415-2.121-2.122-.707.707 2.121 2.122-1.414 1.414-2.121-2.122-.707.707 2.121 2.122-2.121 2.121-3.535-3.536 9.191-9.192 3.537 3.536z"/>
  </symbol>
  <symbol id="y_vcard">
    <path d="M11 8H4v8h7V8zm-1 6.501c0-.828-1.119-1.499-2.5-1.499S5 13.673 5 14.501V9h5v5.501zm-4-2.999a1.5 1.5 0 103.001-.001A1.5 1.5 0 006 11.502zM21.929 4h-20C.824 4 0 4.807 0 5.91v12C0 19.016.824 20 1.929 20h20C23.033 20 24 19.016 24 17.91v-12C24 4.807 23.033 4 21.929 4zM22 18H2V6h20v12zM13 8h7v2h-7zm0 3h7v1h-7zm0 2h7v1h-7zm0 2h3v1h-3zm3.998 0H18v1.002h-1.002z"/>
  </symbol>
  <symbol id="z_chart">
    <path d="M3.916 3.647C1.627 5.293.129 7.972.129 11a9 9 0 00.574 3.145L9.189 11 3.916 3.647zm-2.348 7.101a7.055 7.055 0 011.971-5.027l4.197 4.659-5.951 1.985a7.068 7.068 0 01-.217-1.617zM13.312 1.5c-2.528 0-4.97.911-6.878 2.566l.025.028-.399.349 6.374 7.311L3.16 14.7l.136.427-.01.003c.028.093.065.181.097.271l.08.253.009-.003a10.445 10.445 0 009.84 6.85c5.79 0 10.5-4.711 10.5-10.5S19.102 1.5 13.312 1.5zm7.792 7.114l-6.328 2.317 4.131-5.315a8.541 8.541 0 012.197 2.998zM8.117 5.281A8.5 8.5 0 0113.312 3.5c1.784 0 3.439.555 4.808 1.498l-4.83 6.215-5.173-5.932zm-2.719 9.758l7.275-2.312-1.343 7.515a8.41 8.41 0 01-5.932-5.203zm7.914 5.461c-.339 0-.667-.041-.997-.08l1.438-8.049 7.696-2.818c.233.776.362 1.597.362 2.447.001 4.688-3.813 8.5-8.499 8.5z"/>
  </symbol>
  <symbol id="z_clock1">
    <path d="M12 0C5.373 0 0 5.373 0 12s5.373 12 12 12 12-5.373 12-12S18.627 0 12 0zm0 22C6.486 22 2 17.514 2 12S6.486 2 12 2s10 4.486 10 10-4.486 10-10 10zm4.447-16.895a1.002 1.002 0 00-1.342.447l-3.379 6.759-2.02-2.019a.999.999 0 10-1.414 1.414l3 3a1 1 0 001.602-.259l4-8a1 1 0 00-.447-1.342zm-5.445 13.893h2V20h-2zm0-15.998h2v1.002h-2zM3 10.998h2V12H3zm15.998 0h2V12h-2z"/>
  </symbol>
  <symbol id="z_clock2">
    <path d="M7.344 23.06A12.02 12.02 0 010 12C0 5.417 5.417 0 12 0s12 5.417 12 12-5.417 12-12 12a11.92 11.92 0 01-4.655-.94zm.873-19.974a9.769 9.769 0 00-5.968 8.988c0 5.35 4.402 9.753 9.752 9.753 5.35 0 9.753-4.403 9.753-9.753 0-5.35-4.403-9.752-9.753-9.752H12a9.674 9.674 0 00-3.783.763h.001zM9.863 15.03V8.408c0-.586.482-1.068 1.068-1.068.586 0 1.068.482 1.068 1.068v4.485h3.631c.586 0 1.068.482 1.068 1.068 0 .587-.482 1.069-1.068 1.069H9.863z" fill-rule="nonzero"/>
  </symbol>
  <symbol id="z_close">
    <path d="M3.516 20.484a11.965 11.965 0 01-3.664-8.632c0-6.627 5.373-12 12-12 3.388 0 6.447 1.403 8.628 3.66l.004.004a11.956 11.956 0 013.368 8.336c0 6.628-5.372 12-12 12-3.24 0-6.18-1.284-8.34-3.372l.004.004zm1.692-1.692A9.574 9.574 0 0012 21.605c5.305 0 9.605-4.301 9.605-9.605a9.58 9.58 0 00-2.813-6.792A9.574 9.574 0 0012 2.395c-5.305 0-9.605 4.301-9.605 9.605a9.58 9.58 0 002.813 6.792zm11.88-10.188L13.692 12l3.396 3.396-1.692 1.692L12 13.692l-3.396 3.396-1.692-1.692L10.308 12 6.912 8.604l1.692-1.692L12 10.308l3.396-3.396 1.692 1.692z"/>
  </symbol>
  <symbol id="z_meter">
    <path d="M12 0C5.373 0 0 5.373 0 12s5.373 12 12 12 12-5.373 12-12S18.627 0 12 0zm0 22C6.486 22 2 17.514 2 12S6.486 2 12 2s10 4.486 10 10-4.486 10-10 10zM7.108 5.669l-.004.003v.001l-.004.003-.002.002-.007.005-.001.001-.004.003-.002.001-.003.003a.008.008 0 00-.004.002l-.002.002a.018.018 0 00-.005.004l-.002.002-.004.002-.002.002-.003.003-.001.001-.007.005v.001l-.005.004h-.002l-.004.004-.002.002-.011.007-.001.001a.012.012 0 00-.005.005l-.019.014v.001a8.914 8.914 0 00-.316.267l-.017.015h-.001l-.005.006h-.001l-.011.01H6.65a.022.022 0 01-.004.005l-.001.001a.018.018 0 01-.005.004v.001c-.002 0-.004.002-.006.004l-.001.001-.004.004-.001.001a.017.017 0 01-.004.003l-.002.002-.006.005-.001.001-.004.004-.001.001a.018.018 0 01-.005.004l-.001.001-.004.005-.002.002-.004.003-.002.003-.003.002-.003.001-.002.003-.004.003-.004.004-.002.002-.002.002-.004.003-.001.001-.011.012h-.001a.008.008 0 01-.004.004l-.001.001-.002.001.682.732c.212-.197.44-.385.675-.555l-.586-.81c-.071.05-.141.103-.211.157zM5.355 9.791l-.949-.315a7.856 7.856 0 00-.166.573h-.001l-.001.006-.006.023-.002.006v.001a.658.658 0 01-.006.022v.002l-.001.004v.002l-.005.018-.001.006-.002.006v.001l-.004.017v.001l-.001.005-.001.002-.001.005v.001l-.004.017v.001l-.002.006-.005.023v.001l-.002.005v.002l-.005.022v.001l-.001.005-.004.018-.001.006v.002l-.001.005-.001.001-.005.023-.005.024-.001.006-.021.097.981.194c.058-.285.133-.57.224-.845zM12 5c.08 0 .159.002.238.004l.033-1A13.223 13.223 0 0012.068 4H12.042 12.016h-.006H11.992h-.01-.005-.007-.064H11.897l-.008.001h-.008-.016l-.016.001h-.04-.008l-.023.001a.02.02 0 00-.008.001h-.04a8.467 8.467 0 00-.66.049l-.022.004h-.008l-.004.001-.004.001h-.006l-.008.001-.003.001h-.008l-.003.001h-.003l.124.992A7.1 7.1 0 0112 5zm-7.635 9.395v.002l.004.014.002.008h.001c.099.312.216.616.351.91l.909-.416a6.887 6.887 0 01-.312-.816l-.955.298zm15.31-4.661a7.66 7.66 0 00-.28-.792v-.001l-.001-.003-.001-.003-.007-.016a.008.008 0 01-.002-.005l-.001-.001-.002-.005-.001-.002-.003-.007-.001-.003-.001-.003-.001-.003-.002-.004-.002-.004-.004-.008v-.002l-.003-.005v-.003l-.002-.004-.001-.002-.003-.006v.001l-.003-.007-.001-.001-.002-.005v-.002l-.003-.006-.01-.022-.006-.015-.917.401c.117.266.218.541.3.82l.96-.282zm-.831 3.746a7.388 7.388 0 01-.237.841l.943.331.061-.18.026-.082a8.54 8.54 0 00.185-.699l-.978-.211zm-2.135-7.948s0-.001 0 0l-.014-.011h-.002l-.003-.002-.002-.001c-.001-.002-.003-.002-.003-.002l-.004-.004c-.001-.002-.002-.002-.003-.002l-.004-.003-.002-.002-.004-.003-.002-.001-.006-.004-.006-.005h-.001a.018.018 0 00-.005-.004l-.001-.001a7.78 7.78 0 00-.576-.375l-.509.86c.249.148.493.313.723.492l.613-.791a8.92 8.92 0 00-.185-.139l-.004-.002zm-6.555 2.716s-1.484 5.945-1.047 7.543a3 3 0 105.788-1.583c-.438-1.598-4.741-5.96-4.741-5.96zm2.373 8.681a2 2 0 11-1.053-3.859 2 2 0 011.053 3.859z"/>
  </symbol>
  <symbol id="z_plus">
    <path d="M13.2 10.8H18v2.4h-4.8V18h-2.4v-4.8H6v-2.4h4.8V6h2.4v4.8zM12 24C5.372 24 0 18.628 0 12S5.372 0 12 0s12 5.372 12 12-5.372 12-12 12zm0-2.4c5.302 0 9.6-4.298 9.6-9.6S17.302 2.4 12 2.4 2.4 6.698 2.4 12s4.298 9.6 9.6 9.6z" fill-rule="nonzero"/>
  </symbol>
  <symbol id="z_power">
    <path d="M13.381 0h-2.818v14.083h2.818V0zm5.099 3.438l-2.08 2.05a8.196 8.196 0 013.053 3.041c.738 1.278 1.107 2.678 1.107 4.198a8.24 8.24 0 01-1.14 4.232 8.298 8.298 0 01-3.12 3.074c-1.32.75-2.762 1.124-4.327 1.124-1.566 0-3.008-.374-4.328-1.124a8.298 8.298 0 01-3.12-3.074 8.235 8.235 0 01-1.14-4.232c0-1.52.369-2.92 1.107-4.198a8.346 8.346 0 012.986-3.042l-2.013-2.05a11.801 11.801 0 00-3.623 4C.947 9.048.5 10.8.5 12.695c0 2.028.514 3.912 1.543 5.653a11.346 11.346 0 004.193 4.132A11.33 11.33 0 0011.972 24c2.058 0 3.97-.506 5.736-1.52a11.343 11.343 0 004.194-4.132 10.92 10.92 0 001.543-5.653c0-1.895-.448-3.647-1.342-5.256a11.801 11.801 0 00-3.623-4z" fill="#000333" fill-rule="nonzero"/>
  </symbol>
  <symbol id="z_ques">
    <path d="M0 12C.007 5.42 5.42.007 12 0c6.58.007 11.993 5.42 12 12-.008 6.58-5.42 11.992-12 12C5.42 23.993.007 18.58 0 12zm2.22 0c.006 5.363 4.417 9.774 9.78 9.78 5.363-.006 9.774-4.417 9.78-9.78-.006-5.363-4.417-9.774-9.78-9.78-5.363.006-9.774 4.417-9.78 9.78zm8.132 7.246v-2.64h2.64v2.64h-2.64zm.66-3.953a1.487 1.487 0 01.041-.77 4.04 4.04 0 01.633-1.342c.28-.383.788-.286 1.522-1.029.522-.493.996-1.034 1.418-1.616.24-.463.35-.983.316-1.504a2.508 2.508 0 00-.72-1.767 2.77 2.77 0 00-2.11-.768c-2.076 0-3.074 1.109-3.074 3.527H7.06a7.175 7.175 0 01.324-2.414 3.948 3.948 0 011.08-1.537 5.065 5.065 0 011.722-1 6.212 6.212 0 012.004-.321 5.214 5.214 0 013.524 1.3 4.047 4.047 0 011.244 3.198 3.725 3.725 0 01-.337 1.662 5.905 5.905 0 01-1.374 1.858c-.787.743-1.311.612-1.57.924a3.26 3.26 0 00-.586 1.126c-.132.437-.09.24-.09.47l-1.99.003z" fill-rule="nonzero"/>
  </symbol>
  <symbol id="z_refresh">
    <path d="M5.485 11.285c.447-2.673 3.21-5.588 6.479-5.588 1.891 0 3.58.868 4.762 2.206l1.59-1.06c-1.553-1.845-3.857-3.041-6.422-3.041-4.25 0-7.764 2.953-8.297 7.117L0 10.224l3.541 5.237 5.238-3.539-3.294-.637zm14.974-2.746l-5.238 3.539 3.293.637c-.446 2.673-3.21 5.589-6.479 5.588-1.892 0-3.58-.868-4.763-2.206l-1.589 1.06c1.553 1.845 3.857 3.041 6.422 3.041 4.249 0 7.764-2.953 8.296-7.117l3.599.695-3.541-5.237z"/>
  </symbol>
  <symbol id="z_reload">
    <path d="M13.818 3.08c-4.486 0-8.195 3.118-8.758 7.513l-3.798-.735L5 15.387l5.529-3.735-3.477-.673c.471-2.821 3.389-5.898 6.84-5.898 3.77 0 6.846 3.231 6.846 7.002s-3.76 6.838-6.76 6.838v2c5 0 8.76-4.047 8.76-8.92s-4.047-8.921-8.92-8.921z"/>
  </symbol>
  <symbol id="z_search">
    <path d="M21.745 23.618l-3.288-3.27a11.424 11.424 0 01-7.019 2.395C5.17 22.738.011 17.611 0 11.375.008 5.137 5.167.005 11.438 0c6.271.006 11.43 5.136 11.437 11.374a11.283 11.283 0 01-2.528 7.125l3.272 3.253c.508.509.508 1.34 0 1.849l-.018.018c-.245.244-.58.382-.927.381a1.31 1.31 0 01-.93-.382zM2.408 11.375c.005 4.925 4.079 8.975 9.03 8.98 4.95-.005 9.024-4.056 9.03-8.98-.006-4.925-4.078-8.976-9.03-8.98-4.951.004-9.025 4.055-9.03 8.98z" fill-rule="nonzero"/>
  </symbol>
  <symbol id="z_switch">
    <path d="M13 4.05V3h.5a.5.5 0 00.5-.5v-2a.5.5 0 00-.5-.5h-3a.5.5 0 00-.5.5v2a.5.5 0 00.5.5h.5v1.054a9.98 9.98 0 00-2.583.619L7.37 3.662 5.543 1.836 2.025 5.354l2.271 2.271A9.954 9.954 0 002 14c0 5.523 4.477 10 10 10s10-4.477 10-10c0-5.186-3.946-9.448-9-9.95zM11 1h2v1h-2V1zM3.439 5.354L5.543 3.25 6.71 4.416 4.606 6.52 3.439 5.354zM12 22c-4.411 0-8-3.589-8-8s3.589-8 8-8 8 3.589 8 8-3.589 8-8 8zm-.793-12.541a.999.999 0 10-1.414 1.414l1.964 1.965-2.628 3.672a.998.998 0 00.87 1.49c.35 0 .689-.184.872-.51l3-4.334a.998.998 0 00-.164-1.197l-2.5-2.5z"/>
  </symbol>
  <symbol id="z_zoom">
    <path d="M.793 21.168l1.414 1.414 4.385-4.385-1.377-1.451-4.422 4.422zM14.125 1A8.876 8.876 0 005.25 9.875c0 1.919.617 3.69 1.652 5.143l1.67 1.76a8.813 8.813 0 005.553 1.973 8.876 8.876 0 000-17.751zm0 15.75c-3.791 0-6.875-3.084-6.875-6.875S10.334 3 14.125 3 21 6.084 21 9.875s-3.084 6.875-6.875 6.875z"/>
  </symbol>
  <symbol id="z_zoom_in">
    <path d="M.793 21.168l1.414 1.414 4.385-4.385-1.377-1.451-4.422 4.422zM14.125 1A8.876 8.876 0 005.25 9.875c0 1.919.617 3.69 1.652 5.143l1.67 1.76a8.81 8.81 0 005.553 1.973 8.876 8.876 0 000-17.751zm0 15.75c-3.791 0-6.875-3.084-6.875-6.875S10.334 3 14.125 3 21 6.084 21 9.875s-3.084 6.875-6.875 6.875zM15.022 7h-2v2h-2v2h2v2h2v-2h2V9h-2V7z"/>
  </symbol>
  <symbol id="z_zoom_out">
    <path d="M.793 21.168l1.414 1.414 4.385-4.385-1.377-1.451-4.422 4.422zM14.125 1A8.876 8.876 0 005.25 9.875c0 1.919.617 3.69 1.652 5.143l1.67 1.76a8.81 8.81 0 005.553 1.973 8.876 8.876 0 000-17.751zm0 15.75c-3.791 0-6.875-3.084-6.875-6.875S10.334 3 14.125 3 21 6.084 21 9.875s-3.084 6.875-6.875 6.875zm-3.127-7.748h6v2h-6z"/>
  </symbol>
  <symbol id="za_chat">
    <path d="M12 24a11.968 11.968 0 01-8.49-3.514A11.968 11.968 0 010 12a11.968 11.968 0 013.514-8.49A11.968 11.968 0 0112 0a11.968 11.968 0 018.49 3.514A11.968 11.968 0 0124 12a11.968 11.968 0 01-3.514 8.49A11.968 11.968 0 0112 24zM8.005 8.27a1.52 1.52 0 00-1.51 1.51v4.946a1.518 1.518 0 001.51 1.509h4.255c.014.01 1.758 1.431 1.997 1.618a.476.476 0 00.246.124.075.075 0 00.056-.022.139.139 0 00.029-.102v-1.618h1.727a1.52 1.52 0 001.51-1.509V9.78a1.52 1.52 0 00-1.51-1.51h-8.31zm6.582 4.854a.815.815 0 01-.81-.81.815.815 0 01.81-.81.815.815 0 01.81.81.815.815 0 01-.811.81zm-2.428 0a.815.815 0 01-.81-.81.815.815 0 01.81-.81.815.815 0 01.81.81.815.815 0 01-.81.81zm-2.427 0a.815.815 0 01-.81-.81.815.815 0 01.81-.81.815.815 0 01.81.81.815.815 0 01-.811.81h.001z" fill-rule="nonzero"/>
  </symbol>
  <symbol id="za_del">
    <path d="M11.971 24C5.404 24 0 18.595 0 12.028c0-3.173 1.262-6.22 3.506-8.465A11.975 11.975 0 0112.028 0C18.596 0 24 5.404 24 11.972c0 3.202-1.284 6.273-3.563 8.521A11.895 11.895 0 0111.97 24zm0-10.433l3.464 3.468a1.092 1.092 0 101.543-1.544l-3.468-3.463 3.468-3.463a1.09 1.09 0 00.319-.77c0-.597-.491-1.087-1.089-1.087a1.081 1.081 0 00-.769.318l-3.468 3.463-3.463-3.467a1.088 1.088 0 00-1.862.77c0 .289.114.567.32.77l3.467 3.466-3.468 3.463a1.092 1.092 0 001.543 1.544l3.463-3.468z" fill-rule="nonzero"/>
  </symbol>
  <symbol id="za_grid">
    <path d="M12.034 24h-.067C5.4 23.995 0 18.59 0 12.022v-.043C0 5.412 5.401.005 11.968 0h.067C18.6.009 24 5.414 24 11.98v.042C24 18.588 18.6 23.993 12.034 24zm-3.61-11.547a1.896 1.896 0 00-1.879 1.878v1.478a1.892 1.892 0 001.876 1.882h1.484a1.886 1.886 0 001.877-1.877v-1.482a1.894 1.894 0 00-1.879-1.88H8.424zm6.64-.047a2.64 2.64 0 00-2.629 2.628 2.64 2.64 0 002.628 2.628 2.64 2.64 0 002.628-2.628v-.001a2.644 2.644 0 00-2.627-2.627zm-.73-5.86A1.895 1.895 0 0012.46 8.42V9.9a1.892 1.892 0 001.878 1.882h1.48a1.893 1.893 0 001.88-1.88V8.425a1.892 1.892 0 00-1.88-1.88h-1.485zm-5.911 0A1.898 1.898 0 006.545 8.42V9.9a1.893 1.893 0 001.879 1.882h1.477a1.895 1.895 0 001.88-1.882V8.425a1.892 1.892 0 00-1.88-1.88H8.423zm6.641 10.036h-.005c-.85 0-1.55-.7-1.55-1.55 0-.851.7-1.55 1.55-1.55.85 0 1.55.699 1.55 1.55a1.547 1.547 0 01-1.545 1.55z" fill-rule="nonzero"/>
  </symbol>
  <symbol id="za_grp">
    <path d="M12 24a11.968 11.968 0 01-8.49-3.514A11.968 11.968 0 010 12a11.968 11.968 0 013.514-8.488A11.968 11.968 0 0112 0a11.93 11.93 0 014.671.944 11.968 11.968 0 013.819 2.57 11.97 11.97 0 012.572 3.82c.623 1.476.942 3.063.938 4.666a11.97 11.97 0 01-3.516 8.49A11.968 11.968 0 0112 24zm3.218-10.56a6.263 6.263 0 00-2.446.58c-1.212.576-1.466 1.263-1.466 1.738v.725a.44.44 0 00.437.436h6.955a.44.44 0 00.437-.436v-.725c0-.475-.255-1.163-1.467-1.738a6.284 6.284 0 00-2.45-.58zm-3.614-.873c-1.233.03-2.451.277-3.6.727-1.781.719-2.156 1.577-2.156 2.17v1.015a.44.44 0 00.437.437H10.2v-1.482a2.36 2.36 0 01.93-1.654 5.098 5.098 0 011.97-1.068 8.857 8.857 0 00-1.469-.143l-.027-.002zm3.615-4.346a2.159 2.159 0 00-1.527.667c-.4.414-.62.973-.606 1.549.01.568.246 1.11.654 1.506.407.402.957.625 1.527.622h.057a2.163 2.163 0 001.459-.626 2.162 2.162 0 00.068-3.033 2.15 2.15 0 00-1.541-.685h-.09zm-5.018-1.745a2.625 2.625 0 00-2.608 2.608 2.625 2.625 0 002.608 2.608 2.625 2.625 0 002.609-2.608 2.623 2.623 0 00-2.61-2.6l.001-.008z" fill-rule="nonzero"/>
  </symbol>
  <symbol id="za_grp_add">
    <path d="M12.044 24h-.01C5.433 24 0 18.576 0 11.985 0 7.162 2.909 2.787 7.36.914A12.057 12.057 0 0111.962 0C18.566 0 24 5.426 24 12.02c0 4.788-2.867 9.14-7.273 11.036a11.972 11.972 0 01-4.683.945zm2.15-8.598h-.025a.515.515 0 00-.513.512c0 .28.232.512.513.512l.024-.001h1.264v1.25c.002.281.235.51.516.509h.01a.515.515 0 00.516-.508v-1.25h1.272l.024.001a.51.51 0 00.509-.508.51.51 0 00-.509-.508h-1.296v-1.25a.524.524 0 00-.521-.497.524.524 0 00-.522.497v1.242l-1.263-.001zM13.64 7.59h-.02a2.526 2.526 0 00-2.517 2.492 2.452 2.452 0 00.742 1.762c.477.47 1.12.733 1.792.73-.22 0-.44.018-.657.053a2.49 2.49 0 00-.36.055 4.323 4.323 0 00-.422.102l-.057.016a5.302 5.302 0 00-.905.38l-.119.069a7.33 7.33 0 00-.302.182c-.204.132-.397.28-.575.446l-.163.161-.01.01a4.853 4.853 0 00-1.392 2.536c-.024.141-.054.328-.074.499l-.021.254-.007.261a.105.105 0 00.01.055.45.45 0 00.405.398c.02.008.043.011.065.01h4.344a3.275 3.275 0 01-.416-1.587 3.403 3.403 0 011.47-2.794 3.42 3.42 0 01.328-.209 3.824 3.824 0 011.107-.38l-.043-.014h-.006a4.352 4.352 0 00-.473-.196 2.42 2.42 0 00-.369-.11 1.517 1.517 0 00-.276-.072 4.961 4.961 0 00-.508-.082 3.657 3.657 0 00-.362-.034h-.157a2.542 2.542 0 001.758-.746 2.46 2.46 0 00.726-1.747 2.527 2.527 0 00-2.516-2.5h-.02zm-3.296-1.804A2.533 2.533 0 007.812 8.13a2.45 2.45 0 00.612 1.78 2.545 2.545 0 001.7.856 5.097 5.097 0 00-3.49 1.513 4.918 4.918 0 00-1.436 3.47.514.514 0 00.49.509h.027l1.969.063a5.497 5.497 0 013.57-3.887 4.41 4.41 0 01-.742-.776c-.045-.063-.429-.617-.378-.83a.408.408 0 00.02-.12c-.006 0-.022.033-.03.053a3.68 3.68 0 01-.064-1.033 2.85 2.85 0 011.97-2.41c.166-.064.34-.11.516-.137a2.529 2.529 0 00-2.118-1.393h-.084z" fill-rule="nonzero"/>
  </symbol>
  <symbol id="za_stats">
    <path d="M12.025 24h-.007C5.425 24 0 18.579 0 11.992 0 7.172 2.903 2.8 7.347.927A12.026 12.026 0 0111.979 0c6.595 0 12.022 5.422 12.022 12.011 0 4.8-2.88 9.16-7.298 11.046-1.48.625-3.07.946-4.678.943zm-5.937-9.13v2.552h1.996V14.87H6.088zm9.135-4.148v6.702h2.046v-6.706l-2.046.004zm-3.045 2.527v4.171h2.032v-4.17h-2.032zm-3.045-.995v5.165h2.046v-5.165H9.133zm1.144-4.339l-4.743 4.422.656.953 4.063-3.827 2.755 2.868 3.348-4.111.92.962v-2.58H14.64l.93.992-2.563 3.034-2.731-2.713z" fill-rule="nonzero"/>
  </symbol>
  <symbol id="za_stats_pie">
    <path d="M12 13.5V3C6.201 3 1.5 7.701 1.5 13.5S6.201 24 12 24s10.5-4.701 10.5-10.5c0-1.688-.399-3.284-1.107-4.697L12 13.5zm10.893-7.697A10.5 10.5 0 0013.5 0v10.5l9.393-4.696z" fill-rule="nonzero"/>
  </symbol>
  <symbol id="za_usr">
    <path d="M12 15s-8 0-11 7c0 0 5.01 2 11 2s11-2 11-2c-3-7-11-7-11-7zm0-1c3 0 5-3 5-8s-5-5-5-5-5 0-5 5 2 8 5 8z"/>
  </symbol>
  <symbol id="za_usr_del">
    <path d="M12.044 24h-.01C5.433 24 0 18.576 0 11.985 0 7.162 2.909 2.787 7.36.914A12.057 12.057 0 0111.962 0C18.566 0 24 5.426 24 12.02c0 4.788-2.867 9.14-7.273 11.036a11.972 11.972 0 01-4.683.945zm1.624-16.41h-.038a2.507 2.507 0 00-2.497 2.493 2.507 2.507 0 002.49 2.493h-.007c-.215 0-.43.017-.641.052-.12.009-.241.028-.36.055a4.35 4.35 0 00-.413.1l-.066.018c-.312.1-.615.226-.904.38l-.104.061-.014.008a5.906 5.906 0 00-.308.187 4.13 4.13 0 00-.575.445l-.162.162-.009.007a4.855 4.855 0 00-1.394 2.538c-.027.16-.054.328-.073.499l-.02.255-.008.26a.105.105 0 00.008.055.45.45 0 00.407.399.16.16 0 00.065.009h4.344a3.274 3.274 0 01-.414-1.586 3.404 3.404 0 011.476-2.8c.109-.08.218-.15.322-.209a3.822 3.822 0 011.107-.38l-.037-.014a4.394 4.394 0 00-.475-.198A2.383 2.383 0 0015 12.77a1.526 1.526 0 00-.258-.069h-.016a4.94 4.94 0 00-.506-.082 3.635 3.635 0 00-.361-.033h-.157a2.545 2.545 0 001.758-.747 2.46 2.46 0 00.725-1.748 2.526 2.526 0 00-2.517-2.5zm.524 7.813a.516.516 0 00-.513.512c0 .28.232.512.513.512h3.603a.51.51 0 00.509-.508.51.51 0 00-.509-.508l-.024.001h-1.272l-1.043-.008-1.264-.001zm-3.85-9.612a2.53 2.53 0 00-2.53 2.338 2.45 2.45 0 00.612 1.78 2.543 2.543 0 001.699.856 5.1 5.1 0 00-3.49 1.513 4.923 4.923 0 00-1.436 3.47c.003.27.22.496.49.508h.027l1.969.063a5.493 5.493 0 013.569-3.886 4.321 4.321 0 01-.74-.776c-.045-.063-.429-.618-.377-.83.013-.04.02-.08.02-.12 0-.04-.017.02-.031.052a3.68 3.68 0 01-.065-1.033 2.856 2.856 0 011.97-2.41c.167-.063.34-.109.516-.136a2.533 2.533 0 00-2.117-1.393l-.086.004z" fill-rule="nonzero"/>
  </symbol>
  <symbol id="za_usr_list">
    <path d="M12.042 24h-.006C5.433 24 0 18.575 0 11.984 0 7.163 2.907 2.788 7.357.914A12.06 12.06 0 0111.961 0c6.605 0 12.04 5.426 12.04 12.02 0 4.788-2.868 9.14-7.275 11.036a11.973 11.973 0 01-4.684.944zM8.506 13.118a5.29 5.29 0 00-2.458 2.143v.46a1.52 1.52 0 001.508 1.507h6.055a1.521 1.521 0 001.514-1.512v-.455a5.288 5.288 0 00-2.459-2.14 3.377 3.377 0 01-2.079.71 3.415 3.415 0 01-2.079-.71l-.002-.003zm8.138 1.093a.38.38 0 00-.378.377v.756c0 .208.17.378.378.378h1.136a.38.38 0 00.379-.378v-.756a.38.38 0 00-.379-.377h-1.136zM10.59 7.55a2.663 2.663 0 00-2.65 2.645v.232a2.66 2.66 0 002.65 2.644 2.66 2.66 0 002.65-2.644v-.232a2.663 2.663 0 00-2.65-2.645zm4.924 3.632a.38.38 0 00-.379.378v.751a.38.38 0 00.379.378h2.27a.38.38 0 00.379-.378v-.756a.38.38 0 00-.379-.378l-2.27.005zm-.761-3.022a.38.38 0 00-.38.378v.756a.38.38 0 00.38.378h3.027a.38.38 0 00.379-.378v-.757a.38.38 0 00-.379-.378l-3.027.001z" fill-rule="nonzero"/>
  </symbol>
  <symbol id="za_usrs">
    <path d="M15 14.363s-6.182 0-8.5 5.41c0 0 3.871 1.545 8.5 1.545s8.5-1.545 8.5-1.545c-2.318-5.41-8.5-5.41-8.5-5.41zm0-.771c2.318 0 3.863-2.318 3.863-6.183S15 3.545 15 3.545s-3.863 0-3.863 3.864 1.545 6.183 3.863 6.183zm-7.5-2.637c.762 0 1.416-.316 1.935-.885a11.114 11.114 0 01-.298-2.661c0-1.485.571-2.396 1.274-2.958C9.645 2.686 7.5 2.682 7.5 2.682s-3.182 0-3.182 3.182 1.273 5.091 3.182 5.091zm3 2.494l-.108-1.258c-1.558-.596-2.892-.6-2.892-.6s-5.091 0-7 4.455c0 0 2.461.981 5.645 1.22 2.773-2.903 4.355-3.817 4.355-3.817z"/>
  </symbol>
  <symbol id="zd_alarm">
    <path d="M14.21 2.136A2.243 2.243 0 0011.988 0C10.8 0 9.812.95 9.765 2.136c0 .118.01.236.03.353a8.464 8.464 0 00-5.586 7.894v2.932s0 4.23-1.082 4.261l-.062-.002c-.585 0-1.066.482-1.066 1.066 0 .586.48 1.067 1.066 1.067h17.818l.044.001c.586 0 1.068-.48 1.071-1.066a1.07 1.07 0 00-1.066-1.067l-.049.001c-1.11 0-1.11-4.229-1.11-4.229v-2.964a8.247 8.247 0 00-5.587-7.902c.017-.115.025-.23.024-.345zm1.11 18.64a3.365 3.365 0 01-3.333 3.212 3.366 3.366 0 01-3.334-3.213h6.668l-.001.001z" fill-rule="nonzero"/>
  </symbol>
  <symbol id="zd_back">
    <path d="M0 12l8.4-8.4H24v16.8H8.4L0 12zm17.292 0l2.556-2.544-1.704-1.704L15.6 10.32l-2.544-2.556-1.704 1.704L13.92 12l-2.556 2.544 1.704 1.704L15.6 13.68l2.544 2.556 1.704-1.704L17.28 12z"/>
  </symbol>
  <symbol id="zd_bm_ful">
    <path d="M2.4 2.4C2.4 1.08 3.48 0 4.8 0h14.4a2.4 2.4 0 012.4 2.4V24L12 19.2 2.4 24V2.4z"/>
  </symbol>
  <symbol id="zd_camera">
    <path d="M12.499 9a4.5 4.5 0 10.001 8.999A4.5 4.5 0 0012.499 9zm-1.742 1.483A3.454 3.454 0 0112.5 10c1.791 0 3.256 1.358 3.459 3.097-1.73-1.332-3.775-2.154-5.202-2.614zM22.5 5h-4.834L17 3H7l-.666 2H2.5C1.396 5 0 5.896 0 7v12c0 1.104 1.396 2 2.5 2h20c1.104 0 1.5-.896 1.5-2V7c0-1.104-.396-2-1.5-2zm-10 15a6.5 6.5 0 110-13 6.5 6.5 0 010 13zM22 9h-2V7h2v2z"/>
  </symbol>
  <symbol id="zd_cart">
    <path d="M9 21.75a2.25 2.25 0 11-4.5 0 2.25 2.25 0 014.5 0zM24 21.75a2.25 2.25 0 11-4.5 0 2.25 2.25 0 014.5 0zM24 12V3H6a1.5 1.5 0 00-1.5-1.5H0V3h3l1.126 9.658A3 3 0 006 18h18.001v-1.5H6A1.5 1.5 0 014.5 15v-.015L24 12z" fill-rule="nonzero"/>
  </symbol>
  <symbol id="zd_chat">
    <path d="M12 21.778l-3.113-2.392H3c-1.645-.002-2.998-1.255-3-2.777L.009 5.276C.01 3.754 1.363 2.502 3.007 2.5H21c1.645.001 2.998 1.253 3 2.776l-.01 11.333c-.002 1.522-1.356 2.774-3 2.776h-5.896L12 21.777v.001zm6.75-12.333c-.822 0-1.5.627-1.5 1.388 0 .761.678 1.388 1.5 1.388s1.5-.627 1.5-1.388c-.002-.761-.678-1.387-1.5-1.388zm-6.748 0c-.822.001-1.499.627-1.499 1.388 0 .761.678 1.388 1.5 1.388s1.5-.627 1.5-1.388c-.002-.762-.678-1.388-1.501-1.388h-.004.004zm-6.748 0c-.822 0-1.499.627-1.499 1.388 0 .761.677 1.388 1.5 1.388.821 0 1.499-.627 1.499-1.388-.001-.761-.678-1.387-1.5-1.388z" fill-rule="nonzero"/>
  </symbol>
  <symbol id="zd_conn">
    <path d="M14 2v4h-4v4H6v4H2v8h19V2h-7z"/>
  </symbol>
  <symbol id="zd_edit">
    <path d="M22.25 12.216a.664.664 0 00-.478-.196.7.7 0 00-.48.196L20.07 13.41l2.58 2.527 1.152-1.271a.65.65 0 00.199-.463.662.662 0 00-.2-.462l-1.55-1.526zm-8.435-2.674H6.308c-.809 0-1.475-.653-1.475-1.446 0-.793.666-1.446 1.475-1.446l.059.001h7.505c.809 0 1.475.652 1.475 1.445s-.666 1.447-1.475 1.447l-.06-.001h.003zm-2.992 5.817H6.367l-.059.001c-.809 0-1.475-.653-1.475-1.446 0-.793.666-1.446 1.475-1.446h4.572c.808 0 1.474.653 1.474 1.446 0 .793-.666 1.446-1.475 1.446h-.059.003zM17.214 0H3.587C1.62 0 0 1.586 0 3.515v16.97c.001 1.928 1.62 3.514 3.587 3.514h4.952v-3.15L20.8 8.563V3.517C20.8 1.589 19.181.001 17.214 0zM11.78 21.473V24h2.586l7.472-7.4-2.58-2.532-7.478 7.405z" fill-rule="nonzero"/>
  </symbol>
  <symbol id="zd_folder">
    <path d="M0 5.215v-.747C.142 3.017 1.459 1.92 2.957 2.005h8.157c.45-.002.884.17 1.205.479l2.624 2.52H0v.211zm.003 1.789h21.703C22.964 7.004 24 8.01 24 9.234V19.77c0 1.223-1.036 2.23-2.294 2.23H2.297C1.04 22 .003 20.993.003 19.77V7.004z" fill-rule="nonzero"/>
  </symbol>
  <symbol id="zd_good">
    <path d="M18.426 23.744H5.514c.135-.25.204-.528.206-.811V9.61c0-.147-.02-.295-.058-.436 1.665-.475 4.564-1.99 5.28-6.812A2.375 2.375 0 0113.298.2a2.378 2.378 0 012.363 2.49v4.95c.036.32.264.589.575.676h5.447a2.135 2.135 0 011.834.896c.48.772.583 1.723.279 2.581l-2.7 9.878a3.311 3.311 0 01-2.672 2.073zm-14.953-.031H1.682a1.765 1.765 0 01-1.68-1.826V10.63a1.765 1.765 0 011.68-1.82h1.791v.024c.613 0 1.132.358 1.132.78v13.319c0 .425-.519.78-1.132.78z" fill-rule="nonzero"/>
  </symbol>
  <symbol id="zd_leaf">
    <path d="M23.75 3.157C21.15 1.19 17.15.014 13.047.014c-5.073 0-9.206 1.77-11.34 4.854C.705 6.317.15 8.032.06 9.968c-.082 1.722.208 3.627.86 5.677 2.227-6.668 8.446-11.89 15.616-11.89 0 0-6.709 1.764-10.927 7.226-.002.003-.059.073-.156.204a15.794 15.794 0 00-2.137 3.877 23.07 23.07 0 00-1.803 8.952h3.004s-.456-2.866.338-6.162c1.312.177 2.484.265 3.54.265 2.762 0 4.727-.597 6.183-1.879 1.304-1.149 2.023-2.691 2.784-4.325 1.163-2.495 2.48-5.323 6.306-7.507a.75.75 0 00.08-1.25l.001.001z" fill-rule="nonzero"/>
  </symbol>
  <symbol id="zd_marker">
    <path d="M11.999 0a9.104 9.104 0 00-9.103 9.104C2.896 14.133 10.046 24 12 24c1.445 0 9.105-9.867 9.105-14.896A9.106 9.106 0 0011.999 0zm-.041 13.584c-2.555 0-4.625-2.07-4.625-4.625s2.07-4.625 4.625-4.625 4.625 2.07 4.625 4.625-2.07 4.625-4.625 4.625z"/>
  </symbol>
  <symbol id="zd_printer">
    <path d="M22 9h-2V1H4v8H2c-1.1 0-2 .9-2 2v10c0 1.1.675 2 1.5 2H4v1h16v-1h2.5c.825 0 1.5-.9 1.5-2V11c0-1.1-.9-2-2-2zM4 22H3v-5h1v5zm14 0H6v-5h2v1h8v-1h2v5zm0-13H6V3h12v6zm3 13h-1v-5h1v5zm1-10h-2v-1h2v1zM8 20h8v-1H8v1z"/>
  </symbol>
  <symbol id="zd_star">
    <path d="M7.015 23.674a2.093 2.093 0 01-2.945-.738 2.285 2.285 0 01-.252-1.657l1.308-5.719a.384.384 0 00-.109-.376l-4.28-3.826A2.277 2.277 0 01.506 8.25c.36-.443.886-.722 1.455-.772l5.617-.47a.339.339 0 00.282-.214l2.164-5.43A2.114 2.114 0 0112.822.168a2.18 2.18 0 011.149 1.196l2.164 5.428c.045.12.155.203.282.216l5.617.47a2.2 2.2 0 011.957 2.38 2.239 2.239 0 01-.733 1.5l-4.28 3.824a.387.387 0 00-.113.37l1.307 5.72a2.227 2.227 0 01-1.579 2.66 2.075 2.075 0 01-1.614-.267L12.17 20.6a.31.31 0 00-.338 0l-4.81 3.065-.007.009z" fill-rule="nonzero"/>
  </symbol>
  <symbol id="zd_tag">
    <path d="M21.986 8.821L19.151.008l-9.156 2.83-7.996 14.777 11.798 6.377 7.976-14.741.017-.03.212-.392-.016-.008zm-4.256-.486a2.753 2.753 0 11-4.845-2.618 2.753 2.753 0 014.845 2.618z"/>
  </symbol>
</svg>