<?xml version="1.0" encoding="UTF-8" standalone="yes"?>
<svg viewBox="0 0 24 24" xmlns="http://www.w3.org/2000/svg">
  <symbol id="arr_a_down">
    <g transform="matrix(1.2,0,0,1.2,0,0)">
      <path d="M20 10c0 5.523-4.477 10-10 10s-10-4.477-10-10v0c0-5.523 4.477-10 10-10s10 4.477 10 10v0zM10 2c-4.418 0-8 3.582-8 8s3.582 8 8 8v0c4.418 0 8-3.582 8-8s-3.582-8-8-8v0zM9.3 12.54l-3.55-3.54 1.41-1.41 2.84 2.81 2.83-2.82 1.41 1.42-4.24 4.24-0.7-0.7z"/>
    </g>
  </symbol>
  <symbol id="arr_a_left">
    <g transform="matrix(1.2,0,0,1.2,0,0)">
      <path d="M10 20c-5.523 0-10-4.477-10-10s4.477-10 10-10v0c5.523 0 10 4.477 10 10s-4.477 10-10 10v0zM18 10c0-4.418-3.582-8-8-8s-8 3.582-8 8v0c0 4.418 3.582 8 8 8s8-3.582 8-8v0zM7.46 9.3l3.54-3.55 1.41 1.41-2.81 2.84 2.82 2.83-1.42 1.41-4.24-4.24 0.7-0.7z"/>
    </g>
  </symbol>
  <symbol id="arr_a_right">
    <g transform="matrix(1.2,0,0,1.2,0,0)">
      <path d="M10 0c5.523 0 10 4.477 10 10s-4.477 10-10 10v0c-5.523 0-10-4.477-10-10s4.477-10 10-10v0zM2 10c0 4.418 3.582 8 8 8s8-3.582 8-8v0c0-4.418-3.582-8-8-8s-8 3.582-8 8v0zM12.54 10.7l-3.54 3.55-1.41-1.41 2.81-2.84-2.8-2.83 1.4-1.41 4.24 4.24-0.7 0.7z"/>
    </g>
  </symbol>
  <symbol id="arr_a_up">
    <g transform="matrix(1.2,0,0,1.2,0,0)">
      <path d="M0 10c0-5.523 4.477-10 10-10s10 4.477 10 10v0c0 5.523-4.477 10-10 10s-10-4.477-10-10v0zM10 18c4.418 0 8-3.582 8-8s-3.582-8-8-8v0c-4.418 0-8 3.582-8 8s3.582 8 8 8v0zM10.7 7.46l3.55 3.54-1.41 1.41-2.84-2.81-2.83 2.8-1.41-1.4 4.24-4.24 0.7 0.7z"/>
    </g>
  </symbol>
  <symbol id="arr_b_down">
    <g transform="matrix(1.2,0,0,1.2,0,0)">
      <path d="M7 10v-8h6v8h5l-8 8-8-8h5z"/>
    </g>
  </symbol>
  <symbol id="arr_b_left">
    <g transform="matrix(1.2,0,0,1.2,0,0)">
      <path d="M10 13h8v-6h-8v-5l-8 8 8 8v-5z"/>
    </g>
  </symbol>
  <symbol id="arr_b_right">
    <g transform="matrix(1.2,0,0,1.2,0,0)">
      <path d="M10 7h-8v6h8v5l8-8-8-8v5z"/>
    </g>
  </symbol>
  <symbol id="arr_b_up">
    <g transform="matrix(1.2,0,0,1.2,0,0)">
      <path d="M7 10v8h6v-8h5l-8-8-8 8h5z"/>
    </g>
  </symbol>
  <symbol id="arr_c_down">
    <g transform="matrix(1.2,0,0,1.2,0,0)">
      <path d="M10 20c-5.523 0-10-4.477-10-10s4.477-10 10-10v0c5.523 0 10 4.477 10 10s-4.477 10-10 10v0zM10 18c4.418 0 8-3.582 8-8s-3.582-8-8-8v0c-4.418 0-8 3.582-8 8s3.582 8 8 8v0zM8 10v-5h4v5h3l-5 5-5-5h3z"/>
    </g>
  </symbol>
  <symbol id="arr_c_left">
    <g transform="matrix(1.2,0,0,1.2,0,0)">
      <path d="M0 10c0-5.523 4.477-10 10-10s10 4.477 10 10v0c0 5.523-4.477 10-10 10s-10-4.477-10-10v0zM2 10c0 4.418 3.582 8 8 8s8-3.582 8-8v0c0-4.418-3.582-8-8-8s-8 3.582-8 8v0zM10 8h5v4h-5v3l-5-5 5-5v3z"/>
    </g>
  </symbol>
  <symbol id="arr_c_right">
    <g transform="matrix(1.2,0,0,1.2,0,0)">
      <path d="M20 10c0 5.523-4.477 10-10 10s-10-4.477-10-10v0c0-5.523 4.477-10 10-10s10 4.477 10 10v0zM18 10c0-4.418-3.582-8-8-8s-8 3.582-8 8v0c0 4.418 3.582 8 8 8s8-3.582 8-8v0zM10 12h-5v-4h5v-3l5 5-5 5v-3z"/>
    </g>
  </symbol>
  <symbol id="arr_c_up">
    <g transform="matrix(1.2,0,0,1.2,0,0)">
      <path d="M10 0c5.523 0 10 4.477 10 10s-4.477 10-10 10v0c-5.523 0-10-4.477-10-10s4.477-10 10-10v0zM10 2c-4.418 0-8 3.582-8 8s3.582 8 8 8v0c4.418 0 8-3.582 8-8s-3.582-8-8-8v0zM12 10v5h-4v-5h-3l5-5 5 5h-3z"/>
    </g>
  </symbol>
  <symbol id="arr_d_down">
    <g transform="matrix(1.2,0,0,1.2,0,0)">
      <path d="M9 16.172l-6.071-6.071-1.414 1.414 8.485 8.485 8.485-8.485-1.414-1.414-6.071 6.071v-16.172h-2z"/>
    </g>
  </symbol>
  <symbol id="arr_d_left">
    <g transform="matrix(1.2,0,0,1.2,0,0)">
      <path d="M3.828 9l6.071-6.071-1.414-1.414-8.485 8.485 8.485 8.485 1.414-1.414-6.071-6.071h16.172v-2h-16.172z"/>
    </g>
  </symbol>
  <symbol id="arr_d_right">
    <g transform="matrix(1.2,0,0,1.2,0,0)">
      <path d="M16.172 9l-6.071-6.071 1.414-1.414 8.485 8.485-8.485 8.485-1.414-1.414 6.071-6.071h-16.172v-2z"/>
    </g>
  </symbol>
  <symbol id="arr_d_up">
    <g transform="matrix(1.2,0,0,1.2,0,0)">
      <path d="M9 3.828l-6.071 6.071-1.414-1.414 8.485-8.485 8.485 8.485-1.414 1.414-6.071-6.071v16.172h-2v-16.172z"/>
    </g>
  </symbol>
  <symbol id="atom">
    <path d="M12 8.999c-1.656 0-3 1.344-3 3s1.344 3 3 3 3-1.344 3-3-1.344-3-3-3zM21.231 9.365c-0.325-0.105-0.618-0.272-0.869-0.493-0.404 0.744-0.902 1.507-1.439 2.272-0.835-1.073-1.788-2.156-2.851-3.219-1.055-1.055-2.142-2.012-3.226-2.854 2.577-1.816 5.054-2.909 6.817-2.909 0.716 0 1.264 0.185 1.628 0.549 0.396 0.396 0.571 1.018 0.54 1.806 0.057-0.004 0.11-0.018 0.168-0.018 0.288 0 0.562 0.059 0.819 0.148 0.062-1.121-0.204-2.027-0.82-2.644-0.559-0.559-1.344-0.842-2.335-0.842-2.043 0-4.812 1.219-7.662 3.277-2.85-2.058-5.619-3.278-7.662-3.278-0.212 0-0.411 0.020-0.604 0.046 0.273 0.264 0.479 0.59 0.61 0.955 1.763 0.002 4.238 1.095 6.813 2.91-1.086 0.844-2.174 1.801-3.228 2.856-1.050 1.051-2.007 2.14-2.856 3.234-0.855-1.211-1.56-2.412-2.065-3.553-0.346-0.779-0.577-1.494-0.712-2.14-0.099 0.013-0.195 0.031-0.297 0.031-0.258 0-0.502-0.051-0.736-0.123 0.134 0.796 0.405 1.678 0.831 2.638 0.567 1.281 1.365 2.632 2.345 3.988-0.979 1.354-1.775 2.705-2.343 3.985-1.209 2.727-1.241 4.861-0.091 6.011 0.559 0.559 1.344 0.842 2.335 0.842 3.020 0 7.626-2.656 11.735-6.767 1.053-1.054 2.011-2.146 2.859-3.243 2.77 3.914 3.564 7.25 2.355 8.459-0.364 0.364-0.912 0.549-1.628 0.549-0.943 0-2.095-0.318-3.354-0.887-0.133 0.32-0.33 0.604-0.575 0.842 1.458 0.675 2.804 1.045 3.929 1.045 0.991 0 1.776-0.283 2.335-0.842 1.738-1.738 0.641-5.731-2.449-10.011 0.635-0.881 1.215-1.761 1.683-2.62zM4.341 21.84c-0.716 0-1.264-0.185-1.628-0.549-0.825-0.825-0.717-2.61 0.298-4.898 0.505-1.14 1.209-2.339 2.062-3.55 0.849 1.093 1.805 2.182 2.854 3.23 1.061 1.061 2.154 2.001 3.246 2.846-2.583 1.824-5.067 2.921-6.832 2.921zM15.369 15.366c-1.094 1.094-2.232 2.082-3.364 2.942-1.135-0.862-2.274-1.847-3.371-2.942-1.094-1.094-2.079-2.229-2.943-3.364 0.864-1.137 1.852-2.273 2.946-3.368 1.093-1.094 2.232-2.082 3.365-2.944 1.132 0.861 2.27 1.849 3.363 2.942 1.136 1.136 2.114 2.265 2.952 3.36-0.864 1.14-1.851 2.277-2.948 3.374zM22 5.999c-0.553 0-1 0.447-1 1s0.447 1 1 1 1-0.447 1-1-0.447-1-1-1zM14 18.999c-0.553 0-1 0.447-1 1s0.447 1 1 1 1-0.447 1-1-0.447-1-1-1zM2 3.999c0.553 0 1-0.447 1-1s-0.447-1-1-1-1 0.447-1 1 0.447 1 1 1z"/>
  </symbol>
  <symbol id="back">
    <g transform="matrix(1.2,0,0,1.2,0,0)">
      <path d="M0 10l7-7h13v14h-13l-7-7zM14.41 10l2.13-2.12-1.42-1.42-2.12 2.14-2.12-2.13-1.42 1.42 2.14 2.11-2.13 2.12 1.42 1.42 2.11-2.14 2.12 2.13 1.42-1.42-2.14-2.11z"/>
    </g>
  </symbol>
  <symbol id="bars">
    <path d="M23 22v-1h-1v1h-1v-10h-5v10h-1v-20h-5v20h-1v-12h-1v-1h-1v1h-2v-1h-1v13h-2v-22h-2v24h24v-2h-1zM7 22h-1v-10h1v10zM13 22h-1v-18h1v18zM19 22h-1v-8h1v8zM4 0h1v1h-1zM7 0h1v1h-1zM10 0h1v1h-1zM13 0h1v1h-1zM16 0h1v1h-1zM19 0h1v1h-1zM22 0h1v1h-1zM22 3h1v1h-1zM19 3h1v1h-1zM16 3h1v1h-1zM16 6h1v1h-1zM19 6h1v1h-1zM22 6h1v1h-1zM22 9.002h1v1h-1zM19 9h1v1h-1zM16 9h1v1h-1zM22 12h1v1h-1zM22 15h1v1h-1zM22 18h1v1h-1zM7 3h1v1h-1zM7 6h1v1h-1zM4 6h1v1h-1zM4 3h1v1h-1z"/>
  </symbol>
  <symbol id="bat_25">
    <path d="M20.82 8c-0.412-1.164-1.523-2-2.826-2h-14.987c-1.653 0-2.997 1.346-2.997 3v7c0 1.654 1.344 3 2.997 3h14.987c1.303 0 2.414-0.836 2.826-2h2.17v-9h-2.17zM18.994 16c0 0.551-0.449 1-1 1h-14.987c-0.552 0-0.999-0.449-0.999-1v-7c0-0.551 0.447-1 0.999-1h14.987c0.551 0 1 0.449 1 1v7zM20.992 15h-1v-5h1v5zM3.007 11v3c0 1.1 0.674 2 1.499 2h1.498v-7h-1.498c-0.825 0-1.499 0.9-1.499 2z"/>
  </symbol>
  <symbol id="bat_50">
    <path d="M20.82 8c-0.412-1.164-1.523-2-2.826-2h-14.987c-1.653 0-2.997 1.346-2.997 3v7c0 1.654 1.344 3 2.997 3h14.987c1.303 0 2.414-0.836 2.826-2h2.17v-9h-2.17zM18.994 16c0 0.551-0.449 1-1 1h-14.987c-0.552 0-0.999-0.449-0.999-1v-7c0-0.551 0.447-1 0.999-1h14.987c0.551 0 1 0.449 1 1v7zM20.992 15h-1v-5h1v5zM7.003 9h2.998v7h-2.998zM3.007 11v3c0 1.1 0.674 2 1.499 2h1.498v-7h-1.498c-0.825 0-1.499 0.9-1.499 2z"/>
  </symbol>
  <symbol id="bat_75">
    <path d="M20.82 8c-0.412-1.164-1.523-2-2.826-2h-14.987c-1.653 0-2.997 1.346-2.997 3v7c0 1.654 1.344 3 2.997 3h14.987c1.303 0 2.414-0.836 2.826-2h2.17v-9h-2.17zM18.994 16c0 0.551-0.449 1-1 1h-14.987c-0.552 0-0.999-0.449-0.999-1v-7c0-0.551 0.447-1 0.999-1h14.987c0.551 0 1 0.449 1 1v7zM20.992 15h-1v-5h1v5zM7.003 9h2.998v7h-2.998zM11 9h2.998v7h-2.998zM3.007 11v3c0 1.1 0.674 2 1.499 2h1.498v-7h-1.498c-0.825 0-1.499 0.9-1.499 2z"/>
  </symbol>
  <symbol id="bat_chg">
    <path d="M20.812 8c-0.412-1.164-1.523-2-2.826-2h-14.988c-1.653 0-2.998 1.346-2.998 3v7c0 1.654 1.345 3 2.998 3h14.987c1.303 0 2.414-0.836 2.826-2h2.169v-9h-2.168zM18.983 16c0 0.551-0.447 1-0.998 1h-14.987c-0.552 0-1-0.449-1-1v-7c0-0.551 0.448-1 1-1h14.987c0.551 0 0.998 0.449 0.998 1v7zM20.982 15h-0.999v-5h0.999v5zM10.097 15l0.998-2h4.996l-5.994-3-1 2h-4.996l5.996 3z"/>
  </symbol>
  <symbol id="bat_ept">
    <path d="M20.82 8c-0.412-1.164-1.523-2-2.826-2h-14.987c-1.653 0-2.997 1.346-2.997 3v7c0 1.654 1.344 3 2.997 3h14.987c1.303 0 2.414-0.836 2.826-2h2.17v-9h-2.17zM18.994 16c0 0.551-0.449 1-1 1h-14.987c-0.552 0-0.999-0.449-0.999-1v-7c0-0.551 0.447-1 0.999-1h14.987c0.551 0 1 0.449 1 1v7zM20.992 15h-1v-5h1v5z"/>
  </symbol>
  <symbol id="bat_ful">
    <path d="M20.82 8c-0.412-1.164-1.523-2-2.826-2h-14.987c-1.653 0-2.997 1.346-2.997 3v7c0 1.654 1.344 3 2.997 3h14.987c1.303 0 2.414-0.836 2.826-2h2.17v-9h-2.17zM18.994 16c0 0.551-0.449 1-1 1h-14.987c-0.552 0-0.999-0.449-0.999-1v-7c0-0.551 0.447-1 0.999-1h14.987c0.551 0 1 0.449 1 1v7zM20.992 15h-1v-5h1v5zM7.003 9h2.998v7h-2.998zM11 9h2.998v7h-2.998zM16.496 9h-1.5v7h1.5c0.824 0 1.498-0.9 1.498-2v-3c0-1.1-0.674-2-1.498-2zM3.007 11v3c0 1.1 0.674 2 1.499 2h1.498v-7h-1.498c-0.825 0-1.499 0.9-1.499 2z"/>
  </symbol>
  <symbol id="bm_ept">
    <g transform="matrix(1.2,0,0,1.2,0,0)">
      <path d="M2 2c0-1.1 0.9-2 2-2h12c1.105 0 2 0.895 2 2v0 18l-8-4-8 4v-18zM4 2v15l6-3 6 3v-15h-12z"/>
    </g>
  </symbol>
  <symbol id="bm_ful">
    <g transform="matrix(1.2,0,0,1.2,0,0)">
      <path d="M2 2c0-1.1 0.9-2 2-2h12c1.105 0 2 0.895 2 2v0 18l-8-4-8 4v-18z"/>
    </g>
  </symbol>
  <symbol id="bm_lin">
    <path d="M3 0v23.18l8.182-4.764 8.818 5.135v-23.551h-17zM5 19.701v-17.701h6v14.375l-0.637 0.312-5.363 3.014zM18 20.072l-5.562-3.385-0.438-0.291v-14.396h6v18.072z"/>
  </symbol>
  <symbol id="bolt">
    <path d="M16.609 11.585l-4.331-0.93 1.999-9.306-6.886 10.302 3.49 0.75-2.201 10.249 7.929-11.065z"/>
  </symbol>
  <symbol id="book">
    <path d="M9.946 9.363c-1.693-1.309-3.755-2.696-7-2.959l7 2.959zM9.946 12.363c-1.693-1.309-3.755-2.696-7-2.959l7 2.959zM6.945 13.451c-1.115-0.523-2.416-0.919-3.999-1.047l3.999 1.047zM13.054 9.363l7-2.959c-3.245 0.263-5.307 1.651-7 2.959zM13.054 12.363l7-2.959c-3.245 0.263-5.307 1.651-7 2.959zM20.054 12.404c-1.583 0.128-2.884 0.523-3.999 1.047l3.999-1.047zM22.054 0.363c-4.38 0-8.389 2.045-10.415 3.664h-0.277c-2.027-1.619-6.036-3.664-10.416-3.664h-0.946v19h0.946c3.236 0 6.823 1.246 8.418 2.449 0.474 0.359 0.907 0.734 1.288 1.116l0.801 0.735h0.094l0.801-0.735c0.381-0.382 0.814-0.757 1.288-1.116 1.595-1.203 5.182-2.449 8.418-2.449h0.946v-19h-0.946zM11 20.521c0-0.102-0.244-0.205-0.376-0.305-1.673-1.261-5.624-2.596-8.624-2.82v-14.992c4 0.306 7.263 2.249 8.681 3.662l0.271 0.297h0.048v14.158zM21 17.396c-3 0.224-6.951 1.559-8.624 2.82-0.132 0.1-0.376 0.204-0.376 0.305v-14.158h0.049l0.271-0.297c1.417-1.413 4.68-3.356 8.68-3.662v14.992z"/>
  </symbol>
  <symbol id="box">
    <path d="M1 3v7h1v11h20v-11h1v-7h-22zM20 19h-16v-9h16v9zM21 8h-18v-3h18v3zM18 11h-12v7h12v-7zM17 17h-10v-5h10v5zM16 13h-8v1h8v-1zM13 15h-5v1h5v-1z"/>
  </symbol>
  <symbol id="bs">
    <path d="M0 1v22h24v-22h-24zM22 21h-20v-13h20v13zM22 7h-20v-4h20v4zM11 4h-2v2h2v-2zM8 4h-2v2h2v-2zM5 4h-2v2h2v-2z"/>
  </symbol>
  <symbol id="bt">
    <g transform="matrix(1.2,0,0,1.2,0,0)">
      <path d="M9.41 0l6 6-4 4 4 4-6 6h-0.41v-7.59l-3.3 3.3-1.4-1.42 4.28-4.29-4.3-4.3 1.42-1.4 3.3 3.28v-7.58h0.41zM11 4.41v3.19l1.59-1.6-1.59-1.59zM12.59 14l-1.59-1.59v3.18l1.59-1.59z"/>
    </g>
  </symbol>
  <symbol id="calc">
    <path d="M4 16h3v-3h-3v3zM5 14h1v1h-1v-1zM8 16h3v-3h-3v3zM9 14h1v1h-1v-1zM8 20h3v-3h-3v3zM9 18h1v1h-1v-1zM4 20h3v-3h-3v3zM5 18h1v1h-1v-1zM12 16h3v-3h-3v3zM13 14h1v1h-1v-1zM10 10h1v-1h-1v1zM8 10h1v-1h-1v1zM4 12h16v-9h-16v9zM5 4h14v7h-14v-7zM20 0h-16c-1.657 0-3 1.343-3 3v18c0 1.657 1.343 3 3 3h16c1.657 0 3-1.343 3-3v-18c0-1.657-1.343-3-3-3zM21 21c0 0.553-0.447 1-1 1h-16c-0.553 0-1-0.447-1-1v-18c0-0.553 0.447-1 1-1h16c0.553 0 1 0.447 1 1v18zM12 20h3v-3h-3v3zM13 18h1v1h-1v-1zM16 20h4v-7h-4v7zM17 14h2v5h-2v-5zM6 10h1v-1h-1v1z"/>
  </symbol>
  <symbol id="cald">
    <path d="M20 4v-4h-6v4h-4v-4h-6v4h-4v19h24v-19h-4zM16 2h2v4h-2v-4zM6 2h2v4h-2v-4zM22 21h-20v-11h20v11zM22 9h-20v-3h2v2h6v-2h4v2h6v-2h2v3zM5.001 12.999h1.998v2h-1.998zM8.001 12.999h1.998v2h-1.998zM10.998 12.999h1.998v2h-1.998zM13.998 12.999h1.998v2h-1.998zM17.001 12.999h1.998v2h-1.998zM5.001 15.998h1.998v2h-1.998zM8.001 15.998h1.998v2h-1.998zM10.998 15.998h1.998v2h-1.998z"/>
  </symbol>
  <symbol id="camera">
    <path d="M12.499 9c-2.485 0-4.499 2.015-4.499 4.5s2.014 4.5 4.499 4.5c2.484 0 4.499-2.015 4.499-4.5s-2.015-4.5-4.499-4.5zM10.757 10.483c0.514-0.299 1.105-0.483 1.743-0.483 1.791 0 3.256 1.358 3.459 3.097-1.73-1.332-3.775-2.154-5.202-2.614zM22.5 5h-4.834l-0.666-2h-10l-0.666 2h-3.834c-1.104 0-2.5 0.896-2.5 2v12c0 1.104 1.396 2 2.5 2h20c1.104 0 1.5-0.896 1.5-2v-12c0-1.104-0.396-2-1.5-2zM12.5 20c-3.59 0-6.5-2.91-6.5-6.5s2.91-6.5 6.5-6.5 6.5 2.91 6.5 6.5-2.91 6.5-6.5 6.5zM22 9h-2v-2h2v2z"/>
  </symbol>
  <symbol id="chart">
    <path d="M3.916 3.647c-2.289 1.646-3.787 4.325-3.787 7.353 0 1.107 0.209 2.163 0.574 3.145l8.486-3.145-5.273-7.353zM1.568 10.748c-0.036-1.876 0.677-3.682 1.971-5.027l4.197 4.659-5.951 1.985c-0.134-0.526-0.207-1.068-0.217-1.617zM13.312 1.5c-2.528 0-4.97 0.911-6.878 2.566l0.025 0.028-0.399 0.349 6.374 7.311-9.274 2.946 0.136 0.427-0.010 0.003c0.028 0.093 0.065 0.181 0.097 0.271l0.080 0.253 0.009-0.003c1.521 4.117 5.404 6.85 9.84 6.85 5.79 0 10.5-4.711 10.5-10.5s-4.71-10.501-10.5-10.501zM21.104 8.614l-6.328 2.317 4.131-5.315c0.935 0.822 1.693 1.841 2.197 2.998zM8.117 5.281c1.485-1.147 3.308-1.781 5.195-1.781 1.784 0 3.439 0.555 4.808 1.498l-4.83 6.215-5.173-5.932zM5.398 15.039l7.275-2.312-1.343 7.515c-2.697-0.64-4.918-2.553-5.932-5.203zM13.312 20.5c-0.339 0-0.667-0.041-0.997-0.080l1.438-8.049 7.696-2.818c0.233 0.776 0.362 1.597 0.362 2.447 0.001 4.688-3.813 8.5-8.499 8.5z"/>
  </symbol>
  <symbol id="chat">
    <path d="M20 1h-17c-1.654 0-3 1.346-3 3v12c0 1.654 2 2 3 2v6l9-6h8c1.654 0 3-1.346 3-3v-11c0-1.654-1.346-3-3-3zM21 15c0 0.551-0.449 1-1 1h-9l-6 5v-5h-2c-0.551 0-1-0.449-1-1v-11c0-0.551 0.449-1 1-1h17c0.551 0 1 0.449 1 1v11z"/>
  </symbol>
  <symbol id="chat_3">
    <path d="M6.5 9c0.828 0 1.5 0.671 1.5 1.5s-0.672 1.5-1.5 1.5-1.5-0.671-1.5-1.5 0.672-1.5 1.5-1.5zM11.5 9c0.828 0 1.5 0.671 1.5 1.5s-0.672 1.5-1.5 1.5-1.5-0.671-1.5-1.5 0.672-1.5 1.5-1.5zM16.5 9c0.828 0 1.5 0.671 1.5 1.5s-0.672 1.5-1.5 1.5-1.5-0.671-1.5-1.5 0.672-1.5 1.5-1.5zM20 1h-17c-1.654 0-3 1.346-3 3v12c0 1.654 2 2 3 2v6l9-6h8c1.654 0 3-1.346 3-3v-11c0-1.654-1.346-3-3-3zM21 15c0 0.551-0.449 1-1 1h-9l-6 5v-5h-2c-0.551 0-1-0.449-1-1v-11c0-0.551 0.449-1 1-1h17c0.551 0 1 0.449 1 1v11z"/>
  </symbol>
  <symbol id="checkbox">
    <path d="M2 4v18h19v-18h-19zM19 20h-15v-14h15v14zM16.998 12h-10.998v3h10.998v-3z"/>
  </symbol>
  <symbol id="checkbox_c">
    <path d="M4 6l9.652 0.014 1.178-2-12.83-0.014v10l2-2v-6zM4 20c-0.039-0.068 0.023-2.403 0.023-3.006-1.059-1.566-2.023-2.994-2.023-2.994v8l5.738 0.014c0 0-0.584-0.865-1.342-1.986-0.782-0.001-1.998-0.028-2.396-0.028zM19 20l-5.941 0.014-1.178 2 9.119-0.014v-14l-2 2v10zM18.014 1.5l-8.25 14.025-2.289-4.004-3.473 1.984 5.711 9.995 11.748-19.973-3.447-2.027z"/>
  </symbol>
  <symbol id="checkmark">
    <path d="M8.98 23l-5.71-9.994 3.473-1.984 2.289 4.004 8.251-14.026 3.447 2.027-11.75 19.973z"/>
  </symbol>
  <symbol id="clipboard">
    <path d="M2 0v24h20v-24h-20zM20 22h-16v-20h16v20zM19 4h-3v-1h-8v1h-3v17h14v-17zM9 4h6v1h-6v-1zM18 20h-12v-15h2v1h8v-1h2v15zM7 9h9v-2h-9v2zM7 11h9v-1h-9v1zM7 13h9v-1h-9v1zM7 15h9v-1h-9v1zM7 17h4v-1h-4v1z"/>
  </symbol>
  <symbol id="clock">
    <path d="M12 0c-6.627 0-12 5.373-12 12s5.373 12 12 12 12-5.373 12-12-5.373-12-12-12zM12 22c-5.514 0-10-4.486-10-10s4.486-10 10-10 10 4.486 10 10-4.486 10-10 10zM16.447 5.105c-0.494-0.246-1.095-0.046-1.342 0.447l-3.379 6.759-2.020-2.019c-0.391-0.391-1.023-0.391-1.414 0s-0.391 1.023 0 1.414l3 3c0.19 0.19 0.444 0.294 0.708 0.294 0.053 0 0.107-0.004 0.16-0.013 0.317-0.052 0.59-0.253 0.734-0.54l4-8c0.248-0.494 0.047-1.094-0.447-1.342zM11.002 18.998h2v1.002h-2zM11.002 3h2v1.002h-2zM3 10.998h2v1.002h-2zM18.998 10.998h2v1.002h-2z"/>
  </symbol>
  <symbol id="close_outline">
    <g transform="matrix(1.2,0,0,1.2,0,0)">
      <path d="M2.93 17.070c-1.884-1.821-3.053-4.37-3.053-7.193 0-5.523 4.477-10 10-10 2.823 0 5.372 1.169 7.19 3.050l0.003 0.003c1.737 1.796 2.807 4.247 2.807 6.947 0 5.523-4.477 10-10 10-2.7 0-5.151-1.070-6.95-2.81l0.003 0.003zM4.34 15.66c1.449 1.449 3.45 2.344 5.66 2.344 4.421 0 8.004-3.584 8.004-8.004 0-2.21-0.896-4.211-2.344-5.66v0c-1.449-1.449-3.45-2.344-5.66-2.344-4.421 0-8.004 3.584-8.004 8.004 0 2.21 0.896 4.211 2.344 5.66v0zM14.24 7.17l-2.83 2.83 2.83 2.83-1.41 1.41-2.83-2.83-2.83 2.83-1.41-1.41 2.83-2.83-2.83-2.83 1.41-1.41 2.83 2.83 2.83-2.83 1.41 1.41z"/>
    </g>
  </symbol>
  <symbol id="close_solid">
    <g transform="matrix(1.2,0,0,1.2,0,0)">
      <path d="M2.93 17.070c-1.884-1.821-3.053-4.37-3.053-7.193 0-5.523 4.477-10 10-10 2.823 0 5.372 1.169 7.19 3.050l0.003 0.003c1.737 1.796 2.807 4.247 2.807 6.947 0 5.523-4.477 10-10 10-2.7 0-5.151-1.070-6.95-2.81l0.003 0.003zM11.4 10l2.83-2.83-1.41-1.41-2.82 2.83-2.83-2.83-1.41 1.41 2.83 2.83-2.83 2.83 1.41 1.41 2.83-2.83 2.83 2.83 1.41-1.41-2.83-2.83z"/>
    </g>
  </symbol>
  <symbol id="cloud">
    <path d="M19.126 21c2.864 0 4.756-3.161 4.756-6.375 0-2.762-2.28-5.211-5.034-5.578l-0.457-1.219c-1.109-2.932-3.812-4.828-6.887-4.828-4.102 0-7.438 3.364-7.438 7.5 0 0.181 0.009 0.358 0.025 0.53-2.233 0.259-3.973 2.164-3.973 4.47 0 2.141 1.663 5.193 4.008 5.5h15zM13.965 12.776v0c0.888-1.278 2.675-1.408 3.473-1.796l0.007 0.020h0.692c1.96 0 3.744 1.5 3.744 3.398 0 1.842-1.221 4.602-3.193 4.602h-14.447c-1.099 0-2.123-2.373-2.123-3.727 0.001-1.543 1.366-2.663 2.978-2.336l1.551 0.37-0.381-1.507c-0.1-0.398-0.2-0.854-0.2-1.314 0-3.033 2.439-5.493 5.438-5.493 2.27 0 4.191 1.357 5.016 3.536-2.023 1.196-2.644 4.035-2.644 4.035"/>
  </symbol>
  <symbol id="comment">
    <path d="M20 1h-17c-1.654 0-3 1.346-3 3v12c0 1.654 2 2 3 2v6l9-6h8c1.654 0 3-1.346 3-3v-11c0-1.654-1.346-3-3-3zM21 15c0 0.551-0.449 1-1 1h-9l-6 5v-5h-2c-0.551 0-1-0.449-1-1v-11c0-0.551 0.449-1 1-1h17c0.551 0 1 0.449 1 1v11zM4 6h12v2h-12zM4 9h15v1h-15zM4 11h15v1h-15zM4 13h8v1h-8z"/>
  </symbol>
  <symbol id="connection_50">
    <path d="M14 2v4h-4v4h-4v4h-4v8h19v-20h-7zM15 20h-3v-12h3v12zM19 20h-3v-16h3v16z"/>
  </symbol>
  <symbol id="cube">
    <path d="M12.111 0.5l-11.111 5.452v11.034l11 6.514 11-6.514v-11.034l-10.889-5.452zM11 20.584l-8-4.738v-6.675l8 3.953v7.46zM3.464 7.106l8.664-4.366 8.664 4.366-8.664 4.281-8.664-4.281zM21 15.846l-9 5.33v-7.722l9-4.283v6.675z"/>
  </symbol>
  <symbol id="diamond">
    <path d="M17.408 1.967h-10.816l-6.592 6.533 12 13.533 12-13.533-6.592-6.533zM21.594 9.028l-0.014-0.061h-8.902l4.268-4.609 4.648 4.67zM10.398 17.386l-7.023-7.419h4.625l-0.465 0.223 2.863 7.196zM8.537 9.967h6.924l-3.461 8.654-3.463-8.654zM16 9.967h4.623l-7.023 7.419 2.863-7.196-0.463-0.223zM12 8.229l-3.914-4.262h7.826l-3.912 4.262zM7.053 4.396l4.268 4.571h-8.903l-0.012 0.023 4.647-4.594z"/>
  </symbol>
  <symbol id="download">
    <path d="M15 11v-11h-5v11h-3.953l6.363 6.364 6.363-6.364zM20.16 7h-3.16v2h3.16c0.551 0 0.84 0.016 0.84 0.566v7.5c0 0.828-0.514 1.934-1.34 1.934h-15.318c-0.826 0-1.34-1.106-1.34-1.934v-7.5c0-0.55 0.289-0.566 0.84-0.566h3.16v-2h-3.16c-1.654 0-2.84 0.912-2.84 2.566v11c0 1.654 1.186 3.434 2.84 3.434h16.318c1.654 0 2.84-1.779 2.84-3.434v-11c0-1.654-1.186-2.566-2.84-2.566zM21 20.566c0 0.551-0.289 1.434-0.84 1.434h-16.318c-0.551 0-0.84-0.883-0.84-1.434v-1.513c0 0.317 0.775 0.946 1.34 0.946h15.318c0.564 0 1.34-0.629 1.34-0.946v1.513z"/>
  </symbol>
  <symbol id="email">
    <path d="M13 6h-6v2h6v-2zM16 9h-9v1h9v-1zM16 11h-9v1h9v-1zM20 12.001v-11.001h-17v11.033l-2-1.033v13h21v-12.992l-2 0.993zM5 3h13v9.909l-2 1.072v-0.981h-9v1h8.965l-4.492 2.408-6.473-3.343v-10.065zM3 22v-7.866l14.651 7.866h-14.651zM20 20.949l-6.378-3.407 6.378-3.408v6.815z"/>
  </symbol>
  <symbol id="email1">
    <path d="M10.781 14.274l-0.781 7.726 4.77-5.893 4.564 2.060 4.666-16.167-13.219 12.274zM24 2l-24 9.865 5.666 1.135 4.334 9-3.125-9 17.125-11z"/>
  </symbol>
  <symbol id="enter">
    <path d="M12.199 11.566l-4.199-4.199v2.633h-7v3h7v2.766l4.199-4.2zM9 1v3.367l2 2v-3.367h8.089l-6.089 2v12h-2v-0.234l-2 2v0.234h4v4l9-3v-19z"/>
  </symbol>
  <symbol id="envelope">
    <path d="M1 6v13h21v-13h-21zM3 17v-7.866l15.544 7.866h-15.544zM20 15.949l-6.378-3.407 6.378-3.408v6.815zM12.088 11.408l-6.706-3.408h13.195l-6.489 3.408z"/>
  </symbol>
  <symbol id="file">
    <path d="M7 7h6v2h-6zM7 10h9v1h-9zM7 12h9v1h-9zM7 14h9v1h-9zM7 16h3v1h-3zM16.43 2h-13.43v21h17v-17.465l-3.57-3.535zM18 6.363v0.637h-3v-3h0.602l2.398 2.363zM5 21v-17h9v4h4v13h-13z"/>
  </symbol>
  <symbol id="file_add">
    <path d="M8 7v2h6v-2h-6zM8 11h9v-1h-9v1zM17 12h-8v1h8v-1zM17 15v-1h-7v1h7zM8 14h-3v3h-3v3h3v3h3v-3h3v-3h-3v-3zM4 2v10h2v-8h13v17h-6.643l-1 2h9.643v-21h-17z"/>
  </symbol>
  <symbol id="files">
    <path d="M5 0v3h-3v21h17v-3h3v-21h-17zM17 22h-13v-17h1v16h12v1zM20 19h-13v-17h13v17zM15 5h-6v2h6v-2zM18 8h-9v1h9v-1zM18 10h-9v1h9v-1zM18 12h-9v1h9v-1zM12 14h-3v1h3v-1z"/>
  </symbol>
  <symbol id="graph">
    <path d="M22.998 22.002h-1.998v-1.002h-1.002v1.002h-1.995v-1.002h-1.002v1.002h-1.998v-1.002h-1.002v1.002h-1.998v-1.002h-1.002v1.002h-1.998v-1.002h-1.002v1.002h-4.401l5.27-3.167 2.608-7.622 3.874 6.809 7.507-12.508-1.714-1.030-5.747 9.576-4.376-7.691-3.809 11.128-5.215 3.134v-20.631h-1.998v24h24v-3h-1.002zM22.998 0h1.002v1.002h-1.002zM19.998 0h1.002v1.002h-1.002zM17.001 0h1.002v1.002h-1.002zM14.001 0h1.002v1.002h-1.002zM11.001 0h1.002v1.002h-1.002zM8.001 0h1.002v1.002h-1.002zM5.001 0h1.002v1.002h-1.002zM2.001 0h1.002v1.002h-1.002zM22.998 3h1.002v1.002h-1.002zM19.998 3h1.002v1.002h-1.002zM17.001 3h1.002v1.002h-1.002zM14.001 3h1.002v1.002h-1.002zM11.001 3h1.002v1.002h-1.002zM8.001 3h1.002v1.002h-1.002zM5.001 3h1.002v1.002h-1.002zM2.001 3h1.002v1.002h-1.002zM22.998 5.997h1.002v1.002h-1.002zM17.001 5.997h1.002v1.002h-1.002zM14.001 5.997h1.002v1.002h-1.002zM8.001 5.997h1.002v1.002h-1.002zM5.001 5.997h1.002v1.002h-1.002zM2.001 5.997h1.002v1.002h-1.002zM22.998 8.997h1.002v1.002h-1.002zM14.001 8.997h1.002v1.002h-1.002zM8.001 8.997h1.002v1.002h-1.002zM5.001 8.997h1.002v1.002h-1.002zM2.001 8.997h1.002v1.002h-1.002zM22.998 11.999h1.002v1.002h-1.002zM19.998 11.999h1.002v1.002h-1.002zM5.001 11.999h1.002v1.002h-1.002zM2.001 11.999h1.002v1.002h-1.002zM22.998 14.999h1.002v1.002h-1.002zM19.998 14.999h1.002v1.002h-1.002zM11.001 14.999h1.002v1.002h-1.002zM5.001 14.999h1.002v1.002h-1.002zM2.001 14.999h1.002v1.002h-1.002zM22.998 17.996h1.002v1.002h-1.002zM19.998 17.996h1.002v1.002h-1.002zM17.001 17.996h1.002v1.002h-1.002zM11.001 17.996h1.002v1.002h-1.002zM2.001 17.996h1.002v1.002h-1.002z"/>
  </symbol>
  <symbol id="grid">
    <path d="M1 2v21h20.98v-21h-20.98zM19.982 9h-4.996v-5h4.996v5zM19.982 15h-4.996v-5h4.996v5zM19.982 21h-4.996v-5h4.996v5zM2.998 16h4.996v5h-4.996v-5zM2.998 10h4.996v5h-4.996v-5zM2.998 4h4.996v5h-4.996v-5zM13.988 9h-4.995v-5h4.996v5zM13.988 15h-4.995v-5h4.996v5zM8.993 16h4.996v5h-4.996v-5z"/>
  </symbol>
  <symbol id="health">
    <path d="M20.785 3.193c-6.041-0.859-12.071-0.861-18.126 0.002-1.565 0.234-2.659 1.715-2.659 3.303v11c0 1.588 0.908 3.070 2.482 3.306 3.021 0.43 5.916 0.647 8.968 0.647s6.406-0.218 9.434-0.648c1.567-0.235 3.116-1.717 3.116-3.305v-10.998c0-1.588-1.639-3.070-3.215-3.307zM2 6.5c0-0.605 0.178-1.238 0.764-1.326 2.642-0.375 5.186-0.575 7.829-0.612l-3.919 6.956h-4.674v-5.018zM22 17.498c0 0.605-0.908 1.237-1.496 1.325-5.855 0.833-11.709 0.831-17.549 0.001-0.596-0.089-0.955-0.72-0.955-1.326v-3.98h5.861l1.771-2.758 0.849 7.18 5.142-4.422h6.377v3.98zM22 11.518h-7.088l-2.858 2.813-1.091-9.776c0.164-0.001 0.323-0.009 0.487-0.009 2.958 0 6.218 0.212 9.138 0.626 0.596 0.090 1.412 0.722 1.412 1.326v5.020zM16.002 6.998h0.996v1.002h-0.996zM18 6.998h1.002v1.002h-1.002z"/>
  </symbol>
  <symbol id="heart">
    <path d="M12 19.654l-0.035 0.043-7.965-10.197c-0.363-0.458-1-1.011-1-2.268 0-2.206 1.795-4 4-4 2.206 0 5 1.794 5 4v-3.313c-1.075-1.618-2.915-2.687-5-2.687-3.309 0-6 2.691-6 6 0 2.056 1 3 1.258 3.669l9.742 11.822v-3.069zM12 19.654l0.035 0.043 7.965-10.197c0.363-0.458 1-1.011 1-2.268 0-2.206-1.795-4-4-4s-5 1.794-5 4v-3.313c1.076-1.618 2.916-2.687 5-2.687 3.309 0 6 2.691 6 6 0 2.056-1 3-1.258 3.669l-9.742 11.822v-3.069z"/>
  </symbol>
  <symbol id="home">
    <path d="M21 7.651v-6.651h-5v2.963l-4.018-2.963-11.982 9h3v13h18v-13l3 0.002-3-2.351zM12 21h-4v-8h4v8zM19 21h-6v-9h-6v9h-2v-12l7.009-5 6.991 5v12zM19 5.132l-1-0.667v-1.465h1v2.132zM18 14h-4v4h4v-4zM17 17h-2v-2h2v2zM11 17h-1v1h1v-1z"/>
  </symbol>
  <symbol id="image">
    <path d="M0 3v18h24v-18h-24zM22 19h-20v-14h20v14zM14.5 12.444c1.103 0 2-0.896 2-2s-0.897-2-2-2-2 0.896-2 2 0.897 2 2 2zM13.5 9.444h2v2h-2v-2zM21 6h-18v12h18v-12zM4 12.965l6.049 1.728-6.049 1.068v-2.796zM20 17h-16v-0.225l16-2.823v3.048zM20 12.952l-8 1.492-8-2.479v-4.965h16v5.952z"/>
  </symbol>
  <symbol id="lab">
    <path d="M20.997 16.742c0 0-6.986-7.011-6.999-7.742v-1.002h2.004v-6h-9.002v6h2l0.004 1.002c-0.013 0.731-6.999 7.742-6.999 7.742-1.317 1.478-1.041 2.686-0.807 3.232s1.129 2.026 1.777 2.026h17.052c0.648 0 1.542-1.479 1.776-2.025s0.511-1.755-0.806-3.233zM19.966 19.187c-0.088 0.204-0.312 0.568-0.5 0.813h-15.93c-0.188-0.245-0.412-0.609-0.499-0.813-0.144-0.334 0.192-0.804 0.428-1.076 7.513-7.542 7.524-8.218 7.539-9.11v-2.999l-2.007-0.002 0.003-1.998h4.998l0.003 1.998h-2.001l-0.001 3.035c0.015 0.857 0.026 1.534 7.539 9.076 0.235 0.272 0.57 0.742 0.428 1.076zM12 12h-1.002l-6 6v1.002h13.002v-1.002l-6-6zM10.002 15l0.996-1.998h1.002l1.002 1.998h-3z"/>
  </symbol>
  <symbol id="lock">
    <path d="M19 9v-3c0-2-2-5-7-5s-7 3-7 5v3h-2v11c0 1.654 1.346 3 3 3h12c1.654 0 3-1.346 3-3v-11h-2zM7 5c0 0 1-2 5-2s5 2 5 2v4h-10v-4zM19 20c0 0.551-0.448 1-1 1h-12c-0.552 0-1-0.449-1-1v-9h14v9zM11 16.723v2.277h2v-2.277c0.596-0.347 1-0.984 1-1.723 0-1.104-0.896-2-2-2s-2 0.896-2 2c0 0.738 0.404 1.376 1 1.723z"/>
  </symbol>
  <symbol id="map">
    <path d="M15.418 0.581l-7.201 3.99-8.217-4.571v18.303l8.434 4.572 6.799-4.008 7.767 4.278v-18.271l-7.582-4.293zM21 12.234l-5-2.562v-6.278l5 2.678v6.162zM9 6.304l5-2.857v6.272l-5 2.857v-6.272zM9 13.729l5-2.858v6.274l-5 2.855v-6.271zM7 6.304v6.235l-5-3.007v-6.086l5 2.858zM2 10.7l5 3.007v6.293l-5-2.855v-6.445zM16 17.125v-6.329l5 2.562v6.445l-5-2.678z"/>
  </symbol>
  <symbol id="mm">
    <path d="M11.999 0c-5.027 0-9.103 4.076-9.103 9.104 0 5.029 7.15 14.896 9.104 14.896 1.445 0 9.105-9.867 9.105-14.896-0.001-5.028-4.077-9.104-9.106-9.104zM11.958 13.584c-2.555 0-4.625-2.070-4.625-4.625s2.070-4.625 4.625-4.625 4.625 2.070 4.625 4.625-2.070 4.625-4.625 4.625z"/>
  </symbol>
  <symbol id="mp_off">
    <path d="M4 14.758l1-1v-3.758h-1v2h-1v2h1v0.758zM19 12v-2h-1v5c0 1.121-1.944 2-3.54 2h-4.912l-2 1h1.452v3h-2v2h9v-2h-2v-3h0.46c2.717 0 4.54-0.757 4.54-3v-1h1v-2h-1zM13 6v-1h-1v1h1zM8 10h2v-1h-2v-1h2v-1h-2v-1h2v-1h-2v-1c0-0.551-0.246-1 0.306-1h5c0.48 0 0.863 0.347 0.959 0.799l1.504-1.504c-0.542-0.781-1.443-1.295-2.463-1.295h-5c-1.655 0-2.306 1.346-2.306 3v8.758l2-2v-0.758zM13.306 14h-1.758l-2 2h3.758c1.654 0 3.694-1.346 3.694-3v-3.758l-2 2v1.758c0 0.551-1.143 1-1.694 1zM17.556 3.396l-14 14 1 2 14-14-1-2z"/>
  </symbol>
  <symbol id="mp_on">
    <path d="M14 1h-5c-1.656 0-3 1.343-3 3v9c0 1.657 1.344 3 3 3h5c1.656 0 3-1.343 3-3v-9c0-1.657-1.344-3-3-3zM15 6v1h-2v1h2v1h-2v1h2v1h-2v1h2v1c0 0.551 0.072 1-0.479 1h-6.042c-0.551 0-0.479-0.449-0.479-1v-1h2v-1h-2v-1h2v-1h-2v-1h2v-1h-2v-1h2v-1h-2v-1c0-0.551-0.072-1 0.479-1h6.041c0.552 0 0.48 0.449 0.48 1v1h-2v1h2zM19 12v-2h-1v5c0 1.121-0.729 2-2.325 2h-8.35c-1.596 0-2.325-0.879-2.325-2v-5h-1v2h-1v2h1v1c0 2.243 0.608 3 3.325 3h1.675v3h-2v2h9v-2h-2v-3h1.675c2.717 0 3.325-0.757 3.325-3v-1h1v-2h-1z"/>
  </symbol>
  <symbol id="mute">
    <path d="M14 13.242v6.758l-3.379-3.379-1.379 1.379h0.525l4 5c1 0 2.232 0 2.232 0v-11.758l-1.999 2zM5.017 15.155c-0.004-0.052-0.017-0.1-0.017-0.155v-5.75c0-0.551 0.215-1.25 0.768-1.25h3.232v3.172l1-1v-2.172l4-4v2.172l2-2v-3.172c-1 0-1.232 0-2.232 0l-4 5h-4c-1.655 0-2.768 1.596-2.768 3.25v5.75c0 0.636 0.167 1.223 0.463 1.709l1.554-1.554zM3.414 21.707l-1.414-1.414 18.5-18.5 1.414 1.414-18.5 18.5z"/>
  </symbol>
  <symbol id="mw">
    <path d="M21 3h-18c-1.654 0-3 1.346-3 3v11c0 1.654 1.346 3 3 3h1l1 2h1l1-2h10l1 2h1l1-2h1c1.654 0 3-1.346 3-3v-11c0-1.654-1.346-3-3-3zM22 17c0 0.552-0.449 1-1 1h-18c-0.551 0-1-0.448-1-1v-11c0-0.551 0.449-1 1-1h18c0.551 0 1 0.449 1 1v11zM3 17h15v-11h-15v11zM4 7h13v9h-13v-9zM19 7h1v1h-1zM20 8h1v1h-1zM19 9h1v1h-1zM20 10h1v1h-1zM19 13h2v1h-2zM19 15h2v1h-2z"/>
  </symbol>
  <symbol id="paperclip">
    <path d="M21.169 4.707l-2.828-2.828c-1.95-1.949-5.122-1.949-7.071 0l-9.9 9.899 1.414 1.414 9.9-9.899c1.17-1.17 3.073-1.17 4.242 0l2.829 2.829c1.17 1.169 1.17 3.072 0 4.242l-9.899 9.899c-1.275 1.275-2.693 1.549-3.073 1.17l-0.463-0.462-2.254-2.254c-0.176-0.176-0.032-1.119 0.486-1.637l9.897-9.897c0.116-0.115 1.062 0.354 1.768 1.061v0c-0.309 0.309-0.237 0.238-0.353 0.354l-7.182 7.181 1.414 1.414 7.182-7.181c0.855-0.854 1.918-1.618 0.354-3.182v0c-1.563-1.564-3.137-2.52-4.596-1.061l-9.9 9.897c-1.168 1.17-1.623 3.326-0.484 4.465l1.545 1.547 1.172 1.17c1.326 1.326 3.918 0.812 5.9-1.17l9.899-9.899c1.95-1.95 1.95-5.122 0.001-7.072z"/>
  </symbol>
  <symbol id="pencil">
    <path d="M12.91 0.604l-8.799 15.705 0.045 0.023 0.445 7.064 6.447-3.202 0.041 0.023 8.799-15.704-6.978-3.909zM6.055 20.9l-0.061-3.539 3.199 1.793-3.138 1.746zM10.322 17.496l-3.488-1.955 5.377-9.597 3.49 1.954-5.379 9.598zM12.699 5.071l0.979-1.745 3.488 1.955-0.977 1.744-3.49-1.954z"/>
  </symbol>
  <symbol id="phone">
    <path d="M16 3h-8c-1.1 0-2 0.9-2 2v14c0 1.1 0.9 2 2 2h8c1.1 0 2-0.9 2-2v-14c0-1.1-0.9-2-2-2zM13 20h-2v-2h2v2zM16 17h-8v-12h8v12z"/>
  </symbol>
  <symbol id="pill">
    <path d="M20.486 3.515c-2.34-2.339-6.146-2.339-8.487 0l-8.484 8.485c-2.339 2.34-2.34 6.146 0 8.485s6.145 2.339 8.485 0l8.486-8.485c2.338-2.34 2.34-6.146 0-8.485zM19.072 4.929c1.559 1.56 1.559 4.098 0 5.657l-4.244 4.242-5.656-5.656 4.242-4.243c1.561-1.56 4.098-1.56 5.658 0z"/>
  </symbol>
  <symbol id="plus_c">
    <g transform="matrix(1.2,0,0,1.2,0,0)">
      <path d="M11,9L15,9L15,11L11,11L11,15L9,15L9,11L5,11L5,9L9,9L9,5L11,5L11,9ZM10,20C4.477,20 0,15.523 0,10C0,4.477 4.477,0 10,0C15.523,0 20,4.477 20,10C20,15.523 15.523,20 10,20ZM10,18C14.418,18 18,14.418 18,10C18,5.582 14.418,2 10,2C5.582,2 2,5.582 2,10C2,14.418 5.582,18 10,18Z" style="fill-rule:nonzero;"/>
    </g>
  </symbol>
  <symbol id="printer">
    <path d="M22 9h-2v-8h-16v8h-2c-1.1 0-2 0.9-2 2v10c0 1.1 0.675 2 1.5 2h2.5v1h16v-1h2.5c0.825 0 1.5-0.9 1.5-2v-10c0-1.1-0.9-2-2-2zM4 22h-1v-5h1v5zM18 22h-12v-5h2v1h8v-1h2v5zM18 9h-12v-6h12v6zM21 22h-1v-5h1v5zM22 12h-2v-1h2v1zM8 20h8v-1h-8v1z"/>
  </symbol>
  <symbol id="refresh">
    <path d="M5.485 11.285c0.447-2.673 3.21-5.588 6.479-5.588 1.891 0 3.58 0.868 4.762 2.206l1.59-1.060c-1.553-1.845-3.857-3.041-6.422-3.041-4.25 0-7.764 2.953-8.297 7.117l-3.597-0.695 3.541 5.237 5.238-3.539-3.294-0.637zM20.459 8.539l-5.238 3.539 3.293 0.637c-0.446 2.673-3.21 5.589-6.479 5.588-1.892 0-3.58-0.868-4.763-2.206l-1.589 1.060c1.553 1.845 3.857 3.041 6.422 3.041 4.249 0 7.764-2.953 8.296-7.117l3.599 0.695-3.541-5.237z"/>
  </symbol>
  <symbol id="reload">
    <path d="M13.818 3.080c-4.486 0-8.195 3.118-8.758 7.513l-3.798-0.735 3.738 5.529 5.529-3.735-3.477-0.673c0.471-2.821 3.389-5.898 6.84-5.898 3.77 0 6.846 3.231 6.846 7.002s-3.76 6.838-6.76 6.838v2c5 0 8.76-4.047 8.76-8.92s-4.047-8.921-8.92-8.921z"/>
  </symbol>
  <symbol id="return_lt">
    <g transform="matrix(1.2,0,0,1.2,0,0)">
      <path d="M18 12v1h-10v5l-6-6 6-6v5h8v-9h2z"/>
    </g>
  </symbol>
  <symbol id="return_rt">
    <g transform="matrix(1.2,0,0,1.2,0,0)">
      <path d="M3.5 13h8.5v5l6-6-6-6v5h-8v-9h-2v11z"/>
    </g>
  </symbol>
  <symbol id="screen">
    <path d="M0 2v14h9.75l-1.75 3h8l-1.75-3h9.75v-14h-24zM22 14h-20v-10h20v10zM17 20h-10c-0.55 0-1 0.45-1 1s0.45 1 1 1h10c0.55 0 1-0.45 1-1s-0.45-1-1-1z"/>
  </symbol>
  <symbol id="star">
    <path d="M18.364 23.523c-0.379 0.002-0.777-0.107-1.184-0.322l-3.876-2.037c-0.648-0.342-1.96-0.342-2.61 0l-3.874 2.037c-0.97 0.51-1.941 0.389-2.494-0.266-0.267-0.316-0.551-0.891-0.39-1.828l0.74-4.316c0.13-0.76-0.255-1.943-0.807-2.482l-3.137-3.056c-0.657-0.643-0.905-1.406-0.681-2.096 0.225-0.689 0.875-1.161 1.785-1.293l4.332-0.63c0.764-0.111 1.771-0.842 2.111-1.533l1.939-3.928c0.407-0.824 1.056-1.296 1.782-1.296s1.375 0.473 1.781 1.297l1.939 3.928c0.341 0.691 1.348 1.422 2.111 1.533l4.332 0.63c0.91 0.132 1.561 0.604 1.785 1.293s-0.024 1.453-0.683 2.096l-3.137 3.056c-0.552 0.539-0.937 1.723-0.807 2.482l0.74 4.316c0.161 0.938-0.123 1.512-0.39 1.826-0.317 0.38-0.783 0.589-1.307 0.589zM12 18.895c0.83 0 1.624 0.178 2.235 0.5l3.853 2.025-0.735-4.291c-0.243-1.418 0.351-3.246 1.381-4.252l3.118-3.037-4.307-0.627c-1.426-0.207-2.981-1.336-3.617-2.627l-1.928-3.903-1.928 3.903c-0.636 1.291-2.191 2.42-3.617 2.627l-4.307 0.627 3.118 3.037c1.030 1.006 1.624 2.834 1.381 4.252l-0.735 4.291 3.852-2.025c0.612-0.323 1.406-0.5 2.236-0.5z"/>
  </symbol>
  <symbol id="sun">
    <path d="M23.986 12l-2.658-3.061 0.369-4.052-3.932-0.897-2.061-3.502-3.704 1.613-3.706-1.613-2.059 3.502-3.933 0.898 0.368 4.051-2.656 3.061 2.656 3.061-0.368 4.053 3.934 0.896 2.061 3.502 3.703-1.611 3.704 1.61 2.059-3.5 3.935-0.896-0.369-4.055 2.657-3.060zM16.519 18.283l-1.613 2.744-2.906-1.262-2.905 1.263-1.615-2.744-3.086-0.706 0.289-3.176-2.085-2.402 2.085-2.399-0.289-3.178 3.088-0.706 1.611-2.742 2.907 1.262 2.905-1.263 1.613 2.742 3.086 0.706-0.289 3.176 2.085 2.402-2.085 2.401 0.289 3.178-3.085 0.704zM12 5.621c-3.484 0-6.319 2.862-6.319 6.379s2.835 6.379 6.319 6.379 6.319-2.861 6.319-6.379c0-3.517-2.835-6.379-6.319-6.379zM12 17.397c-2.948 0-5.347-2.421-5.347-5.397s2.399-5.397 5.347-5.397c2.947 0 5.347 2.421 5.347 5.397s-2.4 5.397-5.347 5.397z"/>
  </symbol>
  <symbol id="sw">
    <path d="M13 4.050v-1.050h0.5c0.276 0 0.5-0.224 0.5-0.5v-2c0-0.276-0.224-0.5-0.5-0.5h-3c-0.276 0-0.5 0.224-0.5 0.5v2c0 0.276 0.224 0.5 0.5 0.5h0.5v1.054c-0.901 0.092-1.767 0.304-2.583 0.619l-1.047-1.011-1.827-1.826-3.518 3.518 2.271 2.271c-1.434 1.73-2.296 3.951-2.296 6.375 0 5.523 4.477 10 10 10s10-4.477 10-10c0-5.186-3.946-9.448-9-9.95zM11 1h2v1h-2v-1zM3.439 5.354l2.104-2.104 1.167 1.166-2.104 2.104-1.167-1.166zM12 22c-4.411 0-8-3.589-8-8s3.589-8 8-8 8 3.589 8 8-3.589 8-8 8zM11.207 9.459c-0.391-0.391-1.023-0.391-1.414 0s-0.391 1.023 0 1.414l1.964 1.965-2.628 3.672c-0.271 0.481-0.101 1.091 0.381 1.361 0.155 0.088 0.323 0.129 0.489 0.129 0.35 0 0.689-0.184 0.872-0.51l3-4.334c0.221-0.391 0.153-0.88-0.164-1.197l-2.5-2.5z"/>
  </symbol>
  <symbol id="syringe">
    <path d="M19.602 5.105l1.414 1.414 1.414-1.414-3.535-3.535-1.415 1.414 1.414 1.414-2.122 2.122-4.243-4.243-1.414 1.414 1.414 1.414-10.605 10.607 2.424 2.425-2.778 4.293 4.293-2.777 2.424 2.424 10.608-10.607 1.414 1.414 1.414-1.414-4.243-4.242 2.122-2.123zM17.48 10.056l-2.123 2.121-2.121-2.122-0.707 0.707 2.121 2.122-1.414 1.415-2.121-2.122-0.707 0.707 2.121 2.122-1.414 1.414-2.121-2.122-0.707 0.707 2.121 2.122-2.121 2.121-3.535-3.536 9.191-9.192 3.537 3.536z"/>
  </symbol>
  <symbol id="tablet">
    <path d="M19 1h-14c-1.1 0-2 0.9-2 2v18c0 1.1 0.9 2 2 2h14c1.1 0 2-0.9 2-2v-18c0-1.1-0.9-2-2-2zM13 22h-2v-2h2v2zM19 19h-14v-16h14v16z"/>
  </symbol>
  <symbol id="tag">
    <path d="M21.986 8.821l-2.835-8.813-9.156 2.83-7.996 14.777 11.798 6.377 7.976-14.741c0.006-0.010 0.012-0.021 0.017-0.030l0.212-0.392-0.016-0.008zM17.73 8.335c-0.722 1.338-2.393 1.836-3.732 1.113-1.339-0.725-1.836-2.395-1.112-3.731 0.723-1.339 2.396-1.836 3.733-1.113s1.836 2.394 1.111 3.731z"/>
  </symbol>
  <symbol id="trash">
    <path d="M15 4v-3h-6v3h-4v2h14v-2h-4zM13.018 4h-2v-1h2v1zM5 7v15l2 2h10l2-2v-15h-14zM8 22h-1v-11h1v11zM10 22h-1v-11h1v11zM12 22h-1v-11h1v11zM17 22h-4v-11h4v11zM17 10h-10v-1h10v1z"/>
  </symbol>
  <symbol id="unlocked">
    <path d="M19 0c-4 0-5 3-5 5v5h-14v11c0 1.654 1.346 3 3 3h12c1.654 0 3-1.346 3-3v-11h-2v-6c0 0 0-2 3-2s3 2 3 2v4h2v-3c0-2-1-5-5-5zM16 21c0 0.551-0.448 1-1 1h-12c-0.552 0-1-0.449-1-1v-9h14v9zM8 17.723v2.277h2v-2.277c0.596-0.347 1-0.984 1-1.723 0-1.104-0.896-2-2-2s-2 0.896-2 2c0 0.738 0.404 1.376 1 1.723z"/>
  </symbol>
  <symbol id="usr_a">
    <path d="M12 15c0 0-8 0-11 7 0 0 5.010 2 11 2s11-2 11-2c-3-7-11-7-11-7zM12 14c3 0 5-3 5-8s-5-5-5-5-5 0-5 5 2 8 5 8z"/>
  </symbol>
  <symbol id="usr_b">
    <path d="M23.676 19.99c-1.677-4.008-4.914-5.873-7.423-6.739 1.12-1.537 1.733-3.792 1.757-6.55 0.041-4.656-3.798-5.921-5.833-5.938s-5.896 1.18-5.938 5.836c-0.024 2.757 0.55 5.021 1.642 6.579-2.523 0.82-5.795 2.632-7.54 6.608l-0.413 0.938 0.949 0.39c0.207 0.083 5.126 2.070 11.102 2.122 5.977 0.053 10.93-1.847 11.139-1.927l0.955-0.372-0.397-0.947zM12.153 2.763c0.399 0.008 3.89 0.178 3.857 3.921-0.026 2.996-0.841 5.274-2.232 6.251l-1.721 1.208-1.696-1.237c-1.375-1.002-2.149-3.294-2.122-6.29 0.033-3.744 3.527-3.852 3.914-3.853zM11.997 21.237c-4.046-0.035-7.648-1.047-9.341-1.607 1.83-3.205 4.931-4.457 7.312-4.937l2.089-0.421 2.081 0.456c2.373 0.523 5.452 1.829 7.227 5.064-1.699 0.532-5.31 1.481-9.368 1.445z"/>
  </symbol>
  <symbol id="usrs_a">
    <path d="M15 14.363c0 0-6.182 0-8.5 5.41 0 0 3.871 1.545 8.5 1.545s8.5-1.545 8.5-1.545c-2.318-5.41-8.5-5.41-8.5-5.41zM15 13.592c2.318 0 3.863-2.318 3.863-6.183s-3.863-3.864-3.863-3.864-3.863 0-3.863 3.864 1.545 6.183 3.863 6.183zM7.5 10.955c0.762 0 1.416-0.316 1.935-0.885-0.192-0.777-0.298-1.665-0.298-2.661 0-1.485 0.571-2.396 1.274-2.958-0.766-1.765-2.911-1.769-2.911-1.769s-3.182 0-3.182 3.182c0 3.182 1.273 5.091 3.182 5.091zM10.5 13.449l-0.108-1.258c-1.558-0.596-2.892-0.6-2.892-0.6s-5.091 0-7 4.455c0 0 2.461 0.981 5.645 1.22 2.773-2.903 4.355-3.817 4.355-3.817z"/>
  </symbol>
  <symbol id="usrs_b">
    <path d="M23.588 19.96c-1.459-3.359-4.841-5.31-7.296-6.144 1.504-1.229 2.392-3.547 2.392-6.583 0-4.035-3.373-5.102-5.157-5.102-0.287 0-0.617 0.032-0.965 0.095-0.958-0.861-2.225-1.226-3.233-1.226-1.864 0-4.637 1.222-4.637 4.587 0 2.678 0.782 4.729 2.109 5.833-2.088 0.546-4.932 1.894-6.389 5.249l-0.412 0.949 0.963 0.38c0.086 0.034 1.27 0.488 3.062 0.889-0.205 0.348-0.398 0.699-0.561 1.073l-0.413 0.949 0.963 0.38c0.178 0.069 4.401 1.711 9.512 1.711s9.334-1.642 9.512-1.711l0.962-0.38-0.412-0.949zM16.684 7.234c0 3.431-1.21 5.562-3.157 5.562s-3.157-2.131-3.157-5.562c0-2.92 2.635-3.096 3.152-3.102 0.527 0.006 3.162 0.182 3.162 3.102zM9.329 3c0.101 0 0.501 0.017 0.958 0.165-1.070 0.77-1.917 2.046-1.917 4.069 0 1.099 0.119 2.102 0.338 2.996-1.472-0.469-2.016-2.615-2.016-4.643 0-2.431 2.202-2.582 2.637-2.587zM9.329 13.046c0.012 0 0.29 0.006 0.726 0.062 0.436 0.538 0.949 0.954 1.527 1.239-1.574 0.315-3.816 1.067-5.634 2.865-1.31-0.211-2.432-0.494-3.185-0.72 2.147-3.38 6.374-3.445 6.566-3.446zM13.526 21c-3.276 0-6.567-0.75-8.071-1.214 0.237-0.687 0.986-1.595 1.246-1.907 2.793-2.705 6.784-2.762 6.822-2.762 0.008 0 0.729 0.011 1.755 0.216 1.782 0.45 4.55 2.095 5.974 4.451-1.503 0.464-4.445 1.216-7.726 1.216z"/>
  </symbol>
  <symbol id="vcard">
    <path d="M11 8h-7v8h7v-8zM10 14.501c0-0.828-1.119-1.499-2.5-1.499s-2.5 0.671-2.5 1.499v-5.501h5v5.501zM6 11.502c0 0.828 0.672 1.5 1.5 1.5s1.5-0.672 1.5-1.5c0-0.828-0.672-1.5-1.5-1.5s-1.5 0.672-1.5 1.5zM21.929 4h-20c-1.105 0-1.929 0.807-1.929 1.91v12c0 1.106 0.824 2.090 1.929 2.090h20c1.104 0 2.071-0.984 2.071-2.090v-12c0-1.103-0.967-1.91-2.071-1.91zM22 18h-20v-12h20v12zM13 8h7v2h-7zM13 11h7v1h-7zM13 13h7v1h-7zM13 15h3v1h-3zM16.998 15h1.002v1.002h-1.002z"/>
  </symbol>
  <symbol id="vol_d">
    <path d="M11.768 1l-4 5h-4c-1.655 0-2.768 1.596-2.768 3.25v5.75c0 1.654 1.113 3 2.768 3h4l4 5c1 0 2.232 0 2.232 0v-22c-1 0-1.232 0-2.232 0zM7 16h-3.232c-0.553 0-0.768-0.449-0.768-1v-5.75c0-0.551 0.215-1.25 0.768-1.25h3.232v8zM12 20l-4-4v-8l4-4v16zM17 11h6v2h-6z"/>
  </symbol>
  <symbol id="vol_i">
    <path d="M11.768 1l-4 5h-4c-1.655 0-2.768 1.596-2.768 3.25v5.75c0 1.654 1.113 3 2.768 3h4l4 5c1 0 2.232 0 2.232 0v-22c-1 0-1.232 0-2.232 0zM7 16h-3.232c-0.553 0-0.768-0.449-0.768-1v-5.75c0-0.551 0.215-1.25 0.768-1.25h3.232v8zM12 20l-4-4v-8l4-4v16zM23 11h-2v-2h-2v2h-2v2h2v2h2v-2h2z"/>
  </symbol>
  <symbol id="vol_n">
    <path d="M12.768 1l-4 5h-4c-1.655 0-2.768 1.596-2.768 3.25v5.75c0 1.654 1.113 3 2.768 3h4l4 5c1 0 2.232 0 2.232 0v-22c-1 0-1.232 0-2.232 0zM8 16h-3.232c-0.553 0-0.768-0.449-0.768-1v-5.75c0-0.551 0.215-1.25 0.768-1.25h3.232v8zM13 20l-4-4v-8l4-4v16zM17 7v2.083c2 0.415 2 1.515 2 2.815 0 1.303 0 2.402-2 2.816v2.083c3-0.465 4-2.484 4-4.899 0-2.414-1-4.433-4-4.898z"/>
  </symbol>
  <symbol id="wifi_ful">
    <path d="M6.984 15.918l1.416 1.416c0.922-0.922 2.195-1.494 3.6-1.494s2.678 0.572 3.6 1.494l1.416-1.416c-1.284-1.283-3.057-2.078-5.016-2.078s-3.732 0.795-5.016 2.078zM3.758 12.691l1.418 1.418c1.748-1.749 4.162-2.832 6.824-2.832s5.076 1.083 6.824 2.832l1.418-1.418c-2.109-2.109-5.023-3.414-8.242-3.414s-6.133 1.305-8.242 3.414zM12 4.715c-4.479 0-8.533 1.815-11.469 4.751l1.419 1.419c2.575-2.575 6.13-4.17 10.050-4.17s7.475 1.595 10.050 4.17l1.419-1.419c-2.936-2.936-6.99-4.751-11.469-4.751zM12 18c-0.828 0-1.5 0.672-1.5 1.5s0.672 1.5 1.5 1.5 1.5-0.672 1.5-1.5-0.672-1.5-1.5-1.5z"/>
  </symbol>
  <symbol id="wifi_mid">
    <path d="M6.984 12.918l1.416 1.416c0.922-0.922 2.195-1.494 3.6-1.494s2.678 0.572 3.6 1.494l1.416-1.416c-1.284-1.284-3.057-2.078-5.016-2.078s-3.732 0.794-5.016 2.078zM12 6.277c-3.219 0-6.133 1.305-8.242 3.414l1.418 1.418c1.748-1.749 4.162-2.832 6.824-2.832s5.076 1.083 6.824 2.832l1.418-1.418c-2.109-2.109-5.023-3.414-8.242-3.414zM12 15c-0.828 0-1.5 0.672-1.5 1.5s0.672 1.5 1.5 1.5 1.5-0.672 1.5-1.5-0.672-1.5-1.5-1.5z"/>
  </symbol>
  <symbol id="window">
    <path d="M0 1v22h24v-22h-24zM22 21h-20v-13h20v13zM22 7h-20v-4h20v4zM11 4h-2v2h2v-2zM8 4h-2v2h2v-2zM5 4h-2v2h2v-2zM9.025 17.889l2.475-2.475 2.475 2.475 1.414-1.414-2.475-2.475 2.475-2.475-1.414-1.414-2.475 2.475-2.475-2.475-1.414 1.414 2.475 2.475-2.475 2.475 1.414 1.414z"/>
  </symbol>
  <symbol id="zoom">
    <path d="M0.793 21.168l1.414 1.414 4.385-4.385-1.377-1.451-4.422 4.422zM14.125 1c-4.9 0-8.875 3.974-8.875 8.875 0 1.919 0.617 3.69 1.652 5.143l1.67 1.76c1.521 1.227 3.447 1.973 5.553 1.973 4.902 0 8.875-3.974 8.875-8.875s-3.973-8.876-8.875-8.876zM14.125 16.75c-3.791 0-6.875-3.084-6.875-6.875s3.084-6.875 6.875-6.875 6.875 3.084 6.875 6.875-3.084 6.875-6.875 6.875z"/>
  </symbol>
  <symbol id="zoom_in">
    <path d="M0.793 21.168l1.414 1.414 4.385-4.385-1.377-1.451-4.422 4.422zM14.125 1c-4.901 0-8.875 3.974-8.875 8.875 0 1.919 0.617 3.69 1.652 5.143l1.67 1.76c1.521 1.227 3.446 1.973 5.553 1.973 4.901 0 8.875-3.974 8.875-8.875s-3.974-8.876-8.875-8.876zM14.125 16.75c-3.791 0-6.875-3.084-6.875-6.875s3.084-6.875 6.875-6.875 6.875 3.084 6.875 6.875-3.084 6.875-6.875 6.875zM15.022 7h-2v2h-2v2h2v2h2v-2h2v-2h-2v-2z"/>
  </symbol>
  <symbol id="zoom_out">
    <path d="M0.793 21.168l1.414 1.414 4.385-4.385-1.377-1.451-4.422 4.422zM14.125 1c-4.901 0-8.875 3.974-8.875 8.875 0 1.919 0.617 3.69 1.652 5.143l1.67 1.76c1.521 1.227 3.446 1.973 5.553 1.973 4.901 0 8.875-3.974 8.875-8.875s-3.974-8.876-8.875-8.876zM14.125 16.75c-3.791 0-6.875-3.084-6.875-6.875s3.084-6.875 6.875-6.875 6.875 3.084 6.875 6.875-3.084 6.875-6.875 6.875zM10.998 9.002h6v2h-6z"/>
  </symbol>
</svg>