<?xml version="1.0" encoding="UTF-8" standalone="yes"?>
<svg viewBox="0 0 24 24" xmlns="http://www.w3.org/2000/svg">
  <symbol id="alarm">
    <path fill="#000000" d="M16.8 15.101c-1.144-0.859-1.8-2.172-1.8-3.601v-3c0-2.513-1.694-4.638-4-5.292l-0-0.708c0-0.827-0.673-1.5-1.5-1.5s-1.5 0.673-1.5 1.5v0.708c-2.306 0.655-4 2.779-4 5.292v3c0 1.429-0.656 2.741-1.8 3.601-0.172 0.129-0.242 0.354-0.174 0.558s0.259 0.342 0.474 0.342h4.55c-0.033 0.164-0.051 0.331-0.051 0.5 0 1.378 1.122 2.5 2.5 2.5s2.5-1.122 2.5-2.5c0-0.168-0.017-0.336-0.050-0.5h4.55c0.215 0 0.406-0.138 0.474-0.342s-0.002-0.429-0.174-0.558zM9 2.5c0-0.276 0.224-0.5 0.5-0.5s0.5 0.224 0.5 0.5v0.523c-0.165-0.015-0.331-0.023-0.5-0.023s-0.335 0.008-0.5 0.023v-0.523zM11 16.5c0 0.827-0.673 1.5-1.5 1.5s-1.5-0.673-1.5-1.5c0-0.171 0.030-0.34 0.086-0.5h2.828c0.056 0.16 0.086 0.329 0.086 0.5zM3.742 15c0.255-0.309 0.477-0.646 0.659-1.001 0.398-0.778 0.599-1.619 0.599-2.499v-3c0-2.481 2.019-4.5 4.5-4.5s4.5 2.019 4.5 4.5v3c0 0.88 0.202 1.721 0.599 2.499 0.182 0.356 0.404 0.692 0.659 1.001h-11.517z"/>
  </symbol>
  <symbol id="apartment">
    <path fill="#000000" d="M14 6h1v1h-1v-1z"/>
    <path fill="#000000" d="M14 8h1v1h-1v-1z"/>
    <path fill="#000000" d="M14 10h1v1h-1v-1z"/>
    <path fill="#000000" d="M14 12h1v1h-1v-1z"/>
    <path fill="#000000" d="M14 16h1v1h-1v-1z"/>
    <path fill="#000000" d="M14 14h1v1h-1v-1z"/>
    <path fill="#000000" d="M6 6h1v1h-1v-1z"/>
    <path fill="#000000" d="M6 8h1v1h-1v-1z"/>
    <path fill="#000000" d="M6 10h1v1h-1v-1z"/>
    <path fill="#000000" d="M6 12h1v1h-1v-1z"/>
    <path fill="#000000" d="M6 16h1v1h-1v-1z"/>
    <path fill="#000000" d="M6 14h1v1h-1v-1z"/>
    <path fill="#000000" d="M4 6h1v1h-1v-1z"/>
    <path fill="#000000" d="M4 8h1v1h-1v-1z"/>
    <path fill="#000000" d="M4 10h1v1h-1v-1z"/>
    <path fill="#000000" d="M4 12h1v1h-1v-1z"/>
    <path fill="#000000" d="M4 16h1v1h-1v-1z"/>
    <path fill="#000000" d="M4 14h1v1h-1v-1z"/>
    <path fill="#000000" d="M8 6h1v1h-1v-1z"/>
    <path fill="#000000" d="M8 8h1v1h-1v-1z"/>
    <path fill="#000000" d="M8 10h1v1h-1v-1z"/>
    <path fill="#000000" d="M8 12h1v1h-1v-1z"/>
    <path fill="#000000" d="M8 16h1v1h-1v-1z"/>
    <path fill="#000000" d="M8 14h1v1h-1v-1z"/>
    <path fill="#000000" d="M18.5 19h-0.5v-13.5c0-0.763-0.567-1.549-1.291-1.791l-4.709-1.57v-1.64c0-0.158-0.075-0.307-0.202-0.401s-0.291-0.123-0.442-0.078l-9.042 2.713c-0.737 0.221-1.314 0.997-1.314 1.766v14.5h-0.5c-0.276 0-0.5 0.224-0.5 0.5s0.224 0.5 0.5 0.5h18c0.276 0 0.5-0.224 0.5-0.5s-0.224-0.5-0.5-0.5zM16.393 4.658c0.318 0.106 0.607 0.507 0.607 0.842v13.5h-5v-15.806l4.393 1.464zM2 4.5c0-0.329 0.287-0.714 0.602-0.808l8.398-2.52v17.828h-9v-14.5z"/>
  </symbol>
  <symbol id="arr_a_down">
    <path fill="#000000" d="M9.854 19.354l6-6c0.195-0.195 0.195-0.512 0-0.707s-0.512-0.195-0.707 0l-5.146 5.146v-16.293c0-0.276-0.224-0.5-0.5-0.5s-0.5 0.224-0.5 0.5v16.293l-5.146-5.146c-0.195-0.195-0.512-0.195-0.707 0-0.098 0.098-0.146 0.226-0.146 0.354s0.049 0.256 0.146 0.354l6 6c0.195 0.195 0.512 0.195 0.707 0z"/>
  </symbol>
  <symbol id="arr_a_left">
    <path fill="#000000" d="M0.646 10.146l6-6c0.195-0.195 0.512-0.195 0.707 0s0.195 0.512 0 0.707l-5.146 5.146h16.293c0.276 0 0.5 0.224 0.5 0.5s-0.224 0.5-0.5 0.5h-16.293l5.146 5.146c0.195 0.195 0.195 0.512 0 0.707-0.098 0.098-0.226 0.146-0.354 0.146s-0.256-0.049-0.354-0.146l-6-6c-0.195-0.195-0.195-0.512 0-0.707z"/>
  </symbol>
  <symbol id="arr_a_right">
    <path fill="#000000" d="M19.354 10.146l-6-6c-0.195-0.195-0.512-0.195-0.707 0s-0.195 0.512 0 0.707l5.146 5.146h-16.293c-0.276 0-0.5 0.224-0.5 0.5s0.224 0.5 0.5 0.5h16.293l-5.146 5.146c-0.195 0.195-0.195 0.512 0 0.707 0.098 0.098 0.226 0.146 0.354 0.146s0.256-0.049 0.354-0.146l6-6c0.195-0.195 0.195-0.512 0-0.707z"/>
  </symbol>
  <symbol id="arr_a_up">
    <path fill="#000000" d="M9.146 0.646l-6 6c-0.195 0.195-0.195 0.512 0 0.707s0.512 0.195 0.707 0l5.146-5.146v16.293c0 0.276 0.224 0.5 0.5 0.5s0.5-0.224 0.5-0.5v-16.293l5.146 5.146c0.195 0.195 0.512 0.195 0.707 0 0.098-0.098 0.146-0.226 0.146-0.354s-0.049-0.256-0.146-0.354l-6-6c-0.195-0.195-0.512-0.195-0.707 0z"/>
  </symbol>
  <symbol id="arr_b_down">
    <path fill="#000000" d="M16.218 17.218c1.794-1.794 2.782-4.18 2.782-6.718s-0.988-4.923-2.782-6.717-4.18-2.782-6.718-2.782-4.923 0.988-6.718 2.782-2.782 4.18-2.782 6.717 0.988 4.923 2.782 6.718 4.18 2.782 6.718 2.782 4.923-0.988 6.718-2.782zM1 10.5c0-4.687 3.813-8.5 8.5-8.5s8.5 3.813 8.5 8.5c0 4.687-3.813 8.5-8.5 8.5s-8.5-3.813-8.5-8.5z"/>
    <path fill="#000000" d="M4 9c0-0.128 0.049-0.256 0.146-0.354 0.195-0.195 0.512-0.195 0.707 0l4.646 4.646 4.646-4.646c0.195-0.195 0.512-0.195 0.707 0s0.195 0.512 0 0.707l-5 5c-0.195 0.195-0.512 0.195-0.707 0l-5-5c-0.098-0.098-0.146-0.226-0.146-0.354z"/>
  </symbol>
  <symbol id="arr_b_left">
    <path fill="#000000" d="M2.782 3.782c1.794-1.794 4.18-2.782 6.718-2.782s4.923 0.988 6.718 2.782 2.782 4.18 2.782 6.717-0.988 4.923-2.782 6.718-4.18 2.782-6.718 2.782-4.923-0.988-6.718-2.782-2.782-4.18-2.782-6.718 0.988-4.923 2.782-6.717zM9.5 19c4.687 0 8.5-3.813 8.5-8.5s-3.813-8.5-8.5-8.5c-4.687 0-8.5 3.813-8.5 8.5s3.813 8.5 8.5 8.5z"/>
    <path fill="#000000" d="M11 16c0.128 0 0.256-0.049 0.354-0.146 0.195-0.195 0.195-0.512 0-0.707l-4.646-4.646 4.646-4.646c0.195-0.195 0.195-0.512 0-0.707s-0.512-0.195-0.707 0l-5 5c-0.195 0.195-0.195 0.512 0 0.707l5 5c0.098 0.098 0.226 0.146 0.354 0.146z"/>
  </symbol>
  <symbol id="arr_b_right">
    <path fill="#000000" d="M16.218 3.782c-1.794-1.794-4.18-2.782-6.718-2.782s-4.923 0.988-6.718 2.782-2.782 4.18-2.782 6.717 0.988 4.923 2.782 6.718 4.18 2.782 6.718 2.782 4.923-0.988 6.718-2.782 2.782-4.18 2.782-6.718-0.988-4.923-2.782-6.717zM9.5 19c-4.687 0-8.5-3.813-8.5-8.5s3.813-8.5 8.5-8.5c4.687 0 8.5 3.813 8.5 8.5s-3.813 8.5-8.5 8.5z"/>
    <path fill="#000000" d="M8 16c-0.128 0-0.256-0.049-0.354-0.146-0.195-0.195-0.195-0.512 0-0.707l4.646-4.646-4.646-4.646c-0.195-0.195-0.195-0.512 0-0.707s0.512-0.195 0.707 0l5 5c0.195 0.195 0.195 0.512 0 0.707l-5 5c-0.098 0.098-0.226 0.146-0.354 0.146z"/>
  </symbol>
  <symbol id="arr_b_up">
    <path fill="#000000" d="M2.782 3.782c-1.794 1.794-2.782 4.18-2.782 6.718s0.988 4.923 2.782 6.718 4.18 2.782 6.718 2.782 4.923-0.988 6.718-2.782 2.782-4.18 2.782-6.717-0.988-4.923-2.782-6.718-4.18-2.782-6.718-2.782-4.923 0.988-6.718 2.782zM18 10.5c0 4.687-3.813 8.5-8.5 8.5s-8.5-3.813-8.5-8.5c0-4.687 3.813-8.5 8.5-8.5s8.5 3.813 8.5 8.5z"/>
    <path fill="#000000" d="M15 12c0 0.128-0.049 0.256-0.146 0.354-0.195 0.195-0.512 0.195-0.707 0l-4.646-4.646-4.646 4.646c-0.195 0.195-0.512 0.195-0.707 0s-0.195-0.512 0-0.707l5-5c0.195-0.195 0.512-0.195 0.707 0l5 5c0.098 0.098 0.146 0.226 0.146 0.354z"/>
  </symbol>
  <symbol id="arr_c_down">
    <path fill="#000000" d="M16.218 17.218c1.794-1.794 2.782-4.18 2.782-6.718s-0.988-4.923-2.782-6.717-4.18-2.782-6.718-2.782-4.923 0.988-6.718 2.782-2.782 4.18-2.782 6.717 0.988 4.923 2.782 6.718 4.18 2.782 6.718 2.782 4.923-0.988 6.718-2.782zM1 10.5c0-4.687 3.813-8.5 8.5-8.5s8.5 3.813 8.5 8.5c0 4.687-3.813 8.5-8.5 8.5s-8.5-3.813-8.5-8.5z"/>
    <path fill="#000000" d="M9.853 16.353l4-4c0.195-0.195 0.195-0.512 0-0.707s-0.512-0.195-0.707 0l-3.146 3.147v-10.293c0-0.276-0.224-0.5-0.5-0.5s-0.5 0.224-0.5 0.5v10.293l-3.147-3.146c-0.195-0.195-0.512-0.195-0.707 0-0.098 0.098-0.146 0.226-0.146 0.353s0.049 0.256 0.147 0.353l4 4c0.195 0.195 0.512 0.195 0.707 0z"/>
  </symbol>
  <symbol id="arr_c_left">
    <path fill="#000000" d="M2.782 3.782c1.794-1.794 4.18-2.782 6.718-2.782s4.923 0.988 6.718 2.782 2.782 4.18 2.782 6.717-0.988 4.923-2.782 6.718-4.18 2.782-6.718 2.782-4.923-0.988-6.718-2.782-2.782-4.18-2.782-6.718 0.988-4.923 2.782-6.717zM9.5 19c4.687 0 8.5-3.813 8.5-8.5s-3.813-8.5-8.5-8.5c-4.687 0-8.5 3.813-8.5 8.5s3.813 8.5 8.5 8.5z"/>
    <path fill="#000000" d="M3.647 10.147l4-4c0.195-0.195 0.512-0.195 0.707 0s0.195 0.512 0 0.707l-3.147 3.146h10.293c0.276 0 0.5 0.224 0.5 0.5s-0.224 0.5-0.5 0.5h-10.293l3.146 3.147c0.195 0.195 0.195 0.512 0 0.707-0.098 0.098-0.226 0.146-0.353 0.146s-0.256-0.049-0.353-0.147l-4-4c-0.195-0.195-0.195-0.512 0-0.707z"/>
  </symbol>
  <symbol id="arr_c_right">
    <path fill="#000000" d="M16.218 3.782c-1.794-1.794-4.18-2.782-6.718-2.782s-4.923 0.988-6.718 2.782-2.782 4.18-2.782 6.717 0.988 4.923 2.782 6.718 4.18 2.782 6.718 2.782 4.923-0.988 6.718-2.782 2.782-4.18 2.782-6.718-0.988-4.923-2.782-6.717zM9.5 19c-4.687 0-8.5-3.813-8.5-8.5s3.813-8.5 8.5-8.5c4.687 0 8.5 3.813 8.5 8.5s-3.813 8.5-8.5 8.5z"/>
    <path fill="#000000" d="M15.353 10.147l-4-4c-0.195-0.195-0.512-0.195-0.707 0s-0.195 0.512 0 0.707l3.147 3.146h-10.293c-0.276 0-0.5 0.224-0.5 0.5s0.224 0.5 0.5 0.5h10.293l-3.146 3.147c-0.195 0.195-0.195 0.512 0 0.707 0.098 0.098 0.226 0.146 0.353 0.146s0.256-0.049 0.353-0.147l4-4c0.195-0.195 0.195-0.512 0-0.707z"/>
  </symbol>
  <symbol id="arr_c_up">
    <path fill="#000000" d="M2.782 3.782c-1.794 1.794-2.782 4.18-2.782 6.718s0.988 4.923 2.782 6.718 4.18 2.782 6.718 2.782 4.923-0.988 6.718-2.782 2.782-4.18 2.782-6.717-0.988-4.923-2.782-6.718-4.18-2.782-6.718-2.782-4.923 0.988-6.718 2.782zM18 10.5c0 4.687-3.813 8.5-8.5 8.5s-8.5-3.813-8.5-8.5c0-4.687 3.813-8.5 8.5-8.5s8.5 3.813 8.5 8.5z"/>
    <path fill="#000000" d="M9.147 4.647l-4 4c-0.195 0.195-0.195 0.512 0 0.707s0.512 0.195 0.707 0l3.146-3.147v10.293c0 0.276 0.224 0.5 0.5 0.5s0.5-0.224 0.5-0.5v-10.293l3.147 3.146c0.195 0.195 0.512 0.195 0.707 0 0.098-0.098 0.146-0.226 0.146-0.353s-0.049-0.256-0.147-0.353l-4-4c-0.195-0.195-0.512-0.195-0.707 0z"/>
  </symbol>
  <symbol id="arr_d_down">
    <path fill="#000000" d="M0 6c0-0.128 0.049-0.256 0.146-0.354 0.195-0.195 0.512-0.195 0.707 0l8.646 8.646 8.646-8.646c0.195-0.195 0.512-0.195 0.707 0s0.195 0.512 0 0.707l-9 9c-0.195 0.195-0.512 0.195-0.707 0l-9-9c-0.098-0.098-0.146-0.226-0.146-0.354z"/>
  </symbol>
  <symbol id="arr_d_left">
    <path fill="#000000" d="M14 20c0.128 0 0.256-0.049 0.354-0.146 0.195-0.195 0.195-0.512 0-0.707l-8.646-8.646 8.646-8.646c0.195-0.195 0.195-0.512 0-0.707s-0.512-0.195-0.707 0l-9 9c-0.195 0.195-0.195 0.512 0 0.707l9 9c0.098 0.098 0.226 0.146 0.354 0.146z"/>
  </symbol>
  <symbol id="arr_d_right">
    <path fill="#000000" d="M5 20c-0.128 0-0.256-0.049-0.354-0.146-0.195-0.195-0.195-0.512 0-0.707l8.646-8.646-8.646-8.646c-0.195-0.195-0.195-0.512 0-0.707s0.512-0.195 0.707 0l9 9c0.195 0.195 0.195 0.512 0 0.707l-9 9c-0.098 0.098-0.226 0.146-0.354 0.146z"/>
  </symbol>
  <symbol id="arr_d_up">
    <path fill="#000000" d="M0 15c0 0.128 0.049 0.256 0.146 0.354 0.195 0.195 0.512 0.195 0.707 0l8.646-8.646 8.646 8.646c0.195 0.195 0.512 0.195 0.707 0s0.195-0.512 0-0.707l-9-9c-0.195-0.195-0.512-0.195-0.707 0l-9 9c-0.098 0.098-0.146 0.226-0.146 0.354z"/>
  </symbol>
  <symbol id="bf">
    <path fill="#000000" d="M18.5 5h-4.5v-1.5c0-0.827-0.673-1.5-1.5-1.5h-5c-0.827 0-1.5 0.673-1.5 1.5v1.5h-4.5c-0.827 0-1.5 0.673-1.5 1.5v11c0 0.827 0.673 1.5 1.5 1.5h17c0.827 0 1.5-0.673 1.5-1.5v-11c0-0.827-0.673-1.5-1.5-1.5zM7 3.5c0-0.276 0.224-0.5 0.5-0.5h5c0.276 0 0.5 0.224 0.5 0.5v1.5h-6v-1.5zM1.5 6h17c0.276 0 0.5 0.224 0.5 0.5v7.5h-2v-0.5c0-0.276-0.224-0.5-0.5-0.5h-2c-0.276 0-0.5 0.224-0.5 0.5v0.5h-8v-0.5c0-0.276-0.224-0.5-0.5-0.5h-2c-0.276 0-0.5 0.224-0.5 0.5v0.5h-2v-7.5c0-0.276 0.224-0.5 0.5-0.5zM16 14v1h-1v-1h1zM5 14v1h-1v-1h1zM18.5 18h-17c-0.276 0-0.5-0.224-0.5-0.5v-2.5h2v0.5c0 0.276 0.224 0.5 0.5 0.5h2c0.276 0 0.5-0.224 0.5-0.5v-0.5h8v0.5c0 0.276 0.224 0.5 0.5 0.5h2c0.276 0 0.5-0.224 0.5-0.5v-0.5h2v2.5c0 0.276-0.224 0.5-0.5 0.5z"/>
  </symbol>
  <symbol id="bk">
    <path fill="#000000" d="M14.5 18h-10c-0.276 0-0.5-0.224-0.5-0.5s0.224-0.5 0.5-0.5h10c0.276 0 0.5 0.224 0.5 0.5s-0.224 0.5-0.5 0.5z"/>
    <path fill="#000000" d="M16.5 3c-0.276 0-0.5 0.224-0.5 0.5v15c0 0.276-0.224 0.5-0.5 0.5h-11c-0.827 0-1.5-0.673-1.5-1.5s0.673-1.5 1.5-1.5h9c0.827 0 1.5-0.673 1.5-1.5v-12c0-0.827-0.673-1.5-1.5-1.5h-10c-0.827 0-1.5 0.673-1.5 1.5v15c0 1.378 1.122 2.5 2.5 2.5h11c0.827 0 1.5-0.673 1.5-1.5v-15c0-0.276-0.224-0.5-0.5-0.5zM3.5 2h10c0.276 0 0.5 0.224 0.5 0.5v12c0 0.276-0.224 0.5-0.5 0.5h-9c-0.562 0-1.082 0.187-1.5 0.501v-13.001c0-0.276 0.224-0.5 0.5-0.5z"/>
  </symbol>
  <symbol id="bm">
    <path fill="#000000" d="M15.5 20c-0.143 0-0.283-0.062-0.38-0.175l-5.62-6.557-5.62 6.557c-0.136 0.159-0.357 0.216-0.553 0.144s-0.327-0.26-0.327-0.469v-18c0-0.276 0.224-0.5 0.5-0.5h12c0.276 0 0.5 0.224 0.5 0.5v18c0 0.209-0.13 0.396-0.327 0.469-0.057 0.021-0.115 0.031-0.173 0.031zM9.5 12c0.146 0 0.285 0.064 0.38 0.175l5.12 5.974v-16.148h-11v16.148l5.12-5.974c0.095-0.111 0.234-0.175 0.38-0.175z"/>
  </symbol>
  <symbol id="bu">
    <path fill="#000000" d="M0.5 19c-0.225 0-0.422-0.15-0.482-0.367s0.032-0.447 0.225-0.562c1.691-1.014 2.392-2.489 2.641-3.179-1.838-1.407-2.884-3.354-2.884-5.392 0-1.029 0.258-2.026 0.768-2.964 0.486-0.894 1.18-1.695 2.061-2.381 1.787-1.39 4.156-2.156 6.671-2.156s4.884 0.766 6.671 2.156c0.881 0.685 1.575 1.486 2.061 2.381 0.51 0.937 0.768 1.934 0.768 2.964s-0.258 2.026-0.768 2.964c-0.486 0.894-1.18 1.695-2.061 2.381-1.787 1.39-4.156 2.156-6.671 2.156-1.033 0-2.047-0.129-3.016-0.385-0.429 0.286-1.231 0.793-2.189 1.27-1.488 0.74-2.764 1.115-3.794 1.115zM9.5 3c-4.687 0-8.5 2.916-8.5 6.5 0 1.815 1.005 3.562 2.756 4.792 0.172 0.121 0.25 0.336 0.196 0.539-0.117 0.436-0.515 1.633-1.58 2.788 1.302-0.456 2.704-1.247 3.739-1.959 0.123-0.085 0.277-0.11 0.421-0.069 0.948 0.271 1.947 0.409 2.968 0.409 4.687 0 8.5-2.916 8.5-6.5s-3.813-6.5-8.5-6.5z"/>
  </symbol>
  <symbol id="bus">
    <path fill="#000000" d="M5.5 16c-0.827 0-1.5-0.673-1.5-1.5s0.673-1.5 1.5-1.5 1.5 0.673 1.5 1.5-0.673 1.5-1.5 1.5zM5.5 14c-0.276 0-0.5 0.224-0.5 0.5s0.224 0.5 0.5 0.5 0.5-0.224 0.5-0.5-0.224-0.5-0.5-0.5z"/>
    <path fill="#000000" d="M14.5 16c-0.827 0-1.5-0.673-1.5-1.5s0.673-1.5 1.5-1.5 1.5 0.673 1.5 1.5-0.673 1.5-1.5 1.5zM14.5 14c-0.276 0-0.5 0.224-0.5 0.5s0.224 0.5 0.5 0.5 0.5-0.224 0.5-0.5-0.224-0.5-0.5-0.5z"/>
    <path fill="#000000" d="M13.5 5h-7c-0.276 0-0.5-0.224-0.5-0.5s0.224-0.5 0.5-0.5h7c0.276 0 0.5 0.224 0.5 0.5s-0.224 0.5-0.5 0.5z"/>
    <path fill="#000000" d="M15.5 6h-11c-0.276 0-0.5 0.224-0.5 0.5v5c0 0.276 0.224 0.5 0.5 0.5h4.998c0.001 0 0.001 0 0.002 0s0.001-0 0.002-0h4.996c0.001 0 0.001 0 0.002 0s0.001-0 0.002-0h0.998c0.276 0 0.5-0.224 0.5-0.5v-5c0-0.276-0.224-0.5-0.5-0.5zM5 7h10v4h-0.349l-2.874-1.916c-0.23-0.153-0.54-0.091-0.693 0.139s-0.091 0.54 0.139 0.693l1.626 1.084h-3.197l-2.874-1.916c-0.23-0.153-0.54-0.091-0.693 0.139s-0.091 0.54 0.139 0.693l1.626 1.084h-2.849v-4z"/>
    <path fill="#000000" d="M15.616 1.783c-1.363-0.519-3.253-0.783-5.616-0.783s-4.252 0.263-5.616 0.783c-1.971 0.751-2.384 1.892-2.384 2.717v11c0 1.207 0.86 2.217 2 2.45v1.050c0 0.551 0.449 1 1 1h1c0.551 0 1-0.449 1-1v-1h6v1c0 0.551 0.449 1 1 1h1c0.551 0 1-0.449 1-1v-1.050c1.14-0.232 2-1.242 2-2.45v-11c0-0.825-0.414-1.966-2.384-2.717zM6 19h-1v-1h1v1zM14 19v-1h1v1h-1zM17 15.5c0 0.827-0.673 1.5-1.5 1.5h-11c-0.827 0-1.5-0.673-1.5-1.5v-11c0-0.743 0.586-1.343 1.741-1.783 1.232-0.469 3.050-0.717 5.259-0.717s4.028 0.248 5.259 0.717c1.155 0.44 1.741 1.040 1.741 1.783v11z"/>
  </symbol>
  <symbol id="cal">
    <path fill="#000000" d="M18.5 2h-2.5v-0.5c0-0.276-0.224-0.5-0.5-0.5s-0.5 0.224-0.5 0.5v0.5h-10v-0.5c0-0.276-0.224-0.5-0.5-0.5s-0.5 0.224-0.5 0.5v0.5h-2.5c-0.827 0-1.5 0.673-1.5 1.5v14c0 0.827 0.673 1.5 1.5 1.5h17c0.827 0 1.5-0.673 1.5-1.5v-14c0-0.827-0.673-1.5-1.5-1.5zM1.5 3h2.5v1.5c0 0.276 0.224 0.5 0.5 0.5s0.5-0.224 0.5-0.5v-1.5h10v1.5c0 0.276 0.224 0.5 0.5 0.5s0.5-0.224 0.5-0.5v-1.5h2.5c0.276 0 0.5 0.224 0.5 0.5v2.5h-18v-2.5c0-0.276 0.224-0.5 0.5-0.5zM18.5 18h-17c-0.276 0-0.5-0.224-0.5-0.5v-10.5h18v10.5c0 0.276-0.224 0.5-0.5 0.5z"/>
    <path fill="#000000" d="M7.5 10h-1c-0.276 0-0.5-0.224-0.5-0.5s0.224-0.5 0.5-0.5h1c0.276 0 0.5 0.224 0.5 0.5s-0.224 0.5-0.5 0.5z"/>
    <path fill="#000000" d="M10.5 10h-1c-0.276 0-0.5-0.224-0.5-0.5s0.224-0.5 0.5-0.5h1c0.276 0 0.5 0.224 0.5 0.5s-0.224 0.5-0.5 0.5z"/>
    <path fill="#000000" d="M13.5 10h-1c-0.276 0-0.5-0.224-0.5-0.5s0.224-0.5 0.5-0.5h1c0.276 0 0.5 0.224 0.5 0.5s-0.224 0.5-0.5 0.5z"/>
    <path fill="#000000" d="M16.5 10h-1c-0.276 0-0.5-0.224-0.5-0.5s0.224-0.5 0.5-0.5h1c0.276 0 0.5 0.224 0.5 0.5s-0.224 0.5-0.5 0.5z"/>
    <path fill="#000000" d="M4.5 12h-1c-0.276 0-0.5-0.224-0.5-0.5s0.224-0.5 0.5-0.5h1c0.276 0 0.5 0.224 0.5 0.5s-0.224 0.5-0.5 0.5z"/>
    <path fill="#000000" d="M7.5 12h-1c-0.276 0-0.5-0.224-0.5-0.5s0.224-0.5 0.5-0.5h1c0.276 0 0.5 0.224 0.5 0.5s-0.224 0.5-0.5 0.5z"/>
    <path fill="#000000" d="M10.5 12h-1c-0.276 0-0.5-0.224-0.5-0.5s0.224-0.5 0.5-0.5h1c0.276 0 0.5 0.224 0.5 0.5s-0.224 0.5-0.5 0.5z"/>
    <path fill="#000000" d="M13.5 12h-1c-0.276 0-0.5-0.224-0.5-0.5s0.224-0.5 0.5-0.5h1c0.276 0 0.5 0.224 0.5 0.5s-0.224 0.5-0.5 0.5z"/>
    <path fill="#000000" d="M16.5 12h-1c-0.276 0-0.5-0.224-0.5-0.5s0.224-0.5 0.5-0.5h1c0.276 0 0.5 0.224 0.5 0.5s-0.224 0.5-0.5 0.5z"/>
    <path fill="#000000" d="M4.5 14h-1c-0.276 0-0.5-0.224-0.5-0.5s0.224-0.5 0.5-0.5h1c0.276 0 0.5 0.224 0.5 0.5s-0.224 0.5-0.5 0.5z"/>
    <path fill="#000000" d="M7.5 14h-1c-0.276 0-0.5-0.224-0.5-0.5s0.224-0.5 0.5-0.5h1c0.276 0 0.5 0.224 0.5 0.5s-0.224 0.5-0.5 0.5z"/>
    <path fill="#000000" d="M10.5 14h-1c-0.276 0-0.5-0.224-0.5-0.5s0.224-0.5 0.5-0.5h1c0.276 0 0.5 0.224 0.5 0.5s-0.224 0.5-0.5 0.5z"/>
    <path fill="#000000" d="M13.5 14h-1c-0.276 0-0.5-0.224-0.5-0.5s0.224-0.5 0.5-0.5h1c0.276 0 0.5 0.224 0.5 0.5s-0.224 0.5-0.5 0.5z"/>
    <path fill="#000000" d="M16.5 14h-1c-0.276 0-0.5-0.224-0.5-0.5s0.224-0.5 0.5-0.5h1c0.276 0 0.5 0.224 0.5 0.5s-0.224 0.5-0.5 0.5z"/>
    <path fill="#000000" d="M4.5 16h-1c-0.276 0-0.5-0.224-0.5-0.5s0.224-0.5 0.5-0.5h1c0.276 0 0.5 0.224 0.5 0.5s-0.224 0.5-0.5 0.5z"/>
    <path fill="#000000" d="M7.5 16h-1c-0.276 0-0.5-0.224-0.5-0.5s0.224-0.5 0.5-0.5h1c0.276 0 0.5 0.224 0.5 0.5s-0.224 0.5-0.5 0.5z"/>
    <path fill="#000000" d="M10.5 16h-1c-0.276 0-0.5-0.224-0.5-0.5s0.224-0.5 0.5-0.5h1c0.276 0 0.5 0.224 0.5 0.5s-0.224 0.5-0.5 0.5z"/>
    <path fill="#000000" d="M13.5 16h-1c-0.276 0-0.5-0.224-0.5-0.5s0.224-0.5 0.5-0.5h1c0.276 0 0.5 0.224 0.5 0.5s-0.224 0.5-0.5 0.5z"/>
    <path fill="#000000" d="M16.5 16h-1c-0.276 0-0.5-0.224-0.5-0.5s0.224-0.5 0.5-0.5h1c0.276 0 0.5 0.224 0.5 0.5s-0.224 0.5-0.5 0.5z"/>
  </symbol>
  <symbol id="camera">
    <path fill="#000000" d="M9.5 15c-2.481 0-4.5-2.019-4.5-4.5s2.019-4.5 4.5-4.5c2.481 0 4.5 2.019 4.5 4.5s-2.019 4.5-4.5 4.5zM9.5 7c-1.93 0-3.5 1.57-3.5 3.5s1.57 3.5 3.5 3.5 3.5-1.57 3.5-3.5-1.57-3.5-3.5-3.5z"/>
    <path fill="#000000" d="M17.5 18h-16c-0.827 0-1.5-0.673-1.5-1.5v-10c0-0.827 0.673-1.5 1.5-1.5h1.5c0.415 0 1.060-0.267 1.354-0.561l0.586-0.586c0.487-0.487 1.373-0.854 2.061-0.854h5c0.688 0 1.574 0.367 2.061 0.854l0.586 0.586c0.293 0.293 0.939 0.561 1.354 0.561h1.5c0.827 0 1.5 0.673 1.5 1.5v10c0 0.827-0.673 1.5-1.5 1.5zM1.5 6c-0.276 0-0.5 0.224-0.5 0.5v10c0 0.276 0.224 0.5 0.5 0.5h16c0.276 0 0.5-0.224 0.5-0.5v-10c0-0.276-0.224-0.5-0.5-0.5h-1.5c-0.688 0-1.574-0.367-2.061-0.854l-0.586-0.586c-0.293-0.293-0.939-0.561-1.354-0.561h-5c-0.415 0-1.060 0.267-1.354 0.561l-0.586 0.586c-0.487 0.487-1.372 0.854-2.061 0.854h-1.5z"/>
  </symbol>
  <symbol id="cart">
    <path fill="#000000" d="M8 20c-1.103 0-2-0.897-2-2s0.897-2 2-2 2 0.897 2 2-0.897 2-2 2zM8 17c-0.551 0-1 0.449-1 1s0.449 1 1 1 1-0.449 1-1-0.449-1-1-1z"/>
    <path fill="#000000" d="M15 20c-1.103 0-2-0.897-2-2s0.897-2 2-2 2 0.897 2 2-0.897 2-2 2zM15 17c-0.551 0-1 0.449-1 1s0.449 1 1 1 1-0.449 1-1-0.449-1-1-1z"/>
    <path fill="#000000" d="M17.539 4.467c-0.251-0.297-0.63-0.467-1.039-0.467h-12.243l-0.099-0.596c-0.131-0.787-0.859-1.404-1.658-1.404h-1c-0.276 0-0.5 0.224-0.5 0.5s0.224 0.5 0.5 0.5h1c0.307 0 0.621 0.266 0.671 0.569l1.671 10.027c0.131 0.787 0.859 1.404 1.658 1.404h10c0.276 0 0.5-0.224 0.5-0.5s-0.224-0.5-0.5-0.5h-10c-0.307 0-0.621-0.266-0.671-0.569l-0.247-1.48 9.965-0.867c0.775-0.067 1.483-0.721 1.611-1.489l0.671-4.027c0.067-0.404-0.038-0.806-0.289-1.102zM16.842 5.404l-0.671 4.027c-0.053 0.316-0.391 0.629-0.711 0.657l-10.043 0.873-0.994-5.962h12.076c0.117 0 0.215 0.040 0.276 0.113s0.085 0.176 0.066 0.291z"/>
  </symbol>
  <symbol id="chart_b">
    <path fill="#000000" d="M17.5 20h-16c-0.827 0-1.5-0.673-1.5-1.5v-16c0-0.827 0.673-1.5 1.5-1.5h16c0.827 0 1.5 0.673 1.5 1.5v16c0 0.827-0.673 1.5-1.5 1.5zM1.5 2c-0.276 0-0.5 0.224-0.5 0.5v16c0 0.276 0.224 0.5 0.5 0.5h16c0.276 0 0.5-0.224 0.5-0.5v-16c0-0.276-0.224-0.5-0.5-0.5h-16z"/>
    <path fill="#000000" d="M6.5 17h-2c-0.276 0-0.5-0.224-0.5-0.5v-9c0-0.276 0.224-0.5 0.5-0.5h2c0.276 0 0.5 0.224 0.5 0.5v9c0 0.276-0.224 0.5-0.5 0.5zM5 16h1v-8h-1v8z"/>
    <path fill="#000000" d="M10.5 17h-2c-0.276 0-0.5-0.224-0.5-0.5v-12c0-0.276 0.224-0.5 0.5-0.5h2c0.276 0 0.5 0.224 0.5 0.5v12c0 0.276-0.224 0.5-0.5 0.5zM9 16h1v-11h-1v11z"/>
    <path fill="#000000" d="M14.5 17h-2c-0.276 0-0.5-0.224-0.5-0.5v-5c0-0.276 0.224-0.5 0.5-0.5h2c0.276 0 0.5 0.224 0.5 0.5v5c0 0.276-0.224 0.5-0.5 0.5zM13 16h1v-4h-1v4z"/>
  </symbol>
  <symbol id="chart_p">
    <path fill="#000000" d="M8.5 20c-2.27 0-4.405-0.884-6.010-2.49s-2.49-3.74-2.49-6.010c0-2.27 0.884-4.405 2.49-6.010s3.74-2.49 6.010-2.49c0.276 0 0.5 0.224 0.5 0.5v7.5h7.5c0.276 0 0.5 0.224 0.5 0.5 0 2.27-0.884 4.405-2.49 6.010s-3.74 2.49-6.010 2.49zM8 4.016c-3.903 0.258-7 3.516-7 7.484 0 4.136 3.364 7.5 7.5 7.5 3.967 0 7.225-3.097 7.484-7h-7.484c-0.276 0-0.5-0.224-0.5-0.5v-7.484z"/>
    <path fill="#000000" d="M18.5 10h-8c-0.276 0-0.5-0.224-0.5-0.5v-8c0-0.276 0.224-0.5 0.5-0.5 2.27 0 4.405 0.884 6.010 2.49s2.49 3.74 2.49 6.010c0 0.276-0.224 0.5-0.5 0.5zM11 9h6.984c-0.247-3.738-3.246-6.736-6.984-6.984v6.984z"/>
  </symbol>
  <symbol id="check_c">
    <path fill="#000000" d="M9.5 20c-2.538 0-4.923-0.988-6.718-2.782s-2.782-4.18-2.782-6.717c0-2.538 0.988-4.923 2.782-6.718s4.18-2.783 6.718-2.783c2.538 0 4.923 0.988 6.718 2.783s2.782 4.18 2.782 6.718-0.988 4.923-2.782 6.717c-1.794 1.794-4.18 2.782-6.718 2.782zM9.5 2c-4.687 0-8.5 3.813-8.5 8.5s3.813 8.5 8.5 8.5 8.5-3.813 8.5-8.5-3.813-8.5-8.5-8.5z"/>
    <path fill="#000000" d="M7.5 14.5c-0.128 0-0.256-0.049-0.354-0.146l-3-3c-0.195-0.195-0.195-0.512 0-0.707s0.512-0.195 0.707 0l2.646 2.646 6.646-6.646c0.195-0.195 0.512-0.195 0.707 0s0.195 0.512 0 0.707l-7 7c-0.098 0.098-0.226 0.146-0.354 0.146z"/>
  </symbol>
  <symbol id="clock">
    <path fill="#000000" d="M16.32 17.113c1.729-1.782 2.68-4.124 2.68-6.613 0-2.37-0.862-4.608-2.438-6.355l0.688-0.688 0.647 0.646c0.098 0.098 0.226 0.146 0.353 0.146s0.256-0.049 0.353-0.146c0.195-0.195 0.195-0.512 0-0.707l-2-2c-0.195-0.195-0.512-0.195-0.707 0s-0.195 0.512 0 0.707l0.647 0.646-0.688 0.688c-1.747-1.576-3.985-2.438-6.355-2.438s-4.608 0.862-6.355 2.438l-0.688-0.688 0.646-0.646c0.195-0.195 0.195-0.512 0-0.707s-0.512-0.195-0.707 0l-2 2c-0.195 0.195-0.195 0.512 0 0.707 0.098 0.098 0.226 0.146 0.354 0.146s0.256-0.049 0.354-0.146l0.646-0.646 0.688 0.688c-1.576 1.747-2.438 3.985-2.438 6.355 0 2.489 0.951 4.831 2.68 6.613l-2.034 2.034c-0.195 0.195-0.195 0.512 0 0.707 0.098 0.098 0.226 0.147 0.354 0.147s0.256-0.049 0.354-0.147l2.060-2.059c1.705 1.428 3.836 2.206 6.087 2.206s4.382-0.778 6.087-2.206l2.059 2.059c0.098 0.098 0.226 0.147 0.354 0.147s0.256-0.049 0.353-0.147c0.195-0.195 0.195-0.512 0-0.707l-2.034-2.034zM1 10.5c0-4.687 3.813-8.5 8.5-8.5s8.5 3.813 8.5 8.5c0 4.687-3.813 8.5-8.5 8.5s-8.5-3.813-8.5-8.5z"/>
    <path fill="#000000" d="M15.129 7.25c-0.138-0.239-0.444-0.321-0.683-0.183l-4.92 2.841-3.835-2.685c-0.226-0.158-0.538-0.103-0.696 0.123s-0.103 0.538 0.123 0.696l4.096 2.868c0.001 0.001 0.002 0.001 0.002 0.002 0.009 0.006 0.018 0.012 0.027 0.017 0.002 0.001 0.004 0.003 0.006 0.004 0.009 0.005 0.018 0.010 0.027 0.015 0.002 0.001 0.004 0.002 0.006 0.003 0.010 0.005 0.020 0.009 0.031 0.014 0.006 0.003 0.013 0.005 0.019 0.007 0.004 0.001 0.008 0.003 0.013 0.005 0.007 0.002 0.014 0.004 0.021 0.006 0.004 0.001 0.008 0.002 0.012 0.003 0.007 0.002 0.014 0.003 0.022 0.005 0.004 0.001 0.008 0.002 0.012 0.002 0.007 0.001 0.014 0.002 0.021 0.003 0.005 0.001 0.010 0.001 0.015 0.002 0.006 0.001 0.012 0.001 0.018 0.002 0.009 0.001 0.018 0.001 0.027 0.001 0.002 0 0.004 0 0.006 0 0 0 0-0 0-0s0 0 0.001 0c0.019 0 0.037-0.001 0.056-0.003 0.001-0 0.002-0 0.003-0 0.018-0.002 0.036-0.005 0.054-0.010 0.002-0 0.003-0.001 0.005-0.001 0.017-0.004 0.034-0.009 0.050-0.015 0.003-0.001 0.006-0.002 0.008-0.003 0.016-0.006 0.031-0.012 0.046-0.020 0.004-0.002 0.007-0.004 0.011-0.006 0.005-0.003 0.011-0.005 0.016-0.008l5.196-3c0.239-0.138 0.321-0.444 0.183-0.683z"/>
  </symbol>
  <symbol id="cloud">
    <path fill="#000000" d="M16.006 16h-10.006c-3.308 0-6-2.692-6-6s2.692-6 6-6c1.602 0 3.137 0.643 4.26 1.775 0.088-0.194 0.196-0.38 0.325-0.555 0.564-0.764 1.467-1.22 2.415-1.22 1.654 0 3 1.346 3 3 0 0.351-0.061 0.694-0.178 1.017 0.061-0.003 0.122-0.004 0.184-0.004 2.202 0 3.994 1.792 3.994 3.994s-1.792 3.994-3.994 3.994zM6 5c-2.757 0-5 2.243-5 5s2.243 5 5 5h10.006c1.651 0 2.994-1.343 2.994-2.994s-1.343-2.994-2.994-2.994c-0.354 0-0.699 0.061-1.026 0.18-0.218 0.080-0.462-0.001-0.59-0.195s-0.104-0.45 0.056-0.619c0.357-0.376 0.554-0.865 0.554-1.379 0-1.103-0.897-2-2-2-0.642 0-1.229 0.297-1.61 0.814-0.23 0.312-0.365 0.678-0.388 1.057-0.013 0.212-0.159 0.393-0.363 0.45s-0.423-0.020-0.545-0.193c-0.11-0.156-0.229-0.307-0.354-0.447-0.949-1.068-2.312-1.681-3.74-1.681z"/>
  </symbol>
  <symbol id="cloud_d">
    <path fill="#000000" d="M16.006 16h-2.506c-0.276 0-0.5-0.224-0.5-0.5s0.224-0.5 0.5-0.5h2.506c1.651 0 2.994-1.343 2.994-2.994s-1.343-2.994-2.994-2.994c-0.352 0-0.696 0.060-1.023 0.179-0.218 0.079-0.462-0.002-0.589-0.196s-0.104-0.45 0.056-0.618c0.355-0.373 0.55-0.862 0.55-1.377 0-1.103-0.897-2-2-2-0.642 0-1.229 0.297-1.61 0.814-0.229 0.31-0.362 0.677-0.386 1.061-0.013 0.212-0.159 0.393-0.364 0.451s-0.423-0.021-0.545-0.195l-0.005-0.007c-0.107-0.152-0.226-0.302-0.351-0.442-0.949-1.068-2.312-1.681-3.74-1.681-2.757 0-5 2.243-5 5s2.243 5 5 5h1.5c0.276 0 0.5 0.224 0.5 0.5s-0.224 0.5-0.5 0.5h-1.5c-3.308 0-6-2.692-6-6s2.692-6 6-6c1.603 0 3.137 0.643 4.261 1.775 0.087-0.195 0.196-0.381 0.324-0.555 0.564-0.764 1.467-1.22 2.415-1.22 1.654 0 3 1.346 3 3 0 0.351-0.061 0.694-0.176 1.017 0.061-0.003 0.122-0.004 0.183-0.004 2.202 0 3.994 1.792 3.994 3.994s-1.792 3.994-3.994 3.994z"/>
    <path fill="#000000" d="M12.854 13.146c-0.195-0.195-0.512-0.195-0.707 0l-1.146 1.146v-3.793c0-0.276-0.224-0.5-0.5-0.5s-0.5 0.224-0.5 0.5v3.793l-1.146-1.146c-0.195-0.195-0.512-0.195-0.707 0s-0.195 0.512 0 0.707l2 2c0.098 0.098 0.226 0.146 0.354 0.146s0.256-0.049 0.354-0.146l2-2c0.195-0.195 0.195-0.512 0-0.707z"/>
  </symbol>
  <symbol id="cloud_u">
    <path fill="#000000" d="M16.006 16h-3.506c-0.276 0-0.5-0.224-0.5-0.5s0.224-0.5 0.5-0.5h3.506c1.651 0 2.994-1.343 2.994-2.994s-1.343-2.994-2.994-2.994c-0.352 0-0.696 0.060-1.023 0.179-0.218 0.079-0.462-0.002-0.589-0.196s-0.104-0.45 0.056-0.618c0.355-0.373 0.55-0.862 0.55-1.377 0-1.103-0.897-2-2-2-0.642 0-1.229 0.297-1.61 0.814-0.229 0.31-0.362 0.677-0.386 1.061-0.013 0.212-0.159 0.393-0.364 0.451s-0.423-0.021-0.545-0.195l-0.005-0.007c-0.107-0.152-0.226-0.302-0.351-0.442-0.949-1.068-2.312-1.681-3.74-1.681-2.757 0-5 2.243-5 5s2.243 5 5 5h2.5c0.276 0 0.5 0.224 0.5 0.5s-0.224 0.5-0.5 0.5h-2.5c-3.308 0-6-2.692-6-6s2.692-6 6-6c1.603 0 3.137 0.643 4.261 1.775 0.087-0.195 0.196-0.381 0.324-0.555 0.564-0.764 1.467-1.22 2.415-1.22 1.654 0 3 1.346 3 3 0 0.351-0.061 0.694-0.176 1.017 0.061-0.003 0.122-0.004 0.183-0.004 2.202 0 3.994 1.792 3.994 3.994s-1.792 3.994-3.994 3.994z"/>
    <path fill="#000000" d="M12.854 12.146l-2-2c-0.195-0.195-0.512-0.195-0.707 0l-2 2c-0.195 0.195-0.195 0.512 0 0.707s0.512 0.195 0.707 0l1.146-1.146v3.793c0 0.276 0.224 0.5 0.5 0.5s0.5-0.224 0.5-0.5v-3.793l1.146 1.146c0.098 0.098 0.226 0.146 0.354 0.146s0.256-0.049 0.354-0.146c0.195-0.195 0.195-0.512 0-0.707z"/>
  </symbol>
  <symbol id="cog">
    <path fill="#000000" d="M7.631 19.702c-0.041 0-0.083-0.005-0.125-0.016-0.898-0.231-1.761-0.587-2.564-1.059-0.233-0.137-0.315-0.434-0.186-0.671 0.159-0.292 0.243-0.622 0.243-0.957 0-1.103-0.897-2-2-2-0.334 0-0.665 0.084-0.957 0.243-0.237 0.129-0.534 0.047-0.671-0.186-0.472-0.804-0.828-1.666-1.059-2.564-0.065-0.254 0.077-0.515 0.325-0.598 0.814-0.274 1.362-1.036 1.362-1.895s-0.547-1.621-1.362-1.895c-0.248-0.084-0.39-0.344-0.325-0.598 0.231-0.898 0.587-1.761 1.059-2.564 0.137-0.233 0.434-0.315 0.671-0.186 0.291 0.159 0.622 0.243 0.957 0.243 1.103 0 2-0.897 2-2 0-0.334-0.084-0.665-0.243-0.957-0.129-0.237-0.047-0.534 0.186-0.671 0.804-0.472 1.666-0.828 2.564-1.059 0.254-0.065 0.515 0.077 0.598 0.325 0.274 0.814 1.036 1.362 1.895 1.362s1.621-0.547 1.895-1.362c0.084-0.248 0.345-0.39 0.598-0.325 0.898 0.231 1.761 0.587 2.564 1.059 0.233 0.137 0.315 0.434 0.186 0.671-0.159 0.292-0.243 0.622-0.243 0.957 0 1.103 0.897 2 2 2 0.334 0 0.665-0.084 0.957-0.243 0.237-0.129 0.534-0.047 0.671 0.186 0.472 0.804 0.828 1.666 1.059 2.564 0.065 0.254-0.077 0.515-0.325 0.598-0.814 0.274-1.362 1.036-1.362 1.895s0.547 1.621 1.362 1.895c0.248 0.084 0.39 0.344 0.325 0.598-0.231 0.898-0.587 1.761-1.059 2.564-0.137 0.233-0.434 0.315-0.671 0.186-0.292-0.159-0.622-0.243-0.957-0.243-1.103 0-2 0.897-2 2 0 0.334 0.084 0.665 0.243 0.957 0.129 0.237 0.047 0.534-0.186 0.671-0.804 0.472-1.666 0.828-2.564 1.059-0.254 0.065-0.515-0.077-0.598-0.325-0.274-0.814-1.036-1.362-1.895-1.362s-1.621 0.547-1.895 1.362c-0.070 0.207-0.264 0.341-0.474 0.341zM10 17c1.127 0 2.142 0.628 2.655 1.602 0.52-0.161 1.026-0.369 1.51-0.622-0.108-0.314-0.164-0.646-0.164-0.98 0-1.654 1.346-3 3-3 0.334 0 0.666 0.056 0.98 0.164 0.253-0.484 0.462-0.989 0.622-1.51-0.974-0.512-1.602-1.527-1.602-2.655s0.628-2.142 1.602-2.655c-0.161-0.52-0.369-1.026-0.622-1.51-0.314 0.108-0.646 0.164-0.98 0.164-1.654 0-3-1.346-3-3 0-0.334 0.056-0.666 0.164-0.98-0.484-0.253-0.989-0.462-1.51-0.622-0.512 0.974-1.527 1.602-2.655 1.602s-2.142-0.628-2.655-1.602c-0.52 0.16-1.026 0.369-1.51 0.622 0.108 0.314 0.164 0.646 0.164 0.98 0 1.654-1.346 3-3 3-0.334 0-0.666-0.056-0.98-0.164-0.253 0.484-0.462 0.989-0.622 1.51 0.974 0.512 1.602 1.527 1.602 2.655s-0.628 2.142-1.602 2.655c0.16 0.52 0.369 1.026 0.622 1.51 0.314-0.108 0.646-0.164 0.98-0.164 1.654 0 3 1.346 3 3 0 0.334-0.056 0.666-0.164 0.98 0.484 0.253 0.989 0.462 1.51 0.622 0.512-0.974 1.527-1.602 2.655-1.602z"/>
    <path fill="#000000" d="M10 13c-1.654 0-3-1.346-3-3s1.346-3 3-3 3 1.346 3 3-1.346 3-3 3zM10 8c-1.103 0-2 0.897-2 2s0.897 2 2 2c1.103 0 2-0.897 2-2s-0.897-2-2-2z"/>
  </symbol>
  <symbol id="cross">
    <path fill="#000000" d="M10.707 10.5l5.646-5.646c0.195-0.195 0.195-0.512 0-0.707s-0.512-0.195-0.707 0l-5.646 5.646-5.646-5.646c-0.195-0.195-0.512-0.195-0.707 0s-0.195 0.512 0 0.707l5.646 5.646-5.646 5.646c-0.195 0.195-0.195 0.512 0 0.707 0.098 0.098 0.226 0.146 0.354 0.146s0.256-0.049 0.354-0.146l5.646-5.646 5.646 5.646c0.098 0.098 0.226 0.146 0.354 0.146s0.256-0.049 0.354-0.146c0.195-0.195 0.195-0.512 0-0.707l-5.646-5.646z"/>
  </symbol>
  <symbol id="cross_c">
    <path fill="#000000" d="M14.332 14.126l-4.080-3.626 4.080-3.626c0.206-0.183 0.225-0.499 0.042-0.706s-0.499-0.225-0.706-0.042l-4.168 3.705-4.168-3.705c-0.206-0.183-0.522-0.165-0.706 0.042s-0.165 0.522 0.042 0.706l4.080 3.626-4.080 3.626c-0.206 0.183-0.225 0.499-0.042 0.706 0.099 0.111 0.236 0.168 0.374 0.168 0.118 0 0.237-0.042 0.332-0.126l4.168-3.705 4.168 3.705c0.095 0.085 0.214 0.126 0.332 0.126 0.138 0 0.275-0.057 0.374-0.168 0.183-0.206 0.165-0.522-0.042-0.706z"/>
    <path fill="#000000" d="M9.5 20c-2.538 0-4.923-0.988-6.718-2.782s-2.782-4.18-2.782-6.717c0-2.538 0.988-4.923 2.782-6.718s4.18-2.783 6.718-2.783c2.538 0 4.923 0.988 6.718 2.783s2.782 4.18 2.782 6.718-0.988 4.923-2.782 6.717c-1.794 1.794-4.18 2.782-6.718 2.782zM9.5 2c-4.687 0-8.5 3.813-8.5 8.5s3.813 8.5 8.5 8.5 8.5-3.813 8.5-8.5-3.813-8.5-8.5-8.5z"/>
  </symbol>
  <symbol id="db">
    <path fill="#000000" d="M18.067 1.609c-0.497-0.326-1.193-0.615-2.069-0.858-1.742-0.484-4.050-0.75-6.498-0.75s-4.756 0.267-6.498 0.75c-0.877 0.243-1.573 0.532-2.069 0.858-0.619 0.407-0.933 0.874-0.933 1.391v12c0 0.517 0.314 0.985 0.933 1.391 0.497 0.326 1.193 0.615 2.069 0.858 1.742 0.484 4.050 0.75 6.498 0.75s4.756-0.267 6.498-0.751c0.877-0.243 1.573-0.532 2.069-0.858 0.619-0.406 0.933-0.874 0.933-1.391v-12c0-0.517-0.314-0.985-0.933-1.391zM3.27 1.714c1.658-0.46 3.87-0.714 6.23-0.714s4.573 0.254 6.23 0.714c1.795 0.499 2.27 1.059 2.27 1.286s-0.474 0.787-2.27 1.286c-1.658 0.46-3.87 0.714-6.23 0.714s-4.573-0.254-6.23-0.714c-1.795-0.499-2.27-1.059-2.27-1.286s0.474-0.787 2.27-1.286zM15.73 16.286c-1.658 0.46-3.87 0.714-6.23 0.714s-4.573-0.254-6.23-0.714c-1.795-0.499-2.27-1.059-2.27-1.286v-2.566c0.492 0.309 1.164 0.583 2.002 0.816 1.742 0.484 4.050 0.75 6.498 0.75s4.756-0.267 6.498-0.751c0.838-0.233 1.511-0.507 2.002-0.816v2.566c0 0.227-0.474 0.787-2.27 1.286zM15.73 12.286c-1.658 0.46-3.87 0.714-6.23 0.714s-4.573-0.254-6.23-0.714c-1.795-0.499-2.27-1.059-2.27-1.286v-2.566c0.492 0.309 1.164 0.583 2.002 0.816 1.742 0.484 4.050 0.75 6.498 0.75s4.756-0.267 6.498-0.75c0.838-0.233 1.511-0.507 2.002-0.816v2.566c0 0.227-0.474 0.787-2.27 1.286zM15.73 8.286c-1.658 0.46-3.87 0.714-6.23 0.714s-4.573-0.254-6.23-0.714c-1.795-0.499-2.27-1.059-2.27-1.286v-2.566c0.492 0.309 1.164 0.583 2.002 0.816 1.742 0.484 4.050 0.75 6.498 0.75s4.756-0.267 6.498-0.75c0.838-0.233 1.511-0.507 2.002-0.816v2.566c0 0.227-0.474 0.787-2.27 1.286z"/>
  </symbol>
  <symbol id="dl">
    <path fill="#000000" d="M14.853 9.647c-0.195-0.195-0.512-0.195-0.707 0l-4.146 4.146v-11.293c0-0.276-0.224-0.5-0.5-0.5s-0.5 0.224-0.5 0.5v11.293l-4.146-4.146c-0.195-0.195-0.512-0.195-0.707 0s-0.195 0.512 0 0.707l5 5c0.098 0.098 0.226 0.146 0.354 0.146s0.256-0.049 0.354-0.147l5-5c0.195-0.195 0.195-0.512-0-0.707z"/>
    <path fill="#000000" d="M17.5 19h-16c-0.827 0-1.5-0.673-1.5-1.5v-2c0-0.276 0.224-0.5 0.5-0.5s0.5 0.224 0.5 0.5v2c0 0.276 0.224 0.5 0.5 0.5h16c0.276 0 0.5-0.224 0.5-0.5v-2c0-0.276 0.224-0.5 0.5-0.5s0.5 0.224 0.5 0.5v2c0 0.827-0.673 1.5-1.5 1.5z"/>
  </symbol>
  <symbol id="enter">
    <path fill="#000000" d="M17.5 2h-9c-0.827 0-1.5 0.673-1.5 1.5v3c0 0.276 0.224 0.5 0.5 0.5s0.5-0.224 0.5-0.5v-3c0-0.276 0.224-0.5 0.5-0.5h7.564l-3.842 1.647c-0.685 0.294-1.222 1.108-1.222 1.853v9.5h-2.5c-0.276 0-0.5-0.224-0.5-0.5v-3c0-0.276-0.224-0.5-0.5-0.5s-0.5 0.224-0.5 0.5v3c0 0.827 0.673 1.5 1.5 1.5h2.5v1.5c0 0.433 0.18 0.801 0.495 1.008 0.174 0.114 0.376 0.172 0.589 0.172 0.173 0 0.354-0.038 0.532-0.114l5.162-2.212c0.685-0.294 1.222-1.108 1.222-1.854v-12c0-0.827-0.673-1.5-1.5-1.5zM18 15.5c0 0.351-0.294 0.796-0.616 0.934l-5.162 2.212c-0.096 0.041-0.159 0.038-0.177 0.027s-0.045-0.069-0.045-0.173v-12c0-0.351 0.294-0.796 0.616-0.934l5.333-2.286c0.033 0.066 0.051 0.141 0.051 0.22v12z"/>
    <path fill="#000000" d="M8.354 9.146l-3-3c-0.195-0.195-0.512-0.195-0.707 0s-0.195 0.512 0 0.707l2.146 2.146h-6.293c-0.276 0-0.5 0.224-0.5 0.5s0.224 0.5 0.5 0.5h6.293l-2.146 2.146c-0.195 0.195-0.195 0.512 0 0.707 0.098 0.098 0.226 0.146 0.354 0.146s0.256-0.049 0.354-0.146l3-3c0.195-0.195 0.195-0.512 0-0.707z"/>
  </symbol>
  <symbol id="exit">
    <path fill="#000000" d="M11.5 8c0.276 0 0.5-0.224 0.5-0.5v-4c0-0.827-0.673-1.5-1.5-1.5h-9c-0.827 0-1.5 0.673-1.5 1.5v12c0 0.746 0.537 1.56 1.222 1.853l5.162 2.212c0.178 0.076 0.359 0.114 0.532 0.114 0.213-0 0.416-0.058 0.589-0.172 0.314-0.207 0.495-0.575 0.495-1.008v-1.5h2.5c0.827 0 1.5-0.673 1.5-1.5v-4c0-0.276-0.224-0.5-0.5-0.5s-0.5 0.224-0.5 0.5v4c0 0.276-0.224 0.5-0.5 0.5h-2.5v-9.5c0-0.746-0.537-1.56-1.222-1.853l-3.842-1.647h7.564c0.276 0 0.5 0.224 0.5 0.5v4c0 0.276 0.224 0.5 0.5 0.5zM6.384 5.566c0.322 0.138 0.616 0.584 0.616 0.934v12c0 0.104-0.028 0.162-0.045 0.173s-0.081 0.014-0.177-0.027l-5.162-2.212c-0.322-0.138-0.616-0.583-0.616-0.934v-12c0-0.079 0.018-0.153 0.051-0.22l5.333 2.286z"/>
    <path fill="#000000" d="M18.354 9.146l-3-3c-0.195-0.195-0.512-0.195-0.707 0s-0.195 0.512 0 0.707l2.146 2.146h-6.293c-0.276 0-0.5 0.224-0.5 0.5s0.224 0.5 0.5 0.5h6.293l-2.146 2.146c-0.195 0.195-0.195 0.512 0 0.707 0.098 0.098 0.226 0.146 0.354 0.146s0.256-0.049 0.354-0.146l3-3c0.195-0.195 0.195-0.512 0-0.707z"/>
  </symbol>
  <symbol id="exit_u">
    <path fill="#000000" d="M15.5 20h-12c-0.827 0-1.5-0.673-1.5-1.5v-10c0-0.827 0.673-1.5 1.5-1.5h4c0.276 0 0.5 0.224 0.5 0.5s-0.224 0.5-0.5 0.5h-4c-0.276 0-0.5 0.224-0.5 0.5v10c0 0.276 0.224 0.5 0.5 0.5h12c0.276 0 0.5-0.224 0.5-0.5v-10c0-0.276-0.224-0.5-0.5-0.5h-4c-0.276 0-0.5-0.224-0.5-0.5s0.224-0.5 0.5-0.5h4c0.827 0 1.5 0.673 1.5 1.5v10c0 0.827-0.673 1.5-1.5 1.5z"/>
    <path fill="#000000" d="M12.853 3.646l-3-3c-0.195-0.195-0.512-0.195-0.707 0l-3 3c-0.195 0.195-0.195 0.512 0 0.707s0.512 0.195 0.707 0l2.147-2.146v11.293c0 0.276 0.224 0.5 0.5 0.5s0.5-0.224 0.5-0.5v-11.293l2.147 2.146c0.098 0.098 0.226 0.146 0.353 0.146s0.256-0.049 0.353-0.146c0.195-0.195 0.195-0.512 0-0.707z"/>
  </symbol>
  <symbol id="file_a">
    <path fill="#000000" d="M17.854 5.646l-4.5-4.5c-0.094-0.094-0.221-0.146-0.354-0.146h-9.5c-0.827 0-1.5 0.673-1.5 1.5v16c0 0.827 0.673 1.5 1.5 1.5h13c0.827 0 1.5-0.673 1.5-1.5v-12.5c0-0.133-0.053-0.26-0.146-0.354zM16.793 6h-3.293c-0.276 0-0.5-0.224-0.5-0.5v-3.293l3.793 3.793zM16.5 19h-13c-0.276 0-0.5-0.224-0.5-0.5v-16c0-0.276 0.224-0.5 0.5-0.5h8.5v3.5c0 0.827 0.673 1.5 1.5 1.5h3.5v11.5c0 0.276-0.224 0.5-0.5 0.5z"/>
    <path fill="#000000" d="M11.5 13h-2.5v-2.5c0-0.276-0.224-0.5-0.5-0.5s-0.5 0.224-0.5 0.5v2.5h-2.5c-0.276 0-0.5 0.224-0.5 0.5s0.224 0.5 0.5 0.5h2.5v2.5c0 0.276 0.224 0.5 0.5 0.5s0.5-0.224 0.5-0.5v-2.5h2.5c0.276 0 0.5-0.224 0.5-0.5s-0.224-0.5-0.5-0.5z"/>
  </symbol>
  <symbol id="file_e">
    <path fill="#000000" d="M17.854 5.646l-4.5-4.5c-0.094-0.094-0.221-0.146-0.354-0.146h-9.5c-0.827 0-1.5 0.673-1.5 1.5v16c0 0.827 0.673 1.5 1.5 1.5h13c0.827 0 1.5-0.673 1.5-1.5v-12.5c0-0.133-0.053-0.26-0.146-0.354zM16.793 6h-3.293c-0.276 0-0.5-0.224-0.5-0.5v-3.293l3.793 3.793zM17 18.5c0 0.276-0.224 0.5-0.5 0.5h-13c-0.276 0-0.5-0.224-0.5-0.5v-16c0-0.276 0.224-0.5 0.5-0.5h8.5v3.5c0 0.827 0.673 1.5 1.5 1.5h3.5v11.5z"/>
  </symbol>
  <symbol id="home">
    <path fill="#000000" d="M19.871 12.165l-8.829-9.758c-0.274-0.303-0.644-0.47-1.042-0.47-0 0 0 0 0 0-0.397 0-0.767 0.167-1.042 0.47l-8.829 9.758c-0.185 0.205-0.169 0.521 0.035 0.706 0.096 0.087 0.216 0.129 0.335 0.129 0.136 0 0.272-0.055 0.371-0.165l2.129-2.353v8.018c0 0.827 0.673 1.5 1.5 1.5h11c0.827 0 1.5-0.673 1.5-1.5v-8.018l2.129 2.353c0.185 0.205 0.501 0.221 0.706 0.035s0.221-0.501 0.035-0.706zM12 19h-4v-4.5c0-0.276 0.224-0.5 0.5-0.5h3c0.276 0 0.5 0.224 0.5 0.5v4.5zM16 18.5c0 0.276-0.224 0.5-0.5 0.5h-2.5v-4.5c0-0.827-0.673-1.5-1.5-1.5h-3c-0.827 0-1.5 0.673-1.5 1.5v4.5h-2.5c-0.276 0-0.5-0.224-0.5-0.5v-9.123l5.7-6.3c0.082-0.091 0.189-0.141 0.3-0.141s0.218 0.050 0.3 0.141l5.7 6.3v9.123z"/>
  </symbol>
  <symbol id="link">
    <path fill="#000000" d="M10.682 12.998c-0.943 0-1.886-0.359-2.604-1.077-0.195-0.195-0.195-0.512 0-0.707s0.512-0.195 0.707 0c1.046 1.046 2.747 1.046 3.793 0l3.636-3.636c1.046-1.046 1.046-2.747 0-3.793s-2.747-1.046-3.793 0l-3.068 3.068c-0.195 0.195-0.512 0.195-0.707 0s-0.195-0.512 0-0.707l3.068-3.068c1.436-1.436 3.772-1.436 5.207 0s1.436 3.772 0 5.207l-3.636 3.636c-0.718 0.718-1.661 1.077-2.604 1.077z"/>
    <path fill="#000000" d="M4.682 18.998c-0.943 0-1.886-0.359-2.604-1.077-1.436-1.436-1.436-3.772 0-5.207l3.636-3.636c1.436-1.436 3.772-1.436 5.207 0 0.195 0.195 0.195 0.512 0 0.707s-0.512 0.195-0.707 0c-1.046-1.046-2.747-1.046-3.793 0l-3.636 3.636c-1.046 1.046-1.046 2.747 0 3.793s2.747 1.046 3.793 0l3.068-3.068c0.195-0.195 0.512-0.195 0.707 0s0.195 0.512 0 0.707l-3.068 3.068c-0.718 0.718-1.661 1.077-2.604 1.077z"/>
  </symbol>
  <symbol id="lock">
    <path fill="#000000" d="M14.5 8h-0.5v-1.5c0-2.481-2.019-4.5-4.5-4.5s-4.5 2.019-4.5 4.5v1.5h-0.5c-0.827 0-1.5 0.673-1.5 1.5v8c0 0.827 0.673 1.5 1.5 1.5h10c0.827 0 1.5-0.673 1.5-1.5v-8c0-0.827-0.673-1.5-1.5-1.5zM6 6.5c0-1.93 1.57-3.5 3.5-3.5s3.5 1.57 3.5 3.5v1.5h-7v-1.5zM15 17.5c0 0.276-0.224 0.5-0.5 0.5h-10c-0.276 0-0.5-0.224-0.5-0.5v-8c0-0.276 0.224-0.5 0.5-0.5h10c0.276 0 0.5 0.224 0.5 0.5v8z"/>
  </symbol>
  <symbol id="map">
    <path fill="#000000" d="M18.763 1.075c-0.147-0.091-0.331-0.099-0.486-0.022l-5.776 2.888-5.776-2.888c-0.141-0.070-0.306-0.070-0.447 0l-6 3c-0.169 0.085-0.276 0.258-0.276 0.447v15c0 0.173 0.090 0.334 0.237 0.425 0.080 0.050 0.171 0.075 0.263 0.075 0.076 0 0.153-0.018 0.224-0.053l5.776-2.888 5.776 2.888c0.141 0.070 0.307 0.070 0.447 0l6-3c0.169-0.085 0.276-0.258 0.276-0.447v-15c-0-0.173-0.090-0.334-0.237-0.425zM6 16.191l-5 2.5v-13.882l5-2.5v13.882zM7 2.309l5 2.5v13.882l-5-2.5v-13.882zM18 16.191l-5 2.5v-13.882l5-2.5v13.882z"/>
  </symbol>
  <symbol id="marker">
    <path fill="#000000" d="M10 20c-0.153 0-0.298-0.070-0.393-0.191-0.057-0.073-1.418-1.814-2.797-4.385-0.812-1.513-1.46-2.999-1.925-4.416-0.587-1.787-0.884-3.472-0.884-5.008 0-3.308 2.692-6 6-6s6 2.692 6 6c0 1.536-0.298 3.22-0.884 5.008-0.465 1.417-1.113 2.903-1.925 4.416-1.38 2.571-2.74 4.312-2.797 4.385-0.095 0.121-0.24 0.191-0.393 0.191zM10 1c-2.757 0-5 2.243-5 5 0 3.254 1.463 6.664 2.691 8.951 0.902 1.681 1.809 3.014 2.309 3.71 0.502-0.699 1.415-2.040 2.318-3.726 1.223-2.283 2.682-5.687 2.682-8.935 0-2.757-2.243-5-5-5z"/>
    <path fill="#000000" d="M10 9c-1.654 0-3-1.346-3-3s1.346-3 3-3 3 1.346 3 3-1.346 3-3 3zM10 4c-1.103 0-2 0.897-2 2s0.897 2 2 2c1.103 0 2-0.897 2-2s-0.897-2-2-2z"/>
  </symbol>
  <symbol id="menu">
    <path fill="#000000" d="M17.5 6h-15c-0.276 0-0.5-0.224-0.5-0.5s0.224-0.5 0.5-0.5h15c0.276 0 0.5 0.224 0.5 0.5s-0.224 0.5-0.5 0.5z"/>
    <path fill="#000000" d="M17.5 11h-15c-0.276 0-0.5-0.224-0.5-0.5s0.224-0.5 0.5-0.5h15c0.276 0 0.5 0.224 0.5 0.5s-0.224 0.5-0.5 0.5z"/>
    <path fill="#000000" d="M17.5 16h-15c-0.276 0-0.5-0.224-0.5-0.5s0.224-0.5 0.5-0.5h15c0.276 0 0.5 0.224 0.5 0.5s-0.224 0.5-0.5 0.5z"/>
  </symbol>
  <symbol id="menu_c">
    <path fill="#000000" d="M9.5 20c-2.538 0-4.923-0.988-6.718-2.782s-2.782-4.18-2.782-6.717c0-2.538 0.988-4.923 2.782-6.718s4.18-2.783 6.718-2.783c2.538 0 4.923 0.988 6.718 2.783s2.782 4.18 2.782 6.718-0.988 4.923-2.782 6.717c-1.794 1.794-4.18 2.782-6.718 2.782zM9.5 2c-4.687 0-8.5 3.813-8.5 8.5s3.813 8.5 8.5 8.5 8.5-3.813 8.5-8.5-3.813-8.5-8.5-8.5z"/>
    <path fill="#000000" d="M14.5 8h-10c-0.276 0-0.5-0.224-0.5-0.5s0.224-0.5 0.5-0.5h10c0.276 0 0.5 0.224 0.5 0.5s-0.224 0.5-0.5 0.5z"/>
    <path fill="#000000" d="M14.5 11h-10c-0.276 0-0.5-0.224-0.5-0.5s0.224-0.5 0.5-0.5h10c0.276 0 0.5 0.224 0.5 0.5s-0.224 0.5-0.5 0.5z"/>
    <path fill="#000000" d="M14.5 14h-10c-0.276 0-0.5-0.224-0.5-0.5s0.224-0.5 0.5-0.5h10c0.276 0 0.5 0.224 0.5 0.5s-0.224 0.5-0.5 0.5z"/>
  </symbol>
  <symbol id="mic">
    <path fill="#000000" d="M9.5 14c-1.93 0-3.5-1.57-3.5-3.5v-6c0-1.93 1.57-3.5 3.5-3.5s3.5 1.57 3.5 3.5v6c0 1.93-1.57 3.5-3.5 3.5zM9.5 2c-1.378 0-2.5 1.122-2.5 2.5v6c0 1.378 1.122 2.5 2.5 2.5s2.5-1.122 2.5-2.5v-6c0-1.378-1.122-2.5-2.5-2.5z"/>
    <path fill="#000000" d="M16 10.5c0-0.276-0.224-0.5-0.5-0.5s-0.5 0.224-0.5 0.5c0 3.033-2.467 5.5-5.5 5.5s-5.5-2.467-5.5-5.5c0-0.276-0.224-0.5-0.5-0.5s-0.5 0.224-0.5 0.5c0 3.416 2.649 6.225 6 6.481v2.019h-1.5c-0.276 0-0.5 0.224-0.5 0.5s0.224 0.5 0.5 0.5h4c0.276 0 0.5-0.224 0.5-0.5s-0.224-0.5-0.5-0.5h-1.5v-2.019c3.351-0.256 6-3.065 6-6.481z"/>
  </symbol>
  <symbol id="minus_c">
    <path fill="#000000" d="M16.218 3.782c-1.794-1.794-4.18-2.782-6.718-2.782s-4.923 0.988-6.718 2.782-2.782 4.18-2.782 6.717 0.988 4.923 2.782 6.718 4.18 2.782 6.718 2.782 4.923-0.988 6.718-2.782 2.782-4.18 2.782-6.718-0.988-4.923-2.782-6.717zM9.5 19c-4.687 0-8.5-3.813-8.5-8.5s3.813-8.5 8.5-8.5c4.687 0 8.5 3.813 8.5 8.5s-3.813 8.5-8.5 8.5z"/>
    <path fill="#000000" d="M15.5 11h-12c-0.276 0-0.5-0.224-0.5-0.5s0.224-0.5 0.5-0.5h12c0.276 0 0.5 0.224 0.5 0.5s-0.224 0.5-0.5 0.5z"/>
  </symbol>
  <symbol id="moon">
    <path fill="#000000" d="M10.25 20c-2.738 0-5.312-1.066-7.248-3.002s-3.002-4.51-3.002-7.248c0-2.251 0.723-4.375 2.090-6.143 0.655-0.847 1.439-1.585 2.331-2.194 0.899-0.614 1.888-1.083 2.938-1.392 0.192-0.057 0.399 0.007 0.527 0.161s0.151 0.369 0.060 0.547c-0.645 1.257-0.945 2.455-0.945 3.772 0 4.687 3.813 8.5 8.5 8.5 1.317 0 2.515-0.3 3.772-0.945 0.178-0.091 0.393-0.068 0.547 0.060s0.217 0.335 0.161 0.527c-0.31 1.050-0.778 2.039-1.392 2.938-0.609 0.892-1.347 1.676-2.194 2.331-1.768 1.367-3.893 2.090-6.143 2.090zM6.57 1.365c-3.374 1.445-5.57 4.689-5.57 8.385 0 5.1 4.15 9.25 9.25 9.25 3.696 0 6.94-2.197 8.385-5.57-1.024 0.383-2.058 0.57-3.135 0.57-2.538 0-4.923-0.988-6.717-2.782s-2.783-4.18-2.783-6.718c0-1.077 0.188-2.111 0.57-3.135z"/>
  </symbol>
  <symbol id="phone">
    <path fill="#000000" d="M17.894 8.897c-1.041 0-2.928-0.375-3.516-0.963-0.361-0.361-0.446-0.813-0.515-1.177-0.085-0.448-0.136-0.581-0.332-0.666-0.902-0.388-2.196-0.61-3.551-0.61-1.34 0-2.62 0.219-3.512 0.6-0.194 0.083-0.244 0.216-0.327 0.663-0.068 0.365-0.152 0.819-0.512 1.179-0.328 0.328-1.015 0.554-1.533 0.685-0.668 0.169-1.384 0.267-1.963 0.267-0.664 0-1.113-0.126-1.372-0.386-0.391-0.391-0.641-0.926-0.685-1.467-0.037-0.456 0.051-1.132 0.68-1.762 1.022-1.022 2.396-1.819 4.086-2.368 1.554-0.506 3.322-0.773 5.114-0.773 1.804 0 3.587 0.27 5.156 0.782 1.705 0.556 3.093 1.361 4.124 2.393 1.050 1.050 0.79 2.443 0.012 3.221-0.257 0.257-0.7 0.382-1.354 0.382zM9.98 4.481c1.507 0 2.908 0.246 3.946 0.691 0.713 0.306 0.833 0.938 0.92 1.398 0.052 0.275 0.097 0.513 0.24 0.656 0.252 0.252 1.706 0.671 2.809 0.671 0.481 0 0.633-0.082 0.652-0.094 0.31-0.314 0.698-1.086-0.017-1.802-1.805-1.805-5.010-2.882-8.574-2.882-3.535 0-6.709 1.065-8.493 2.848-0.288 0.288-0.42 0.616-0.391 0.974 0.025 0.302 0.17 0.614 0.39 0.836 0.019 0.012 0.173 0.098 0.67 0.098 1.098 0 2.541-0.411 2.789-0.659 0.141-0.141 0.185-0.379 0.236-0.654 0.086-0.462 0.203-1.095 0.917-1.4 1.026-0.439 2.413-0.68 3.905-0.68z"/>
    <path fill="#000000" d="M16.5 18h-13c-0.671 0-1.29-0.264-1.743-0.743s-0.682-1.112-0.645-1.782c0.004-0.077 0.118-1.901 1.27-3.739 0.682-1.088 1.586-1.955 2.686-2.577 1.361-0.769 3.020-1.159 4.932-1.159s3.571 0.39 4.932 1.159c1.101 0.622 2.005 1.489 2.686 2.577 1.152 1.839 1.266 3.663 1.27 3.739 0.037 0.67-0.192 1.303-0.645 1.782s-1.072 0.743-1.743 0.743zM10 9c-3.117 0-5.388 1.088-6.749 3.233-1.030 1.623-1.139 3.282-1.14 3.299-0.022 0.392 0.111 0.761 0.373 1.038s0.623 0.43 1.017 0.43h13c0.393 0 0.754-0.153 1.017-0.43s0.395-0.646 0.373-1.039c-0.001-0.016-0.111-1.675-1.14-3.298-1.362-2.145-3.633-3.233-6.749-3.233z"/>
    <path fill="#000000" d="M10 16c-1.654 0-3-1.346-3-3s1.346-3 3-3 3 1.346 3 3-1.346 3-3 3zM10 11c-1.103 0-2 0.897-2 2s0.897 2 2 2c1.103 0 2-0.897 2-2s-0.897-2-2-2z"/>
  </symbol>
  <symbol id="phone_h">
    <path fill="#000000" d="M16 20c-1.771 0-3.655-0.502-5.6-1.492-1.793-0.913-3.564-2.22-5.122-3.78s-2.863-3.333-3.775-5.127c-0.988-1.946-1.49-3.83-1.49-5.601 0-1.148 1.070-2.257 1.529-2.68 0.661-0.609 1.701-1.32 2.457-1.32 0.376 0 0.816 0.246 1.387 0.774 0.425 0.394 0.904 0.928 1.383 1.544 0.289 0.372 1.73 2.271 1.73 3.182 0 0.747-0.845 1.267-1.739 1.816-0.346 0.212-0.703 0.432-0.961 0.639-0.276 0.221-0.325 0.338-0.333 0.364 0.949 2.366 3.85 5.267 6.215 6.215 0.021-0.007 0.138-0.053 0.363-0.333 0.207-0.258 0.427-0.616 0.639-0.961 0.55-0.894 1.069-1.739 1.816-1.739 0.911 0 2.81 1.441 3.182 1.73 0.616 0.479 1.15 0.958 1.544 1.383 0.528 0.57 0.774 1.011 0.774 1.387 0 0.756-0.711 1.799-1.319 2.463-0.424 0.462-1.533 1.537-2.681 1.537zM3.994 1c-0.268 0.005-0.989 0.333-1.773 1.055-0.744 0.686-1.207 1.431-1.207 1.945 0 6.729 8.264 15 14.986 15 0.513 0 1.258-0.465 1.944-1.213 0.723-0.788 1.051-1.512 1.056-1.781-0.032-0.19-0.558-0.929-1.997-2.037-1.237-0.952-2.24-1.463-2.498-1.469-0.018 0.005-0.13 0.048-0.357 0.336-0.197 0.251-0.408 0.594-0.613 0.926-0.56 0.911-1.089 1.772-1.858 1.772-0.124 0-0.246-0.024-0.363-0.071-2.625-1.050-5.729-4.154-6.779-6.779-0.126-0.315-0.146-0.809 0.474-1.371 0.33-0.299 0.786-0.579 1.228-0.851 0.332-0.204 0.676-0.415 0.926-0.613 0.288-0.227 0.331-0.339 0.336-0.357-0.007-0.258-0.517-1.261-1.469-2.498-1.108-1.439-1.847-1.964-2.037-1.997z"/>
  </symbol>
  <symbol id="phone_m">
    <path fill="#000000" d="M10.5 18h-1c-0.276 0-0.5-0.224-0.5-0.5s0.224-0.5 0.5-0.5h1c0.276 0 0.5 0.224 0.5 0.5s-0.224 0.5-0.5 0.5z"/>
    <path fill="#000000" d="M14.5 20h-9c-0.827 0-1.5-0.673-1.5-1.5v-17c0-0.827 0.673-1.5 1.5-1.5h9c0.827 0 1.5 0.673 1.5 1.5v17c0 0.827-0.673 1.5-1.5 1.5zM5.5 1c-0.276 0-0.5 0.224-0.5 0.5v17c0 0.276 0.224 0.5 0.5 0.5h9c0.276 0 0.5-0.224 0.5-0.5v-17c0-0.276-0.224-0.5-0.5-0.5h-9z"/>
    <path fill="#000000" d="M13.5 16h-7c-0.276 0-0.5-0.224-0.5-0.5v-13c0-0.276 0.224-0.5 0.5-0.5h7c0.276 0 0.5 0.224 0.5 0.5v13c0 0.276-0.224 0.5-0.5 0.5zM7 15h6v-12h-6v12z"/>
  </symbol>
  <symbol id="pic">
    <path fill="#000000" d="M18.5 20h-17c-0.827 0-1.5-0.673-1.5-1.5v-17c0-0.827 0.673-1.5 1.5-1.5h17c0.827 0 1.5 0.673 1.5 1.5v17c0 0.827-0.673 1.5-1.5 1.5zM1.5 1c-0.276 0-0.5 0.224-0.5 0.5v17c0 0.276 0.224 0.5 0.5 0.5h17c0.276 0 0.5-0.224 0.5-0.5v-17c0-0.276-0.224-0.5-0.5-0.5h-17z"/>
    <path fill="#000000" d="M13 9c-1.103 0-2-0.897-2-2s0.897-2 2-2 2 0.897 2 2-0.897 2-2 2zM13 6c-0.551 0-1 0.449-1 1s0.449 1 1 1 1-0.449 1-1-0.449-1-1-1z"/>
    <path fill="#000000" d="M17.5 2h-15c-0.276 0-0.5 0.224-0.5 0.5v12c0 0.276 0.224 0.5 0.5 0.5h15c0.276 0 0.5-0.224 0.5-0.5v-12c0-0.276-0.224-0.5-0.5-0.5zM3 11.69l3.209-3.611c0.082-0.092 0.189-0.144 0.302-0.145s0.221 0.048 0.305 0.138l5.533 5.928h-9.349v-2.31zM17 14h-3.283l-6.169-6.61c-0.279-0.299-0.651-0.461-1.049-0.456s-0.766 0.176-1.037 0.481l-2.462 2.77v-7.185h14v11z"/>
  </symbol>
  <symbol id="play">
    <path fill="#000000" d="M7.5 15c-0.076 0-0.153-0.017-0.224-0.053-0.169-0.085-0.276-0.258-0.276-0.447v-9c0-0.189 0.107-0.363 0.276-0.447s0.372-0.066 0.524 0.047l6 4.5c0.126 0.094 0.2 0.243 0.2 0.4s-0.074 0.306-0.2 0.4l-6 4.5c-0.088 0.066-0.194 0.1-0.3 0.1zM8 6.5v7l4.667-3.5-4.667-3.5z"/>
    <path fill="#000000" d="M19.5 2h-19c-0.276 0-0.5 0.224-0.5 0.5v15c0 0.276 0.224 0.5 0.5 0.5h19c0.276 0 0.5-0.224 0.5-0.5v-15c0-0.276-0.224-0.5-0.5-0.5zM3 11h-2v-2h2v2zM3 8h-2v-2h2v2zM1 12h2v2h-2v-2zM4 3h12v14h-12v-14zM17 9h2v2h-2v-2zM17 8v-2h2v2h-2zM17 12h2v2h-2v-2zM19 5h-2v-2h2v2zM3 3v2h-2v-2h2zM1 15h2v2h-2v-2zM17 17v-2h2v2h-2z"/>
  </symbol>
  <symbol id="plus_c">
    <path fill="#000000" d="M16.218 3.782c-1.794-1.794-4.18-2.782-6.718-2.782s-4.923 0.988-6.718 2.782-2.782 4.18-2.782 6.717 0.988 4.923 2.782 6.718 4.18 2.782 6.718 2.782 4.923-0.988 6.718-2.782 2.782-4.18 2.782-6.718-0.988-4.923-2.782-6.717zM9.5 19c-4.687 0-8.5-3.813-8.5-8.5s3.813-8.5 8.5-8.5c4.687 0 8.5 3.813 8.5 8.5s-3.813 8.5-8.5 8.5z"/>
    <path fill="#000000" d="M15.5 10h-5.5v-5.5c0-0.276-0.224-0.5-0.5-0.5s-0.5 0.224-0.5 0.5v5.5h-5.5c-0.276 0-0.5 0.224-0.5 0.5s0.224 0.5 0.5 0.5h5.5v5.5c0 0.276 0.224 0.5 0.5 0.5s0.5-0.224 0.5-0.5v-5.5h5.5c0.276 0 0.5-0.224 0.5-0.5s-0.224-0.5-0.5-0.5z"/>
  </symbol>
  <symbol id="power">
    <path fill="#000000" d="M9.5 12c-0.276 0-0.5-0.224-0.5-0.5v-9c0-0.276 0.224-0.5 0.5-0.5s0.5 0.224 0.5 0.5v9c0 0.276-0.224 0.5-0.5 0.5z"/>
    <path fill="#000000" d="M9.5 19c-2.003 0-3.887-0.78-5.303-2.197s-2.197-3.3-2.197-5.303c0-1.648 0.525-3.212 1.517-4.523 0.96-1.268 2.324-2.215 3.84-2.666 0.265-0.079 0.543 0.072 0.622 0.337s-0.072 0.543-0.337 0.622c-2.733 0.814-4.643 3.376-4.643 6.231 0 3.584 2.916 6.5 6.5 6.5s6.5-2.916 6.5-6.5c0-2.855-1.909-5.417-4.643-6.231-0.265-0.079-0.415-0.357-0.337-0.622s0.357-0.415 0.622-0.337c1.517 0.451 2.88 1.398 3.84 2.666 0.993 1.311 1.517 2.875 1.517 4.523 0 2.003-0.78 3.887-2.197 5.303s-3.3 2.197-5.303 2.197z"/>
  </symbol>
  <symbol id="printer">
    <path fill="#000000" d="M18.5 4h-1.5v-2.5c0-0.827-0.673-1.5-1.5-1.5h-11c-0.827 0-1.5 0.673-1.5 1.5v2.5h-1.5c-0.827 0-1.5 0.673-1.5 1.5v9c0 0.827 0.673 1.5 1.5 1.5h1.5v2.5c0 0.827 0.673 1.5 1.5 1.5h11c0.827 0 1.5-0.673 1.5-1.5v-2.5h1.5c0.827 0 1.5-0.673 1.5-1.5v-9c0-0.827-0.673-1.5-1.5-1.5zM4 1.5c0-0.276 0.224-0.5 0.5-0.5h11c0.276 0 0.5 0.224 0.5 0.5v2.5h-12v-2.5zM15.5 19h-11c-0.276 0-0.5-0.224-0.5-0.5v-6.5h12v6.5c0 0.276-0.224 0.5-0.5 0.5zM19 14.5c0 0.276-0.224 0.5-0.5 0.5h-1.5v-3h0.5c0.276 0 0.5-0.224 0.5-0.5s-0.224-0.5-0.5-0.5h-15c-0.276 0-0.5 0.224-0.5 0.5s0.224 0.5 0.5 0.5h0.5v3h-1.5c-0.276 0-0.5-0.224-0.5-0.5v-9c0-0.276 0.224-0.5 0.5-0.5h17c0.276 0 0.5 0.224 0.5 0.5v9z"/>
    <path fill="#000000" d="M14.5 14h-9c-0.276 0-0.5-0.224-0.5-0.5s0.224-0.5 0.5-0.5h9c0.276 0 0.5 0.224 0.5 0.5s-0.224 0.5-0.5 0.5z"/>
    <path fill="#000000" d="M14.5 16h-9c-0.276 0-0.5-0.224-0.5-0.5s0.224-0.5 0.5-0.5h9c0.276 0 0.5 0.224 0.5 0.5s-0.224 0.5-0.5 0.5z"/>
    <path fill="#000000" d="M14.5 18h-9c-0.276 0-0.5-0.224-0.5-0.5s0.224-0.5 0.5-0.5h9c0.276 0 0.5 0.224 0.5 0.5s-0.224 0.5-0.5 0.5z"/>
    <path fill="#000000" d="M16.5 9c-0.827 0-1.5-0.673-1.5-1.5s0.673-1.5 1.5-1.5 1.5 0.673 1.5 1.5-0.673 1.5-1.5 1.5zM16.5 7c-0.276 0-0.5 0.224-0.5 0.5s0.224 0.5 0.5 0.5 0.5-0.224 0.5-0.5-0.224-0.5-0.5-0.5z"/>
  </symbol>
  <symbol id="ques_c">
    <path fill="#000000" d="M16.218 3.782c-1.794-1.794-4.18-2.782-6.718-2.782s-4.923 0.988-6.718 2.782-2.782 4.18-2.782 6.717 0.988 4.923 2.782 6.718 4.18 2.782 6.718 2.782 4.923-0.988 6.718-2.782 2.782-4.18 2.782-6.718-0.988-4.923-2.782-6.717zM9.5 19c-4.687 0-8.5-3.813-8.5-8.5s3.813-8.5 8.5-8.5c4.687 0 8.5 3.813 8.5 8.5s-3.813 8.5-8.5 8.5z"/>
    <path fill="#000000" d="M9.5 15c-0.276 0-0.5-0.224-0.5-0.5v-2c0-0.276 0.224-0.5 0.5-0.5 1.93 0 3.5-1.57 3.5-3.5s-1.57-3.5-3.5-3.5-3.5 1.57-3.5 3.5c0 0.276-0.224 0.5-0.5 0.5s-0.5-0.224-0.5-0.5c0-2.481 2.019-4.5 4.5-4.5s4.5 2.019 4.5 4.5c0 2.312-1.753 4.223-4 4.472v1.528c0 0.276-0.224 0.5-0.5 0.5z"/>
    <path fill="#000000" d="M9.5 18c-0 0 0 0 0 0-0.276 0-0.5-0.224-0.5-0.5v-1c0-0.276 0.224-0.5 0.5-0.5 0 0 0 0 0 0 0.276 0 0.5 0.224 0.5 0.5v1c0 0.276-0.224 0.5-0.5 0.5z"/>
  </symbol>
  <symbol id="redo">
    <path fill="#000000" d="M2.49 4.49c1.605-1.605 3.74-2.49 6.010-2.49s4.405 0.884 6.010 2.49 2.49 3.74 2.49 6.010v1.293l2.146-2.146c0.195-0.195 0.512-0.195 0.707 0s0.195 0.512 0 0.707l-3 3c-0.098 0.098-0.226 0.146-0.354 0.146s-0.256-0.049-0.354-0.146l-3-3c-0.195-0.195-0.195-0.512 0-0.707s0.512-0.195 0.707 0l2.146 2.146v-1.293c0-4.136-3.364-7.5-7.5-7.5s-7.5 3.364-7.5 7.5c0 4.136 3.364 7.5 7.5 7.5 0.276 0 0.5 0.224 0.5 0.5s-0.224 0.5-0.5 0.5c-2.27 0-4.405-0.884-6.010-2.49s-2.49-3.74-2.49-6.010c0-2.27 0.884-4.405 2.49-6.010z"/>
  </symbol>
  <symbol id="search">
    <path fill="#000000" d="M18.869 19.162l-5.943-6.484c1.339-1.401 2.075-3.233 2.075-5.178 0-2.003-0.78-3.887-2.197-5.303s-3.3-2.197-5.303-2.197-3.887 0.78-5.303 2.197-2.197 3.3-2.197 5.303 0.78 3.887 2.197 5.303 3.3 2.197 5.303 2.197c1.726 0 3.362-0.579 4.688-1.645l5.943 6.483c0.099 0.108 0.233 0.162 0.369 0.162 0.121 0 0.242-0.043 0.338-0.131 0.204-0.187 0.217-0.503 0.031-0.706zM1 7.5c0-3.584 2.916-6.5 6.5-6.5s6.5 2.916 6.5 6.5-2.916 6.5-6.5 6.5-6.5-2.916-6.5-6.5z"/>
  </symbol>
  <symbol id="sun">
    <path fill="#000000" d="M9.5 14.993c-2.477 0-4.493-2.015-4.493-4.493s2.015-4.493 4.493-4.493 4.493 2.015 4.493 4.493-2.015 4.493-4.493 4.493zM9.5 7.007c-1.926 0-3.493 1.567-3.493 3.493s1.567 3.493 3.493 3.493 3.493-1.567 3.493-3.493-1.567-3.493-3.493-3.493z"/>
    <path fill="#000000" d="M9.5 5c-0.276 0-0.5-0.224-0.5-0.5v-3c0-0.276 0.224-0.5 0.5-0.5s0.5 0.224 0.5 0.5v3c0 0.276-0.224 0.5-0.5 0.5z"/>
    <path fill="#000000" d="M9.5 20c-0.276 0-0.5-0.224-0.5-0.5v-3c0-0.276 0.224-0.5 0.5-0.5s0.5 0.224 0.5 0.5v3c0 0.276-0.224 0.5-0.5 0.5z"/>
    <path fill="#000000" d="M3.5 11h-3c-0.276 0-0.5-0.224-0.5-0.5s0.224-0.5 0.5-0.5h3c0.276 0 0.5 0.224 0.5 0.5s-0.224 0.5-0.5 0.5z"/>
    <path fill="#000000" d="M18.5 11h-3c-0.276 0-0.5-0.224-0.5-0.5s0.224-0.5 0.5-0.5h3c0.276 0 0.5 0.224 0.5 0.5s-0.224 0.5-0.5 0.5z"/>
    <path fill="#000000" d="M4.5 6c-0.128 0-0.256-0.049-0.354-0.146l-2-2c-0.195-0.195-0.195-0.512 0-0.707s0.512-0.195 0.707 0l2 2c0.195 0.195 0.195 0.512 0 0.707-0.098 0.098-0.226 0.146-0.354 0.146z"/>
    <path fill="#000000" d="M2.5 18c-0.128 0-0.256-0.049-0.354-0.146-0.195-0.195-0.195-0.512 0-0.707l2-2c0.195-0.195 0.512-0.195 0.707 0s0.195 0.512 0 0.707l-2 2c-0.098 0.098-0.226 0.146-0.354 0.146z"/>
    <path fill="#000000" d="M16.5 18c-0.128 0-0.256-0.049-0.354-0.146l-2-2c-0.195-0.195-0.195-0.512 0-0.707s0.512-0.195 0.707 0l2 2c0.195 0.195 0.195 0.512 0 0.707-0.098 0.098-0.226 0.146-0.354 0.146z"/>
    <path fill="#000000" d="M14.5 6c-0.128 0-0.256-0.049-0.354-0.146-0.195-0.195-0.195-0.512 0-0.707l2-2c0.195-0.195 0.512-0.195 0.707 0s0.195 0.512 0 0.707l-2 2c-0.098 0.098-0.226 0.146-0.354 0.146z"/>
  </symbol>
  <symbol id="sync">
    <path fill="#000000" d="M19.854 8.646c-0.195-0.195-0.512-0.195-0.707 0l-1.149 1.149c-0.051-2.060-0.878-3.99-2.341-5.452-1.511-1.511-3.52-2.343-5.657-2.343-2.974 0-5.686 1.635-7.077 4.266-0.129 0.244-0.036 0.547 0.208 0.676s0.547 0.036 0.676-0.208c1.217-2.303 3.59-3.734 6.193-3.734 3.789 0 6.885 3.027 6.997 6.789l-1.143-1.143c-0.195-0.195-0.512-0.195-0.707 0s-0.195 0.512 0 0.707l2 2c0.098 0.098 0.226 0.146 0.354 0.146s0.256-0.049 0.354-0.146l2-2c0.195-0.195 0.195-0.512 0-0.707z"/>
    <path fill="#000000" d="M16.869 13.058c-0.244-0.129-0.547-0.036-0.676 0.208-1.217 2.303-3.59 3.734-6.193 3.734-3.789 0-6.885-3.027-6.997-6.789l1.143 1.143c0.098 0.098 0.226 0.146 0.354 0.146s0.256-0.049 0.354-0.146c0.195-0.195 0.195-0.512 0-0.707l-2-2c-0.195-0.195-0.512-0.195-0.707 0l-2 2c-0.195 0.195-0.195 0.512 0 0.707s0.512 0.195 0.707 0l1.149-1.149c0.051 2.060 0.878 3.99 2.341 5.452 1.511 1.511 3.52 2.343 5.657 2.343 2.974 0 5.686-1.635 7.077-4.266 0.129-0.244 0.036-0.547-0.208-0.676z"/>
  </symbol>
  <symbol id="tablet">
    <path fill="#000000" d="M16.5 20h-13c-0.827 0-1.5-0.673-1.5-1.5v-17c0-0.827 0.673-1.5 1.5-1.5h13c0.827 0 1.5 0.673 1.5 1.5v17c0 0.827-0.673 1.5-1.5 1.5zM3.5 1c-0.276 0-0.5 0.224-0.5 0.5v17c0 0.276 0.224 0.5 0.5 0.5h13c0.276 0 0.5-0.224 0.5-0.5v-17c0-0.276-0.224-0.5-0.5-0.5h-13z"/>
    <path fill="#000000" d="M10.5 18h-1c-0.276 0-0.5-0.224-0.5-0.5s0.224-0.5 0.5-0.5h1c0.276 0 0.5 0.224 0.5 0.5s-0.224 0.5-0.5 0.5z"/>
    <path fill="#000000" d="M15.5 16h-11c-0.276 0-0.5-0.224-0.5-0.5v-13c0-0.276 0.224-0.5 0.5-0.5h11c0.276 0 0.5 0.224 0.5 0.5v13c0 0.276-0.224 0.5-0.5 0.5zM5 15h10v-12h-10v12z"/>
  </symbol>
  <symbol id="tag">
    <path fill="#000000" d="M7.5 19.085c-0.401 0-0.778-0.156-1.061-0.438l-5.086-5.086c-0.283-0.283-0.438-0.659-0.438-1.061s0.156-0.778 0.438-1.061l8.586-8.586c0.487-0.487 1.372-0.854 2.061-0.854h4.5c0.827 0 1.5 0.673 1.5 1.5v4.5c0 0.688-0.367 1.574-0.853 2.061l-8.586 8.586c-0.283 0.283-0.659 0.438-1.061 0.438zM12 3c-0.415 0-1.060 0.267-1.353 0.561l-8.586 8.586c-0.094 0.094-0.145 0.219-0.145 0.354s0.052 0.26 0.145 0.353l5.086 5.086c0.094 0.094 0.219 0.145 0.354 0.145s0.26-0.052 0.354-0.145l8.586-8.586c0.293-0.293 0.561-0.939 0.561-1.354v-4.5c0-0.276-0.224-0.5-0.5-0.5h-4.5z"/>
    <path fill="#000000" d="M14.5 7c-0.827 0-1.5-0.673-1.5-1.5s0.673-1.5 1.5-1.5 1.5 0.673 1.5 1.5-0.673 1.5-1.5 1.5zM14.5 5c-0.276 0-0.5 0.224-0.5 0.5s0.224 0.5 0.5 0.5 0.5-0.224 0.5-0.5-0.224-0.5-0.5-0.5z"/>
  </symbol>
  <symbol id="trash">
    <path fill="#000000" d="M15.5 2h-3.5v-0.5c0-0.827-0.673-1.5-1.5-1.5h-2c-0.827 0-1.5 0.673-1.5 1.5v0.5h-3.5c-0.827 0-1.5 0.673-1.5 1.5v1c0 0.652 0.418 1.208 1 1.414v12.586c0 0.827 0.673 1.5 1.5 1.5h10c0.827 0 1.5-0.673 1.5-1.5v-12.586c0.582-0.206 1-0.762 1-1.414v-1c0-0.827-0.673-1.5-1.5-1.5zM8 1.5c0-0.276 0.224-0.5 0.5-0.5h2c0.276 0 0.5 0.224 0.5 0.5v0.5h-3v-0.5zM14.5 19h-10c-0.276 0-0.5-0.224-0.5-0.5v-12.5h11v12.5c0 0.276-0.224 0.5-0.5 0.5zM16 4.5c0 0.276-0.224 0.5-0.5 0.5h-12c-0.276 0-0.5-0.224-0.5-0.5v-1c0-0.276 0.224-0.5 0.5-0.5h12c0.276 0 0.5 0.224 0.5 0.5v1z"/>
    <path fill="#000000" d="M12.5 7c-0.276 0-0.5 0.224-0.5 0.5v10c0 0.276 0.224 0.5 0.5 0.5s0.5-0.224 0.5-0.5v-10c0-0.276-0.224-0.5-0.5-0.5z"/>
    <path fill="#000000" d="M9.5 7c-0.276 0-0.5 0.224-0.5 0.5v10c0 0.276 0.224 0.5 0.5 0.5s0.5-0.224 0.5-0.5v-10c0-0.276-0.224-0.5-0.5-0.5z"/>
    <path fill="#000000" d="M6.5 7c-0.276 0-0.5 0.224-0.5 0.5v10c0 0.276 0.224 0.5 0.5 0.5s0.5-0.224 0.5-0.5v-10c0-0.276-0.224-0.5-0.5-0.5z"/>
  </symbol>
  <symbol id="undo">
    <path fill="#000000" d="M17.51 4.49c-1.605-1.605-3.74-2.49-6.010-2.49s-4.405 0.884-6.010 2.49-2.49 3.74-2.49 6.010v1.293l-2.146-2.146c-0.195-0.195-0.512-0.195-0.707 0s-0.195 0.512 0 0.707l3 3c0.098 0.098 0.226 0.146 0.354 0.146s0.256-0.049 0.354-0.146l3-3c0.195-0.195 0.195-0.512 0-0.707s-0.512-0.195-0.707 0l-2.146 2.146v-1.293c0-4.136 3.364-7.5 7.5-7.5s7.5 3.364 7.5 7.5-3.364 7.5-7.5 7.5c-0.276 0-0.5 0.224-0.5 0.5s0.224 0.5 0.5 0.5c2.27 0 4.405-0.884 6.010-2.49s2.49-3.74 2.49-6.010c0-2.27-0.884-4.405-2.49-6.010z"/>
  </symbol>
  <symbol id="upload">
    <path fill="#000000" d="M17.5 19h-16c-0.827 0-1.5-0.673-1.5-1.5v-2c0-0.276 0.224-0.5 0.5-0.5s0.5 0.224 0.5 0.5v2c0 0.276 0.224 0.5 0.5 0.5h16c0.276 0 0.5-0.224 0.5-0.5v-2c0-0.276 0.224-0.5 0.5-0.5s0.5 0.224 0.5 0.5v2c0 0.827-0.673 1.5-1.5 1.5z"/>
    <path fill="#000000" d="M14.854 8.646l-5-5c-0.195-0.195-0.512-0.195-0.707 0l-5 5c-0.195 0.195-0.195 0.512 0 0.707s0.512 0.195 0.707 0l4.146-4.146v10.293c0 0.276 0.224 0.5 0.5 0.5s0.5-0.224 0.5-0.5v-10.293l4.146 4.146c0.098 0.098 0.226 0.146 0.354 0.146s0.256-0.049 0.354-0.146c0.195-0.195 0.195-0.512 0-0.707z"/>
  </symbol>
  <symbol id="user">
    <path fill="#000000" d="M9.5 11c-3.033 0-5.5-2.467-5.5-5.5s2.467-5.5 5.5-5.5 5.5 2.467 5.5 5.5-2.467 5.5-5.5 5.5zM9.5 1c-2.481 0-4.5 2.019-4.5 4.5s2.019 4.5 4.5 4.5c2.481 0 4.5-2.019 4.5-4.5s-2.019-4.5-4.5-4.5z"/>
    <path fill="#000000" d="M17.5 20h-16c-0.827 0-1.5-0.673-1.5-1.5 0-0.068 0.014-1.685 1.225-3.3 0.705-0.94 1.67-1.687 2.869-2.219 1.464-0.651 3.283-0.981 5.406-0.981s3.942 0.33 5.406 0.981c1.199 0.533 2.164 1.279 2.869 2.219 1.211 1.615 1.225 3.232 1.225 3.3 0 0.827-0.673 1.5-1.5 1.5zM9.5 13c-3.487 0-6.060 0.953-7.441 2.756-1.035 1.351-1.058 2.732-1.059 2.746 0 0.274 0.224 0.498 0.5 0.498h16c0.276 0 0.5-0.224 0.5-0.5-0-0.012-0.023-1.393-1.059-2.744-1.382-1.803-3.955-2.756-7.441-2.756z"/>
  </symbol>
  <symbol id="users">
    <path fill="#000000" d="M18.5 18h-11c-0.827 0-1.5-0.673-1.5-1.5 0-0.048 0.011-1.19 0.924-2.315 0.525-0.646 1.241-1.158 2.128-1.522 1.071-0.44 2.4-0.662 3.948-0.662s2.876 0.223 3.948 0.662c0.887 0.364 1.603 0.876 2.128 1.522 0.914 1.125 0.924 2.267 0.924 2.315 0 0.827-0.673 1.5-1.5 1.5zM7 16.503c0.001 0.275 0.225 0.497 0.5 0.497h11c0.275 0 0.499-0.223 0.5-0.497-0.001-0.035-0.032-0.895-0.739-1.734-0.974-1.157-2.793-1.768-5.261-1.768s-4.287 0.612-5.261 1.768c-0.707 0.84-0.738 1.699-0.739 1.734z"/>
    <path fill="#000000" d="M13 11c-2.206 0-4-1.794-4-4s1.794-4 4-4 4 1.794 4 4c0 2.206-1.794 4-4 4zM13 4c-1.654 0-3 1.346-3 3s1.346 3 3 3 3-1.346 3-3-1.346-3-3-3z"/>
    <path fill="#000000" d="M4.5 18h-3c-0.827 0-1.5-0.673-1.5-1.5 0-0.037 0.008-0.927 0.663-1.8 0.378-0.505 0.894-0.904 1.533-1.188 0.764-0.34 1.708-0.512 2.805-0.512 0.179 0 0.356 0.005 0.527 0.014 0.276 0.015 0.487 0.25 0.473 0.526s-0.25 0.488-0.526 0.473c-0.153-0.008-0.312-0.012-0.473-0.012-3.894 0-3.997 2.379-4 2.503 0.001 0.274 0.225 0.497 0.5 0.497h3c0.276 0 0.5 0.224 0.5 0.5s-0.224 0.5-0.5 0.5z"/>
    <path fill="#000000" d="M5 12c-1.654 0-3-1.346-3-3s1.346-3 3-3 3 1.346 3 3-1.346 3-3 3zM5 7c-1.103 0-2 0.897-2 2s0.897 2 2 2 2-0.897 2-2c0-1.103-0.897-2-2-2z"/>
  </symbol>
  <symbol id="video">
    <path fill="#000000" d="M19.131 17.053c-0 0-0 0-0 0-0.242-0-0.485-0.097-0.724-0.288l-3.438-2.751c-0.552-0.442-0.969-1.308-0.969-2.015v-3c0-0.707 0.416-1.573 0.969-2.015l3.438-2.751c0.239-0.191 0.482-0.288 0.724-0.288 0.433-0 0.869 0.326 0.869 1.053v11c0 0.278-0.064 0.512-0.19 0.694-0.157 0.228-0.405 0.359-0.679 0.359zM19 5.040l-3.407 2.725c-0.31 0.248-0.593 0.837-0.593 1.234v3c0 0.398 0.283 0.986 0.593 1.234l3.407 2.725v-10.919z"/>
    <path fill="#000000" d="M11.5 17h-10c-0.827 0-1.5-0.673-1.5-1.5v-10c0-0.827 0.673-1.5 1.5-1.5h10c0.827 0 1.5 0.673 1.5 1.5v10c0 0.827-0.673 1.5-1.5 1.5zM1.5 5c-0.276 0-0.5 0.224-0.5 0.5v10c0 0.276 0.224 0.5 0.5 0.5h10c0.276 0 0.5-0.224 0.5-0.5v-10c0-0.276-0.224-0.5-0.5-0.5h-10z"/>
  </symbol>
  <symbol id="warn">
    <path fill="#000000" d="M18.5 19h-18c-0.178 0-0.342-0.094-0.432-0.248s-0.091-0.343-0.004-0.498l9-16c0.089-0.157 0.255-0.255 0.436-0.255s0.347 0.097 0.436 0.255l9 16c0.087 0.155 0.085 0.344-0.004 0.498s-0.254 0.248-0.432 0.248zM1.355 18h16.29l-8.145-14.48-8.145 14.48z"/>
    <path fill="#000000" d="M9.5 14c-0.276 0-0.5-0.224-0.5-0.5v-5c0-0.276 0.224-0.5 0.5-0.5s0.5 0.224 0.5 0.5v5c0 0.276-0.224 0.5-0.5 0.5z"/>
    <path fill="#000000" d="M9.5 17c-0.276 0-0.5-0.224-0.5-0.5v-1c0-0.276 0.224-0.5 0.5-0.5s0.5 0.224 0.5 0.5v1c0 0.276-0.224 0.5-0.5 0.5z"/>
  </symbol>
</svg>