<?xml version="1.0" encoding="UTF-8" standalone="yes"?>
<svg viewBox="0 0 24 24" xmlns="http://www.w3.org/2000/svg">
  <symbol id="_attach">
    <g fill-rule="nonzero">
      <path d="M20.438 11.904H3.58V2.721A2.543 2.543 0 015.866 0h12.285a2.543 2.543 0 012.286 2.721v9.183h.001zM18.151 24H5.866a2.543 2.543 0 01-2.286-2.721v-3.741h16.858v3.743A2.552 2.552 0 0118.151 24z" fill="#21c9b8"/>
      <path d="M17.959 4.87h-11.9a.683.683 0 01-.68-.68c0-.373.307-.68.68-.68h11.9c.373 0 .68.307.68.68a.694.694 0 01-.68.68z" fill="#fff"/>
      <path d="M21.6 19.945H2.4A2.586 2.586 0 010 17.224v-6.122a2.587 2.587 0 012.4-2.721h19.2a2.586 2.586 0 012.4 2.721v6.118a2.587 2.587 0 01-2.4 2.721v.004z" fill="#90e4dc"/>
      <path d="M17.959 7.522h-11.9a.684.684 0 01-.681-.68c0-.374.308-.681.681-.681h11.9c.373 0 .68.307.68.68a.694.694 0 01-.68.68v.001z" fill="#fff"/>
      <g fill="#fff">
        <path d="M9.311 15.27h.072l.376-.161c.036-.018.072-.072.054-.107-.16-.4-.345-.788-.555-1.164a.1.1 0 00-.125-.036l-.322.161a.087.087 0 00-.05.078c0 .017.005.033.014.047.179.358.34.752.5 1.164.01.01.022.016.036.018zm-1.915-1.361c.179-.483.322-.949.448-1.36v-.376-.005a.085.085 0 00-.085-.085H6.263a.085.085 0 00-.085.085V16.939c0 .047.038.085.085.085h.385a.085.085 0 00.085-.085v-.845h.018a2.5 2.5 0 00.519 0c.483-.09.68-.483.573-1.181a2.794 2.794 0 00-.447-1.004zm-.662-1.289h.483c-.143.5-.286.967-.412 1.36-.018.036 0 .054.018.09.215.254.369.554.448.877.072.376.018.591-.161.627-.12.011-.24.005-.358-.018V12.62h-.018z"/>
        <path d="M8.971 11.994c-.018-.018-.036-.036-.054-.036l-.394-.09c-.054-.018-.09.018-.107.072a7.257 7.257 0 01-.9 2.023.113.113 0 000 .107c.077.113.144.233.2.358.018.036.036.054.072.054a.139.139 0 00.089-.036c.072-.107.143-.215.215-.34v2.85c0 .047.038.085.085.085h.404a.085.085 0 00.085-.085v-3.978c.107-.269.215-.573.322-.877 0-.054 0-.089-.018-.107h.001z"/>
        <path d="M11.084 12.961h-.555v-1-.004a.085.085 0 00-.085-.085h-.406a.085.085 0 00-.085.085v1.004H8.748a.085.085 0 00-.085.085v.386c0 .047.038.085.085.085H9.953v2.56c0 .179-.089.268-.286.268a4.709 4.709 0 01-.627-.054c-.036 0-.054 0-.072.036-.018.036-.036.054-.018.072a2.1 2.1 0 01.072.43.082.082 0 00.09.072c.215 0 .412.018.609.018.537 0 .823-.269.823-.77V13.5h.56a.085.085 0 00.085-.085v-.381a.147.147 0 00-.107-.072l.002-.001zm3.186-.913c-.018-.018-.036-.036-.054-.036l-.412-.125h-.072c-.018.018-.036.036-.036.054a9.386 9.386 0 01-1.11 2.488.08.08 0 000 .089c.067.14.127.284.179.43.018.036.036.054.072.054s.072 0 .09-.036c.146-.187.277-.385.394-.591V16.922c0 .047.038.085.085.085h.402a.085.085 0 00.085-.085v-3.713c.156-.361.287-.732.394-1.11a.064.064 0 00-.017-.051z"/>
        <path d="M17.743 14.698h-1.289v-1.11H17.587a.085.085 0 00.085-.085v-.363-.005a.085.085 0 00-.085-.085H16.454v-1.092-.005a.085.085 0 00-.085-.085h-.421a.085.085 0 00-.085.085v1.097h-.644c.054-.2.125-.394.179-.609a.088.088 0 00-.054-.107l-.412-.125a.108.108 0 00-.072.018c-.018.018-.036.036-.036.054a6.94 6.94 0 01-.7 1.88.095.095 0 00.036.125c.119.075.227.165.322.268.018.018.054.036.072.018a.092.092 0 00.072-.036c.172-.297.315-.608.43-.931h.823v1.11h-1.688a.085.085 0 00-.085.085v.367c0 .047.038.085.085.085h1.688v1.688c0 .047.038.085.085.085h.421a.085.085 0 00.085-.085v-1.688h1.295a.085.085 0 00.084-.084v-.358a.13.13 0 00-.106-.112z"/>
      </g>
    </g>
  </symbol>
  <symbol id="_collect">
    <path d="M5.51 2.186a2.735 2.735 0 002.67 2.181h7.638a2.737 2.737 0 002.67-2.181h2.237A3.287 3.287 0 0124 5.452v15.282A3.285 3.285 0 0120.73 24H3.273A3.289 3.289 0 010 20.734V5.452a3.285 3.285 0 013.27-3.266H5.51zM6.547 8.73c-.598 0-1.091.493-1.091 1.091s.493 1.091 1.091 1.091h6.547c.598 0 1.091-.493 1.091-1.09 0-.599-.493-1.092-1.091-1.092H6.547zm0 4.363c-.598 0-1.091.493-1.091 1.091s.493 1.091 1.091 1.091h10.912c.598 0 1.09-.493 1.09-1.09 0-.599-.492-1.092-1.09-1.092H6.547zm0 4.364c-.598 0-1.091.492-1.091 1.09 0 .598.493 1.091 1.091 1.091h6.547c.598 0 1.091-.493 1.091-1.09 0-.599-.493-1.091-1.091-1.091H6.547zM8.183 0h7.638c.898 0 1.638.738 1.638 1.637 0 .897-.74 1.635-1.638 1.635H8.183a1.644 1.644 0 01-1.636-1.635C6.547.738 7.286 0 8.183 0z" fill="#508cff" fill-rule="nonzero"/>
  </symbol>
  <symbol id="_image">
    <path fill="#e0f0ff" fill-rule="nonzero" d="M0 0h23v23H0z"/>
    <path d="M9.01 12.011a2.659 2.659 0 01-1.179-.266 3.002 3.002 0 01-.949-.724 3.605 3.605 0 01-.642-1.065 3.55 3.55 0 01.642-3.631c.267-.297.589-.539.949-.713a2.66 2.66 0 011.179-.267c.402-.002.799.089 1.16.266.36.174.682.416.949.713a3.567 3.567 0 010 4.696 3.002 3.002 0 01-.949.724 2.605 2.605 0 01-1.16.266v.001zM24 24H0V0h24v24zM21.603 2.662H2.415v16.461c.23-.369.486-.738.767-1.107.269-.355.564-.689.882-1a5.01 5.01 0 01.949-.735c.297-.184.638-.283.987-.288.345-.004.689.03 1.026.1.263.056.52.138.767.245.215.095.424.205.623.33.199.125.408.235.623.33.244.106.497.188.757.245.334.071.675.104 1.016.1.38.006.748-.135 1.026-.394.312-.291.581-.624.8-.99.243-.4.485-.826.728-1.278.239-.448.514-.876.824-1.278a4.13 4.13 0 011.093-.99 2.841 2.841 0 011.534-.394 2.456 2.456 0 011.476.522c.502.378.943.832 1.307 1.344a12.88 12.88 0 011.112 1.853c.339.681.636 1.348.891 2V2.662z" fill="#508cff" fill-rule="nonzero"/>
  </symbol>
  <symbol id="_user">
    <path d="M12 0c6.583 0 12 5.417 12 12s-5.417 12-12 12S0 18.583 0 12 5.417 0 12 0z" fill="#edf6fe" fill-rule="nonzero"/>
    <path d="M17.814 11.16c-1.706 1.042-5.222-.764-5.81-3.253-.587 2.498-4.121 4.31-5.818 3.242a5.033 5.033 0 01-.007-.265v.1c0 3.192 2.628 5.82 5.82 5.82 3.125 0 5.72-2.516 5.817-5.64l-.002-.004z" fill="#fce9ea" fill-rule="nonzero"/>
    <path d="M14.673 17.213l.067.023c-.066.186-.15.365-.253.534.416.636.313 3.419-.312 2.979l-1.09-.764L12 19.221l.071-.05h-.145l.071.05-1.086.764-1.09.764c-.623.44-.728-2.35-.311-2.981a2.894 2.894 0 01-.25-.53l.067-.025a6.755 6.755 0 00-4.381 4.577 12.388 12.388 0 0014.113 0 6.757 6.757 0 00-4.384-4.575v-.002zm-3.74-.374l.103-.014-.103.014zm-.675.115l.1-.02-.1.02zm-.318.073h.007-.007zm3.703-.093l.102.02-.102-.02zm.727.18l.105.032-.105-.033zm-.321-.09l.02.006-.02-.005zm-4.518.12l.1-.03-.1.03zm3.433-.317l.104.013-.104-.013z" fill="#508cff" fill-rule="nonzero"/>
    <path d="M9.508 17.768c.083-.125.187-.166.311-.079l1.09.765 1.015.717h.145l1.016-.718 1.09-.764c.124-.087.228-.046.311.082.102-.17.187-.348.253-.534l-.066-.024a7.007 7.007 0 00-.199-.064l-.105-.033c-.1-.03-.2-.058-.3-.083l-.021-.005a8.412 8.412 0 00-.304-.07l-.102-.02a7.893 7.893 0 00-.574-.094l-.104-.013a8.285 8.285 0 00-.338-.033h-.665c-.046.003-.091.003-.137 0h-.448a8.33 8.33 0 00-.34.033l-.102.013a9.373 9.373 0 00-.576.094l-.101.02a7.475 7.475 0 00-.311.071h-.007a8.926 8.926 0 00-.31.086l-.099.031-.206.068-.068.025c.066.184.15.362.252.529z" fill="#fff" fill-rule="nonzero"/>
    <path d="M14.174 17.69l-1.09.763-1.015.718-.07.05 1.086.764 1.09.764c.624.44.728-2.343.311-2.98-.083-.126-.187-.167-.312-.08zm-4.355 0c-.124-.088-.228-.047-.311.078-.418.631-.312 3.421.311 2.981l1.09-.764 1.086-.764-.07-.05-1.016-.718-1.09-.764z" fill="#ffb67e" fill-rule="nonzero"/>
    <path d="M12.004 7.907V5.152c-3.165-.009-5.783 2.57-5.825 5.733 0 .088 0 .176.007.265 1.692 1.066 5.23-.744 5.818-3.243z" fill="#acd7fe" fill-rule="nonzero"/>
    <path d="M12.004 7.906c.588 2.489 4.104 4.295 5.81 3.253l.02-.01.002-.195c0-3.184-2.62-5.803-5.803-5.803h-.03v2.755z" fill="#61b1f9" fill-rule="nonzero"/>
  </symbol>
  <symbol id="_wechat">
    <path d="M12 0C5.417 0 0 5.417 0 12s5.417 12 12 12 12-5.417 12-12S18.583 0 12 0zm6.017 10.786a3.559 3.559 0 01-2.047 1.541 1.934 1.934 0 01-.574.1l-.026.001a.685.685 0 01-.682-.682c0-.375.308-.682.682-.682h.026a.373.373 0 00.151-.029 2.146 2.146 0 001.31-.96 1.76 1.76 0 00.259-.929 2.117 2.117 0 00-2.21-1.966c-.42.001-.833.109-1.2.314a1.922 1.922 0 00-1.025 1.651v5.724a3.25 3.25 0 01-1.7 2.822 3.743 3.743 0 01-1.87.48 3.494 3.494 0 01-3.6-3.329 3.198 3.198 0 01.46-1.642 3.559 3.559 0 012.047-1.541 2 2 0 01.574-.1l.026-.001c.374 0 .682.308.682.682a.685.685 0 01-.682.682h-.026a.373.373 0 00-.151.029 2.25 2.25 0 00-1.31.96 1.76 1.76 0 00-.259.929A2.123 2.123 0 009.1 16.812c.42-.001.833-.109 1.2-.314a1.921 1.921 0 001.022-1.651v-5.7a3.256 3.256 0 011.706-2.825 3.547 3.547 0 011.855-.5 3.494 3.494 0 013.6 3.329 3.186 3.186 0 01-.463 1.637l-.003-.002z" fill="#e0f0ff" fill-rule="nonzero"/>
    <path d="M18.037 10.779a3.574 3.574 0 01-2.057 1.549c-.186.062-.38.096-.576.1a.688.688 0 01-.684-.684c0-.375.309-.684.684-.684a.377.377 0 00.152-.029 2.152 2.152 0 001.315-.964 1.77 1.77 0 00.26-.932 2.125 2.125 0 00-2.218-1.973c-.42.002-.833.11-1.2.316a1.931 1.931 0 00-1.033 1.653v5.748a3.26 3.26 0 01-1.71 2.833 3.754 3.754 0 01-1.876.482 3.506 3.506 0 01-3.612-3.341c.003-.58.164-1.148.465-1.643a3.576 3.576 0 012.054-1.547c.186-.061.38-.095.576-.1.375 0 .684.309.684.684a.688.688 0 01-.684.684.377.377 0 00-.152.029 2.257 2.257 0 00-1.315.964 1.77 1.77 0 00-.26.932 2.13 2.13 0 002.232 1.973c.42-.002.833-.11 1.2-.316a1.93 1.93 0 001.026-1.657V9.139a3.267 3.267 0 011.712-2.835 3.555 3.555 0 011.861-.506 3.506 3.506 0 013.612 3.341 3.194 3.194 0 01-.465 1.643l.009-.003z" fill="#508cff" fill-rule="nonzero"/>
  </symbol>
  <symbol id="add_c">
    <path d="M0 12C.007 5.42 5.42.007 12 0c6.58.007 11.993 5.42 12 12-.008 6.58-5.42 11.992-12 12C5.42 23.993.007 18.58 0 12zm2.22 0c.006 5.363 4.417 9.774 9.78 9.78 5.363-.006 9.774-4.417 9.78-9.78-.006-5.363-4.417-9.774-9.78-9.78-5.363.006-9.774 4.417-9.78 9.78zm8.58 6v-4.8H6c-.659 0-1.2-.541-1.2-1.2 0-.659.541-1.2 1.2-1.2h4.8V6c0-.659.541-1.2 1.2-1.2.659 0 1.2.541 1.2 1.2v4.8H18c.659 0 1.2.541 1.2 1.2 0 .659-.541 1.2-1.2 1.2h-4.8V18c0 .659-.541 1.2-1.2 1.2-.659 0-1.2-.541-1.2-1.2z" fill-rule="nonzero"/>
  </symbol>
  <symbol id="alarm">
    <path d="M14.21 2.136A2.243 2.243 0 0011.988 0C10.8 0 9.812.95 9.765 2.136c0 .118.01.236.03.353a8.464 8.464 0 00-5.586 7.894v2.932s0 4.23-1.082 4.261l-.062-.002c-.585 0-1.066.482-1.066 1.066 0 .586.48 1.067 1.066 1.067h17.818l.044.001c.586 0 1.068-.48 1.071-1.066a1.07 1.07 0 00-1.066-1.067l-.049.001c-1.11 0-1.11-4.229-1.11-4.229v-2.964a8.247 8.247 0 00-5.587-7.902c.017-.115.025-.23.024-.345zm1.11 18.64a3.365 3.365 0 01-3.333 3.212 3.366 3.366 0 01-3.334-3.213h6.668l-.001.001z" fill-rule="nonzero"/>
  </symbol>
  <symbol id="arr_a_down">
    <path d="M13.188 18.205a1.47 1.47 0 01-1.224.553c-.433.073-.84-.264-1.176-.553L.395 7.765a1.358 1.358 0 011.92-1.92l9.673 9.937 9.696-9.936a1.358 1.358 0 011.92 1.92L13.188 18.205z" fill-rule="nonzero"/>
  </symbol>
  <symbol id="arr_a_left">
    <path d="M6.015 10.812c-.37.295-.576.75-.553 1.223-.074.433.264.84.553 1.176l10.44 10.394a1.358 1.358 0 001.92-1.92l-9.936-9.673 9.935-9.696a1.358 1.358 0 00-1.92-1.92L6.015 10.812z" fill-rule="nonzero"/>
  </symbol>
  <symbol id="arr_a_right">
    <path d="M18.205 10.812c.37.295.577.751.553 1.224.073.433-.264.84-.553 1.176L7.765 23.605a1.358 1.358 0 01-1.92-1.92l9.937-9.673-9.936-9.696a1.358 1.358 0 011.92-1.92l10.439 10.416z" fill-rule="nonzero"/>
  </symbol>
  <symbol id="arr_a_up">
    <path d="M10.812 5.795a1.47 1.47 0 011.224-.553c.433-.073.84.264 1.176.553l10.393 10.44a1.358 1.358 0 01-1.92 1.92l-9.673-9.937-9.696 9.935a1.358 1.358 0 01-1.92-1.92L10.812 5.796z" fill-rule="nonzero"/>
  </symbol>
  <symbol id="arr_b_left">
    <path d="M9.966 12l9.1-9.247L16.32.001 4.354 12l11.967 12 2.744-2.753L9.966 12z" fill-rule="nonzero"/>
  </symbol>
  <symbol id="chart">
    <path d="M12.025 24h-.007C5.425 24 0 18.579 0 11.992 0 7.172 2.903 2.8 7.347.927A12.026 12.026 0 0111.979 0c6.595 0 12.022 5.422 12.022 12.011 0 4.8-2.88 9.16-7.298 11.046-1.48.625-3.07.946-4.678.943zM6.088 14.87v2.552h1.996V14.87H6.088zm9.135-4.148v6.702h2.046v-6.706l-2.046.004zm-3.045 2.527v4.171h2.032v-4.17h-2.032zm-3.045-.995v5.165h2.046v-5.165H9.133zm1.144-4.339l-4.743 4.422.656.953 4.063-3.827 2.755 2.868 3.348-4.111.92.962v-2.58H14.64l.93.992-2.563 3.034-2.731-2.713z" fill-rule="nonzero"/>
  </symbol>
  <symbol id="cmt">
    <path d="M12 21.778l-3.113-2.392H3C1.355 19.384.002 18.131 0 16.609L.009 5.276C.01 3.754 1.363 2.502 3.007 2.5H21c1.645.001 2.998 1.253 3 2.776l-.01 11.333c-.002 1.522-1.356 2.774-3 2.776h-5.896L12 21.777v.001zM18.75 9.445c-.822 0-1.5.627-1.5 1.388 0 .761.678 1.388 1.5 1.388s1.5-.627 1.5-1.388c-.002-.761-.678-1.387-1.5-1.388zm-6.748 0c-.822.001-1.499.627-1.499 1.388 0 .761.678 1.388 1.5 1.388s1.5-.627 1.5-1.388c-.002-.762-.678-1.388-1.501-1.388h-.004.004zm-6.748 0c-.822 0-1.499.627-1.499 1.388 0 .761.677 1.388 1.5 1.388.821 0 1.499-.627 1.499-1.388-.001-.761-.678-1.387-1.5-1.388z" fill-rule="nonzero"/>
  </symbol>
  <symbol id="cmt_c">
    <path d="M12 24a11.968 11.968 0 01-8.49-3.514A11.968 11.968 0 010 12a11.968 11.968 0 013.514-8.49A11.968 11.968 0 0112 0a11.968 11.968 0 018.49 3.514A11.968 11.968 0 0124 12a11.968 11.968 0 01-3.514 8.49A11.968 11.968 0 0112 24zM8.005 8.27a1.52 1.52 0 00-1.51 1.51v4.946a1.518 1.518 0 001.51 1.509h4.255c.014.01 1.758 1.431 1.997 1.618a.476.476 0 00.246.124.075.075 0 00.056-.022.139.139 0 00.029-.102v-1.618h1.727a1.52 1.52 0 001.51-1.509V9.78a1.52 1.52 0 00-1.51-1.51h-8.31zm6.582 4.854a.815.815 0 01-.81-.81.815.815 0 01.81-.81.815.815 0 01.81.81.815.815 0 01-.811.81zm-2.428 0a.815.815 0 01-.81-.81.815.815 0 01.81-.81.815.815 0 01.81.81.815.815 0 01-.81.81zm-2.427 0a.815.815 0 01-.81-.81.815.815 0 01.81-.81.815.815 0 01.81.81.815.815 0 01-.811.81h.001z" fill-rule="nonzero"/>
  </symbol>
  <symbol id="del">
    <path d="M21.554 23.58l-9.555-9.553-9.555 9.553a1.441 1.441 0 01-2.028 0 1.44 1.44 0 010-2.027L9.972 12 .416 2.447a1.44 1.44 0 010-2.027 1.434 1.434 0 012.028 0l9.555 9.553L21.554.42a1.433 1.433 0 112.025 2.027L14.024 12l9.555 9.553a1.434 1.434 0 11-2.025 2.027z" fill-rule="nonzero"/>
  </symbol>
  <symbol id="del_c">
    <path d="M11.971 24C5.404 24 0 18.595 0 12.028c0-3.173 1.262-6.22 3.506-8.465A11.975 11.975 0 0112.028 0C18.596 0 24 5.404 24 11.972c0 3.202-1.284 6.273-3.563 8.521A11.895 11.895 0 0111.97 24zm0-10.433l3.464 3.468a1.092 1.092 0 101.543-1.544l-3.468-3.463 3.468-3.463a1.09 1.09 0 00.319-.77c0-.597-.491-1.087-1.089-1.087a1.081 1.081 0 00-.769.318l-3.468 3.463-3.463-3.467a1.088 1.088 0 00-1.862.77c0 .289.114.567.32.77l3.467 3.466-3.468 3.463c-.193.203-.3.473-.3.752 0 .599.493 1.092 1.091 1.092.28 0 .55-.108.752-.3l3.463-3.468z" fill-rule="nonzero"/>
  </symbol>
  <symbol id="edit">
    <path d="M3.197 24A3.212 3.212 0 010 20.804V3.196A3.212 3.212 0 013.197 0H12c.657 0 1.2.542 1.2 1.2v.002c0 .658-.543 1.2-1.2 1.2H3.996c-.877 0-1.599.721-1.599 1.597v16c0 .877.722 1.598 1.599 1.598H20c.876 0 1.598-.721 1.598-1.598v-8-.002c0-.658.54-1.198 1.199-1.198h.003c.658 0 1.2.54 1.2 1.198V20.799a3.212 3.212 0 01-3.197 3.195L3.197 24zm4.996-8.349a1.359 1.359 0 010-1.911L20.04 1.895a1.353 1.353 0 011.913 1.913L10.105 15.65a1.353 1.353 0 01-.957.396 1.351 1.351 0 01-.95-.396h-.005z" fill-rule="nonzero"/>
  </symbol>
  <symbol id="fav">
    <path d="M7.015 23.674a2.093 2.093 0 01-2.945-.738 2.285 2.285 0 01-.252-1.657l1.308-5.719a.384.384 0 00-.109-.376l-4.28-3.826A2.277 2.277 0 01.506 8.25c.36-.443.886-.722 1.455-.772l5.617-.47a.339.339 0 00.282-.214l2.164-5.43A2.114 2.114 0 0112.822.168a2.18 2.18 0 011.149 1.196l2.164 5.428c.045.12.155.203.282.216l5.617.47a2.2 2.2 0 011.957 2.38 2.239 2.239 0 01-.733 1.5l-4.28 3.824a.387.387 0 00-.113.37l1.307 5.72a2.227 2.227 0 01-1.579 2.66 2.075 2.075 0 01-1.614-.267L12.17 20.6a.31.31 0 00-.338 0l-4.81 3.065-.007.009z" fill-rule="nonzero"/>
  </symbol>
  <symbol id="file">
    <path d="M22.25 12.216a.664.664 0 00-.478-.196.7.7 0 00-.48.196L20.07 13.41l2.58 2.527 1.152-1.271a.65.65 0 00.199-.463.662.662 0 00-.2-.462l-1.55-1.526zm-8.435-2.674H6.308c-.809 0-1.475-.653-1.475-1.446 0-.793.666-1.446 1.475-1.446l.059.001h7.505c.809 0 1.475.652 1.475 1.445s-.666 1.447-1.475 1.447l-.06-.001h.003zm-2.992 5.817H6.367l-.059.001c-.809 0-1.475-.653-1.475-1.446 0-.793.666-1.446 1.475-1.446h4.572c.808 0 1.474.653 1.474 1.446 0 .793-.666 1.446-1.475 1.446h-.059.003zM17.214 0H3.587C1.62 0 0 1.586 0 3.515v16.97c.001 1.928 1.62 3.514 3.587 3.514h4.952v-3.15L20.8 8.563V3.517C20.8 1.589 19.181.001 17.214 0zM11.78 21.473V24h2.586l7.472-7.4-2.58-2.532-7.478 7.405z" fill-rule="nonzero"/>
  </symbol>
  <symbol id="good">
    <path d="M18.426 23.744H5.514c.135-.25.204-.528.206-.811V9.61c0-.147-.02-.295-.058-.436 1.665-.475 4.564-1.99 5.28-6.812A2.375 2.375 0 0113.298.2a2.378 2.378 0 012.363 2.49v4.95c.036.32.264.589.575.676h5.447a2.135 2.135 0 011.834.896c.48.772.583 1.723.279 2.581l-2.7 9.878a3.311 3.311 0 01-2.672 2.073zm-14.953-.031H1.682a1.765 1.765 0 01-1.68-1.826V10.63a1.765 1.765 0 011.68-1.82h1.791v.024c.613 0 1.132.358 1.132.78v13.319c0 .425-.519.78-1.132.78z" fill-rule="nonzero"/>
  </symbol>
  <symbol id="grid_c">
    <path d="M12.034 24h-.067C5.4 23.995 0 18.59 0 12.022v-.043C0 5.412 5.401.005 11.968 0h.067C18.6.009 24 5.414 24 11.98v.042C24 18.588 18.6 23.993 12.034 24zm-3.61-11.547a1.896 1.896 0 00-1.879 1.878v1.478a1.892 1.892 0 001.876 1.882h1.484a1.886 1.886 0 001.877-1.877v-1.482a1.894 1.894 0 00-1.879-1.88H8.424zm6.64-.047a2.64 2.64 0 00-2.629 2.628 2.64 2.64 0 002.628 2.628 2.64 2.64 0 002.628-2.628v-.001a2.644 2.644 0 00-2.627-2.627zm-.73-5.86A1.895 1.895 0 0012.46 8.42V9.9a1.892 1.892 0 001.878 1.882h1.48a1.893 1.893 0 001.88-1.88V8.425a1.892 1.892 0 00-1.88-1.88h-1.485zm-5.911 0A1.898 1.898 0 006.545 8.42V9.9a1.893 1.893 0 001.879 1.882h1.477a1.895 1.895 0 001.88-1.882V8.425a1.892 1.892 0 00-1.88-1.88H8.423zm6.641 10.036h-.005c-.85 0-1.55-.7-1.55-1.55 0-.851.7-1.55 1.55-1.55.85 0 1.55.699 1.55 1.55a1.547 1.547 0 01-1.545 1.55z" fill-rule="nonzero"/>
  </symbol>
  <symbol id="grp">
    <path d="M12 24a11.968 11.968 0 01-8.49-3.514A11.968 11.968 0 010 12a11.968 11.968 0 013.514-8.488A11.968 11.968 0 0112 0a11.93 11.93 0 014.671.944 11.968 11.968 0 013.819 2.57 11.97 11.97 0 012.572 3.82c.623 1.476.942 3.063.938 4.666a11.97 11.97 0 01-3.516 8.49A11.968 11.968 0 0112 24zm3.218-10.56a6.263 6.263 0 00-2.446.58c-1.212.576-1.466 1.263-1.466 1.738v.725a.44.44 0 00.437.436h6.955a.44.44 0 00.437-.436v-.725c0-.475-.255-1.163-1.467-1.738a6.284 6.284 0 00-2.45-.58zm-3.614-.873c-1.233.03-2.451.277-3.6.727-1.781.719-2.156 1.577-2.156 2.17v1.015a.44.44 0 00.437.437H10.2v-1.482a2.36 2.36 0 01.93-1.654 5.098 5.098 0 011.97-1.068 8.857 8.857 0 00-1.469-.143l-.027-.002zm3.615-4.346a2.159 2.159 0 00-1.527.667c-.4.414-.62.973-.606 1.549.01.568.246 1.11.654 1.506.407.402.957.625 1.527.622h.057a2.163 2.163 0 001.459-.626 2.162 2.162 0 00.068-3.033 2.15 2.15 0 00-1.541-.685h-.09zm-5.018-1.745a2.625 2.625 0 00-2.608 2.608 2.625 2.625 0 002.608 2.608 2.625 2.625 0 002.609-2.608 2.623 2.623 0 00-2.61-2.6l.001-.008z" fill-rule="nonzero"/>
  </symbol>
  <symbol id="grp_add">
    <path d="M12.044 24h-.01C5.433 24 0 18.576 0 11.985 0 7.162 2.909 2.787 7.36.914A12.057 12.057 0 0111.962 0C18.566 0 24 5.426 24 12.02c0 4.788-2.867 9.14-7.273 11.036a11.972 11.972 0 01-4.683.945zm2.15-8.598h-.025a.515.515 0 00-.513.512c0 .28.232.512.513.512l.024-.001h1.264v1.25c.002.281.235.51.516.509h.01a.515.515 0 00.516-.508v-1.25h1.272l.024.001a.51.51 0 00.509-.508.51.51 0 00-.509-.508h-1.296v-1.25a.524.524 0 00-.521-.497.524.524 0 00-.522.497v1.242l-1.263-.001zM13.64 7.59h-.02a2.526 2.526 0 00-2.517 2.492 2.452 2.452 0 00.742 1.762c.477.47 1.12.733 1.792.73-.22 0-.44.018-.657.053a2.49 2.49 0 00-.36.055 4.323 4.323 0 00-.422.102l-.057.016a5.302 5.302 0 00-.905.38l-.119.069c-.1.058-.203.118-.302.182-.204.132-.397.28-.575.446l-.163.161-.01.01a4.853 4.853 0 00-1.392 2.536c-.024.141-.054.328-.074.499l-.021.254-.007.261a.105.105 0 00.01.055.45.45 0 00.405.398c.02.008.043.011.065.01h4.344a3.275 3.275 0 01-.416-1.587 3.403 3.403 0 011.47-2.794 3.42 3.42 0 01.328-.209 3.824 3.824 0 011.107-.38l-.043-.014h-.006a4.352 4.352 0 00-.473-.196 2.42 2.42 0 00-.369-.11 1.517 1.517 0 00-.276-.072 4.961 4.961 0 00-.508-.082 3.657 3.657 0 00-.362-.034h-.157a2.542 2.542 0 001.758-.746 2.46 2.46 0 00.726-1.747 2.527 2.527 0 00-2.516-2.5h-.02zm-3.296-1.804A2.533 2.533 0 007.812 8.13c-.042.651.18 1.292.612 1.78.434.494 1.043.801 1.7.856a5.097 5.097 0 00-3.49 1.513 4.918 4.918 0 00-1.436 3.47c.002.272.218.497.49.509h.027l1.969.063a5.497 5.497 0 013.57-3.887 4.41 4.41 0 01-.742-.776c-.045-.063-.429-.617-.378-.83a.408.408 0 00.02-.12c-.006 0-.022.033-.03.053a3.68 3.68 0 01-.064-1.033 2.85 2.85 0 011.97-2.41c.166-.064.34-.11.516-.137a2.529 2.529 0 00-2.118-1.393h-.084z" fill-rule="nonzero"/>
  </symbol>
  <symbol id="home">
    <path d="M4.808 23.222c-1.627-.004-2.964-1.365-2.967-3.02v-7.54l-.13.132a.994.994 0 01-1.417 0 1.026 1.026 0 01-.294-.72c0-.271.105-.531.294-.722L9.9 1.577a2.951 2.951 0 014.2 0l9.606 9.775c.189.19.294.451.294.721 0 .27-.105.53-.294.721a.993.993 0 01-1.419 0l-.13-.133v7.541c-.003 1.655-1.34 3.016-2.967 3.02H4.808zm6.51-20.203l-7.472 7.603v9.58c0 .538.435.98.964.98h14.378c.529 0 .964-.442.964-.98v-9.58l-7.47-7.603a.956.956 0 00-1.362 0h-.001zM6.294 13.398a.96.96 0 01.39-1.292.938.938 0 011.272.397 4.624 4.624 0 004.043 2.674 4.624 4.624 0 004.043-2.674.94.94 0 01.831-.51c.153 0 .304.04.44.113.308.164.5.49.5.844 0 .156-.037.31-.109.448-1.065 2.222-3.276 3.652-5.706 3.691-2.43-.04-4.639-1.47-5.704-3.691z" fill-rule="nonzero"/>
  </symbol>
  <symbol id="loading">
    <path d="M13.545 23.155l-1.074-4.33a1.124 1.124 0 011.094-1.31c.479 0 .906.312 1.055.77l1.075 4.33a1.124 1.124 0 01-1.094 1.31 1.117 1.117 0 01-1.056-.77zm-4.464.812a1.124 1.124 0 01-.81-1.352l1.075-4.33a1.113 1.113 0 011.06-.787 1.122 1.122 0 011.09 1.327l-1.075 4.33c-.15.592-.755.958-1.346.812h.006zm9.383-2.803l-2.974-3.32a1.119 1.119 0 01.825-1.863c.314 0 .615.134.826.37l2.972 3.315a1.116 1.116 0 01-.82 1.862h-.005c-.314 0-.615-.134-.825-.37v.006zm-14.524.071a1.129 1.129 0 01-.082-1.575l2.973-3.316c.21-.235.51-.37.825-.37a1.119 1.119 0 01.825 1.864l-2.972 3.32a1.117 1.117 0 01-1.569.077zm17.924-4.117l-4.147-1.593a1.121 1.121 0 01-.685-1.03 1.122 1.122 0 011.114-1.115c.126 0 .249.022.367.063l4.143 1.599c.442.157.74.58.74 1.052a1.124 1.124 0 01-1.116 1.112 1.12 1.12 0 01-.42-.082l.004-.006zm-21.19-.634a1.128 1.128 0 01.64-1.44l4.143-1.606c.12-.043.247-.065.375-.065.61 0 1.112.501 1.117 1.113 0 .454-.276.864-.695 1.034l-4.141 1.604a1.119 1.119 0 01-1.433-.642l-.006.002zm16.721-4.979a1.124 1.124 0 01.961-1.243l4.409-.543A1.124 1.124 0 0124 10.827a1.122 1.122 0 01-.964 1.106l-4.41.545a1.123 1.123 0 01-1.237-.972h.006zm-12.048.973l-4.41-.546A1.121 1.121 0 010 10.83a1.124 1.124 0 011.209-1.111l4.408.545c.562.06.993.542.993 1.11a1.124 1.124 0 01-1.263 1.104zm11.13-3.403a1.113 1.113 0 01.274-1.56l3.636-2.554c.18-.119.392-.18.607-.18.609 0 1.11.503 1.11 1.115 0 .35-.164.681-.444.892l-3.636 2.559a1.111 1.111 0 01-1.553-.274l.007.002zM5.95 9.347L2.311 6.788a1.119 1.119 0 01-.504-.934V5.85c0-.611.5-1.114 1.11-1.114.241 0 .475.08.667.224l3.64 2.559a1.117 1.117 0 01-.618 2.043c-.236 0-.467-.076-.657-.216zm8.55-2.04a1.124 1.124 0 01-.458-1.507l2.086-3.939c.195-.352.568-.572.97-.573a1.119 1.119 0 01.99 1.62l-2.086 3.943c-.287.54-.964.747-1.501.46v-.003zm-6.526-.456L5.887 2.912A1.123 1.123 0 016.891 1.32c.391 0 .755.208.955.545l2.086 3.938a1.122 1.122 0 01-.971 1.658 1.11 1.11 0 01-.99-.61h.002zm2.903-1.272V1.118A1.12 1.12 0 0111.99 0c.61 0 1.112.504 1.112 1.117v4.496c0 .613-.5 1.115-1.11 1.115a1.123 1.123 0 01-1.11-1.115v-.036l-.005.001z"/>
  </symbol>
  <symbol id="marker">
    <path d="M11.991 24C9.983 24 2 15.658 2 9.22 2 2.779 6.478 0 12 0s10 2.78 10 9.22C22 15.662 14 24 11.991 24zM12 13.627c2.743 0 5-2.08 5-4.61 0-2.529-2.257-4.61-5-4.61s-5 2.081-5 4.61v.002c0 2.53 2.257 4.61 5 4.61v-.002z" fill-rule="nonzero"/>
  </symbol>
  <symbol id="msg">
    <path d="M0 5.215v-.747C.142 3.017 1.459 1.92 2.957 2.005h8.157c.45-.002.884.17 1.205.479l2.624 2.52H0v.211zm.003 1.789h21.703C22.964 7.004 24 8.01 24 9.234V19.77c0 1.223-1.036 2.23-2.294 2.23H2.297C1.04 22 .003 20.993.003 19.77V7.004z" fill-rule="nonzero"/>
  </symbol>
  <symbol id="power">
    <g transform="matrix(0.409726,0,0,0.403777,-1.1389,-0.920864)">
      <path d="M35.439,2.281L28.561,2.281L28.561,37.158L35.439,37.158L35.439,2.281ZM47.883,10.795L42.807,15.871C45.972,17.727 48.456,20.238 50.258,23.404C52.059,26.569 52.959,30.036 52.959,33.801C52.959,37.567 52.031,41.061 50.176,44.281C48.32,47.501 45.782,50.039 42.562,51.895C39.341,53.751 35.821,54.679 32.001,54.679C28.18,54.679 24.659,53.751 21.439,51.895C18.219,50.039 15.681,47.501 13.825,44.281C11.969,41.061 11.041,37.568 11.041,33.801C11.041,30.035 11.942,26.569 13.743,23.404C15.544,20.238 17.973,17.727 21.03,15.871L16.118,10.795C12.406,13.415 9.459,16.717 7.275,20.701C5.092,24.686 4,29.026 4,33.719C4,38.741 5.255,43.408 7.766,47.719C10.278,52.031 13.688,55.443 18,57.953C22.312,60.464 26.979,61.719 32,61.719C37.021,61.719 41.688,60.464 46,57.953C50.312,55.443 53.723,52.031 56.234,47.719C58.744,43.408 60,38.741 60,33.719C60,29.026 58.908,24.686 56.725,20.702C54.542,16.718 51.594,13.415 47.883,10.795Z" style="fill:rgb(0,3,51);fill-rule:nonzero;"/>
    </g>
  </symbol>
  <symbol id="ques_c">
    <path d="M0 12C.007 5.42 5.42.007 12 0c6.58.007 11.993 5.42 12 12-.008 6.58-5.42 11.992-12 12C5.42 23.993.007 18.58 0 12zm2.22 0c.006 5.363 4.417 9.774 9.78 9.78 5.363-.006 9.774-4.417 9.78-9.78-.006-5.363-4.417-9.774-9.78-9.78-5.363.006-9.774 4.417-9.78 9.78zm8.132 7.246v-2.64h2.64v2.64h-2.64zm.66-3.953a1.487 1.487 0 01.041-.77 4.04 4.04 0 01.633-1.342c.28-.383.788-.286 1.522-1.029.522-.493.996-1.034 1.418-1.616.24-.463.35-.983.316-1.504a2.508 2.508 0 00-.72-1.767 2.77 2.77 0 00-2.11-.768c-2.076 0-3.074 1.109-3.074 3.527H7.06c-.03-.818.079-1.634.324-2.414a3.948 3.948 0 011.08-1.537 5.065 5.065 0 011.722-1 6.212 6.212 0 012.004-.321 5.214 5.214 0 013.524 1.3c.868.829 1.325 2.001 1.244 3.198a3.725 3.725 0 01-.337 1.662 5.905 5.905 0 01-1.374 1.858c-.787.743-1.311.612-1.57.924a3.26 3.26 0 00-.586 1.126c-.132.437-.09.24-.09.47l-1.99.003z" fill-rule="nonzero"/>
  </symbol>
  <symbol id="search">
    <path d="M21.745 23.618l-3.288-3.27a11.424 11.424 0 01-7.019 2.395C5.17 22.738.011 17.611 0 11.375.008 5.137 5.167.005 11.438 0c6.271.006 11.43 5.136 11.437 11.374a11.283 11.283 0 01-2.528 7.125l3.272 3.253c.508.509.508 1.34 0 1.849l-.018.018c-.245.244-.58.382-.927.381a1.31 1.31 0 01-.93-.382zM2.408 11.375c.005 4.925 4.079 8.975 9.03 8.98 4.95-.005 9.024-4.056 9.03-8.98-.006-4.925-4.078-8.976-9.03-8.98-4.951.004-9.025 4.055-9.03 8.98z" fill-rule="nonzero"/>
  </symbol>
  <symbol id="time">
    <path d="M7.344 23.06A12.02 12.02 0 010 12C0 5.417 5.417 0 12 0s12 5.417 12 12-5.417 12-12 12H12a11.92 11.92 0 01-4.655-.94zm.873-19.974a9.769 9.769 0 00-5.968 8.988c0 5.35 4.402 9.753 9.752 9.753 5.35 0 9.753-4.403 9.753-9.753 0-5.35-4.403-9.752-9.753-9.752H12a9.674 9.674 0 00-3.783.763h.001zM9.863 15.03V8.408c0-.586.482-1.068 1.068-1.068.586 0 1.068.482 1.068 1.068v4.485h3.631c.586 0 1.068.482 1.068 1.068 0 .587-.482 1.069-1.068 1.069H9.863z" fill-rule="nonzero"/>
  </symbol>
  <symbol id="usr_add">
    <path d="M12.042 24h-.006C5.433 24 0 18.575 0 11.984 0 7.163 2.907 2.788 7.357.914A12.06 12.06 0 0111.961 0c6.605 0 12.04 5.426 12.04 12.02 0 4.788-2.868 9.14-7.275 11.036a11.973 11.973 0 01-4.684.944zM8.506 13.118a5.29 5.29 0 00-2.458 2.143v.46a1.52 1.52 0 001.508 1.507h6.055a1.521 1.521 0 001.514-1.512v-.455a5.288 5.288 0 00-2.459-2.14 3.377 3.377 0 01-2.079.71 3.415 3.415 0 01-2.079-.71l-.002-.003zm8.138 1.093a.38.38 0 00-.378.377v.756c0 .208.17.378.378.378h1.136a.38.38 0 00.379-.378v-.756a.38.38 0 00-.379-.377h-1.136zM10.59 7.55a2.663 2.663 0 00-2.65 2.645v.232a2.66 2.66 0 002.65 2.644 2.66 2.66 0 002.65-2.644v-.232a2.663 2.663 0 00-2.65-2.645zm4.924 3.632a.38.38 0 00-.379.378v.751c0 .208.171.378.379.378h2.27a.38.38 0 00.379-.378v-.756a.38.38 0 00-.379-.378l-2.27.005zm-.761-3.022a.38.38 0 00-.38.378v.756c0 .208.172.378.38.378h3.027a.38.38 0 00.379-.378v-.757a.38.38 0 00-.379-.378l-3.027.001z" fill-rule="nonzero"/>
  </symbol>
  <symbol id="usr_del">
    <path d="M12.044 24h-.01C5.433 24 0 18.576 0 11.985 0 7.162 2.909 2.787 7.36.914A12.057 12.057 0 0111.962 0C18.566 0 24 5.426 24 12.02c0 4.788-2.867 9.14-7.273 11.036a11.972 11.972 0 01-4.683.945zm1.624-16.41h-.038a2.507 2.507 0 00-2.497 2.493 2.507 2.507 0 002.49 2.493h-.007c-.215 0-.43.017-.641.052-.12.009-.241.028-.36.055-.138.026-.276.06-.413.1l-.066.018c-.312.1-.615.226-.904.38l-.104.061-.014.008a5.906 5.906 0 00-.308.187 4.13 4.13 0 00-.575.445l-.162.162-.009.007a4.855 4.855 0 00-1.394 2.538c-.027.16-.054.328-.073.499l-.02.255-.008.26a.105.105 0 00.008.055.45.45 0 00.407.399c.021.008.043.01.065.009h4.344a3.274 3.274 0 01-.414-1.586 3.404 3.404 0 011.476-2.8c.109-.08.218-.15.322-.209a3.822 3.822 0 011.107-.38l-.037-.014a4.394 4.394 0 00-.475-.198A2.383 2.383 0 0015 12.77a1.526 1.526 0 00-.258-.069h-.016a4.94 4.94 0 00-.506-.082 3.635 3.635 0 00-.361-.033h-.157c.661-.011 1.292-.28 1.758-.747a2.46 2.46 0 00.725-1.748 2.526 2.526 0 00-2.517-2.5zm.524 7.813a.516.516 0 00-.513.512c0 .28.232.512.513.512h3.603a.51.51 0 00.509-.508.51.51 0 00-.509-.508l-.024.001h-1.272l-1.043-.008-1.264-.001zm-3.85-9.612a2.53 2.53 0 00-2.53 2.338c-.042.651.18 1.292.612 1.78.433.494 1.043.801 1.699.856a5.1 5.1 0 00-3.49 1.513 4.923 4.923 0 00-1.436 3.47c.003.27.22.496.49.508h.027l1.969.063a5.493 5.493 0 013.569-3.886 4.321 4.321 0 01-.74-.776c-.045-.063-.429-.618-.377-.83.013-.04.02-.08.02-.12 0-.04-.017.02-.031.052a3.68 3.68 0 01-.065-1.033 2.856 2.856 0 011.97-2.41c.167-.063.34-.109.516-.136a2.533 2.533 0 00-2.117-1.393l-.086.004z" fill-rule="nonzero"/>
  </symbol>
</svg>