<svg viewBox="0 0 24 24" xmlns="http://www.w3.org/2000/svg" fill-rule="evenodd" clip-rule="evenodd" stroke-linejoin="round" stroke-miterlimit="2"><path d="M23.56 7.94l-7.5-7.5a1.501 1.501 0 00-2.494.616c-.34 1.102-.927 2.06-1.796 2.928-1.16 1.16-2.673 2.04-4.272 2.968-1.698.984-3.453 2.004-4.89 3.441C1.386 11.617.554 12.977.067 14.557a1.502 1.502 0 00.372 1.504l7.5 7.5a1.501 1.501 0 002.494-.618c.34-1.102.928-2.06 1.798-2.928 1.16-1.16 2.671-2.038 4.272-2.966 1.697-.986 3.452-2.006 4.889-3.443 1.221-1.221 2.053-2.583 2.541-4.163a1.503 1.503 0 00-.372-1.504zM9 22.5L1.5 15C3.63 8.1 12.87 8.4 15 1.5L22.5 9C20.37 15.899 11.13 15.599 9 22.5zm5.671-11.325a2.005 2.005 0 00-.738-.413 2.148 2.148 0 00-.74-.08 2.655 2.655 0 00-.75.173c-.253.098-.506.204-.761.328-.403-.463-.806-.92-1.209-1.345.182-.164.358-.247.528-.253.17-.008.333.01.489.05.158.04.303.073.436.1a.403.403 0 00.355-.09.498.498 0 00.177-.362.599.599 0 00-.172-.432.97.97 0 00-.577-.332 1.782 1.782 0 00-.698.016 2.355 2.355 0 00-.676.27 2.639 2.639 0 00-.513.38l-.147-.138a.282.282 0 00-.202-.075.262.262 0 00-.205.1.27.27 0 00-.069.214.27.27 0 00.095.189c.05.04.098.081.147.124-.192.232-.35.488-.475.758-.126.27-.201.539-.229.8-.029.262-.001.502.079.724.08.225.229.415.445.595.354.293.77.418 1.251.39.481-.03 1-.172 1.557-.472.442.512.886 1.02 1.33 1.491-.188.159-.352.25-.497.279a.776.776 0 01-.39-.008 1.243 1.243 0 01-.326-.157 2.286 2.286 0 00-.297-.175.691.691 0 00-.298-.077c-.102-.001-.21.048-.33.151a.483.483 0 00-.185.372c0 .14.064.281.19.425.128.143.293.264.494.359a1.874 1.874 0 001.464.049c.278-.102.553-.285.825-.557.13.128.262.249.393.366a.27.27 0 00.205.066.272.272 0 00.203-.106.29.29 0 00.07-.22.256.256 0 00-.094-.182 9.825 9.825 0 01-.395-.334c.224-.275.404-.566.538-.853.133-.289.212-.567.238-.825a1.474 1.474 0 00-.089-.706c-.084-.215-.233-.4-.447-.577zm-4.193.508a.728.728 0 01-.56-.218.55.55 0 01-.146-.241.753.753 0 01-.029-.314 1 1 0 01.103-.349c.055-.118.138-.237.243-.351.38.378.76.792 1.14 1.221-.288.159-.539.243-.751.252zm3.538 1.502a1.585 1.585 0 01-.236.332c-.42-.424-.84-.89-1.26-1.37.107-.047.22-.098.341-.149.122-.05.243-.084.365-.105a.964.964 0 01.37.015c.122.031.237.097.345.201a.692.692 0 01.2.334c.028.12.03.242.01.366-.022.125-.066.25-.135.376zm-2.979 3.45a.374.374 0 01.501.556c-.012.012-.024.02-.038.031l.002.001c-.475.361-.865.686-1.286 1.107-.38.38-.724.779-1.02 1.185l-.48.656a.353.353 0 01-.055.075.378.378 0 01-.533 0 .377.377 0 01-.05-.47v-.002l.512-.7c.32-.438.689-.867 1.096-1.275.424-.425.881-.804 1.35-1.164h.001zm2.746-10.849c.38-.38.722-.778 1.02-1.185l.498-.683a.378.378 0 11.62.42l.001.002-.513.704a11.02 11.02 0 01-1.096 1.272c-.423.424-.88.805-1.349 1.165l-.003-.001a.378.378 0 01-.524-.01.38.38 0 01.088-.602c.44-.336.866-.69 1.258-1.082z" fill-rule="nonzero"/></svg>