<svg viewBox="0 0 24 24" xmlns="http://www.w3.org/2000/svg" fill-rule="evenodd" clip-rule="evenodd" stroke-linejoin="round" stroke-miterlimit="2"><path d="M12 5.75a.375.375 0 010 .75c-3.995 0-7.5 2.103-7.5 4.5a.375.375 0 01-.75 0c0-2.846 3.778-5.25 8.25-5.25zM12 2C5.372 2 0 6.03 0 11c0 3.095 2.084 5.824 5.256 7.444 0 .02-.006.034-.006.056 0 1.345-1.004 2.792-1.446 3.552h.002A.68.68 0 004.43 23c.07 0 .194-.019.19-.01 2.345-.384 4.553-2.538 5.066-3.162.749.11 1.521.172 2.314.172 6.626 0 12-4.03 12-9s-5.373-9-12-9zm0 16.5c-.688 0-1.394-.053-2.097-.155a1.5 1.5 0 00-1.377.532c-.321.39-1.235 1.262-2.314 1.904.293-.672.521-1.424.537-2.2a1.5 1.5 0 00-.81-1.474C3.158 15.69 1.5 13.406 1.5 11.001c0-4.136 4.71-7.5 10.5-7.5 5.788 0 10.5 3.364 10.5 7.5 0 4.135-4.71 7.5-10.5 7.5z" fill-rule="nonzero"/></svg>