<svg viewBox="0 0 24 24" xmlns="http://www.w3.org/2000/svg" fill-rule="evenodd" clip-rule="evenodd" stroke-linejoin="round" stroke-miterlimit="2"><path d="M12.25 0A8.25 8.25 0 004 8.25c0 3.023 2.766 6.227 3.773 9.041C9.276 21.487 9.11 24 12.25 24c3.188 0 2.974-2.5 4.477-6.692 1.01-2.82 3.773-6.058 3.773-9.058A8.25 8.25 0 0012.25 0zm1.944 20.382l-3.719.464a32.67 32.67 0 01-.448-1.42l-.007-.023 4.641-.58-.198.663c-.098.337-.186.629-.269.896zm-4.392-1.701a45 45 0 00-.461-1.431h5.824c-.092.27-.184.54-.264.794l-5.099.637zM12.25 22.5c-.76 0-1.11-.088-1.498-.938l3.179-.398c-.46 1.24-.796 1.336-1.681 1.336zm3.504-6.75h-7c-.373-.81-.822-1.62-1.264-2.413C6.51 11.586 5.5 9.775 5.5 8.25a6.757 6.757 0 016.75-6.75A6.757 6.757 0 0119 8.25c0 1.514-1.013 3.334-1.992 5.096-.438.79-.883 1.598-1.254 2.404zm-3.504-12a.376.376 0 010 .75A3.754 3.754 0 008.5 8.25a.375.375 0 01-.75 0c0-2.482 2.018-4.5 4.5-4.5z" fill-rule="nonzero"/></svg>