<svg viewBox="0 0 24 24" xmlns="http://www.w3.org/2000/svg" fill-rule="evenodd" clip-rule="evenodd" stroke-linejoin="round" stroke-miterlimit="2"><path d="M22 2.25h-3.25V.75a.75.75 0 10-1.5 0v1.5h-4.5V.75a.75.75 0 10-1.5 0v1.5h-4.5V.75a.75.75 0 10-1.5 0v1.5H2a2 2 0 00-2 2V22a2 2 0 002 2h20a2 2 0 002-2V4.25a2 2 0 00-2-2zM22.5 22a.5.5 0 01-.5.5H2a.5.5 0 01-.5-.5V4.25a.5.5 0 01.5-.5h3.25v1.5a.75.75 0 101.5 0v-1.5h4.5v1.5a.75.75 0 101.5 0v-1.5h4.5v1.5a.75.75 0 101.5 0v-1.5H22a.5.5 0 01.5.5V22zM5.25 9h3v2.25h-3V9zm0 3.75h3V15h-3v-2.25zm0 3.75h3v2.25h-3V16.5zm5.25 0h3v2.25h-3V16.5zm0-3.75h3V15h-3v-2.25zm0-3.75h3v2.25h-3V9zm5.25 7.5h3v2.25h-3V16.5zm0-3.75h3V15h-3v-2.25zm0-3.75h3v2.25h-3V9z" fill-rule="nonzero"/></svg>