<svg viewBox="0 0 24 24" xmlns="http://www.w3.org/2000/svg" fill-rule="evenodd" clip-rule="evenodd" stroke-linejoin="round" stroke-miterlimit="2"><path d="M12 7.25a6 6 0 00-6 6 6 6 0 106-6zm3.416 8.93a4.498 4.498 0 01-6.344.487 4.498 4.498 0 01-.488-6.344 4.5 4.5 0 016.832 5.857zM12 10.25a.375.375 0 010 .75 2.25 2.25 0 00-2.25 2.25v.001a.376.376 0 01-.75 0v-.001a3 3 0 013-3zm10.119-3.719l-3.25-.542-1.03-2.575A2.24 2.24 0 0015.75 2h-7.5c-.924 0-1.745.555-2.09 1.414L5.133 5.99l-3.25.542A2.242 2.242 0 000 8.75V20c0 1.24 1.01 2.25 2.25 2.25h19.5c1.24 0 2.25-1.01 2.25-2.25V8.75a2.242 2.242 0 00-1.881-2.219zM22.5 20a.75.75 0 01-.75.75H2.25A.75.75 0 011.5 20V8.75a.75.75 0 01.627-.74l4.083-.68 1.343-3.358A.752.752 0 018.25 3.5h7.5c.306 0 .581.187.696.472l1.343 3.358 4.084.68a.75.75 0 01.627.74V20z" fill-rule="nonzero"/></svg>