<svg viewBox="0 0 24 24" xmlns="http://www.w3.org/2000/svg" fill-rule="evenodd" clip-rule="evenodd" stroke-linejoin="round" stroke-miterlimit="2"><path d="M22.022 3.978a6.747 6.747 0 010 9.545l-8.226 8.226a.748.748 0 01-1.06 0 .746.746 0 010-1.06l8.12-8.121a5.248 5.248 0 00-.002-7.424 5.248 5.248 0 00-7.424 0L2.596 15.85a3.748 3.748 0 000 5.303 3.748 3.748 0 005.302 0L18.84 10.34a2.252 2.252 0 000-3.182 2.252 2.252 0 00-3.181 0l-8.227 8.227a.75.75 0 11-1.06-1.062L14.597 6.1a3.75 3.75 0 015.303 5.303L8.958 22.215a5.255 5.255 0 01-7.424 0 5.257 5.257 0 010-7.425L12.477 3.978a6.747 6.747 0 019.545 0z" fill-rule="nonzero"/></svg>