<svg xmlns="http://www.w3.org/2000/svg" width="24" height="24"><path d="M19.126 21c2.864 0 4.756-3.161 4.756-6.375 0-2.762-2.28-5.211-5.034-5.578l-.457-1.219C17.282 4.896 14.579 3 11.504 3c-4.102 0-7.438 3.364-7.438 7.5 0 .181.009.358.025.53A4.504 4.504 0 00.118 15.5c0 2.141 1.663 5.193 4.008 5.5h15zm-5.161-8.224c.888-1.278 2.675-1.408 3.473-1.796l.007.02h.692c1.96 0 3.744 1.5 3.744 3.398 0 1.842-1.221 4.602-3.193 4.602H4.241c-1.099 0-2.123-2.373-2.123-3.727.001-1.543 1.366-2.663 2.978-2.336l1.551.37-.381-1.507c-.1-.398-.2-.854-.2-1.314 0-3.033 2.439-5.493 5.438-5.493 2.27 0 4.191 1.357 5.016 3.536-2.023 1.196-2.644 4.035-2.644 4.035"/></svg>