<svg viewBox="0 0 24 24" xmlns="http://www.w3.org/2000/svg" fill-rule="evenodd" clip-rule="evenodd" stroke-linejoin="round" stroke-miterlimit="2"><path d="M12 0C6.942 0 1.5 1.525 1.5 4.875v14.25C1.5 22.474 6.942 24 12 24s10.5-1.526 10.5-4.875V4.875C22.5 1.525 17.057 0 12 0zm9 19.125c0 1.863-4.03 3.375-9 3.375-4.971 0-9-1.512-9-3.375v-2.802c1.55 1.597 5.288 2.427 9 2.427 3.712 0 7.45-.83 9-2.427v2.802zm0-4.5h-.003c0 .008.003.016.003.023C21 16.5 16.97 18 12 18s-9-1.5-9-3.352c0-.007.003-.015.003-.023H3v-2.802c1.55 1.597 5.288 2.427 9 2.427 3.712 0 7.45-.83 9-2.427v2.802zm0-4.5h-.003l.003.023C21 12 16.97 13.5 12 13.5S3 12 3 10.148c0-.007.003-.015.003-.023H3V7.548C4.966 9.046 8.569 9.75 12 9.75s7.034-.704 9-2.202v2.577zM12 8.25c-4.971 0-9-1.512-9-3.375C3 3.011 7.029 1.5 12 1.5c4.97 0 9 1.51 9 3.375 0 1.863-4.03 3.375-9 3.375zm6 11.25a.75.75 0 111.5 0 .75.75 0 01-1.5 0zm0-4.5a.75.75 0 111.5 0 .75.75 0 01-1.5 0zm0-4.5a.75.75 0 111.5 0 .75.75 0 01-1.5 0z" fill-rule="nonzero"/></svg>