<svg xmlns="http://www.w3.org/2000/svg" width="24" height="24"><path d="M15 11V0h-5v11H6.047l6.363 6.364L18.773 11zm5.16-4H17v2h3.16c.551 0 .84.016.84.566v7.5c0 .828-.514 1.934-1.34 1.934H4.342c-.826 0-1.34-1.106-1.34-1.934v-7.5c0-.55.289-.566.84-.566h3.16V7h-3.16c-1.654 0-2.84.912-2.84 2.566v11C1.002 22.22 2.188 24 3.842 24H20.16c1.654 0 2.84-1.779 2.84-3.434v-11C23 7.912 21.814 7 20.16 7zM21 20.566c0 .551-.289 1.434-.84 1.434H3.842c-.551 0-.84-.883-.84-1.434v-1.513c0 .317.775.946 1.34.946H19.66c.564 0 1.34-.629 1.34-.946v1.513z"/></svg>