<svg viewBox="0 0 24 24" xmlns="http://www.w3.org/2000/svg" fill-rule="evenodd" clip-rule="evenodd" stroke-linejoin="round" stroke-miterlimit="2"><path d="M23.455 24h-3.273a.546.546 0 010-1.09h2.727v-2.728a.546.546 0 011.091 0v3.273a.546.546 0 01-.545.545zm0-6.545a.546.546 0 01-.546-.546v-3.273a.546.546 0 011.091 0v3.273a.546.546 0 01-.545.546zm0-6.546a.546.546 0 01-.546-.545V7.09a.546.546 0 011.091 0v3.273a.546.546 0 01-.545.545zm0-6.545a.546.546 0 01-.546-.546V1.091h-2.727a.546.546 0 010-1.091h3.273c.3 0 .545.244.545.545v3.273a.546.546 0 01-.545.546zm-12.91 13.148a.514.514 0 01-.729 0L8.723 16.42c-.002-.003-.001-.007-.003-.01l-3.478-3.504a.514.514 0 010-.728l1.093-1.094a.516.516 0 01.73 0l3.12 3.142 6.56-6.56a.514.514 0 01.73 0l1.092 1.095a.514.514 0 010 .73l-8.022 8.022zm6.364-16.421h-3.273a.546.546 0 010-1.091h3.273a.546.546 0 010 1.09zm-6.545 0H7.09A.546.546 0 017.09 0h3.273a.546.546 0 010 1.09zM3.818 24H.545A.546.546 0 010 23.455v-3.273a.546.546 0 011.09 0v2.727h2.728a.546.546 0 010 1.091zm0-22.91H1.091v2.728a.546.546 0 01-1.091 0V.545C0 .245.244 0 .545 0h3.273a.546.546 0 010 1.09zM.545 6.546c.302 0 .546.245.546.546v3.273a.546.546 0 01-1.091 0V7.09c0-.301.244-.546.545-.546zm0 6.546c.302 0 .546.244.546.545v3.273a.546.546 0 01-1.091 0v-3.273c0-.3.244-.545.545-.545zm6.546 9.818h3.273a.546.546 0 010 1.091H7.09a.546.546 0 010-1.09zm6.545 0h3.273a.546.546 0 010 1.091h-3.273a.546.546 0 010-1.09z" fill-rule="nonzero"/></svg>