<svg viewBox="0 0 24 24" xmlns="http://www.w3.org/2000/svg" fill-rule="evenodd" clip-rule="evenodd" stroke-linejoin="round" stroke-miterlimit="2"><path d="M23.455 24h-3.273a.546.546 0 010-1.09h2.727v-2.728a.546.546 0 011.091 0v3.273a.546.546 0 01-.545.545zm0-6.545a.546.546 0 01-.546-.546v-3.273a.546.546 0 011.091 0v3.273a.546.546 0 01-.545.546zm0-6.546a.546.546 0 01-.546-.545V7.09a.546.546 0 011.091 0v3.273a.546.546 0 01-.545.545zm0-6.545a.546.546 0 01-.546-.546V1.091h-2.727a.546.546 0 010-1.091h3.273c.3 0 .545.244.545.545v3.273a.546.546 0 01-.545.546zM16.909 24h-3.273a.546.546 0 010-1.09h3.273a.546.546 0 010 1.09zm0-22.91h-3.273a.546.546 0 010-1.09h3.273a.546.546 0 010 1.09zm-6.545 0H7.09a.546.546 0 010-1.09h3.273a.546.546 0 010 1.09zM3.818 24H.545A.546.546 0 010 23.455v-3.273a.546.546 0 011.09 0v2.727h2.728a.546.546 0 010 1.091zm0-22.91H1.091v2.728a.546.546 0 01-1.091 0V.545C0 .245.244 0 .545 0h3.273a.546.546 0 010 1.09zM.545 6.546c.302 0 .546.245.546.546v3.273a.546.546 0 01-1.091 0V7.09c0-.301.244-.546.545-.546zm0 6.546c.302 0 .546.244.546.545v3.273a.546.546 0 01-1.091 0v-3.273c0-.3.244-.545.545-.545zm16.622 2.97l-1.107 1.107a.52.52 0 01-.736 0l-3.13-3.131-3.132 3.13a.52.52 0 01-.736 0L7.22 16.062a.52.52 0 010-.736l3.132-3.13L7.22 9.062a.52.52 0 010-.736l1.105-1.105a.52.52 0 01.736 0l3.131 3.13 3.131-3.13a.52.52 0 01.736 0l1.107 1.105a.521.521 0 010 .736l-3.132 3.131 3.132 3.131a.521.521 0 010 .736zM7.09 22.91h3.273a.546.546 0 010 1.091H7.09a.546.546 0 010-1.09z" fill-rule="nonzero"/></svg>