<svg viewBox="0 0 24 24" xmlns="http://www.w3.org/2000/svg" fill-rule="evenodd" clip-rule="evenodd" stroke-linejoin="round" stroke-miterlimit="2"><path d="M3.818 0H.545A.546.546 0 000 .545v3.273a.546.546 0 001.09 0V1.091h2.728a.546.546 0 000-1.091zm3.273 1.09h3.273a.546.546 0 000-1.09H7.09a.546.546 0 000 1.09zM16.909 0h-3.273a.546.546 0 000 1.09h3.273a.546.546 0 000-1.09zm6.546 0h-3.273a.546.546 0 000 1.09h2.727v2.728a.546.546 0 001.091 0V.545A.546.546 0 0023.455 0zm0 6.545a.546.546 0 00-.546.546v3.273a.546.546 0 001.091 0V7.09a.546.546 0 00-.545-.546zm0 6.546a.546.546 0 00-.546.545v3.273a.546.546 0 001.091 0v-3.273a.546.546 0 00-.545-.545zm0 6.545a.546.546 0 00-.546.546v2.727h-2.727a.546.546 0 000 1.091h3.273c.3 0 .545-.244.545-.545v-3.273a.546.546 0 00-.545-.546zm-6.546 3.273h-3.273a.546.546 0 000 1.091h3.273a.546.546 0 000-1.09zm-6.545 0H7.09a.546.546 0 000 1.091h3.273a.546.546 0 000-1.09zm-6.546 0H1.091v-2.727a.546.546 0 00-1.091 0v3.273c0 .3.244.545.545.545h3.273a.546.546 0 000-1.09zM.545 17.455a.546.546 0 00.546-.546v-3.273a.546.546 0 00-1.091 0v3.273c0 .301.244.546.545.546zm0-6.546a.546.546 0 00.546-.545V7.09A.546.546 0 000 7.09v3.273c0 .3.244.545.545.545zm7.024 2.182h8.727a1.09 1.09 0 100-2.182H7.569a1.09 1.09 0 100 2.182z" fill-rule="nonzero"/></svg>