<svg viewBox="0 0 24 24" xmlns="http://www.w3.org/2000/svg" fill-rule="evenodd" clip-rule="evenodd" stroke-linejoin="round" stroke-miterlimit="2"><path d="M3.197 24A3.212 3.212 0 010 20.804V3.196A3.212 3.212 0 013.197 0H12c.657 0 1.2.542 1.2 1.2v.002c0 .658-.543 1.2-1.2 1.2H3.996c-.877 0-1.599.721-1.599 1.597v16c0 .877.722 1.598 1.599 1.598H20c.876 0 1.598-.721 1.598-1.598v-8.002c0-.658.54-1.198 1.199-1.198h.003c.658 0 1.2.54 1.2 1.198v8.802a3.212 3.212 0 01-3.197 3.195L3.197 24zm4.996-8.349a1.359 1.359 0 010-1.911L20.04 1.895a1.353 1.353 0 011.913 1.913L10.105 15.65a1.353 1.353 0 01-.957.396 1.351 1.351 0 01-.95-.396h-.005z" fill-rule="nonzero"/></svg>