<svg xmlns="http://www.w3.org/2000/svg" viewBox="0 0 24 24"><path d="M5.927 5.267v1.495h10.51V5.267a.747.747 0 00-.746-.748h-2.243s.026-.853.026-2.161c0-1.214-1.053-2.324-2.315-2.324S8.926 1.09 8.926 2.351c0 1.214-.01 2.168-.01 2.168h-2.24a.747.747 0 00-.748.748zm5.232-2.99a.748.748 0 110 1.496.748.748 0 010-1.495zm6.774 2.242v7.426s.645-.712 1.494-1.053v-7.12c0-.825-.716-1.494-1.541-1.494h-3.69v1.495h2.989c.413 0 .748.334.748.747zM9.617 22.505H5.18a.747.747 0 01-.746-.747V4.52c0-.412.334-.746.747-.746h3.036V2.278H4.433c-.826 0-1.495.67-1.495 1.495v18.732c0 .825.669 1.495 1.495 1.495h6.81c-.292-.494-.815-1.063-1.626-1.496zm8.316-.747a.747.747 0 01-.747.747h-2.047A33.645 33.645 0 0014.08 24h3.806c.825 0 1.541-.67 1.541-1.496v-4.596a19.51 19.51 0 00-1.494 1.372v2.477zm3.13-6.063c-.843-1.872-.36-3.392-.24-5.147-4.935 2.456-8.064 9.827-8.064 9.827l-1.925-3.627-3.971 2.34C8.548 19.67 10.954 21.543 13 24c1.443-2.574 5.895-7.837 8.061-8.306z"/></svg>