<svg xmlns="http://www.w3.org/2000/svg" viewBox="0 0 24 24"><path d="M18 24.03H4.5c-.829 0-1.5-.669-1.5-1.496V4.46c0-.827.671-1.496 1.5-1.496h3.75v1.559h-3a.749.749 0 00-.75.748v16.513c0 .415.336.749.75.749h12c.415 0 .75-.334.75-.749V5.272a.749.749 0 00-.75-.748h-3v-1.56H18c.828 0 1.5.671 1.5 1.497v18.073c0 .827-.672 1.497-1.5 1.497zM8.25 9.015h8.25v.749H8.25v-.749zm0 2.246h8.25v.748H8.25v-.748zm0 2.246h8.25v.748H8.25v-.748zm0 2.245h8.25v.749H8.25v-.748zm8.25 5.239H8.25v-.747h8.25v.747zm-8.25-2.993h8.25v.748H8.25v-.748zM6 8.999h.75v.749H6v-.749zm0 2.246h.75v.748H6v-.748zm0 2.245h.75v.748H6v-.748zm0 2.245h.75v.749H6v-.749zm.75 5.24H6v-.748h.75v.748zM6 17.981h.75v.749H6v-.749zm9.75-12.663c.415 0 .75.336.75.75v1.45H6v-1.45a.75.75 0 01.75-.75H9s.009-1.064.009-2.28c0-1.263.975-2.32 2.241-2.32s2.275 1.11 2.275 2.327c0 1.31-.025 2.273-.025 2.273h2.25zm-4.5-2.353a.748.748 0 100 1.496.749.749 0 100-1.496z"/></svg>