<svg xmlns="http://www.w3.org/2000/svg" viewBox="0 0 24 24"><path d="M21.75 0H5.25A2.25 2.25 0 003 2.25v1.5h-.75A2.25 2.25 0 000 6v15a3 3 0 003 3h18a3 3 0 003-3V2.25A2.25 2.25 0 0021.75 0zm.75 21c0 .827-.673 1.5-1.5 1.5H3c-.827 0-1.5-.673-1.5-1.5V6a.75.75 0 01.75-.75H3v15a.75.75 0 101.5 0v-18a.75.75 0 01.75-.75h16.5a.75.75 0 01.75.75V21zM14.624 9.754a.376.376 0 010-.75h6a.375.375 0 110 .75h-6zm0-2.25a.376.376 0 010-.75h6a.375.375 0 110 .75h-6zm0-2.25a.376.376 0 010-.75h6a.375.375 0 110 .75h-6zm-2.249 14.999a.376.376 0 010 .75h-6a.375.375 0 110-.75h6zm0-2.25a.376.376 0 010 .75h-6a.375.375 0 110-.75h6zm0-2.25a.376.376 0 010 .75h-6a.375.375 0 110-.75h6zm8.25 4.5a.375.375 0 010 .75h-6a.374.374 0 110-.75h6zm0-2.25a.375.375 0 010 .75h-6a.374.374 0 110-.75h6zm0-2.25a.375.375 0 010 .75h-6a.374.374 0 110-.75h6zm0-4.5a.376.376 0 010 .75H6.375a.375.375 0 010-.75h14.25zm0 2.25a.375.375 0 010 .75H6.375a.375.375 0 110-.75h14.25zM6.75 9.75H12a.75.75 0 00.75-.75V3.753a.75.75 0 00-.75-.75H6.75a.75.75 0 00-.75.75V9c0 .414.335.75.75.75zM7.5 4.5h3.75v3.75H7.5V4.5z"/></svg>