<svg xmlns="http://www.w3.org/2000/svg" viewBox="0 0 24 24"><path d="M23.56 5.689l-4.5-4.5A1.501 1.501 0 0018 .75H2.25A2.252 2.252 0 000 3v18c0 1.24 1.01 2.25 2.25 2.25h19.5c1.24 0 2.25-1.01 2.25-2.25V6.75a1.5 1.5 0 00-.44-1.061zM22.5 21a.75.75 0 01-.75.75H2.25A.75.75 0 011.5 21V3a.75.75 0 01.75-.75h15v3h-.002a2.25 2.25 0 002.25 2.25H22.5V21zM20.249 6.75h-.75c-.827 0-1.5-.673-1.5-1.5H18v-3l4.5 4.5h-2.252zM11.624 6a.375.375 0 110-.75h3.75a.376.376 0 010 .75h-3.75zm0 2.25a.375.375 0 010-.75h3.75a.376.376 0 010 .75h-3.75zm-.375 1.875c0-.208.168-.375.375-.375h9a.376.376 0 010 .75h-9a.375.375 0 01-.375-.375zm9.375 4.125a.375.375 0 010 .75H3.375a.376.376 0 010-.75h17.25zm0 2.25a.375.375 0 010 .75H3.375a.376.376 0 010-.75h17.25zm0 2.25a.375.375 0 010 .75H3.375a.376.376 0 010-.75h17.25zm0-6.75a.376.376 0 010 .75H3.375a.375.375 0 110-.75h17.25zM3.75 10.5H9a.75.75 0 00.75-.75v-4.5A.75.75 0 009 4.5H3.75a.75.75 0 00-.75.75v4.5c0 .414.335.75.75.75zM4.5 6h3.75v3H4.5V6z"/></svg>