<svg viewBox="0 0 24 24" xmlns="http://www.w3.org/2000/svg" fill-rule="evenodd" clip-rule="evenodd" stroke-linejoin="round" stroke-miterlimit="2"><path d="M23.226 21.355H.774A.774.774 0 010 20.58V7.419h24v13.162a.774.774 0 01-.774.774zM20.903 9.742a.774.774 0 00-.774-.774H3.871a.773.773 0 00-.774.774v9.29c0 .428.346.774.774.774h16.258a.774.774 0 00.774-.774v-9.29zm-13.935.774h10.064v.774H6.968v-.774zM0 3.548c0-.428.346-.774.774-.774h1.549S2.496 2 2.709 2h6.194c.213 0 .387.774.387.774h5.42S14.883 2 15.097 2h6.193c.213 0 .387.774.387.774h1.549c.427 0 .774.346.774.774v3.097H0V3.548zm22.048 2.34a1.16 1.16 0 10.001-2.322 1.16 1.16 0 000 2.321zm-3.049 0a1.161 1.161 0 100-2.323 1.161 1.161 0 000 2.322zm-3.096 0a1.16 1.16 0 100-2.322 1.16 1.16 0 000 2.321zm-3.097 0a1.161 1.161 0 100-2.323 1.161 1.161 0 000 2.322z" fill-rule="nonzero"/></svg>