<svg xmlns="http://www.w3.org/2000/svg" width="24" height="24"><path d="M9.946 9.363c-1.693-1.309-3.755-2.696-7-2.959l7 2.959zm0 3c-1.693-1.309-3.755-2.696-7-2.959l7 2.959zm-3.001 1.088a11.425 11.425 0 00-3.999-1.047l3.999 1.047zm6.109-4.088l7-2.959c-3.245.263-5.307 1.651-7 2.959zm0 3l7-2.959c-3.245.263-5.307 1.651-7 2.959zm7 .041a11.404 11.404 0 00-3.999 1.047l3.999-1.047zm2-12.041c-4.38 0-8.389 2.045-10.415 3.664h-.277C9.335 2.408 5.326.363.946.363H0v19h.946c3.236 0 6.823 1.246 8.418 2.449.474.359.907.734 1.288 1.116l.801.735h.094l.801-.735c.381-.382.814-.757 1.288-1.116 1.595-1.203 5.182-2.449 8.418-2.449H23v-19h-.946zM11 20.521c0-.102-.244-.205-.376-.305C8.951 18.955 5 17.62 2 17.396V2.404c4 .306 7.263 2.249 8.681 3.662l.271.297H11v14.158zm10-3.125c-3 .224-6.951 1.559-8.624 2.82-.132.1-.376.204-.376.305V6.363h.049l.271-.297C13.737 4.653 17 2.71 21 2.404v14.992z"/></svg>