<svg xmlns="http://www.w3.org/2000/svg" width="24" height="24"><path d="M14 4V3a2 2 0 00-2-2H8a2 2 0 00-2 2v1H2v3H1v7h2V9h18v12H10v2h13V4h-9zm7 3H4V6h4V3h4v3h9v1zM7.448 19.521c.04-.168.051-.342.051-.521 0-.18-.024-.353-.063-.521l1.543-.923-.888-1.356-1.455.927c-.213-.162-.619-.291-.619-.38V15H3.983v1.747c0 .089-.406.218-.619.38L1.909 16.2l-.888 1.356 1.543.923a2.351 2.351 0 00-.063.521c0 .179.011.353.051.521l-1.554.923.863 1.357 1.502-.928c.214.162.62.291.62.381V23h2.033v-1.746c0-.09.406-.219.62-.381l1.502.928.863-1.357-1.553-.923zM5 20.599c-.918-.006-1.662-.719-1.662-1.599S4.082 17.407 5 17.401c.918.006 1.662.719 1.662 1.599S5.918 20.593 5 20.599z"/></svg>