<svg viewBox="0 0 24 24" xmlns="http://www.w3.org/2000/svg" fill-rule="evenodd" clip-rule="evenodd" stroke-linejoin="round" stroke-miterlimit="2"><path d="M13.545 23.155l-1.074-4.33a1.124 1.124 0 011.094-1.31c.479 0 .906.312 1.055.77l1.075 4.33a1.124 1.124 0 01-1.094 1.31 1.117 1.117 0 01-1.056-.77zm-4.464.812a1.124 1.124 0 01-.81-1.352l1.075-4.33a1.113 1.113 0 011.06-.787 1.122 1.122 0 011.09 1.327l-1.075 4.33a1.12 1.12 0 01-1.346.812h.006zm9.383-2.803l-2.974-3.32a1.119 1.119 0 01.825-1.863c.314 0 .615.134.826.37l2.972 3.315a1.116 1.116 0 01-.82 1.862h-.005c-.314 0-.615-.134-.825-.37v.006zm-14.524.071a1.129 1.129 0 01-.082-1.575l2.973-3.316c.21-.235.51-.37.825-.37a1.119 1.119 0 01.825 1.864l-2.972 3.32a1.117 1.117 0 01-1.569.077zm17.924-4.117l-4.147-1.593a1.121 1.121 0 01-.685-1.03 1.122 1.122 0 011.114-1.115c.126 0 .249.022.367.063l4.143 1.599c.442.157.74.58.74 1.052a1.124 1.124 0 01-1.116 1.112 1.12 1.12 0 01-.42-.082l.004-.006zm-21.19-.634a1.128 1.128 0 01.64-1.44l4.143-1.606c.12-.043.247-.065.375-.065.61 0 1.112.501 1.117 1.113 0 .454-.276.864-.695 1.034l-4.141 1.604a1.119 1.119 0 01-1.433-.642l-.006.002zm16.721-4.979a1.124 1.124 0 01.961-1.243l4.409-.543A1.124 1.124 0 0124 10.827a1.122 1.122 0 01-.964 1.106l-4.41.545a1.123 1.123 0 01-1.237-.972h.006zm-12.048.973l-4.41-.546A1.121 1.121 0 010 10.83a1.124 1.124 0 011.209-1.111l4.408.545c.562.06.993.542.993 1.11a1.124 1.124 0 01-1.263 1.104zm11.13-3.403a1.113 1.113 0 01.274-1.56l3.636-2.554a1.1 1.1 0 01.607-.18 1.118 1.118 0 01.666 2.007l-3.636 2.559a1.111 1.111 0 01-1.553-.274l.007.002zM5.95 9.347L2.311 6.788a1.119 1.119 0 01-.504-.934V5.85c0-.611.5-1.114 1.11-1.114.241 0 .475.08.667.224l3.64 2.559a1.117 1.117 0 01-.618 2.043 1.11 1.11 0 01-.657-.216zm8.55-2.04a1.124 1.124 0 01-.458-1.507l2.086-3.939c.195-.352.568-.572.97-.573a1.119 1.119 0 01.99 1.62l-2.086 3.943c-.287.54-.964.747-1.501.46v-.003zm-6.526-.456L5.887 2.912A1.123 1.123 0 016.891 1.32c.391 0 .755.208.955.545l2.086 3.938a1.122 1.122 0 01-.971 1.658 1.11 1.11 0 01-.99-.61h.002zm2.903-1.272V1.118A1.12 1.12 0 0111.99 0c.61 0 1.112.504 1.112 1.117v4.496c0 .613-.5 1.115-1.11 1.115a1.123 1.123 0 01-1.11-1.115v-.036l-.005.001z"/></svg>