<svg xmlns="http://www.w3.org/2000/svg" viewBox="0 0 24 24"><path d="M18.75 9.75v-3a6.75 6.75 0 10-13.5 0v3A2.25 2.25 0 003 12v5.25A6.75 6.75 0 009.75 24h4.5A6.75 6.75 0 0021 17.25V12a2.25 2.25 0 00-2.25-2.25zm-12-3a5.25 5.25 0 1110.5 0v3h-1.5V6.752a3.75 3.75 0 10-7.5 0V9.75h-1.5v-3zm8.25 0v3H9v-3a3 3 0 016 0zm4.5 7.5v3a5.257 5.257 0 01-5.25 5.25h-4.5a5.257 5.257 0 01-5.25-5.25V12a.75.75 0 01.75-.75h13.5a.75.75 0 01.75.75v2.25zm-7.5 0a1.5 1.5 0 011.5 1.5c0 .457-.246 1.326-.5 2.011-.204.554-.413.987-1 .987-.54 0-.796-.438-1-.994-.25-.684-.5-1.549-.5-2.004a1.5 1.5 0 011.5-1.5z"/></svg>