<svg viewBox="0 0 24 24" xmlns="http://www.w3.org/2000/svg" fill-rule="evenodd" clip-rule="evenodd" stroke-linejoin="round" stroke-miterlimit="2"><path d="M21 3H3C1.343 3 0 4.515 0 6.381v10.988c0 1.867 1.343 3.381 3 3.381h18c1.657 0 3-1.514 3-3.381V6.381C24 4.515 22.657 3 21 3zM1.5 7.437l5.25 4.438-5.25 4.437V7.437zm21 9.932c0 .933-.673 1.69-1.5 1.69H3c-.827 0-1.5-.757-1.5-1.69l5.874-4.966 3.276 2.77c.4.337.874.507 1.35.507.475 0 .95-.17 1.35-.507l3.276-2.77L22.5 17.37zm0-1.057l-5.25-4.437 5.25-4.438v8.875zm-9.6-1.815a1.38 1.38 0 01-.9.338c-.327 0-.638-.117-.9-.338L1.5 6.38c0-.932.673-1.69 1.5-1.69h18c.827 0 1.5.758 1.5 1.69l-9.6 8.116z" fill-rule="nonzero"/></svg>