<svg viewBox="0 0 24 24" xmlns="http://www.w3.org/2000/svg" fill-rule="evenodd" clip-rule="evenodd" stroke-linejoin="round" stroke-miterlimit="2"><path d="M23.463.352A1.497 1.497 0 0022.24.023L9.488 2.273a1.498 1.498 0 00-1.24 1.477v12.877c-.76-.552-1.748-.878-2.845-.878-.637 0-1.275.106-1.896.312-1.424.475-2.565 1.427-3.132 2.613-.438.917-.494 1.915-.16 2.81.57 1.528 2.192 2.515 4.13 2.515.638 0 1.275-.104 1.896-.312 1.423-.473 2.564-1.425 3.131-2.61a3.722 3.722 0 00.362-1.578h.014v-12c.086 0 .174-.007.26-.021L22.5 5.274v9.103c-.762-.552-1.75-.878-2.847-.878-.637 0-1.275.106-1.896.312-1.424.475-2.565 1.427-3.13 2.613-.439.917-.496 1.915-.162 2.81.572 1.528 2.192 2.515 4.131 2.515a5.97 5.97 0 001.897-.312c1.422-.473 2.563-1.425 3.13-2.61a3.723 3.723 0 00.363-1.578H24V1.5c0-.442-.197-.863-.537-1.147zM5.766 22.265c-1.797.6-3.655.013-4.147-1.305-.493-1.32.563-2.875 2.36-3.475 1.796-.599 3.654-.015 4.146 1.305.494 1.32-.562 2.876-2.36 3.475zm14.223-2.25c-1.799.6-3.656.014-4.148-1.305-.494-1.32.564-2.875 2.359-3.474 1.798-.6 3.656-.015 4.148 1.304.494 1.32-.562 2.876-2.36 3.475zm2.48-16.265L9.718 6V3.75l12.75-2.25v2.25z" fill-rule="nonzero"/></svg>