<svg viewBox="0 0 24 24" xmlns="http://www.w3.org/2000/svg" fill-rule="evenodd" clip-rule="evenodd" stroke-linejoin="round" stroke-miterlimit="2"><path d="M6 4.516V2.25C6 1.01 4.99 0 3.75 0S1.5 1.01 1.5 2.25v2.266A3.735 3.735 0 000 7.5a3.73 3.73 0 001.5 2.983V21.75C1.5 22.99 2.51 24 3.75 24S6 22.99 6 21.75V10.483A3.73 3.73 0 007.5 7.5 3.735 3.735 0 006 4.516zM3 2.25a.75.75 0 111.5 0v1.575a3.796 3.796 0 00-1.5 0V2.25zm1.5 19.5a.75.75 0 11-1.5 0V11.174a3.687 3.687 0 001.5 0V21.75zM5.899 8.13c-.012.04-.023.079-.037.118a2.208 2.208 0 01-.284.552l-.01.012a2.27 2.27 0 01-.462.47c-.003.004-.005.005-.008.007-.18.136-.382.246-.599.322a2.196 2.196 0 01-.749.139c-.265 0-.515-.054-.75-.14a2.222 2.222 0 01-.6-.322l-.007-.006a2.27 2.27 0 01-.462-.47l-.01-.012a2.234 2.234 0 01-.284-.552c-.014-.04-.025-.079-.037-.119-.059-.2-.1-.41-.1-.629 0-.221.041-.43.101-.632.012-.04.023-.078.037-.117.07-.198.162-.385.283-.553.003-.005.008-.008.011-.012.13-.177.286-.337.462-.47l.007-.006A2.29 2.29 0 013 5.388c.235-.084.485-.138.75-.138s.514.054.75.138c.217.078.418.187.6.322a2.307 2.307 0 01.47.476c.002.005.006.008.01.013a2.198 2.198 0 01.319.67c.06.2.101.41.101.631 0 .22-.041.429-.101.63zM22.5 4.516V2.25C22.5 1.01 21.49 0 20.25 0S18 1.01 18 2.25v2.266A3.733 3.733 0 0016.5 7.5c0 1.223.593 2.298 1.5 2.983V21.75c0 1.24 1.01 2.25 2.25 2.25s2.25-1.01 2.25-2.25V10.483A3.731 3.731 0 0024 7.5a3.738 3.738 0 00-1.5-2.984zm-3-2.266a.75.75 0 111.5 0v1.575a3.808 3.808 0 00-1.5 0V2.25zm1.5 19.5a.75.75 0 11-1.5 0V11.174a3.676 3.676 0 001.5 0V21.75zm1.399-13.62l-.037.118a2.21 2.21 0 01-.284.552c-.003.005-.008.008-.01.012a2.262 2.262 0 01-.462.47c-.003.004-.006.005-.008.007A2.233 2.233 0 0121 9.61a2.2 2.2 0 01-.749.139c-.265 0-.514-.054-.75-.14a2.21 2.21 0 01-.6-.322l-.007-.006a2.254 2.254 0 01-.462-.47c-.003-.005-.008-.008-.011-.012a2.232 2.232 0 01-.283-.552c-.015-.04-.024-.079-.036-.119-.06-.2-.101-.41-.101-.629 0-.221.041-.43.101-.632.012-.04.022-.078.037-.117.07-.198.163-.385.283-.553l.01-.012c.13-.177.286-.337.463-.47.003-.002.005-.005.008-.006.18-.135.382-.245.599-.323.235-.083.484-.137.749-.137a2.32 2.32 0 011.357.466c.175.134.33.294.461.47.003.005.008.008.01.013.122.168.213.356.285.553l.037.117c.059.2.1.41.1.631 0 .22-.041.429-.101.63zm-8.149 5.386V2.25C14.25 1.01 13.24 0 12 0S9.75 1.01 9.75 2.25v11.266a3.734 3.734 0 00-1.5 2.984 3.73 3.73 0 001.5 2.983v2.267C9.75 22.99 10.76 24 12 24s2.25-1.01 2.25-2.25v-2.267a3.731 3.731 0 001.5-2.983 3.738 3.738 0 00-1.5-2.984zm-3-11.266a.75.75 0 111.5 0v10.575a3.796 3.796 0 00-1.5 0V2.25zm1.5 19.5a.75.75 0 11-1.5 0v-1.577a3.687 3.687 0 001.5 0v1.577zm1.399-4.62c-.012.04-.023.079-.037.119a2.21 2.21 0 01-.284.552c-.003.004-.008.007-.01.011a2.262 2.262 0 01-.462.47l-.007.007a2.233 2.233 0 01-.6.322 2.2 2.2 0 01-.749.139 2.19 2.19 0 01-.75-.14 2.222 2.222 0 01-.607-.328 2.27 2.27 0 01-.462-.47l-.01-.012a2.234 2.234 0 01-.284-.552c-.014-.04-.024-.079-.036-.119-.06-.2-.101-.41-.101-.629 0-.221.041-.43.101-.632.012-.04.023-.078.037-.117.071-.198.163-.385.284-.553l.01-.012c.13-.177.286-.337.462-.47.003-.002.005-.005.008-.006A2.308 2.308 0 0112 14.25a2.32 2.32 0 011.357.466c.175.134.33.294.461.47.003.005.008.008.01.013.122.168.213.356.285.553l.037.117c.059.2.1.41.1.631 0 .22-.041.429-.101.63z" fill-rule="nonzero"/></svg>