<svg xmlns="http://www.w3.org/2000/svg" viewBox="0 0 24 24"><path d="M20.25 3.747l-16.5.003a.747.747 0 00-.75.747v10.5c0 .415.335.75.75.75h16.5a.75.75 0 00.75-.75v-10.5a.75.75 0 00-.75-.75zm0 11.253H3.75V4.497h16.5V15zM21.75.75H2.25A2.25 2.25 0 000 3v15a2.248 2.248 0 002.243 2.248H9.75v.913l-4.681.608a.75.75 0 00.181 1.478h13.5a.75.75 0 00.181-1.478l-4.681-.608v-.913h7.508A2.248 2.248 0 0024 18V3A2.25 2.25 0 0021.75.75zM22.5 18c0 .413-.337.75-.75.75H2.25A.75.75 0 011.5 18V3a.75.75 0 01.75-.75h19.5a.75.75 0 01.75.75v15z"/></svg>