<svg xmlns="http://www.w3.org/2000/svg" viewBox="0 0 24 24"><path d="M22.046 1.935C20.813.703 19.188 0 17.586 0c-1.35 0-2.593.501-3.502 1.408l-3.65 3.678c-.011.01-.024.017-.035.028-.006.006-.01.015-.016.02l.002.001-7.747 7.807a3.017 3.017 0 00-.76 1.279L.116 20.6c-.001.018-.116.519-.116.774A2.627 2.627 0 002.628 24c.289 0 .848-.138.868-.141l6.358-1.672a3.016 3.016 0 001.279-.762L22.58 9.888c2.082-2.083 1.848-5.575-.534-7.953zM12.011 17.846a6.109 6.109 0 00-.54-1.97l7.092-7.09c.433 1.369.21 2.802-.74 3.753l-.019.015.01.01-5.795 5.843c0-.187.009-.37-.008-.56zm-.916-2.654a6.799 6.799 0 00-.992-1.297 6.7 6.7 0 00-1.533-1.119l7.15-7.149a5.204 5.204 0 012.534 2.407l-7.16 7.158zm-3.23-2.77a5.982 5.982 0 00-2.151-.45l5.777-5.821c.884-.863 2.172-1.111 3.44-.797l-7.066 7.068zm-4.74 9.983c-.081.018-.336.083-.508.095A1.129 1.129 0 011.5 21.375c.009-.126.06-.343.077-.422l.79-2.86c.857-.023 1.779.31 2.504 1.037.737.735 1.083 1.676 1.046 2.543l-2.792.732zm3.53-.927c-.017-1.007-.427-2.054-1.253-2.879-.782-.782-1.805-1.233-2.825-1.274l.747-2.705a1.47 1.47 0 01.293-.513c1.505-1.077 3.819-.76 5.426.85 1.7 1.699 1.963 4.189.653 5.676-.087.045-.175.089-.27.117l-2.77.728zM21.519 8.829l-1.263 1.273c0-.17.02-.333.005-.506-.132-1.451-.809-2.854-1.907-3.952-1.222-1.222-2.842-1.923-4.446-1.928l1.242-1.252c.621-.62 1.489-.964 2.438-.964 1.207 0 2.446.546 3.4 1.496.894.893 1.428 2.003 1.504 3.126.07 1.048-.275 2.009-.973 2.707z"/></svg>