<svg xmlns="http://www.w3.org/2000/svg" viewBox="0 0 24 24"><path d="M20.25 0H3.75a3 3 0 00-3 3v18a3 3 0 003 3h16.5a3 3 0 003-3V3a3 3 0 00-3-3zm1.5 21c0 .827-.673 1.5-1.5 1.5H3.75c-.827 0-1.5-.673-1.5-1.5V3c0-.827.673-1.5 1.5-1.5h16.5c.827 0 1.5.673 1.5 1.5v18zM19.5 3h-15a.75.75 0 00-.75.75v13.5c0 .415.335.75.75.75h15a.75.75 0 00.75-.75V3.75A.75.75 0 0019.5 3zm0 .75v10.402l-2.438-2.648a.75.75 0 00-1.125 0l-1.952 2.213-5.922-6.713a.749.749 0 00-1.126 0L4.5 9.815V3.75h15zm-15 7.2l3-3.45 6.485 7.35 2.071 2.4H4.5v-6.3zm12.555 6.3l-2.571-2.966L16.5 12l3 3.284v1.966h-2.445zM15 9.75a2.25 2.25 0 100-4.5 2.25 2.25 0 000 4.5zM15 6c.827 0 1.5.673 1.5 1.5S15.827 9 15 9a1.501 1.501 0 010-3z"/></svg>