<?xml version="1.0" encoding="UTF-8" standalone="no"?>
<!DOCTYPE svg PUBLIC "-//W3C//DTD SVG 1.1//EN" "http://www.w3.org/Graphics/SVG/1.1/DTD/svg11.dtd">
<svg width="100%" height="100%" viewBox="0 0 24 24" version="1.1" xmlns="http://www.w3.org/2000/svg" xmlns:xlink="http://www.w3.org/1999/xlink" xml:space="preserve" xmlns:serif="http://www.serif.com/" style="fill-rule:evenodd;clip-rule:evenodd;stroke-linejoin:round;stroke-miterlimit:2;">
    <g transform="matrix(1.2,0,0,1.2,0,0)">
        <path d="M11,9L15,9L15,11L11,11L11,15L9,15L9,11L5,11L5,9L9,9L9,5L11,5L11,9ZM10,20C4.477,20 0,15.523 0,10C0,4.477 4.477,0 10,0C15.523,0 20,4.477 20,10C20,15.523 15.523,20 10,20ZM10,18C14.418,18 18,14.418 18,10C18,5.582 14.418,2 10,2C5.582,2 2,5.582 2,10C2,14.418 5.582,18 10,18Z" style="fill-rule:nonzero;"/>
    </g>
</svg>
