<svg viewBox="0 0 24 24" xmlns="http://www.w3.org/2000/svg" fill-rule="evenodd" clip-rule="evenodd" stroke-linejoin="round" stroke-miterlimit="2"><path d="M7.5 1.5h-6v6h6v-6zM9 0v9H0V0h9zM3 3h3v3H3V3zm19.5-1.5h-6v6h6v-6zM24 0v9h-9V0h9zm-6 3h3v3h-3V3zM7.5 16.5h-6v6h6v-6zM9 15v9H0v-9h9zm-6 3h3v3H3v-3zm7.5-18H12v1.5h-1.5V0zM12 1.5h1.5V3H12V1.5zM10.5 3H12v1.5h-1.5V3zM12 4.5h1.5V6H12V4.5zM10.5 6H12v1.5h-1.5V6zM12 7.5h1.5V9H12V7.5zM10.5 9H12v1.5h-1.5V9zm0 3H12v1.5h-1.5V12zm1.5 1.5h1.5V15H12v-1.5zM10.5 15H12v1.5h-1.5V15zm1.5 1.5h1.5V18H12v-1.5zM10.5 18H12v1.5h-1.5V18zm1.5 1.5h1.5V21H12v-1.5zM10.5 21H12v1.5h-1.5V21zm1.5 1.5h1.5V24H12v-1.5zM22.5 12H24v1.5h-1.5V12zm-21 0H3v1.5H1.5V12zM3 10.5h1.5V12H3v-1.5zm-3 0h1.5V12H0v-1.5zm6 0h1.5V12H6v-1.5zM7.5 12H9v1.5H7.5V12zM9 10.5h1.5V12H9v-1.5zm4.5 1.5H15v1.5h-1.5V12zm1.5-1.5h1.5V12H15v-1.5zm1.5 1.5H18v1.5h-1.5V12zm1.5-1.5h1.5V12H18v-1.5zm1.5 1.5H21v1.5h-1.5V12zm1.5-1.5h1.5V12H21v-1.5zm1.5 4.5H24v1.5h-1.5V15zm-9 0H15v1.5h-1.5V15zm1.5-1.5h1.5V15H15v-1.5zm1.5 1.5H18v1.5h-1.5V15zm3 0H21v1.5h-1.5V15zm1.5-1.5h1.5V15H21v-1.5zm1.5 4.5H24v1.5h-1.5V18zm-9 0H15v1.5h-1.5V18zm1.5-1.5h1.5V18H15v-1.5zm3 0h1.5V18H18v-1.5zm1.5 1.5H21v1.5h-1.5V18zm1.5-1.5h1.5V18H21v-1.5zm1.5 4.5H24v1.5h-1.5V21zM15 19.5h1.5V21H15v-1.5zm1.5 1.5H18v1.5h-1.5V21zm1.5-1.5h1.5V21H18v-1.5zm1.5 1.5H21v1.5h-1.5V21zM15 22.5h1.5V24H15v-1.5zm3 0h1.5V24H18v-1.5zm3 0h1.5V24H21v-1.5z" fill-rule="nonzero"/></svg>