<svg xmlns="http://www.w3.org/2000/svg" viewBox="0 0 24 24"><path d="M22.793 9.51l-2.298-.46a9.074 9.074 0 00-.403-.967l1.302-1.953a1.5 1.5 0 00-.187-1.892l-1.443-1.443a1.497 1.497 0 00-1.892-.188l-1.953 1.301a9.068 9.068 0 00-.969-.402l-.46-2.298A1.499 1.499 0 0013.02.002h-2.04a1.5 1.5 0 00-1.472 1.206l-.46 2.298a9.07 9.07 0 00-.967.402L6.13 2.607a1.496 1.496 0 00-1.893.188L2.794 4.238a1.5 1.5 0 00-.188 1.892l1.301 1.953a8.992 8.992 0 00-.402.967l-2.299.46A1.5 1.5 0 000 10.98v2.04a1.5 1.5 0 001.206 1.472l2.299.46c.115.333.251.655.402.968l-1.3 1.952a1.5 1.5 0 00.187 1.893l1.443 1.443a1.497 1.497 0 001.892.187l1.953-1.302c.313.153.635.288.967.403l.46 2.298a1.5 1.5 0 001.471 1.207h2.04a1.5 1.5 0 001.47-1.207l.462-2.298c.332-.115.655-.252.967-.403l1.953 1.302a1.499 1.499 0 001.892-.187l1.443-1.443a1.5 1.5 0 00.187-1.893l-1.302-1.953a8.92 8.92 0 00.403-.968l2.298-.46A1.5 1.5 0 0024 13.021v-2.04a1.5 1.5 0 00-1.207-1.471zm-2.592 3.971a1.498 1.498 0 00-1.122.979c-.097.277-.21.545-.336.806a1.497 1.497 0 00.102 1.486l1.302 1.953-1.443 1.443-1.953-1.302a1.498 1.498 0 00-1.485-.103c-.261.126-.53.24-.807.337-.501.174-.873.6-.978 1.122l-.461 2.3h-2.04l-.46-2.3a1.498 1.498 0 00-.978-1.122 7.628 7.628 0 01-.806-.335 1.496 1.496 0 00-1.486.101l-1.953 1.302-1.443-1.443 1.302-1.953a1.502 1.502 0 00.102-1.485 7.58 7.58 0 01-.336-.807 1.5 1.5 0 00-1.122-.977l-2.298-.462-.002-2.04 2.3-.46a1.5 1.5 0 001.122-.978c.096-.277.208-.546.335-.806a1.496 1.496 0 00-.102-1.486l-1.3-1.953 1.442-1.443L7.25 5.156a1.498 1.498 0 001.485.103c.26-.126.528-.24.806-.336a1.5 1.5 0 00.978-1.122l.46-2.299h2.04l.46 2.299c.104.52.476.948.979 1.122.277.097.545.208.805.335a1.499 1.499 0 001.487-.102l1.953-1.301 1.443 1.443-1.302 1.953a1.504 1.504 0 00-.103 1.485c.126.26.24.529.337.806.174.502.6.874 1.122.978l2.298.46.002 2.04-2.3.461zM12 6.751a5.251 5.251 0 000 10.5 5.251 5.251 0 000-10.5zm0 9.844a4.595 4.595 0 010-9.187 4.595 4.595 0 010 9.187zm0-7.594a3 3 0 100 6 3 3 0 000-6zm0 5.25a2.25 2.25 0 11.002-4.501A2.25 2.25 0 0112 14.252z"/></svg>