<svg xmlns="http://www.w3.org/2000/svg" width="24" height="24"><path d="M9.998 8.498c2.039 0 3.702 1.531 3.95 3.502h3.516a7.622 7.622 0 00-.212-1.379l2.841-1.64-2.001-3.466-2.837 1.638A7.482 7.482 0 0012 5.276V1.998H7.998v3.278a7.484 7.484 0 00-3.256 1.876L1.906 5.515-.095 8.981l2.839 1.639c-.155.602-.247 1.228-.247 1.878s.091 1.277.247 1.878l-2.839 1.64 2.001 3.465 2.835-1.637a7.477 7.477 0 003.257 1.876v3.278H12v-7.055a3.963 3.963 0 01-2.002.556 4 4 0 010-8.001zm13 9.502c0-.37-.066-.722-.161-1.062l1.857-1.072-.999-1.73-1.844 1.064a4.004 4.004 0 00-1.853-1.061V12H18v2.139a3.981 3.981 0 00-1.856 1.06l-1.841-1.063-.999 1.73 1.853 1.069c-.095.342-.162.694-.162 1.065s.067.724.162 1.065l-1.853 1.069.999 1.73 1.841-1.063A3.986 3.986 0 0018 21.861V24h1.998v-2.14a4.004 4.004 0 001.853-1.061l1.845 1.065.999-1.73-1.857-1.072c.094-.34.16-.692.16-1.062zm-4.002 1.998a1.998 1.998 0 110-3.996 1.998 1.998 0 010 3.996z"/></svg>