<svg xmlns="http://www.w3.org/2000/svg" viewBox="0 0 24 24"><path d="M23.55 8.4L21.3 5.401a2.225 2.225 0 00-.3-.317V1.5A1.5 1.5 0 0019.5 0h-15A1.5 1.5 0 003 1.5v3.585a2.209 2.209 0 00-.3.315l-2.25 3A2.26 2.26 0 000 9.75v.75c0 1.24 1.01 2.25 2.25 2.25v9.75a1.5 1.5 0 001.5 1.5h16.5a1.5 1.5 0 001.5-1.5v-9.75c1.24 0 2.25-1.01 2.25-2.25v-.75c0-.485-.16-.964-.45-1.35zM19.5 1.5v3h-15v-3h15zM7.645 11.25H4.503l3-5.25h1.642l-1.5 5.25zM9.925 6h1.7v5.25h-3.2L9.925 6zm2.45 0h1.7l1.5 5.25h-3.2V6zm2.479 0h1.642l3 5.25h-3.142L14.854 6zM1.5 10.5v-.75c0-.163.053-.32.15-.45l2.25-3a.75.75 0 01.6-.3h2.139l-3 5.25H2.25a.75.75 0 01-.75-.75zm13.5 12H9.375V15H15v7.5zm5.25 0h-4.5V15a.75.75 0 00-.75-.75H9.375a.75.75 0 00-.75.75v7.5H3.75v-9.75h16.5v9.75zm2.25-12a.75.75 0 01-.75.75h-1.39l-3-5.25h2.14c.235 0 .458.111.6.3l2.25 3c.097.13.15.287.15.45v.75z"/></svg>