<svg xmlns="http://www.w3.org/2000/svg" viewBox="0 0 24 24"><path d="M20.248 10.502a6.757 6.757 0 00-6.75-6.749V3.75A.375.375 0 0113.5 3c.007 0 .013.003.019.005a7.497 7.497 0 017.48 7.489L21 10.5a.375.375 0 01-.75.002h-.002zM6.841.658A2.247 2.247 0 004.39.172 2.25 2.25 0 003 2.25v10.318L.66 14.909a2.249 2.249 0 000 3.182l5.25 5.25c.439.44 1.014.659 1.59.659s1.151-.22 1.59-.66L11.432 21h10.317a2.248 2.248 0 001.59-3.841L6.842.659zm3.53 19.281l-2.34 2.341a.75.75 0 01-1.061 0l-5.25-5.25a.748.748 0 010-1.06l2.34-2.341c.006-.007.009-.016.015-.023l6.32 6.32c-.008.004-.017.006-.024.013zm1.06-.439c-.116 0-.224.041-.335.066l-6.664-6.664c.026-.11.067-.219.067-.334L4.5 3.533 20.465 19.5h-9.034zm11.01-.463a.747.747 0 01-.693.463h-.222L4.5 2.473V2.25a.747.747 0 01.75-.75c.2 0 .388.078.53.219l16.499 16.5c.215.216.28.537.162.818zM13.498 1.5A.75.75 0 0113.5 0c.007 0 .013.003.019.004 5.787.01 10.475 4.702 10.48 10.49L24 10.5a.75.75 0 01-1.5.003h-.002c0-4.963-4.037-9-9-9V1.5z"/></svg>