<svg xmlns="http://www.w3.org/2000/svg" viewBox="0 0 24 24"><path d="M20.837 5.952a4.782 4.782 0 01-1.034 5.216c-1.553 1.554-3.9 1.797-5.726.767l-1.319 1.44.942.946.562-.563a.735.735 0 011.041 0l4.561 4.608a.735.735 0 010 1.041l-2.082 2.082a.735.735 0 01-1.04 0l-4.562-4.608a.735.735 0 010-1.041l.514-.514-.897-.899-6.309 6.892a1.472 1.472 0 01-2.082 0l-.52-.52a1.472 1.472 0 010-2.083l7.187-6.018L5.3 7.912 3.792 7.91 2.048 5.106 3.452 3.7 6.32 5.456l.019 1.476 4.829 4.847 1.404-1.176c-1.373-1.872-1.23-4.51.462-6.201a4.787 4.787 0 015.194-1.047l-3.093 3.05 2.603 2.603 3.1-3.056zM4.613 19.45a.736.736 0 10-1.041 1.043.736.736 0 001.04-1.043z"/></svg>