<svg xmlns="http://www.w3.org/2000/svg" viewBox="0 0 24 24"><path d="M22.485 5.114a2.242 2.242 0 00-2.235-2.112H18v-.751A2.25 2.25 0 0015.75 0h-7.5A2.25 2.25 0 006 2.25V3H3.75a2.242 2.242 0 00-2.236 2.113H1.5V6.75A1.5 1.5 0 003 8.25V21a3 3 0 003 3h12a3 3 0 003-3V8.25a1.5 1.5 0 001.5-1.5V5.114h-.015zM7.5 2.252a.75.75 0 01.75-.75h7.5a.75.75 0 01.75.75v.75h-9v-.75zm12 18.75c0 .826-.673 1.5-1.5 1.5H6c-.827 0-1.5-.674-1.5-1.5V8.252h15v12.75zM21 6v.75H3v-1.5a.75.75 0 01.75-.75h16.5a.75.75 0 01.75.75V6zM6.75 21.005h1.5a.75.75 0 00.75-.75v-9.75a.75.75 0 00-.75-.75h-1.5a.75.75 0 00-.75.75v9.75c0 .414.335.75.75.75zm0-10.501h1.5v9.75h-1.5v-9.75zm4.5 10.5h1.5a.75.75 0 00.75-.75v-9.75a.75.75 0 00-.75-.75h-1.5a.75.75 0 00-.75.75v9.75c0 .415.335.75.75.75zm0-10.5h1.5v9.75h-1.5v-9.75zm4.5 10.5h1.5a.75.75 0 00.75-.75v-9.75a.75.75 0 00-.75-.75h-1.5a.75.75 0 00-.75.75v9.75c0 .415.335.75.75.75zm0-10.5h1.5v9.75h-1.5v-9.75z"/></svg>