<svg xmlns="http://www.w3.org/2000/svg" width="24" height="24"><path d="M23.676 19.99c-1.677-4.008-4.914-5.873-7.423-6.739 1.12-1.537 1.733-3.792 1.757-6.55.041-4.656-3.798-5.921-5.833-5.938s-5.896 1.18-5.938 5.836c-.024 2.757.55 5.021 1.642 6.579-2.523.82-5.795 2.632-7.54 6.608l-.413.938.949.39c.207.083 5.126 2.07 11.102 2.122 5.977.053 10.93-1.847 11.139-1.927l.955-.372-.397-.947zM12.153 2.763c.399.008 3.89.178 3.857 3.921-.026 2.996-.841 5.274-2.232 6.251l-1.721 1.208-1.696-1.237c-1.375-1.002-2.149-3.294-2.122-6.29.033-3.744 3.527-3.852 3.914-3.853zm-.156 18.474c-4.046-.035-7.648-1.047-9.341-1.607 1.83-3.205 4.931-4.457 7.312-4.937l2.089-.421 2.081.456c2.373.523 5.452 1.829 7.227 5.064-1.699.532-5.31 1.481-9.368 1.445z"/></svg>