<svg xmlns="http://www.w3.org/2000/svg" width="24" height="24"><path d="M23.588 19.96c-1.459-3.359-4.841-5.31-7.296-6.144 1.504-1.229 2.392-3.547 2.392-6.583 0-4.035-3.373-5.102-5.157-5.102-.287 0-.617.032-.965.095C11.604 1.365 10.337 1 9.329 1 7.465 1 4.692 2.222 4.692 5.587c0 2.678.782 4.729 2.109 5.833-2.088.546-4.932 1.894-6.389 5.249L0 17.618l.963.38c.086.034 1.27.488 3.062.889a9.928 9.928 0 00-.561 1.073l-.413.949.963.38C4.192 21.358 8.415 23 13.526 23s9.334-1.642 9.512-1.711l.962-.38-.412-.949zM16.684 7.234c0 3.431-1.21 5.562-3.157 5.562s-3.157-2.131-3.157-5.562c0-2.92 2.635-3.096 3.152-3.102.527.006 3.162.182 3.162 3.102zM9.329 3c.101 0 .501.017.958.165-1.07.77-1.917 2.046-1.917 4.069 0 1.099.119 2.102.338 2.996-1.472-.469-2.016-2.615-2.016-4.643 0-2.431 2.202-2.582 2.637-2.587zm0 10.046c.012 0 .29.006.726.062a4.56 4.56 0 001.527 1.239c-1.574.315-3.816 1.067-5.634 2.865a25.488 25.488 0 01-3.185-.72c2.147-3.38 6.374-3.445 6.566-3.446zM13.526 21c-3.276 0-6.567-.75-8.071-1.214.237-.687.986-1.595 1.246-1.907 2.793-2.705 6.784-2.762 6.822-2.762.008 0 .729.011 1.755.216 1.782.45 4.55 2.095 5.974 4.451-1.503.464-4.445 1.216-7.726 1.216z"/></svg>