<svg xmlns="http://www.w3.org/2000/svg" viewBox="0 0 24 24"><path d="M12 15a1.5 1.5 0 113 0 1.5 1.5 0 01-3 0zm9.75-5.25V3A2.25 2.25 0 0019.5.75H4.125A4.13 4.13 0 000 4.875v15A4.13 4.13 0 004.125 24h13.5a4.13 4.13 0 004.125-4.125V18.75c3-2.25 3-6.75 0-9zM4.126 2.25H19.5a.75.75 0 01.75.75v4.638a2.225 2.225 0 00-.75-.138V3.75a.75.75 0 00-.75-.75H3a.75.75 0 00-.75.75v2.957A2.625 2.625 0 014.125 2.25zM18.749 4.5H3v-.75h15.75v.75zm0 .75V6H3v-.75h15.75zm0 1.5v.75H4.125c-.405 0-.783-.099-1.125-.262V6.75h15.75zm1.501 13.125a2.625 2.625 0 01-2.625 2.625h-13.5A2.625 2.625 0 011.5 19.875V8.055c.713.59 1.628.945 2.625.945H19.5a.75.75 0 01.75.75v1.5H13.5a3.75 3.75 0 100 7.5h6.75v1.125zm.958-2.625H13.5c-1.24 0-2.25-1.01-2.25-2.25s1.01-2.25 2.25-2.25h6.75c.463-.006.922-.23 1.202-.603a1.51 1.51 0 00.187-.346c.007-.016.019-.029.025-.046.539.707.836 1.574.836 2.495a4.086 4.086 0 01-1.292 3z"/></svg>