<svg xmlns="http://www.w3.org/2000/svg" viewBox="0 0 24 24"><path d="M21 13.523h-.75v5.25a2.25 2.25 0 01-2.25 2.25h-3v2.954H6.75v-2.954h-3a2.25 2.25 0 01-2.25-2.25V6.023a2.25 2.25 0 012.25-2.25h3v-3H15v3h3a2.25 2.25 0 012.25 2.25v5.25H21a.75.75 0 01.75.75v.75a.75.75 0 01-.75.75zm-2.25-6.75a1.5 1.5 0 00-1.5-1.5H4.5a1.5 1.5 0 00-1.5 1.5v11.25a1.5 1.5 0 001.5 1.5h12.75a1.5 1.5 0 001.5-1.5V6.773zm-3 6h-1.5v-2.25H15v1.5h.75v-1.5h.75v3.75h-.75v-1.5zm-3.75 1.5h-.75v-3.75h2.25v3.75H12zm.75-3H12v2.25h.75v-2.25zm-3 1.5h.75v.75h-.75v-.75zm0-1.5h.75v.75h-.75v-.75zm-2.25 3v-.75h.75v-.75H7.5v-.75h.75v-.75H7.5v-.75H9v3.75H7.5zm-2.25 0v-2.25H6v-.75h-.75v-.75h1.5v2.25H6v.75h.75v.75h-1.5z"/></svg>