<svg xmlns="http://www.w3.org/2000/svg" width="24" height="24"><path d="M6.984 15.918L8.4 17.334c.922-.922 2.195-1.494 3.6-1.494s2.678.572 3.6 1.494l1.416-1.416C15.732 14.635 13.959 13.84 12 13.84s-3.732.795-5.016 2.078zm-3.226-3.227l1.418 1.418C6.924 12.36 9.338 11.277 12 11.277s5.076 1.083 6.824 2.832l1.418-1.418C18.133 10.582 15.219 9.277 12 9.277s-6.133 1.305-8.242 3.414zM12 4.715A16.167 16.167 0 00.531 9.466l1.419 1.419C4.525 8.31 8.08 6.715 12 6.715s7.475 1.595 10.05 4.17l1.419-1.419A16.167 16.167 0 0012 4.715zM12 18a1.5 1.5 0 10.001 3.001A1.5 1.5 0 0012 18z"/></svg>