<svg viewBox="0 0 24 24" xmlns="http://www.w3.org/2000/svg" fill-rule="evenodd" clip-rule="evenodd" stroke-linejoin="round" stroke-miterlimit="2"><path d="M23.658.12a.751.751 0 00-.824.006l-22.5 15a.746.746 0 00-.33.702.746.746 0 00.468.618l5.868 2.349 2.76 4.828a.75.75 0 00.642.378h.008c.264 0 .508-.14.643-.364l1.558-2.597 7.271 2.907a.74.74 0 00.646-.043.75.75 0 00.372-.53L23.99.873a.752.752 0 00-.332-.753zM2.352 15.583L19.734 3.995 7.096 17.523c-.067-.04-.126-.093-.2-.122l-4.544-1.818zm5.29 2.467l-.005-.008L21.844 2.836 9.732 21.708l-2.09-3.658zm11.271 4.157l-6.406-2.562a1.49 1.49 0 00-.467-.089l9.864-15.291-2.99 17.942z" fill-rule="nonzero"/></svg>