<?xml version="1.0" encoding="UTF-8" standalone="no"?>
<!DOCTYPE svg PUBLIC "-//W3C//DTD SVG 1.1//EN" "http://www.w3.org/Graphics/SVG/1.1/DTD/svg11.dtd">
<svg width="100%" height="100%" viewBox="0 0 24 24" version="1.1" xmlns="http://www.w3.org/2000/svg" xmlns:xlink="http://www.w3.org/1999/xlink" xml:space="preserve" xmlns:serif="http://www.serif.com/" style="fill-rule:evenodd;clip-rule:evenodd;stroke-linejoin:round;stroke-miterlimit:2;">
    <g transform="matrix(1.19947,0,0,1.19947,0,0.00176786)">
        <path d="M14.83,4L20,4L20,10L19,10L19,20L1,20L1,10L0,10L0,4L5.17,4C5.054,3.676 4.995,3.335 4.995,2.991C4.995,1.345 6.35,-0.009 7.995,-0.009C8.737,-0.009 9.452,0.266 10.003,0.762L10,0.76C10.551,0.265 11.265,-0.009 12.005,-0.009C13.651,-0.009 15.005,1.346 15.005,2.991C15.005,3.343 14.944,3.691 14.823,4.021L14.83,4ZM8,10L3,10L3,18L8,18L8,10ZM12,10L12,18L17,18L17,10L12,10ZM8,6L2,6L2,8L8,8L8,6ZM12,6L12,8L18,8L18,6L12,6ZM8,4C8.549,4 9,3.549 9,3C9,2.451 8.549,2 8,2C7.451,2 7,2.451 7,3C7,3.549 7.451,4 8,4ZM12,4C12.549,4 13,3.549 13,3C13,2.451 12.549,2 12,2C11.451,2 11,2.451 11,3C11,3.549 11.451,4 12,4Z" style="fill-rule:nonzero;"/>
    </g>
</svg>
