<svg viewBox="0 0 24 24" xmlns="http://www.w3.org/2000/svg" fill-rule="evenodd" clip-rule="evenodd" stroke-linejoin="round" stroke-miterlimit="2"><path d="M17.788 4.8h6.201v7.196h-1.2v11.995H1.2V11.996H0V4.8h6.201a3.589 3.589 0 01-.21-1.21A3.616 3.616 0 019.59-.01a3.6 3.6 0 012.408.925l-.003-.003A3.599 3.599 0 0114.4-.009a3.616 3.616 0 013.598 3.598c0 .423-.073.84-.218 1.236l.008-.025zm-8.192 7.196H3.598v9.596h5.998v-9.596zm4.798 0v9.596h5.997v-9.596h-5.997zM9.596 7.2H2.399v2.399h7.197v-2.4zm4.798 0v2.399h7.196v-2.4h-7.196zm-4.798-2.4c.658 0 1.2-.54 1.2-1.199 0-.658-.542-1.2-1.2-1.2-.659 0-1.2.542-1.2 1.2 0 .659.541 1.2 1.2 1.2zm4.798 0c.658 0 1.2-.54 1.2-1.199 0-.658-.542-1.2-1.2-1.2-.659 0-1.2.542-1.2 1.2 0 .659.541 1.2 1.2 1.2z" fill-rule="nonzero"/></svg>