<svg viewBox="0 0 24 24" xmlns="http://www.w3.org/2000/svg" fill-rule="evenodd" clip-rule="evenodd" stroke-linejoin="round" stroke-miterlimit="2"><path d="M21.898 3.575C19.176.877 14.824.82 12.004 3.359 9.184.82 4.832.877 2.109 3.575a7.066 7.066 0 000 10.062l8.29 8.207a2.283 2.283 0 003.21 0l8.29-8.207a7.064 7.064 0 000-10.062zm-1.068 9.003l-8.291 8.207a.76.76 0 01-1.069 0l-8.29-8.207a5.583 5.583 0 010-7.944c2.132-2.112 5.562-2.186 7.807-.167l1.017.915 1.016-.915c2.246-2.02 5.676-1.946 7.809.167a5.584 5.584 0 010 7.944zM6.942 5.252a.375.375 0 110 .75H6.94a2.437 2.437 0 00-2.437 2.437.375.375 0 01-.75 0 3.187 3.187 0 013.185-3.187h.003z" fill-rule="nonzero"/></svg>