<svg xmlns="http://www.w3.org/2000/svg" width="24" height="24"><path d="M20.785 3.193a63.922 63.922 0 00-18.126.002C1.094 3.429 0 4.91 0 6.498v11c0 1.588.908 3.07 2.482 3.306 3.021.43 5.916.647 8.968.647s6.406-.218 9.434-.648C22.451 20.568 24 19.086 24 17.498V6.5c0-1.588-1.639-3.07-3.215-3.307zM2 6.5c0-.605.178-1.238.764-1.326a61.05 61.05 0 017.829-.612l-3.919 6.956H2V6.5zm20 10.998c0 .605-.908 1.237-1.496 1.325a62.041 62.041 0 01-17.549.001c-.596-.089-.955-.72-.955-1.326v-3.98h5.861l1.771-2.758.849 7.18 5.142-4.422H22v3.98zm0-5.98h-7.088l-2.858 2.813-1.091-9.776c.164-.001.323-.009.487-.009 2.958 0 6.218.212 9.138.626.596.09 1.412.722 1.412 1.326v5.02zm-5.998-4.52h.996V8h-.996zm1.998 0h1.002V8H18z"/></svg>