<svg viewBox="0 0 24 24" xmlns="http://www.w3.org/2000/svg" fill-rule="evenodd" clip-rule="evenodd" stroke-linejoin="round" stroke-miterlimit="2"><g fill-rule="nonzero"><path d="M6.75 13.5h-1.5V24h1.5c.413 0 .75-.337.75-.75v-9a.752.752 0 00-.75-.75zm10.5 0a.752.752 0 00-.75.75v9c0 .413.337.75.75.75h1.5V13.5h-1.5z"/><path d="M24 12c0-6.628-5.372-12-12-12S0 5.372 0 12c0 1.44.254 2.82.718 4.098A5.252 5.252 0 004.5 23.947V13.554a5.218 5.218 0 00-2.056.759A9.75 9.75 0 0112 2.625a9.75 9.75 0 019.557 11.688 5.222 5.222 0 00-2.057-.76v10.394a5.25 5.25 0 003.782-7.849c.464-1.279.718-2.659.718-4.099V12z"/></g></svg>