<svg xmlns="http://www.w3.org/2000/svg" width="24" height="24"><path d="M20.997 16.742S14.011 9.731 13.998 9V7.998h2.004v-6H7v6h2L9.004 9c-.013.731-6.999 7.742-6.999 7.742-1.317 1.478-1.041 2.686-.807 3.232S2.327 22 2.975 22h17.052c.648 0 1.542-1.479 1.776-2.025s.511-1.755-.806-3.233zm-1.031 2.445a4.756 4.756 0 01-.5.813H3.536a4.683 4.683 0 01-.499-.813c-.144-.334.192-.804.428-1.076 7.513-7.542 7.524-8.218 7.539-9.11V6.002L8.997 6 9 4.002h4.998L14.001 6H12l-.001 3.035c.015.857.026 1.534 7.539 9.076.235.272.57.742.428 1.076zM12 12h-1.002l-6 6v1.002H18V18l-6-6zm-1.998 3l.996-1.998H12L13.002 15h-3z"/></svg>