<svg viewBox="0 0 24 24" xmlns="http://www.w3.org/2000/svg" fill-rule="evenodd" clip-rule="evenodd" stroke-linejoin="round" stroke-miterlimit="2"><path d="M21.873 7.854c-.938-.246-3.142-.243-6.366-.329.152-.703.187-1.338.187-2.464C15.694 2.37 13.734 0 12 0a2.264 2.264 0 00-2.25 2.233c-.017 1.51-.484 4.119-3 5.442a27.01 27.01 0 01-.79.391L6 8.1c-.394-.34-.94-.6-1.5-.6H2.25C1.01 7.5 0 8.51 0 9.75v12C0 22.99 1.01 24 2.25 24H4.5c.893 0 1.64-.54 2.001-1.295a.242.242 0 00.035.009l.18.046.034.01c.432.107 1.264.305 3.041.714.381.087 2.394.516 4.48.516h4.1c1.249 0 2.15-.48 2.686-1.446.008-.015.18-.352.321-.807.106-.343.145-.828.017-1.32.806-.553 1.065-1.39 1.234-1.935.283-.893.198-1.565.002-2.045.453-.428.839-1.08 1.002-2.075a2.818 2.818 0 00-.292-1.779 2.617 2.617 0 00.64-1.632l.01-.157c.005-.098.009-.158.009-.374 0-.948-.656-2.156-2.127-2.576zM5.25 21.75a.75.75 0 01-.75.75H2.25a.75.75 0 01-.75-.75v-12A.75.75 0 012.25 9H4.5a.75.75 0 01.75.75v12zm17.233-10.849C22.468 11.271 22.313 12 21 12h-1.5a.375.375 0 100 .75h1.453c1.125 0 1.273.933 1.2 1.383-.092.56-.355 1.617-1.622 1.617H18.75a.374.374 0 100 .75h1.477c1.266 0 1.154.965.973 1.541-.24.757-.386 1.459-1.981 1.459h-1.224a.374.374 0 100 .75h1.176c.821 0 .86.776.774 1.054-.094.305-.205.53-.21.541-.226.409-.591.655-1.365.655h-4.1c-2.06 0-4.102-.467-4.155-.48-3.115-.717-3.28-.773-3.475-.828 0 0-.635-.107-.635-.66L6 10.171c0-.352.224-.67.596-.781.046-.018.109-.038.154-.057 3.426-1.419 4.47-4.53 4.5-7.084.005-.36.281-.75.75-.75.793 0 2.194 1.591 2.194 3.561 0 1.778-.072 2.086-.694 3.939 7.5 0 7.447.108 8.109.281.82.235.891.914.891 1.148 0 .258-.008.22-.017.472zM3.375 19.5a1.125 1.125 0 100 2.25 1.125 1.125 0 000-2.25zm0 1.5A.376.376 0 013 20.625c0-.206.169-.375.375-.375s.375.169.375.375a.376.376 0 01-.375.375z" fill-rule="nonzero"/></svg>