<svg viewBox="0 0 24 24" xmlns="http://www.w3.org/2000/svg" fill-rule="evenodd" clip-rule="evenodd" stroke-linejoin="round" stroke-miterlimit="2"><path d="M12.002 13.31c2.481 0 4.5-2.02 4.5-4.5 0-2.481-2.019-4.5-4.5-4.5a4.505 4.505 0 00-4.5 4.5c0 2.481 2.018 4.5 4.5 4.5zm0-8.25a3.753 3.753 0 013.75 3.75 3.753 3.753 0 01-3.75 3.75 3.753 3.753 0 01-3.75-3.75 3.753 3.753 0 013.75-3.75zM12 0C7.037 0 3 3.987 3 9c0 5.25 4.5 10.622 7.782 14.396.012.015.538.604 1.19.604h.057c.65 0 1.178-.589 1.19-.604C16.5 19.622 21 14.251 21 9.001 21.002 3.987 16.965 0 12 0zm.088 22.412a.91.91 0 01-.102.074c-.007-.02-.063-.065-.096-.1-2.749-3.163-7.39-8.5-7.39-13.385C4.5 4.865 7.865 1.5 12 1.5c4.137 0 7.501 3.365 7.501 7.502 0 4.884-4.64 10.221-7.413 13.41z" fill-rule="nonzero"/></svg>