<svg xmlns="http://www.w3.org/2000/svg" width="24" height="24"><path d="M21.169 4.707l-2.828-2.828a5.006 5.006 0 00-7.071 0l-9.9 9.899 1.414 1.414 9.9-9.899a3.002 3.002 0 014.242 0l2.829 2.829a3.002 3.002 0 010 4.242l-9.899 9.899c-1.275 1.275-2.693 1.549-3.073 1.17l-.463-.462-2.254-2.254c-.176-.176-.032-1.119.486-1.637l9.897-9.897c.116-.115 1.062.354 1.768 1.061l-.353.354-7.182 7.181 1.414 1.414 7.182-7.181c.855-.854 1.918-1.618.354-3.182-1.563-1.564-3.137-2.52-4.596-1.061l-9.9 9.897c-1.168 1.17-1.623 3.326-.484 4.465l1.545 1.547 1.172 1.17c1.326 1.326 3.918.812 5.9-1.17l9.899-9.899a5.007 5.007 0 00.001-7.072z"/></svg>