<svg xmlns="http://www.w3.org/2000/svg" width="24" height="24"><path d="M18.364 23.523c-.379.002-.777-.107-1.184-.322l-3.876-2.037c-.648-.342-1.96-.342-2.61 0L6.82 23.201c-.97.51-1.941.389-2.494-.266-.267-.316-.551-.891-.39-1.828l.74-4.316c.13-.76-.255-1.943-.807-2.482L.732 11.253C.075 10.61-.173 9.847.051 9.157c.225-.689.875-1.161 1.785-1.293l4.332-.63c.764-.111 1.771-.842 2.111-1.533l1.939-3.928C10.625.949 11.274.477 12 .477s1.375.473 1.781 1.297l1.939 3.928c.341.691 1.348 1.422 2.111 1.533l4.332.63c.91.132 1.561.604 1.785 1.293s-.024 1.453-.683 2.096l-3.137 3.056c-.552.539-.937 1.723-.807 2.482l.74 4.316c.161.938-.123 1.512-.39 1.826-.317.38-.783.589-1.307.589zM12 18.895c.83 0 1.624.178 2.235.5l3.853 2.025-.735-4.291c-.243-1.418.351-3.246 1.381-4.252l3.118-3.037-4.307-.627c-1.426-.207-2.981-1.336-3.617-2.627L12 2.683l-1.928 3.903c-.636 1.291-2.191 2.42-3.617 2.627l-4.307.627 3.118 3.037c1.03 1.006 1.624 2.834 1.381 4.252l-.735 4.291 3.852-2.025c.612-.323 1.406-.5 2.236-.5z"/></svg>