<svg xmlns="http://www.w3.org/2000/svg" width="24" height="24"><path d="M23.986 12l-2.658-3.061.369-4.052-3.932-.897L15.704.488 12 2.101 8.294.488 6.235 3.99l-3.933.898.368 4.051L.014 12l2.656 3.061-.368 4.053 3.934.896 2.061 3.502L12 21.901l3.704 1.61 2.059-3.5 3.935-.896-.369-4.055L23.986 12zm-7.467 6.283l-1.613 2.744L12 19.765l-2.905 1.263-1.615-2.744-3.086-.706.289-3.176L2.598 12l2.085-2.399-.289-3.178 3.088-.706 1.611-2.742L12 4.237l2.905-1.263 1.613 2.742 3.086.706-.289 3.176L21.4 12l-2.085 2.401.289 3.178-3.085.704zM12 5.621c-3.484 0-6.319 2.862-6.319 6.379S8.516 18.379 12 18.379s6.319-2.861 6.319-6.379c0-3.517-2.835-6.379-6.319-6.379zm0 11.776c-2.948 0-5.347-2.421-5.347-5.397S9.052 6.603 12 6.603c2.947 0 5.347 2.421 5.347 5.397s-2.4 5.397-5.347 5.397z"/></svg>