<svg xmlns="http://www.w3.org/2000/svg" width="24" height="24"><path d="M19.602 5.105l1.414 1.414 1.414-1.414-3.535-3.535-1.415 1.414 1.414 1.414-2.122 2.122-4.243-4.243-1.414 1.414 1.414 1.414L1.924 15.712l2.424 2.425L1.57 22.43l4.293-2.777 2.424 2.424L18.895 11.47l1.414 1.414 1.414-1.414-4.243-4.242 2.122-2.123zm-2.122 4.951l-2.123 2.121-2.121-2.122-.707.707 2.121 2.122-1.414 1.415-2.121-2.122-.707.707 2.121 2.122-1.414 1.414-2.121-2.122-.707.707 2.121 2.122-2.121 2.121-3.535-3.536 9.191-9.192 3.537 3.536z"/></svg>