<?xml version="1.0" encoding="UTF-8" standalone="no"?>
<!DOCTYPE svg PUBLIC "-//W3C//DTD SVG 1.1//EN" "http://www.w3.org/Graphics/SVG/1.1/DTD/svg11.dtd">
<svg width="100%" height="100%" viewBox="0 0 24 24" version="1.1" xmlns="http://www.w3.org/2000/svg" xmlns:xlink="http://www.w3.org/1999/xlink" xml:space="preserve" xmlns:serif="http://www.serif.com/" style="fill-rule:evenodd;clip-rule:evenodd;stroke-linejoin:round;stroke-miterlimit:2;">
    <g transform="matrix(1.23077,0,0,1.23077,-2.76923,-2.76923)">
        <path d="M12,21.75C6.615,21.75 2.25,17.385 2.25,12C2.25,6.615 6.615,2.25 12,2.25C17.385,2.25 21.75,6.615 21.75,12C21.75,17.385 17.385,21.75 12,21.75ZM12,4.5C7.885,4.501 4.5,7.886 4.5,12.001C4.5,16.116 7.886,19.502 12.001,19.502C12.001,19.502 12.002,19.502 12.002,19.502C16.117,19.501 19.502,16.116 19.502,12.001C19.502,7.886 16.116,4.5 12.001,4.5C12.001,4.5 12,4.5 12,4.5ZM15.403,14.651L14.643,15.411C14.504,15.55 14.275,15.55 14.136,15.411L11.984,13.259L9.831,15.412C9.692,15.55 9.464,15.55 9.325,15.412L8.565,14.652C8.426,14.513 8.426,14.284 8.565,14.145L10.717,11.993L8.564,9.841C8.426,9.702 8.426,9.473 8.564,9.334L9.324,8.574C9.465,8.434 9.691,8.434 9.831,8.574L11.983,10.727L14.136,8.574C14.276,8.434 14.503,8.434 14.642,8.574L15.402,9.334C15.54,9.473 15.54,9.702 15.402,9.841L13.25,11.993L15.403,14.145C15.543,14.285 15.543,14.513 15.403,14.651Z" style="fill-rule:nonzero;"/>
    </g>
</svg>
