<svg viewBox="0 0 24 24" xmlns="http://www.w3.org/2000/svg" fill-rule="evenodd" clip-rule="evenodd" stroke-linejoin="round" stroke-miterlimit="2"><path d="M12 24C5.372 24 0 18.628 0 12S5.372 0 12 0s12 5.372 12 12-5.372 12-12 12zm0-21.23C6.935 2.77 2.77 6.936 2.77 12c0 5.065 4.167 9.232 9.231 9.232h.001c5.065-.001 9.231-4.167 9.231-9.232 0-5.064-4.167-9.232-9.232-9.232H12zm4.188 12.493l-.935.935a.443.443 0 01-.624 0L11.98 13.55 9.33 16.2a.444.444 0 01-.622 0l-.936-.936a.443.443 0 010-.624l2.649-2.649-2.65-2.648a.446.446 0 010-.624l.935-.936a.441.441 0 01.624 0l2.65 2.65 2.649-2.65a.44.44 0 01.623 0l.935.936c.17.17.17.453 0 .624l-2.649 2.648 2.65 2.649a.44.44 0 010 .623z" fill-rule="nonzero"/></svg>