<?xml version="1.0" encoding="UTF-8" standalone="no"?>
<!DOCTYPE svg PUBLIC "-//W3C//DTD SVG 1.1//EN" "http://www.w3.org/Graphics/SVG/1.1/DTD/svg11.dtd">
<svg width="100%" height="100%" viewBox="0 0 24 24" version="1.1" xmlns="http://www.w3.org/2000/svg" xmlns:xlink="http://www.w3.org/1999/xlink" xml:space="preserve" xmlns:serif="http://www.serif.com/" style="fill-rule:evenodd;clip-rule:evenodd;stroke-linejoin:round;stroke-miterlimit:2;">
    <g transform="matrix(1.23077,0,0,1.23077,-2.76923,-2.76923)">
        <path d="M16.365,9.772L15.614,9.021C15.548,8.955 15.457,8.917 15.363,8.917C15.27,8.917 15.179,8.955 15.113,9.021L10.602,13.531L8.458,11.369C8.391,11.302 8.301,11.265 8.207,11.265C8.112,11.265 8.022,11.302 7.955,11.369L7.204,12.121C7.138,12.187 7.1,12.278 7.1,12.372C7.1,12.465 7.138,12.556 7.204,12.622L10.349,15.79C10.486,15.926 10.712,15.926 10.849,15.79L16.365,10.274C16.432,10.208 16.47,10.117 16.47,10.023C16.47,9.929 16.432,9.838 16.365,9.772ZM12,2.25C6.615,2.25 2.25,6.615 2.25,12C2.25,17.385 6.615,21.75 12,21.75C17.385,21.75 21.75,17.385 21.75,12C21.75,6.615 17.385,2.25 12,2.25ZM12,19.5C7.885,19.499 4.5,16.114 4.5,11.999C4.5,7.884 7.886,4.498 12.001,4.498C12.001,4.498 12.002,4.498 12.002,4.498C16.117,4.499 19.502,7.884 19.502,11.999C19.502,16.114 16.116,19.5 12.001,19.5C12.001,19.5 12,19.5 12,19.5Z" style="fill-rule:nonzero;"/>
    </g>
</svg>
