<svg viewBox="0 0 24 24" xmlns="http://www.w3.org/2000/svg" fill-rule="evenodd" clip-rule="evenodd" stroke-linejoin="round" stroke-miterlimit="2"><path d="M17.372 9.258l-.924-.924a.439.439 0 00-.617 0l-5.552 5.55-2.638-2.66a.436.436 0 00-.62 0l-.924.925a.439.439 0 000 .617l3.871 3.899a.44.44 0 00.615 0l6.79-6.79a.435.435 0 000-.617zM12 0C5.372 0 0 5.372 0 12s5.372 12 12 12 12-5.372 12-12S18.628 0 12 0zm0 21.23c-5.065 0-9.23-4.167-9.23-9.231 0-5.065 4.167-9.232 9.231-9.232h.001c5.065.001 9.231 4.167 9.231 9.232 0 5.064-4.167 9.232-9.232 9.232H12z" fill-rule="nonzero"/></svg>