<?xml version="1.0" encoding="UTF-8" standalone="no"?>
<!DOCTYPE svg PUBLIC "-//W3C//DTD SVG 1.1//EN" "http://www.w3.org/Graphics/SVG/1.1/DTD/svg11.dtd">
<svg width="100%" height="100%" viewBox="0 0 24 24" version="1.1" xmlns="http://www.w3.org/2000/svg" xmlns:xlink="http://www.w3.org/1999/xlink" xml:space="preserve" xmlns:serif="http://www.serif.com/" style="fill-rule:evenodd;clip-rule:evenodd;stroke-linejoin:round;stroke-miterlimit:2;">
    <g transform="matrix(1.2,0,0,1.2,0.148009,0.148012)">
        <path d="M2.93,17.07C0.977,15.188 -0.127,12.589 -0.123,9.877C-0.123,4.354 4.354,-0.123 9.877,-0.123C12.587,-0.127 15.186,0.975 17.067,2.927L17.07,2.93C18.873,4.792 19.881,7.285 19.877,9.877C19.877,15.4 15.4,19.877 9.877,19.877C7.284,19.88 4.789,18.871 2.927,17.067L2.93,17.07ZM4.34,15.66C5.839,17.163 7.877,18.007 10,18.004C14.421,18.004 18.004,14.42 18.004,10C18.007,7.877 17.162,5.839 15.66,4.34C14.161,2.837 12.123,1.993 10,1.996C5.579,1.996 1.996,5.58 1.996,10C1.993,12.123 2.838,14.161 4.34,15.66ZM14.24,7.17L11.41,10L14.24,12.83L12.83,14.24L10,11.41L7.17,14.24L5.76,12.83L8.59,10L5.76,7.17L7.17,5.76L10,8.59L12.83,5.76L14.24,7.17Z" style="fill-rule:nonzero;"/>
    </g>
</svg>
