<svg viewBox="0 0 24 24" xmlns="http://www.w3.org/2000/svg" fill-rule="evenodd" clip-rule="evenodd" stroke-linejoin="round" stroke-miterlimit="2"><path d="M3.664 20.632A11.968 11.968 0 010 12C0 5.373 5.373 0 12 0a11.963 11.963 0 018.628 3.66l.004.004A11.961 11.961 0 0124 12c0 6.628-5.372 12-12 12a11.97 11.97 0 01-8.34-3.372l.004.004zm1.692-1.692a9.576 9.576 0 006.792 2.813c5.305 0 9.605-4.301 9.605-9.605a9.58 9.58 0 00-2.813-6.792 9.576 9.576 0 00-6.792-2.813c-5.305 0-9.605 4.301-9.605 9.605a9.58 9.58 0 002.813 6.792zm11.88-10.188l-3.396 3.396 3.396 3.396-1.692 1.692-3.396-3.396-3.396 3.396-1.692-1.692 3.396-3.396L7.06 8.752 8.752 7.06l3.396 3.396 3.396-3.396 1.692 1.692z" fill-rule="nonzero"/></svg>