<svg viewBox="0 0 24 24" xmlns="http://www.w3.org/2000/svg" fill-rule="evenodd" clip-rule="evenodd" stroke-linejoin="round" stroke-miterlimit="2"><path d="M7.344 23.06A12.02 12.02 0 010 12C0 5.417 5.417 0 12 0s12 5.417 12 12-5.417 12-12 12a11.92 11.92 0 01-4.655-.94zm.873-19.974a9.769 9.769 0 00-5.968 8.988c0 5.35 4.402 9.753 9.752 9.753 5.35 0 9.753-4.403 9.753-9.753 0-5.35-4.403-9.752-9.753-9.752H12a9.674 9.674 0 00-3.783.763h.001zM9.863 15.03V8.408c0-.586.482-1.068 1.068-1.068.586 0 1.068.482 1.068 1.068v4.485h3.631c.586 0 1.068.482 1.068 1.068 0 .587-.482 1.069-1.068 1.069H9.863z" fill-rule="nonzero"/></svg>