<svg xmlns="http://www.w3.org/2000/svg" width="20" height="20" viewBox="0 0 24 24"><path d="M3.516 20.484a11.965 11.965 0 01-3.664-8.632c0-6.627 5.373-12 12-12 3.388 0 6.447 1.403 8.628 3.66l.004.004a11.956 11.956 0 013.368 8.336c0 6.628-5.372 12-12 12-3.24 0-6.18-1.284-8.34-3.372l.004.004zm1.692-1.692A9.574 9.574 0 0012 21.605c5.305 0 9.605-4.301 9.605-9.605a9.58 9.58 0 00-2.813-6.792A9.574 9.574 0 0012 2.395c-5.305 0-9.605 4.301-9.605 9.605a9.58 9.58 0 002.813 6.792zm11.88-10.188L13.692 12l3.396 3.396-1.692 1.692L12 13.692l-3.396 3.396-1.692-1.692L10.308 12 6.912 8.604l1.692-1.692L12 10.308l3.396-3.396 1.692 1.692z"/></svg>