<svg xmlns="http://www.w3.org/2000/svg" width="24" height="24"><path d="M12 0C5.373 0 0 5.373 0 12s5.373 12 12 12 12-5.373 12-12S18.627 0 12 0zm0 22C6.486 22 2 17.514 2 12S6.486 2 12 2s10 4.486 10 10-4.486 10-10 10zM7.108 5.669l-.004.003v.001l-.004.003-.002.002-.007.005-.001.001-.004.003-.002.001-.003.003a.008.008 0 00-.004.002l-.002.002a.018.018 0 00-.005.004l-.002.002-.004.002-.002.002-.003.003-.001.001-.007.005v.001l-.005.004h-.002l-.004.004-.002.002-.011.007-.001.001a.012.012 0 00-.005.005l-.019.014v.001a8.914 8.914 0 00-.316.267l-.017.015h-.001l-.005.006h-.001l-.011.01H6.65a.022.022 0 01-.004.005l-.001.001a.018.018 0 01-.005.004v.001c-.002 0-.004.002-.006.004l-.001.001-.004.004-.001.001a.017.017 0 01-.004.003l-.002.002-.006.005-.001.001-.004.004-.001.001a.018.018 0 01-.005.004l-.001.001-.004.005-.002.002-.004.003-.002.003-.003.002-.003.001-.002.003-.004.003-.004.004-.002.002-.002.002-.004.003-.001.001-.011.012h-.001a.008.008 0 01-.004.004l-.001.001-.002.001.682.732c.212-.197.44-.385.675-.555l-.586-.81c-.071.05-.141.103-.211.157zM5.355 9.791l-.949-.315a7.856 7.856 0 00-.166.573h-.001l-.001.006-.006.023-.002.006v.001a.658.658 0 01-.006.022v.002l-.001.004v.002l-.005.018-.001.006-.002.006v.001l-.004.017v.001l-.001.005-.001.002-.001.005v.001l-.004.017v.001l-.002.006-.005.023v.001l-.002.005v.002l-.005.022v.001l-.001.005-.004.018-.001.006v.002l-.001.005-.001.001-.005.023-.005.024-.001.006-.021.097.981.194c.058-.285.133-.57.224-.845zM12 5c.08 0 .159.002.238.004l.033-1A13.223 13.223 0 0012.068 4h-.171l-.008.001h-.024l-.016.001h-.048l-.023.001a.02.02 0 00-.008.001h-.04a8.467 8.467 0 00-.66.049l-.022.004h-.008l-.004.001-.004.001h-.006l-.008.001-.003.001h-.008l-.003.001h-.003l.124.992A7.1 7.1 0 0112 5zm-7.635 9.395v.002l.004.014.002.008h.001c.099.312.216.616.351.91l.909-.416a6.887 6.887 0 01-.312-.816l-.955.298zm15.31-4.661a7.66 7.66 0 00-.28-.792v-.001l-.001-.003-.001-.003-.007-.016a.008.008 0 01-.002-.005l-.001-.001-.002-.005-.001-.002-.003-.007-.001-.003-.001-.003-.001-.003-.002-.004-.002-.004-.004-.008v-.002l-.003-.005v-.003l-.002-.004-.001-.002-.003-.006v.001l-.003-.007-.001-.001-.002-.005v-.002l-.003-.006-.01-.022-.006-.015-.917.401c.117.266.218.541.3.82l.96-.282zm-.831 3.746a7.388 7.388 0 01-.237.841l.943.331.061-.18.026-.082a8.54 8.54 0 00.185-.699l-.978-.211zm-2.135-7.948s0-.001 0 0l-.014-.011h-.002l-.003-.002-.002-.001c-.001-.002-.003-.002-.003-.002l-.004-.004c-.001-.002-.002-.002-.003-.002l-.004-.003-.002-.002-.004-.003-.002-.001-.006-.004-.006-.005h-.001a.018.018 0 00-.005-.004l-.001-.001a7.78 7.78 0 00-.576-.375l-.509.86c.249.148.493.313.723.492l.613-.791a8.92 8.92 0 00-.185-.139l-.004-.002zm-6.555 2.716s-1.484 5.945-1.047 7.543a3 3 0 105.788-1.583c-.438-1.598-4.741-5.96-4.741-5.96zm2.373 8.681a2 2 0 11-1.053-3.859 2 2 0 011.053 3.859z"/></svg>