<?xml version="1.0" encoding="UTF-8" standalone="no"?>
<!DOCTYPE svg PUBLIC "-//W3C//DTD SVG 1.1//EN" "http://www.w3.org/Graphics/SVG/1.1/DTD/svg11.dtd">
<svg width="100%" height="100%" viewBox="0 0 24 24" version="1.1" xmlns="http://www.w3.org/2000/svg" xmlns:xlink="http://www.w3.org/1999/xlink" xml:space="preserve" xmlns:serif="http://www.serif.com/" style="fill-rule:evenodd;clip-rule:evenodd;stroke-linejoin:round;stroke-miterlimit:2;">
    <g transform="matrix(1.23077,0,0,1.23077,-2.76923,-2.76923)">
        <path d="M12,2.25C6.615,2.25 2.25,6.615 2.25,12C2.25,17.385 6.615,21.75 12,21.75C17.385,21.75 21.75,17.385 21.75,12C21.75,6.615 17.385,2.25 12,2.25ZM12,19.5C7.885,19.499 4.5,16.114 4.5,11.999C4.5,7.884 7.886,4.498 12.001,4.498C12.001,4.498 12.002,4.498 12.002,4.498C16.117,4.499 19.502,7.884 19.502,11.999C19.502,16.114 16.116,19.5 12.001,19.5C12.001,19.5 12,19.5 12,19.5ZM14.803,11.25L8.803,11.25C8.392,11.25 8.053,11.589 8.053,12C8.053,12.411 8.392,12.75 8.803,12.75L14.803,12.75C15.214,12.75 15.553,12.411 15.553,12C15.553,11.589 15.214,11.25 14.803,11.25Z" style="fill-rule:nonzero;"/>
    </g>
</svg>
