<svg viewBox="0 0 24 24" xmlns="http://www.w3.org/2000/svg" fill-rule="evenodd" clip-rule="evenodd" stroke-linejoin="round" stroke-miterlimit="2"><path d="M12 0C5.372 0 0 5.372 0 12s5.372 12 12 12 12-5.372 12-12S18.628 0 12 0zm0 21.23c-5.065 0-9.23-4.167-9.23-9.231 0-5.065 4.167-9.232 9.231-9.232h.001c5.065.001 9.231 4.167 9.231 9.232 0 5.064-4.167 9.232-9.232 9.232H12zm3.45-10.153H8.065a.928.928 0 00-.923.923c0 .506.417.923.923.923h7.385a.928.928 0 00.923-.923.928.928 0 00-.923-.923z" fill-rule="nonzero"/></svg>