<svg viewBox="0 0 24 24" xmlns="http://www.w3.org/2000/svg" fill-rule="evenodd" clip-rule="evenodd" stroke-linejoin="round" stroke-miterlimit="2"><path d="M12 0C5.372 0 0 5.372 0 12s5.372 12 12 12 12-5.372 12-12S18.628 0 12 0zm0 21.333c-5.12 0-9.333-4.213-9.333-9.333S6.88 2.667 12 2.667 21.333 6.88 21.333 12 17.12 21.333 12 21.333zm0-15.11c-.736 0-1.333.595-1.333 1.333v4.499A1.34 1.34 0 0012 13.388a1.34 1.34 0 001.333-1.333V7.557c0-.737-.597-1.334-1.333-1.334zm0 8.888a1.34 1.34 0 00-1.333 1.334A1.34 1.34 0 0012 17.778a1.34 1.34 0 001.333-1.333A1.34 1.34 0 0012 15.11z" fill-rule="nonzero"/></svg>