<?xml version="1.0" encoding="UTF-8" standalone="no"?>
<!DOCTYPE svg PUBLIC "-//W3C//DTD SVG 1.1//EN" "http://www.w3.org/Graphics/SVG/1.1/DTD/svg11.dtd">
<svg width="100%" height="100%" viewBox="0 0 24 24" version="1.1" xmlns="http://www.w3.org/2000/svg" xmlns:xlink="http://www.w3.org/1999/xlink" xml:space="preserve" xmlns:serif="http://www.serif.com/" style="fill-rule:evenodd;clip-rule:evenodd;stroke-linejoin:round;stroke-miterlimit:2;">
    <g transform="matrix(1.18519,0,0,1.18519,-1.77778,-2.66667)">
        <path d="M11.625,2.25C6.033,2.25 1.5,6.783 1.5,12.375C1.5,17.967 6.033,22.5 11.625,22.5C17.217,22.5 21.75,17.967 21.75,12.375C21.75,6.783 17.217,2.25 11.625,2.25ZM11.625,20.25C7.305,20.25 3.75,16.695 3.75,12.375C3.75,8.055 7.305,4.5 11.625,4.5C15.945,4.5 19.5,8.055 19.5,12.375C19.5,16.695 15.945,20.25 11.625,20.25ZM11.625,7.5C11.004,7.5 10.5,8.003 10.5,8.625L10.5,12.421C10.5,13.038 11.008,13.546 11.625,13.546C12.242,13.546 12.75,13.038 12.75,12.421L12.75,8.626C12.75,8.004 12.246,7.501 11.625,7.501L11.625,7.5ZM11.625,15C11.008,15 10.5,15.508 10.5,16.125C10.5,16.742 11.008,17.25 11.625,17.25C12.242,17.25 12.75,16.742 12.75,16.125C12.75,15.508 12.242,15 11.625,15Z" style="fill-rule:nonzero;"/>
    </g>
</svg>
