<svg xmlns="http://www.w3.org/2000/svg" viewBox="0 0 24 24"><path d="M12 2.25c-5.385 0-9.75 4.365-9.75 9.75s4.365 9.75 9.75 9.75 9.75-4.365 9.75-9.75S17.385 2.25 12 2.25zm0 18a8.25 8.25 0 110-16.5 8.25 8.25 0 010 16.5zm.904-8.705c.328-.143.582-.351.764-.623s.271-.583.271-.931c0-.561-.198-1.024-.591-1.39-.396-.365-.95-.548-1.665-.548-.721 0-1.277.183-1.668.548s-.588.829-.588 1.39c0 .328.085.63.254.905.17.275.44.491.813.649-.433.185-.75.448-.953.788s-.301.715-.301 1.122c0 .74.268 1.322.804 1.746.454.36 1.023.54 1.706.54.734 0 1.323-.218 1.766-.653.442-.434.663-1 .663-1.694 0-.422-.108-.793-.325-1.115s-.533-.566-.95-.734zM11.04 9.442c.164-.164.384-.246.661-.246.266 0 .48.08.643.244s.243.378.243.648c0 .288-.082.513-.246.675s-.383.243-.656.243c-.27 0-.485-.08-.648-.24-.162-.161-.243-.385-.243-.672 0-.27.082-.488.246-.652zm1.424 4.818a.96.96 0 01-.738.32c-.304 0-.558-.11-.762-.332s-.305-.533-.305-.93c0-.284.086-.548.26-.792s.435-.365.786-.365c.305 0 .556.108.755.321.198.215.297.498.297.85 0 .404-.098.713-.293.928z"/></svg>