<svg xmlns="http://www.w3.org/2000/svg" viewBox="0 0 24 24"><path d="M12 2.25c-5.385 0-9.75 4.365-9.75 9.75s4.365 9.75 9.75 9.75 9.75-4.365 9.75-9.75S17.385 2.25 12 2.25zm0 18a8.25 8.25 0 110-16.5 8.25 8.25 0 010 16.5zm-.293-11.747c-.702 0-1.278.233-1.732.7s-.679 1.081-.679 1.843c0 .732.215 1.326.643 1.782s.94.685 1.53.685c.544 0 .997-.211 1.36-.632-.058.862-.192 1.43-.4 1.703-.208.273-.46.41-.758.41-.235 0-.424-.068-.568-.205s-.233-.348-.266-.632l-1.394.154c.103.624.335 1.094.697 1.407.362.315.838.472 1.425.472.817 0 1.48-.304 1.989-.914.51-.609.764-1.601.764-2.976 0-1.352-.244-2.322-.733-2.912s-1.116-.885-1.878-.885zm.71 3.627a.887.887 0 01-.699.328c-.286 0-.526-.113-.717-.341s-.286-.584-.286-1.07c0-.478.087-.823.263-1.033s.396-.315.663-.315c.28 0 .526.128.74.385.213.256.32.617.32 1.082 0 .424-.094.745-.285.964z"/></svg>