<svg xmlns="http://www.w3.org/2000/svg" viewBox="0 0 24 24"><path d="M12 2.25c-5.385 0-9.75 4.365-9.75 9.75s4.365 9.75 9.75 9.75 9.75-4.365 9.75-9.75S17.385 2.25 12 2.25zm0 18a8.25 8.25 0 110-16.5 8.25 8.25 0 010 16.5zm.39-9.236c-.533 0-.979.211-1.338.636.055-.864.187-1.431.397-1.704s.466-.408.77-.408c.23 0 .416.068.559.204s.232.348.266.634l1.394-.154c-.103-.607-.341-1.07-.715-1.39s-.847-.478-1.418-.478c-.814 0-1.475.304-1.984.913-.51.608-.764 1.601-.764 2.979 0 1.343.244 2.31.734 2.9.488.589 1.112.884 1.872.884.708 0 1.287-.233 1.738-.698.452-.466.677-1.084.677-1.854 0-.726-.215-1.318-.643-1.776-.428-.46-.944-.688-1.545-.688zm.51 3.506a.839.839 0 01-.665.313c-.276 0-.522-.128-.737-.383s-.323-.617-.323-1.087c0-.424.095-.746.287-.963s.425-.327.702-.327c.286 0 .525.114.717.342s.287.586.287 1.077c0 .477-.09.82-.267 1.028z"/></svg>