<svg xmlns="http://www.w3.org/2000/svg" viewBox="0 0 24 24"><path d="M12 2.25c-5.385 0-9.75 4.365-9.75 9.75s4.365 9.75 9.75 9.75 9.75-4.365 9.75-9.75S17.385 2.25 12 2.25zm0 18a8.25 8.25 0 110-16.5 8.25 8.25 0 010 16.5zm1.173-6.917c.455-.417.77-.737.945-.959a3.98 3.98 0 00.578-.961c.12-.306.181-.629.181-.967 0-.595-.212-1.093-.636-1.492s-1.006-.6-1.748-.6c-.677 0-1.24.172-1.692.517s-.72.913-.805 1.706l1.435.143c.028-.42.13-.72.308-.9s.416-.271.717-.271c.304 0 .542.086.714.259.173.172.26.42.26.74 0 .291-.1.585-.298.883-.146.215-.545.625-1.194 1.23-.807.748-1.347 1.349-1.62 1.802s-.438.931-.492 1.438h5.051v-1.336h-2.864c.075-.13.173-.263.295-.4.12-.138.409-.415.865-.832z"/></svg>