<svg xmlns="http://www.w3.org/2000/svg" viewBox="0 0 24 24"><path d="M12 2.25c-5.385 0-9.75 4.365-9.75 9.75s4.365 9.75 9.75 9.75 9.75-4.365 9.75-9.75S17.385 2.25 12 2.25zm0 18a8.25 8.25 0 110-16.5 8.25 8.25 0 010 16.5zm.936-8.836c.722-.394 1.082-.92 1.082-1.58 0-.467-.175-.884-.529-1.253-.428-.452-.997-.677-1.706-.677-.415 0-.789.078-1.123.233s-.594.37-.781.641c-.186.271-.326.635-.42 1.09l1.33.227c.039-.33.145-.579.32-.75s.387-.258.634-.258c.25 0 .452.076.603.226.15.15.226.353.226.606a.907.907 0 01-.31.718c-.204.18-.504.265-.896.254l-.16 1.174c.259-.072.479-.108.664-.108.28 0 .519.106.714.317s.294.5.294.86c0 .383-.102.686-.306.911s-.455.338-.753.338a.984.984 0 01-.708-.281c-.196-.188-.315-.46-.36-.815l-1.394.17c.072.632.332 1.143.78 1.535s1.013.586 1.694.586c.717 0 1.318-.231 1.8-.696s.724-1.026.724-1.686c0-.453-.129-.841-.386-1.162a1.76 1.76 0 00-1.033-.62z"/></svg>