<svg xmlns="http://www.w3.org/2000/svg" viewBox="0 0 24 24"><path d="M12 2.25c-5.385 0-9.75 4.365-9.75 9.75s4.365 9.75 9.75 9.75 9.75-4.365 9.75-9.75S17.385 2.25 12 2.25zm0 18a8.25 8.25 0 110-16.5 8.25 8.25 0 010 16.5zm-.005-12.197c-.73 0-1.296.256-1.703.77-.493.622-.74 1.64-.74 3.055 0 1.442.225 2.445.673 3.007s1.039.843 1.77.843c.729 0 1.297-.256 1.704-.768.493-.622.74-1.644.74-3.066 0-1.425-.245-2.446-.735-3.062-.41-.519-.98-.78-1.708-.78zm.789 5.716c-.077.288-.182.486-.32.598a.729.729 0 01-.468.167c-.176 0-.331-.055-.467-.165s-.248-.328-.337-.658-.134-.936-.134-1.817.05-1.51.15-1.881c.074-.288.18-.486.319-.597a.725.725 0 01.469-.167c.174 0 .329.056.465.167s.248.331.337.661.135.936.135 1.817-.05 1.506-.15 1.875z"/></svg>