<svg xmlns="http://www.w3.org/2000/svg" viewBox="0 0 24 24"><path d="M12 2.25c-5.385 0-9.75 4.365-9.75 9.75s4.365 9.75 9.75 9.75 9.75-4.365 9.75-9.75S17.385 2.25 12 2.25zm0 18a8.25 8.25 0 110-16.5 8.25 8.25 0 010 16.5zm.194-9.833c-.335 0-.664.08-.985.24l.23-1.277h2.716V8.031h-3.809l-.739 3.914 1.168.17c.329-.367.7-.55 1.113-.55.332 0 .601.115.808.346s.31.578.31 1.04c0 .493-.105.86-.312 1.106s-.464.367-.765.367a.988.988 0 01-.698-.284c-.202-.19-.323-.447-.364-.77l-1.435.148c.086.629.347 1.13.784 1.502.439.372 1.004.558 1.699.558.868 0 1.546-.33 2.036-.995.359-.485.537-1.038.537-1.658 0-.741-.222-1.345-.666-1.811a2.169 2.169 0 00-1.628-.698z"/></svg>