<svg viewBox="0 0 24 24" xmlns="http://www.w3.org/2000/svg" fill-rule="evenodd" clip-rule="evenodd" stroke-linejoin="round" stroke-miterlimit="2"><path d="M13.381 0h-2.818v14.083h2.818V0zm5.099 3.438l-2.08 2.05a8.196 8.196 0 013.053 3.041c.738 1.278 1.107 2.678 1.107 4.198a8.24 8.24 0 01-1.14 4.232 8.298 8.298 0 01-3.12 3.074c-1.32.75-2.762 1.124-4.327 1.124-1.566 0-3.008-.374-4.328-1.124a8.298 8.298 0 01-3.12-3.074 8.235 8.235 0 01-1.14-4.232c0-1.52.369-2.92 1.107-4.198a8.346 8.346 0 012.986-3.042l-2.013-2.05a11.801 11.801 0 00-3.623 4C.947 9.048.5 10.8.5 12.695c0 2.028.514 3.912 1.543 5.653a11.346 11.346 0 004.193 4.132A11.33 11.33 0 0011.972 24c2.058 0 3.97-.506 5.736-1.52a11.343 11.343 0 004.194-4.132 10.92 10.92 0 001.543-5.653c0-1.895-.448-3.647-1.342-5.256a11.801 11.801 0 00-3.623-4z" fill="#000333" fill-rule="nonzero"/></svg>