<svg viewBox="0 0 24 24" xmlns="http://www.w3.org/2000/svg" fill-rule="evenodd" clip-rule="evenodd" stroke-linejoin="round" stroke-miterlimit="2"><path d="M0 12C.007 5.42 5.42.007 12 0c6.58.007 11.993 5.42 12 12-.008 6.58-5.42 11.992-12 12C5.42 23.993.007 18.58 0 12zm2.22 0c.006 5.363 4.417 9.774 9.78 9.78 5.363-.006 9.774-4.417 9.78-9.78-.006-5.363-4.417-9.774-9.78-9.78-5.363.006-9.774 4.417-9.78 9.78zm8.132 7.246v-2.64h2.64v2.64h-2.64zm.66-3.953a1.487 1.487 0 01.041-.77 4.04 4.04 0 01.633-1.342c.28-.383.788-.286 1.522-1.029.522-.493.996-1.034 1.418-1.616.24-.463.35-.983.316-1.504a2.508 2.508 0 00-.72-1.767 2.77 2.77 0 00-2.11-.768c-2.076 0-3.074 1.109-3.074 3.527H7.06a7.175 7.175 0 01.324-2.414 3.948 3.948 0 011.08-1.537 5.065 5.065 0 011.722-1 6.212 6.212 0 012.004-.321 5.214 5.214 0 013.524 1.3 4.047 4.047 0 011.244 3.198 3.725 3.725 0 01-.337 1.662 5.905 5.905 0 01-1.374 1.858c-.787.743-1.311.612-1.57.924a3.26 3.26 0 00-.586 1.126c-.132.437-.09.24-.09.47l-1.99.003z" fill-rule="nonzero"/></svg>