<svg viewBox="0 0 24 24" xmlns="http://www.w3.org/2000/svg" fill-rule="evenodd" clip-rule="evenodd" stroke-linejoin="round" stroke-miterlimit="2"><path d="M3.838 3.676C1.518 5.344 0 8.059 0 11.127c.002 1.089.2 2.168.582 3.187l8.6-3.187-5.344-7.451zm-2.38 7.196a7.15 7.15 0 011.998-5.094l4.253 4.72-6.03 2.012a7.151 7.151 0 01-.22-1.638zM13.36 1.5c-2.562 0-5.037.923-6.97 2.6l.025.029-.405.353 6.46 7.41-9.398 2.985.137.432-.01.004c.029.094.066.183.099.274l.08.257.01-.004a10.606 10.606 0 009.972 6.942c5.867 0 10.64-4.774 10.64-10.64C24 6.275 19.227 1.5 13.36 1.5zm7.896 7.21l-6.413 2.347 4.186-5.386a8.662 8.662 0 012.227 3.038zM8.095 5.331a8.612 8.612 0 015.265-1.805 8.56 8.56 0 014.872 1.518l-4.895 6.298-5.242-6.011zM5.34 15.22l7.372-2.343-1.361 7.616A8.532 8.532 0 015.34 15.22zm8.02 5.534c-.344 0-.676-.041-1.01-.08l1.456-8.157 7.8-2.856a8.61 8.61 0 01.366 2.48c.001 4.75-3.864 8.613-8.612 8.613z" fill-rule="nonzero"/></svg>