<svg xmlns="http://www.w3.org/2000/svg" width="24" height="24"><path d="M13 4.05V3h.5a.5.5 0 00.5-.5v-2a.5.5 0 00-.5-.5h-3a.5.5 0 00-.5.5v2a.5.5 0 00.5.5h.5v1.054a9.98 9.98 0 00-2.583.619L7.37 3.662 5.543 1.836 2.025 5.354l2.271 2.271A9.954 9.954 0 002 14c0 5.523 4.477 10 10 10s10-4.477 10-10c0-5.186-3.946-9.448-9-9.95zM11 1h2v1h-2V1zM3.439 5.354L5.543 3.25 6.71 4.416 4.606 6.52 3.439 5.354zM12 22c-4.411 0-8-3.589-8-8s3.589-8 8-8 8 3.589 8 8-3.589 8-8 8zm-.793-12.541a.999.999 0 10-1.414 1.414l1.964 1.965-2.628 3.672a.998.998 0 00.87 1.49c.35 0 .689-.184.872-.51l3-4.334a.998.998 0 00-.164-1.197l-2.5-2.5z"/></svg>