<svg xmlns="http://www.w3.org/2000/svg" viewBox="0 0 24 24"><path d="M16.463.862C10.312-1.6 3.327 1.39.863 7.542c-2.464 6.152.527 13.138 6.679 15.6s13.137-.526 15.6-6.678c2.465-6.153-.526-13.137-6.679-15.601zM8.1 21.752C2.726 19.598.104 13.475 2.255 8.1S10.532.103 15.907 2.256c5.374 2.152 7.996 8.276 5.845 13.65-2.154 5.375-8.277 7.997-13.652 5.845zm4.462-11.14a1.5 1.5 0 10-1.116 2.786 1.5 1.5 0 001.116-2.787zm-.838 2.089a.752.752 0 01-.418-.976.753.753 0 01.976-.418.75.75 0 01-.558 1.393zm1.952-4.874a4.5 4.5 0 10-3.346 8.356 4.5 4.5 0 003.345-8.356zm-2.787 6.962a3.004 3.004 0 01-1.67-3.9 3.004 3.004 0 013.899-1.67 3.005 3.005 0 011.671 3.9 3.004 3.004 0 01-3.9 1.67zm6.685-.554h-.002a5.983 5.983 0 01-3.192 3.274c-.005.002-.008.008-.015.011a.375.375 0 01-.296-.689 5.235 5.235 0 002.808-2.875.375.375 0 01.697.278zm2.575.627a.376.376 0 01.209.487 8.971 8.971 0 01-4.789 4.911c-.009.004-.016.012-.025.017a.374.374 0 11-.295-.69 8.224 8.224 0 004.412-4.517.375.375 0 01.488-.209zm-1.393-.558a.376.376 0 01.21.488 7.475 7.475 0 01-3.99 4.092c-.009.004-.014.011-.021.015a.375.375 0 11-.294-.69h-.001a6.719 6.719 0 003.609-3.696.374.374 0 01.487-.209zm-8.621-7.619a.376.376 0 01-.197.494 5.231 5.231 0 00-2.808 2.874.375.375 0 11-.696-.28 5.983 5.983 0 013.192-3.274c.006-.002.01-.008.016-.01a.374.374 0 01.493.196zM8.954 3.926a.376.376 0 01-.197.493 8.227 8.227 0 00-4.412 4.517.374.374 0 11-.696-.28 8.971 8.971 0 014.789-4.911c.007-.004.014-.012.023-.016a.376.376 0 01.493.197zm.393 1.87V5.8a6.723 6.723 0 00-3.61 3.696.375.375 0 11-.695-.28 7.478 7.478 0 013.99-4.093c.008-.003.012-.01.02-.014a.375.375 0 11.296.689z"/></svg>