<svg xmlns="http://www.w3.org/2000/svg" viewBox="0 0 24 24"><path d="M11.625 0C5.205 0 0 5.204 0 11.625S5.204 23.25 11.625 23.25 23.25 18.046 23.25 11.625 18.046 0 11.625 0zm10.106 11.25h-4.497a14.942 14.942 0 00-.86-4.701 12.25 12.25 0 002.801-1.648 10.075 10.075 0 012.556 6.349zm-10.52 10.479c-1.247-1.038-2.293-2.386-3.058-3.951a11.623 11.623 0 013.097-.51v4.462l-.04-.001zm.827-20.208c1.415 1.177 2.569 2.755 3.35 4.594-1.07.366-2.206.578-3.389.615V1.52l.04.002zm1.25.127A10.098 10.098 0 0118.66 4.36a11.473 11.473 0 01-2.571 1.498 13.189 13.189 0 00-2.802-4.209zm-2.038-.13V6.73a11.619 11.619 0 01-3.388-.615c.78-1.84 1.935-3.417 3.349-4.594l.039-.002zm-4.09 4.34A11.501 11.501 0 014.59 4.36a10.095 10.095 0 015.372-2.71C8.8 2.81 7.842 4.24 7.16 5.857zm.419.949c1.156.401 2.389.635 3.671.674v3.769H6.766c.04-1.57.319-3.071.813-4.443zM11.25 12v4.519c-1.183.036-2.326.23-3.404.576A14.089 14.089 0 016.766 12h4.484zm-1.288 9.601a10.074 10.074 0 01-4.908-2.289 11.4 11.4 0 012.39-1.275 12.988 12.988 0 002.518 3.564zm2.038.13V17.27c1.074.035 2.115.203 3.097.51-.766 1.565-1.81 2.913-3.057 3.95l-.04.002zm3.806-3.694c.852.33 1.65.764 2.39 1.275a10.08 10.08 0 01-4.908 2.29 13.004 13.004 0 002.518-3.565zm-.402-.942A12.318 12.318 0 0012 16.52V12h4.484a14.105 14.105 0 01-1.08 5.095zM12 11.25V7.481a12.33 12.33 0 003.671-.673c.494 1.371.772 2.872.813 4.443H12zM4.076 4.901c.853.664 1.789 1.226 2.8 1.648a14.942 14.942 0 00-.86 4.701H1.519a10.072 10.072 0 012.557-6.349zM1.519 12h4.497a14.793 14.793 0 001.127 5.353c-.95.37-1.836.864-2.653 1.448A10.098 10.098 0 011.519 12zm17.242 6.8a12.192 12.192 0 00-2.655-1.448 14.794 14.794 0 001.128-5.353h4.497a10.098 10.098 0 01-2.97 6.801z"/></svg>