<svg viewBox="0 0 24 24" xmlns="http://www.w3.org/2000/svg" fill-rule="evenodd" clip-rule="evenodd" stroke-linejoin="round" stroke-miterlimit="2"><path d="M12 24a11.968 11.968 0 01-8.49-3.514A11.968 11.968 0 010 12a11.968 11.968 0 013.514-8.49A11.968 11.968 0 0112 0a11.968 11.968 0 018.49 3.514A11.968 11.968 0 0124 12a11.968 11.968 0 01-3.514 8.49A11.968 11.968 0 0112 24zM8.005 8.27a1.52 1.52 0 00-1.51 1.51v4.946a1.518 1.518 0 001.51 1.509h4.255c.014.01 1.758 1.431 1.997 1.618a.476.476 0 00.246.124.075.075 0 00.056-.022.139.139 0 00.029-.102v-1.618h1.727a1.52 1.52 0 001.51-1.509V9.78a1.52 1.52 0 00-1.51-1.51h-8.31zm6.582 4.854a.815.815 0 01-.81-.81.815.815 0 01.81-.81.815.815 0 01.81.81.815.815 0 01-.811.81zm-2.428 0a.815.815 0 01-.81-.81.815.815 0 01.81-.81.815.815 0 01.81.81.815.815 0 01-.81.81zm-2.427 0a.815.815 0 01-.81-.81.815.815 0 01.81-.81.815.815 0 01.81.81.815.815 0 01-.811.81h.001z" fill-rule="nonzero"/></svg>