<svg viewBox="0 0 24 24" xmlns="http://www.w3.org/2000/svg" fill-rule="evenodd" clip-rule="evenodd" stroke-linejoin="round" stroke-miterlimit="2"><path d="M12.044 24h-.01C5.433 24 0 18.576 0 11.985 0 7.162 2.909 2.787 7.36.914A12.057 12.057 0 0111.962 0C18.566 0 24 5.426 24 12.02c0 4.788-2.867 9.14-7.273 11.036a11.972 11.972 0 01-4.683.945zm2.15-8.598h-.025a.515.515 0 00-.513.512c0 .28.232.512.513.512l.024-.001h1.264v1.25c.002.281.235.51.516.509h.01a.515.515 0 00.516-.508v-1.25h1.272l.024.001a.51.51 0 00.509-.508.51.51 0 00-.509-.508h-1.296v-1.25a.524.524 0 00-.521-.497.524.524 0 00-.522.497v1.242l-1.263-.001zM13.64 7.59h-.02a2.526 2.526 0 00-2.517 2.492 2.452 2.452 0 00.742 1.762c.477.47 1.12.733 1.792.73-.22 0-.44.018-.657.053a2.49 2.49 0 00-.36.055 4.323 4.323 0 00-.422.102l-.057.016a5.302 5.302 0 00-.905.38l-.119.069a7.33 7.33 0 00-.302.182c-.204.132-.397.28-.575.446l-.163.161-.01.01a4.853 4.853 0 00-1.392 2.536c-.024.141-.054.328-.074.499l-.021.254-.007.261a.105.105 0 00.01.055.45.45 0 00.405.398c.02.008.043.011.065.01h4.344a3.275 3.275 0 01-.416-1.587 3.403 3.403 0 011.47-2.794 3.42 3.42 0 01.328-.209 3.824 3.824 0 011.107-.38l-.043-.014h-.006a4.352 4.352 0 00-.473-.196 2.42 2.42 0 00-.369-.11 1.517 1.517 0 00-.276-.072 4.961 4.961 0 00-.508-.082 3.657 3.657 0 00-.362-.034h-.157a2.542 2.542 0 001.758-.746 2.46 2.46 0 00.726-1.747 2.527 2.527 0 00-2.516-2.5h-.02zm-3.296-1.804A2.533 2.533 0 007.812 8.13a2.45 2.45 0 00.612 1.78 2.545 2.545 0 001.7.856 5.097 5.097 0 00-3.49 1.513 4.918 4.918 0 00-1.436 3.47.514.514 0 00.49.509h.027l1.969.063a5.497 5.497 0 013.57-3.887 4.41 4.41 0 01-.742-.776c-.045-.063-.429-.617-.378-.83a.408.408 0 00.02-.12c-.006 0-.022.033-.03.053a3.68 3.68 0 01-.064-1.033 2.85 2.85 0 011.97-2.41c.166-.064.34-.11.516-.137a2.529 2.529 0 00-2.118-1.393h-.084z" fill-rule="nonzero"/></svg>