<svg viewBox="0 0 24 24" xmlns="http://www.w3.org/2000/svg" fill-rule="evenodd" clip-rule="evenodd" stroke-linejoin="round" stroke-miterlimit="2"><path d="M12.034 24h-.067C5.4 23.995 0 18.59 0 12.022v-.043C0 5.412 5.401.005 11.968 0h.067C18.6.009 24 5.414 24 11.98v.042C24 18.588 18.6 23.993 12.034 24zm-3.61-11.547a1.896 1.896 0 00-1.879 1.878v1.478a1.892 1.892 0 001.876 1.882h1.484a1.886 1.886 0 001.877-1.877v-1.482a1.894 1.894 0 00-1.879-1.88H8.424zm6.64-.047a2.64 2.64 0 00-2.629 2.628 2.64 2.64 0 002.628 2.628 2.64 2.64 0 002.628-2.628v-.001a2.644 2.644 0 00-2.627-2.627zm-.73-5.86A1.895 1.895 0 0012.46 8.42V9.9a1.892 1.892 0 001.878 1.882h1.48a1.893 1.893 0 001.88-1.88V8.425a1.892 1.892 0 00-1.88-1.88h-1.485zm-5.911 0A1.898 1.898 0 006.545 8.42V9.9a1.893 1.893 0 001.879 1.882h1.477a1.895 1.895 0 001.88-1.882V8.425a1.892 1.892 0 00-1.88-1.88H8.423zm6.641 10.036h-.005c-.85 0-1.55-.7-1.55-1.55 0-.851.7-1.55 1.55-1.55.85 0 1.55.699 1.55 1.55a1.547 1.547 0 01-1.545 1.55z" fill-rule="nonzero"/></svg>