<svg viewBox="0 0 24 24" xmlns="http://www.w3.org/2000/svg" fill-rule="evenodd" clip-rule="evenodd" stroke-linejoin="round" stroke-miterlimit="2"><path d="M12 0C5.372 0 0 5.372 0 12s5.372 12 12 12 12-5.372 12-12S18.628 0 12 0zm0 18.807c-.76 0-1.385-.625-1.385-1.384 0-.76.626-1.385 1.385-1.385.76 0 1.385.625 1.385 1.385s-.626 1.384-1.385 1.384zm1.385-6c0 .76-.626 1.385-1.385 1.385-.76 0-1.385-.625-1.385-1.385V6.346c0-.76.626-1.385 1.385-1.385.76 0 1.385.625 1.385 1.385v6.461z" fill-rule="nonzero"/></svg>