<svg viewBox="0 0 24 24" xmlns="http://www.w3.org/2000/svg" fill-rule="evenodd" clip-rule="evenodd" stroke-linejoin="round" stroke-miterlimit="2"><path d="M12 24C5.372 24 0 18.628 0 12S5.372 0 12 0s12 5.372 12 12-5.372 12-12 12zm5.942-12.518a.928.928 0 00-.923-.923h-3.692V6.866a.928.928 0 00-.923-.923h-.923a.928.928 0 00-.923.923v3.693H6.865a.928.928 0 00-.923.923v.923c0 .51.414.923.923.923h3.693v3.692c0 .51.413.923.923.923h.923a.928.928 0 00.923-.923v-3.692h3.692a.928.928 0 00.923-.923v-.923z" fill-rule="nonzero"/></svg>