<svg viewBox="0 0 24 24" xmlns="http://www.w3.org/2000/svg" fill-rule="evenodd" clip-rule="evenodd" stroke-linejoin="round" stroke-miterlimit="2"><path d="M12.025 24h-.007C5.425 24 0 18.579 0 11.992 0 7.172 2.903 2.8 7.347.927A12.026 12.026 0 0111.979 0c6.595 0 12.022 5.422 12.022 12.011 0 4.8-2.88 9.16-7.298 11.046-1.48.625-3.07.946-4.678.943zm-5.937-9.13v2.552h1.996V14.87H6.088zm9.135-4.148v6.702h2.046v-6.706l-2.046.004zm-3.045 2.527v4.171h2.032v-4.17h-2.032zm-3.045-.995v5.165h2.046v-5.165H9.133zm1.144-4.339l-4.743 4.422.656.953 4.063-3.827 2.755 2.868 3.348-4.111.92.962v-2.58H14.64l.93.992-2.563 3.034-2.731-2.713z" fill-rule="nonzero"/></svg>