<svg viewBox="0 0 24 24" xmlns="http://www.w3.org/2000/svg" fill-rule="evenodd" clip-rule="evenodd" stroke-linejoin="round" stroke-miterlimit="2"><path d="M12.042 24h-.006C5.433 24 0 18.575 0 11.984 0 7.163 2.907 2.788 7.357.914A12.06 12.06 0 0111.961 0c6.605 0 12.04 5.426 12.04 12.02 0 4.788-2.868 9.14-7.275 11.036a11.973 11.973 0 01-4.684.944zM8.506 13.118a5.29 5.29 0 00-2.458 2.143v.46a1.52 1.52 0 001.508 1.507h6.055a1.521 1.521 0 001.514-1.512v-.455a5.288 5.288 0 00-2.459-2.14 3.377 3.377 0 01-2.079.71 3.415 3.415 0 01-2.079-.71l-.002-.003zm8.138 1.093a.38.38 0 00-.378.377v.756c0 .208.17.378.378.378h1.136a.38.38 0 00.379-.378v-.756a.38.38 0 00-.379-.377h-1.136zM10.59 7.55a2.663 2.663 0 00-2.65 2.645v.232a2.66 2.66 0 002.65 2.644 2.66 2.66 0 002.65-2.644v-.232a2.663 2.663 0 00-2.65-2.645zm4.924 3.632a.38.38 0 00-.379.378v.751a.38.38 0 00.379.378h2.27a.38.38 0 00.379-.378v-.756a.38.38 0 00-.379-.378l-2.27.005zm-.761-3.022a.38.38 0 00-.38.378v.756a.38.38 0 00.38.378h3.027a.38.38 0 00.379-.378v-.757a.38.38 0 00-.379-.378l-3.027.001z" fill-rule="nonzero"/></svg>