<svg viewBox="0 0 24 24" xmlns="http://www.w3.org/2000/svg" fill-rule="evenodd" clip-rule="evenodd" stroke-linejoin="round" stroke-miterlimit="2"><path d="M12.044 24h-.01C5.433 24 0 18.576 0 11.985 0 7.162 2.909 2.787 7.36.914A12.057 12.057 0 0111.962 0C18.566 0 24 5.426 24 12.02c0 4.788-2.867 9.14-7.273 11.036a11.972 11.972 0 01-4.683.945zm1.624-16.41h-.038a2.507 2.507 0 00-2.497 2.493 2.507 2.507 0 002.49 2.493h-.007c-.215 0-.43.017-.641.052-.12.009-.241.028-.36.055a4.35 4.35 0 00-.413.1l-.066.018c-.312.1-.615.226-.904.38l-.104.061-.014.008a5.906 5.906 0 00-.308.187 4.13 4.13 0 00-.575.445l-.162.162-.009.007a4.855 4.855 0 00-1.394 2.538c-.027.16-.054.328-.073.499l-.02.255-.008.26a.105.105 0 00.008.055.45.45 0 00.407.399.16.16 0 00.065.009h4.344a3.274 3.274 0 01-.414-1.586 3.404 3.404 0 011.476-2.8c.109-.08.218-.15.322-.209a3.822 3.822 0 011.107-.38l-.037-.014a4.394 4.394 0 00-.475-.198A2.383 2.383 0 0015 12.77a1.526 1.526 0 00-.258-.069h-.016a4.94 4.94 0 00-.506-.082 3.635 3.635 0 00-.361-.033h-.157a2.545 2.545 0 001.758-.747 2.46 2.46 0 00.725-1.748 2.526 2.526 0 00-2.517-2.5zm.524 7.813a.516.516 0 00-.513.512c0 .28.232.512.513.512h3.603a.51.51 0 00.509-.508.51.51 0 00-.509-.508l-.024.001h-1.272l-1.043-.008-1.264-.001zm-3.85-9.612a2.53 2.53 0 00-2.53 2.338 2.45 2.45 0 00.612 1.78 2.543 2.543 0 001.699.856 5.1 5.1 0 00-3.49 1.513 4.923 4.923 0 00-1.436 3.47c.003.27.22.496.49.508h.027l1.969.063a5.493 5.493 0 013.569-3.886 4.321 4.321 0 01-.74-.776c-.045-.063-.429-.618-.377-.83.013-.04.02-.08.02-.12 0-.04-.017.02-.031.052a3.68 3.68 0 01-.065-1.033 2.856 2.856 0 011.97-2.41c.167-.063.34-.109.516-.136a2.533 2.533 0 00-2.117-1.393l-.086.004z" fill-rule="nonzero"/></svg>