<svg viewBox="0 0 24 24" xmlns="http://www.w3.org/2000/svg" fill-rule="evenodd" clip-rule="evenodd" stroke-linejoin="round" stroke-miterlimit="2"><path d="M21.454 19.446v1.464H4.707L17.994 7.624c-.024 3.273-.018 7.363 1.788 9.072 2.05 1.941 1.672 2.75 1.672 2.75zM2.5 20.812L19.567 3.747l.567.57L3.069 21.38l-.569-.57zm2.952-4.117c2.05-1.942 1.78-6.96 1.78-10.358 0-3.4 4.774-3.472 4.774-3.472h.163v-.552c0-.339-1.14-1.568-1.14-1.568L11.013 0h3.217l-.021.773S12.974 2 12.974 2.363v.501h.254s3.05.052 4.272 1.81L4.733 17.442c.2-.229.43-.474.72-.747zm9.18 4.992c0 1.11-.9 2.313-2.01 2.313-1.113 0-2.012-1.203-2.012-2.313 0 .024 4.023-.026 4.023 0z" fill-rule="nonzero"/></svg>