<?xml version="1.0" encoding="UTF-8" standalone="no"?>
<!DOCTYPE svg PUBLIC "-//W3C//DTD SVG 1.1//EN" "http://www.w3.org/Graphics/SVG/1.1/DTD/svg11.dtd">
<svg width="100%" height="100%" viewBox="0 0 24 24" version="1.1" xmlns="http://www.w3.org/2000/svg" xmlns:xlink="http://www.w3.org/1999/xlink" xml:space="preserve" xmlns:serif="http://www.serif.com/" style="fill-rule:evenodd;clip-rule:evenodd;stroke-linejoin:round;stroke-miterlimit:2;">
    <g transform="matrix(1.07,0,0,1.07,-0.97442,-0.839947)">
        <path d="M20.26,18.959L20.26,20.327L3.74,20.327L3.74,18.958C3.74,18.958 3.387,18.202 5.304,16.387C7.219,14.572 6.967,9.883 6.967,6.707C6.967,3.531 11.429,3.463 11.429,3.463L11.581,3.463L11.581,2.947C11.581,2.629 10.517,1.48 10.517,1.48L10.5,0.785L13.507,0.785L13.487,1.507C13.487,1.507 12.333,2.655 12.333,2.993L12.333,3.462L12.571,3.462C12.571,3.462 17.031,3.529 17.031,6.706C17.031,9.883 16.779,14.572 18.696,16.387C20.613,18.202 20.259,18.958 20.259,18.958L20.26,18.959ZM13.884,21.053C13.884,22.091 13.042,23.215 12.004,23.215C10.966,23.215 10.125,22.091 10.125,21.053C10.125,21.076 13.884,21.029 13.884,21.053Z" style="fill-rule:nonzero;"/>
    </g>
</svg>
