<?xml version="1.0" encoding="UTF-8" standalone="no"?>
<!DOCTYPE svg PUBLIC "-//W3C//DTD SVG 1.1//EN" "http://www.w3.org/Graphics/SVG/1.1/DTD/svg11.dtd">
<svg width="100%" height="100%" viewBox="0 0 24 24" version="1.1" xmlns="http://www.w3.org/2000/svg" xmlns:xlink="http://www.w3.org/1999/xlink" xml:space="preserve" xmlns:serif="http://www.serif.com/" style="fill-rule:evenodd;clip-rule:evenodd;stroke-linejoin:round;stroke-miterlimit:2;">
    <g transform="matrix(1.07,0,0,1.07,-0.849086,-0.839947)">
        <path d="M20.844,18.959L20.844,20.327L5.193,20.327L17.61,7.91C17.588,10.969 17.594,14.792 19.281,16.389C21.197,18.203 20.844,18.959 20.844,18.959ZM3.13,20.235L19.08,4.287L19.61,4.819L3.662,20.767L3.13,20.235ZM5.889,16.388C7.805,14.573 7.553,9.884 7.553,6.707C7.553,3.53 12.014,3.463 12.014,3.463L12.166,3.463L12.166,2.947C12.166,2.63 11.101,1.481 11.101,1.481L11.086,0.785L14.093,0.785L14.073,1.507C14.073,1.507 12.919,2.655 12.919,2.993L12.919,3.462L13.156,3.462C13.156,3.462 16.007,3.51 17.149,5.153L5.217,17.086C5.404,16.872 5.619,16.643 5.889,16.388ZM14.469,21.053C14.469,22.091 13.628,23.215 12.589,23.215C11.55,23.215 10.709,22.091 10.709,21.053C10.709,21.076 14.469,21.029 14.469,21.053Z" style="fill-rule:nonzero;"/>
    </g>
</svg>
