<svg viewBox="0 0 24 24" xmlns="http://www.w3.org/2000/svg" fill-rule="evenodd" clip-rule="evenodd" stroke-linejoin="round" stroke-miterlimit="2"><path d="M20.704 19.446v1.464H3.027v-1.465s-.377-.809 1.674-2.75c2.049-1.943 1.78-6.96 1.78-10.358 0-3.399 4.774-3.472 4.774-3.472h.162v-.552c0-.34-1.138-1.57-1.138-1.57L10.26 0h3.217l-.021.773S12.222 2 12.222 2.363v.501h.255s4.772.072 4.772 3.471c0 3.4-.27 8.417 1.781 10.36 2.051 1.941 1.673 2.75 1.673 2.75v.001zm-6.823 2.24c0 1.111-.9 2.314-2.011 2.314-1.11 0-2.01-1.203-2.01-2.313 0 .024 4.021-.026 4.021 0z" fill-rule="nonzero"/></svg>