<svg viewBox="0 0 24 24" xmlns="http://www.w3.org/2000/svg" fill-rule="evenodd" clip-rule="evenodd" stroke-linejoin="round" stroke-miterlimit="2"><path d="M14.21 2.136A2.243 2.243 0 0011.988 0C10.8 0 9.812.95 9.765 2.136c0 .118.01.236.03.353a8.464 8.464 0 00-5.586 7.894v2.932s0 4.23-1.082 4.261l-.062-.002c-.585 0-1.066.482-1.066 1.066 0 .586.48 1.067 1.066 1.067h17.818l.044.001c.586 0 1.068-.48 1.071-1.066a1.07 1.07 0 00-1.066-1.067l-.049.001c-1.11 0-1.11-4.229-1.11-4.229v-2.964a8.247 8.247 0 00-5.587-7.902c.017-.115.025-.23.024-.345zm1.11 18.64a3.365 3.365 0 01-3.333 3.212 3.366 3.366 0 01-3.334-3.213h6.668l-.001.001z" fill-rule="nonzero"/></svg>