<svg xmlns="http://www.w3.org/2000/svg" viewBox="0 0 24 24"><path d="M12.75 19.5s4.641-1.546 8.25 1.359V19.5c-4.219-2.344-8.25 0-8.25 0zM1.5 4.5v14.906s2.016-1.453 4.875-1.453 4.875 1.453 4.875 1.453V4.688S9.234 3 6.375 3 1.5 4.5 1.5 4.5zM3 6h3v3.75H3V6zm6.75 9.75H3V15h6.75v.75zm0-1.5H3v-.75h6.75v.75zm0-1.5H3V12h6.75v.75zm0-1.5H3v-.75h6.75v.75zM6.75 6h3v.75h-3V6zm0 1.5h3v.75h-3V7.5zm0 1.5h3v.75h-3V9zm10.125-6C14.016 3 12 4.5 12 4.5v14.906s2.016-1.453 4.875-1.453 4.875 1.453 4.875 1.453V4.688S19.734 3 16.875 3zm3.375 12.75H13.5V15h6.75v.75zm0-1.5H13.5v-.75h6.75v.75zm0-1.5H13.5V12h6.75v.75zm0-1.5H13.5v-.75h6.75v.75zm0-1.5H13.5V9h6.75v.75zm0-1.5H13.5V7.5h6.75v.75zm0-1.5H13.5V6h6.75v.75zm-18 12.75v1.359C5.859 17.954 10.5 19.5 10.5 19.5s-4.031-2.344-8.25 0z"/></svg>