<svg viewBox="0 0 24 24" xmlns="http://www.w3.org/2000/svg" fill-rule="evenodd" clip-rule="evenodd" stroke-linejoin="round" stroke-miterlimit="2"><path d="M13.564 12.764s.306-4.112-3.463-4.582c-3.23-.33-4.213 2.672-4.213 2.672s-.973-.935-2.292-.172c-1.182.73-.972 2.064-.972 2.064S0 13.256 0 15.93c.073 2.717 2.832 2.65 2.832 2.65l10.322.026s2.47.03 2.92-2.516c.174-2.778-2.51-3.326-2.51-3.326zm7.105.373a4.786 4.786 0 00-4.786-4.786c-.448 0-1.399.145-2.337.63 0 .002-.586.4-.586.4s.928.844 1.008 3.078c0 .04 2.46.67 2.46 3.223 0 1.755-.932 2.238-.932 2.238l.387.003s4.786-.996 4.786-4.786zM15.883 5l-1.346 2.693h2.692L15.883 5zm5.75 2.366l-2.855.951 1.903 1.904.953-2.855zm-.326 7.137L24 13.157l-2.693-1.346v2.692zm-2.529 3.453l2.856.952-.951-2.856-1.905 1.904z" fill-rule="nonzero"/></svg>