<svg xmlns="http://www.w3.org/2000/svg" viewBox="0 0 24 24"><path d="M20.188 13.889L10.112 3.812a1.124 1.124 0 111.59-1.59l2.387 2.386 2.917-2.917a1.124 1.124 0 111.591 1.591L15.68 6.199l2.121 2.12 2.917-2.916a1.125 1.125 0 011.591 1.59l-2.917 2.918 2.387 2.387a1.126 1.126 0 01-1.591 1.59zm-4.508 3.977c-.972.972-5.303 1.06-5.303 1.06l-5.303-5.303s.088-4.33 1.06-5.303l3.713-3.712 9.546 9.546-3.713 3.712zM5.074 14.684l4.243 4.242a.75.75 0 11-1.062 1.06l-4.242-4.242a.75.75 0 111.06-1.06zm2.12 5.303s-.355.357-.795.796-1.151.439-1.59 0l-.266-.266-2.122 2.121-1.06-1.06 2.121-2.122-.265-.264c-.439-.44-.439-1.152 0-1.592s.84-.75.84-.75l3.138 3.137z"/></svg>