<svg viewBox="0 0 24 24" xmlns="http://www.w3.org/2000/svg" fill-rule="evenodd" clip-rule="evenodd" stroke-linejoin="round" stroke-miterlimit="2"><path d="M20.242 7.376s.456-6.137-5.169-6.838c-4.82-.493-6.287 3.987-6.287 3.987s-1.45-1.397-3.42-.255C3.6 5.358 3.913 7.35 3.913 7.35S0 8.11 0 12.102c.088 3.986 4.252 4.025 4.252 4.025h15.317s3.873.005 4.419-3.787c.258-4.147-3.746-4.965-3.746-4.965zM6.054 18.571c-.17-.336-.323-.79-.458-1.36-.13.57-.282 1.023-.452 1.36-.358.712-.93 1.265-.93 1.265-.458.508-.684 1.016-.684 1.525 0 .563.203 1.043.61 1.447.406.401.893.602 1.456.602.568 0 1.054-.201 1.46-.602.407-.404.61-.884.61-1.447 0-.508-.227-1.016-.682-1.524 0 0-.571-.553-.93-1.266zm6.666 0c-.17-.336-.322-.79-.457-1.36-.13.57-.282 1.023-.452 1.36-.358.712-.932 1.265-.932 1.265-.455.508-.682 1.016-.682 1.525 0 .563.203 1.043.61 1.447a2 2 0 001.456.602c.568 0 1.054-.201 1.46-.602.407-.404.61-.884.61-1.447 0-.508-.227-1.016-.683-1.524 0 0-.572-.553-.93-1.266zm6.667 0c-.17-.336-.322-.79-.457-1.36-.13.57-.282 1.023-.452 1.36-.36.712-.932 1.265-.932 1.265-.455.508-.682 1.016-.682 1.525 0 .563.203 1.043.61 1.447a2 2 0 001.456.602c.568 0 1.054-.201 1.46-.602.407-.404.61-.884.61-1.447 0-.508-.227-1.016-.682-1.524 0 0-.573-.553-.93-1.266z" fill-rule="nonzero"/></svg>