<svg viewBox="0 0 24 24" xmlns="http://www.w3.org/2000/svg" fill-rule="evenodd" clip-rule="evenodd" stroke-linejoin="round" stroke-miterlimit="2"><path d="M4.972 12c0 3.873 3.186 7.06 7.059 7.06 3.872 0 7.059-3.187 7.059-7.06 0-3.872-3.187-7.058-7.06-7.058-3.872 0-7.058 3.186-7.058 7.059zM12.03 0l-1.984 3.972h3.97L12.031 0zm8.483 3.489L16.3 4.894l2.806 2.807 1.405-4.21.003-.002zM7.759 4.894L3.55 3.49 4.953 7.7 7.76 4.893l-.001.001zM3.972 9.986L0 11.973l3.972 1.984v-3.97zm16.057 4.031L24 12.032l-3.97-1.985v3.97zm-8 9.985l1.986-3.971h-3.97l1.984 3.971zm4.27-4.892l4.212 1.403-1.404-4.212L16.3 19.11zM3.55 20.51l4.212-1.403-2.808-2.807-1.404 4.21z" fill-rule="nonzero"/></svg>