<svg viewBox="0 0 24 24" xmlns="http://www.w3.org/2000/svg" fill-rule="evenodd" clip-rule="evenodd" stroke-linejoin="round" stroke-miterlimit="2"><path d="M14.492 12.65s.326-4.395-3.7-4.896C7.34 7.402 6.29 10.61 6.29 10.61s-1.04-1-2.45-.183c-1.261.779-1.038 2.205-1.038 2.205S0 13.175 0 16.033c.077 2.902 3.025 2.83 3.025 2.83l11.028.029s2.64.03 3.12-2.688c.186-2.969-2.681-3.555-2.681-3.555zm6.818-2.728s.327-4.393-3.7-4.895c-3.45-.353-4.543 2.897-4.543 2.897s2.01 1.167 2.096 4.32c1.278.384 2.64 1.439 2.684 3.91l3.024.011s2.64.031 3.12-2.688c.186-2.97-2.68-3.555-2.68-3.555z" fill-rule="nonzero"/></svg>