<svg viewBox="0 0 24 24" xmlns="http://www.w3.org/2000/svg" fill-rule="evenodd" clip-rule="evenodd" stroke-linejoin="round" stroke-miterlimit="2"><path d="M20.242 6.876S20.698.74 15.073.038c-4.82-.493-6.287 3.987-6.287 3.987s-1.45-1.395-3.42-.254c-1.763 1.089-1.45 3.08-1.45 3.08S0 7.613 0 11.603c.088 3.987 4.252 4.025 4.252 4.025h15.317s3.873.005 4.419-3.787c.26-4.147-3.746-4.965-3.746-4.965zM6.12 20.06c1.23-1.897.942-2.164-.862-.803-.473-2.21-.864-2.196-1.178.042-1.897-1.229-2.163-.942-.803.863-2.21.472-2.197.863.041 1.177-1.229 1.897-.94 2.164.864.804.471 2.21.864 2.197 1.177-.042 1.897 1.229 2.165.94.803-.864 2.212-.47 2.197-.863-.042-1.177zm6.667 0c1.229-1.897.942-2.164-.863-.803-.472-2.21-.863-2.196-1.177.042-1.897-1.229-2.164-.942-.804.863-2.21.472-2.196.863.042 1.177-1.229 1.897-.94 2.164.864.804.471 2.21.863 2.197 1.177-.042 1.897 1.229 2.165.94.803-.864 2.212-.47 2.197-.863-.042-1.177zm6.667 0c1.229-1.897.942-2.164-.863-.803-.472-2.21-.863-2.196-1.177.042-1.897-1.229-2.164-.942-.804.863-2.21.472-2.197.863.042 1.177-1.229 1.897-.94 2.164.862.804.473 2.21.865 2.197 1.179-.042 1.896 1.229 2.164.94.802-.864 2.213-.47 2.197-.863-.041-1.177z" fill-rule="nonzero"/></svg>