<?xml version="1.0" encoding="UTF-8" standalone="no"?>
<!DOCTYPE svg PUBLIC "-//W3C//DTD SVG 1.1//EN" "http://www.w3.org/Graphics/SVG/1.1/DTD/svg11.dtd">
<svg width="100%" height="100%" viewBox="0 0 24 24" version="1.1" xmlns="http://www.w3.org/2000/svg" xmlns:xlink="http://www.w3.org/1999/xlink" xml:space="preserve" xmlns:serif="http://www.serif.com/" style="fill-rule:evenodd;clip-rule:evenodd;stroke-linejoin:round;stroke-miterlimit:2;">
    <g transform="matrix(1.2549,0,0,1.2549,-2.58635,-3.52878)">
        <path d="M6.023,12.375C6.023,15.461 8.562,18 11.648,18C14.734,18 17.273,15.461 17.273,12.375C17.273,9.289 14.734,6.75 11.648,6.75C8.562,6.75 6.023,9.289 6.023,12.375ZM11.648,2.812L10.067,5.977L13.231,5.977L11.648,2.812ZM18.408,5.592L15.05,6.712L17.286,8.949L18.406,5.594L18.408,5.592ZM8.244,6.712L4.89,5.593L6.008,8.949L8.245,6.711L8.244,6.712ZM5.226,10.77L2.061,12.353L5.226,13.934L5.226,10.77ZM18.022,13.982L21.186,12.4L18.022,10.818L18.022,13.982ZM11.647,21.939L13.229,18.774L10.065,18.774L11.647,21.939ZM15.05,18.04L18.406,19.158L17.287,15.802L15.05,18.04ZM4.89,19.157L8.246,18.039L6.009,15.802L4.89,19.157Z" style="fill-rule:nonzero;"/>
    </g>
</svg>
