<?xml version="1.0" encoding="UTF-8" standalone="no"?>
<!DOCTYPE svg PUBLIC "-//W3C//DTD SVG 1.1//EN" "http://www.w3.org/Graphics/SVG/1.1/DTD/svg11.dtd">
<svg width="100%" height="100%" viewBox="0 0 24 24" version="1.1" xmlns="http://www.w3.org/2000/svg" xmlns:xlink="http://www.w3.org/1999/xlink" xml:space="preserve" xmlns:serif="http://www.serif.com/" style="fill-rule:evenodd;clip-rule:evenodd;stroke-linejoin:round;stroke-miterlimit:2;">
    <g transform="matrix(1.26988,0,0,1.26988,-3.2382,-3.28322)">
        <path d="M18.49,8.394C18.49,8.394 18.849,3.561 14.42,3.009C10.624,2.621 9.469,6.149 9.469,6.149C9.469,6.149 8.327,5.049 6.775,5.948C5.386,6.805 5.632,8.373 5.632,8.373C5.632,8.373 2.55,8.973 2.55,12.116C2.619,15.255 5.898,15.286 5.898,15.286L17.96,15.286C17.96,15.286 21.01,15.29 21.44,12.304C21.643,9.038 18.49,8.394 18.49,8.394ZM7.317,17.21C7.183,16.945 7.063,16.587 6.957,16.139C6.854,16.587 6.735,16.944 6.601,17.21C6.319,17.77 5.868,18.206 5.868,18.206C5.508,18.606 5.33,19.006 5.33,19.407C5.33,19.85 5.49,20.228 5.81,20.546C6.13,20.862 6.513,21.02 6.957,21.02C7.404,21.02 7.787,20.862 8.107,20.546C8.427,20.228 8.587,19.85 8.587,19.407C8.587,19.007 8.408,18.607 8.05,18.207C8.05,18.207 7.6,17.771 7.317,17.21ZM12.567,17.21C12.433,16.945 12.313,16.587 12.207,16.139C12.104,16.587 11.985,16.944 11.851,17.21C11.569,17.77 11.117,18.206 11.117,18.206C10.759,18.606 10.58,19.006 10.58,19.407C10.58,19.85 10.74,20.228 11.06,20.546C11.38,20.862 11.762,21.02 12.207,21.02C12.654,21.02 13.037,20.862 13.357,20.546C13.677,20.228 13.837,19.85 13.837,19.407C13.837,19.007 13.658,18.607 13.299,18.207C13.299,18.207 12.849,17.771 12.567,17.21ZM17.817,17.21C17.683,16.945 17.563,16.587 17.457,16.139C17.354,16.587 17.235,16.944 17.101,17.21C16.818,17.77 16.367,18.206 16.367,18.206C16.009,18.606 15.83,19.006 15.83,19.407C15.83,19.85 15.99,20.228 16.31,20.546C16.63,20.862 17.012,21.02 17.457,21.02C17.904,21.02 18.287,20.862 18.607,20.546C18.927,20.228 19.087,19.85 19.087,19.407C19.087,19.007 18.908,18.607 18.55,18.207C18.55,18.207 18.099,17.771 17.817,17.21Z" style="fill-rule:nonzero;"/>
    </g>
</svg>
