<svg xmlns="http://www.w3.org/2000/svg" viewBox="0 0 24 24"><path d="M19.5 24h-15c-.829 0-1.5-.67-1.5-1.497V3.743c0-.828.671-1.498 1.5-1.498H9v1.497H5.25a.749.749 0 00-.75.749v17.264a.75.75 0 00.75.748h13.5c.415 0 .75-.335.75-.748V4.49a.749.749 0 00-.75-.748H15V2.244h4.5A1.5 1.5 0 0121 3.741v18.761C21 23.33 20.328 24 19.5 24zm-.75-19.509v17.264H5.25V4.49H6v3.041h12v-3.04h.75zM8.25 9.778H7.5v.748h.75v-.748zm0 1.497H7.5v.748h.75v-.748zm0 1.497H7.5v.748h.75v-.748zm0 1.497H7.5v.748h.75v-.748zm0 1.497H7.5v.748h.75v-.748zm0 1.498H7.5v.748h.75v-.748zm0 1.497H7.5v.748h.75v-.748zm8.25-8.983H9v.748h7.5v-.748zm0 1.497H9v.748h7.5v-.748zm0 1.497H9v.748h7.5v-.748zm0 1.497H9v.748h7.5v-.748zm0 1.497H9v.748h7.5v-.748zm0 1.498H9v.748h7.5v-.748zm0 1.497H9v.748h7.5v-.748zm0-14.27c.415 0 .75.335.75.748v1.497H6.75V5.24c0-.414.335-.748.75-.748h2.25s.009-.956.009-2.172C9.759 1.056 10.734 0 12 0s2.275 1.11 2.275 2.327c0 1.31-.025 2.164-.025 2.164h2.25zM12 2.246a.749.749 0 100 1.497.749.749 0 100-1.497z"/></svg>