<svg viewBox="0 0 24 24" xmlns="http://www.w3.org/2000/svg" fill-rule="evenodd" clip-rule="evenodd" stroke-linejoin="round" stroke-miterlimit="2"><path d="M22.25 12.216a.664.664 0 00-.478-.196.7.7 0 00-.48.196L20.07 13.41l2.58 2.527 1.152-1.271a.65.65 0 00.199-.463.662.662 0 00-.2-.462l-1.55-1.526zm-8.435-2.674H6.308c-.809 0-1.475-.653-1.475-1.446 0-.793.666-1.446 1.475-1.446l.059.001h7.505c.809 0 1.475.652 1.475 1.445s-.666 1.447-1.475 1.447l-.06-.001h.003zm-2.992 5.817H6.367l-.059.001c-.809 0-1.475-.653-1.475-1.446 0-.793.666-1.446 1.475-1.446h4.572c.808 0 1.474.653 1.474 1.446 0 .793-.666 1.446-1.475 1.446h-.059.003zM17.214 0H3.587C1.62 0 0 1.586 0 3.515v16.97c.001 1.928 1.62 3.514 3.587 3.514h4.952v-3.15L20.8 8.563V3.517C20.8 1.589 19.181.001 17.214 0zM11.78 21.473V24h2.586l7.472-7.4-2.58-2.532-7.478 7.405z" fill-rule="nonzero"/></svg>