<svg viewBox="0 0 24 24" xmlns="http://www.w3.org/2000/svg" fill-rule="evenodd" clip-rule="evenodd" stroke-linejoin="round" stroke-miterlimit="2"><path d="M5.784 7.14H20.16c1.48 0 1.48-1.535.058-1.535h-9.937c-.57 0-.854-.853-.854-.853S9.03 3.5 8.232 3.5H.83C-.25 3.5.034 4.752.034 4.752s1.65 14.042 1.765 14.896c.113.854.996 1.106.996 1.106L4.731 8.336c.142-.91.768-1.167 1.053-1.195zm17.305.54H6.239a.91.91 0 00-.911.91L3.564 19.84a.91.91 0 00.91.912h16.85a.911.911 0 00.912-.911L24 8.59a.91.91 0 00-.911-.91z" fill-rule="nonzero"/></svg>