<svg xmlns="http://www.w3.org/2000/svg" viewBox="0 0 24 24"><path d="M16.994 8.241h3.879c.52 1.156.83 2.422.883 3.759h-4.45a25.892 25.892 0 00-.312-3.759zm-1.696-5.319a10.175 10.175 0 015.197 4.567h-3.627c-.412-2.103-1.038-3.599-1.57-4.567zM12.052 7.49V2.243c.8.035 1.577.162 2.319.37.563.947 1.29 2.528 1.748 4.877H12.05zm-4.934 9.02a25.885 25.885 0 01-.316-3.759H11.3v3.76H7.117zM7.11 8.241h4.19V12H6.798a25.98 25.98 0 01.312-3.759zm1.882-5.645c.74-.2 1.511-.326 2.308-.352v5.245H7.234c.461-2.36 1.193-3.948 1.758-4.893zM2.746 7.49a10.185 10.185 0 015.322-4.6c-.536.968-1.17 2.472-1.586 4.599H2.746zM6.045 12H1.5c.05-1.336.35-2.606.868-3.759h3.988A26.022 26.022 0 006.045 12zm.32 4.51H2.398a10.024 10.024 0 01-.903-3.759h4.553a25.68 25.68 0 00.317 3.76zm.123.752c.42 2.148 1.062 3.65 1.6 4.607a10.158 10.158 0 01-5.332-4.607h3.732zm4.811 0v5.245a10 10 0 01-2.283-.345c-.566-.926-1.302-2.522-1.767-4.9h4.05zm4.804 0c-.463 2.364-1.194 3.953-1.758 4.884-.734.203-1.504.314-2.294.349v-5.233h4.052zm-4.052-4.51h4.498a25.678 25.678 0 01-.316 3.758h-4.182v-3.759zM16.554 12h-4.503V8.241h4.19c.176 1.102.294 2.345.313 3.759zm.749.751h4.444c-.05 1.34-.38 2.602-.898 3.76h-3.864c.176-1.104.299-2.34.318-3.76zm3.185 4.511a10.125 10.125 0 01-5.21 4.575c.536-.957 1.171-2.45 1.585-4.575h3.625z"/></svg>