<svg viewBox="0 0 24 24" xmlns="http://www.w3.org/2000/svg" fill-rule="evenodd" clip-rule="evenodd" stroke-linejoin="round" stroke-miterlimit="2"><path d="M18.426 23.744H5.514c.135-.25.204-.528.206-.811V9.61c0-.147-.02-.295-.058-.436 1.665-.475 4.564-1.99 5.28-6.812A2.375 2.375 0 0113.298.2a2.378 2.378 0 012.363 2.49v4.95c.036.32.264.589.575.676h5.447a2.135 2.135 0 011.834.896c.48.772.583 1.723.279 2.581l-2.7 9.878a3.311 3.311 0 01-2.672 2.073zm-14.953-.031H1.682a1.765 1.765 0 01-1.68-1.826V10.63a1.765 1.765 0 011.68-1.82h1.791v.024c.613 0 1.132.358 1.132.78v13.319c0 .425-.519.78-1.132.78z" fill-rule="nonzero"/></svg>