<svg viewBox="0 0 24 24" xmlns="http://www.w3.org/2000/svg" fill-rule="evenodd" clip-rule="evenodd" stroke-linejoin="round" stroke-miterlimit="2"><path d="M13.731 13.422L4.263 22.89a1.882 1.882 0 01-2.661-.005 1.88 1.88 0 01-.005-2.66l.72-.72-2.04-2.04a.94.94 0 111.328-1.328l2.04 2.041.665-.664-.709-.709a.94.94 0 111.329-1.328l.707.708.665-.664-2.041-2.04a.939.939 0 111.328-1.328l2.04 2.04 3.438-3.438c-2.228-3.104-2.505-6.81-.452-8.862C13-.491 17.617.26 20.928 3.573c3.31 3.312 4.064 7.928 1.679 10.312-2.055 2.055-5.768 1.774-8.876-.463zm5.194-7.858c-1.472-1.472-3.41-1.923-4.326-1.005-.917.918-.467 2.853 1.004 4.326 1.472 1.472 3.408 1.921 4.326 1.004.918-.916.467-2.854-1.004-4.325z" fill-rule="nonzero"/></svg>