<svg viewBox="0 0 24 24" xmlns="http://www.w3.org/2000/svg" fill-rule="evenodd" clip-rule="evenodd" stroke-linejoin="round" stroke-miterlimit="2"><path d="M23.75 3.157C21.15 1.19 17.15.014 13.047.014c-5.073 0-9.206 1.77-11.34 4.854C.705 6.317.15 8.032.06 9.968c-.082 1.722.208 3.627.86 5.677 2.227-6.668 8.446-11.89 15.616-11.89 0 0-6.709 1.764-10.927 7.226-.002.003-.059.073-.156.204a15.794 15.794 0 00-2.137 3.877 23.07 23.07 0 00-1.803 8.952h3.004s-.456-2.866.338-6.162c1.312.177 2.484.265 3.54.265 2.762 0 4.727-.597 6.183-1.879 1.304-1.149 2.023-2.691 2.784-4.325 1.163-2.495 2.48-5.323 6.306-7.507a.75.75 0 00.08-1.25l.001.001z" fill-rule="nonzero"/></svg>