<svg xmlns="http://www.w3.org/2000/svg" viewBox="0 0 24 24"><path d="M6.895 15.028c-.938 0-1.062-.438-1.062-.438l-3.656 7.185 2.931-.329 1.622 2.438s3.375-7.045 3.375-6.998c-1.748-.042-1.054-1.811-3.21-1.858zm8.242.77c.455-.764 1.127-1.152 2.018-1.164s1.34-.463 1.352-1.353c.012-.89.4-1.562 1.165-2.017s.93-1.07.495-1.847-.435-1.553 0-2.33.269-1.391-.495-1.847-1.153-1.127-1.165-2.017c-.012-.89-.463-1.34-1.352-1.352-.891-.012-1.563-.4-2.019-1.165-.453-.765-1.07-.93-1.847-.495s-1.552.435-2.329 0-1.392-.27-1.847.495c-.455.765-1.127 1.153-2.017 1.165s-1.34.463-1.353 1.353c-.012.89-.4 1.562-1.164 2.017s-.93 1.071-.495 1.847c.435.777.435 1.554 0 2.33s-.27 1.392.495 1.847c.765.455 1.152 1.128 1.164 2.017.012.89.463 1.34 1.353 1.353s1.562.4 2.017 1.165c.455.765 1.071.929 1.847.495s1.553-.435 2.33 0 1.392.269 1.847-.496zm-1.998-3.795h-1.336V6.959a4.61 4.61 0 01-1.729 1.013V6.759c.349-.114.728-.33 1.138-.649s.69-.69.842-1.114h1.085v7.007zm4.981 2.868c-2.671.281-2.128.942-2.737 1.457-.704.75-1.58.606-1.58.606l4.124 7.09L18.94 21.4l2.884.375-3.704-6.904z"/></svg>