<svg xmlns="http://www.w3.org/2000/svg" viewBox="0 0 24 24"><path d="M17.217 23.229h-3.738a4.485 4.485 0 01-4.486-4.486v-6.729h4.533v1.496c0 .826.623 1.495 1.45 1.495h.746c.827 0 1.496-.67 1.496-1.495v-1.496h4.532v6.73c0 2.476-2.056 4.485-4.533 4.485zm0-12.71c0-.826-.67-1.496-1.496-1.496V4.584s-.98-.047 1.45-.047 4.579 1.589 4.579 4.486v2.196h-4.533v-.7zM15.029 4.03c0-1.445-.68-2.25-2.043-2.25-1.44 0-2.543 1.038-3.307 3.113l-.156.426C8.629 7.746 7.32 8.96 5.596 8.96c-.696 0-1.345-.266-1.949-.796s-.905-1.099-.905-1.709c0-.301.141-.453.424-.453.192 0 .389.241.592.722.37.888.986 1.332 1.848 1.332.653 0 1.187-.211 1.604-.634s.89-1.235 1.419-2.437l.342-.758C9.975 1.983 11.328.861 13.027.861c1.948 0 2.922 1.111 2.922 3.17h-.92zm1.44 6.861v2.243a1.12 1.12 0 11-2.242 0v-2.243a1.122 1.122 0 112.242 0zm-2.944-6.355c2.43 0 1.495.047 1.495.047v4.44c-.826 0-1.495.669-1.495 1.495v.701H8.992V9.024c0-2.898 2.103-4.487 4.533-4.487z"/></svg>