<svg xmlns="http://www.w3.org/2000/svg" viewBox="0 0 24 24"><path d="M12.047 12.028c-.357 0-.658.14-.904.418-.247.28-.37.691-.37 1.235 0 .603.139 1.067.416 1.394.277.328.594.491.95.491.343 0 .63-.135.859-.403s.342-.706.342-1.317c0-.629-.123-1.088-.369-1.381s-.555-.437-.924-.437zM12 2.25c-5.385 0-9.75 4.365-9.75 9.75s4.365 9.75 9.75 9.75 9.75-4.365 9.75-9.75S17.385 2.25 12 2.25zm2.285 13.955c-.58.598-1.326.896-2.235.896-.976 0-1.779-.379-2.407-1.137s-.944-2-.944-3.728c0-1.77.329-3.047.984-3.83s1.506-1.172 2.553-1.172c.735 0 1.343.206 1.824.618.483.414.79 1.012.921 1.797l-1.793.198c-.044-.368-.159-.64-.344-.815-.185-.175-.425-.263-.72-.263-.393 0-.725.175-.996.526s-.441 1.08-.512 2.19c.461-.545 1.036-.817 1.723-.817.774 0 1.437.294 1.989.882s.828 1.348.828 2.278c0 .989-.29 1.781-.87 2.377z"/></svg>