<svg xmlns="http://www.w3.org/2000/svg" viewBox="0 0 24 24"><path d="M12.553 8.608c-.174-.142-.375-.214-.6-.214s-.427.072-.604.214c-.177.144-.314.4-.412.768-.128.48-.192 1.286-.192 2.42s.057 1.913.172 2.337.26.706.434.847c.175.141.375.21.601.21s.426-.07.604-.213.313-.4.412-.768c.127-.475.191-1.279.191-2.413s-.057-1.913-.172-2.337c-.115-.424-.259-.707-.433-.85zM12 2.25c-5.385 0-9.75 4.365-9.75 9.75s4.365 9.75 9.75 9.75 9.75-4.365 9.75-9.75S17.385 2.25 12 2.25zm2.144 13.487c-.524.66-1.255.989-2.191.989-.941 0-1.7-.361-2.276-1.084s-.864-2.012-.864-3.866c0-1.819.316-3.129.95-3.928.523-.66 1.254-.989 2.19-.989s1.67.334 2.198 1.002c.628.792.944 2.103.944 3.936-.001 1.827-.319 3.141-.952 3.94z"/></svg>