<svg xmlns="http://www.w3.org/2000/svg" viewBox="0 0 24 24"><path d="M12 2.25c-5.385 0-9.75 4.365-9.75 9.75s4.365 9.75 9.75 9.75 9.75-4.365 9.75-9.75S17.385 2.25 12 2.25zm3.256 13.07v1.722H8.764c.07-.65.281-1.266.633-1.849.35-.581 1.044-1.355 2.08-2.317.833-.778 1.345-1.305 1.534-1.582.255-.382.382-.76.382-1.134 0-.413-.11-.731-.33-.953s-.525-.333-.915-.333c-.384 0-.69.117-.917.35s-.358.62-.392 1.162l-1.852-.185c.11-1.02.454-1.751 1.034-2.196s1.304-.666 2.173-.666c.953 0 1.701.257 2.246.77s.817 1.154.817 1.919c0 .435-.078.849-.234 1.242s-.403.805-.741 1.235c-.225.285-.63.697-1.216 1.233-.586.535-.957.89-1.113 1.066s-.282.348-.379.515h3.683z"/></svg>