<svg xmlns="http://www.w3.org/2000/svg" viewBox="0 0 24 24"><path d="M12 2.25c-5.385 0-9.75 4.365-9.75 9.75s4.365 9.75 9.75 9.75 9.75-4.365 9.75-9.75S17.385 2.25 12 2.25zm2.66 13.26c-.63.853-1.503 1.279-2.62 1.279-.892 0-1.62-.24-2.183-.72-.562-.48-.899-1.126-1.01-1.936l1.853-.192c.052.42.208.75.467.993.259.245.556.366.894.366.386 0 .712-.157.98-.47.266-.314.4-.787.4-1.42 0-.593-.133-1.037-.399-1.333-.266-.297-.613-.445-1.04-.445-.533 0-1.012.234-1.434.703l-1.498-.217.95-5.033h4.898V8.82h-3.493l-.298 1.644a2.84 2.84 0 011.27-.308c.824 0 1.522.3 2.096.897s.86 1.374.86 2.327c-.001.797-.232 1.507-.694 2.131z"/></svg>