<svg xmlns="http://www.w3.org/2000/svg" viewBox="0 0 24 24"><path d="M12 2.25c-5.385 0-9.75 4.365-9.75 9.75s4.365 9.75 9.75 9.75 9.75-4.365 9.75-9.75S17.385 2.25 12 2.25zm2.246 13.768c-.62.597-1.39.895-2.314.895-.875 0-1.6-.251-2.175-.754-.577-.502-.91-1.158-1.003-1.97l1.793-.217c.057.456.211.804.462 1.045.25.241.554.362.91.362.383 0 .704-.146.967-.437.26-.29.391-.682.391-1.174 0-.466-.125-.837-.375-1.11a1.199 1.199 0 00-.918-.408c-.238 0-.521.046-.852.138l.204-1.498c.501.013.884-.095 1.147-.326s.395-.536.395-.918c0-.324-.096-.582-.29-.776-.193-.192-.448-.29-.768-.29-.316 0-.584.11-.808.33s-.359.54-.408.96l-1.71-.29c.118-.586.297-1.055.537-1.406s.574-.626 1.002-.827.91-.3 1.441-.3c.91 0 1.64.29 2.188.87.454.475.68 1.011.68 1.609 0 .848-.465 1.525-1.394 2.03.554.12.997.386 1.329.798.332.413.498.911.498 1.496 0 .849-.31 1.57-.929 2.168z"/></svg>