<svg xmlns="http://www.w3.org/2000/svg" viewBox="0 0 24 24"><path d="M12.16 12.496c-.453 0-.79.157-1.011.472a1.735 1.735 0 00-.332 1.022c0 .515.13.915.391 1.203s.587.432.979.432c.382 0 .699-.139.95-.416s.375-.676.375-1.199c0-.456-.128-.823-.383-1.1a1.262 1.262 0 00-.968-.414zm-.026-1.465c.35 0 .63-.105.84-.314.21-.209.315-.498.315-.868 0-.348-.104-.626-.312-.835s-.482-.314-.823-.314c-.355 0-.637.106-.847.317s-.315.49-.315.839c0 .37.104.658.311.865.209.207.485.31.831.31zM12 2.25c-5.385 0-9.75 4.365-9.75 9.75s4.365 9.75 9.75 9.75 9.75-4.365 9.75-9.75S17.385 2.25 12 2.25zm2.486 14.024c-.569.56-1.326.84-2.27.84-.878 0-1.609-.232-2.194-.695-.689-.547-1.034-1.295-1.034-2.247 0-.523.13-1.005.39-1.443s.669-.776 1.228-1.015c-.48-.201-.828-.479-1.045-.832a2.164 2.164 0 01-.327-1.161c0-.72.251-1.313.755-1.783s1.218-.703 2.145-.703c.919 0 1.632.234 2.14.703.508.47.761 1.064.761 1.783 0 .448-.116.845-.35 1.194a2.218 2.218 0 01-.982.799c.534.216.94.53 1.219.945s.418.891.418 1.433c0 .896-.285 1.623-.854 2.182z"/></svg>