<svg xmlns="http://www.w3.org/2000/svg" viewBox="0 0 24 24"><path d="M21 23.25H3A2.25 2.25 0 01.75 21V10.5A2.25 2.25 0 013 8.25h18a2.25 2.25 0 012.25 2.25V21A2.25 2.25 0 0121 23.25zM6 13.53c-1.243 0-2.25 1.176-2.25 2.626S4.757 18.78 6 18.78s2.25-1.175 2.25-2.625S7.242 13.53 6 13.53zm5.835.644a1.05 1.05 0 00-.344-.415 1.291 1.291 0 00-.53-.201 3.85 3.85 0 00-.652-.041H8.97v5.185h.756V17.19h.632c.607 0 1.026-.267 1.26-.52.231-.253.347-1.359.347-1.724 0-.211-.044-.595-.131-.772zm3.933 3.785h-2.293v-1.506h2.217v-.698h-2.217v-1.541h2.287v-.697h-2.996v5.185h3.002v-.743zm4.447-4.442h-.685V17.5l-2.259-3.983h-.77v5.186h.732v-3.796l2.26 3.796h.723v-5.186zm-9.848 2.93h-.64v-2.232h.629c.257 0 .433.013.53.038.147.041.267.125.358.252s.137.281.137.46c0 .247-.078 1.141-.232 1.278s-.415.205-.782.205zM6 18.095c-.828 0-1.5-.84-1.5-1.875s.672-1.875 1.5-1.875 1.5.839 1.5 1.875-.672 1.875-1.5 1.875zM18.75 8.25l-5.492-4.088a1.49 1.49 0 01-.937.338 1.49 1.49 0 01-1.205-.616L5.25 8.25H4.5l6.37-4.888A1.512 1.512 0 0110.82 3a1.5 1.5 0 013 0c0 .27-.077.519-.202.738L19.5 8.25h-.75z"/></svg>