<svg viewBox="0 0 24 24" xmlns="http://www.w3.org/2000/svg" fill-rule="evenodd" clip-rule="evenodd" stroke-linejoin="round" stroke-miterlimit="2"><path d="M22.545 21.14H1.455C.652 21.14 0 20.49 0 19.69V7.352c0-.802.652-1.451 1.455-1.451h15.409l-6.012-3.268a.765.765 0 01-.67.41h-.002a.775.775 0 01-.771-.771c0-.424.348-.772.771-.772a.775.775 0 01.716 1.06l8.65 3.341h3c.802 0 1.454.65 1.454 1.452v12.338c0 .8-.652 1.45-1.455 1.45zm-2.181-2.161c.803 0 1.454-.65 1.454-1.452 0-.802-.651-1.451-1.454-1.451-.804 0-1.455.65-1.455 1.45 0 .803.651 1.453 1.455 1.453zM16 18.964c.803 0 1.455-.65 1.455-1.452 0-.801-.652-1.45-1.455-1.45s-1.455.65-1.455 1.45c0 .802.652 1.452 1.455 1.452zM7.636 8.078a5.449 5.449 0 00-5.454 5.442 5.448 5.448 0 005.454 5.443 5.448 5.448 0 005.455-5.443 5.448 5.448 0 00-5.455-5.442zm14.182 0h-7.273v2.177h4l.728-1.451.727 1.45h1.818V8.079zM11.636 14.61h.589a4.63 4.63 0 01-.239.726h-.35v-.726zm0-1.45h.69c.01.12.038.237.038.361 0 .125-.027.242-.037.363h-.69v-.725zm0-1.452h.358c.098.23.167.477.227.725h-.585v-.725zm-1.454-.726v-.726h.727v.726h-.727zm-1.455 6.531h.728v.349c-.236.097-.48.176-.728.236v-.585zm0-1.45h.728v.725h-.728v-.726zm0-1.453h.728v.726h-.728v-.726zm0-1.45h.728v.724h-.728v-.725zm0-1.452h.728v.725h-.728v-.725zm0-1.452h.728v.726h-.728v-.726zm0-1.31c.25.062.494.14.728.237v.348h-.728v-.584zM7.273 18.2v-.688H8v.7c-.12.01-.24.026-.364.026-.125 0-.241-.028-.363-.038zm0-2.139H8v.726h-.727v-.726zm0-1.452H8v.726h-.727v-.726zm0-1.45H8v.724h-.727v-.725zm0-1.452H8v.725h-.727v-.725zm0-1.452H8v.726h-.727v-.726zm0-1.412c.122-.01.238-.039.363-.039.124 0 .243.017.364.026v.7h-.727v-.687zm-1.455 8.67h.727v.578a4.827 4.827 0 01-.727-.23v-.349zm0-1.452h.727v.726h-.727v-.726zm0-1.452h.727v.726h-.727v-.726zm0-1.45h.727v.724h-.727v-.725zm0-1.452h.727v.725h-.727v-.725zm0-1.452h.727v.726h-.727v-.726zm0-1.071c.236-.097.48-.174.727-.232v.578h-.727v-.346zM4.364 16.06h.727v.726h-.727v-.726zm0-1.452h.727v.726h-.727v-.726zm0-1.45h.727v.724h-.727v-.725zm0-1.452h.727v.725h-.727v-.725zm0-1.452h.727v.726h-.727v-.726zm6.545 2.177h-.727v-.725h.727v.725zm0 1.451h-.727v-.725h.727v.725zm0 1.452h-.727v-.726h.727v.726zm0 1.452h-.727v-.726h.727v.726zM3.048 14.61h.588v.726h-.349c-.1-.235-.18-.478-.239-.726zm-.139-1.089c0-.124.028-.24.037-.362h.69v.725h-.69c-.01-.121-.037-.238-.037-.363zm.37-1.813h.357v.725h-.584a4.7 4.7 0 01.227-.725zm2.54 10.16a.73.73 0 01-.727.725H3.636a.727.727 0 01-.727-.725v-.726h2.91v.726zm15.272 0a.73.73 0 01-.727.725H18.91a.726.726 0 01-.727-.725v-.726h2.909v.726z" fill-rule="nonzero"/></svg>