<svg xmlns="http://www.w3.org/2000/svg" viewBox="0 0 24 24"><path d="M16.172 1.5H7.508L1.313 7.68v8.64l6.195 6.18 8.664-.055 6.14-6.125V7.68l-6.14-6.18zm5.39 14.512l-5.703 5.687-8.043.051-5.753-5.738V7.987L7.816 2.25h8.044l5.703 5.737v8.025zm-3.419-4.03a.773.773 0 00.36-.202.822.822 0 00.188-.284.998.998 0 00.059-.36.903.903 0 00-.078-.39.658.658 0 00-.236-.27c-.092-.06-.198-.103-.32-.128s-.274-.038-.456-.038h-.48v1.729h.395c.234 0 .424-.019.568-.056zm-3.14-1.313c-.116-.151-.255-.264-.419-.34s-.346-.112-.55-.112c-.21 0-.394.037-.552.11a1.161 1.161 0 00-.418.342c-.115.148-.204.335-.266.56s-.092.478-.092.762c0 .573.12 1.012.36 1.316.24.303.563.455.968.455s.727-.152.966-.456.36-.742.36-1.315c0-.29-.032-.545-.095-.768a1.594 1.594 0 00-.263-.554zM7.968 2.625L2.438 8.142v7.714l5.533 5.518 7.734-.048 5.483-5.47V8.143l-5.483-5.517H7.97zm-.092 10.811c-.07.166-.168.306-.292.422-.141.126-.3.225-.477.293s-.398.103-.665.103c-.317 0-.585-.033-.807-.098s-.431-.146-.626-.242v-.727h.041c.192.179.409.317.651.416s.477.147.702.147c.32 0 .563-.067.727-.2s.247-.31.247-.53c0-.172-.044-.314-.13-.423s-.223-.19-.412-.242c-.135-.04-.258-.072-.37-.097s-.251-.06-.42-.104a1.97 1.97 0 01-.404-.149 1.13 1.13 0 01-.318-.237c-.09-.096-.16-.208-.21-.338s-.075-.28-.075-.45c0-.355.138-.65.414-.89s.629-.36 1.057-.36c.245 0 .476.025.695.074s.42.118.606.207v.692h-.044c-.14-.125-.317-.234-.535-.328s-.446-.141-.684-.141c-.27 0-.489.063-.655.189s-.25.29-.25.495c0 .186.049.333.147.442s.24.19.426.24c.123.033.274.071.452.113s.327.08.444.115c.301.092.522.231.66.417.14.185.209.414.209.686 0 .17-.035.339-.104.505zm4.038-3.02h-1.418v3.756h-.72v-3.756H8.404V9.76h3.51v.656zm4.685-.61h1.095c.258 0 .478.022.66.065s.342.112.48.208c.162.11.29.252.381.423a1.3 1.3 0 01.138.619c0 .19-.033.369-.1.538-.068.17-.161.313-.28.432-.15.148-.328.26-.53.337-.204.076-.46.114-.771.114h-.492v1.629h-.58V9.806zm-.636 2.184c0 .355-.045.675-.135.96s-.22.525-.391.72a1.65 1.65 0 01-.622.45 2.06 2.06 0 01-.785.145c-.295 0-.561-.05-.797-.15s-.44-.247-.61-.445a2.007 2.007 0 01-.387-.717 3.185 3.185 0 01-.135-.963c0-.367.046-.69.137-.968s.22-.517.388-.716c.169-.194.371-.341.609-.442a2.01 2.01 0 01.796-.152c.298 0 .565.052.804.156.238.104.44.25.604.438.166.192.295.429.387.713.091.283.137.608.137.971z"/></svg>