<svg xmlns="http://www.w3.org/2000/svg" viewBox="0 0 24 24"><path d="M21 23.25H3A2.25 2.25 0 01.75 21V10.5A2.25 2.25 0 013 8.25h1.5l6.37-4.888A1.511 1.511 0 0110.822 3a1.5 1.5 0 012.999 0c0 .27-.076.519-.202.738L19.5 8.25H21a2.25 2.25 0 012.25 2.25V21A2.25 2.25 0 0121 23.25zm-8.197-4.813h3.024v-.568h-2.385v-4.266h-.64v4.834zm-4.326 0l.53-1.465h2.03l.557 1.465h.73l-1.972-4.834H9.66l-1.858 4.834h.676zm-4.47-4.267a1.239 1.239 0 00-.207.686c0 .223.056.423.169.603s.285.33.515.451c.177.095.487.195.93.302s.728.185.858.235c.201.078.346.172.435.285s.135.245.135.396c0 .149-.046.288-.137.414s-.23.227-.416.3c-.186.073-.4.11-.644.11-.273 0-.52-.048-.738-.145-.22-.095-.381-.221-.485-.377s-.171-.355-.2-.598l-.603.053c.009.323.097.612.265.867s.4.449.694.576c.296.128.66.192 1.097.192.344 0 .654-.063.929-.19.275-.126.486-.301.633-.53s.22-.468.22-.726c0-.258-.067-.486-.201-.685s-.342-.363-.624-.492c-.195-.088-.55-.19-1.068-.308-.518-.117-.838-.233-.96-.345a.546.546 0 01-.188-.428c0-.2.089-.371.265-.513s.457-.213.842-.213c.37 0 .65.078.84.233.189.155.3.384.332.687l.615-.046c-.011-.284-.09-.537-.236-.76s-.357-.394-.63-.509-.588-.173-.946-.173c-.324 0-.62.055-.885.165-.267.11-.468.27-.606.483zm9.252-10.008c-.258.208-.581.338-.937.338-.497 0-.933-.244-1.206-.616L5.25 8.25h13.5l-5.491-4.088zm6.943 13.707h-2.965v-1.647h2.672v-.568h-2.672v-1.483h2.854v-.568h-3.492v4.834h3.604v-.568zM9.986 14.107c.078.265.192.6.342 1.008l.51 1.336h-1.65l.537-1.415c.11-.305.197-.615.26-.929z"/></svg>