<svg xmlns="http://www.w3.org/2000/svg" viewBox="0 0 24 24"><path d="M20.25 21.75H3a1.5 1.5 0 01-1.5-1.5v-9s3.916 2.014 7.5 2.838V15c0 .415.335.75.75.75h3.75a.75.75 0 00.75-.75v-.912c3.583-.824 7.5-2.838 7.5-2.838v9a1.5 1.5 0 01-1.5 1.5zm-7.5-9a.75.75 0 01.75.75v.75a.75.75 0 01-.75.75H10.5a.75.75 0 01-.75-.75v-.75a.75.75 0 01.75-.75h2.25zm1.5 0a.75.75 0 00-.75-.75H9.75a.75.75 0 00-.75.75v.672C5.416 12.573 1.5 10.5 1.5 10.5v-3A1.5 1.5 0 013 6h4.5V4.5A1.5 1.5 0 019 3h5.25a1.5 1.5 0 011.5 1.5V6h4.5a1.5 1.5 0 011.5 1.5v3s-3.917 2.073-7.5 2.922v-.672zm0-7.5a.75.75 0 00-.75-.75H9.75a.75.75 0 00-.75.75V6h5.25v-.75z"/></svg>