<svg viewBox="0 0 24 24" xmlns="http://www.w3.org/2000/svg" fill-rule="evenodd" clip-rule="evenodd" stroke-linejoin="round" stroke-miterlimit="2"><path d="M7.015 23.674a2.093 2.093 0 01-2.945-.738 2.285 2.285 0 01-.252-1.657l1.308-5.719a.384.384 0 00-.109-.376l-4.28-3.826A2.277 2.277 0 01.506 8.25c.36-.443.886-.722 1.455-.772l5.617-.47a.339.339 0 00.282-.214l2.164-5.43A2.114 2.114 0 0112.822.168a2.18 2.18 0 011.149 1.196l2.164 5.428c.045.12.155.203.282.216l5.617.47a2.2 2.2 0 011.957 2.38 2.239 2.239 0 01-.733 1.5l-4.28 3.824a.387.387 0 00-.113.37l1.307 5.72a2.227 2.227 0 01-1.579 2.66 2.075 2.075 0 01-1.614-.267L12.17 20.6a.31.31 0 00-.338 0l-4.81 3.065-.007.009z" fill-rule="nonzero"/></svg>