<svg xmlns="http://www.w3.org/2000/svg" xmlns:xlink="http://www.w3.org/1999/xlink" width="750" height="336" viewBox="0 0 750 336">
  <defs>
    <clipPath id="clip-path">
      <rect id="矩形_1046" data-name="矩形 1046" width="750" height="336" transform="translate(787 2099)" fill="#fff"/>
    </clipPath>
    <linearGradient id="linear-gradient" x1="0.5" x2="0.5" y2="1" gradientUnits="objectBoundingBox">
      <stop offset="0" stop-color="#5da0f1"/>
      <stop offset="1" stop-color="#5ecfff" stop-opacity="0"/>
    </linearGradient>
    <linearGradient id="linear-gradient-2" x1="0.5" x2="0.5" y2="1" gradientUnits="objectBoundingBox">
      <stop offset="0" stop-color="#fff"/>
      <stop offset="1" stop-color="#5ecfff" stop-opacity="0"/>
    </linearGradient>
    <clipPath id="clip-banner默认图">
      <rect width="750" height="336"/>
    </clipPath>
  </defs>
  <g id="banner默认图" clip-path="url(#clip-banner默认图)">
    <rect width="750" height="336" fill="#f7f9fd"/>
    <g id="蒙版组_1" data-name="蒙版组 1" transform="translate(-787 -2099)" clip-path="url(#clip-path)">
      <g id="组_9497" data-name="组 9497" transform="translate(659 161)">
        <g id="组_9495" data-name="组 9495" transform="translate(0 1560)">
          <g id="组_9494" data-name="组 9494" transform="translate(128 113.5)">
            <rect id="矩形_1045" data-name="矩形 1045" width="750" height="336" transform="translate(0 264.5)" fill="#edf6fe"/>
          </g>
        </g>
        <g id="图层_2" data-name="图层 2" transform="translate(207.79 1917.438)">
          <g id="图层_1" data-name="图层 1" transform="translate(53.21)">
            <path id="路径_10403" data-name="路径 10403" d="M537.814,275.3c-31.041-31.041-82.326-50.867-242.3-50.867S84.291,244.229,53.21,275.3Z" transform="translate(-53.21 78.463)" fill="url(#linear-gradient)"/>
            <g id="组_9496" data-name="组 9496" transform="translate(38.855)">
              <path id="路径_10404" data-name="路径 10404" d="M403.528,26.681H319.056a3.657,3.657,0,0,0-3.806,3.5V262.539a3.657,3.657,0,0,0,3.806,3.5h84.472a3.671,3.671,0,0,0,3.806-3.5V30.176a3.671,3.671,0,0,0-3.806-3.5ZM332.862,189.066a1.215,1.215,0,0,1-1.282,1.174h-4.859a1.215,1.215,0,0,1-1.282-1.174V162.438a1.228,1.228,0,0,1,1.282-1.174h4.859a1.228,1.228,0,0,1,1.282,1.174Zm0-40.8a1.228,1.228,0,0,1-1.282,1.174h-4.859a1.228,1.228,0,0,1-1.282-1.174V121.585a1.228,1.228,0,0,1,1.282-1.174h4.859a1.228,1.228,0,0,1,1.282,1.174Zm0-40.812a1.228,1.228,0,0,1-1.282,1.174h-4.859a1.228,1.228,0,0,1-1.282-1.174V80.827a1.228,1.228,0,0,1,1.282-1.174h4.859a1.228,1.228,0,0,1,1.282,1.174Zm0-40.812a1.228,1.228,0,0,1-1.282,1.174h-4.859a1.228,1.228,0,0,1-1.282-1.174V40.015a1.228,1.228,0,0,1,1.282-1.174h4.859a1.228,1.228,0,0,1,1.282,1.174Zm15.79,122.423a1.215,1.215,0,0,1-1.269,1.174h-4.872a1.228,1.228,0,0,1-1.282-1.174V162.438a1.242,1.242,0,0,1,1.282-1.174h4.872a1.228,1.228,0,0,1,1.269,1.174Zm0-40.8a1.228,1.228,0,0,1-1.269,1.174h-4.872a1.242,1.242,0,0,1-1.282-1.174V121.585a1.242,1.242,0,0,1,1.282-1.174h4.872a1.228,1.228,0,0,1,1.269,1.174Zm0-40.812a1.228,1.228,0,0,1-1.269,1.174h-4.872a1.242,1.242,0,0,1-1.282-1.174V80.827a1.242,1.242,0,0,1,1.282-1.174h4.872a1.228,1.228,0,0,1,1.269,1.174Zm0-40.812a1.228,1.228,0,0,1-1.269,1.174h-4.872a1.242,1.242,0,0,1-1.282-1.174V40.015a1.242,1.242,0,0,1,1.282-1.174h4.872a1.228,1.228,0,0,1,1.269,1.174Zm15.79,122.423a1.215,1.215,0,0,1-1.269,1.174H358.3a1.215,1.215,0,0,1-1.269-1.174V162.438a1.228,1.228,0,0,1,1.269-1.174h4.872a1.228,1.228,0,0,1,1.269,1.174Zm0-40.8a1.228,1.228,0,0,1-1.269,1.174H358.3a1.228,1.228,0,0,1-1.269-1.174V121.585a1.228,1.228,0,0,1,1.269-1.174h4.872a1.228,1.228,0,0,1,1.269,1.174Zm0-40.812a1.228,1.228,0,0,1-1.269,1.174H358.3a1.228,1.228,0,0,1-1.269-1.174V80.827a1.228,1.228,0,0,1,1.269-1.174h4.872a1.228,1.228,0,0,1,1.269,1.174Zm0-40.812a1.228,1.228,0,0,1-1.269,1.174H358.3a1.228,1.228,0,0,1-1.269-1.174V40.015a1.228,1.228,0,0,1,1.269-1.174h4.872a1.228,1.228,0,0,1,1.269,1.174Zm15.79,122.423a1.215,1.215,0,0,1-1.269,1.174h-4.872a1.215,1.215,0,0,1-1.269-1.174V162.438a1.228,1.228,0,0,1,1.269-1.174h4.872a1.228,1.228,0,0,1,1.269,1.174Zm0-40.8a1.228,1.228,0,0,1-1.269,1.174h-4.872a1.228,1.228,0,0,1-1.269-1.174V121.585a1.228,1.228,0,0,1,1.269-1.174h4.872a1.228,1.228,0,0,1,1.269,1.174Zm0-40.812a1.228,1.228,0,0,1-1.269,1.174h-4.872a1.228,1.228,0,0,1-1.269-1.174V80.827a1.228,1.228,0,0,1,1.269-1.174h4.872a1.228,1.228,0,0,1,1.269,1.174Zm0-40.812a1.228,1.228,0,0,1-1.269,1.174h-4.872a1.228,1.228,0,0,1-1.269-1.174V40.015a1.228,1.228,0,0,1,1.269-1.174h4.872a1.228,1.228,0,0,1,1.269,1.174Zm15.8,122.423a1.228,1.228,0,0,1-1.282,1.174h-4.872a1.215,1.215,0,0,1-1.269-1.174V162.438a1.228,1.228,0,0,1,1.269-1.174h4.872a1.242,1.242,0,0,1,1.282,1.174Zm0-40.8a1.242,1.242,0,0,1-1.282,1.174h-4.872a1.228,1.228,0,0,1-1.269-1.174V121.585a1.228,1.228,0,0,1,1.269-1.174h4.872a1.242,1.242,0,0,1,1.282,1.174Zm0-40.812a1.242,1.242,0,0,1-1.282,1.174h-4.872a1.228,1.228,0,0,1-1.269-1.174V80.827a1.228,1.228,0,0,1,1.269-1.174h4.872a1.242,1.242,0,0,1,1.282,1.174Zm0-40.812a1.242,1.242,0,0,1-1.282,1.174h-4.872a1.228,1.228,0,0,1-1.269-1.174V40.015a1.228,1.228,0,0,1,1.269-1.174h4.872a1.242,1.242,0,0,1,1.282,1.174Z" transform="translate(-0.454 9.327)" opacity="0.4" fill="url(#linear-gradient-2)"/>
              <path id="路径_10405" data-name="路径 10405" d="M252.811,55.611H172.779a3.657,3.657,0,0,0-3.779,3.5V252.424a3.657,3.657,0,0,0,3.779,3.455h80.032a3.657,3.657,0,0,0,3.806-3.5V59.106a3.657,3.657,0,0,0-3.806-3.5ZM187.179,195.646a1.566,1.566,0,0,1-1.62,1.5h-7.288a1.566,1.566,0,0,1-1.62-1.5V188.6a1.552,1.552,0,0,1,1.62-1.485h7.288a1.552,1.552,0,0,1,1.62,1.485Zm0-17.383a1.552,1.552,0,0,1-1.62,1.485h-7.288a1.552,1.552,0,0,1-1.62-1.485v-7.045a1.566,1.566,0,0,1,1.62-1.5h7.288a1.566,1.566,0,0,1,1.62,1.5Zm0-17.4a1.566,1.566,0,0,1-1.62,1.5h-7.288a1.566,1.566,0,0,1-1.62-1.5v-7.045a1.552,1.552,0,0,1,1.62-1.485h7.288a1.552,1.552,0,0,1,1.62,1.485Zm0-17.383a1.552,1.552,0,0,1-1.62,1.485h-7.288a1.552,1.552,0,0,1-1.62-1.485v-7.045a1.566,1.566,0,0,1,1.62-1.5h7.288a1.566,1.566,0,0,1,1.62,1.5Zm0-17.4a1.566,1.566,0,0,1-1.62,1.5h-7.288a1.566,1.566,0,0,1-1.62-1.5v-7.031a1.552,1.552,0,0,1,1.62-1.5h7.288a1.552,1.552,0,0,1,1.62,1.5Zm0-17.383a1.552,1.552,0,0,1-1.62,1.485h-7.288a1.552,1.552,0,0,1-1.62-1.485V101.66a1.566,1.566,0,0,1,1.62-1.5h7.288a1.566,1.566,0,0,1,1.62,1.5Zm0-17.4a1.566,1.566,0,0,1-1.62,1.5h-7.288a1.566,1.566,0,0,1-1.62-1.5V84.277a1.552,1.552,0,0,1,1.62-1.5h7.288a1.552,1.552,0,0,1,1.62,1.5Zm0-17.383a1.552,1.552,0,0,1-1.62,1.485h-7.288a1.552,1.552,0,0,1-1.62-1.485V66.934a1.566,1.566,0,0,1,1.62-1.5h7.288a1.566,1.566,0,0,1,1.62,1.5Zm13.6,121.721a1.566,1.566,0,0,1-1.62,1.5h-7.22a1.565,1.565,0,0,1-1.633-1.5V188.6a1.566,1.566,0,0,1,1.633-1.485h7.288a1.552,1.552,0,0,1,1.62,1.485Zm0-17.383a1.552,1.552,0,0,1-1.62,1.485h-7.22a1.566,1.566,0,0,1-1.633-1.485v-7.045a1.566,1.566,0,0,1,1.633-1.5h7.288a1.566,1.566,0,0,1,1.62,1.5Zm0-17.4a1.566,1.566,0,0,1-1.62,1.5h-7.22a1.566,1.566,0,0,1-1.633-1.5v-7.045a1.566,1.566,0,0,1,1.633-1.485h7.288a1.552,1.552,0,0,1,1.62,1.485Zm0-17.383a1.552,1.552,0,0,1-1.62,1.485h-7.22a1.566,1.566,0,0,1-1.633-1.485v-7.045a1.566,1.566,0,0,1,1.633-1.5h7.288a1.566,1.566,0,0,1,1.62,1.5Zm0-17.4a1.566,1.566,0,0,1-1.62,1.5h-7.22a1.566,1.566,0,0,1-1.633-1.5v-7.031a1.566,1.566,0,0,1,1.633-1.5h7.288a1.552,1.552,0,0,1,1.62,1.5Zm0-17.383a1.552,1.552,0,0,1-1.62,1.485h-7.22a1.566,1.566,0,0,1-1.633-1.485V101.66a1.566,1.566,0,0,1,1.633-1.5h7.288a1.566,1.566,0,0,1,1.62,1.5Zm0-17.4a1.566,1.566,0,0,1-1.62,1.5h-7.22a1.566,1.566,0,0,1-1.633-1.5V84.277a1.566,1.566,0,0,1,1.633-1.5h7.288a1.552,1.552,0,0,1,1.62,1.5Zm0-17.383a1.552,1.552,0,0,1-1.62,1.485h-7.22a1.566,1.566,0,0,1-1.633-1.485V66.934a1.566,1.566,0,0,1,1.633-1.552h7.288a1.566,1.566,0,0,1,1.62,1.5Zm13.6,121.721a1.566,1.566,0,0,1-1.633,1.5h-7.315a1.565,1.565,0,0,1-1.619-1.5V188.6a1.552,1.552,0,0,1,1.62-1.485h7.288a1.566,1.566,0,0,1,1.633,1.485Zm0-17.383a1.566,1.566,0,0,1-1.633,1.485h-7.315a1.552,1.552,0,0,1-1.619-1.485v-7.045a1.566,1.566,0,0,1,1.62-1.5h7.288a1.565,1.565,0,0,1,1.633,1.5Zm0-17.4a1.566,1.566,0,0,1-1.633,1.5h-7.315a1.565,1.565,0,0,1-1.619-1.5v-7.045a1.552,1.552,0,0,1,1.62-1.485h7.288a1.566,1.566,0,0,1,1.633,1.485Zm0-17.383a1.566,1.566,0,0,1-1.633,1.485h-7.315a1.552,1.552,0,0,1-1.619-1.485v-7.045a1.566,1.566,0,0,1,1.62-1.5h7.288a1.566,1.566,0,0,1,1.633,1.5Zm0-17.4a1.566,1.566,0,0,1-1.633,1.5h-7.315a1.566,1.566,0,0,1-1.619-1.5v-7.031a1.552,1.552,0,0,1,1.62-1.5h7.288a1.566,1.566,0,0,1,1.633,1.5Zm0-17.383a1.566,1.566,0,0,1-1.633,1.485h-7.315a1.552,1.552,0,0,1-1.619-1.485V101.66a1.566,1.566,0,0,1,1.62-1.5h7.288a1.566,1.566,0,0,1,1.633,1.5Zm0-17.4a1.566,1.566,0,0,1-1.633,1.5h-7.315a1.565,1.565,0,0,1-1.619-1.5V84.277a1.552,1.552,0,0,1,1.62-1.5h7.288a1.566,1.566,0,0,1,1.633,1.5Zm0-17.383a1.566,1.566,0,0,1-1.633,1.485h-7.315a1.552,1.552,0,0,1-1.619-1.485V66.934a1.566,1.566,0,0,1,1.62-1.5h7.288a1.566,1.566,0,0,1,1.66,1.5Zm34.024,121.721a1.566,1.566,0,0,1-1.62,1.5H219.071a1.566,1.566,0,0,1-1.62-1.5V188.6a1.552,1.552,0,0,1,1.62-1.485h27.721a1.552,1.552,0,0,1,1.62,1.485Zm0-17.383a1.552,1.552,0,0,1-1.62,1.485H219.071a1.552,1.552,0,0,1-1.62-1.485v-7.045a1.566,1.566,0,0,1,1.62-1.5h27.721a1.566,1.566,0,0,1,1.62,1.5Zm0-17.4a1.566,1.566,0,0,1-1.62,1.5H219.071a1.566,1.566,0,0,1-1.62-1.5v-7.045a1.552,1.552,0,0,1,1.62-1.485h27.721a1.552,1.552,0,0,1,1.62,1.485Zm0-17.383a1.552,1.552,0,0,1-1.62,1.485H219.071a1.552,1.552,0,0,1-1.62-1.485v-7.045a1.566,1.566,0,0,1,1.62-1.5h27.721a1.566,1.566,0,0,1,1.62,1.5Zm0-17.4a1.566,1.566,0,0,1-1.62,1.5H219.071a1.566,1.566,0,0,1-1.62-1.5v-7.031a1.552,1.552,0,0,1,1.62-1.5h27.721a1.552,1.552,0,0,1,1.62,1.5Zm0-17.383a1.552,1.552,0,0,1-1.62,1.485H219.071a1.552,1.552,0,0,1-1.62-1.485V101.66a1.566,1.566,0,0,1,1.62-1.5h27.721a1.566,1.566,0,0,1,1.62,1.5Zm0-17.4a1.566,1.566,0,0,1-1.62,1.5H219.071a1.566,1.566,0,0,1-1.62-1.5V84.277a1.552,1.552,0,0,1,1.62-1.5h27.721a1.552,1.552,0,0,1,1.62,1.5Zm0-17.383a1.552,1.552,0,0,1-1.62,1.485H219.071a1.552,1.552,0,0,1-1.62-1.485V66.934a1.566,1.566,0,0,1,1.62-1.5h27.721a1.566,1.566,0,0,1,1.62,1.5Z" transform="translate(-51.584 19.441)" opacity="0.4" fill="url(#linear-gradient-2)"/>
              <path id="路径_10406" data-name="路径 10406" d="M188.795,26.681H85.819A3.657,3.657,0,0,0,82,30.176V262.539a3.657,3.657,0,0,0,3.819,3.455H188.795a3.657,3.657,0,0,0,3.806-3.5V30.176A3.657,3.657,0,0,0,188.795,26.681Zm-9.164,181.28a1.566,1.566,0,0,1-1.62,1.5H96.616a1.566,1.566,0,0,1-1.633-1.5v-7.031a1.566,1.566,0,0,1,1.633-1.5h81.395a1.552,1.552,0,0,1,1.62,1.5Zm0-19.8a1.552,1.552,0,0,1-1.62,1.485H96.616a1.566,1.566,0,0,1-1.633-1.485v-7.045a1.566,1.566,0,0,1,1.633-1.5h81.395a1.566,1.566,0,0,1,1.62,1.5Zm0-19.812a1.566,1.566,0,0,1-1.62,1.5H96.616a1.566,1.566,0,0,1-1.633-1.5V161.3a1.566,1.566,0,0,1,1.633-1.485h81.395a1.552,1.552,0,0,1,1.62,1.485Zm0-19.812a1.566,1.566,0,0,1-1.62,1.5H96.616a1.566,1.566,0,0,1-1.633-1.5v-7.031a1.566,1.566,0,0,1,1.633-1.5h81.395a1.552,1.552,0,0,1,1.62,1.5Zm0-19.8a1.552,1.552,0,0,1-1.62,1.485H96.616a1.566,1.566,0,0,1-1.633-1.485v-7.153a1.566,1.566,0,0,1,1.633-1.5h81.395a1.566,1.566,0,0,1,1.62,1.5Zm0-19.812a1.566,1.566,0,0,1-1.62,1.5H96.616a1.566,1.566,0,0,1-1.633-1.5v-7.112a1.566,1.566,0,0,1,1.633-1.485h81.395a1.552,1.552,0,0,1,1.62,1.485Zm0-19.812a1.566,1.566,0,0,1-1.62,1.5H96.616a1.566,1.566,0,0,1-1.633-1.5v-7.1a1.566,1.566,0,0,1,1.633-1.5h81.395a1.552,1.552,0,0,1,1.62,1.5Zm0-19.8a1.552,1.552,0,0,1-1.62,1.485H96.616a1.566,1.566,0,0,1-1.633-1.485V62.2a1.566,1.566,0,0,1,1.633-1.5h81.395a1.566,1.566,0,0,1,1.62,1.5Zm0-19.812a1.566,1.566,0,0,1-1.62,1.5H96.616a1.566,1.566,0,0,1-1.633-1.5V42.39a1.566,1.566,0,0,1,1.633-1.485h81.395a1.552,1.552,0,0,1,1.62,1.485Z" transform="translate(-82 9.327)" opacity="0.4" fill="url(#linear-gradient-2)"/>
              <path id="路径_10407" data-name="路径 10407" d="M329.918,0H241.667A3.239,3.239,0,0,0,238.4,3.217v253.79a2.978,2.978,0,0,0,.906,2.238,3.521,3.521,0,0,0,2.36.991h88.251a3.236,3.236,0,0,0,3.253-3.229V3.217A3.237,3.237,0,0,0,329.918,0Zm-7.855,166.767a1.364,1.364,0,0,1-1.35,1.366h-69.8a1.364,1.364,0,0,1-1.35-1.366v-6.483a1.376,1.376,0,0,1,1.35-1.379h69.761a1.376,1.376,0,0,1,1.35,1.379Zm0-18.232a1.376,1.376,0,0,1-1.35,1.379h-69.8a1.376,1.376,0,0,1-1.35-1.379v-6.483a1.364,1.364,0,0,1,1.35-1.366h69.761a1.364,1.364,0,0,1,1.35,1.366Zm0-18.232a1.376,1.376,0,0,1-1.35,1.379h-69.8a1.376,1.376,0,0,1-1.35-1.379v-6.47a1.376,1.376,0,0,1,1.35-1.379h69.761a1.376,1.376,0,0,1,1.35,1.379Zm0-18.219a1.364,1.364,0,0,1-1.35,1.366h-69.8a1.364,1.364,0,0,1-1.35-1.366v-6.52a1.376,1.376,0,0,1,1.35-1.379h69.761a1.376,1.376,0,0,1,1.35,1.379Zm0-18.232a1.376,1.376,0,0,1-1.35,1.379h-69.8a1.376,1.376,0,0,1-1.35-1.379V87.37A1.364,1.364,0,0,1,250.911,86h69.761a1.364,1.364,0,0,1,1.35,1.366Zm0-18.232A1.376,1.376,0,0,1,320.713,77h-69.8a1.376,1.376,0,0,1-1.35-1.379v-6.47a1.376,1.376,0,0,1,1.35-1.379h69.761a1.376,1.376,0,0,1,1.35,1.379Zm0-18.219a1.364,1.364,0,0,1-1.35,1.366h-69.8a1.364,1.364,0,0,1-1.35-1.366V50.919a1.376,1.376,0,0,1,1.35-1.379h69.761a1.376,1.376,0,0,1,1.35,1.379Zm0-18.232a1.376,1.376,0,0,1-1.35,1.379h-69.8a1.376,1.376,0,0,1-1.35-1.379V32.688a1.364,1.364,0,0,1,1.35-1.366h69.761a1.364,1.364,0,0,1,1.35,1.366Zm0-18.232a1.376,1.376,0,0,1-1.35,1.379h-69.8a1.376,1.376,0,0,1-1.35-1.379v-6.47a1.376,1.376,0,0,1,1.35-1.379h69.761a1.376,1.376,0,0,1,1.35,1.379Z" transform="translate(-27.322 22.562)" opacity="0.4" fill="url(#linear-gradient-2)"/>
              <path id="路径_10408" data-name="路径 10408" d="M188.795,26.681H85.819A3.657,3.657,0,0,0,82,30.176V262.539a3.657,3.657,0,0,0,3.819,3.455H188.795a3.657,3.657,0,0,0,3.806-3.5V30.176A3.657,3.657,0,0,0,188.795,26.681Zm-9.164,181.28a1.566,1.566,0,0,1-1.62,1.5H96.616a1.566,1.566,0,0,1-1.633-1.5v-7.031a1.566,1.566,0,0,1,1.633-1.5h81.395a1.552,1.552,0,0,1,1.62,1.5Zm0-19.8a1.552,1.552,0,0,1-1.62,1.485H96.616a1.566,1.566,0,0,1-1.633-1.485v-7.045a1.566,1.566,0,0,1,1.633-1.5h81.395a1.566,1.566,0,0,1,1.62,1.5Zm0-19.812a1.566,1.566,0,0,1-1.62,1.5H96.616a1.566,1.566,0,0,1-1.633-1.5V161.3a1.566,1.566,0,0,1,1.633-1.485h81.395a1.552,1.552,0,0,1,1.62,1.485Zm0-19.812a1.566,1.566,0,0,1-1.62,1.5H96.616a1.566,1.566,0,0,1-1.633-1.5v-7.031a1.566,1.566,0,0,1,1.633-1.5h81.395a1.552,1.552,0,0,1,1.62,1.5Zm0-19.8a1.552,1.552,0,0,1-1.62,1.485H96.616a1.566,1.566,0,0,1-1.633-1.485v-7.153a1.566,1.566,0,0,1,1.633-1.5h81.395a1.566,1.566,0,0,1,1.62,1.5Zm0-19.812a1.566,1.566,0,0,1-1.62,1.5H96.616a1.566,1.566,0,0,1-1.633-1.5v-7.112a1.566,1.566,0,0,1,1.633-1.485h81.395a1.552,1.552,0,0,1,1.62,1.485Zm0-19.812a1.566,1.566,0,0,1-1.62,1.5H96.616a1.566,1.566,0,0,1-1.633-1.5v-7.1a1.566,1.566,0,0,1,1.633-1.5h81.395a1.552,1.552,0,0,1,1.62,1.5Zm0-19.8a1.552,1.552,0,0,1-1.62,1.485H96.616a1.566,1.566,0,0,1-1.633-1.485V62.2a1.566,1.566,0,0,1,1.633-1.5h81.395a1.566,1.566,0,0,1,1.62,1.5Zm0-19.812a1.566,1.566,0,0,1-1.62,1.5H96.616a1.566,1.566,0,0,1-1.633-1.5V42.39a1.566,1.566,0,0,1,1.633-1.485h81.395a1.552,1.552,0,0,1,1.62,1.485Z" transform="translate(367 90.326)" opacity="0.4" fill="url(#linear-gradient-2)"/>
              <path id="路径_10409" data-name="路径 10409" d="M403.528,26.681H319.056a3.657,3.657,0,0,0-3.806,3.5V262.539a3.657,3.657,0,0,0,3.806,3.5h84.472a3.671,3.671,0,0,0,3.806-3.5V30.176a3.671,3.671,0,0,0-3.806-3.5ZM332.862,189.066a1.215,1.215,0,0,1-1.282,1.174h-4.859a1.215,1.215,0,0,1-1.282-1.174V162.438a1.228,1.228,0,0,1,1.282-1.174h4.859a1.228,1.228,0,0,1,1.282,1.174Zm0-40.8a1.228,1.228,0,0,1-1.282,1.174h-4.859a1.228,1.228,0,0,1-1.282-1.174V121.585a1.228,1.228,0,0,1,1.282-1.174h4.859a1.228,1.228,0,0,1,1.282,1.174Zm0-40.812a1.228,1.228,0,0,1-1.282,1.174h-4.859a1.228,1.228,0,0,1-1.282-1.174V80.827a1.228,1.228,0,0,1,1.282-1.174h4.859a1.228,1.228,0,0,1,1.282,1.174Zm0-40.812a1.228,1.228,0,0,1-1.282,1.174h-4.859a1.228,1.228,0,0,1-1.282-1.174V40.015a1.228,1.228,0,0,1,1.282-1.174h4.859a1.228,1.228,0,0,1,1.282,1.174Zm15.79,122.423a1.215,1.215,0,0,1-1.269,1.174h-4.872a1.228,1.228,0,0,1-1.282-1.174V162.438a1.242,1.242,0,0,1,1.282-1.174h4.872a1.228,1.228,0,0,1,1.269,1.174Zm0-40.8a1.228,1.228,0,0,1-1.269,1.174h-4.872a1.242,1.242,0,0,1-1.282-1.174V121.585a1.242,1.242,0,0,1,1.282-1.174h4.872a1.228,1.228,0,0,1,1.269,1.174Zm0-40.812a1.228,1.228,0,0,1-1.269,1.174h-4.872a1.242,1.242,0,0,1-1.282-1.174V80.827a1.242,1.242,0,0,1,1.282-1.174h4.872a1.228,1.228,0,0,1,1.269,1.174Zm0-40.812a1.228,1.228,0,0,1-1.269,1.174h-4.872a1.242,1.242,0,0,1-1.282-1.174V40.015a1.242,1.242,0,0,1,1.282-1.174h4.872a1.228,1.228,0,0,1,1.269,1.174Zm15.79,122.423a1.215,1.215,0,0,1-1.269,1.174H358.3a1.215,1.215,0,0,1-1.269-1.174V162.438a1.228,1.228,0,0,1,1.269-1.174h4.872a1.228,1.228,0,0,1,1.269,1.174Zm0-40.8a1.228,1.228,0,0,1-1.269,1.174H358.3a1.228,1.228,0,0,1-1.269-1.174V121.585a1.228,1.228,0,0,1,1.269-1.174h4.872a1.228,1.228,0,0,1,1.269,1.174Zm0-40.812a1.228,1.228,0,0,1-1.269,1.174H358.3a1.228,1.228,0,0,1-1.269-1.174V80.827a1.228,1.228,0,0,1,1.269-1.174h4.872a1.228,1.228,0,0,1,1.269,1.174Zm0-40.812a1.228,1.228,0,0,1-1.269,1.174H358.3a1.228,1.228,0,0,1-1.269-1.174V40.015a1.228,1.228,0,0,1,1.269-1.174h4.872a1.228,1.228,0,0,1,1.269,1.174Zm15.79,122.423a1.215,1.215,0,0,1-1.269,1.174h-4.872a1.215,1.215,0,0,1-1.269-1.174V162.438a1.228,1.228,0,0,1,1.269-1.174h4.872a1.228,1.228,0,0,1,1.269,1.174Zm0-40.8a1.228,1.228,0,0,1-1.269,1.174h-4.872a1.228,1.228,0,0,1-1.269-1.174V121.585a1.228,1.228,0,0,1,1.269-1.174h4.872a1.228,1.228,0,0,1,1.269,1.174Zm0-40.812a1.228,1.228,0,0,1-1.269,1.174h-4.872a1.228,1.228,0,0,1-1.269-1.174V80.827a1.228,1.228,0,0,1,1.269-1.174h4.872a1.228,1.228,0,0,1,1.269,1.174Zm0-40.812a1.228,1.228,0,0,1-1.269,1.174h-4.872a1.228,1.228,0,0,1-1.269-1.174V40.015a1.228,1.228,0,0,1,1.269-1.174h4.872a1.228,1.228,0,0,1,1.269,1.174Zm15.8,122.423a1.228,1.228,0,0,1-1.282,1.174h-4.872a1.215,1.215,0,0,1-1.269-1.174V162.438a1.228,1.228,0,0,1,1.269-1.174h4.872a1.242,1.242,0,0,1,1.282,1.174Zm0-40.8a1.242,1.242,0,0,1-1.282,1.174h-4.872a1.228,1.228,0,0,1-1.269-1.174V121.585a1.228,1.228,0,0,1,1.269-1.174h4.872a1.242,1.242,0,0,1,1.282,1.174Zm0-40.812a1.242,1.242,0,0,1-1.282,1.174h-4.872a1.228,1.228,0,0,1-1.269-1.174V80.827a1.228,1.228,0,0,1,1.269-1.174h4.872a1.242,1.242,0,0,1,1.282,1.174Zm0-40.812a1.242,1.242,0,0,1-1.282,1.174h-4.872a1.228,1.228,0,0,1-1.269-1.174V40.015a1.228,1.228,0,0,1,1.269-1.174h4.872a1.242,1.242,0,0,1,1.282,1.174Z" transform="translate(-449.453 95.326)" opacity="0.4" fill="url(#linear-gradient-2)"/>
            </g>
            <path id="路径_10410" data-name="路径 10410" d="M223.536,174.426a4.669,4.669,0,0,0,1.066-.4c.391-.148.742-.283,1.08-.391l8.651,20.541-2.038-.958-2-.931-8.1-17.288h0Z" transform="translate(5.87 60.703)" fill="#53b9f5"/>
            <path id="路径_10411" data-name="路径 10411" d="M232.015,229.158v-35.7l2.038.958V173.028h0l2.9-.108v58.951l-8.1,23.875L223,250.091Z" transform="translate(6.15 60.454)" fill="#fff"/>
            <path id="路径_10412" data-name="路径 10412" d="M192.694,159.618l-21.472,3.86c-2.7,0-4.859,4.2-4.859,9.38s2.173,9.366,4.859,9.366l21.472,3.9c-2.173,27.546-10.959,48.127-21.472,48.127-12.146,0-21.972-27.478-21.972-61.394s9.852-61.407,21.972-61.407C181.735,111.477,190.521,132.086,192.694,159.618Z" transform="translate(-19.634 38.964)" fill="#fff"/>
            <path id="路径_10413" data-name="路径 10413" d="M187,147.14c.337,4.265.513,8.7.513,13.267s-.175,9-.513,13.267l-21.472-3.9c2.7,0,4.886-4.2,4.886-9.366s-2.186-9.38-4.886-9.38Z" transform="translate(-13.942 51.441)" fill="#53b9f5"/>
            <path id="路径_10414" data-name="路径 10414" d="M166.789,150c2.7,0,4.886,4.2,4.886,9.38s-2.186,9.366-4.886,9.366-4.859-4.2-4.859-9.366S164.1,150,166.789,150Z" transform="translate(-15.2 52.441)" fill="#40a8f5"/>
            <path id="路径_10415" data-name="路径 10415" d="M180.74,116.912c7.612,9.65,12.916,31.041,12.916,55.968s-5.3,46.346-12.929,55.982c-2.7,3.482-5.817,5.4-9.042,5.4H165.53c10.513,0,19.3-20.582,21.472-48.127.337-4.265.513-8.7.513-13.267s-.175-9-.513-13.267c-2.173-27.532-10.959-48.141-21.472-48.141h6.154c3.226,0,6.289,1.943,9.042,5.4Z" transform="translate(-13.942 38.967)" fill="#0b70bb"/>
            <path id="路径_10416" data-name="路径 10416" d="M227.331,173.24l6.1-.27h0v21.418l-8.651-20.541A11.013,11.013,0,0,1,227.331,173.24Z" transform="translate(6.772 60.472)" fill="#40a8f5"/>
            <path id="路径_10417" data-name="路径 10417" d="M224.063,185.789c4.413-2.294,7.693-11.688,7.693-22.876s-3.7-20.689-7.936-22.943a16.531,16.531,0,0,0,3.873,1.093c4.967,0,9,9.785,9,21.864s-4.049,21.864-9,21.864a11.011,11.011,0,0,0-2.551.621A8.572,8.572,0,0,0,224.063,185.789Z" transform="translate(6.437 48.935)" fill="#53b9f5"/>
            <path id="路径_10418" data-name="路径 10418" d="M255.957,161.2c0,12.039-3.576,15.345-8.516,15.359a37.627,37.627,0,0,0,2.821-15.359c0-6.748-1.255-12.416-3.212-16.2C251.976,145,255.957,149.143,255.957,161.2Z" transform="translate(14.558 50.693)" fill="#0b70bb"/>
            <path id="路径_10419" data-name="路径 10419" d="M248.144,172.43v83.446H227.36l8.1-23.875V173.051h0C241.086,172.808,243.069,172.74,248.144,172.43Z" transform="translate(7.674 60.283)" fill="#599af0"/>
            <path id="路径_10420" data-name="路径 10420" d="M254.175,146.472c1.957,3.725,3.212,9.447,3.212,16.2a37.627,37.627,0,0,1-2.821,15.359c-1.62,3.469-3.792,5.506-6.181,5.506-5.034.31-7.058.378-12.713.607h0l-2.9.108-6.1.27c4.967,0,9-9.785,9-21.864s-4.049-21.864-9-21.864c12.74.459,14.657.567,21.715.985C250.585,141.748,252.609,143.489,254.175,146.472Z" transform="translate(7.433 49.221)" fill="#8cd7ff"/>
            <path id="路径_10421" data-name="路径 10421" d="M248.167,171.5c0,11.188-3.28,20.582-7.693,22.876l-1.066.4-1.35.553c-15.21,6.384-51.042,26.358-61.259,32.148,7.625-9.636,12.929-31.041,12.929-55.982s-5.3-46.319-12.916-55.968c10.8,6.073,49.8,27.856,63.432,33.011C244.469,150.768,248.167,160.31,248.167,171.5Z" transform="translate(-10.002 40.39)" fill="#599af0"/>
            <path id="路径_10422" data-name="路径 10422" d="M324.239,241.349c.688-.324.715-1.673.283-2.267.189.378-.094.688-.634.661a31.473,31.473,0,0,1-14.576-3.023c-1.35-.324-4.575-.243-6.316-.567a2.294,2.294,0,0,1-2.065-1.9,2.375,2.375,0,0,0-.392,3.05c.688,1.255,5.1,1.687,5.938,1.782s9.447,1.188,10.648,1.674A22.363,22.363,0,0,0,324.239,241.349Z" transform="translate(33.124 81.896)" fill="#ebfcff"/>
            <path id="路径_10423" data-name="路径 10423" d="M275,239.082c-.432.594-.4,1.943.283,2.267a22.362,22.362,0,0,0,7.112-.594c1.242-.486,9.812-1.579,10.648-1.674s5.25-.526,5.938-1.781a2.375,2.375,0,0,0-.391-3.05,2.281,2.281,0,0,1-2.065,1.9c-1.741.324-5.021.243-6.316.567a31.541,31.541,0,0,1-14.576,3.023C275.1,239.77,274.815,239.46,275,239.082Z" transform="translate(24.231 81.896)" fill="#ebfcff"/>
            <path id="路径_10424" data-name="路径 10424" d="M301.914,231.983a18.475,18.475,0,0,0-1.2,3.28,2.456,2.456,0,0,0,0,.445,2.294,2.294,0,0,0,2.065,1.9c1.741.324,5.021.243,6.316.567A31.472,31.472,0,0,0,323.67,241.2c.54,0,.823-.283.634-.661a36.345,36.345,0,0,0-5.911-4.238,16.02,16.02,0,0,1-7.369-6.073,2.874,2.874,0,0,0-.945-.148c-1.08,0-2.038.567-2.051,1.215s.5,1.633-.661,1.66a3.428,3.428,0,0,1-2.875-1.5c-.378-.742-.351-1.35-1.242-1.228h-.594c-.472,0-.715,0-.877.189S302.17,231.322,301.914,231.983Z" transform="translate(33.316 80.438)" fill="#ffb056"/>
            <path id="路径_10425" data-name="路径 10425" d="M274.945,240.538c-.189.378.094.688.634.661a31.54,31.54,0,0,0,14.576-3.023c1.35-.324,4.575-.243,6.316-.567a2.281,2.281,0,0,0,2.065-1.9,2.45,2.45,0,0,0,0-.445,18.484,18.484,0,0,0-1.2-3.28c-.256-.648.337-1.188.135-1.539s-.58-.121-1.471-.216-.864.486-1.242,1.228a3.428,3.428,0,0,1-2.875,1.5c-1.161,0-.661-.823-.661-1.66,0-.553-.7-1.039-1.593-1.174a2.955,2.955,0,0,0-1.35.108,16.019,16.019,0,0,1-7.369,6.073,35.759,35.759,0,0,0-5.965,4.238Z" transform="translate(24.29 80.44)" fill="#ffb056"/>
            <path id="路径_10426" data-name="路径 10426" d="M292.34,187.058l.85,3.9,11.242,51.69h1.134l6.559-.135h.378l-7.463-54.686c-.216-.3-.756-.958-1.35-1.727A66.135,66.135,0,0,1,292.34,187.058Z" transform="translate(30.392 65.062)" fill="#599af0"/>
            <path id="路径_10427" data-name="路径 10427" d="M285.15,186.17l.378,56.414h7.72l2.5-51.65h0l-.85-3.9C290.427,187.074,286.459,186.777,285.15,186.17Z" transform="translate(27.878 65.087)" fill="#599af0"/>
            <path id="路径_10428" data-name="路径 10428" d="M297.829,198.583a66.132,66.132,0,0,0,11.35-.945c-1.066-1.35-2.321-3.118-2.105-3.522.364-.675,1.835-.823,2.524-.891l1.889-3.388L309.6,170.417l1.849,3.617,1.943-1.35,6.222-4.521h0l.688-.5-6.465-9.7a4.265,4.265,0,0,0-3.347-2.362,55.873,55.873,0,0,1-6.937-1.2c-.364,1.269-7.355.972-8.179-.9-1.35,0-5.4-.216-8.017-.351a5.938,5.938,0,0,0-3.968,1.255l-6.748,5.263,3.482,7.261,1.835,3.833,5.169-4.683s.594,28.868.607,31.473a1.417,1.417,0,0,0,.364.229C289.434,198.327,293.4,198.624,297.829,198.583Z" transform="translate(24.903 53.537)" fill="#ffb056"/>
            <path id="路径_10429" data-name="路径 10429" d="M285.81,228v2.888c.891.135,1.579.621,1.593,1.174,0,.837-.5,1.633.661,1.66a3.428,3.428,0,0,0,2.875-1.5c.378-.742.351-1.35,1.242-1.228v-3Z" transform="translate(28.109 79.711)" fill="#ffeed2"/>
            <path id="路径_10430" data-name="路径 10430" d="M285.81,228v.553c.891.135,5.506,0,6.4,0V228Z" transform="translate(28.109 79.711)" fill="#e55c5c" opacity="0.2"/>
            <path id="路径_10431" data-name="路径 10431" d="M285.81,229.847v.472c.891.135,1.579.621,1.593,1.174,0,.837-.5,1.633.661,1.66a3.428,3.428,0,0,0,2.875-1.5c.378-.742.351-1.35,1.242-1.228v-.918h-.634c-.391,0-1.269,1.808-1.822,2.2-1.727,1.228-1.741-1.053-2.362-1.35a3.806,3.806,0,0,0-1.552-.513Z" transform="translate(28.109 80.239)" fill="#e55c5c" opacity="0.2"/>
            <path id="路径_10432" data-name="路径 10432" d="M302.14,228.028a7.449,7.449,0,0,1,0,2.956h.594c.891-.094.864.486,1.242,1.228a3.428,3.428,0,0,0,2.875,1.5c1.161,0,.661-.823.661-1.66s.972-1.215,2.051-1.215a22.152,22.152,0,0,1-.877-2.915Z" transform="translate(33.818 79.683)" fill="#ffeed2"/>
            <path id="路径_10433" data-name="路径 10433" d="M302.14,228.035a2.038,2.038,0,0,1,.121.756c.162,0,5.547-.162,6.64-.162-.108-.324-.148-.553-.2-.729Z" transform="translate(33.818 79.676)" fill="#e55c5c" opacity="0.2"/>
            <path id="路径_10434" data-name="路径 10434" d="M301.3,187.253c.594.769,1.134,1.431,1.35,1.727l.067.094c.945-.162,1.849-3.644,1.849-3.644l-2.848-2.591c-.688,0-2.159.216-2.524.891C298.942,184.136,300.291,185.863,301.3,187.253Z" transform="translate(32.779 63.923)" fill="#fae4cd"/>
            <path id="路径_10435" data-name="路径 10435" d="M302.949,185.857l-1.889,3.388,2.848,2.591,12.146-15.507a2.362,2.362,0,0,0,.216-2.578l-5.7-9.231-5.668,4.13,4.292,6.06Z" transform="translate(33.441 57.518)" fill="#ffeed2"/>
            <path id="路径_10436" data-name="路径 10436" d="M310.429,165.951l-.891-1.431-5.668,4.13.688.972S309.444,166.382,310.429,165.951Z" transform="translate(34.423 57.518)" fill="#e55c5c" opacity="0.2"/>
            <path id="路径_10437" data-name="路径 10437" d="M268.027,145.378c-.189.094-.715.121-.688.459a77.722,77.722,0,0,0,.189,8.1l2.564,22.606a1.579,1.579,0,0,0,2.443,1.12l10.878-7.315-3.482-7.261-5.925,4.643-2.335-14.076c.162-1.026,2.969-4.13,3.482-4.535a.7.7,0,0,0-.594-1.066c-.256,0-1.026.661-1.35.58s.216-3.806.095-4.049-.756-.621-1-.2-.378,2.821-.5,2.861a33.953,33.953,0,0,1-.432-3.6c0-.351-.985-.5-1.08-.081-.216-.229-.918,0-.958.27s-.283,3.374-.351,3.6C268.782,147.213,268.243,145.283,268.027,145.378Z" transform="translate(21.64 50.1)" fill="#ffeed2"/>
            <path id="路径_10438" data-name="路径 10438" d="M279.016,166.041l1.242-.85-3.482-7.261-.445.351S278.3,164.5,279.016,166.041Z" transform="translate(24.795 55.214)" fill="#e55c5c" opacity="0.2"/>
            <path id="路径_10439" data-name="路径 10439" d="M290.911,154.451h-.391c.823,1.876,7.814,2.173,8.179.9a4.711,4.711,0,0,1-1.606-.688,3.7,3.7,0,0,1-.823-3.32,5.182,5.182,0,0,1,.189-1.107,5.466,5.466,0,0,1-3.023.8,5.4,5.4,0,0,1-2.105-.459C291.343,151.266,291.478,154.356,290.911,154.451Z" transform="translate(29.756 52.525)" fill="#ffeed2"/>
            <path id="路径_10440" data-name="路径 10440" d="M295.992,152.237a12.919,12.919,0,0,1,.256-2,5.466,5.466,0,0,1-3.023.8,5.4,5.4,0,0,1-2.105-.459A9.313,9.313,0,0,0,295.992,152.237Z" transform="translate(29.965 52.525)" fill="#e55c5c" opacity="0.2"/>
            <path id="路径_10441" data-name="路径 10441" d="M299.846,146.258a3.606,3.606,0,0,0,0-.54v.094a2.983,2.983,0,0,1-1.107,1.35,4.67,4.67,0,0,0-.121-2.956,3.618,3.618,0,0,0-.607-.918,4.589,4.589,0,0,0-3.293-1.539,21.3,21.3,0,0,0-4.6.661l-.094.081c-.31.526-2.551,8.948,1.795,11.04a5.4,5.4,0,0,0,2.105.459,5.466,5.466,0,0,0,3.023-.8h0C298.388,152.317,299.738,150.387,299.846,146.258Z" transform="translate(29.283 49.557)" fill="#ffeed2"/>
            <path id="路径_10442" data-name="路径 10442" d="M297.971,156.117c0-2.848,2.848-3.86,4.359-6.141a7.8,7.8,0,0,0,.769-6.843c-.634-1.835-3.158-2.956-3.833-2.632-.135-.918-1.606-2.078-3.63-2.308a6.222,6.222,0,0,0-5.155,2.173c-.891,1.215-1.9,2.281-2.861,1.835a2.875,2.875,0,0,0,1.741,1.5,2.955,2.955,0,0,0,1.282,0,21.3,21.3,0,0,1,4.6-.661,4.589,4.589,0,0,1,3.293,1.539,3.618,3.618,0,0,1,.607.918,4.67,4.67,0,0,1,.121,2.956,2.983,2.983,0,0,0,1.107-1.35v-.095a3.6,3.6,0,0,1,0,.54c-.094,4.13-1.5,6.06-2.915,6.95h0c0,.283-.135.661-.189,1.107A4.842,4.842,0,0,0,297.971,156.117Z" transform="translate(28.742 48.309)"/>
            <path id="路径_10443" data-name="路径 10443" d="M293.07,190.737l.31-.067-.837-3.846-.148-.014h-.175Z" transform="translate(30.35 65.31)" fill="#395ee5"/>
            <path id="路径_10444" data-name="路径 10444" d="M324.5,239.082c.432.594.4,1.943-.283,2.267a22.363,22.363,0,0,1-7.112-.594c-1.242-.486-9.812-1.579-10.648-1.674s-5.25-.526-5.938-1.781a2.375,2.375,0,0,1,.391-3.05h0" transform="translate(33.117 81.896)" fill="none" stroke="#4986d9" stroke-miterlimit="10" stroke-width="0.12"/>
            <path id="路径_10445" data-name="路径 10445" d="M275,239.082c-.432.594-.4,1.943.283,2.267a22.362,22.362,0,0,0,7.112-.594c1.242-.486,9.812-1.579,10.648-1.674s5.25-.526,5.938-1.781a2.375,2.375,0,0,0-.391-3.05" transform="translate(24.231 81.896)" fill="none" stroke="#4986d9" stroke-miterlimit="10" stroke-width="0.12"/>
            <ellipse id="椭圆_1299" data-name="椭圆 1299" cx="1.62" cy="1.107" rx="1.62" ry="1.107" transform="translate(327.395 197.919) rotate(-67.44)" fill="#ffeed2"/>
            <ellipse id="椭圆_1300" data-name="椭圆 1300" cx="0.945" cy="0.648" rx="0.945" ry="0.648" transform="translate(328.078 197.472) rotate(-67.44)" fill="#e55c5c" opacity="0.2"/>
            <path id="路径_10446" data-name="路径 10446" d="M309.37,229.838a1.524,1.524,0,0,0,.2.459,3.515,3.515,0,0,0-.445,0c-.891.135-1.579.621-1.592,1.174,0,.837.5,1.633-.661,1.66a3.428,3.428,0,0,1-2.875-1.5c-.378-.742-.351-1.35-1.242-1.228h-.607a4.119,4.119,0,0,0,.135-.945h1.066c.391,0,1.269,1.808,1.822,2.2,1.727,1.228,1.741-1.053,2.362-1.35a4.224,4.224,0,0,1,1.835-.472Z" transform="translate(33.822 80.221)" fill="#e55c5c" opacity="0.2"/>
            <path id="路径_10447" data-name="路径 10447" d="M251.689,85.59c19.07,0,34.536,10.8,34.536,23.969,0,5.79-2.942,11.094-7.855,15.237l5.4,7.288-10.7-3.657a44.847,44.847,0,0,1-21.31,5.115c-19.07,0-34.537-10.8-34.537-23.983S232.619,85.59,251.689,85.59Z" transform="translate(4.129 29.923)" fill="#8cd7ff"/>
            <circle id="椭圆_1301" data-name="椭圆 1301" cx="3.253" cy="3.253" r="3.253" transform="translate(252.566 136.23)" fill="#fff"/>
            <circle id="椭圆_1302" data-name="椭圆 1302" cx="3.253" cy="3.253" r="3.253" transform="translate(264.105 136.23)" fill="#fff"/>
            <circle id="椭圆_1303" data-name="椭圆 1303" cx="3.253" cy="3.253" r="3.253" transform="translate(241.04 136.23)" fill="#fff"/>
          </g>
        </g>
      </g>
    </g>
  </g>
</svg>
