<svg xmlns="http://www.w3.org/2000/svg" xmlns:xlink="http://www.w3.org/1999/xlink" width="331" height="192" viewBox="0 0 331 192">
  <defs>
    <clipPath id="clip-path">
      <path id="路径_10215" data-name="路径 10215" d="M8,0H323a8,8,0,0,1,8,8V184a8,8,0,0,1-8,8H8a8,8,0,0,1-8-8V8A8,8,0,0,1,8,0Z" transform="translate(13579 -14646)" fill="#83aeff"/>
    </clipPath>
    <linearGradient id="linear-gradient" x1="0.5" x2="0.5" y2="1" gradientUnits="objectBoundingBox">
      <stop offset="0" stop-color="#fff"/>
      <stop offset="1" stop-color="#5ecfff" stop-opacity="0"/>
    </linearGradient>
    <linearGradient id="linear-gradient-5" x1="0.777" y1="0.88" x2="0.184" y2="0.304" gradientUnits="objectBoundingBox">
      <stop offset="0" stop-color="#efbb81"/>
      <stop offset="0.501" stop-color="#f79e57"/>
      <stop offset="1" stop-color="#ff7f2a"/>
    </linearGradient>
    <linearGradient id="linear-gradient-6" x1="0.772" y1="0.881" x2="0.18" y2="0.304" xlink:href="#linear-gradient-5"/>
    <linearGradient id="linear-gradient-7" x1="0.499" y1="0.036" x2="0.499" y2="1.084" gradientUnits="objectBoundingBox">
      <stop offset="0" stop-color="#91b3ff"/>
      <stop offset="0.507" stop-color="#6791f2"/>
      <stop offset="1" stop-color="#3b6ce4"/>
    </linearGradient>
    <linearGradient id="linear-gradient-8" x1="0.5" x2="0.5" y2="1" gradientUnits="objectBoundingBox">
      <stop offset="0" stop-color="#99bcff"/>
      <stop offset="1" stop-color="#5ecfff" stop-opacity="0"/>
    </linearGradient>
    <clipPath id="clip-双卡片列表默认图">
      <rect width="331" height="192"/>
    </clipPath>
  </defs>
  <g id="双卡片列表默认图" clip-path="url(#clip-双卡片列表默认图)">
    <rect width="331" height="192" fill="#f7f9fd"/>
    <g id="组_9498" data-name="组 9498" transform="translate(-13579 14646)">
      <g id="组_8622" data-name="组 8622">
        <path id="路径_6510" data-name="路径 6510" d="M8,0H323a8,8,0,0,1,8,8V184a8,8,0,0,1-8,8H8a8,8,0,0,1-8-8V8A8,8,0,0,1,8,0Z" transform="translate(13579 -14646)" fill="#edf6fe"/>
        <g id="蒙版组_13" data-name="蒙版组 13" clip-path="url(#clip-path)">
          <g id="组_8621" data-name="组 8621" transform="translate(-12.646 355.447)">
            <g id="组_8616" data-name="组 8616" transform="translate(13709.344 -14983.766)">
              <path id="路径_6658" data-name="路径 6658" d="M360.584,26.679H317.2a1.878,1.878,0,0,0-1.954,1.8V147.8a1.878,1.878,0,0,0,1.954,1.8h43.38a1.885,1.885,0,0,0,1.954-1.8V28.474A1.885,1.885,0,0,0,360.584,26.679ZM324.295,110.07a.624.624,0,0,1-.658.6h-2.5a.624.624,0,0,1-.658-.6V96.4a.631.631,0,0,1,.658-.6h2.5a.631.631,0,0,1,.658.6Zm0-20.952a.631.631,0,0,1-.658.6h-2.5a.631.631,0,0,1-.658-.6v-13.7a.631.631,0,0,1,.658-.6h2.5a.631.631,0,0,1,.658.6Zm0-20.959a.631.631,0,0,1-.658.6h-2.5a.631.631,0,0,1-.658-.6V54.485a.631.631,0,0,1,.658-.6h2.5a.631.631,0,0,1,.658.6Zm0-20.959a.631.631,0,0,1-.658.6h-2.5a.631.631,0,0,1-.658-.6V33.527a.631.631,0,0,1,.658-.6h2.5a.631.631,0,0,1,.658.6ZM332.4,110.07a.624.624,0,0,1-.651.6h-2.5a.631.631,0,0,1-.658-.6V96.4a.638.638,0,0,1,.658-.6h2.5a.631.631,0,0,1,.651.6Zm0-20.952a.631.631,0,0,1-.651.6h-2.5a.638.638,0,0,1-.658-.6v-13.7a.638.638,0,0,1,.658-.6h2.5a.631.631,0,0,1,.651.6Zm0-20.959a.631.631,0,0,1-.651.6h-2.5a.638.638,0,0,1-.658-.6V54.485a.638.638,0,0,1,.658-.6h2.5a.631.631,0,0,1,.651.6Zm0-20.959a.631.631,0,0,1-.651.6h-2.5a.638.638,0,0,1-.658-.6V33.527a.638.638,0,0,1,.658-.6h2.5a.631.631,0,0,1,.651.6Zm8.109,62.869a.624.624,0,0,1-.652.6h-2.5a.624.624,0,0,1-.651-.6V96.4a.631.631,0,0,1,.651-.6h2.5a.631.631,0,0,1,.652.6Zm0-20.952a.631.631,0,0,1-.652.6h-2.5a.631.631,0,0,1-.651-.6v-13.7a.631.631,0,0,1,.651-.6h2.5a.631.631,0,0,1,.652.6Zm0-20.959a.631.631,0,0,1-.652.6h-2.5a.631.631,0,0,1-.651-.6V54.485a.631.631,0,0,1,.651-.6h2.5a.631.631,0,0,1,.652.6Zm0-20.959a.631.631,0,0,1-.652.6h-2.5a.631.631,0,0,1-.651-.6V33.527a.631.631,0,0,1,.651-.6h2.5a.631.631,0,0,1,.652.6Zm8.109,62.869a.624.624,0,0,1-.651.6h-2.5a.624.624,0,0,1-.652-.6V96.4a.631.631,0,0,1,.651-.6h2.5a.631.631,0,0,1,.651.6Zm0-20.952a.631.631,0,0,1-.652.6h-2.5a.631.631,0,0,1-.652-.6v-13.7a.631.631,0,0,1,.651-.6h2.5a.631.631,0,0,1,.651.6Zm0-20.959a.631.631,0,0,1-.652.6h-2.5a.631.631,0,0,1-.652-.6V54.485a.631.631,0,0,1,.651-.6h2.5a.631.631,0,0,1,.651.6Zm0-20.959a.631.631,0,0,1-.652.6h-2.5a.631.631,0,0,1-.652-.6V33.527a.631.631,0,0,1,.651-.6h2.5a.631.631,0,0,1,.651.6Zm8.116,62.869a.631.631,0,0,1-.658.6h-2.5a.624.624,0,0,1-.651-.6V96.4a.631.631,0,0,1,.651-.6h2.5a.638.638,0,0,1,.658.6Zm0-20.952a.638.638,0,0,1-.658.6h-2.5a.631.631,0,0,1-.651-.6v-13.7a.631.631,0,0,1,.651-.6h2.5a.638.638,0,0,1,.658.6Zm0-20.959a.638.638,0,0,1-.658.6h-2.5a.631.631,0,0,1-.651-.6V54.485a.631.631,0,0,1,.651-.6h2.5a.638.638,0,0,1,.658.6Zm0-20.959a.638.638,0,0,1-.658.6h-2.5a.631.631,0,0,1-.651-.6V33.527a.631.631,0,0,1,.651-.6h2.5a.638.638,0,0,1,.658.6Z" transform="translate(-153.59 -19.774)" opacity="0.4" fill="url(#linear-gradient)"/>
              <path id="路径_6659" data-name="路径 6659" d="M212.04,55.609h-41.1A1.878,1.878,0,0,0,169,57.4V156.68a1.878,1.878,0,0,0,1.941,1.774h41.1a1.878,1.878,0,0,0,1.954-1.8V57.4a1.878,1.878,0,0,0-1.954-1.8Zm-33.7,71.913a.8.8,0,0,1-.832.769h-3.743a.8.8,0,0,1-.832-.769V123.9a.8.8,0,0,1,.832-.762H177.5a.8.8,0,0,1,.832.762Zm0-8.927a.8.8,0,0,1-.832.762h-3.743a.8.8,0,0,1-.832-.762v-3.618a.8.8,0,0,1,.832-.769H177.5a.8.8,0,0,1,.832.769Zm0-8.934a.8.8,0,0,1-.832.769h-3.743a.8.8,0,0,1-.832-.769v-3.618a.8.8,0,0,1,.832-.762H177.5a.8.8,0,0,1,.832.762Zm0-8.927a.8.8,0,0,1-.832.762h-3.743a.8.8,0,0,1-.832-.762V97.118a.8.8,0,0,1,.832-.769H177.5a.8.8,0,0,1,.832.769Zm0-8.934a.8.8,0,0,1-.832.769h-3.743a.8.8,0,0,1-.832-.769V88.191a.8.8,0,0,1,.832-.769H177.5a.8.8,0,0,1,.832.769Zm0-8.927a.8.8,0,0,1-.832.762h-3.743a.8.8,0,0,1-.832-.762V79.257a.8.8,0,0,1,.832-.769H177.5a.8.8,0,0,1,.832.769Zm0-8.934a.8.8,0,0,1-.832.769h-3.743a.8.8,0,0,1-.832-.769V70.33a.8.8,0,0,1,.832-.769H177.5a.8.8,0,0,1,.832.769Zm0-8.927a.8.8,0,0,1-.832.762h-3.743a.8.8,0,0,1-.832-.762v-3.59a.8.8,0,0,1,.832-.769H177.5a.8.8,0,0,1,.832.769Zm6.986,62.508a.8.8,0,0,1-.832.769h-3.708a.8.8,0,0,1-.839-.769V123.9a.8.8,0,0,1,.839-.762h3.743a.8.8,0,0,1,.832.762Zm0-8.927a.8.8,0,0,1-.832.762h-3.708a.8.8,0,0,1-.839-.762v-3.618a.8.8,0,0,1,.839-.769h3.743a.8.8,0,0,1,.832.769Zm0-8.934a.8.8,0,0,1-.832.769h-3.708a.8.8,0,0,1-.839-.769v-3.618a.8.8,0,0,1,.839-.762h3.743a.8.8,0,0,1,.832.762Zm0-8.927a.8.8,0,0,1-.832.762h-3.708a.8.8,0,0,1-.839-.762V97.118a.8.8,0,0,1,.839-.769h3.743a.8.8,0,0,1,.832.769Zm0-8.934a.8.8,0,0,1-.832.769h-3.708a.8.8,0,0,1-.839-.769V88.191a.8.8,0,0,1,.839-.769h3.743a.8.8,0,0,1,.832.769Zm0-8.927a.8.8,0,0,1-.832.762h-3.708a.8.8,0,0,1-.839-.762V79.257a.8.8,0,0,1,.839-.769h3.743a.8.8,0,0,1,.832.769Zm0-8.934a.8.8,0,0,1-.832.769h-3.708a.8.8,0,0,1-.839-.769V70.33a.8.8,0,0,1,.839-.769h3.743a.8.8,0,0,1,.832.769Zm0-8.927a.8.8,0,0,1-.832.762h-3.708a.8.8,0,0,1-.839-.762v-3.59a.8.8,0,0,1,.839-.8h3.743a.8.8,0,0,1,.832.769Zm6.986,62.508a.8.8,0,0,1-.839.769h-3.756a.8.8,0,0,1-.832-.769V123.9a.8.8,0,0,1,.832-.762h3.743a.8.8,0,0,1,.839.762Zm0-8.927a.8.8,0,0,1-.839.762h-3.756a.8.8,0,0,1-.832-.762v-3.618a.8.8,0,0,1,.832-.769h3.743a.8.8,0,0,1,.839.769Zm0-8.934a.8.8,0,0,1-.839.769h-3.756a.8.8,0,0,1-.832-.769v-3.618a.8.8,0,0,1,.832-.762h3.743a.8.8,0,0,1,.839.762Zm0-8.927a.8.8,0,0,1-.839.762h-3.756a.8.8,0,0,1-.832-.762V97.118a.8.8,0,0,1,.832-.769h3.743a.8.8,0,0,1,.839.769Zm0-8.934a.8.8,0,0,1-.839.769h-3.756a.8.8,0,0,1-.832-.769V88.191a.8.8,0,0,1,.832-.769h3.743a.8.8,0,0,1,.839.769Zm0-8.927a.8.8,0,0,1-.839.762h-3.756a.8.8,0,0,1-.832-.762V79.257a.8.8,0,0,1,.832-.769h3.743a.8.8,0,0,1,.839.769Zm0-8.934a.8.8,0,0,1-.839.769h-3.756a.8.8,0,0,1-.832-.769V70.33a.8.8,0,0,1,.832-.769h3.743a.8.8,0,0,1,.839.769Zm0-8.927a.8.8,0,0,1-.839.762h-3.756a.8.8,0,0,1-.832-.762v-3.59a.8.8,0,0,1,.832-.769h3.743a.8.8,0,0,1,.852.769Zm17.472,62.508a.8.8,0,0,1-.832.769H194.713a.8.8,0,0,1-.832-.769V123.9a.8.8,0,0,1,.832-.762h14.236a.8.8,0,0,1,.832.762Zm0-8.927a.8.8,0,0,1-.832.762H194.713a.8.8,0,0,1-.832-.762v-3.618a.8.8,0,0,1,.832-.769h14.236a.8.8,0,0,1,.832.769Zm0-8.934a.8.8,0,0,1-.832.769H194.713a.8.8,0,0,1-.832-.769v-3.618a.8.8,0,0,1,.832-.762h14.236a.8.8,0,0,1,.832.762Zm0-8.927a.8.8,0,0,1-.832.762H194.713a.8.8,0,0,1-.832-.762V97.118a.8.8,0,0,1,.832-.769h14.236a.8.8,0,0,1,.832.769Zm0-8.934a.8.8,0,0,1-.832.769H194.713a.8.8,0,0,1-.832-.769V88.191a.8.8,0,0,1,.832-.769h14.236a.8.8,0,0,1,.832.769Zm0-8.927a.8.8,0,0,1-.832.762H194.713a.8.8,0,0,1-.832-.762V79.257a.8.8,0,0,1,.832-.769h14.236a.8.8,0,0,1,.832.769Zm0-8.934a.8.8,0,0,1-.832.769H194.713a.8.8,0,0,1-.832-.769V70.33a.8.8,0,0,1,.832-.769h14.236a.8.8,0,0,1,.832.769Zm0-8.927a.8.8,0,0,1-.832.762H194.713a.8.8,0,0,1-.832-.762v-3.59a.8.8,0,0,1,.832-.769h14.236a.8.8,0,0,1,.832.769Z" transform="translate(-108.702 -28.654)" opacity="0.4" fill="url(#linear-gradient)"/>
              <path id="路径_6661" data-name="路径 6661" d="M285.4,0h-45.32A1.663,1.663,0,0,0,238.4,1.652V131.983a1.53,1.53,0,0,0,.465,1.149,1.808,1.808,0,0,0,1.212.509H285.4a1.662,1.662,0,0,0,1.67-1.658V1.652A1.662,1.662,0,0,0,285.4,0Zm-4.034,85.641a.7.7,0,0,1-.693.7H244.824a.7.7,0,0,1-.693-.7V82.312a.706.706,0,0,1,.693-.708h35.825a.706.706,0,0,1,.693.708Zm0-9.363a.706.706,0,0,1-.693.708H244.824a.706.706,0,0,1-.693-.708V72.949a.7.7,0,0,1,.693-.7h35.825a.7.7,0,0,1,.693.7Zm0-9.363a.706.706,0,0,1-.693.708H244.824a.706.706,0,0,1-.693-.708V63.593a.706.706,0,0,1,.693-.708h35.825a.706.706,0,0,1,.693.708Zm0-9.356a.7.7,0,0,1-.693.7H244.824a.7.7,0,0,1-.693-.7V54.211a.706.706,0,0,1,.693-.708h35.825a.706.706,0,0,1,.693.708Zm0-9.363a.706.706,0,0,1-.693.708H244.824a.706.706,0,0,1-.693-.708V44.868a.7.7,0,0,1,.693-.7h35.825a.7.7,0,0,1,.693.7Zm0-9.363a.706.706,0,0,1-.693.708H244.824a.706.706,0,0,1-.693-.708V35.512a.706.706,0,0,1,.693-.708h35.825a.706.706,0,0,1,.693.708Zm0-9.356a.7.7,0,0,1-.693.7H244.824a.7.7,0,0,1-.693-.7V26.149a.706.706,0,0,1,.693-.708h35.825a.706.706,0,0,1,.693.708Zm0-9.363a.706.706,0,0,1-.693.708H244.824a.706.706,0,0,1-.693-.708V16.786a.7.7,0,0,1,.693-.7h35.825a.7.7,0,0,1,.693.7Zm0-9.363a.706.706,0,0,1-.693.708H244.824a.706.706,0,0,1-.693-.708V7.43a.706.706,0,0,1,.693-.708h35.825a.706.706,0,0,1,.693.708Z" transform="translate(-130.003 0)" opacity="0.4" fill="url(#linear-gradient)"/>
              <path id="路径_6660" data-name="路径 6660" d="M136.843,26.679H83.961A1.878,1.878,0,0,0,82,28.474V147.8a1.878,1.878,0,0,0,1.961,1.774h52.882a1.878,1.878,0,0,0,1.954-1.8V28.474A1.878,1.878,0,0,0,136.843,26.679Zm-4.706,93.094a.8.8,0,0,1-.832.769h-41.8a.8.8,0,0,1-.839-.769v-3.611a.8.8,0,0,1,.839-.769h41.8a.8.8,0,0,1,.832.769Zm0-10.167a.8.8,0,0,1-.832.762h-41.8a.8.8,0,0,1-.839-.762v-3.618a.8.8,0,0,1,.839-.769h41.8a.8.8,0,0,1,.832.769Zm0-10.174a.8.8,0,0,1-.832.769h-41.8a.8.8,0,0,1-.839-.769V95.813a.8.8,0,0,1,.839-.762h41.8a.8.8,0,0,1,.832.762Zm0-10.174a.8.8,0,0,1-.832.769h-41.8a.8.8,0,0,1-.839-.769V85.646a.8.8,0,0,1,.839-.769h41.8a.8.8,0,0,1,.832.769Zm0-10.167a.8.8,0,0,1-.832.762h-41.8a.8.8,0,0,1-.839-.762V75.416a.8.8,0,0,1,.839-.769h41.8a.8.8,0,0,1,.832.769Zm0-10.174a.8.8,0,0,1-.832.769h-41.8a.8.8,0,0,1-.839-.769V65.263a.8.8,0,0,1,.839-.762h41.8a.8.8,0,0,1,.832.762Zm0-10.174a.8.8,0,0,1-.832.769h-41.8a.8.8,0,0,1-.839-.769V55.1a.8.8,0,0,1,.839-.769h41.8a.8.8,0,0,1,.832.769Zm0-10.167a.8.8,0,0,1-.832.762h-41.8a.8.8,0,0,1-.839-.762V44.921a.8.8,0,0,1,.839-.769h41.8a.8.8,0,0,1,.832.769Zm0-10.174a.8.8,0,0,1-.832.769h-41.8a.8.8,0,0,1-.839-.769V34.747a.8.8,0,0,1,.839-.762h41.8a.8.8,0,0,1,.832.762Z" transform="translate(-82 -19.774)" opacity="0.4" fill="url(#linear-gradient)"/>
            </g>
            <g id="组_8613" data-name="组 8613" transform="translate(13616.6 -14924.11)">
              <g id="组_8571" data-name="组 8571" transform="translate(0 0)">
                <path id="路径_10125" data-name="路径 10125" d="M162.7,475.863V409.726h26.48V362.1H234.4V475.863Z" transform="translate(-162.7 -362.1)" fill="#e2f2fe"/>
                <g id="组_8570" data-name="组 8570" transform="translate(3.246 7.873)">
                  <rect id="矩形_941" data-name="矩形 941" width="9.255" height="7.391" transform="translate(27.734)" fill="#fff"/>
                  <rect id="矩形_942" data-name="矩形 942" width="9.255" height="7.391" transform="translate(41.617)" fill="#fff"/>
                  <rect id="矩形_943" data-name="矩形 943" width="9.255" height="7.391" transform="translate(55.5)" fill="#fff"/>
                  <rect id="矩形_944" data-name="矩形 944" width="9.255" height="7.391" transform="translate(27.734 11.569)" fill="#fff"/>
                  <rect id="矩形_945" data-name="矩形 945" width="9.255" height="7.391" transform="translate(41.617 11.569)" fill="#fff"/>
                  <rect id="矩形_946" data-name="矩形 946" width="9.255" height="7.391" transform="translate(55.5 11.569)" fill="#fff"/>
                  <rect id="矩形_947" data-name="矩形 947" width="9.255" height="7.391" transform="translate(27.734 23.106)" fill="#fff"/>
                  <rect id="矩形_948" data-name="矩形 948" width="9.255" height="7.391" transform="translate(41.617 23.106)" fill="#fff"/>
                  <rect id="矩形_949" data-name="矩形 949" width="9.255" height="7.391" transform="translate(55.5 23.106)" fill="#fff"/>
                  <rect id="矩形_950" data-name="矩形 950" width="9.255" height="7.391" transform="translate(27.734 34.675)" fill="#fff"/>
                  <rect id="矩形_951" data-name="矩形 951" width="9.255" height="7.391" transform="translate(41.617 34.675)" fill="#fff"/>
                  <rect id="矩形_952" data-name="矩形 952" width="9.255" height="7.391" transform="translate(55.5 34.675)" fill="#fff"/>
                  <rect id="矩形_953" data-name="矩形 953" width="9.255" height="7.391" transform="translate(27.734 46.244)" fill="#fff"/>
                  <rect id="矩形_954" data-name="矩形 954" width="9.255" height="7.391" transform="translate(13.883 46.244)" fill="#fff"/>
                  <rect id="矩形_955" data-name="矩形 955" width="9.255" height="7.391" transform="translate(0 46.244)" fill="#fff"/>
                  <rect id="矩形_956" data-name="矩形 956" width="9.255" height="7.391" transform="translate(41.617 46.244)" fill="#fff"/>
                  <rect id="矩形_957" data-name="矩形 957" width="9.255" height="7.391" transform="translate(55.5 46.244)" fill="#fff"/>
                  <rect id="矩形_958" data-name="矩形 958" width="9.255" height="7.391" transform="translate(27.734 57.813)" fill="#fff"/>
                  <rect id="矩形_959" data-name="矩形 959" width="9.255" height="7.391" transform="translate(13.883 57.813)" fill="#fff"/>
                  <rect id="矩形_960" data-name="矩形 960" width="9.255" height="7.391" transform="translate(0 57.813)" fill="#fff"/>
                  <rect id="矩形_961" data-name="矩形 961" width="9.255" height="7.391" transform="translate(41.617 57.813)" fill="#fff"/>
                  <rect id="矩形_962" data-name="矩形 962" width="9.255" height="7.391" transform="translate(55.5 57.813)" fill="#fff"/>
                  <rect id="矩形_963" data-name="矩形 963" width="9.255" height="7.391" transform="translate(27.734 69.35)" fill="#fff"/>
                  <rect id="矩形_964" data-name="矩形 964" width="9.255" height="7.391" transform="translate(13.883 69.35)" fill="#fff"/>
                  <rect id="矩形_965" data-name="矩形 965" width="9.255" height="7.391" transform="translate(0 69.35)" fill="#fff"/>
                  <rect id="矩形_966" data-name="矩形 966" width="9.255" height="7.391" transform="translate(41.617 69.35)" fill="#fff"/>
                  <rect id="矩形_967" data-name="矩形 967" width="9.255" height="7.391" transform="translate(55.5 69.35)" fill="#fff"/>
                  <rect id="矩形_968" data-name="矩形 968" width="9.255" height="7.391" transform="translate(27.734 80.92)" fill="#fff"/>
                  <rect id="矩形_969" data-name="矩形 969" width="9.255" height="7.391" transform="translate(13.883 80.92)" fill="#fff"/>
                  <rect id="矩形_970" data-name="矩形 970" width="9.255" height="7.391" transform="translate(0 80.92)" fill="#fff"/>
                  <rect id="矩形_971" data-name="矩形 971" width="9.255" height="7.391" transform="translate(41.617 80.92)" fill="#fff"/>
                  <rect id="矩形_972" data-name="矩形 972" width="9.255" height="7.391" transform="translate(55.5 80.92)" fill="#fff"/>
                </g>
              </g>
              <g id="组_8573" data-name="组 8573" transform="translate(183.01 24.038)">
                <path id="路径_10126" data-name="路径 10126" d="M634.7,523.825V482.176h20.375V434.1h30.979v22.656h18.029v67.069Z" transform="translate(-634.7 -434.1)" fill="#e2f2fe"/>
                <g id="组_8572" data-name="组 8572" transform="translate(12.051 6.01)">
                  <rect id="矩形_973" data-name="矩形 973" width="9.255" height="7.391" transform="translate(12.919)" fill="#fff"/>
                  <rect id="矩形_974" data-name="矩形 974" width="9.255" height="7.391" transform="translate(25.87)" fill="#fff"/>
                  <rect id="矩形_975" data-name="矩形 975" width="9.255" height="7.391" transform="translate(12.919 46.244)" fill="#fff"/>
                  <rect id="矩形_976" data-name="矩形 976" width="9.255" height="7.391" transform="translate(0 46.244)" fill="#fff"/>
                  <rect id="矩形_977" data-name="矩形 977" width="9.255" height="7.391" transform="translate(0 57.813)" fill="#fff"/>
                  <rect id="矩形_978" data-name="矩形 978" width="9.255" height="7.391" transform="translate(25.87 46.244)" fill="#fff"/>
                  <rect id="矩形_979" data-name="矩形 979" width="9.255" height="7.391" transform="translate(12.919 11.569)" fill="#fff"/>
                  <rect id="矩形_980" data-name="矩形 980" width="9.255" height="7.391" transform="translate(25.87 11.569)" fill="#fff"/>
                  <rect id="矩形_981" data-name="矩形 981" width="9.255" height="7.391" transform="translate(12.919 23.106)" fill="#fff"/>
                  <rect id="矩形_982" data-name="矩形 982" width="9.255" height="7.391" transform="translate(25.87 23.106)" fill="#fff"/>
                  <rect id="矩形_983" data-name="矩形 983" width="9.255" height="7.391" transform="translate(38.821 23.106)" fill="#fff"/>
                  <rect id="矩形_984" data-name="矩形 984" width="9.255" height="7.391" transform="translate(38.821 34.675)" fill="#fff"/>
                  <rect id="矩形_985" data-name="矩形 985" width="9.255" height="7.391" transform="translate(38.821 46.244)" fill="#fff"/>
                  <rect id="矩形_986" data-name="矩形 986" width="9.255" height="7.391" transform="translate(38.821 57.813)" fill="#fff"/>
                  <rect id="矩形_987" data-name="矩形 987" width="9.255" height="7.391" transform="translate(12.919 34.675)" fill="#fff"/>
                  <rect id="矩形_988" data-name="矩形 988" width="9.255" height="7.391" transform="translate(25.87 34.675)" fill="#fff"/>
                  <rect id="矩形_989" data-name="矩形 989" width="9.255" height="7.391" transform="translate(12.919 57.813)" fill="#fff"/>
                  <rect id="矩形_990" data-name="矩形 990" width="9.255" height="7.391" transform="translate(25.87 57.813)" fill="#fff"/>
                </g>
              </g>
              <g id="组_8582" data-name="组 8582" transform="translate(202.452 68.433)">
                <g id="组_8581" data-name="组 8581" transform="translate(0)">
                  <g id="组_8577" data-name="组 8577" transform="translate(0)">
                    <path id="路径_10129" data-name="路径 10129" d="M712.618,590.066a7.127,7.127,0,0,0,2.057-5.977,7.418,7.418,0,0,0-4.885-5.72,5.681,5.681,0,0,0-.064-1.8,5.367,5.367,0,1,0-10.509,2.185,3.744,3.744,0,0,0,.353,1.061,7.546,7.546,0,0,0-3.117,6.941A6.635,6.635,0,0,0,697.9,590a5.2,5.2,0,0,0-2.7,4.178c0,3.374,4.5,6.106,10.027,6.106s10.027-2.732,10.027-6.106A5.135,5.135,0,0,0,712.618,590.066Z" transform="translate(-695.2 -572.244)" fill="url(#linear-gradient-5)"/>
                    <g id="组_8576" data-name="组 8576" transform="translate(9.326 13.842)">
                      <g id="组_8575" data-name="组 8575">
                        <path id="路径_10130" data-name="路径 10130" d="M724.728,638.031h0a1.478,1.478,0,0,1-.386-1.382c1.414-11.441.418-17.611-.064-19.7a1.866,1.866,0,0,1,.193-1.414h0c.289-.418.675-.225.836.45.578,2.571,1.639,9.287.129,21.242C725.339,637.839,725.018,638.224,724.728,638.031Z" transform="translate(-724.221 -615.316)" fill="#ff7f2a"/>
                      </g>
                    </g>
                  </g>
                  <g id="组_8580" data-name="组 8580" transform="translate(25.484 22.649)">
                    <path id="路径_10131" data-name="路径 10131" d="M784.4,652.9a4.127,4.127,0,0,0,1.189-3.406,4.311,4.311,0,0,0-2.8-3.278,3.717,3.717,0,0,0-.032-1.028,3.115,3.115,0,0,0-3.631-2.41,3.064,3.064,0,0,0-2.346,3.664,1.94,1.94,0,0,0,.193.611,4.229,4.229,0,0,0-1.768,3.953,3.655,3.655,0,0,0,.836,1.864,2.9,2.9,0,0,0-1.543,2.378c0,1.928,2.571,3.471,5.72,3.471s5.72-1.575,5.72-3.471A3.128,3.128,0,0,0,784.4,652.9Z" transform="translate(-774.5 -642.722)" fill="url(#linear-gradient-6)"/>
                    <g id="组_8579" data-name="组 8579" transform="translate(5.27 7.893)">
                      <g id="组_8578" data-name="组 8578">
                        <path id="路径_10132" data-name="路径 10132" d="M791.189,680.272h0a.933.933,0,0,1-.225-.8c.8-6.524.257-10.027-.032-11.248a1.109,1.109,0,0,1,.1-.8h0c.161-.257.386-.129.482.257.321,1.446.932,5.3.064,12.115C791.543,680.144,791.35,680.369,791.189,680.272Z" transform="translate(-790.9 -667.284)" fill="#ff7f2a"/>
                      </g>
                    </g>
                  </g>
                </g>
              </g>
            </g>
            <g id="组_8614" data-name="组 8614" transform="translate(13685.05 -14949.658)">
              <path id="路径_10133" data-name="路径 10133" d="M431.673,363.482H299.914a3.223,3.223,0,0,1-3.214-3.214V276.714a3.223,3.223,0,0,1,3.214-3.214H431.673a3.223,3.223,0,0,1,3.214,3.214v83.555A3.223,3.223,0,0,1,431.673,363.482Z" transform="translate(-296.7 -273.5)" fill="#dfe8ff"/>
              <path id="路径_10134" data-name="路径 10134" d="M340.92,412.56a12.879,12.879,0,0,0-18.189,0L296.7,438.59v13.465a3.223,3.223,0,0,0,3.214,3.214h76.42a12.856,12.856,0,0,0-3.631-10.926Z" transform="translate(-296.7 -365.319)" fill="#aac5ff"/>
              <circle id="椭圆_1304" data-name="椭圆 1304" cx="6.427" cy="6.427" r="6.427" transform="translate(22.207 11.955)" fill="url(#linear-gradient-7)"/>
              <path id="路径_10135" data-name="路径 10135" d="M474.144,371.2,429.41,415.9a17.938,17.938,0,0,0-5.11,10.284h93.967a3.223,3.223,0,0,0,3.214-3.214V392.991L499.692,371.2A18.039,18.039,0,0,0,474.144,371.2Z" transform="translate(-383.293 -336.206)" fill="#a0b9f1"/>
            </g>
            <path id="路径_10214" data-name="路径 10214" d="M283.951,248.65c-14.78-14.78-39.2-24.22-115.368-24.22S68.009,233.857,53.21,248.65Z" transform="translate(13589.878 -15058.098)" fill="url(#linear-gradient-8)"/>
            <g id="组_8617" data-name="组 8617" transform="translate(13592.812 -14986.988)">
              <path id="路径_6658-2" data-name="路径 6658" d="M360.584,26.679H317.2a1.878,1.878,0,0,0-1.954,1.8V147.8a1.878,1.878,0,0,0,1.954,1.8h43.38a1.885,1.885,0,0,0,1.954-1.8V28.474A1.885,1.885,0,0,0,360.584,26.679ZM324.295,110.07a.624.624,0,0,1-.658.6h-2.5a.624.624,0,0,1-.658-.6V96.4a.631.631,0,0,1,.658-.6h2.5a.631.631,0,0,1,.658.6Zm0-20.952a.631.631,0,0,1-.658.6h-2.5a.631.631,0,0,1-.658-.6v-13.7a.631.631,0,0,1,.658-.6h2.5a.631.631,0,0,1,.658.6Zm0-20.959a.631.631,0,0,1-.658.6h-2.5a.631.631,0,0,1-.658-.6V54.485a.631.631,0,0,1,.658-.6h2.5a.631.631,0,0,1,.658.6Zm0-20.959a.631.631,0,0,1-.658.6h-2.5a.631.631,0,0,1-.658-.6V33.527a.631.631,0,0,1,.658-.6h2.5a.631.631,0,0,1,.658.6ZM332.4,110.07a.624.624,0,0,1-.651.6h-2.5a.631.631,0,0,1-.658-.6V96.4a.638.638,0,0,1,.658-.6h2.5a.631.631,0,0,1,.651.6Zm0-20.952a.631.631,0,0,1-.651.6h-2.5a.638.638,0,0,1-.658-.6v-13.7a.638.638,0,0,1,.658-.6h2.5a.631.631,0,0,1,.651.6Zm0-20.959a.631.631,0,0,1-.651.6h-2.5a.638.638,0,0,1-.658-.6V54.485a.638.638,0,0,1,.658-.6h2.5a.631.631,0,0,1,.651.6Zm0-20.959a.631.631,0,0,1-.651.6h-2.5a.638.638,0,0,1-.658-.6V33.527a.638.638,0,0,1,.658-.6h2.5a.631.631,0,0,1,.651.6Zm8.109,62.869a.624.624,0,0,1-.652.6h-2.5a.624.624,0,0,1-.651-.6V96.4a.631.631,0,0,1,.651-.6h2.5a.631.631,0,0,1,.652.6Zm0-20.952a.631.631,0,0,1-.652.6h-2.5a.631.631,0,0,1-.651-.6v-13.7a.631.631,0,0,1,.651-.6h2.5a.631.631,0,0,1,.652.6Zm0-20.959a.631.631,0,0,1-.652.6h-2.5a.631.631,0,0,1-.651-.6V54.485a.631.631,0,0,1,.651-.6h2.5a.631.631,0,0,1,.652.6Zm0-20.959a.631.631,0,0,1-.652.6h-2.5a.631.631,0,0,1-.651-.6V33.527a.631.631,0,0,1,.651-.6h2.5a.631.631,0,0,1,.652.6Zm8.109,62.869a.624.624,0,0,1-.651.6h-2.5a.624.624,0,0,1-.652-.6V96.4a.631.631,0,0,1,.651-.6h2.5a.631.631,0,0,1,.651.6Zm0-20.952a.631.631,0,0,1-.652.6h-2.5a.631.631,0,0,1-.652-.6v-13.7a.631.631,0,0,1,.651-.6h2.5a.631.631,0,0,1,.651.6Zm0-20.959a.631.631,0,0,1-.652.6h-2.5a.631.631,0,0,1-.652-.6V54.485a.631.631,0,0,1,.651-.6h2.5a.631.631,0,0,1,.651.6Zm0-20.959a.631.631,0,0,1-.652.6h-2.5a.631.631,0,0,1-.652-.6V33.527a.631.631,0,0,1,.651-.6h2.5a.631.631,0,0,1,.651.6Zm8.116,62.869a.631.631,0,0,1-.658.6h-2.5a.624.624,0,0,1-.651-.6V96.4a.631.631,0,0,1,.651-.6h2.5a.638.638,0,0,1,.658.6Zm0-20.952a.638.638,0,0,1-.658.6h-2.5a.631.631,0,0,1-.651-.6v-13.7a.631.631,0,0,1,.651-.6h2.5a.638.638,0,0,1,.658.6Zm0-20.959a.638.638,0,0,1-.658.6h-2.5a.631.631,0,0,1-.651-.6V54.485a.631.631,0,0,1,.651-.6h2.5a.638.638,0,0,1,.658.6Zm0-20.959a.638.638,0,0,1-.658.6h-2.5a.631.631,0,0,1-.651-.6V33.527a.631.631,0,0,1,.651-.6h2.5a.638.638,0,0,1,.658.6Z" transform="translate(-261.986 -19.774)" opacity="0.4" fill="url(#linear-gradient)"/>
              <path id="路径_6661-2" data-name="路径 6661" d="M285.4,0h-45.32A1.663,1.663,0,0,0,238.4,1.652V131.983a1.53,1.53,0,0,0,.465,1.149,1.808,1.808,0,0,0,1.212.509H285.4a1.662,1.662,0,0,0,1.67-1.658V1.652A1.662,1.662,0,0,0,285.4,0Zm-4.034,85.641a.7.7,0,0,1-.693.7H244.824a.7.7,0,0,1-.693-.7V82.312a.706.706,0,0,1,.693-.708h35.825a.706.706,0,0,1,.693.708Zm0-9.363a.706.706,0,0,1-.693.708H244.824a.706.706,0,0,1-.693-.708V72.949a.7.7,0,0,1,.693-.7h35.825a.7.7,0,0,1,.693.7Zm0-9.363a.706.706,0,0,1-.693.708H244.824a.706.706,0,0,1-.693-.708V63.593a.706.706,0,0,1,.693-.708h35.825a.706.706,0,0,1,.693.708Zm0-9.356a.7.7,0,0,1-.693.7H244.824a.7.7,0,0,1-.693-.7V54.211a.706.706,0,0,1,.693-.708h35.825a.706.706,0,0,1,.693.708Zm0-9.363a.706.706,0,0,1-.693.708H244.824a.706.706,0,0,1-.693-.708V44.868a.7.7,0,0,1,.693-.7h35.825a.7.7,0,0,1,.693.7Zm0-9.363a.706.706,0,0,1-.693.708H244.824a.706.706,0,0,1-.693-.708V35.512a.706.706,0,0,1,.693-.708h35.825a.706.706,0,0,1,.693.708Zm0-9.356a.7.7,0,0,1-.693.7H244.824a.7.7,0,0,1-.693-.7V26.149a.706.706,0,0,1,.693-.708h35.825a.706.706,0,0,1,.693.708Zm0-9.363a.706.706,0,0,1-.693.708H244.824a.706.706,0,0,1-.693-.708V16.786a.7.7,0,0,1,.693-.7h35.825a.7.7,0,0,1,.693.7Zm0-9.363a.706.706,0,0,1-.693.708H244.824a.706.706,0,0,1-.693-.708V7.43a.706.706,0,0,1,.693-.708h35.825a.706.706,0,0,1,.693.708Z" transform="translate(-238.398 0)" opacity="0.4" fill="url(#linear-gradient)"/>
            </g>
            <g id="组_8615" data-name="组 8615" transform="translate(13712.566 -14885.982)">
              <g id="组_8584" data-name="组 8584" transform="translate(12.134 40.028)">
                <path id="路径_10136" data-name="路径 10136" d="M421.475,685.5a4.749,4.749,0,0,0,1.157,1.832,13.285,13.285,0,0,1,2.442,2.057c.225.354.032,1.093-.9,1.125-1.221.032-3.824-1.511-4.017-1.735a16.354,16.354,0,0,1-.257-2.892Z" transform="translate(-414.019 -658.827)" fill="#353535"/>
                <path id="路径_10137" data-name="路径 10137" d="M401.6,603.528l6.234,27.637a1.025,1.025,0,0,0,.707.578s1.607-.225,1.51-.353a2.787,2.787,0,0,1-.9-1.832c-.482-2.121-.675-10.123-.8-11.6s-1-3.085-1-4.274c0-1.221-.129-11.183-.129-11.183Z" transform="translate(-401.6 -602.5)" fill="#fdcaca"/>
              </g>
              <g id="组_8585" data-name="组 8585" transform="translate(1.797 40.028)">
                <path id="路径_10138" data-name="路径 10138" d="M373.119,685.5a4.749,4.749,0,0,1-1.157,1.832,13.285,13.285,0,0,0-2.442,2.057c-.225.354-.032,1.093.9,1.125,1.221.032,3.824-1.511,4.017-1.735a16.35,16.35,0,0,0,.257-2.892Z" transform="translate(-369.434 -658.827)" fill="#353535"/>
                <path id="路径_10139" data-name="路径 10139" d="M386.343,603.528l-6.234,27.637a1.025,1.025,0,0,1-.707.578s-1.607-.225-1.51-.353a2.787,2.787,0,0,0,.9-1.832c.482-2.121.675-10.123.8-11.6s1-3.085,1-4.274c0-1.221.129-11.183.129-11.183Z" transform="translate(-375.171 -602.5)" fill="#fdcaca"/>
              </g>
              <path id="路径_10140" data-name="路径 10140" d="M394.872,477.962c-1.125.129-2.571,1.639-2.957,3.5s-.1,4.049-.257,4.949-1.028,2.924-.161,4.66a4.252,4.252,0,0,0,4.146,2.378c1.607-.064,4.338-.45,4.917-3.439.386-1.96-.321-2.346-.418-3.856-.129-1.478.289-5.5-.739-6.877a1.448,1.448,0,0,0-2.153-.514A3.181,3.181,0,0,0,394.872,477.962Z" transform="translate(-382.353 -477.944)" fill="#7d1c1c"/>
              <path id="路径_10141" data-name="路径 10141" d="M384.367,573.4h9.641a11.869,11.869,0,0,1,1.382,4.467c.064,2.121.064,8.966.257,10.059s-5.27.707-6.234.739c-.932.032-6.62.643-6.62-1.285s-.032-8.163.1-9.416A34.726,34.726,0,0,1,384.367,573.4Z" transform="translate(-376.701 -542.724)" fill="#599af0"/>
              <path id="路径_10142" data-name="路径 10142" d="M396.7,486.121v4.242a3.044,3.044,0,0,0,2.989,2.314,2.6,2.6,0,0,0,2.8-2.089V485.51s.193-1.221-1.446-1.51A5.282,5.282,0,0,1,396.7,486.121Z" transform="translate(-386.141 -482.054)" fill="#fdcaca"/>
              <path id="路径_10143" data-name="路径 10143" d="M427.407,501.846v-.868a3.04,3.04,0,0,1-1.51-2.41c-.032-.932.482-.932.482-.932l-.418-2.7a.4.4,0,0,1,.289-.546c.321-.064.418.546.418.546l.482,2.41a4.6,4.6,0,0,1,.129-1.253c.161-.193.611-.289.707.128v.354a.5.5,0,0,1,.611-.386c.482.129.289.739.289.739s.257-.386.514-.225a2.563,2.563,0,0,1,0,1.9s.1,1.285-.546,1.8l.064,1.285Z" transform="translate(-405.954 -489.102)" fill="#fdcaca"/>
              <path id="路径_10144" data-name="路径 10144" d="M396.78,509.1a9.429,9.429,0,0,1-.225,2.507c-.257.386-1.414.611-2.025.611s-.675,1.767-.161,2.121a4.645,4.645,0,0,0,3.278,1.543,6.18,6.18,0,0,0,3.5-1.671s.836-1.543,0-1.928c0,0-1.7-.032-2.153-.707l-.289-2.442H396.78Z" transform="translate(-384.325 -499.088)" fill="#fdcaca"/>
              <path id="路径_10145" data-name="路径 10145" d="M373.985,516.628s1.671,2.185,3.31,2.185,2.892-2.089,2.892-2.089a3.531,3.531,0,0,1,2.185.225c.9.514,2.571,3.246,2.571,3.246l.129-4.21,1.9-.386s1.061,8.709,1.061,8.934.161,1.35-.546,1.735c-.707.354-1.639.1-2.635-.8-1-.932-2.764-4.853-3.085-4.756s-.578,3.888-.482,5.367,1,9.03,1.221,9.93a25.977,25.977,0,0,1-6.267.482,51.947,51.947,0,0,1-5.945-.193s2.507-8,2.314-10.573,0-5.174-.482-5.174-4.049,4.274-4.049,4.274-.418.418-.418.643,2.635,5.527,2.635,5.527l-1.8,1.382-4.4-6.17a1.222,1.222,0,0,1-.225-1.06c.1-.771,6.813-7.873,6.813-7.873A6.336,6.336,0,0,1,373.985,516.628Z" transform="translate(-363.844 -503.499)" fill="#ffb056"/>
              <path id="路径_10146" data-name="路径 10146" d="M380.785,563.45s.193.45.418.386.257-.611.675-.546,1.35.482,1.446.8-.321.45-.418.418c0,0,.257.45.032.611s-.643.1-.643,0,.45.386.386.578a.54.54,0,0,1-.546.289s.225.321-.1.45a1.916,1.916,0,0,1-1.671-1.221,8.1,8.1,0,0,1-.868-.8Z" transform="translate(-374.469 -535.858)" fill="#fdcaca"/>
            </g>
          </g>
        </g>
      </g>
    </g>
  </g>
</svg>
