<svg xmlns="http://www.w3.org/2000/svg" xmlns:xlink="http://www.w3.org/1999/xlink" width="256" height="256" viewBox="0 0 256 256">
  <defs>
    <linearGradient id="linear-gradient" x1="0.5" y1="1" x2="0.5" gradientUnits="objectBoundingBox">
      <stop offset="0" stop-color="#fff" stop-opacity="0"/>
      <stop offset="0.99" stop-color="#e1e5f5" stop-opacity="0.788"/>
      <stop offset="1" stop-color="#c7cce0" stop-opacity="0.8"/>
    </linearGradient>
    <linearGradient id="linear-gradient-2" x1="0.664" y1="0.932" x2="0.266" y2="-0.267" gradientUnits="objectBoundingBox">
      <stop offset="0" stop-color="#fff" stop-opacity="0"/>
      <stop offset="0.99" stop-color="#c4cdf1" stop-opacity="0.788"/>
      <stop offset="1" stop-color="#c7cce0" stop-opacity="0.8"/>
    </linearGradient>
    <linearGradient id="linear-gradient-3" y1="0.5" x2="1" y2="0.5" gradientUnits="objectBoundingBox">
      <stop offset="0" stop-color="#e7edf5"/>
      <stop offset="0.566" stop-color="#b3c7dd"/>
    </linearGradient>
    <linearGradient id="linear-gradient-4" y1="0.5" x2="1" y2="0.5" gradientUnits="objectBoundingBox">
      <stop offset="0" stop-color="#eff1fc"/>
      <stop offset="0.99" stop-color="#e1e5f5" stop-opacity="0.788"/>
      <stop offset="1" stop-color="#c7cce0" stop-opacity="0.8"/>
    </linearGradient>
    <linearGradient id="linear-gradient-5" x1="0" y1="0.5" x2="1" y2="0.5" xlink:href="#linear-gradient-3"/>
    <linearGradient id="linear-gradient-6" x1="0" y1="0.5" x2="0.999" y2="0.5" xlink:href="#linear-gradient-3"/>
    <linearGradient id="linear-gradient-7" x1="0" y1="0.5" x2="1" y2="0.5" xlink:href="#linear-gradient-3"/>
    <linearGradient id="linear-gradient-8" x1="0" y1="0.5" x2="1" y2="0.5" xlink:href="#linear-gradient-3"/>
    <linearGradient id="linear-gradient-9" x1="0" y1="0.5" x2="1" y2="0.5" xlink:href="#linear-gradient-3"/>
    <linearGradient id="linear-gradient-10" x1="0" y1="0.5" x2="1" y2="0.5" xlink:href="#linear-gradient-3"/>
    <linearGradient id="linear-gradient-11" x1="0" y1="0.5" x2="1" y2="0.5" xlink:href="#linear-gradient-3"/>
    <linearGradient id="linear-gradient-12" x1="0" y1="0.498" x2="1" y2="0.498" xlink:href="#linear-gradient-3"/>
    <linearGradient id="linear-gradient-13" x1="0" y1="0.5" x2="0.999" y2="0.5" xlink:href="#linear-gradient-3"/>
    <linearGradient id="linear-gradient-14" x1="0" y1="0.5" x2="1" y2="0.5" xlink:href="#linear-gradient-3"/>
    <linearGradient id="linear-gradient-15" x1="0" y1="0.5" x2="1" y2="0.5" xlink:href="#linear-gradient-3"/>
    <linearGradient id="linear-gradient-16" x1="0" y1="0.5" x2="1" y2="0.5" xlink:href="#linear-gradient-3"/>
    <linearGradient id="linear-gradient-17" x1="1.018" y1="0.802" x2="-0.018" y2="0.198" gradientUnits="objectBoundingBox">
      <stop offset="0" stop-color="#fff" stop-opacity="0"/>
      <stop offset="1" stop-color="#9db9e0"/>
    </linearGradient>
    <linearGradient id="linear-gradient-18" x1="0.5" x2="0.5" y2="1" gradientUnits="objectBoundingBox">
      <stop offset="0" stop-color="#e2e4ed"/>
      <stop offset="0.99" stop-color="#e1e5f5"/>
      <stop offset="1" stop-color="#c7cce0" stop-opacity="0.8"/>
    </linearGradient>
    <linearGradient id="linear-gradient-19" x1="0.36" y1="0.038" x2="0.669" y2="0.882" xlink:href="#linear-gradient-4"/>
    <linearGradient id="linear-gradient-20" x1="0.5" x2="0.5" y2="1" gradientUnits="objectBoundingBox">
      <stop offset="0" stop-color="#eff1fc"/>
      <stop offset="0.99" stop-color="#c7cce0"/>
      <stop offset="1" stop-color="#c7cce0" stop-opacity="0.8"/>
    </linearGradient>
    <clipPath id="clip-缺省_已删除">
      <rect width="256" height="256"/>
    </clipPath>
  </defs>
  <g id="缺省_已删除" data-name="缺省/已删除" clip-path="url(#clip-缺省_已删除)">
    <g id="组_6860" data-name="组 6860" transform="translate(-247 -664)">
      <g id="组_6840" data-name="组 6840">
        <g id="组_6805" data-name="组 6805" transform="translate(0 -330)">
          <rect id="矩形_434" data-name="矩形 434" width="256" height="256" transform="translate(247 994)" fill="none"/>
        </g>
        <g id="组_6839" data-name="组 6839" transform="translate(116.62 497.461)">
          <path id="路径_7522" data-name="路径 7522" d="M114.4,19.3c37.76,0,119.559,5.559,119.559,36.22s-52.374,55.517-116.98,55.517S0,86.177,0,55.517,79.984,19.3,114.4,19.3Z" transform="translate(141.4 278.553)" fill="url(#linear-gradient)"/>
          <path id="路径_7507" data-name="路径 7507" d="M608.674,622.734l-92.721,36.48-25.8-62.154h0l56.007-5.1Z" transform="translate(-238.78 -285.697)" fill="url(#linear-gradient-2)"/>
          <g id="组_6837" data-name="组 6837" transform="translate(163.054 182.539)">
            <g id="组_6822" data-name="组 6822" transform="translate(30.83 58.194)">
              <circle id="椭圆_34" data-name="椭圆 34" cx="2.652" cy="2.652" r="2.652" fill="url(#linear-gradient-3)"/>
            </g>
            <g id="组_6823" data-name="组 6823" transform="translate(168.893 86.866)">
              <circle id="椭圆_35" data-name="椭圆 35" cx="5.556" cy="5.556" r="5.556" fill="url(#linear-gradient-4)"/>
            </g>
            <g id="组_6824" data-name="组 6824" transform="translate(128.631 34.746)">
              <circle id="椭圆_36" data-name="椭圆 36" cx="2.192" cy="2.192" r="2.192" fill="url(#linear-gradient-5)"/>
            </g>
            <g id="组_6825" data-name="组 6825" transform="translate(160.524 17.693)">
              <circle id="椭圆_37" data-name="椭圆 37" cx="1.889" cy="1.889" r="1.889" fill="url(#linear-gradient-6)"/>
            </g>
            <g id="组_6826" data-name="组 6826" transform="translate(180.005 59.903)">
              <circle id="椭圆_38" data-name="椭圆 38" cx="2.611" cy="2.611" r="2.611" fill="url(#linear-gradient-7)"/>
            </g>
            <g id="组_6827" data-name="组 6827" transform="translate(142.887 133.995)">
              <circle id="椭圆_39" data-name="椭圆 39" cx="2.469" cy="2.469" r="2.469" fill="url(#linear-gradient-8)"/>
            </g>
            <g id="组_6829" data-name="组 6829" transform="translate(70.315 146.999)">
              <path id="路径_7510" data-name="路径 7510" d="M436.734,662.047a3.674,3.674,0,1,1,3.674-3.674A3.677,3.677,0,0,1,436.734,662.047Zm0-5.3a1.63,1.63,0,1,0,1.63,1.63A1.632,1.632,0,0,0,436.734,656.743Z" transform="translate(-433.06 -654.7)" fill="url(#linear-gradient-9)"/>
            </g>
            <g id="组_6830" data-name="组 6830" transform="translate(-11 70.303)">
              <path id="路径_7511" data-name="路径 7511" d="M218.278,480.309h-7.089a1.12,1.12,0,0,1-1.119-1.119h0a1.12,1.12,0,0,1,1.119-1.119h7.089a1.12,1.12,0,0,1,1.119,1.119h0A1.12,1.12,0,0,1,218.278,480.309Z" transform="translate(-210.07 -478.07)" fill="url(#linear-gradient-10)"/>
            </g>
            <g id="组_6831" data-name="组 6831" transform="translate(-7.5 66.759)">
              <path id="路径_7512" data-name="路径 7512" d="M221.17,474.994v-7a1.163,1.163,0,0,1,1.164-1.164h0a1.163,1.163,0,0,1,1.164,1.164v7a1.163,1.163,0,0,1-1.164,1.164h0A1.163,1.163,0,0,1,221.17,474.994Z" transform="translate(-221.17 -466.83)" fill="url(#linear-gradient-11)"/>
            </g>
            <g id="组_6832" data-name="组 6832" transform="translate(2.904 44.423)">
              <path id="路径_7513" data-name="路径 7513" d="M224.609,330.851h-4.6a.725.725,0,0,1-.725-.725h0a.725.725,0,0,1,.725-.725h4.6a.725.725,0,0,1,.725.725h0A.725.725,0,0,1,224.609,330.851Z" transform="translate(-219.28 -329.4)" fill="url(#linear-gradient-12)"/>
            </g>
            <g id="组_6833" data-name="组 6833" transform="translate(5.175 42.118)">
              <path id="路径_7514" data-name="路径 7514" d="M226.48,327.391v-4.544a.757.757,0,0,1,.757-.757h0a.757.757,0,0,1,.757.757v4.544a.757.757,0,0,1-.757.757h0A.757.757,0,0,1,226.48,327.391Z" transform="translate(-226.48 -322.09)" fill="url(#linear-gradient-13)"/>
            </g>
            <g id="组_6834" data-name="组 6834" transform="translate(86.494 11.228)">
              <path id="路径_7515" data-name="路径 7515" d="M490.68,267.034q-3.155-4.583-6.31-9.163.534-1.017,1.069-2.031,2.351.123,4.7.249Q490.413,261.562,490.68,267.034Z" transform="translate(-484.37 -255.84)" fill="url(#linear-gradient-14)"/>
            </g>
            <g id="组_6835" data-name="组 6835" transform="translate(81.178 17.925)">
              <path id="路径_7516" data-name="路径 7516" d="M476.8,282.964q-4.375-.8-8.747-1.611c-.18-.583-.363-1.17-.545-1.753q1.4-1.258,2.8-2.519Q473.56,280.022,476.8,282.964Z" transform="translate(-467.51 -277.08)" fill="url(#linear-gradient-15)"/>
            </g>
            <g id="组_6836" data-name="组 6836" transform="translate(94.251 12.483)">
              <path id="路径_7517" data-name="路径 7517" d="M508.97,268.305q.326-3.926.656-7.852l1.5-.634q1.234,1.126,2.466,2.248Q511.281,265.19,508.97,268.305Z" transform="translate(-508.97 -259.82)" fill="url(#linear-gradient-16)"/>
            </g>
          </g>
          <path id="路径_7518" data-name="路径 7518" d="M491.76,545.414q3.8-11.286,7.6-22.574" transform="translate(-239.882 -234.881)" fill="url(#linear-gradient-17)"/>
        </g>
      </g>
      <g id="组_6859" data-name="组 6859" transform="translate(-25.879 387.037)">
        <path id="路径_7536" data-name="路径 7536" d="M499.99,408.925l62.243,6.852,12.247-81.85-74.49-8.977Z" transform="translate(-108.788 0)" fill="#c7cce0"/>
        <path id="路径_7537" data-name="路径 7537" d="M415.123,410.241l-48.346,6.228-12.247-81.85,60.593-9.668Z" transform="translate(-23.921 0)" fill="#e2e4ed"/>
        <path id="路径_7538" data-name="路径 7538" d="M354.53,432.171l69.6,18.37V366.57l-69.6-18.37Z" transform="translate(-23.921 -13.565)" fill="url(#linear-gradient-18)"/>
        <path id="路径_7539" data-name="路径 7539" d="M587.1,430.471,521.62,449.549V364.875L587.1,346.5Z" transform="translate(-121.407 -12.573)" fill="#c7cce0"/>
        <path id="路径_7540" data-name="路径 7540" d="M600.863,375.747l-60.414,21.082L521.62,364.875,587.1,346.5Z" transform="translate(-121.407 -12.573)" fill="url(#linear-gradient-19)"/>
        <path id="路径_7541" data-name="路径 7541" d="M313.53,378.836,384.887,397.8l13.08-31.842-67.358-17.8Z" transform="translate(0 -13.542)" fill="url(#linear-gradient-20)"/>
      </g>
    </g>
  </g>
</svg>
