<svg xmlns="http://www.w3.org/2000/svg" width="25.667" height="25.666" viewBox="0 0 25.667 25.666">
  <g id="组_9508" data-name="组 9508" transform="translate(-52 -240)">
    <path id="路径_6700" data-name="路径 6700" d="M12.833,0A12.833,12.833,0,1,1,0,12.833,12.833,12.833,0,0,1,12.833,0Z" transform="translate(52 240)" fill="#edf6fe"/>
    <g id="组_6587" data-name="组 6587" transform="translate(57.287 245.5)">
      <path id="路径_7386" data-name="路径 7386" d="M283.941,360.956c-1.825,1.115-5.585-.817-6.214-3.479-.628,2.672-4.407,4.609-6.222,3.468q-.007-.142-.007-.284c0,.033,0,.065,0,.1a6.224,6.224,0,0,0,12.445.2Z" transform="translate(-270.177 -354.522)" fill="#fce9ea"/>
      <path id="路径_7387" data-name="路径 7387" d="M230.824,727.342l.071.025a3.086,3.086,0,0,1-.27.571c.445.68.334,3.656-.334,3.186l-1.165-.817-1.162-.817.076-.054-.076,0-.079,0,.076.054-1.162.817-1.165.817c-.667.471-.779-2.513-.333-3.188a3.089,3.089,0,0,1-.268-.567l.072-.026a7.22,7.22,0,0,0-4.685,4.894,13.222,13.222,0,0,0,15.093,0,7.22,7.22,0,0,0-4.688-4.892Zm-4-.4.11-.014ZM226.454,727Zm-.352.066.108-.021Zm-.34.078.007,0Zm3.96-.1.109.022Zm.777.192.113.035Zm-.343-.095.022.006Zm-4.831.128.106-.033Zm3.671-.339.111.014ZM229.357,726.981Z" transform="translate(-220.419 -714.435)" fill="#508cff"/>
      <path id="路径_7388" data-name="路径 7388" d="M399.323,726.616c.089-.134.2-.178.333-.084l1.165.818,1.086.766.079,0,.076,0,1.086-.767,1.165-.817c.134-.094.245-.05.334.087a3.084,3.084,0,0,0,.27-.571l-.071-.025q-.105-.036-.212-.069l-.113-.035q-.16-.048-.321-.089l-.022-.005q-.162-.041-.325-.075l-.109-.022q-.305-.061-.614-.1l-.111-.014q-.181-.021-.362-.035h-.711a1.221,1.221,0,0,1-.146,0h-.479q-.182.014-.363.035l-.11.014c-.084.011-.167.022-.25.035q-.184.029-.366.065l-.108.021q-.167.035-.333.077l-.007,0q-.166.043-.331.092l-.106.033q-.111.035-.221.073l-.072.026A3.086,3.086,0,0,0,399.323,726.616Z" transform="translate(-394.442 -713.115)" fill="#fff"/>
      <path id="路径_7389" data-name="路径 7389" d="M404.314,760.656l-1.165.817-1.086.767-.076.054,1.162.817,1.165.817c.668.47.78-2.506.334-3.186C404.559,760.606,404.448,760.562,404.314,760.656Zm-4.657,0c-.133-.094-.244-.05-.333.084-.447.675-.334,3.659.333,3.188l1.165-.817,1.162-.817-.076-.054-1.086-.767Z" transform="translate(-394.443 -747.239)" fill="#ffb67e"/>
      <path id="路径_7390" data-name="路径 7390" d="M277.812,246v-2.946a6.213,6.213,0,0,0-6.229,6.131c0,.094,0,.188.007.284C273.4,250.609,277.184,248.673,277.812,246Z" transform="translate(-270.262 -243.045)" fill="#acd7fe"/>
      <path id="路径_7391" data-name="路径 7391" d="M512.762,246c.629,2.662,4.389,4.594,6.214,3.479l.02-.011a6.206,6.206,0,0,0-6.234-6.414V246Z" transform="translate(-505.212 -243.046)" fill="#61b1f9"/>
    </g>
  </g>
</svg>
