<?xml version="1.0" encoding="UTF-8" standalone="no"?>
<!DOCTYPE svg PUBLIC "-//W3C//DTD SVG 1.1//EN" "http://www.w3.org/Graphics/SVG/1.1/DTD/svg11.dtd">
<svg width="100%" height="100%" viewBox="0 0 64 64" version="1.1" xmlns="http://www.w3.org/2000/svg" xmlns:xlink="http://www.w3.org/1999/xlink" xml:space="preserve" xmlns:serif="http://www.serif.com/" style="fill-rule:evenodd;clip-rule:evenodd;stroke-linejoin:round;stroke-miterlimit:2;">
    <g transform="matrix(0.0853119,0,0,0.0853333,-0.000632121,0)">
        <g id="矩形_426" transform="matrix(1,0,0,1,0.188,0)">
            <rect x="0" y="0" width="750" height="750" style="fill:none;"/>
        </g>
        <g id="路径_12278" transform="matrix(1,0,0,1,-139.065,-237.804)">
            <path d="M207.019,752.06C207.019,752.06 202.328,758.466 201.907,760.24C201.486,762.014 200.752,768.414 201.133,770.34C201.514,772.266 204.657,764.979 205.795,764.199C206.933,763.419 204.94,767.087 205.327,767.711C205.714,768.335 207.955,765.568 208.834,764.632C209.713,763.696 209.62,758.676 210.671,755.707C211.722,752.738 207.019,752.06 207.019,752.06Z" style="fill:rgb(255,178,125);fill-rule:nonzero;"/>
        </g>
        <g id="路径_12279" transform="matrix(1,0,0,1,-140.16,-329.737)">
            <path d="M207.016,986.794C207.016,986.794 202.916,991.127 203.723,994.206C204.53,997.285 208.212,999.336 208.708,1003.1C209.204,1006.86 211.208,1008.91 213,1008.91L221.567,1008.91C221.567,1008.91 222.884,1006.27 219.695,1005.45C216.506,1004.63 215.295,1000.25 215.495,996.124C215.579,992.928 215.479,989.73 215.195,986.546L208.413,984.721L207.016,986.794Z" style="fill:rgb(35,56,98);fill-rule:nonzero;"/>
        </g>
        <g id="路径_12078" transform="matrix(1,0,0,1,-0.003,107.739)">
            <path d="M720.654,571.252C677.754,571.252 52.854,571.441 52.493,570.079L52.431,569.907C52.402,569.826 52.383,569.742 52.373,569.657C52.133,568.973 -77.419,434.942 71.891,301.746C130.311,249.63 73.391,205.094 119.847,147.077C173.241,80.407 259.859,106.99 319.225,76.753C329.719,71.42 340.241,62.853 350.778,49.647C356.513,42.471 363.016,35.943 370.171,30.182C371.237,29.32 372.317,28.482 373.402,27.663C377.54,24.562 381.869,21.723 386.363,19.163C389.349,17.454 392.389,15.874 395.484,14.425C400.402,12.114 405.458,10.11 410.624,8.425C417.997,6.035 425.55,4.24 433.21,3.058C436.57,2.502 439.931,2.118 443.368,1.801C509.7,-4.228 584.353,29.736 622.9,79.377C630.657,89.388 665.926,141.109 638.122,212.184C620.567,257.07 694.109,299.938 720.242,351.22C786.659,481.507 721.254,569.556 720.654,571.252Z" style="fill:rgb(232,242,250);fill-opacity:0.38;fill-rule:nonzero;"/>
        </g>
        <g id="路径_12079" transform="matrix(1,0,0,1,-189.336,0.967)">
            <path d="M827.034,267.471L804.7,267.471L804.7,209.7L803.672,209.013L797.017,209.013L797.017,208.984L758.317,208.984L758.317,209.013L758.282,209.013L758.282,217.678L758.317,217.678L758.317,223.634L758.282,223.634L758.282,232.3L758.317,232.3L758.317,238.273L758.282,238.273L758.282,246.938L754.215,246.938L754.215,201.65L710.8,201.65L710.8,286.623L661.857,286.623L661.857,336.165L643.568,336.165L643.568,348.643L623.851,348.643L623.851,327.128L588.381,327.128L588.381,268.742L582.835,268.742L582.835,262.925L582.035,262.925L582.035,268.742L554.435,268.742L554.435,262.925L553.635,262.925L553.635,268.736L547.627,268.736L547.627,298.1L517.827,297.938L517.827,316.06L492.59,316.06L492.59,204.024L417.752,204.024L417.752,324.043L394.9,324.043L394.9,259.143L320.06,259.143L320.06,679.018L831.46,676.753L827.034,267.471Z" style="fill:white;fill-opacity:0.22;fill-rule:nonzero;"/>
        </g>
        <g id="路径_12080" transform="matrix(1,0,0,1,-161.906,-96.955)">
            <rect x="255.11" y="433.52" width="37.59" height="340.555" style="fill:rgb(223,235,250);"/>
        </g>
        <g id="矩形_2033" transform="matrix(1,0,0,1,247.67,184.498)">
            <rect x="0" y="0" width="55.585" height="18.988" style="fill:white;"/>
        </g>
        <g id="矩形_2034" transform="matrix(1,0,0,1,247.67,215.043)">
            <rect x="0" y="0" width="55.585" height="18.988" style="fill:white;"/>
        </g>
        <g id="矩形_2035" transform="matrix(1,0,0,1,247.67,246.227)">
            <rect x="0" y="0" width="55.585" height="18.988" style="fill:white;"/>
        </g>
        <g id="矩形_2036" transform="matrix(1,0,0,1,247.67,277.9)">
            <rect x="0" y="0" width="55.585" height="18.988" style="fill:white;"/>
        </g>
        <g id="矩形_2037" transform="matrix(1,0,0,1,247.67,308.462)">
            <rect x="0" y="0" width="55.585" height="18.988" style="fill:white;"/>
        </g>
        <g id="矩形_2038" transform="matrix(1,0,0,1,521.48,177.352)">
            <rect x="0" y="0" width="27.792" height="11.531" style="fill:white;"/>
        </g>
        <g id="矩形_2039" transform="matrix(1,0,0,1,521.48,200.496)">
            <rect x="0" y="0" width="27.792" height="11.531" style="fill:white;"/>
        </g>
        <g id="矩形_2040" transform="matrix(1,0,0,1,521.48,219.421)">
            <rect x="0" y="0" width="27.792" height="11.531" style="fill:white;"/>
        </g>
        <g id="矩形_2041" transform="matrix(1,0,0,1,521.48,238.649)">
            <rect x="0" y="0" width="27.792" height="11.531" style="fill:white;"/>
        </g>
        <g id="矩形_2042" transform="matrix(1,0,0,1,521.48,257.2)">
            <rect x="0" y="0" width="27.792" height="11.531" style="fill:white;"/>
        </g>
        <g id="矩形_2043" transform="matrix(1,0,0,1,521.48,277.617)">
            <rect x="0" y="0" width="27.792" height="11.531" style="fill:white;"/>
        </g>
        <g id="矩形_2044" transform="matrix(1,0,0,1,521.48,296.155)">
            <rect x="0" y="0" width="27.792" height="11.531" style="fill:white;"/>
        </g>
        <g id="矩形_2045" transform="matrix(1,0,0,1,521.48,315.082)">
            <rect x="0" y="0" width="27.792" height="11.531" style="fill:rgb(238,246,255);"/>
        </g>
        <g id="矩形_2046" transform="matrix(1,0,0,1,521.48,334.309)">
            <rect x="0" y="0" width="27.792" height="11.531" style="fill:rgb(238,246,255);"/>
        </g>
        <g id="矩形_2047" transform="matrix(1,0,0,1,521.48,352.86)">
            <rect x="0" y="0" width="27.792" height="11.531" style="fill:rgb(238,246,255);"/>
        </g>
        <g id="矩形_2048" transform="matrix(1,0,0,1,569.052,189.853)">
            <rect x="0" y="0" width="27.792" height="11.531" style="fill:white;"/>
        </g>
        <g id="矩形_2049" transform="matrix(1,0,0,1,569.052,208.393)">
            <rect x="0" y="0" width="27.792" height="11.531" style="fill:white;"/>
        </g>
        <g id="矩形_2050" transform="matrix(1,0,0,1,569.052,227.319)">
            <rect x="0" y="0" width="27.792" height="11.531" style="fill:white;"/>
        </g>
        <g id="矩形_2051" transform="matrix(1,0,0,1,569.052,246.546)">
            <rect x="0" y="0" width="27.792" height="11.531" style="fill:white;"/>
        </g>
        <g id="矩形_2052" transform="matrix(1,0,0,1,569.052,265.098)">
            <rect x="0" y="0" width="27.792" height="11.531" style="fill:white;"/>
        </g>
        <g id="矩形_2053" transform="matrix(1,0,0,1,569.052,284.439)">
            <rect x="0" y="0" width="27.792" height="11.531" style="fill:white;"/>
        </g>
        <g id="矩形_2054" transform="matrix(1,0,0,1,569.052,302.979)">
            <rect x="0" y="0" width="27.792" height="11.531" style="fill:white;"/>
        </g>
        <g id="矩形_2055" transform="matrix(1,0,0,1,569.052,321.904)">
            <rect x="0" y="0" width="27.792" height="11.531" style="fill:white;"/>
        </g>
        <g id="矩形_2056" transform="matrix(1,0,0,1,569.052,341.126)">
            <rect x="0" y="0" width="27.792" height="11.531" style="fill:white;"/>
        </g>
        <g id="矩形_2057" transform="matrix(1,0,0,1,569.052,359.678)">
            <rect x="0" y="0" width="27.792" height="11.531" style="fill:white;"/>
        </g>
        <g id="矩形_2058" transform="matrix(1,0,0,1,569.052,380.956)">
            <rect x="0" y="0" width="27.792" height="11.531" style="fill:white;"/>
        </g>
        <g id="矩形_2059" transform="matrix(1,0,0,1,569.052,399.496)">
            <rect x="0" y="0" width="27.792" height="11.531" style="fill:white;"/>
        </g>
        <g id="矩形_2060" transform="matrix(1,0,0,1,569.052,418.421)">
            <rect x="0" y="0" width="27.792" height="11.531" style="fill:white;"/>
        </g>
        <g id="矩形_2061" transform="matrix(1,0,0,1,569.052,437.649)">
            <rect x="0" y="0" width="27.792" height="11.531" style="fill:rgb(238,246,255);"/>
        </g>
        <g id="矩形_2062" transform="matrix(1,0,0,1,569.052,456.2)">
            <rect x="0" y="0" width="27.792" height="11.531" style="fill:rgb(238,246,255);"/>
        </g>
        <g id="矩形_2063" transform="matrix(1,0,0,1,481.637,246.704)">
            <rect x="0" y="0" width="1.381" height="23.529" style="fill:rgb(223,235,250);"/>
        </g>
        <g id="矩形_2064" transform="matrix(1,0,0,1,504.872,225.852)">
            <rect x="0" y="0" width="2.143" height="45.568" style="fill:rgb(223,235,250);"/>
        </g>
        <g id="矩形_2065" transform="matrix(1,0,0,1,233.384,171.338)">
            <rect x="0" y="0" width="0.895" height="8.388" style="fill:rgb(223,235,250);"/>
        </g>
        <g id="矩形_2066" transform="matrix(1,0,0,1,252.332,171.338)">
            <rect x="0" y="0" width="0.895" height="8.388" style="fill:rgb(223,235,250);"/>
        </g>
        <g id="矩形_2067" transform="matrix(1,0,0,1,295.762,171.338)">
            <rect x="0" y="0" width="0.895" height="8.388" style="fill:rgb(223,235,250);"/>
        </g>
        <g id="矩形_2068" transform="matrix(1,0,0,1,525.784,170.876)">
            <rect x="0" y="0" width="0.687" height="6.476" style="fill:rgb(223,235,250);"/>
        </g>
        <g id="矩形_2069" transform="matrix(1,0,0,1,558.382,170.876)">
            <rect x="0" y="0" width="0.687" height="6.476" style="fill:rgb(223,235,250);"/>
        </g>
        <g id="矩形_2070" transform="matrix(1,0,0,1,278.784,171.338)">
            <rect x="0" y="0" width="0.895" height="8.388" style="fill:rgb(223,235,250);"/>
        </g>
        <g id="路径_12081" transform="matrix(1,0,0,1,-337.54,-53.818)">
            <path d="M797.451,306.7C789.851,284.7 757.533,296.3 757.533,296.3C757.533,296.3 739.105,339.106 732.693,340.943C726.281,342.78 742.293,300.777 742.293,300.777C729.503,301.072 699.093,323.439 699.093,323.439C699.093,323.439 705.811,369.539 699.185,369.486C692.559,369.433 695.031,328.303 695.031,328.303C683.223,334.23 673.472,352.346 673.472,352.346C661.918,381.265 694.517,396.983 694.517,396.983C694.517,396.983 696.55,413.025 689.849,432.643C688.586,435.796 687.591,439.051 686.874,442.371L690.213,441.92C690.381,440.84 690.577,439.8 690.791,438.789L690.791,438.743C690.958,438.113 691.201,437.218 691.507,436.126C692.293,433.671 692.813,431.868 693.119,430.574C695.43,422.891 698.896,412.822 701.619,410.436C701.252,409.916 700.95,409.354 700.719,408.761C701.008,409.292 701.297,409.853 701.619,410.436C708.765,423.861 737.557,422.348 753.085,416.398C768.613,410.448 761.173,406.19 751.733,398.898C742.293,391.606 724.582,396.281 718.949,393.698C713.316,391.115 720.728,386.737 731.433,386.246C742.138,385.755 748.671,397.348 766,396.915C783.329,396.482 792.573,357.315 792.573,357.315C781.173,363.178 759.2,358.47 757.912,353.849C756.624,349.228 788.125,345.392 792.891,343.306C797.657,341.22 805.047,328.7 797.451,306.7Z" style="fill:rgb(175,205,251);fill-rule:nonzero;"/>
        </g>
        <g id="路径_12082" transform="matrix(1,0,0,1,-467.837,-251.984)">
            <path d="M1148.43,824.011C1142.93,794.659 1100.43,801.239 1100.43,801.239C1100.43,801.239 1069.63,850.239 1061.25,850.96C1052.88,851.681 1080.54,803.099 1080.54,803.099C1064.5,800.343 1022.43,820.863 1022.43,820.863C1022.43,820.863 1022.43,880.133 1014.19,878.441C1005.95,876.749 1016.5,825.959 1016.5,825.959C1000.67,830.477 985.191,850.73 985.191,850.73C965.498,884.051 1003.39,911.675 1003.39,911.675C1003.09,917.568 1002.21,923.417 1000.76,929.138C1000.54,930.057 1000.31,930.998 1000.04,931.969L1007.89,931.969C1008.46,931.285 1009.13,930.688 1009.88,930.196C1010.09,930.8 1010.34,931.392 1010.61,931.969L1078.25,931.969C1077.42,931.056 1076.52,930.12 1075.63,929.138L1074.61,928.029C1064.16,916.62 1041.16,918.122 1034.59,913.5C1028.01,908.878 1038.05,905.239 1051.54,907.232C1065.02,909.225 1071.08,925.313 1092.81,929.011C1093.14,929.069 1093.47,929.111 1093.81,929.138C1094.81,929.239 1095.81,929.239 1096.81,929.138C1116.79,927.093 1133.26,886.026 1133.26,886.026C1117.94,890.567 1091.33,879.326 1090.55,873.236C1089.77,867.146 1129.78,870.093 1136.1,868.649C1142.42,867.205 1153.93,853.369 1148.43,824.011ZM1009.84,930.189C1009.66,929.851 1009.51,929.5 1009.4,929.138C1009.28,928.803 1009.15,928.375 1009.03,927.879C1009.17,928.289 1009.32,928.711 1009.47,929.138L1009.84,930.189Z" style="fill:url(#_Linear1);fill-rule:nonzero;"/>
        </g>
        <g id="路径_12083" transform="matrix(1,0,0,1,-104.088,-94.166)">
            <path d="M119.663,411.422C124.463,390.048 155.549,396.339 155.549,396.339C155.549,396.339 176.923,433.432 183.076,434.252C189.229,435.072 170.123,398.4 170.123,398.4C181.989,396.927 212.392,413.472 212.392,413.472C212.392,413.472 210.85,457.052 216.973,456.093C223.096,455.134 216.644,417.423 216.644,417.423C228.169,421.293 239.029,436.723 239.029,436.723C252.651,461.904 224.079,480.904 224.079,480.904C224.429,492.124 227.133,503.146 232.016,513.254C233.504,516.009 234.755,518.886 235.754,521.854L232.623,521.889C232.357,520.919 232.045,519.977 231.745,519.076C231.742,519.064 231.742,519.053 231.745,519.041C231.525,518.463 231.208,517.683 230.815,516.73C229.844,514.564 229.18,512.969 228.764,511.814C225.841,505.02 221.63,496.176 218.864,494.345C219.147,493.814 219.366,493.252 219.517,492.67L218.864,494.345C213.613,507.745 186.814,510.272 171.846,506.886C156.878,503.5 163.346,498.538 171.32,490.509C179.294,482.48 196.16,484.38 201.12,481.214C206.08,478.048 198.769,475.014 188.82,476.014C178.871,477.014 173.985,488.631 157.908,490.589C141.831,492.547 129.278,457.58 129.278,457.58C140.421,461.456 160.278,454.114 161.01,449.66C161.742,445.206 132.247,445.992 127.637,444.709C123.027,443.426 114.868,432.813 119.663,411.422Z" style="fill:rgb(80,140,255);fill-opacity:0.68;fill-rule:nonzero;"/>
        </g>
        <g id="路径_12085" transform="matrix(1,0,0,1,-155.077,-99.89)">
            <path d="M683.31,770.581L315.327,776.935C312.485,776.987 309.983,774.763 309.284,771.568L239.13,451.174C238.148,446.685 241.065,442.312 245.057,442.295L614.005,440.47C616.824,440.47 619.291,442.67 619.984,445.837L689.167,761.73C690.144,766.161 687.255,770.511 683.31,770.581Z" style="fill:rgb(22,43,76);fill-rule:nonzero;"/>
        </g>
        <g id="路径_12086" transform="matrix(1,0,0,1,-160.259,-99.873)">
            <path d="M691.507,770.489L327.816,772.289C323.824,772.289 318.203,775.258 317.221,770.77L251.481,454.8C250.089,448.445 254.219,442.258 259.869,442.23L623.56,440.43C627.552,440.43 631.07,443.544 632.023,448.03L699.89,757.907C701.282,764.261 697.157,770.46 691.507,770.489Z" style="fill:rgb(35,56,98);fill-rule:nonzero;"/>
        </g>
        <g id="路径_12087" transform="matrix(1,0,0,1,-165.859,-104.325)">
            <path d="M690.984,763.011L552.384,763.693L494.038,763.982L335.453,764.756C333.45,764.652 331.776,763.153 331.453,761.174L269.773,482.119L264.603,458.694C263.933,455.684 265.885,452.755 268.566,452.738L617.151,451L624.083,450.965C626.087,451.071 627.76,452.572 628.083,454.552L634.166,482.09L649.89,553.243L663.853,616.424L694.927,757.024C695.612,760.047 693.659,762.993 690.984,763.011Z" style="fill:white;fill-rule:nonzero;"/>
        </g>
        <g id="路径_12088" transform="matrix(1,0,0,1,-165.859,-105.206)">
            <path d="M634.187,482.119L269.773,482.119L264.603,458.694C263.933,455.684 265.885,452.755 268.566,452.738L617.151,451L624.083,450.965C626.087,451.071 627.76,452.572 628.083,454.552L634.187,482.119Z" style="fill:rgb(207,227,255);fill-rule:nonzero;"/>
        </g>
        <g id="路径_12098" transform="matrix(1,0,0,1,-339.391,51.597)">
            <path d="M675.418,22.685C675.488,22.257 675.862,21.939 676.296,21.939C676.38,21.939 676.464,21.951 676.544,21.974C677.034,22.203 677.282,22.764 677.122,23.28C677.048,23.698 676.682,24.005 676.257,24.005C676.171,24.005 676.084,23.992 676.001,23.967C675.517,23.745 675.267,23.196 675.418,22.685Z" style="fill:rgb(213,229,251);fill-rule:nonzero;"/>
        </g>
        <g id="路径_12099" transform="matrix(1,0,0,1,-342.294,50.548)">
            <path d="M682.3,25.15C682.376,24.732 682.744,24.425 683.17,24.425C683.256,24.425 683.343,24.438 683.426,24.463C683.916,24.691 684.163,25.253 684,25.768C683.927,26.19 683.557,26.502 683.129,26.502C683.032,26.502 682.936,26.486 682.845,26.455C682.364,26.218 682.129,25.658 682.296,25.149L682.3,25.15Z" style="fill:rgb(213,229,251);fill-rule:nonzero;"/>
        </g>
        <g id="路径_12100" transform="matrix(1,0,0,1,-345.256,49.483)">
            <path d="M689.89,28.958C689.396,28.733 689.146,28.168 689.312,27.652C689.396,27.242 689.76,26.945 690.178,26.945C690.257,26.945 690.336,26.955 690.412,26.976C690.906,27.201 691.156,27.766 690.99,28.282C690.91,28.692 690.547,28.991 690.128,28.991C690.048,28.991 689.968,28.98 689.89,28.958Z" style="fill:rgb(213,229,251);fill-rule:nonzero;"/>
        </g>
        <g id="路径_12101" transform="matrix(1,0,0,1,-348.191,48.45)">
            <path d="M696.257,30.13C696.331,29.705 696.703,29.392 697.134,29.392C697.228,29.392 697.322,29.407 697.412,29.437C697.904,29.664 698.153,30.227 697.99,30.743C697.914,31.161 697.546,31.468 697.12,31.468C697.034,31.468 696.947,31.455 696.864,31.43C696.364,31.214 696.101,30.652 696.257,30.13Z" style="fill:rgb(213,229,251);fill-rule:nonzero;"/>
        </g>
        <g id="路径_12102" transform="matrix(1,0,0,1,-351.097,47.404)">
            <path d="M703.143,32.591C703.22,32.173 703.588,31.867 704.012,31.867C704.098,31.867 704.182,31.88 704.264,31.904C704.759,32.127 705.01,32.694 704.842,33.21C704.765,33.628 704.397,33.934 703.973,33.934C703.887,33.934 703.803,33.921 703.721,33.897C703.229,33.67 702.98,33.107 703.143,32.591Z" style="fill:rgb(213,229,251);fill-rule:nonzero;"/>
        </g>
        <g id="路径_12103" transform="matrix(1,0,0,1,-354.054,46.359)">
            <path d="M710.721,36.38C710.229,36.153 709.98,35.59 710.143,35.074C710.219,34.652 710.59,34.342 711.019,34.342C711.114,34.342 711.208,34.357 711.298,34.387C711.79,34.614 712.039,35.177 711.876,35.693C711.803,36.115 711.433,36.427 711.005,36.427C710.908,36.427 710.812,36.411 710.721,36.38Z" style="fill:rgb(213,229,251);fill-rule:nonzero;"/>
        </g>
        <g id="路径_12104" transform="matrix(1,0,0,1,-356.869,45.348)">
            <path d="M716.812,37.466C716.886,37.045 717.255,36.735 717.683,36.735C717.77,36.735 717.856,36.748 717.939,36.773C718.431,37 718.68,37.563 718.517,38.079C718.444,38.501 718.074,38.813 717.646,38.813C717.549,38.813 717.453,38.797 717.362,38.766C716.884,38.53 716.649,37.973 716.813,37.466L716.812,37.466Z" style="fill:rgb(213,229,251);fill-rule:nonzero;"/>
        </g>
        <g id="路径_12105" transform="matrix(1,0,0,1,-359.779,44.306)">
            <path d="M723.7,39.93C723.774,39.512 724.14,39.205 724.565,39.205C724.651,39.205 724.738,39.218 724.821,39.243C725.315,39.468 725.565,40.033 725.399,40.549C725.322,40.967 724.954,41.273 724.53,41.273C724.444,41.273 724.36,41.26 724.278,41.236C723.784,41.011 723.534,40.446 723.7,39.93Z" style="fill:rgb(213,229,251);fill-rule:nonzero;"/>
        </g>
        <g id="路径_12106" transform="matrix(1,0,0,1,-362.737,43.253)">
            <path d="M731.281,43.726C730.789,43.499 730.54,42.936 730.703,42.42C730.782,42.002 731.151,41.696 731.576,41.696C731.662,41.696 731.747,41.709 731.829,41.733C732.321,41.96 732.57,42.523 732.407,43.039C732.331,43.457 731.963,43.764 731.537,43.764C731.451,43.764 731.364,43.751 731.281,43.726Z" style="fill:rgb(213,229,251);fill-rule:nonzero;"/>
        </g>
        <g id="路径_12107" transform="matrix(1,0,0,1,-365.672,42.203)">
            <path d="M737.653,44.91C737.729,44.492 738.097,44.185 738.523,44.185C738.609,44.185 738.696,44.198 738.779,44.223C739.271,44.45 739.52,45.013 739.357,45.529C739.281,45.947 738.913,46.254 738.487,46.254C738.401,46.254 738.314,46.241 738.231,46.216C737.739,45.989 737.49,45.426 737.653,44.91Z" style="fill:rgb(213,229,251);fill-rule:nonzero;"/>
        </g>
        <g id="路径_12108" transform="matrix(1,0,0,1,-368.58,41.164)">
            <path d="M744.542,47.37C744.616,46.952 744.982,46.645 745.407,46.645C745.493,46.645 745.58,46.658 745.663,46.683C746.155,46.91 746.404,47.473 746.241,47.989C746.164,48.407 745.796,48.713 745.372,48.713C745.286,48.713 745.202,48.7 745.12,48.676C744.625,48.453 744.374,47.886 744.542,47.37Z" style="fill:rgb(213,229,251);fill-rule:nonzero;"/>
        </g>
        <g id="路径_12109" transform="matrix(1,0,0,1,-371.538,40.119)">
            <path d="M752.121,51.159C751.629,50.932 751.38,50.369 751.543,49.853C751.616,49.431 751.986,49.119 752.414,49.119C752.511,49.119 752.607,49.135 752.698,49.166C753.19,49.393 753.439,49.956 753.276,50.472C753.2,50.894 752.829,51.204 752.4,51.204C752.305,51.204 752.211,51.189 752.121,51.159Z" style="fill:rgb(213,229,251);fill-rule:nonzero;"/>
        </g>
        <g id="路径_12110" transform="matrix(1,0,0,1,-374.48,39.059)">
            <path d="M758.513,52.357C758.588,51.937 758.957,51.628 759.383,51.628C759.468,51.628 759.553,51.64 759.634,51.664C760.124,51.893 760.372,52.454 760.212,52.97C760.137,53.39 759.768,53.699 759.342,53.699C759.257,53.699 759.172,53.687 759.091,53.663C758.597,53.438 758.347,52.873 758.513,52.357Z" style="fill:rgb(213,229,251);fill-rule:nonzero;"/>
        </g>
        <g id="路径_12111" transform="matrix(1,0,0,1,-377.39,38.028)">
            <path d="M765.4,54.809C765.47,54.384 765.841,54.07 766.272,54.07C766.368,54.07 766.464,54.085 766.555,54.116C767.045,54.345 767.293,54.906 767.133,55.422C767.05,55.843 766.678,56.149 766.25,56.149C766.167,56.149 766.085,56.137 766.006,56.115C765.505,55.897 765.243,55.333 765.399,54.809L765.4,54.809Z" style="fill:rgb(213,229,251);fill-rule:nonzero;"/>
        </g>
        <g id="路径_12112" transform="matrix(1,0,0,1,-380.347,36.969)">
            <path d="M772.981,58.612C772.489,58.385 772.24,57.822 772.403,57.306C772.478,56.886 772.847,56.577 773.273,56.577C773.358,56.577 773.443,56.589 773.524,56.613C774.016,56.84 774.265,57.403 774.102,57.919C774.027,58.339 773.658,58.648 773.232,58.648C773.147,58.648 773.062,58.636 772.981,58.612Z" style="fill:rgb(213,229,251);fill-rule:nonzero;"/>
        </g>
        <g id="路径_12113" transform="matrix(1,0,0,1,-383.279,35.922)">
            <path d="M779.344,59.792C779.424,59.368 779.797,59.058 780.229,59.058C780.321,59.058 780.412,59.072 780.5,59.1C780.99,59.329 781.238,59.89 781.078,60.406C781.008,60.831 780.637,61.145 780.206,61.145C780.11,61.145 780.014,61.13 779.923,61.099C779.433,60.87 779.185,60.309 779.345,59.793L779.344,59.792Z" style="fill:rgb(213,229,251);fill-rule:nonzero;"/>
        </g>
        <g id="路径_12114" transform="matrix(1,0,0,1,-386.186,34.878)">
            <path d="M786.231,62.257C786.306,61.837 786.675,61.528 787.101,61.528C787.186,61.528 787.271,61.54 787.352,61.564C787.842,61.793 788.09,62.354 787.93,62.87C787.851,63.294 787.477,63.605 787.045,63.605C786.954,63.605 786.862,63.591 786.775,63.563C786.298,63.323 786.066,62.765 786.231,62.257Z" style="fill:rgb(213,229,251);fill-rule:nonzero;"/>
        </g>
        <g id="路径_12115" transform="matrix(1,0,0,1,-389.148,33.826)">
            <path d="M793.82,66.052C793.327,65.827 793.077,65.262 793.242,64.746C793.317,64.326 793.686,64.017 794.112,64.017C794.197,64.017 794.282,64.029 794.363,64.053C794.853,64.282 795.101,64.843 794.941,65.359C794.866,65.779 794.497,66.088 794.071,66.088C793.986,66.088 793.901,66.076 793.82,66.052Z" style="fill:rgb(213,229,251);fill-rule:nonzero;"/>
        </g>
        <g id="路径_12116" transform="matrix(1,0,0,1,-391.962,32.816)">
            <path d="M799.9,67.138C799.983,66.717 800.355,66.411 800.783,66.411C800.866,66.411 800.948,66.423 801.027,66.445C801.517,66.674 801.765,67.235 801.605,67.751C801.531,68.172 801.162,68.482 800.734,68.482C800.648,68.482 800.562,68.469 800.479,68.444C799.989,68.216 799.74,67.654 799.9,67.138Z" style="fill:rgb(213,229,251);fill-rule:nonzero;"/>
        </g>
        <g id="路径_12117" transform="matrix(1,0,0,1,-394.872,31.779)">
            <path d="M806.794,69.6C806.869,69.18 807.238,68.871 807.664,68.871C807.749,68.871 807.834,68.883 807.915,68.907C808.409,69.132 808.659,69.697 808.493,70.213C808.419,70.631 808.053,70.938 807.628,70.938C807.542,70.938 807.455,70.925 807.372,70.9C806.883,70.674 806.634,70.115 806.794,69.6Z" style="fill:rgb(213,229,251);fill-rule:nonzero;"/>
        </g>
        <g id="路径_12118" transform="matrix(1,0,0,1,-397.828,30.733)">
            <path d="M814.372,73.386C813.882,73.157 813.634,72.596 813.794,72.08C813.868,71.655 814.24,71.342 814.671,71.342C814.765,71.342 814.859,71.357 814.949,71.387C815.439,71.616 815.687,72.177 815.527,72.693C815.453,73.118 815.081,73.431 814.65,73.431C814.556,73.431 814.462,73.416 814.372,73.386Z" style="fill:rgb(213,229,251);fill-rule:nonzero;"/>
        </g>
        <g id="路径_12119" transform="matrix(1,0,0,1,-400.763,29.683)">
            <path d="M820.744,74.569C820.814,74.144 821.185,73.83 821.616,73.83C821.712,73.83 821.808,73.845 821.899,73.876C822.389,74.105 822.637,74.666 822.477,75.182C822.398,75.606 822.024,75.917 821.592,75.917C821.501,75.917 821.409,75.903 821.322,75.875C820.832,75.646 820.584,75.085 820.744,74.569Z" style="fill:rgb(213,229,251);fill-rule:nonzero;"/>
        </g>
        <g id="路径_12120" transform="matrix(1,0,0,1,-403.671,28.636)">
            <path d="M827.633,77.037C827.708,76.617 828.077,76.308 828.503,76.308C828.588,76.308 828.673,76.32 828.754,76.344C829.244,76.573 829.492,77.134 829.332,77.65C829.258,78.068 828.892,78.375 828.467,78.375C828.381,78.375 828.294,78.362 828.211,78.337C827.718,78.114 827.468,77.552 827.633,77.037Z" style="fill:rgb(213,229,251);fill-rule:nonzero;"/>
        </g>
        <g id="路径_12121" transform="matrix(1,0,0,1,-406.629,27.592)">
            <path d="M835.212,80.819C834.723,80.593 834.474,80.034 834.634,79.519C834.704,79.094 835.075,78.78 835.506,78.78C835.602,78.78 835.698,78.795 835.789,78.826C836.279,79.055 836.527,79.616 836.367,80.132C836.294,80.554 835.924,80.866 835.496,80.866C835.399,80.866 835.303,80.85 835.212,80.819Z" style="fill:rgb(213,229,251);fill-rule:nonzero;"/>
        </g>
        <g id="路径_12122" transform="matrix(1,0,0,1,-375.899,-12.837)">
            <path d="M762.19,176.393C761.785,176.02 761.701,175.406 761.99,174.937C762.134,174.674 762.41,174.51 762.71,174.51C762.908,174.51 763.1,174.582 763.249,174.712C763.651,175.088 763.732,175.701 763.44,176.168C763.298,176.431 763.022,176.595 762.723,176.595C762.526,176.595 762.335,176.523 762.186,176.393L762.19,176.393Z" style="fill:rgb(213,229,251);fill-rule:nonzero;"/>
        </g>
        <g id="路径_12123" transform="matrix(1,0,0,1,-377.695,-9.978)">
            <path d="M766.441,169.624C766.036,169.247 765.955,168.63 766.25,168.162C766.396,167.903 766.672,167.742 766.969,167.742C767.167,167.742 767.359,167.814 767.509,167.943C767.911,168.319 767.992,168.932 767.7,169.399C767.554,169.66 767.278,169.823 766.979,169.823C766.781,169.823 766.591,169.752 766.441,169.624Z" style="fill:rgb(213,229,251);fill-rule:nonzero;"/>
        </g>
        <g id="路径_12124" transform="matrix(1,0,0,1,-379.516,-7.104)">
            <path d="M772.012,162.6C771.868,162.861 771.592,163.024 771.294,163.024C771.097,163.024 770.907,162.954 770.758,162.825C770.35,162.451 770.265,161.833 770.558,161.363C770.704,161.102 770.98,160.939 771.279,160.939C771.477,160.939 771.667,161.01 771.817,161.138C772.224,161.513 772.306,162.131 772.012,162.6Z" style="fill:rgb(213,229,251);fill-rule:nonzero;"/>
        </g>
        <g id="路径_12125" transform="matrix(1,0,0,1,-381.339,-4.219)">
            <path d="M775.071,155.992C774.666,155.615 774.585,154.998 774.88,154.53C775.024,154.269 775.3,154.106 775.598,154.106C775.795,154.106 775.985,154.176 776.134,154.305C776.542,154.679 776.627,155.297 776.334,155.767C776.188,156.028 775.912,156.191 775.613,156.191C775.415,156.191 775.225,156.12 775.075,155.992L775.071,155.992Z" style="fill:rgb(213,229,251);fill-rule:nonzero;"/>
        </g>
        <g id="路径_12126" transform="matrix(1,0,0,1,-383.137,-1.371)">
            <path d="M779.33,149.243C778.925,148.87 778.841,148.256 779.13,147.787C779.274,147.524 779.55,147.36 779.85,147.36C780.048,147.36 780.24,147.432 780.389,147.562C780.791,147.938 780.872,148.551 780.58,149.018C780.438,149.281 780.162,149.445 779.863,149.445C779.666,149.445 779.475,149.373 779.326,149.243L779.33,149.243Z" style="fill:rgb(213,229,251);fill-rule:nonzero;"/>
        </g>
        <g id="路径_12127" transform="matrix(1,0,0,1,-384.96,1.514)">
            <path d="M784.9,142.188C784.756,142.451 784.48,142.615 784.18,142.615C783.982,142.615 783.79,142.543 783.641,142.413C783.239,142.037 783.158,141.424 783.45,140.957C783.592,140.694 783.868,140.529 784.166,140.529C784.364,140.529 784.555,140.601 784.704,140.732C785.109,141.105 785.193,141.719 784.904,142.188L784.9,142.188Z" style="fill:rgb(213,229,251);fill-rule:nonzero;"/>
        </g>
        <g id="路径_12128" transform="matrix(1,0,0,1,-386.786,4.407)">
            <path d="M787.97,135.563C787.565,135.19 787.481,134.576 787.77,134.107C787.914,133.844 788.19,133.68 788.49,133.68C788.688,133.68 788.88,133.752 789.029,133.882C789.431,134.258 789.512,134.871 789.22,135.338C789.078,135.601 788.802,135.765 788.503,135.765C788.306,135.765 788.115,135.693 787.966,135.563L787.97,135.563Z" style="fill:rgb(213,229,251);fill-rule:nonzero;"/>
        </g>
        <g id="路径_12129" transform="matrix(1,0,0,1,-388.582,7.255)">
            <path d="M792.221,128.822C791.816,128.445 791.735,127.828 792.03,127.36C792.174,127.099 792.45,126.936 792.748,126.936C792.945,126.936 793.135,127.006 793.284,127.135C793.692,127.509 793.777,128.127 793.484,128.597C793.338,128.858 793.062,129.021 792.763,129.021C792.565,129.021 792.375,128.95 792.225,128.822L792.221,128.822Z" style="fill:rgb(213,229,251);fill-rule:nonzero;"/>
        </g>
        <g id="路径_12130" transform="matrix(1,0,0,1,-390.412,10.131)">
            <path d="M797.812,121.786C797.668,122.047 797.392,122.21 797.094,122.21C796.897,122.21 796.707,122.14 796.558,122.011C796.15,121.637 796.065,121.019 796.358,120.549C796.504,120.288 796.78,120.125 797.079,120.125C797.277,120.125 797.467,120.196 797.617,120.324C798.024,120.699 798.106,121.317 797.812,121.786Z" style="fill:rgb(213,229,251);fill-rule:nonzero;"/>
        </g>
        <g id="路径_12131" transform="matrix(1,0,0,1,-392.226,13.026)">
            <path d="M800.85,115.153C800.445,114.78 800.361,114.166 800.65,113.697C800.794,113.434 801.07,113.27 801.37,113.27C801.568,113.27 801.76,113.342 801.909,113.472C802.314,113.845 802.398,114.459 802.109,114.928C801.965,115.191 801.689,115.355 801.389,115.355C801.191,115.355 800.999,115.283 800.85,115.153Z" style="fill:rgb(213,229,251);fill-rule:nonzero;"/>
        </g>
        <g id="路径_12132" transform="matrix(1,0,0,1,-394.025,15.873)">
            <path d="M805.11,108.413C804.705,108.04 804.621,107.426 804.91,106.957C805.054,106.694 805.33,106.53 805.63,106.53C805.828,106.53 806.02,106.602 806.169,106.732C806.571,107.108 806.652,107.721 806.36,108.188C806.218,108.451 805.942,108.616 805.644,108.616C805.446,108.616 805.255,108.544 805.106,108.413L805.11,108.413Z" style="fill:rgb(213,229,251);fill-rule:nonzero;"/>
        </g>
        <g id="路径_12133" transform="matrix(1,0,0,1,-395.846,18.759)">
            <path d="M810.68,101.356C810.534,101.617 810.258,101.78 809.959,101.78C809.761,101.78 809.571,101.709 809.421,101.581C809.016,101.204 808.935,100.587 809.23,100.119C809.374,99.858 809.65,99.695 809.948,99.695C810.145,99.695 810.335,99.765 810.484,99.894C810.892,100.268 810.977,100.886 810.684,101.356L810.68,101.356Z" style="fill:rgb(213,229,251);fill-rule:nonzero;"/>
        </g>
        <g id="路径_12134" transform="matrix(1,0,0,1,-397.596,21.528)">
            <path d="M813.562,95.023C813.16,94.647 813.079,94.034 813.371,93.567C813.513,93.304 813.789,93.139 814.087,93.139C814.285,93.139 814.476,93.211 814.625,93.342C815.024,93.717 815.104,94.327 814.816,94.792C814.673,95.055 814.396,95.22 814.096,95.22C813.901,95.22 813.711,95.15 813.563,95.023L813.562,95.023Z" style="fill:rgb(213,229,251);fill-rule:nonzero;"/>
        </g>
        <g id="路径_12135" transform="matrix(1,0,0,1,-399.391,24.376)">
            <path d="M817.818,88.281C817.41,87.907 817.325,87.289 817.618,86.819C817.764,86.558 818.04,86.395 818.339,86.395C818.537,86.395 818.727,86.466 818.877,86.594C819.285,86.968 819.37,87.586 819.077,88.056C818.931,88.317 818.655,88.48 818.356,88.48C818.158,88.48 817.968,88.409 817.818,88.281Z" style="fill:rgb(213,229,251);fill-rule:nonzero;"/>
        </g>
        <g id="路径_12136" transform="matrix(1,0,0,1,-401.215,27.26)">
            <path d="M823.392,81.226C823.246,81.485 822.97,81.646 822.673,81.646C822.475,81.646 822.283,81.574 822.133,81.445C821.731,81.069 821.65,80.456 821.942,79.989C822.086,79.728 822.362,79.565 822.66,79.565C822.857,79.565 823.047,79.635 823.196,79.764C823.603,80.139 823.686,80.757 823.392,81.226Z" style="fill:rgb(213,229,251);fill-rule:nonzero;"/>
        </g>
        <g id="路径_12137" transform="matrix(1,0,0,1,-403.037,30.143)">
            <path d="M826.45,74.623C826.045,74.25 825.961,73.636 826.25,73.167C826.394,72.904 826.67,72.74 826.97,72.74C827.168,72.74 827.36,72.812 827.509,72.942C827.912,73.318 827.993,73.933 827.7,74.4C827.558,74.663 827.282,74.827 826.983,74.827C826.786,74.827 826.595,74.755 826.446,74.625L826.45,74.623Z" style="fill:rgb(213,229,251);fill-rule:nonzero;"/>
        </g>
        <g id="路径_12138" transform="matrix(1,0,0,1,-404.847,32.994)">
            <path d="M830.732,67.873C830.33,67.497 830.249,66.884 830.541,66.417C830.683,66.154 830.959,65.99 831.258,65.99C831.455,65.99 831.646,66.062 831.795,66.192C832.2,66.565 832.284,67.179 831.995,67.648C831.849,67.909 831.573,68.072 831.274,68.072C831.076,68.072 830.886,68.001 830.736,67.873L830.732,67.873Z" style="fill:rgb(213,229,251);fill-rule:nonzero;"/>
        </g>
        <g id="路径_12139" transform="matrix(1,0,0,1,-406.655,35.892)">
            <path d="M836.272,60.786C836.128,61.047 835.852,61.21 835.554,61.21C835.357,61.21 835.167,61.14 835.018,61.011C834.61,60.637 834.525,60.019 834.818,59.549C834.964,59.288 835.24,59.125 835.539,59.125C835.737,59.125 835.927,59.196 836.077,59.324C836.482,59.701 836.563,60.318 836.268,60.786L836.272,60.786Z" style="fill:rgb(213,229,251);fill-rule:nonzero;"/>
        </g>
        <g id="路径_12140" transform="matrix(1,0,0,1,-381.595,-25.29)">
            <path d="M775.326,205.2C775.22,204.669 775.549,204.141 776.071,204C776.108,203.996 776.145,203.993 776.181,203.993C776.666,203.993 777.072,204.377 777.099,204.861C777.205,205.39 776.88,205.918 776.36,206.061C776.323,206.066 776.286,206.068 776.248,206.068C775.763,206.068 775.356,205.685 775.326,205.2Z" style="fill:rgb(213,229,251);fill-rule:nonzero;"/>
        </g>
        <g id="路径_12141" transform="matrix(1,0,0,1,-384.597,-24.716)">
            <path d="M782.436,203.847C782.334,203.317 782.66,202.79 783.181,202.647C783.216,202.643 783.251,202.641 783.287,202.641C783.772,202.641 784.179,203.023 784.209,203.508C784.315,204.037 783.99,204.565 783.47,204.708C783.435,204.712 783.399,204.714 783.364,204.714C782.877,204.714 782.469,204.332 782.436,203.847Z" style="fill:rgb(213,229,251);fill-rule:nonzero;"/>
        </g>
        <g id="路径_12142" transform="matrix(1,0,0,1,-387.639,-24.138)">
            <path d="M790.671,203.338C790.636,203.342 790.6,203.344 790.565,203.344C790.078,203.344 789.67,202.962 789.637,202.477C789.538,201.947 789.863,201.423 790.382,201.277C790.417,201.273 790.453,201.271 790.488,201.271C790.975,201.271 791.383,201.653 791.416,202.138C791.518,202.668 791.192,203.195 790.671,203.338Z" style="fill:rgb(213,229,251);fill-rule:nonzero;"/>
        </g>
        <g id="路径_12143" transform="matrix(1,0,0,1,-390.682,-23.563)">
            <path d="M796.846,201.117C796.743,200.588 797.067,200.063 797.585,199.917C797.62,199.913 797.656,199.911 797.691,199.911C798.178,199.911 798.586,200.293 798.619,200.778C798.722,201.307 798.398,201.832 797.88,201.978C797.845,201.982 797.809,201.984 797.774,201.984C797.287,201.984 796.879,201.602 796.846,201.117Z" style="fill:rgb(213,229,251);fill-rule:nonzero;"/>
        </g>
        <g id="路径_12144" transform="matrix(1,0,0,1,-393.698,-22.988)">
            <path d="M803.985,199.757C803.879,199.228 804.204,198.7 804.724,198.557C804.759,198.553 804.795,198.551 804.83,198.551C805.317,198.551 805.725,198.933 805.758,199.418C805.86,199.948 805.534,200.475 805.013,200.618C804.978,200.622 804.943,200.624 804.907,200.624C804.422,200.624 804.015,200.242 803.985,199.757Z" style="fill:rgb(213,229,251);fill-rule:nonzero;"/>
        </g>
        <g id="路径_12145" transform="matrix(1,0,0,1,-396.743,-22.41)">
            <path d="M812.23,199.248C812.195,199.252 812.159,199.254 812.124,199.254C811.637,199.254 811.229,198.872 811.196,198.387C811.093,197.858 811.417,197.333 811.935,197.187C811.97,197.183 812.006,197.181 812.041,197.181C812.528,197.181 812.936,197.563 812.969,198.048C813.075,198.577 812.75,199.105 812.23,199.248Z" style="fill:rgb(213,229,251);fill-rule:nonzero;"/>
        </g>
        <g id="路径_12146" transform="matrix(1,0,0,1,-399.775,-21.831)">
            <path d="M818.376,197.011C818.27,196.482 818.595,195.954 819.116,195.811C819.153,195.806 819.19,195.804 819.228,195.804C819.713,195.804 820.12,196.187 820.15,196.672C820.256,197.201 819.931,197.729 819.411,197.872C819.372,197.877 819.333,197.88 819.294,197.88C818.809,197.88 818.403,197.495 818.377,197.011L818.376,197.011Z" style="fill:rgb(213,229,251);fill-rule:nonzero;"/>
        </g>
        <g id="路径_12147" transform="matrix(1,0,0,1,-402.778,-21.26)">
            <path d="M825.486,195.66C825.38,195.131 825.705,194.603 826.225,194.46C826.264,194.455 826.303,194.452 826.342,194.452C826.827,194.452 827.233,194.837 827.259,195.321C827.365,195.85 827.04,196.378 826.52,196.521C826.483,196.526 826.446,196.528 826.408,196.528C825.923,196.528 825.516,196.145 825.486,195.66Z" style="fill:rgb(213,229,251);fill-rule:nonzero;"/>
        </g>
        <g id="路径_12148" transform="matrix(1,0,0,1,-405.819,-20.682)">
            <path d="M833.72,195.151C833.683,195.156 833.646,195.158 833.608,195.158C833.123,195.158 832.716,194.775 832.686,194.29C832.581,193.757 832.912,193.228 833.437,193.09C833.476,193.085 833.514,193.083 833.553,193.083C834.038,193.083 834.444,193.467 834.471,193.951C834.573,194.483 834.243,195.01 833.72,195.151Z" style="fill:rgb(213,229,251);fill-rule:nonzero;"/>
        </g>
        <g id="路径_12149" transform="matrix(1,0,0,1,-408.863,-20.104)">
            <path d="M839.9,192.921C839.794,192.392 840.119,191.864 840.639,191.721C840.676,191.716 840.713,191.714 840.751,191.714C841.236,191.714 841.643,192.097 841.673,192.582C841.779,193.113 841.45,193.641 840.928,193.782C840.891,193.786 840.854,193.789 840.818,193.789C840.333,193.789 839.927,193.405 839.9,192.921Z" style="fill:rgb(213,229,251);fill-rule:nonzero;"/>
        </g>
        <g id="路径_12150" transform="matrix(1,0,0,1,-411.859,-19.53)">
            <path d="M846.987,191.567C846.887,191.037 847.213,190.512 847.732,190.367C847.767,190.363 847.803,190.361 847.838,190.361C848.325,190.361 848.733,190.743 848.766,191.228C848.868,191.758 848.542,192.285 848.021,192.428C847.986,192.432 847.95,192.434 847.915,192.434C847.428,192.434 847.02,192.052 846.987,191.567Z" style="fill:rgb(213,229,251);fill-rule:nonzero;"/>
        </g>
        <g id="路径_12151" transform="matrix(1,0,0,1,-414.903,-18.951)">
            <path d="M855.23,191.058C855.195,191.062 855.159,191.064 855.124,191.064C854.637,191.064 854.229,190.682 854.196,190.197C854.094,189.667 854.42,189.14 854.941,188.997C854.976,188.993 855.012,188.991 855.047,188.991C855.534,188.991 855.942,189.373 855.975,189.858C856.077,190.388 855.751,190.915 855.23,191.058Z" style="fill:rgb(213,229,251);fill-rule:nonzero;"/>
        </g>
        <g id="路径_12152" transform="matrix(1,0,0,1,-417.825,-18.398)">
            <path d="M861.116,188.881C861.01,188.35 861.339,187.822 861.861,187.681C861.896,187.677 861.931,187.675 861.967,187.675C862.452,187.675 862.859,188.057 862.889,188.542C862.995,189.071 862.67,189.599 862.15,189.742C862.111,189.747 862.073,189.749 862.034,189.749C861.549,189.749 861.143,189.365 861.116,188.881Z" style="fill:rgb(213,229,251);fill-rule:nonzero;"/>
        </g>
        <g id="路径_12153" transform="matrix(1,0,0,1,-420.828,-17.827)">
            <path d="M868.226,187.531C868.12,187 868.449,186.472 868.971,186.331C869.008,186.326 869.046,186.324 869.083,186.324C869.571,186.324 869.978,186.713 870,187.2C870.105,187.734 869.77,188.264 869.243,188.4C869.211,188.403 869.18,188.405 869.148,188.405C868.663,188.405 868.257,188.023 868.226,187.539L868.226,187.531Z" style="fill:rgb(213,229,251);fill-rule:nonzero;"/>
        </g>
        <g id="路径_12154" transform="matrix(1,0,0,1,-423.869,-17.249)">
            <path d="M876.461,187.022C876.424,187.027 876.387,187.029 876.349,187.029C875.864,187.029 875.457,186.646 875.427,186.161C875.325,185.631 875.651,185.104 876.172,184.961C876.209,184.956 876.246,184.954 876.284,184.954C876.769,184.954 877.176,185.337 877.206,185.822C877.312,186.353 876.983,186.881 876.461,187.022Z" style="fill:rgb(213,229,251);fill-rule:nonzero;"/>
        </g>
        <g id="路径_12155" transform="matrix(1,0,0,1,-426.913,-16.67)">
            <path d="M882.636,184.791C882.53,184.262 882.855,183.734 883.376,183.591C883.413,183.586 883.45,183.584 883.488,183.584C883.973,183.584 884.38,183.967 884.41,184.452C884.516,184.981 884.191,185.509 883.671,185.652C883.634,185.657 883.597,185.659 883.559,185.659C883.074,185.659 882.667,185.276 882.637,184.791L882.636,184.791Z" style="fill:rgb(213,229,251);fill-rule:nonzero;"/>
        </g>
        <g id="路径_12156" transform="matrix(1,0,0,1,-429.916,-16.096)">
            <path d="M889.746,183.437C889.643,182.908 889.967,182.382 890.486,182.237C890.521,182.233 890.556,182.231 890.592,182.231C891.08,182.231 891.49,182.616 891.52,183.104C891.626,183.635 891.297,184.163 890.775,184.304C890.74,184.308 890.705,184.31 890.669,184.31C890.184,184.31 889.777,183.928 889.747,183.443L889.746,183.437Z" style="fill:rgb(213,229,251);fill-rule:nonzero;"/>
        </g>
        <g id="路径_12157" transform="matrix(1,0,0,1,-432.974,-15.539)">
            <path d="M898,182.949C897.495,182.996 897.04,182.621 896.989,182.117C896.889,181.589 897.211,181.065 897.728,180.917C897.763,180.913 897.798,180.911 897.834,180.911C898.322,180.911 898.732,181.296 898.762,181.784C898.846,182.308 898.514,182.816 898,182.949Z" style="fill:rgb(213,229,251);fill-rule:nonzero;"/>
        </g>
        <g id="路径_12158" transform="matrix(1,0,0,1,-363.446,-10.766)">
            <path d="M733.538,171.642C733.446,171.673 733.349,171.689 733.252,171.689C732.828,171.689 732.46,171.384 732.383,170.966C732.22,170.448 732.469,169.884 732.961,169.655C733.053,169.624 733.15,169.608 733.247,169.608C733.671,169.608 734.039,169.913 734.116,170.331C734.279,170.849 734.03,171.413 733.538,171.642Z" style="fill:rgb(213,229,251);fill-rule:nonzero;"/>
        </g>
        <g id="路径_12159" transform="matrix(1,0,0,1,-362.521,-7.405)">
            <path d="M731.348,163.682C731.256,163.713 731.159,163.729 731.062,163.729C730.638,163.729 730.27,163.424 730.193,163.006C730.03,162.488 730.279,161.924 730.771,161.695C730.863,161.664 730.96,161.648 731.057,161.648C731.481,161.648 731.849,161.953 731.926,162.371C732.089,162.889 731.84,163.453 731.348,163.682Z" style="fill:rgb(213,229,251);fill-rule:nonzero;"/>
        </g>
        <g id="路径_12160" transform="matrix(1,0,0,1,-361.579,-3.995)">
            <path d="M729.7,154.3C729.866,154.818 729.616,155.384 729.122,155.611C729.029,155.644 728.931,155.66 728.832,155.66C728.407,155.66 728.041,155.353 727.967,154.935C727.804,154.417 728.053,153.853 728.545,153.624C728.638,153.591 728.736,153.575 728.835,153.575C729.26,153.575 729.626,153.882 729.7,154.3Z" style="fill:rgb(213,229,251);fill-rule:nonzero;"/>
        </g>
        <g id="路径_12161" transform="matrix(1,0,0,1,-360.663,-0.571)">
            <path d="M726.92,147.508C726.837,147.533 726.75,147.546 726.663,147.546C726.239,147.546 725.872,147.242 725.794,146.826C725.631,146.308 725.88,145.744 726.372,145.515C726.464,145.484 726.561,145.468 726.658,145.468C727.082,145.468 727.45,145.773 727.527,146.191C727.687,146.718 727.425,147.287 726.921,147.508L726.92,147.508Z" style="fill:rgb(213,229,251);fill-rule:nonzero;"/>
        </g>
        <g id="路径_12162" transform="matrix(1,0,0,1,-359.717,2.774)">
            <path d="M724.708,139.582C724.615,139.615 724.517,139.631 724.418,139.631C723.993,139.631 723.627,139.324 723.553,138.906C723.39,138.388 723.639,137.824 724.131,137.595C724.223,137.564 724.32,137.548 724.417,137.548C724.841,137.548 725.209,137.853 725.286,138.271C725.449,138.789 725.2,139.353 724.708,139.582Z" style="fill:rgb(213,229,251);fill-rule:nonzero;"/>
        </g>
        <g id="路径_12163" transform="matrix(1,0,0,1,-358.783,6.178)">
            <path d="M723.076,130.211C723.239,130.729 722.99,131.293 722.498,131.522C722.406,131.553 722.309,131.569 722.212,131.569C721.788,131.569 721.42,131.264 721.343,130.846C721.18,130.328 721.429,129.764 721.921,129.535C722.013,129.504 722.11,129.488 722.207,129.488C722.631,129.488 722.999,129.793 723.076,130.211Z" style="fill:rgb(213,229,251);fill-rule:nonzero;"/>
        </g>
        <g id="路径_12164" transform="matrix(1,0,0,1,-357.837,9.595)">
            <path d="M720.259,123.431C720.167,123.462 720.07,123.478 719.973,123.478C719.549,123.478 719.181,123.173 719.104,122.755C718.941,122.237 719.19,121.673 719.682,121.444C719.775,121.411 719.873,121.395 719.972,121.395C720.397,121.395 720.763,121.702 720.837,122.12C721,122.638 720.751,123.202 720.259,123.431Z" style="fill:rgb(213,229,251);fill-rule:nonzero;"/>
        </g>
        <g id="路径_12165" transform="matrix(1,0,0,1,-356.909,12.941)">
            <path d="M718.058,115.51C717.965,115.543 717.867,115.559 717.768,115.559C717.343,115.559 716.977,115.252 716.903,114.834C716.74,114.316 716.989,113.752 717.481,113.523C717.576,113.489 717.675,113.472 717.776,113.472C718.2,113.472 718.566,113.781 718.636,114.199C718.802,114.717 718.552,115.283 718.058,115.51Z" style="fill:rgb(213,229,251);fill-rule:nonzero;"/>
        </g>
        <g id="路径_12166" transform="matrix(1,0,0,1,-355.975,16.365)">
            <path d="M716.426,106.09C716.589,106.608 716.34,107.172 715.848,107.401C715.756,107.432 715.659,107.448 715.562,107.448C715.138,107.448 714.77,107.143 714.693,106.725C714.53,106.207 714.779,105.643 715.271,105.414C715.364,105.381 715.462,105.365 715.561,105.365C715.986,105.365 716.352,105.672 716.426,106.09Z" style="fill:rgb(213,229,251);fill-rule:nonzero;"/>
        </g>
        <g id="路径_12167" transform="matrix(1,0,0,1,-355.033,19.772)">
            <path d="M713.618,99.332C713.525,99.365 713.427,99.381 713.328,99.381C712.903,99.381 712.537,99.074 712.463,98.656C712.3,98.138 712.549,97.574 713.041,97.345C713.133,97.314 713.23,97.298 713.327,97.298C713.751,97.298 714.119,97.603 714.196,98.021C714.359,98.539 714.11,99.103 713.618,99.332Z" style="fill:rgb(213,229,251);fill-rule:nonzero;"/>
        </g>
        <g id="路径_12168" transform="matrix(1,0,0,1,-354.109,23.128)">
            <path d="M711.428,91.378C711.336,91.409 711.239,91.425 711.142,91.425C710.718,91.425 710.35,91.12 710.273,90.702C710.11,90.184 710.359,89.62 710.851,89.391C710.936,89.364 711.025,89.351 711.114,89.351C711.535,89.351 711.899,89.653 711.977,90.067C712.147,90.577 711.911,91.141 711.428,91.378Z" style="fill:rgb(213,229,251);fill-rule:nonzero;"/>
        </g>
        <g id="路径_12169" transform="matrix(1,0,0,1,-353.171,26.542)">
            <path d="M709.786,81.991C709.949,82.509 709.7,83.073 709.208,83.302C709.113,83.336 709.014,83.353 708.913,83.353C708.489,83.353 708.123,83.044 708.053,82.626C707.89,82.108 708.139,81.544 708.631,81.315C708.723,81.284 708.82,81.268 708.917,81.268C709.341,81.268 709.709,81.573 709.786,81.991Z" style="fill:rgb(213,229,251);fill-rule:nonzero;"/>
        </g>
        <g id="路径_12170" transform="matrix(1,0,0,1,-352.288,29.81)">
            <path d="M707.118,75.562C707.026,75.593 706.929,75.609 706.832,75.609C706.408,75.609 706.04,75.304 705.963,74.886C705.8,74.368 706.049,73.804 706.541,73.575C706.633,73.544 706.73,73.528 706.827,73.528C707.251,73.528 707.619,73.833 707.696,74.251C707.859,74.769 707.61,75.333 707.118,75.562Z" style="fill:rgb(213,229,251);fill-rule:nonzero;"/>
        </g>
        <g id="路径_12171" transform="matrix(1,0,0,1,-351.342,33.175)">
            <path d="M704.878,67.6C704.786,67.631 704.689,67.647 704.592,67.647C704.168,67.647 703.8,67.342 703.723,66.924C703.56,66.406 703.809,65.842 704.301,65.613C704.396,65.579 704.495,65.562 704.596,65.562C705.02,65.562 705.386,65.871 705.456,66.289C705.619,66.807 705.37,67.371 704.878,67.6Z" style="fill:rgb(213,229,251);fill-rule:nonzero;"/>
        </g>
        <g id="路径_12172" transform="matrix(1,0,0,1,-350.425,36.574)">
            <path d="M703.256,58.228C703.419,58.746 703.17,59.31 702.678,59.539C702.591,59.567 702.501,59.581 702.409,59.581C701.989,59.581 701.625,59.277 701.551,58.863C701.385,58.345 701.635,57.779 702.129,57.552C702.213,57.526 702.3,57.513 702.388,57.513C702.81,57.513 703.175,57.814 703.256,58.228Z" style="fill:rgb(213,229,251);fill-rule:nonzero;"/>
        </g>
        <g id="路径_12173" transform="matrix(1,0,0,1,-349.463,39.967)">
            <path d="M700.428,51.512C700.336,51.543 700.239,51.559 700.142,51.559C699.718,51.559 699.35,51.254 699.273,50.836C699.11,50.318 699.359,49.754 699.851,49.525C699.943,49.494 700.04,49.478 700.137,49.478C700.561,49.478 700.929,49.783 701.006,50.201C701.169,50.719 700.92,51.283 700.428,51.512Z" style="fill:rgb(213,229,251);fill-rule:nonzero;"/>
        </g>
        <g id="路径_12174" transform="matrix(1,0,0,1,-348.538,43.346)">
            <path d="M698.238,43.512C698.145,43.545 698.047,43.561 697.948,43.561C697.523,43.561 697.157,43.254 697.083,42.836C696.92,42.318 697.169,41.754 697.661,41.525C697.753,41.494 697.85,41.478 697.947,41.478C698.371,41.478 698.739,41.783 698.816,42.201C698.979,42.719 698.73,43.283 698.238,43.512Z" style="fill:rgb(213,229,251);fill-rule:nonzero;"/>
        </g>
        <g id="路径_12175" transform="matrix(1,0,0,1,-347.621,46.752)">
            <path d="M696.617,34.132C696.783,34.65 696.533,35.216 696.039,35.443C695.954,35.47 695.865,35.483 695.776,35.483C695.355,35.483 694.991,35.181 694.913,34.767C694.749,34.248 694.998,33.681 695.491,33.45C695.576,33.423 695.664,33.41 695.753,33.41C696.176,33.41 696.542,33.716 696.617,34.132Z" style="fill:rgb(213,229,251);fill-rule:nonzero;"/>
        </g>
        <g id="路径_12176" transform="matrix(1,0,0,1,-289.662,12.527)">
            <path d="M557.782,116.086C557.502,115.613 557.597,115.002 558.007,114.636C558.154,114.517 558.337,114.453 558.526,114.453C558.835,114.453 559.12,114.627 559.261,114.902C559.54,115.377 559.442,115.988 559.03,116.352C558.884,116.47 558.701,116.535 558.513,116.535C558.205,116.535 557.921,116.361 557.782,116.086Z" style="fill:rgb(213,229,251);fill-rule:nonzero;"/>
        </g>
        <g id="路径_12177" transform="matrix(1,0,0,1,-292.167,14.533)">
            <path d="M563.712,111.336C563.432,110.863 563.527,110.252 563.937,109.886C564.084,109.767 564.267,109.703 564.456,109.703C564.765,109.703 565.05,109.877 565.191,110.152C565.474,110.627 565.379,111.241 564.966,111.608C564.82,111.728 564.636,111.793 564.447,111.793C564.136,111.793 563.85,111.615 563.712,111.336Z" style="fill:rgb(213,229,251);fill-rule:nonzero;"/>
        </g>
        <g id="路径_12178" transform="matrix(1,0,0,1,-294.702,16.564)">
            <path d="M570.967,106.792C570.82,106.911 570.637,106.975 570.448,106.975C570.139,106.975 569.854,106.801 569.713,106.526C569.434,106.051 569.532,105.44 569.944,105.076C570.091,104.957 570.274,104.893 570.463,104.893C570.772,104.893 571.057,105.067 571.198,105.342C571.477,105.817 571.379,106.428 570.967,106.792Z" style="fill:rgb(213,229,251);fill-rule:nonzero;"/>
        </g>
        <g id="路径_12179" transform="matrix(1,0,0,1,-297.24,18.596)">
            <path d="M575.724,101.716C575.445,101.241 575.543,100.63 575.955,100.266C576.101,100.148 576.284,100.083 576.472,100.083C576.78,100.083 577.064,100.257 577.203,100.532C577.483,101.005 577.388,101.616 576.978,101.982C576.831,102.101 576.648,102.165 576.459,102.165C576.15,102.165 575.865,101.991 575.724,101.716Z" style="fill:rgb(213,229,251);fill-rule:nonzero;"/>
        </g>
        <g id="路径_12180" transform="matrix(1,0,0,1,-299.745,20.601)">
            <path d="M581.654,96.966C581.375,96.491 581.473,95.88 581.885,95.516C582.031,95.398 582.214,95.333 582.402,95.333C582.71,95.333 582.994,95.507 583.133,95.782C583.413,96.255 583.318,96.866 582.908,97.232C582.761,97.351 582.578,97.415 582.389,97.415C582.08,97.415 581.795,97.241 581.654,96.966Z" style="fill:rgb(213,229,251);fill-rule:nonzero;"/>
        </g>
        <g id="路径_12181" transform="matrix(1,0,0,1,-302.281,22.633)">
            <path d="M588.91,92.422C588.764,92.54 588.581,92.605 588.393,92.605C588.085,92.605 587.801,92.431 587.662,92.156C587.382,91.683 587.477,91.072 587.887,90.706C588.034,90.587 588.217,90.523 588.406,90.523C588.715,90.523 589,90.697 589.141,90.972C589.42,91.447 589.322,92.058 588.91,92.422Z" style="fill:rgb(213,229,251);fill-rule:nonzero;"/>
        </g>
        <g id="路径_12182" transform="matrix(1,0,0,1,-304.825,24.671)">
            <path d="M593.684,87.334C593.405,86.859 593.503,86.248 593.915,85.884C594.061,85.763 594.244,85.697 594.434,85.697C594.743,85.697 595.026,85.873 595.163,86.15C595.45,86.621 595.363,87.235 594.955,87.606C594.807,87.732 594.619,87.801 594.424,87.801C594.109,87.801 593.82,87.619 593.684,87.334Z" style="fill:rgb(213,229,251);fill-rule:nonzero;"/>
        </g>
        <g id="路径_12183" transform="matrix(1,0,0,1,-307.328,26.675)">
            <path d="M599.612,82.586C599.332,82.113 599.427,81.502 599.837,81.136C599.984,81.018 600.167,80.953 600.355,80.953C600.664,80.953 600.949,81.127 601.09,81.402C601.369,81.877 601.271,82.488 600.859,82.852C600.713,82.97 600.53,83.035 600.342,83.035C600.034,83.035 599.75,82.861 599.611,82.586L599.612,82.586Z" style="fill:rgb(213,229,251);fill-rule:nonzero;"/>
        </g>
        <g id="路径_12184" transform="matrix(1,0,0,1,-309.863,28.705)">
            <path d="M606.867,78.042C606.72,78.161 606.537,78.225 606.348,78.225C606.039,78.225 605.754,78.051 605.613,77.776C605.334,77.301 605.432,76.69 605.844,76.326C605.991,76.207 606.174,76.143 606.363,76.143C606.672,76.143 606.957,76.317 607.098,76.592C607.377,77.067 607.279,77.678 606.867,78.042Z" style="fill:rgb(213,229,251);fill-rule:nonzero;"/>
        </g>
        <g id="路径_12185" transform="matrix(1,0,0,1,-312.401,30.739)">
            <path d="M611.624,72.964C611.345,72.489 611.443,71.878 611.855,71.514C612.001,71.394 612.184,71.328 612.373,71.328C612.682,71.328 612.965,71.503 613.103,71.78C613.383,72.253 613.288,72.864 612.878,73.23C612.731,73.349 612.548,73.413 612.359,73.413C612.05,73.413 611.765,73.239 611.624,72.964Z" style="fill:rgb(213,229,251);fill-rule:nonzero;"/>
        </g>
        <g id="路径_12186" transform="matrix(1,0,0,1,-314.906,32.743)">
            <path d="M617.554,68.216C617.275,67.741 617.373,67.13 617.785,66.766C617.931,66.648 618.114,66.583 618.302,66.583C618.61,66.583 618.894,66.757 619.033,67.032C619.313,67.505 619.218,68.116 618.808,68.482C618.661,68.601 618.478,68.665 618.289,68.665C617.98,68.665 617.695,68.491 617.554,68.216Z" style="fill:rgb(213,229,251);fill-rule:nonzero;"/>
        </g>
        <g id="路径_12187" transform="matrix(1,0,0,1,-317.443,34.774)">
            <path d="M624.81,63.672C624.664,63.79 624.481,63.855 624.293,63.855C623.985,63.855 623.701,63.681 623.562,63.406C623.282,62.933 623.377,62.322 623.787,61.956C623.934,61.837 624.117,61.773 624.306,61.773C624.615,61.773 624.9,61.947 625.041,62.222C625.32,62.697 625.222,63.308 624.81,63.672Z" style="fill:rgb(213,229,251);fill-rule:nonzero;"/>
        </g>
        <g id="路径_12188" transform="matrix(1,0,0,1,-319.876,36.717)">
            <path d="M629.324,58.806C629.045,58.331 629.143,57.72 629.555,57.356C629.702,57.237 629.885,57.173 630.074,57.173C630.383,57.173 630.668,57.347 630.809,57.622C631.088,58.097 630.99,58.708 630.578,59.072C630.431,59.191 630.248,59.255 630.059,59.255C629.75,59.255 629.465,59.081 629.324,58.806Z" style="fill:rgb(213,229,251);fill-rule:nonzero;"/>
        </g>
        <g id="路径_12189" transform="matrix(1,0,0,1,-322.381,38.732)">
            <path d="M635.254,54.036C634.975,53.561 635.073,52.95 635.485,52.586C635.632,52.467 635.815,52.403 636.004,52.403C636.313,52.403 636.598,52.577 636.739,52.852C637.018,53.327 636.92,53.938 636.508,54.302C636.361,54.421 636.178,54.485 635.989,54.485C635.68,54.485 635.395,54.311 635.254,54.036Z" style="fill:rgb(213,229,251);fill-rule:nonzero;"/>
        </g>
        <g id="路径_12190" transform="matrix(1,0,0,1,-324.919,40.762)">
            <path d="M642.517,49.492C642.37,49.611 642.187,49.675 641.998,49.675C641.689,49.675 641.404,49.501 641.263,49.226C640.984,48.751 641.082,48.14 641.494,47.776C641.64,47.658 641.823,47.593 642.011,47.593C642.319,47.593 642.603,47.767 642.742,48.042C643.022,48.515 642.927,49.126 642.517,49.492Z" style="fill:rgb(213,229,251);fill-rule:nonzero;"/>
        </g>
        <g id="路径_12191" transform="matrix(1,0,0,1,-327.455,42.794)">
            <path d="M647.273,44.416C646.993,43.943 647.088,43.332 647.498,42.966C647.645,42.847 647.828,42.783 648.017,42.783C648.326,42.783 648.611,42.957 648.752,43.232C649.031,43.707 648.933,44.318 648.521,44.682C648.375,44.8 648.192,44.865 648.004,44.865C647.696,44.865 647.412,44.691 647.273,44.416Z" style="fill:rgb(213,229,251);fill-rule:nonzero;"/>
        </g>
        <g id="路径_12192" transform="matrix(1,0,0,1,-329.96,44.8)">
            <path d="M653.2,39.666C652.92,39.193 653.015,38.582 653.425,38.216C653.572,38.097 653.755,38.033 653.944,38.033C654.253,38.033 654.538,38.207 654.679,38.482C654.958,38.957 654.86,39.568 654.448,39.932C654.302,40.05 654.119,40.115 653.931,40.115C653.623,40.115 653.339,39.941 653.2,39.666Z" style="fill:rgb(213,229,251);fill-rule:nonzero;"/>
        </g>
        <g id="路径_12193" transform="matrix(1,0,0,1,-332.495,46.831)">
            <path d="M660.457,35.122C660.31,35.241 660.127,35.305 659.938,35.305C659.629,35.305 659.344,35.131 659.203,34.856C658.924,34.381 659.022,33.77 659.434,33.406C659.581,33.287 659.764,33.223 659.953,33.223C660.262,33.223 660.547,33.397 660.688,33.672C660.967,34.147 660.869,34.758 660.457,35.122Z" style="fill:rgb(213,229,251);fill-rule:nonzero;"/>
        </g>
        <g id="路径_12194" transform="matrix(1,0,0,1,-415.302,21.987)">
            <path d="M855.375,92.357C855.53,92.164 855.764,92.052 856.011,92.052C856.257,92.052 856.491,92.164 856.646,92.357C856.998,92.783 856.998,93.404 856.646,93.83C856.491,94.014 856.263,94.121 856.022,94.121C855.768,94.121 855.529,94.003 855.375,93.801C855.038,93.38 855.038,92.778 855.375,92.357Z" style="fill:rgb(213,229,251);fill-rule:nonzero;"/>
        </g>
        <g id="路径_12195" transform="matrix(1,0,0,1,-417.388,19.428)">
            <path d="M860.338,98.4C860.494,98.217 860.722,98.112 860.962,98.112C861.218,98.112 861.46,98.231 861.615,98.435C861.967,98.861 861.967,99.482 861.615,99.908C861.461,100.101 861.227,100.213 860.98,100.213C860.732,100.213 860.498,100.101 860.344,99.908C859.971,99.478 859.968,98.833 860.338,98.4Z" style="fill:rgb(213,229,251);fill-rule:nonzero;"/>
        </g>
        <g id="路径_12196" transform="matrix(1,0,0,1,-419.512,16.856)">
            <path d="M865.356,105.98C865.004,105.554 865.004,104.933 865.356,104.507C865.512,104.314 865.747,104.202 865.995,104.202C866.242,104.202 866.477,104.314 866.633,104.507C866.989,104.934 866.989,105.559 866.633,105.986C866.478,106.179 866.244,106.292 865.997,106.292C865.747,106.292 865.51,106.177 865.356,105.98Z" style="fill:rgb(213,229,251);fill-rule:nonzero;"/>
        </g>
        <g id="路径_12197" transform="matrix(1,0,0,1,-421.651,14.263)">
            <path d="M870.435,110.629C870.59,110.447 870.817,110.341 871.056,110.341C871.311,110.341 871.552,110.461 871.706,110.664C872.058,111.09 872.058,111.711 871.706,112.137C871.551,112.33 871.317,112.442 871.07,112.442C870.824,112.442 870.59,112.33 870.435,112.137C870.063,111.706 870.063,111.06 870.435,110.629Z" style="fill:rgb(213,229,251);fill-rule:nonzero;"/>
        </g>
        <g id="路径_12198" transform="matrix(1,0,0,1,-423.758,11.714)">
            <path d="M875.425,116.667C875.58,116.483 875.808,116.376 876.049,116.376C876.302,116.376 876.542,116.495 876.696,116.696C877.043,117.13 877.031,117.755 876.667,118.175C876.512,118.357 876.285,118.463 876.046,118.463C875.791,118.463 875.55,118.343 875.396,118.14C875.052,117.707 875.064,117.086 875.425,116.667Z" style="fill:rgb(213,229,251);fill-rule:nonzero;"/>
        </g>
        <g id="路径_12199" transform="matrix(1,0,0,1,-425.879,9.132)">
            <path d="M880.434,124.258C880.078,123.831 880.078,123.206 880.434,122.779C880.589,122.597 880.816,122.491 881.055,122.491C881.31,122.491 881.551,122.611 881.705,122.814C882.057,123.24 882.057,123.861 881.705,124.287C881.55,124.471 881.322,124.578 881.081,124.578C880.827,124.578 880.588,124.46 880.434,124.258Z" style="fill:rgb(213,229,251);fill-rule:nonzero;"/>
        </g>
        <g id="路径_12200" transform="matrix(1,0,0,1,-428.017,6.543)">
            <path d="M885.525,128.909C885.68,128.727 885.907,128.621 886.146,128.621C886.401,128.621 886.642,128.741 886.796,128.944C887.14,129.377 887.128,129.998 886.767,130.417C886.612,130.61 886.378,130.722 886.131,130.722C885.885,130.722 885.651,130.61 885.496,130.417C885.132,129.978 885.145,129.333 885.525,128.909Z" style="fill:rgb(213,229,251);fill-rule:nonzero;"/>
        </g>
        <g id="路径_12201" transform="matrix(1,0,0,1,-430.142,3.994)">
            <path d="M890.526,134.947C890.681,134.763 890.909,134.656 891.15,134.656C891.404,134.656 891.643,134.774 891.797,134.976C892.153,135.403 892.153,136.028 891.797,136.455C891.642,136.638 891.415,136.743 891.175,136.743C890.92,136.743 890.68,136.623 890.526,136.42C890.174,135.994 890.174,135.373 890.526,134.947Z" style="fill:rgb(213,229,251);fill-rule:nonzero;"/>
        </g>
        <g id="路径_12202" transform="matrix(1,0,0,1,-432.258,1.413)">
            <path d="M895.536,142.538C895.184,142.112 895.184,141.491 895.536,141.065C895.69,140.879 895.919,140.771 896.16,140.771C896.414,140.771 896.654,140.891 896.807,141.094C897.159,141.52 897.159,142.141 896.807,142.567C896.652,142.751 896.424,142.858 896.183,142.858C895.93,142.858 895.69,142.739 895.536,142.538Z" style="fill:rgb(213,229,251);fill-rule:nonzero;"/>
        </g>
        <g id="路径_12203" transform="matrix(1,0,0,1,-434.407,-1.17)">
            <path d="M900.626,147.177C900.78,146.992 901.008,146.886 901.248,146.886C901.503,146.886 901.744,147.007 901.897,147.212C902.249,147.638 902.249,148.259 901.897,148.685C901.742,148.867 901.515,148.973 901.276,148.973C901.021,148.973 900.78,148.853 900.626,148.65C900.274,148.224 900.274,147.603 900.626,147.177Z" style="fill:rgb(213,229,251);fill-rule:nonzero;"/>
        </g>
        <g id="路径_12204" transform="matrix(1,0,0,1,-436.523,-3.711)">
            <path d="M905.625,153.207C905.78,153.014 906.014,152.902 906.261,152.902C906.507,152.902 906.741,153.014 906.896,153.207C907.252,153.634 907.252,154.259 906.896,154.686C906.741,154.868 906.514,154.974 906.275,154.974C906.02,154.974 905.779,154.854 905.625,154.651C905.288,154.23 905.288,153.628 905.625,153.207Z" style="fill:rgb(213,229,251);fill-rule:nonzero;"/>
        </g>
        <g id="路径_12205" transform="matrix(1,0,0,1,-438.635,-6.303)">
            <path d="M910.625,160.808C910.278,160.374 910.29,159.749 910.654,159.329C910.809,159.146 911.036,159.041 911.276,159.041C911.531,159.041 911.771,159.161 911.925,159.364C912.277,159.79 912.277,160.411 911.925,160.837C911.771,161.032 911.535,161.146 911.286,161.146C911.024,161.146 910.778,161.02 910.625,160.808Z" style="fill:rgb(213,229,251);fill-rule:nonzero;"/>
        </g>
        <g id="路径_12238" transform="matrix(1,0,0,1,-288.479,-77.8)">
            <g transform="matrix(1,0,0,1,0.621,2.683)">
                <path d="M896.372,596.053C896.372,596.053 839.488,573.153 718.267,600.53C680.767,608.999 633.839,626.13 583.267,640.667L553.35,519.285L554.222,519.025C569.513,514.456 620.655,497.94 679.972,472.343C733.494,449.236 793.937,419.143 838.401,360.85L881.346,535.1L896.372,596.053Z" style="fill:rgb(250,135,80);"/>
            </g>
            <path d="M881.967,535.076C862.805,529.808 805.99,519.196 707.831,541.211C669.631,549.778 621.872,567.247 570.343,582.011L554.82,519.045C570.111,514.476 621.253,497.96 680.57,472.363C734.092,449.255 794.535,419.158 839,360.87L881.967,535.076Z" style="fill:rgb(250,149,80);fill-rule:nonzero;"/>
        </g>
        <g transform="matrix(1,0,0,1,-494.799,-68.24)">
            <path d="M1108.71,595.092C1108.43,595.169 1108.15,595.207 1107.86,595.207C1106.28,595.207 1104.92,594.05 1104.67,592.492L1043.49,344.262C1042.94,342.365 1043.91,340.336 1045.73,339.571C1046.01,339.494 1046.3,339.455 1046.59,339.455C1048.16,339.455 1049.52,340.616 1049.77,342.176L1110.95,590.406C1111.51,592.3 1110.54,594.333 1108.71,595.092Z" style="fill:rgb(237,125,43);fill-rule:nonzero;"/>
        </g>
        <g transform="matrix(1,0,0,1,-201.529,-191.356)">
            <path d="M460.929,768.607L497.077,756.671L479.457,635.19L443.309,647.132C441.84,647.958 440.98,651.002 441.402,653.897L457.513,764.852C457.914,767.746 459.461,769.433 460.929,768.607Z" style="fill:rgb(250,149,80);fill-rule:nonzero;"/>
        </g>
        <g transform="matrix(1,0,0,1,-325.31,-252.859)">
            <path d="M733.858,912.243L679.308,912.514L652.088,845.63L642.03,820.917L642.053,820.905L691.8,802.68L692.7,805.025L701.943,829.091L733.858,912.243Z" style="fill:rgb(249,151,70);fill-rule:nonzero;"/>
        </g>
        <g transform="matrix(1,0,0,1,-332.662,-272.166)">
            <path d="M741.211,931.552L686.661,931.823L659.441,864.939L709.294,848.4L741.211,931.552Z" style="fill:rgb(237,125,43);fill-rule:nonzero;"/>
        </g>
        <g transform="matrix(1,0,0,1,-535.929,-91.814)">
            <path d="M1199.58,387.052C1200.81,388.843 1200.6,391.271 1199.09,392.829L1146.52,442.839C1145.92,443.427 1145.11,443.757 1144.27,443.757C1143.16,443.757 1142.13,443.192 1141.54,442.261C1140.33,440.466 1140.54,438.049 1142.03,436.484L1194.6,386.474C1195.2,385.882 1196.02,385.549 1196.86,385.549C1197.96,385.549 1198.99,386.118 1199.58,387.052Z" style="fill:rgb(249,151,70);fill-rule:nonzero;"/>
        </g>
        <g transform="matrix(1,0,0,1,-547.017,-173.282)">
            <path d="M1241.71,601.378C1241.68,603.406 1240.01,605.061 1237.98,605.061C1237.93,605.061 1237.89,605.06 1237.84,605.058L1170.19,597.294C1168.13,596.876 1166.73,594.892 1167.03,592.805C1167.05,590.777 1168.73,589.122 1170.75,589.122C1170.8,589.122 1170.85,589.123 1170.89,589.125L1238.54,596.889C1240.6,597.312 1242,599.291 1241.71,601.378Z" style="fill:rgb(249,151,70);fill-rule:nonzero;"/>
        </g>
        <g transform="matrix(1,0,0,1,-544.772,-134.64)">
            <path d="M1263.49,495.7C1263.92,497.777 1262.67,499.863 1260.64,500.472L1165.86,520.477C1165.7,520.5 1165.53,520.512 1165.36,520.512C1163.48,520.512 1161.9,519.05 1161.75,517.177C1161.32,515.1 1162.57,513.014 1164.6,512.405L1259.38,492.4C1259.54,492.377 1259.71,492.365 1259.88,492.365C1261.76,492.365 1263.34,493.827 1263.49,495.7Z" style="fill:rgb(249,151,70);fill-rule:nonzero;"/>
        </g>
        <g transform="matrix(1,0,0,1,-408.21,-325.632)">
            <path d="M838.33,987.882C838.33,987.882 838.33,983.613 838.856,982.192C839.382,980.771 841.3,975 841.3,975L848.81,975C849.442,977.299 849.938,979.633 850.295,981.99C850.382,983.711 850.295,987.882 850.295,987.882L838.33,987.882Z" style="fill:rgb(35,56,98);fill-rule:nonzero;"/>
        </g>
        <g transform="matrix(1,0,0,1,-434.311,-325.632)">
            <path d="M912.136,987.882C912.136,987.882 912.136,983.613 911.61,982.192C911.084,980.771 909.166,975 909.166,975L901.656,975C901.024,977.299 900.528,979.633 900.171,981.99C900.084,983.711 900.171,987.882 900.171,987.882L912.136,987.882Z" style="fill:rgb(35,56,98);fill-rule:nonzero;"/>
        </g>
        <g transform="matrix(1,0,0,1,-414.055,-166.919)">
            <path d="M861.777,579C861.777,579 861.511,588.5 860.466,592.76L852.166,599.478L883.4,604.9L875.954,592.959C875.954,592.959 873.707,580.25 874.885,575.507C876.063,570.764 861.777,579 861.777,579Z" style="fill:rgb(255,178,125);fill-rule:nonzero;"/>
        </g>
        <g transform="matrix(1,0,0,1,-421.045,-171.848)">
            <path d="M868.72,584.9C868.72,584.9 871.192,591.8 875.843,591.647C880.494,591.494 881.556,585.391 881.556,585.391L868.72,584.9Z" style="fill:rgb(237,152,95);fill-rule:nonzero;"/>
        </g>
        <g id="路径_12250" transform="matrix(1,0,0,1,-416.734,-148.652)">
            <path d="M861.636,555.145C861.636,555.145 860.136,546.445 859.083,543.811C858.03,541.177 857.159,529.411 868.783,528.791C868.783,528.791 873.237,529.398 875.715,527.67C875.715,527.67 875.715,529.403 875.103,529.981C877.858,529.442 880.684,530.601 882.266,532.921C885.386,536.976 880.166,551.17 880.429,554.515L861.636,555.145Z" style="fill:rgb(44,58,100);fill-rule:nonzero;"/>
        </g>
        <g id="路径_12251" transform="matrix(1,0,0,1,-418.861,-156.273)">
            <path d="M873.128,572.924C869.754,572.855 863.55,567.644 863.55,561.197L863.55,551.111C863.55,548.76 864.965,546.83 866.698,546.83L879.557,546.83C881.29,546.83 882.699,548.76 882.699,551.111L882.699,560.611C882.7,567.372 876.993,572.982 873.128,572.924Z" style="fill:rgb(255,178,125);fill-rule:nonzero;"/>
        </g>
        <g id="路径_12252" transform="matrix(1,0,0,1,-418.548,-155.053)">
            <path d="M863.237,554.825C863.237,554.825 863.237,548.777 867.385,547.847C871.533,546.917 880.753,550.793 882.064,546.386C883.375,541.979 864.202,542.053 863.237,544.867C862.272,547.681 863.237,554.825 863.237,554.825Z" style="fill:rgb(44,58,100);fill-rule:nonzero;"/>
        </g>
        <g id="路径_12253" transform="matrix(1,0,0,1,-407.8,-226.996)">
            <path d="M838.885,741.44C838.885,741.44 840.196,788.018 838.232,814.592C836.268,841.166 838.232,878.137 838.232,878.137C842.274,880.495 847.29,880.495 851.332,878.137C855.374,875.779 858.807,826.793 858.761,814.592C858.703,801.583 866.889,743.492 866.889,743.492L838.885,741.44Z" style="fill:rgb(43,71,139);fill-rule:nonzero;"/>
        </g>
        <g id="路径_12254" transform="matrix(1,0,0,1,-421.936,-226.95)">
            <path d="M899.489,878.1C895.446,880.456 890.432,880.456 886.389,878.1C882.346,875.744 878.92,826.761 878.966,814.555C878.966,809.061 877.539,795.491 875.858,781.714C873.547,762.824 870.832,743.437 870.832,743.437L899.941,741.328C899.941,741.328 897.541,787.982 899.502,814.555C901.463,841.128 899.489,878.1 899.489,878.1Z" style="fill:rgb(43,71,139);fill-rule:nonzero;"/>
        </g>
        <g id="路径_12255" transform="matrix(1,0,0,1,-407.948,-177.936)">
            <path d="M885.6,692.184C877.795,693.858 869.849,694.79 861.869,694.968C856.986,694.895 852.114,694.465 847.294,693.68C842.574,692.952 839.206,692.18 839.206,692.18C839.206,692.18 836.693,692.434 838.178,678.038C839.333,667.062 838.952,657.195 838.704,647.022C838.704,645.867 838.704,644.549 838.756,643.059C839.236,631.199 842.332,609.842 844.689,608.693C847.807,607.522 851.066,606.766 854.382,606.446C854.382,606.585 857.975,612.679 862.239,613.378C864.891,612.159 866.97,611.125 869.87,606.654C873.924,607.209 877.925,608.105 881.828,609.334C885.731,610.563 882.273,611.593 883.954,650.846C884.6,666.39 889.175,692.265 885.6,692.184Z" style="fill:white;fill-rule:nonzero;"/>
        </g>
        <g id="路径_12256" transform="matrix(1,0,0,1,-425.61,-249.027)">
            <path d="M882.638,832.236C882.638,826.742 881.211,813.172 879.53,799.395C880.85,793.776 882.863,788.343 885.521,783.22C890.893,800.695 882.638,832.236 882.638,832.236Z" style="fill:rgb(35,56,98);fill-rule:nonzero;"/>
        </g>
        <g id="路径_12257" transform="matrix(1,0,0,1,-389.257,-179.621)">
            <path d="M808.516,656.887C808.221,657.17 809.255,660.139 810.775,664.01C813.906,671.953 819.099,683.692 819.099,683.692C818.704,685.513 818.177,687.303 817.522,689.047C810.802,683.09 804.772,676.397 799.545,669.094C794.485,661.781 793.451,657.587 793.451,657.587C812.919,611.609 826.616,609.911 826.616,609.911L825,640.3C825,640.3 809.423,656.015 808.516,656.887Z" style="fill:white;fill-rule:nonzero;"/>
        </g>
        <g id="路径_12258" transform="matrix(1,0,0,1,-406.729,-230.688)">
            <path d="M835.537,736.367C835.537,736.367 840.257,731.295 842.175,734.137C844.093,736.979 844.451,741.437 842.961,741.137C841.471,740.837 838.42,739.208 837.981,740.022C837.542,740.836 835.589,742.379 834.994,741.148C834.399,739.917 835.537,736.367 835.537,736.367Z" style="fill:rgb(255,178,125);fill-rule:nonzero;"/>
        </g>
        <g id="路径_12259" transform="matrix(1,0,0,1,-393.713,-218.375)">
            <path d="M823.555,723.242C823.16,725.063 822.633,726.853 821.978,728.597C815.258,722.64 809.227,715.947 804,708.644C806.715,708.413 810.672,707.286 815.23,703.56C818.361,711.5 823.555,723.242 823.555,723.242Z" style="fill:rgb(255,178,125);fill-rule:nonzero;"/>
        </g>
        <g id="路径_12260" transform="matrix(1,0,0,1,-439.213,-179.942)">
            <path d="M944.24,657.915C944.24,657.915 943.2,662.109 938.14,669.422C932.912,676.724 926.882,683.416 920.163,689.375C919.508,687.631 918.981,685.841 918.586,684.02C918.191,682.199 923.786,672.281 926.91,664.338C928.429,660.468 929.463,657.498 929.169,657.215C928.469,656.539 918.95,646.944 914.727,642.663L912.711,640.63L911.74,610.689C911.74,610.689 924.784,611.938 944.24,657.915Z" style="fill:white;fill-rule:nonzero;"/>
        </g>
        <g id="路径_12261" transform="matrix(1,0,0,1,-438.882,-230.688)">
            <path d="M919.3,736.367C919.3,736.367 914.586,731.295 912.662,734.137C910.738,736.979 910.392,741.437 911.876,741.137C913.36,740.837 916.417,739.208 916.856,740.022C917.295,740.836 919.248,742.379 919.843,741.148C920.438,739.917 919.3,736.367 919.3,736.367Z" style="fill:rgb(255,178,125);fill-rule:nonzero;"/>
        </g>
        <g id="路径_12262" transform="matrix(1,0,0,1,-444.226,-218.375)">
            <path d="M923.61,723.242C924.005,725.063 924.532,726.853 925.187,728.597C931.909,722.641 937.939,715.948 943.164,708.644C940.455,708.413 936.492,707.286 931.934,703.56C928.8,711.5 923.61,723.242 923.61,723.242Z" style="fill:rgb(255,178,125);fill-rule:nonzero;"/>
        </g>
        <g id="路径_12263" transform="matrix(1,0,0,1,-419.136,-178.745)">
            <path d="M865.979,602.44C865.051,602.974 864.401,603.888 864.2,604.94C863.999,605.992 869.763,611.578 873.4,611.682L865.979,602.44Z" style="fill:rgb(237,125,43);fill-rule:nonzero;"/>
        </g>
        <g id="路径_12264" transform="matrix(1,0,0,1,-425.863,-178.506)">
            <path d="M880.13,611.432L887.311,601.86C888.209,602.597 888.743,603.69 888.772,604.852C888.801,606.014 883.215,611.686 880.13,611.432Z" style="fill:rgb(237,125,43);fill-rule:nonzero;"/>
        </g>
        <g id="路径_12265" transform="matrix(1,0,0,1,-422.011,-182.731)">
            <path d="M874.984,617.18C874.984,617.18 869.502,672.06 871.414,678.761C872.263,681.691 873.38,684.537 874.753,687.261C875.034,687.939 875.7,688.383 876.434,688.383C877.168,688.383 877.834,687.939 878.115,687.261C879.571,684.326 881.471,680.086 881.471,677.931C881.471,674.465 877.318,617.131 877.318,617.131L874.984,617.18Z" style="fill:rgb(249,151,70);fill-rule:nonzero;"/>
        </g>
        <g id="路径_12266" transform="matrix(1,0,0,1,-423.544,-182.745)">
            <path d="M875.084,612.4C876.851,612.191 878.634,612.14 880.41,612.25C880.707,612.321 880.919,612.59 880.919,612.896C880.919,613.007 880.891,613.117 880.837,613.215C880.259,614.37 879.104,616.444 877.914,616.444C876.222,616.443 873.582,612.532 875.084,612.4Z" style="fill:rgb(237,125,43);fill-rule:nonzero;"/>
        </g>
        <g id="路径_12267" transform="matrix(1,0,0,1,-423.9,-170.146)">
            <path d="M875.48,580.558C876.126,581.525 877.205,582.119 878.368,582.147C879.474,582.094 880.485,581.499 881.068,580.558C879.221,580.226 877.329,580.226 875.482,580.558L875.48,580.558Z" style="fill:white;fill-rule:nonzero;"/>
        </g>
        <g id="路径_12272" transform="matrix(1,0,0,1,-221.263,-160.746)">
            <path d="M397.341,567.266C397.341,567.266 393.557,559.466 397.341,557.873C401.125,556.28 402.841,557.746 403.02,559.525C403.199,561.304 401.582,568.312 401.582,568.312L397.341,567.266Z" style="fill:rgb(255,178,125);fill-rule:nonzero;"/>
        </g>
        <g id="路径_12273" transform="matrix(1,0,0,1,-185.1,-165.14)">
            <path d="M364.211,623.1C357.973,624.43 351.627,625.192 345.251,625.376C340.376,625.514 335.498,625.259 330.664,624.613C329.509,624.463 328.417,624.29 327.364,624.105C316.186,622.141 310.034,618.652 310.034,618.652C310.034,618.652 320.213,593.835 328.456,594.759C338.138,595.88 354.538,605.959 356.185,603.13C358.016,599.947 359.553,572.64 359.553,572.64C363.845,569.232 366.41,572.825 366.41,572.825C366.41,572.825 374.771,620.885 364.211,623.1Z" style="fill:rgb(27,144,251);fill-rule:nonzero;"/>
        </g>
        <g id="路径_12274" transform="matrix(1,0,0,1,-198.325,-192.47)">
            <path d="M377.436,651.109C371.198,652.439 364.852,653.2 358.476,653.385C353.601,653.523 348.724,653.267 343.89,652.622C341.319,643.122 339.465,633.422 344.641,639.272C353.763,649.573 377.436,651.109 377.436,651.109Z" style="fill:rgb(0,109,209);fill-rule:nonzero;"/>
        </g>
        <g id="路径_12275" transform="matrix(1,0,0,1,-184.4,-336.657)">
            <path d="M308.521,1004.92C308.521,1004.92 307.787,1014.78 309.578,1015.81L332.57,1015.75C332.57,1015.75 332.57,1012.67 328.879,1011.99C325.188,1011.31 318.7,1008.8 317.603,1003.21C316.506,997.625 308.521,1004.92 308.521,1004.92Z" style="fill:rgb(35,56,98);fill-rule:nonzero;"/>
        </g>
        <g id="路径_12276" transform="matrix(1,0,0,1,-175.479,-229.622)">
            <path d="M316.475,778.554C316.359,785.001 316.094,791.654 315.575,797.618C313.091,825.982 312.219,860.25 311.861,866.853C311.243,878.32 309.29,896.644 309.29,896.644C309.29,896.644 305.42,900.907 297.869,898.874C293.874,881.049 291.314,862.933 290.215,844.699C290.215,844.243 290.175,843.786 290.157,843.33C289.989,839.656 289.822,835.456 289.649,830.93C288.494,800.59 287.249,755.53 287.249,755.53L316.093,747.668C316.093,747.668 316.758,762.478 316.475,778.554Z" style="fill:rgb(16,43,94);fill-rule:nonzero;"/>
        </g>
        <g id="路径_12277" transform="matrix(1,0,0,1,-175.479,-229.626)">
            <path d="M289.647,830.937C288.492,800.597 287.247,755.537 287.247,755.537L316.091,747.675C316.091,747.675 295.228,820.158 289.647,830.937Z" style="fill:rgb(35,56,98);fill-rule:nonzero;"/>
        </g>
        <g id="路径_12280" transform="matrix(1,0,0,1,-142.627,-228.428)">
            <path d="M278.7,755.02C278.7,755.02 251.7,822.031 237.326,851.493C222.952,880.955 218.442,889.093 218.442,889.093C218.442,889.093 210.21,885.332 209.465,882.767C209.465,882.767 214.959,825.981 224.583,812.134C230.019,804.312 236.408,780.841 236.714,772.634C237.02,764.427 243.323,744.834 243.323,744.834L278.7,755.02Z" style="fill:rgb(16,43,94);fill-rule:nonzero;"/>
        </g>
        <g id="路径_12281" transform="matrix(1,0,0,1,-163.777,-174.699)">
            <path d="M307.753,696.887C300.164,702.175 291.044,704.826 281.803,704.432C275.137,704.091 261.903,701.902 259.77,695.767C259.27,694.323 259.631,692.486 260.388,689.672C262.335,682.359 266.888,668.425 265.512,637.536C265.386,634.839 265.446,632.137 265.691,629.448C267.124,614.232 274.639,605.22 281.901,602.297C299.619,595.116 305.522,605.07 305.522,605.07C305.522,605.07 313.35,612.27 314.534,627.288C316.892,657.281 307.753,696.887 307.753,696.887Z" style="fill:rgb(27,144,251);fill-rule:nonzero;"/>
        </g>
        <g id="路径_12282" transform="matrix(1,0,0,1,-183.922,-164.788)">
            <path d="M307.24,587.206C307.24,587.206 315.368,592.937 324.183,591.319C324.183,591.319 325.916,590.805 325.067,588.431C325.604,586.513 325.541,586.698 325.853,585.26C326.627,581.985 326.858,580.095 326.858,580.095L321.858,573.995L317.121,568.16C315.813,582.1 307.24,587.206 307.24,587.206Z" style="fill:rgb(255,178,125);fill-rule:nonzero;"/>
        </g>
        <g id="路径_12283" transform="matrix(1,0,0,1,-190.577,-168.71)">
            <path d="M323,577.31C323,577.31 325.721,585.756 332.491,589.124C333.265,585.848 333.768,582.424 333.768,582.424L328.494,577.86L323,577.31Z" style="fill:rgb(237,152,95);fill-rule:nonzero;"/>
        </g>
        <g id="路径_12284" transform="matrix(1,0,0,1,-189.363,-152.433)">
            <path d="M337.915,566.791C337.915,566.791 322.398,569.038 321.315,557.976C320.232,546.914 317.491,539.756 327.352,537.85C337.213,535.944 339.552,539.924 340.702,543.517C341.852,547.11 341.924,565.919 337.915,566.791Z" style="fill:rgb(255,178,125);fill-rule:nonzero;"/>
        </g>
        <g id="路径_12285" transform="matrix(1,0,0,1,-185.805,-147.761)">
            <path d="M312.855,531.022C312.722,530.831 312.404,530.664 311.7,530.589C312.107,530.34 312.575,530.208 313.052,530.208C313.243,529.053 313.843,527.025 315.577,526.608C314.976,526.998 314.574,527.631 314.477,528.341C316.545,526.03 320.872,524.511 332.651,526.111C348.179,528.22 342.668,539.565 340.611,540.859C338.554,542.153 333.598,538.144 329.826,538.323C326.054,538.502 325.141,544.776 323.835,545.584C322.529,546.392 323.084,544.884 321.391,543.903C319.698,542.922 319.421,546.214 319.849,548.409C320.277,550.604 317.816,553.325 317.816,553.325L315.505,550.225C313.194,547.125 311.363,534.356 312.541,531.704L312.855,531.022Z" style="fill:rgb(29,42,73);fill-rule:nonzero;"/>
        </g>
        <g id="路径_12286" transform="matrix(1,0,0,1,-201.904,-159.613)">
            <path d="M376.336,560.774L350,561.051L349.821,556.451L376.077,554.088L376.336,560.774Z" style="fill:rgb(42,78,150);fill-rule:nonzero;"/>
        </g>
        <g id="路径_12287" transform="matrix(1,0,0,1,-214.62,-157.465)">
            <path d="M408.935,559.354L380.259,559.839L379.93,551.48L408.53,548.909L408.935,559.354Z" style="fill:rgb(42,78,150);fill-rule:nonzero;"/>
        </g>
        <g id="路径_12288" transform="matrix(1,0,0,1,-231.96,-155.547)">
            <path d="M445.611,558.045L421.429,558.08L420.99,546.792L445.074,544.25L445.611,558.045Z" style="fill:rgb(35,56,98);fill-rule:nonzero;"/>
        </g>
        <g id="路径_12289" transform="matrix(1,0,0,1,-248.751,-154.133)">
            <path d="M462.748,558.541C463.545,558.432 464.119,557.7 464.036,556.9L463.458,542.406C463.459,542.387 463.459,542.368 463.459,542.35C463.459,541.57 462.828,540.924 462.048,540.906C461.251,541.012 460.675,541.741 460.754,542.541L461.332,557.041C461.331,557.058 461.331,557.075 461.331,557.091C461.331,557.874 461.965,558.523 462.747,558.541L462.748,558.541Z" style="fill:rgb(35,56,98);fill-rule:nonzero;"/>
        </g>
        <g id="路径_12290" transform="matrix(1,0,0,1,-200.948,-160.58)">
            <path d="M348.968,563.051C348.271,563.032 347.708,562.454 347.708,561.757C347.708,561.744 347.709,561.73 347.709,561.717L347.565,557.956C347.491,557.242 348.008,556.59 348.72,556.5C349.417,556.519 349.979,557.097 349.979,557.794L349.979,557.829L350.123,561.59C350.194,562.304 349.679,562.955 348.968,563.051Z" style="fill:rgb(42,78,150);fill-rule:nonzero;"/>
        </g>
        <g id="路径_12291" transform="matrix(1,0,0,1,-164.394,-196.49)">
            <path d="M261,711.38C262.947,704.067 267.5,690.133 266.124,659.244C265.998,656.547 266.058,653.845 266.303,651.156C272.132,650.578 281.04,657.886 281.04,657.886C281.04,657.886 275.563,696.689 261,711.38Z" style="fill:rgb(0,109,209);fill-rule:nonzero;"/>
        </g>
        <g id="路径_12292" transform="matrix(1,0,0,1,-142.07,-175.768)">
            <path d="M265.388,601.13C265.388,601.13 250.438,604.111 242.645,615.15C234.852,626.189 222.305,641.77 219.345,647.223C216.385,652.676 208.145,689.781 208.145,689.781C208.145,689.781 208.688,690.981 210.958,691.67C212.205,692.076 213.567,691.944 214.713,691.306C215.859,690.668 225.613,669.649 229.733,658.829C231.433,654.335 260.928,636.529 272.019,638.379C276.358,639.1 265.388,601.13 265.388,601.13Z" style="fill:rgb(27,144,251);fill-rule:nonzero;"/>
        </g>
        <g id="路径_12293" transform="matrix(1,0,0,1,-221.174,-157.963)">
            <path d="M395.45,550.914C395.45,550.914 398.668,553.225 400.591,552.231C402.514,551.237 402.324,550.382 402.324,550.382C402.324,550.382 396.53,548.511 395.45,550.914Z" style="fill:rgb(255,178,125);fill-rule:nonzero;"/>
        </g>
        <g id="路径_12294" transform="matrix(1,0,0,1,-151.995,-183.911)">
            <path d="M289.818,621.437C289.818,621.437 283.261,669.494 236.712,683.486L231.64,695.092L240.548,696.825C240.548,696.825 293.539,679.009 292.822,620.571L289.818,621.437Z" style="fill:rgb(188,63,63);fill-rule:nonzero;"/>
        </g>
        <g id="路径_12295" transform="matrix(1,0,0,1,-192.212,-181.306)">
            <path d="M329.019,608.79L326.87,609.033L326.87,612.643L330.036,616.461L333.046,615.612L333.046,610.6L330.88,608.786L329.019,608.79Z" style="fill:rgb(160,46,46);fill-rule:nonzero;"/>
        </g>
        <g id="路径_12296" transform="matrix(1,0,0,1,-182.625,-174.471)">
            <path d="M311,592.25C311,592.25 308.92,592.793 304.166,597.38C304.166,597.38 308.897,609.02 318.874,610.418C318.783,607.535 318.976,604.65 319.452,601.805C319.432,601.8 311.524,598.518 311,592.25Z" style="fill:rgb(237,125,43);fill-rule:nonzero;"/>
        </g>
        <g id="路径_12297" transform="matrix(1,0,0,1,-193.783,-179.033)">
            <path d="M330.59,606.459C330.59,606.459 335.454,609.459 335.818,614.131C335.818,614.131 337.678,610.711 337.141,608.354C336.637,606.567 335.893,604.857 334.929,603.271C333.965,601.685 335.1,606.112 330.59,606.459Z" style="fill:rgb(237,125,43);fill-rule:nonzero;"/>
        </g>
        <g id="路径_12321" transform="matrix(1,0,0,1,-274.765,-72.379)">
            <path d="M526.86,336.776C527.189,335.349 526.46,334.211 525.237,334.24C523.836,334.43 522.702,335.494 522.424,336.88C522.1,338.313 522.824,339.451 524.047,339.422C525.449,339.23 526.582,338.164 526.86,336.776Z" style="fill:white;fill-rule:nonzero;"/>
        </g>
    </g>
    <defs>
        <linearGradient id="_Linear1" x1="0" y1="0" x2="1" y2="0" gradientUnits="userSpaceOnUse" gradientTransform="matrix(5.70666e-14,931.969,-931.969,5.70666e-14,1064.7,0)"><stop offset="0" style="stop-color:rgb(170,201,249);stop-opacity:1"/><stop offset="1" style="stop-color:rgb(97,147,247);stop-opacity:1"/></linearGradient>
    </defs>
</svg>
