<?xml version="1.0" encoding="UTF-8" standalone="no"?>
<!DOCTYPE svg PUBLIC "-//W3C//DTD SVG 1.1//EN" "http://www.w3.org/Graphics/SVG/1.1/DTD/svg11.dtd">
<svg width="100%" height="100%" viewBox="0 0 64 64" version="1.1" xmlns="http://www.w3.org/2000/svg" xmlns:xlink="http://www.w3.org/1999/xlink" xml:space="preserve" xmlns:serif="http://www.serif.com/" style="fill-rule:evenodd;clip-rule:evenodd;stroke-linecap:round;stroke-linejoin:round;">
    <path d="M4.039,57.969C3.897,57.998 3.788,58.115 3.769,58.259C3.734,58.509 3.571,59.599 3.571,59.599C3.571,59.599 3.463,59.919 4.236,60.071C5.009,60.224 8.748,60.943 8.748,60.943C8.759,60.631 8.682,60.322 8.526,60.052C7.915,59.062 5.694,58.303 5.694,58.303C5.694,58.303 5.369,58.49 4.783,58.377C4.196,58.264 4.039,57.969 4.039,57.969Z" style="fill:rgb(55,179,127);fill-rule:nonzero;"/>
    <path d="M4.393,55.93L4.039,57.968L4.009,58.388L5.374,58.698L5.694,58.304L6.339,55.422L4.393,55.93Z" style="fill:rgb(255,223,215);fill-rule:nonzero;"/>
    <path d="M5.083,37.952C4.556,39.222 4.347,40.602 4.473,41.972C5.043,47.7 3.275,57.22 3.275,57.22L6.717,57.782C6.717,57.782 8.697,45.842 9.003,43.907C9.308,41.972 9.687,37.957 9.687,37.957L5.083,37.957L5.083,37.952Z" style="fill:rgb(40,52,68);fill-rule:nonzero;"/>
    <path d="M40.048,24.25C40.048,24.25 38.472,23.457 37.94,22.654C37.408,21.851 37.896,21.127 38.22,21.064C38.546,20.999 39.782,22.29 39.782,22.29C39.782,22.29 39.576,21.644 39.856,21.507C40.137,21.369 40.766,23.334 40.766,23.334L40.048,24.25Z" style="fill:rgb(255,223,215);fill-rule:nonzero;"/>
    <path d="M49.647,28.875C49.647,28.875 46.367,27.422 44.55,26.338C42.801,25.294 40.782,23.28 40.782,23.28L39.954,24.2C39.954,24.2 40.004,24.304 40.034,24.373C40.364,25.107 45.042,29.988 49.032,31.485L49.647,28.875Z" style="fill:rgb(0,67,129);fill-rule:nonzero;"/>
    <path d="M6.526,30.136C6.526,30.136 7.171,26.491 10.939,26.668C14.712,26.841 15.771,35.292 21.302,34.445C26.833,33.598 25.769,33.041 29.902,30.416C34.034,27.791 40.624,30.584 44.476,38.011C48.327,45.438 55.479,38.533 62.177,44.025C68.881,49.516 55.701,56.412 45.249,51.58C34.797,46.748 21.686,52.417 16.776,50.94C11.866,49.463 4.709,38.962 6.526,30.136Z" style="fill:white;fill-opacity:0.29;fill-rule:nonzero;"/>
    <path d="M31.384,54.304C31.384,54.304 26.504,47.34 26.514,43.104C26.523,38.868 31.049,38.366 31.384,44.316C31.719,50.26 31.384,54.304 31.384,54.304Z" style="fill:rgb(255,213,116);fill-rule:nonzero;"/>
    <path d="M31.384,54.304C31.384,54.304 31.97,47.586 35.571,45.66C39.171,43.734 40.206,46.354 39.901,47.098C39.59,47.838 31.384,54.304 31.384,54.304Z" style="fill:rgb(255,213,116);fill-rule:nonzero;"/>
    <path d="M31.384,54.304C31.384,54.304 29.266,51.521 26.514,51.398C23.76,51.27 26.784,53.28 31.384,54.304Z" style="fill:rgb(237,133,195);fill-rule:nonzero;"/>
    <path d="M31.384,54.304L28.424,42.912M36.576,47.389C33.67,49.438 31.384,54.304 31.384,54.304C31.384,54.304 28.872,52.472 26.878,52.064" style="fill:none;stroke:white;stroke-width:0.26px;"/>
    <path d="M44.372,61.008L63.246,61.008" style="fill:none;stroke:rgb(206,213,229);stroke-width:0.26px;"/>
    <path d="M50.647,59.215C50.698,59.339 50.74,59.467 50.77,59.599C50.84,59.885 50.898,60.426 50.898,60.426L49.303,60.958C48.627,61.184 47.918,61.299 47.205,61.298L46.8,61.298C46.8,61.298 47.09,60.544 47.76,60.096C48.43,59.648 49.322,59.362 49.322,59.362C49.322,59.362 49.755,59.53 50.022,59.495C50.251,59.459 50.467,59.362 50.646,59.215L50.647,59.215ZM56.547,58.15C56.627,58.26 56.694,58.378 56.75,58.5C56.878,58.762 57.05,59.284 57.05,59.284C57.05,59.284 55.7,60.112 54.582,60.614C53.972,60.889 53.395,60.998 53.228,61.003C53.228,61.003 53.351,60.205 53.912,59.623C54.474,59.043 55.282,58.575 55.282,58.575C55.282,58.575 55.739,58.648 55.992,58.555C56.242,58.461 56.499,58.24 56.547,58.151L56.547,58.15Z" style="fill:rgb(237,133,195);fill-rule:nonzero;"/>
    <path d="M11.057,57.422L11.501,58.983L11.708,59.54L13.092,59.54L13.195,58.983L12.623,56.156L11.057,57.422Z" style="fill:rgb(255,223,215);fill-rule:nonzero;"/>
    <path d="M9.654,38.277L14.09,58.24L10.58,58.24C10.58,58.24 5.31,42.104 5,40.5C4.694,38.894 5.004,37.81 5.004,37.81L9.654,38.278L9.654,38.277Z" style="fill:rgb(40,52,68);fill-rule:nonzero;"/>
    <path d="M10.58,58.24C10.58,58.24 5.31,42.103 5,40.497C4.694,38.892 5.004,37.808 5.004,37.808" style="fill:none;stroke:rgb(206,213,229);stroke-width:0.26px;"/>
    <path d="M54.839,40.804L56.72,58.26C56.72,58.26 56.065,58.752 54.888,58.811L53.578,53.738L50.435,41.006C50.435,41.001 53.455,39.661 54.839,40.804Z" style="fill:rgb(206,213,229);fill-rule:nonzero;"/>
    <path d="M18.061,20.413L18.801,19.807L19.391,17.767C19.391,17.767 19.721,17.556 19.588,18.689C19.588,18.689 20.361,17.753 20.864,17.419C21.366,17.083 21.736,18.418 21.436,18.919C21.229,19.265 18.766,21.274 18.766,21.274L18.061,20.414L18.061,20.413Z" style="fill:rgb(255,223,215);fill-rule:nonzero;"/>
    <g transform="matrix(0.08533,0,0,0.08533,17.6,3.74)">
        <circle cx="109.983" cy="109.983" r="109.983" style="fill:rgb(254,206,169);"/>
    </g>
    <path d="M19.445,20.97L20.185,20.364L20.775,18.324C20.775,18.324 21.105,18.113 20.972,19.245C20.972,19.245 21.745,18.31 22.248,17.975C22.75,17.64 23.12,18.975 22.819,19.476C22.613,19.821 20.149,21.831 20.149,21.831L19.445,20.97ZM7.472,26.703C7.472,26.703 7.738,25.743 7.742,24.998L8.55,25.373L8.743,26.816L7.472,26.703Z" style="fill:rgb(255,223,215);fill-rule:nonzero;"/>
    <path d="M9.403,26.737L17.938,20.295C18.386,20.396 18.765,20.695 18.968,21.108L10.55,28.574C10.55,28.574 9.403,28.446 9.403,26.737Z" style="fill:rgb(82,203,150);fill-rule:nonzero;"/>
    <path d="M7.689,26.575C7.689,26.575 6.389,26.954 5.26,30.426C4.133,33.899 3.64,38.996 3.64,38.996C3.64,38.996 5.147,38.913 11.038,39.218L10.984,30.535L20.179,21.975C20.179,21.975 20.041,21.132 19.347,20.837L11.777,26.624L10.477,27.334C10.481,27.328 8.777,26.102 7.689,26.574L7.689,26.575Z" style="fill:rgb(66,252,252);fill-rule:nonzero;"/>
    <g transform="matrix(0.08533,0,0,0.08533,-2.196,-8.062)">
        <path d="M116.417,389.567C116.417,389.567 106.605,385.757 97.197,366.71C83.633,339.351 98.525,329.655 113.297,326.71C128.766,323.651 135.057,348.585 138.924,362.149C142.733,375.713 145.446,383.159 142.099,386.275C138.694,389.45 131.652,392.975 126.284,394.125C120.861,395.339 116.417,389.567 116.417,389.567Z" style="fill:none;fill-rule:nonzero;"/>
    </g>
    <path d="M7.738,25.18C7.738,25.18 6.472,24.797 5.866,23.546C5.26,22.294 4.999,21.256 5.733,20.581C6.467,19.906 6.438,19.241 7.994,19.291C9.556,19.339 9.181,20.591 8.959,20.837C8.738,21.083 8.112,21.417 8.112,21.417L8.585,23.245L8.354,23.388C8.354,23.388 8.324,22.822 7.959,22.61C7.595,22.398 7.221,22.782 7.565,23.486C7.905,24.191 7.812,24.57 7.738,25.181L7.738,25.18Z" style="fill:rgb(40,52,68);fill-rule:nonzero;"/>
    <path d="M19.347,20.837L11.777,26.624L10.477,27.334C10.477,27.334 9.614,26.86 9.397,26.737" style="fill:none;stroke:rgb(155,255,255);stroke-width:0.26px;"/>
    <path d="M49.106,41.557L49.106,59.283C49.552,59.598 50.145,59.619 50.613,59.338C51.416,58.855 55.287,39.947 55.287,39.947C55.287,39.947 50.549,39.947 49.106,41.557Z" style="fill:rgb(206,213,229);fill-rule:nonzero;"/>
    <path d="M27.291,13.508L40.861,13.508L40.861,27.077L27.29,27.077L27.291,13.508Z" style="fill:rgb(82,203,150);fill-opacity:0.8;"/>
    <path d="M38.595,27.993C38.595,27.993 37.019,27.2 36.487,26.397C35.955,25.595 36.443,24.87 36.767,24.807C37.093,24.742 38.329,26.033 38.329,26.033C38.329,26.033 38.123,25.388 38.403,25.25C38.684,25.112 39.313,27.077 39.313,27.077L38.595,27.993Z" style="fill:rgb(255,223,215);fill-rule:nonzero;"/>
    <path d="M55.287,39.947L55.065,41.016L52.248,53.806C52.248,53.806 51.44,57.565 50.687,59.249" style="fill:none;stroke:rgb(241,242,247);stroke-width:0.26px;"/>
    <path d="M47.722,23.142C47.722,23.142 47.702,25.284 48.13,26.417C48.559,27.555 49.165,27.422 50.322,26.624C51.48,25.821 51.238,24.782 51.184,24.132C51.13,23.482 50.721,22.157 49.48,22.009C48.239,21.861 47.83,22.674 47.722,23.142Z" style="fill:rgb(255,223,215);fill-rule:nonzero;"/>
    <path d="M49.647,26.683C49.647,26.683 49.962,27.313 49.766,28.407L51.101,28.239C51.101,28.239 50.455,26.644 50.396,25.934L49.647,26.683Z" style="fill:rgb(255,223,215);fill-rule:nonzero;"/>
    <path d="M47.722,23.142C47.722,23.142 47.938,24.033 48.982,23.875C48.982,23.875 49.628,26.925 50.908,27.86C50.908,27.86 53.933,27.5 54.533,26.619C54.533,26.619 51.953,23.674 51.238,22.609C50.524,21.551 49.362,21.324 48.638,21.689C47.914,22.053 47.525,22.625 47.722,23.142Z" style="fill:rgb(255,192,34);fill-rule:nonzero;"/>
    <path d="M38.6,28.052C38.6,28.052 44.609,32.318 49.017,33.78L49.529,30.032C49.529,30.032 45.145,29.244 43.343,28.574C41.54,27.904 39.433,27.052 39.433,27.052C39.433,27.052 38.501,27.18 38.6,28.052Z" style="fill:rgb(0,67,129);fill-rule:nonzero;"/>
    <path d="M48.175,42.533C48.175,42.533 48.982,36.539 49.012,34.627C49.042,32.721 48.761,28.51 50.268,28.087C51.775,27.663 52.868,30.737 53.701,33.446C54.494,36.016 56.213,39.956 56.213,39.956C56.213,39.956 54.538,41.68 52.193,42.139C49.849,42.597 48.175,42.533 48.175,42.533Z" style="fill:rgb(0,67,129);fill-rule:nonzero;"/>
    <path d="M11.5,58.983C11.366,59.041 11.283,59.178 11.294,59.323C11.314,59.575 11.368,60.673 11.368,60.673C11.368,60.673 11.328,61.007 12.112,61.003L16.707,60.969C16.658,60.662 16.522,60.374 16.317,60.14C15.525,59.289 13.195,58.983 13.195,58.983C13.195,58.983 12.915,59.23 12.314,59.234C11.717,59.239 11.501,58.984 11.501,58.984L11.5,58.983Z" style="fill:rgb(55,179,127);fill-rule:nonzero;"/>
    <path d="M49.53,30.032C49.53,30.032 45.146,29.244 43.343,28.574C41.54,27.904 39.433,27.052 39.433,27.052M49.14,29.958C49.249,29.539 49.394,29.131 49.573,28.737M1.143,61.008L20.017,61.008" style="fill:none;stroke:rgb(206,213,229);stroke-width:0.26px;"/>
    <path d="M31.66,60.943L30.885,60.943C28.836,60.933 27.154,59.25 27.144,57.201L27.144,54.304L35.408,54.304L35.408,57.2C35.396,59.25 33.71,60.933 31.66,60.943Z" style="fill:rgb(206,213,229);fill-rule:nonzero;"/>
</svg>
