<?xml version="1.0" encoding="UTF-8" standalone="no"?>
<!DOCTYPE svg PUBLIC "-//W3C//DTD SVG 1.1//EN" "http://www.w3.org/Graphics/SVG/1.1/DTD/svg11.dtd">
<svg width="100%" height="100%" viewBox="0 0 64 64" version="1.1" xmlns="http://www.w3.org/2000/svg" xmlns:xlink="http://www.w3.org/1999/xlink" xml:space="preserve" xmlns:serif="http://www.serif.com/" style="fill-rule:evenodd;clip-rule:evenodd;stroke-linejoin:round;stroke-miterlimit:2;">
    <g id="plant_16_" transform="matrix(0.0853333,0,0,0.0853333,40.5973,17.8671)">
        <g id="Path" transform="matrix(1,0,0,1,33.838,-0.297)">
            <path d="M125.137,102.326C111.166,126.556 39.374,202.145 28.32,186.382C22.859,178.596 49.157,149.229 75.22,48.066C84.36,12.586 108.535,-12.318 130.767,7.066C151.984,25.569 139.108,78.093 125.137,102.326Z" style="fill:rgb(27,144,251);fill-rule:nonzero;"/>
        </g>
        <g id="Path-2" transform="matrix(1,0,0,1,32.918,21.19)">
            <path d="M27.222,167.707C27,167.652 26.843,167.451 26.843,167.222C26.843,167.046 26.936,166.882 27.087,166.792C27.597,166.478 78.478,134.066 114.74,18.08C114.805,17.871 115,17.728 115.219,17.728C115.494,17.728 115.721,17.955 115.721,18.23C115.721,18.281 115.713,18.331 115.698,18.38C96.69,79.18 73.777,116.51 57.9,137.12C40.67,159.486 27.744,167.57 27.613,167.65C27.496,167.721 27.355,167.741 27.222,167.707Z" style="fill:rgb(243,249,255);fill-rule:nonzero;"/>
        </g>
        <g id="Path-3" transform="matrix(1,0,0,1,35.61,19.697)">
            <path d="M129.5,44.268C101.514,66.86 16.39,171.218 30.623,193.605C44.856,215.992 181.776,124.398 209.757,101.805C237.738,79.212 244.88,43.194 225.221,27.98C194.23,3.994 157.479,21.676 129.5,44.268Z" style="fill:rgb(158,149,227);fill-rule:nonzero;"/>
        </g>
        <g id="Path-4" transform="matrix(1,0,0,1,34.726,38.881)">
            <path d="M28.688,177.978C28.621,177.96 28.558,177.929 28.503,177.886C28.383,177.791 28.313,177.646 28.313,177.493C28.313,177.379 28.352,177.269 28.423,177.18C44.597,157.423 61.777,138.51 79.893,120.517C108.23,92.254 151.244,53.977 195.232,32.137C195.301,32.103 195.378,32.085 195.455,32.085C195.731,32.085 195.958,32.311 195.958,32.587C195.958,32.777 195.85,32.952 195.679,33.037C151.814,54.817 108.894,93.011 80.611,121.22C62.52,139.189 45.364,158.075 29.211,177.805C29.087,177.962 28.881,178.03 28.688,177.978Z" style="fill:rgb(243,249,255);fill-rule:nonzero;"/>
        </g>
        <g id="Path-5" transform="matrix(1,0,0,1,37.799,81.18)">
            <path d="M133.675,68.2C108.162,73.1 25.968,112.543 31.031,131.364C36.094,150.185 155.209,151.227 180.722,146.32C206.235,141.413 225.787,127.973 215.185,96.388C205.376,67.166 159.188,63.292 133.675,68.2Z" style="fill:rgb(27,144,251);fill-rule:nonzero;"/>
        </g>
        <g id="Path-6" transform="matrix(1,0,0,1,-0.076,103.179)">
            <path d="M0.25,142.857C0.196,142.812 0.154,142.756 0.125,142.692C0.092,142.624 0.075,142.549 0.075,142.474C0.075,142.281 0.186,142.105 0.36,142.022C23.522,131.297 47.22,121.77 71.36,113.48C109.17,100.407 164.55,84.725 213.65,84.258C213.651,84.258 213.653,84.258 213.654,84.258C213.93,84.258 214.157,84.485 214.157,84.761C214.157,85.035 213.932,85.261 213.658,85.263C164.7,85.726 109.435,101.376 71.7,114.425C47.593,122.702 23.928,132.214 0.8,142.925C0.62,143.014 0.403,142.987 0.25,142.857Z" style="fill:rgb(243,249,255);fill-rule:nonzero;"/>
        </g>
    </g>
    <g id="路径_8999" transform="matrix(0.0853333,0,0,0.0853333,3.59654,5.77323)">
        <path d="M93.655,0L481.655,0C533.033,-0 575.31,42.277 575.31,93.655L575.31,347.863C575.31,399.241 533.033,441.518 481.655,441.518L93.655,441.518C42.277,441.518 0,399.241 0,347.863L0,93.655C-0,42.277 42.277,0 93.655,0Z" style="fill:white;fill-opacity:0.22;fill-rule:nonzero;"/>
    </g>
    <g id="椭圆_36" transform="matrix(0.0853333,0,0,0.0853333,0,19.6222)">
        <circle cx="51.255" cy="51.255" r="51.255" style="fill:rgb(185,249,255);"/>
    </g>
    <g id="text" transform="matrix(0.0853333,0,0,0.0853333,27.2036,11.196)">
        <g id="Path-7" transform="matrix(1,0,0,1,-0.34,-0.9)">
            <path d="M237.207,15.643L7.7,15.643C3.66,15.638 0.338,12.311 0.34,8.271C0.339,4.231 3.66,0.905 7.7,0.9L237.2,0.9C241.242,0.903 244.566,4.23 244.565,8.272C244.566,12.311 241.246,15.637 237.207,15.643Z" style="fill:white;fill-rule:nonzero;"/>
        </g>
        <g id="Path-8" transform="matrix(1,0,0,1,-0.34,23.516)">
            <path d="M237.207,35.455L7.7,35.455C3.66,35.45 0.338,32.123 0.34,28.083C0.338,24.043 3.66,20.716 7.7,20.711L237.2,20.711C241.242,20.714 244.566,24.041 244.565,28.083C244.567,32.122 241.246,35.449 237.207,35.455Z" style="fill:white;fill-rule:nonzero;"/>
        </g>
        <g id="Path-9" transform="matrix(1,0,0,1,-0.34,47.932)">
            <path d="M237.207,55.266L7.7,55.266C3.66,55.261 0.338,51.934 0.34,47.894C0.338,43.854 3.66,40.527 7.7,40.522L237.2,40.522C241.242,40.525 244.566,43.852 244.565,47.894C244.567,51.933 241.246,55.26 237.207,55.266Z" style="fill:white;fill-rule:nonzero;"/>
        </g>
        <g id="Path-10" transform="matrix(1,0,0,1,-0.34,72.348)">
            <path d="M237.207,75.077L7.7,75.077C3.66,75.072 0.338,71.745 0.34,67.705C0.338,63.665 3.66,60.338 7.7,60.333L237.2,60.333C241.242,60.336 244.566,63.663 244.565,67.705C244.567,71.744 241.246,75.071 237.207,75.077Z" style="fill:white;fill-rule:nonzero;"/>
        </g>
        <g id="Path-11" transform="matrix(1,0,0,1,-0.34,96.764)">
            <path d="M237.207,94.888L7.7,94.888C3.66,94.883 0.338,91.556 0.34,87.516C0.339,83.476 3.66,80.15 7.7,80.145L237.2,80.145C241.242,80.148 244.566,83.475 244.565,87.517C244.566,91.556 241.246,94.882 237.207,94.888Z" style="fill:white;fill-rule:nonzero;"/>
        </g>
        <g id="Path-12" transform="matrix(1,0,0,1,-0.34,121.18)">
            <path d="M237.207,114.7L7.7,114.7C3.66,114.695 0.338,111.368 0.34,107.328C0.338,103.288 3.66,99.96 7.7,99.956L237.2,99.956C241.242,99.959 244.566,103.286 244.565,107.328C244.567,111.367 241.246,114.694 237.207,114.7Z" style="fill:white;fill-rule:nonzero;"/>
        </g>
        <g id="Path-13" transform="matrix(1,0,0,1,-0.34,145.596)">
            <path d="M237.207,134.51L7.7,134.51C3.66,134.506 0.338,131.178 0.34,127.138C0.339,123.098 3.66,119.772 7.7,119.767L237.2,119.767C241.242,119.77 244.566,123.097 244.565,127.139C244.567,131.178 241.246,134.505 237.207,134.51Z" style="fill:white;fill-rule:nonzero;"/>
        </g>
        <g id="Path-14" transform="matrix(1,0,0,1,-0.34,170.011)">
            <path d="M237.207,154.323L7.7,154.323C3.659,154.318 0.338,150.99 0.34,146.949C0.339,142.909 3.66,139.583 7.7,139.578L237.2,139.578C241.242,139.581 244.566,142.907 244.565,146.949C244.568,150.989 241.247,154.317 237.207,154.323Z" style="fill:white;fill-rule:nonzero;"/>
        </g>
    </g>
    <g id="组_7537" transform="matrix(0.0853333,0,0,0.0853333,12.6597,19.6222)">
        <g id="man_on_ladder_2_">
            <g id="Rectangle" transform="matrix(1,0,0,1,10.858,33.341)">
                <rect x="0" y="0" width="100.208" height="8.041" style="fill:rgb(24,49,104);"/>
            </g>
            <g id="Rectangle-2" transform="matrix(1,0,0,1,13.236,97.961)">
                <rect x="0" y="0" width="98.503" height="8.041" style="fill:rgb(24,49,104);"/>
            </g>
            <g id="Rectangle-3" transform="matrix(1,0,0,1,10.007,181.379)">
                <rect x="0" y="0" width="101.059" height="8.041" style="fill:rgb(24,49,104);"/>
            </g>
            <g id="Rectangle-4" transform="matrix(1,0,0,1,11.445,257.297)">
                <rect x="0" y="0" width="85.719" height="8.041" style="fill:rgb(24,49,104);"/>
            </g>
            <g id="Rectangle-5" transform="matrix(1,0,0,1,11.38,417.644)">
                <rect x="0" y="0" width="99.354" height="8.041" style="fill:rgb(24,49,104);"/>
            </g>
            <g id="Rectangle-6" transform="matrix(1,0,0,1,10.858,332.066)">
                <rect x="0" y="0" width="99.354" height="8.041" style="fill:rgb(24,49,104);"/>
            </g>
            <g id="Rectangle-7" transform="matrix(1,0,0,1,6.622,0)">
                <rect x="0" y="0" width="8.034" height="483.238" style="fill:rgb(24,49,104);"/>
            </g>
            <g id="Rectangle-8" transform="matrix(1,0,0,1,104.492,0)">
                <rect x="0" y="0" width="8.034" height="483.238" style="fill:rgb(24,49,104);"/>
            </g>
            <g id="Path-15" transform="matrix(1,0,0,1,13.362,217.301)">
                <path d="M28.388,179.349L24.4,190.955C24.4,190.955 16.3,198.293 12.1,187.836C12.1,187.836 13.406,180.782 13.881,178.203C14.356,175.624 28.388,179.349 28.388,179.349Z" style="fill:rgb(241,178,130);fill-rule:nonzero;"/>
            </g>
            <g id="Path-16" transform="matrix(1,0,0,1,12.662,109.32)">
                <path d="M11.532,288.057L31.863,288.057C31.863,288.057 50.893,213.257 56.187,193.449C60.357,177.849 65.205,126.264 63.281,102.242C61.446,79.342 22.518,91.742 20.488,107.829C14.535,154.983 25.613,189.956 25.045,198.202C15.386,222.656 11.532,288.057 11.532,288.057Z" style="fill:rgb(16,43,94);fill-rule:nonzero;"/>
            </g>
            <g id="Path-17" transform="matrix(1,0,0,1,26.046,32.907)">
                <path d="M53.921,31.422C56.379,36.709 55.174,39.588 55.777,41.816C56.38,44.044 58.689,48.543 58.786,50.675C58.883,52.807 56.619,53.099 56.131,55.888C55.643,58.677 56.924,62.309 55.231,65.23C53.538,68.151 46.94,67.478 47.331,70.296C47.722,73.114 51.874,83.582 51.874,83.582L24.769,84.018C24.769,84.018 25.852,68.784 24.469,62.485C23.086,56.186 20.031,33.056 25.659,30.25C31.287,27.444 51.312,25.809 53.921,31.422Z" style="fill:rgb(241,178,130);fill-rule:nonzero;"/>
            </g>
            <g id="Path-18" transform="matrix(1,0,0,1,18.559,26.495)">
                <path d="M46.527,25.84C23.977,26.54 16.066,32.231 16.327,49.867C16.48,60.379 22.276,74.93 29.884,74.882C35.371,74.848 46.184,74.237 48.084,71.235C52.584,64.112 48.731,54.28 51.745,50.886C56.029,46.061 65.768,48.546 64.428,31.929C63.088,15.312 54.032,25.6 46.527,25.84Z" style="fill:rgb(11,34,78);fill-rule:nonzero;"/>
            </g>
            <g id="Path-19" transform="matrix(1,0,0,1,5.179,12.574)">
                <path d="M8.7,34.733C8.7,34.733 4.855,24.018 5.542,18.287C6.649,9.056 28.599,9.013 29.542,17.008C30.542,25.496 26.592,27.717 24.009,29.932C21.558,32.133 19.445,34.683 17.737,37.5C17,38.981 9.806,38.979 8.7,34.733Z" style="fill:rgb(241,178,130);fill-rule:nonzero;"/>
            </g>
            <g id="Path-20" transform="matrix(1,0,0,1,86.523,43.761)">
                <path d="M85.257,63.77C85.257,63.77 93.319,55.737 95.157,50.27C98.105,41.451 78.294,32 74.016,38.813C69.475,46.052 72.096,49.755 73.482,52.863C74.754,55.904 75.57,59.115 75.906,62.394C75.94,64.045 82.44,67.133 85.257,63.77Z" style="fill:rgb(241,178,130);fill-rule:nonzero;"/>
            </g>
            <g id="Path-21" transform="matrix(1,0,0,1,42.293,206.394)">
                <path d="M53.033,172.555L47.194,183.349C47.194,183.349 37.994,189.249 35.573,178.249C35.573,178.249 38.017,171.507 38.911,169.04C39.805,166.573 53.033,172.555 53.033,172.555Z" style="fill:rgb(241,178,130);fill-rule:nonzero;"/>
            </g>
            <g id="Path-22" transform="matrix(1,0,0,1,26.949,115.705)">
                <path d="M67.787,96.851C67.787,96.851 106.941,152.335 107.895,163.473C109.616,183.573 71.302,263.39 71.302,263.39L51.485,259.135C51.485,259.135 64.759,198.969 75.244,178.455C55.076,151.155 23.124,135.914 23.124,100.261C23.122,90.594 67.787,96.851 67.787,96.851Z" style="fill:rgb(11,34,78);fill-rule:nonzero;"/>
            </g>
            <g id="Path-23" transform="matrix(1,0,0,1,-0.694,24.11)">
                <path d="M54.173,88.291C59.973,87.899 70.781,88.491 77.073,88.374C93.182,88.074 114.947,102.406 132.395,107.53C143.795,95.181 160.511,75.582 160.511,75.582L174.57,84.273C174.57,84.273 149.477,127.596 134.05,130.078C124.715,131.578 109.708,131.007 98.061,126.172C98.061,140.681 116.631,197.539 102.986,200.436C89.341,203.333 67.841,198.366 54.609,200.436C41.377,202.506 26.909,212.436 30.215,187.606C33.521,162.776 47.996,165.444 16.986,118.069C8.861,105.66 -0.594,87.587 0.84,72.431C2.464,54.848 5.81,37.467 10.832,20.538L26.218,23.021C26.218,23.021 24.891,54.209 21.583,72.421C24.891,81.184 29.883,87.221 35.583,93.449C38.7,96.865 45.087,87.965 54.173,88.291Z" style="fill:rgb(27,144,251);fill-rule:nonzero;"/>
            </g>
            <g id="Path-24" transform="matrix(1,0,0,1,11.386,220.728)">
                <path d="M13.73,181.641C12.13,181.431 10.43,183.155 10.499,189.555C10.568,195.955 10.272,199.344 15.233,200.03C18.35,200.461 30.095,197.353 41.533,197.559C45.664,197.633 53.264,195.69 55.927,192.136C56.476,191.361 56.592,190.357 56.234,189.477C55.948,188.641 55.165,188.07 54.282,188.053C45.065,188.312 44.905,189.209 37.445,183.905C34.738,181.981 32.476,180.181 31.045,180.083C28.265,179.891 26.982,183.597 22.453,183.112C17.924,182.627 16.5,182.005 13.73,181.641Z" style="fill:rgb(11,34,78);fill-rule:nonzero;"/>
            </g>
            <g id="Path-25" transform="matrix(1,0,0,1,39.091,210.071)">
                <path d="M38.633,171.46C36.956,171.13 34.771,173.36 33.933,179.278C33.095,185.196 31.388,189.92 36.574,190.978C39.832,191.641 56.785,189.915 68.94,191.078C73.331,191.498 78.476,189.368 81.82,186.314C82.496,185.705 82.768,184.761 82.52,183.885C82.274,183.044 81.517,182.447 80.642,182.403C70.789,181.858 70.49,182.673 63.299,177.143C60.688,175.134 58.539,173.281 57.031,173.069C54.099,172.658 52.331,175.181 47.581,174.35C42.831,173.519 41.534,172.03 38.633,171.46Z" style="fill:rgb(11,34,78);fill-rule:nonzero;"/>
            </g>
        </g>
        <g id="man_hand_up" transform="matrix(1,0,0,1,278.64,55.438)">
            <g id="Path-26" transform="matrix(1,0,0,1,33.375,40.98)">
                <path d="M32.483,37.054C30.173,42.02 31.306,44.725 30.74,46.818C30.174,48.911 28,53.136 27.912,55.141C27.824,57.146 29.946,57.419 30.406,60.041C30.866,62.663 29.659,66.074 31.256,68.818C32.853,71.562 39.044,70.929 38.679,73.578C38.314,76.227 34.411,86.06 34.411,86.06L59.876,86.468C59.876,86.468 58.86,72.157 60.155,66.24C61.45,60.323 64.32,38.59 59.034,35.954C53.748,33.318 34.935,31.781 32.483,37.054Z" style="fill:rgb(241,178,130);fill-rule:nonzero;"/>
            </g>
            <g id="Path-27" transform="matrix(1,0,0,1,34.269,34.956)">
                <path d="M45.569,31.81C66.754,32.471 74.187,37.815 73.944,54.384C73.799,64.259 68.354,77.929 61.207,77.884C56.051,77.852 45.891,77.279 44.107,74.458C39.881,67.768 43.498,58.53 40.667,55.342C36.642,50.809 27.494,53.142 28.751,37.533C30.008,21.924 38.519,31.589 45.569,31.81Z" style="fill:rgb(11,34,78);fill-rule:nonzero;"/>
            </g>
            <g id="Path-28" transform="matrix(1,0,0,1,23.068,222.819)">
                <path d="M33.757,185.089L33.757,194.5L19.55,194.5L19.55,181.079L33.757,185.089Z" style="fill:rgb(241,178,130);fill-rule:nonzero;"/>
            </g>
            <g id="Path-29" transform="matrix(1,0,0,1,57.957,223.851)">
                <path d="M47.855,184.45L47.855,195.579L62.3,195.579L62.3,181.919L47.855,184.45Z" style="fill:rgb(241,178,130);fill-rule:nonzero;"/>
            </g>
            <g id="Path-30" transform="matrix(1,0,0,1,39.818,127.047)">
                <path d="M74.438,109.7C74.438,109.7 78.796,168.926 79.598,186.022C80.4,203.118 80.443,278.722 80.443,278.722L65.364,278.856C65.364,278.856 54.611,230.1 55.191,202.126C51.722,190.906 33.406,125.458 33.139,112.101C32.872,98.744 67.766,103.022 74.438,109.7Z" style="fill:rgb(11,34,78);fill-rule:nonzero;"/>
            </g>
            <g id="Path-31" transform="matrix(1,0,0,1,21.545,126.781)">
                <path d="M25.494,109.965C25.494,109.965 19.244,169.993 18.444,187.089C17.644,204.185 20.689,278.989 20.689,278.989L36.289,280.049C36.289,280.049 44.13,239.448 44.8,202C48.269,190.78 69.678,124.852 69.945,111.5C70.212,98.148 32.166,103.288 25.494,109.965Z" style="fill:rgb(16,43,94);fill-rule:nonzero;"/>
            </g>
            <g id="Path-32" transform="matrix(1,0,0,1,58.039,81.25)">
                <path d="M60.142,83.639C60.142,83.639 71.985,98.353 69.583,109.974C67.181,121.595 52.337,145.146 48.734,150.356C45.131,155.566 54.677,161.174 54.677,161.174C54.677,161.174 85.084,121.639 89.888,109.62C94.692,97.601 73.152,66.212 73.152,66.212L60.142,83.639Z" style="fill:rgb(241,178,130);fill-rule:nonzero;"/>
            </g>
            <g id="Path-33" transform="matrix(1,0,0,1,-0.457,-0.157)">
                <path d="M42.131,115.426C42.131,115.426 28.8,113.767 21.511,91.089C14.222,68.411 12.1,37.96 14.757,31.24C18.957,20.595 14.438,10.13 13.257,5.759C12.357,2.446 9.696,-2.111 8.957,1.459C8.511,3.602 8.857,9.159 9.69,13.259C10.43,16.9 -0.989,17.262 0.611,22.873C2.211,28.484 3.811,28.122 4.08,32.106C4.349,36.09 2.212,81.5 5.148,92.188C8.084,102.876 19.293,130.654 27.566,135.73C35.839,140.806 42.131,115.426 42.131,115.426Z" style="fill:rgb(241,178,130);fill-rule:nonzero;"/>
            </g>
            <g id="Path-34" transform="matrix(1,0,0,1,10.748,62.032)">
                <path d="M65.2,61.786C71.4,61.722 97.626,59.786 110.634,71.804C123.642,83.822 128.248,93.041 129.049,95.445C129.85,97.849 113.036,110.872 109.634,108.267C106.232,105.662 103.834,100.855 99.827,100.855C95.82,100.855 97.827,122.693 99.427,133.913C101.027,145.133 110.636,176.788 103.827,179.793C97.018,182.798 79.409,178.793 69.2,181.393C58.991,183.993 41.98,186 36.377,179.592C30.774,173.184 40.377,148.938 40.577,133.312C40.777,117.686 40.177,93.242 30.77,87.032C21.363,80.822 9.958,78.818 9.556,73.008C9.154,67.198 25.969,48.765 29.972,50.77C33.975,52.775 41.239,61.187 48.785,61.388C56.331,61.589 60.795,61.831 65.2,61.786Z" style="fill:rgb(255,203,1);fill-rule:nonzero;"/>
            </g>
            <g id="Path-35" transform="matrix(1,0,0,1,20.797,217.286)">
                <path d="M17.943,189.185C19.154,192.945 23.763,192.355 26.684,192.967C29.605,193.579 39.784,194.996 40.15,192.215C40.516,189.434 39.086,187.402 39.274,185.272C39.462,183.142 41.798,180.436 39.437,178.84C37.076,177.244 33.145,178.74 30.289,178.813C28.2,178.869 20.498,175.587 19.562,176.904C18.626,178.221 19.903,180.753 19.58,182.391C19.1,184.823 17,186.267 17.943,189.185Z" style="fill:rgb(53,90,162);fill-rule:nonzero;"/>
            </g>
            <g id="Path-36" transform="matrix(1,0,0,1,55.071,218.321)">
                <path d="M67.871,190.148C66.465,193.836 61.892,193.008 58.946,193.468C56,193.928 45.759,194.807 45.536,192.012C45.313,189.217 46.852,187.262 46.773,185.125C46.694,182.988 44.504,180.165 46.948,178.693C49.392,177.221 53.237,178.918 56.084,179.144C58.167,179.311 66.03,176.434 66.895,177.802C67.76,179.17 66.353,181.626 66.59,183.28C66.943,185.73 68.962,187.284 67.871,190.148Z" style="fill:rgb(53,90,162);fill-rule:nonzero;"/>
            </g>
            <g id="Path-37" transform="matrix(1,0,0,1,15.137,228.49)">
                <path d="M43.667,187.022C41.689,185.022 38.254,188.222 34.756,188.222C31.258,188.222 29.311,185.822 27.482,185.684C25.653,185.546 24.718,189.823 20.85,191.784C18.55,192.949 13.112,193.523 13.112,200.194C13.112,201.846 42.702,201.426 43.67,200.888C45.51,199.858 45.643,189.024 43.667,187.022Z" style="fill:rgb(16,43,94);fill-rule:nonzero;"/>
            </g>
            <g id="Path-38" transform="matrix(1,0,0,1,50.054,228.49)">
                <path d="M72,187.022C70.022,185.022 66.587,188.222 63.089,188.222C59.591,188.222 57.644,185.822 55.815,185.684C53.986,185.546 53.051,189.823 49.183,191.784C46.883,192.949 41.445,193.523 41.445,200.194C41.445,201.846 71.035,201.426 72.003,200.888C73.842,199.858 73.977,189.024 72,187.022Z" style="fill:rgb(16,43,94);fill-rule:nonzero;"/>
            </g>
        </g>
    </g>
</svg>
