<svg viewBox="0 0 64 64" xmlns="http://www.w3.org/2000/svg" fill-rule="evenodd" clip-rule="evenodd" stroke-linecap="round" stroke-linejoin="round"><path d="M36.376 38.463c0 .565.459 1.024 1.024 1.024h15.004c.565 0 1.024-.459 1.024-1.024v-13.19c0-.566-.459-1.024-1.024-1.024H37.4c-.565 0-1.024.458-1.024 1.024v13.19z" fill="#a2a2c5"/><path d="M36.376 38.463c0 .565.459 1.024 1.024 1.024h12.216c.565 0 1.024-.459 1.024-1.024v-13.19c0-.566-.46-1.024-1.024-1.024H37.4c-.565 0-1.024.458-1.024 1.024v13.19z" fill="#dcdcf1"/><path d="M26.684 54.947c0 .565.459 1.024 1.024 1.024h14.048c.565 0 1.024-.459 1.024-1.024V37.359c0-.565-.46-1.024-1.024-1.024H27.708c-.565 0-1.024.459-1.024 1.024v17.588z" fill="#a2a2c5"/><path d="M43.242 54.981c0 .566.459 1.024 1.024 1.024h10.27c.564 0 1.023-.458 1.023-1.024V37.486c0-.565-.459-1.024-1.024-1.024h-10.27c-.564 0-1.023.46-1.023 1.024v17.495z" fill="#8f8fb9"/><path d="M25.806 54.815c0 .565.459 1.024 1.024 1.024h1.76c.565 0 1.023-.459 1.023-1.024V39.2c0-.565-.458-1.024-1.024-1.024h-1.76c-.564 0-1.023.459-1.023 1.024v15.615z" fill="#dcdcf1"/><path d="M28.245 49.846c0 .565.459 1.024 1.024 1.024h12.633c.565 0 1.024-.459 1.024-1.024v-5.985c0-.565-.459-1.024-1.024-1.024H29.27c-.565 0-1.024.459-1.024 1.024v5.985z" fill="#dcdcf1"/><path d="M26.758 42.248a2.975 2.975 0 002.96-2.961 2.975 2.975 0 00-2.96-2.961 2.975 2.975 0 00-2.961 2.961 2.976 2.976 0 002.96 2.961z" fill="#dcdcf1" fill-rule="nonzero"/><path d="M33.096 33.222l-1.532-1.277-6.555-.596 2.724 2.894 6.385.426-1.022-1.447z" fill="#8f8fb9" fill-rule="nonzero"/><path d="M31.095 53.405l-.271 1.723h-.869l-.003-1.528 1.143-.195z" fill="#fcbb9d" fill-rule="nonzero"/><path d="M34.581 36.87s-4.988 4.007-5.427 7.001c-.24 1.643.782 9.886.782 9.886h1.113s1.265-8.815 1.986-9.783c.843-1.129 3.944-2.198 5.688-3.926.922-.912 1.154-3.178 1.154-3.178H34.58z" fill="#0b224e" fill-rule="nonzero"/><path d="M30.982 55.806l-.148-.77h-.874c-.304 0-.59.19-.772.511-.06.108-.002.259.099.259h1.695z" fill="#5f2882" fill-rule="nonzero"/><path d="M35.892 53.405l-.271 1.723h-.87L34.75 53.6l1.143-.195z" fill="#fcbb9d" fill-rule="nonzero"/><path d="M39.372 36.87s-4.982 4.007-5.42 7.001c-.242 1.643.78 9.886.78 9.886h1.114s1.265-8.815 1.986-9.783c.86-1.152 3.88-1.693 5.738-3.286 1.27-1.09 1.104-3.818 1.104-3.818h-5.302z" fill="#0b224e" fill-rule="nonzero"/><path d="M35.78 55.806l-.149-.77h-.874c-.304 0-.59.19-.772.511-.06.108-.003.259.098.259h1.696z" fill="#5f2882" fill-rule="nonzero"/><path d="M43.115 36.87s.155 2.63-1.567 3.512c-.721.37-4.31 2.32-4.65 3.513-1.011 3.535-1.437 9.862-1.437 9.862" fill="none" stroke="#fff" stroke-dasharray="7,7" stroke-width=".08533"/><path d="M32.205 31.58c1.658.003 3.274-.867 4.614-1.832.76-.547 1.432-1.125 1.971-1.591.533-.461.761-1.175.421-1.792a1.375 1.375 0 00-1.995-.456c-.626.445-1.317.988-2.01 1.5-1.145.847-2.296 1.613-3.177 1.725-2.773.354-6.403-1.233-6.559-.715-.243.806 4.49 3.155 6.735 3.16z" fill="#ffd7c2" fill-rule="nonzero"/><path d="M35.205 27.41l1.614 2.338c.76-.547 1.432-1.125 1.972-1.591.532-.461.76-1.175.42-1.792a1.375 1.375 0 00-1.995-.456c-.626.445-1.317.988-2.01 1.5z" fill="#5cc2ad" fill-rule="nonzero"/><path d="M26.87 28.665a1.705 1.705 0 00-1.055-.616c-.682-.101-1.363.533.527 1.289 1.889.755.528-.673.528-.673z" fill="#fcbb9d" fill-rule="nonzero"/><path d="M44.668 36.87H34.58c.356-3.343.607-6.636 1.46-9.346a3.111 3.111 0 012.963-2.17h2.038a3.123 3.123 0 013.055 2.536c.545 2.851.502 5.85.57 8.98z" fill="#36a4b7" fill-rule="nonzero"/><path d="M44.168 28.255s-1.355 4.2-2.371 5.488c-1.016 1.287-7.07 1.837-7.07 1.837l.166-1.671 4.532-1.86 2.643-3.184 2.1-.61z" fill="#1b1b1d" fill-opacity=".39" fill-rule="nonzero"/><path d="M32.006 33.375c.087.839 5.413 1.095 7.487.233 1.473-.613 2.578-1.927 3.415-3.258.467-.765.896-1.552 1.284-2.36.314-.63.249-1.377-.304-1.814a1.373 1.373 0 00-2.016.349c-.424.681-.856 1.357-1.296 2.028-.9 1.371-1.839 2.699-2.243 2.95-2.374 1.476-6.383 1.334-6.327 1.872z" fill="#ffd7c2" fill-rule="nonzero"/><path d="M33.392 33.062a1.705 1.705 0 00-1.21-.161c-.67.17-1.052 1.017.982.985 2.035-.032.228-.824.228-.824zm5.68-9.944v2.876c0 .429.353.781.782.781a.785.785 0 00.781-.781v-2.876h-1.563z" fill="#fcbb9d" fill-rule="nonzero"/><path d="M40.576 28.553l2.332 1.797a26.78 26.78 0 001.284-2.36c.314-.63.249-1.377-.303-1.814a1.373 1.373 0 00-2.017.349c-.368.59-.827 1.315-1.296 2.028z" fill="#5cc2ad" fill-rule="nonzero"/><path d="M39.072 23.278v1.781s1.08.244 1.563-.806v-1.135h-.881l-.682.16z" fill="#b98a80" fill-rule="nonzero"/><path d="M37.317 20.567l.521 1.029.025.048v1.511c0 .66.542 1.202 1.202 1.203h.368c.66 0 1.202-.543 1.203-1.203v-2.588h-3.32z" fill="#ffd7c2" fill-rule="nonzero"/><path d="M40.67 23.575a.46.46 0 00.457-.457.46.46 0 00-.457-.457.46.46 0 00-.458.457c0 .251.207.457.458.457z" fill="#fcbb9d" fill-rule="nonzero"/><path d="M37.317 20.567h3.318V22.554c0 .115-.096.21-.211.21a.213.213 0 01-.211-.21v-.575h-.103a.228.228 0 01-.214-.163.3.3 0 00-.311-.22h-1.747l-.521-1.03z" fill="#4f216c" fill-rule="nonzero"/><path d="M38.27 23.094l.915.011s.17.738-.493.704c-.53-.027-.422-.715-.422-.715z" fill="#fff" fill-rule="nonzero"/><path d="M36.43 39.63s-2.677 2.094-3.394 4.344l1.135-.926s.918-2.153 2.258-3.418zm.044-13.144s-.858 1.264-1.355 2.304c-.497 1.039-.768 2.364-.768 2.364l.979-.467s.467-3.298 1.144-4.201z" fill="#1b1b1d" fill-opacity=".39" fill-rule="nonzero"/><path d="M25.548 26.746l.496 3.45.152.076.115-.114-.553-3.47-.21.058z" fill="#8f8fb9" fill-rule="nonzero"/><path d="M26.52 40.597c.854 0 1.557-.703 1.557-1.557s-.703-1.558-1.557-1.558-1.557.703-1.558 1.558c0 .854.704 1.557 1.558 1.557z" fill="#a2a2c5" fill-opacity=".38" fill-rule="nonzero"/><path d="M45.326 39.29c0-.565-.459-1.024-1.024-1.024h-1.76c-.565 0-1.023.46-1.023 1.024v15.615c0 .565.458 1.024 1.024 1.024h1.76c.564 0 1.023-.459 1.023-1.024V39.29z" fill="#dcdcf1"/><path d="M44.374 42.338a2.975 2.975 0 002.961-2.96 2.975 2.975 0 00-2.96-2.962 2.975 2.975 0 00-2.962 2.961 2.976 2.976 0 002.961 2.961z" fill="#dcdcf1" fill-rule="nonzero"/><path d="M44.103 40.848c.854 0 1.557-.703 1.557-1.558 0-.854-.703-1.557-1.557-1.557s-1.557.703-1.557 1.557c0 .855.703 1.558 1.557 1.558z" fill="#a2a2c5" fill-opacity=".38" fill-rule="nonzero"/><path d="M27.568 32.983a.251.251 0 00.249-.249.251.251 0 00-.249-.248.251.251 0 00-.248.248.25.25 0 00.248.249z" fill="#1b1b1d" fill-opacity=".39" fill-rule="nonzero"/><path d="M17.362 35.858l.67-1.476 2.368.807-1.442 3.656-2.488-.944.892-2.043z" fill="#8f8fb9" fill-rule="nonzero"/><path d="M13.477 54.18l-.058 1.31h.66l.266-1.161-.868-.148z" fill="#fcbb9d" fill-rule="nonzero"/><path d="M16.3 46.312c-.03.31-.086.686-.164 1.103-.447 2.403-1.575 6.195-1.79 6.914-.025.077-.037.119-.037.119h-.846l.012-.236.002-.031c.067-1.287.342-6.837.207-8.123a12.524 12.524 0 00-.187-1.1c-.293-1.429-.844-3.566-1.223-4.992l-.002-.008a14.191 14.191 0 00-.048-.182c-.208-.781-.353-1.307-.353-1.307h4.025s.342 3.103.428 5.626c.034.74.026 1.48-.025 2.217z" fill="#102b5e" fill-rule="nonzero"/><path d="M13.25 56.005l.113-.585h.664c.231 0 .449.144.587.389.046.081.002.196-.075.196H13.25z" fill="#5f2882" fill-rule="nonzero"/><path d="M17.701 34.449c-1.26.002-2.488-.659-3.506-1.392a21.31 21.31 0 01-1.498-1.209c-.405-.35-.579-.893-.32-1.361a1.045 1.045 0 011.516-.347c.476.338 1.001.75 1.528 1.14.87.644 1.745 1.226 2.414 1.311 2.107.268 4.865-.938 4.983-.544.186.613-3.41 2.398-5.117 2.402z" fill="#fcbb9d" fill-rule="nonzero"/><path d="M15.421 31.28l-1.226 1.777a21.31 21.31 0 01-1.498-1.21c-.405-.349-.579-.892-.32-1.36a1.045 1.045 0 011.516-.347c.476.338 1.001.75 1.528 1.14z" fill="#cd5f5f" fill-rule="nonzero"/><path d="M11.198 54.167l-.177 1.332h-.583l-.195-1.332h.955zm10.557-21.933c.2-.25.486-.417.802-.468.518-.077 1.036.405-.4.98-1.436.573-.402-.512-.402-.512z" fill="#fcbb9d" fill-rule="nonzero"/><path d="M12.255 38.469l-.03 1.237-.001.05v.02a825.505 825.505 0 01-.15 5.463c-.015.462-.03.878-.043 1.22-.02.518-.077 1.219-.152 1.992-.251 2.594-.71 5.997-.71 5.997h-.892l-.02-.189a6.178 6.178 0 00-.01-.092c-.14-1.317-.726-6.878-.837-8.256-.13-1.63-1.18-7.442-1.18-7.442h4.025z" fill="#0b224e" fill-rule="nonzero"/><path d="M15.895 38.469H8.23c.053-2.379.02-4.657.434-6.824a2.373 2.373 0 012.322-1.926h1.548a2.374 2.374 0 01.193.008 2.36 2.36 0 012.06 1.64c.647 2.059.838 4.561 1.108 7.102z" fill="#ea7e7b" fill-rule="nonzero"/><path d="M12.728 29.757v.6a.657.657 0 01-.652.653h-.377a.657.657 0 01-.653-.653v-.6l.002-.038h1.487a2.378 2.378 0 01.192.008l.001.03z" fill="#cd5f5f" fill-rule="nonzero"/><path d="M18.11 36.26c-.067.637-4.114.832-5.69.176-1.12-.466-1.959-1.464-2.595-2.475-.355-.581-.68-1.18-.976-1.793-.238-.48-.189-1.047.231-1.38a1.043 1.043 0 011.532.266c.322.518.65 1.031.985 1.541.684 1.042 1.397 2.051 1.705 2.242 1.804 1.121 4.85 1.013 4.808 1.423z" fill="#fcbb9d" fill-rule="nonzero"/><path d="M17.056 36.021c.281-.153.61-.196.92-.122.508.13.8.773-.747.749-1.546-.024-.173-.627-.173-.627zm-4.573-8.002v2.185a.597.597 0 01-.594.594.597.597 0 01-.594-.594V28.02h1.188z" fill="#fcbb9d" fill-rule="nonzero"/><path d="M10.243 56.005l.112-.585h.665c.23 0 .448.144.586.389.046.081.002.196-.075.196h-1.288z" fill="#5f2882" fill-rule="nonzero"/><path d="M11.597 32.595l-1.772 1.366c-.355-.581-.68-1.18-.976-1.793-.238-.48-.189-1.047.231-1.38a1.043 1.043 0 011.532.266c.323.517.65 1.031.985 1.541z" fill="#cd5f5f" fill-rule="nonzero"/><path d="M9.48 38.469s1.12 7.671 1.12 15.98" fill="none" stroke="#fff" stroke-dasharray="7,7" stroke-width=".08533"/><path d="M12.483 28.14v1.354s-.82.185-1.188-.613v-.862h.67l.518.122z" fill="#b98a80" fill-rule="nonzero"/><path d="M12.488 28.96h-.28a.917.917 0 01-.913-.913V26.08h2.522l-.415.818v1.149c0 .5-.412.913-.913.913z" fill="#ffd7c2" fill-rule="nonzero"/><path d="M11.269 28.366a.35.35 0 00.347-.347.35.35 0 00-.347-.347.35.35 0 00-.348.347c0 .19.157.347.348.347z" fill="#fcbb9d" fill-rule="nonzero"/><path d="M13.816 26.08h-2.521v1.51c0 .088.073.16.16.16.088 0 .16-.072.16-.16v-.436h.079a.173.173 0 00.163-.124.228.228 0 01.236-.168h1.327l.396-.782z" fill="#b14949" fill-rule="nonzero"/><path d="M12.073 45.239c-.014.462-.028.878-.042 1.22-.02.518-.077 1.219-.152 1.992a.39.39 0 01-.104.014c-.44 0-.797-.75-.797-1.674 0-.924.357-1.673.797-1.673a.46.46 0 01.298.12zm4.226 1.073c-.028.31-.085.686-.163 1.103-.377-.134-.664-.822-.664-1.65 0-.924.357-1.673.798-1.673.018 0 .036 0 .054.004.034.738.026 1.479-.025 2.216z" fill="#fff" fill-opacity=".32" fill-rule="nonzero"/><path d="M11.597 32.595l-1.288 2.116-.572-.8 1.86-1.316zm3.824-1.315l.785 2.893-.87-.366-.411-1.876.496-.651z" fill="#e7a58a" fill-rule="nonzero"/><path d="M12.36 28.015l.574-.009s.034.438-.283.472c-.317.034-.292-.463-.292-.463z" fill="#fff" fill-rule="nonzero"/><path d="M9.433 33.361l.303.55 1.861-1.316-.38-.538-1.784 1.304zm5.988-2.081l-.496.65-.138-.563.301-.34.333.253z" fill="#b14949" fill-rule="nonzero"/><path d="M12.213 39.711l1.133-.463.155 5.87-1.288-5.407z" fill="#1b1b1d" fill-opacity=".39" fill-rule="nonzero"/><path d="M13.392 34.906l-.32.228.022-.48.298.252zm4.443-2.315l-.255.53-.183-.641.438.11z" fill="#c86336" fill-opacity=".43" fill-rule="nonzero"/><path d="M18.962 35.777c.09 0 .163-.074.163-.163a.165.165 0 00-.163-.163.165.165 0 00-.163.163c0 .09.074.163.163.163z" fill="#1b1b1d" fill-opacity=".39" fill-rule="nonzero"/><path d="M21.087 32.058l2.621.382.088-.095-.058-.108-2.648-.344-.003.165z" fill="#8f8fb9" fill-rule="nonzero"/><g><path d="M6.1 56.003l-.303.002c-.138.001-.248-.17-.247-.384l.128-16.97 1.098-.006-.418 16.972c-.005.214-.12.385-.258.386zm6.771-.084l-.303.002c-.138.001-.248-.17-.246-.384l.127-16.97 1.099-.007-.419 16.973c-.005.214-.12.385-.258.386zm29.221-.215l-.303.002c-.138.001-.248-.171-.246-.386l.128-17.059 1.098-.007-.418 17.062c-.006.215-.12.387-.259.388zm6.772-.086l-.303.002c-.139.001-.248-.17-.247-.383l.128-16.934 1.098-.007-.418 16.937c-.005.213-.12.384-.258.385z" fill="#fcaa71" fill-rule="nonzero"/><path fill="#dcdcf1" d="M3.258 38.02h48.936v1.502H3.258z"/><path fill="#afafd5" d="M39.07 37.989h13.139v1.501h-13.14z"/><path d="M6.722 39.518L5.71 40.784l-.032-1.266h1.045zm6.716 0l-1.013 1.094v-1.094h1.013zm29.295 0l-1.022.993-.023-1.022 1.045.029zm6.747.028l-1.07 1.066v-1.08l1.07.014z" fill="#dc905e" fill-rule="nonzero"/></g><g fill-rule="nonzero"><path d="M19.118 48.898s.33-3.294-.21-5.3c-.539-2.007-3.114-3.654-3.114-3.654s1.886 1.737 2.425 4.013c.54 2.276.39 5.06.39 5.06l.509-.12z" fill="#5cc2ad"/><path d="M19.118 49.048s-.18-5.66 1.437-7.217c0 0-.838 2.605-.928 4.612l-.12 2.695-.39-.09z" fill="#1a7a83"/><path d="M19.837 49.108s-.45-3.175 1.197-4.941c0 0-1.317 1.287-1.647 3.024-.329 1.737-.24 2.067-.24 2.067l.69-.15z" fill="#5cc2ad"/><path d="M18.848 49.197s.18-1.887-.688-3.653c-.869-1.767-2.516-1.917-2.516-1.917s1.947 1.048 2.246 2.605c.18.938.28 1.89.3 2.845l.658.12zm1.288.03s-.09-1.227 1.108-2.246c0 0-.839.15-1.168.66-.33.508-.569 1.496-.569 1.496l.629.09z" fill="#1a7a83"/><path d="M18.609 49.018s-.39-2.067-1.467-2.156c0 0 .539.688.659 1.287.075.425.115.856.119 1.288l.689-.42z" fill="#5cc2ad"/><path d="M20.795 49.407v4.822a1.75 1.75 0 01-1.737 1.736 1.747 1.747 0 01-1.737-1.737v-4.821c.001-.312.257-.568.57-.57h2.335a.573.573 0 01.569.57z" fill="#afafd5"/><path d="M19.851 49.362v4.822a1.748 1.748 0 01-1.344 1.691 1.747 1.747 0 01-1.186-1.647v-4.821c.001-.312.257-.568.569-.569h1.614c.21.09.347.296.347.524z" fill="#dcdcf1"/></g><g><path fill="#4f216c" d="M0 55.957h64v.38H0z"/></g></svg>