<svg viewBox="0 0 64 64" xmlns="http://www.w3.org/2000/svg" fill-rule="evenodd" clip-rule="evenodd" stroke-linejoin="round" stroke-miterlimit="2"><path d="M57.418 24.64c-.814 1.413-4.996 5.817-5.64 4.899-.318-.454 1.214-2.165 2.732-8.06.532-2.067 1.94-3.519 3.236-2.389 1.236 1.078.486 4.139-.328 5.55z" fill="#1b90fb" fill-rule="nonzero"/><path d="M51.66 29.702a.03.03 0 01-.008-.053c.03-.018 2.994-1.907 5.107-8.665a.03.03 0 01.028-.022.03.03 0 01.028.04c-1.108 3.542-2.442 5.717-3.367 6.918-1.004 1.303-1.757 1.775-1.765 1.779a.03.03 0 01-.023.003z" fill="#f3f9ff" fill-rule="nonzero"/><path d="M57.775 22.423c-1.63 1.316-6.589 7.397-5.76 8.702.83 1.304 8.806-4.033 10.436-5.35 1.63-1.316 2.046-3.415.9-4.301-1.805-1.398-3.946-.368-5.576.949z" fill="#9e95e3" fill-rule="nonzero"/><path d="M51.851 31.332a.03.03 0 01-.015-.047 43.418 43.418 0 012.998-3.301c1.65-1.647 4.157-3.878 6.72-5.15a.03.03 0 01.04.027.03.03 0 01-.015.025c-2.556 1.27-5.056 3.495-6.703 5.139a43.37 43.37 0 00-2.995 3.297.03.03 0 01-.03.01z" fill="#f3f9ff" fill-rule="nonzero"/><path d="M58.146 27.4c-1.486.286-6.275 2.584-5.98 3.68.296 1.097 7.235 1.158 8.72.872 1.487-.286 2.626-1.07 2.008-2.91-.57-1.702-3.262-1.928-4.748-1.642z" fill="#1b90fb" fill-rule="nonzero"/><path d="M48.167 33.032a.027.027 0 01-.007-.01.029.029 0 01.014-.039c1.349-.625 2.73-1.18 4.135-1.663 2.203-.762 5.43-1.675 8.29-1.703a.03.03 0 01.03.03.03.03 0 01-.03.029c-2.852.027-6.071.939-8.27 1.7a43.249 43.249 0 00-4.13 1.66.03.03 0 01-.032-.004z" fill="#f3f9ff" fill-rule="nonzero"/><path d="M14.462 37.957a.652.652 0 00-.727-.39l-.96.19a.652.652 0 01-.613-.206 6.12 6.12 0 00-.514-.517.653.653 0 01-.206-.613l.19-.96a.653.653 0 00-.39-.727l-1.417-.588a.652.652 0 00-.788.239l-.544.813a.652.652 0 01-.578.288 6.1 6.1 0 00-.728.001.651.651 0 01-.58-.288l-.545-.814a.651.651 0 00-.788-.239l-1.418.588a.653.653 0 00-.39.727l.19.962a.654.654 0 01-.206.614 6.12 6.12 0 00-.516.515.651.651 0 01-.612.205l-.959-.19a.652.652 0 00-.726.39L.05 39.376a.653.653 0 00.238.79l.812.544c.191.128.301.349.288.579-.014.243-.014.486.001.729a.652.652 0 01-.287.58l-.814.545a.653.653 0 00-.238.79l.587 1.42c.117.285.423.45.726.39l.96-.191a.652.652 0 01.614.207c.16.182.332.355.514.517.172.153.25.386.206.613l-.19.96c-.06.302.104.608.389.727l1.417.588a.651.651 0 00.79-.24l.543-.812a.652.652 0 01.578-.288 6.1 6.1 0 00.728-.002.651.651 0 01.58.288l.545.814a.651.651 0 00.789.24l1.417-.589a.653.653 0 00.39-.727l-.19-.961a.653.653 0 01.206-.615c.182-.161.354-.333.516-.514a.651.651 0 01.612-.206l.959.19a.652.652 0 00.726-.39l.587-1.419a.653.653 0 00-.239-.79l-.812-.544a.653.653 0 01-.287-.578 6.152 6.152 0 00-.002-.73.652.652 0 01.288-.58l.813-.545a.653.653 0 00.239-.79l-.587-1.42zM8.793 44.66a3.253 3.253 0 01-1.246.248 3.269 3.269 0 01-3.252-3.253 3.269 3.269 0 013.252-3.254 3.258 3.258 0 013.254 3.256 3.255 3.255 0 01-2.008 3.003z" fill="#e7f4fe" fill-rule="nonzero"/><path d="M10.257 24.016c1.658-.141 8.432 1.455 8.498 3 .032.763-2.51.258-7.598 3.175-1.784 1.022-4.046.459-4.617-2.065-.546-2.408 2.06-3.97 3.717-4.11z" fill="#44d690" fill-rule="nonzero"/><path d="M18.959 27.067a.028.028 0 01-.028 0c-.01-.005-1.023-.55-2.79-.73-1.63-.168-4.252-.051-7.49 1.455a.028.028 0 01-.037-.014.027.027 0 01.014-.037c3.25-1.512 5.885-1.63 7.523-1.46 1.776.182 2.798.731 2.808.736a.028.028 0 010 .05z" fill="#f3f9ff" fill-rule="nonzero"/><path d="M8.551 25.378c2.395.948 10.953 2.142 10.943.054-.01-2.088-11.055-7.625-13.45-8.573-2.395-.948-4.085.245-3.511 2.385.905 3.373 3.623 5.186 6.018 6.134z" fill="#8ae6b9" fill-rule="nonzero"/><path d="M19.77 25.505a.03.03 0 01-.017.004c-.083-.01-8.377-1.068-14.646-5.158a.028.028 0 01.031-.047c6.258 4.083 14.54 5.138 14.622 5.148a.028.028 0 01.025.032.029.029 0 01-.015.021z" fill="#f3f9ff" fill-rule="nonzero"/><path d="M11.236 20.87c1.624 1.608 7.7 5.668 8.083 4.41.384-1.256-6.345-9.901-7.97-11.51-1.624-1.608-3.214-2.381-3.738-.119-.485 2.094 2 5.61 3.625 7.218z" fill="#ffcb01" fill-rule="nonzero"/><path d="M19.521 25.448a.028.028 0 01-.03-.002c-.059-.045-5.832-4.57-9.78-9.743a.028.028 0 01.045-.035c3.944 5.168 9.711 9.688 9.769 9.733a.028.028 0 01-.004.047z" fill="#f3f9ff" fill-rule="nonzero"/><g><path d="M54.718 14.563H12.56a1.927 1.927 0 01-1.916-1.918v-.002c0-1.051.864-1.917 1.916-1.917h42.158c1.052 0 1.917.866 1.917 1.917v.001a1.927 1.927 0 01-1.917 1.919z" fill="#fff" fill-opacity=".52" fill-rule="nonzero"/><path d="M53.058 41.423H14.22c-.91 0-1.66-.75-1.66-1.661v-25.2h42.158v25.2a1.67 1.67 0 01-1.66 1.661z" fill="#fff" fill-opacity=".44" fill-rule="nonzero"/><path fill="#fff" d="M12.56 14.563h42.158v.959H12.56z"/></g><g><path fill="#183168" d="M9.333 28.904h6.997v.562H9.333zM9.499 33.418h6.878v.562H9.5zM9.273 39.245h7.057v.562H9.273zM9.373 44.548h5.987v.562H9.373zM9.369 55.748h6.938v.562H9.37zM9.333 49.77h6.938v.562H9.333z"/><path fill="#183168" d="M9.037 26.575h.56V60.33h-.56zM15.871 26.575h.561V60.33h-.56z"/><path d="M11.49 54.282l-.279.81s-.565.513-.859-.217l.125-.673c.033-.18 1.013.08 1.013.08z" fill="#f1b282" fill-rule="nonzero"/><path d="M10.264 54.333h1.42s1.329-5.225 1.698-6.609c.291-1.09.63-4.693.496-6.37-.128-1.6-2.847-.734-2.989.39-.415 3.293.359 5.736.319 6.312-.675 1.708-.944 6.277-.944 6.277z" fill="#102b5e" fill-rule="nonzero"/><path d="M14.159 31.069c.171.37.087.57.13.726.041.155.202.47.21.619.006.148-.152.169-.186.364-.034.194.055.448-.063.652-.119.204-.579.157-.552.354.027.197.317.928.317.928l-1.893.031s.076-1.064-.02-1.504c-.097-.44-.31-2.056.083-2.252.393-.196 1.791-.31 1.974.082z" fill="#ffd7c2" fill-rule="nonzero"/><path d="M13.12 30.231c-1.575.05-2.128.446-2.11 1.679.01.734.416 1.75.947 1.747.383-.002 1.139-.045 1.271-.255.314-.497.045-1.184.256-1.421.3-.337.98-.164.886-1.324-.094-1.161-.726-.442-1.25-.426z" fill="#0b224e" fill-rule="nonzero"/><path d="M9.544 29.88s-.269-.749-.221-1.149c.077-.645 1.61-.648 1.676-.09.07.594-.206.749-.386.903a2.34 2.34 0 00-.438.53c-.052.103-.554.102-.631-.194zM20.57 34.087s.563-.562.691-.944c.207-.615-1.177-1.276-1.476-.8-.317.506-.134.765-.037.982.089.212.146.436.17.665.002.116.456.331.652.097z" fill="#ffd7c2" fill-rule="nonzero"/><path d="M15.231 53.045l-.407.754s-.643.413-.812-.356l.233-.643c.063-.172.986.245.986.245z" fill="#f1b282" fill-rule="nonzero"/><path d="M15.19 41.423s2.734 3.875 2.8 4.653c.121 1.404-2.555 6.98-2.555 6.98l-1.384-.298s.927-4.202 1.66-5.635c-1.409-1.907-3.64-2.972-3.64-5.462 0-.675 3.119-.238 3.119-.238z" fill="#0b224e" fill-rule="nonzero"/><path d="M12.309 34.427c.405-.027 1.16.014 1.599.006 1.125-.021 2.645.98 3.863 1.338.796-.863 1.964-2.232 1.964-2.232l.981.607s-1.752 3.026-2.83 3.2c-.651.105-1.7.065-2.512-.273 0 1.013 1.296 4.985.344 5.187-.953.203-2.455-.144-3.379 0-.924.145-1.934.839-1.703-.896.23-1.734 1.241-1.548-.924-4.857-.567-.867-1.228-2.13-1.128-3.188.114-1.228.348-2.442.698-3.625l1.075.174s-.093 2.178-.324 3.45c.231.612.58 1.034.977 1.47.218.238.664-.384 1.299-.361z" fill="#1b90fb" fill-rule="nonzero"/><path d="M10.328 54.681c-.112-.014-.23.106-.225.553.004.447-.016.684.33.732.218.03 1.038-.187 1.837-.173.288.005.819-.13 1.005-.379a.194.194 0 00.022-.185.147.147 0 00-.137-.1c-.643.018-.655.081-1.176-.29-.189-.134-.347-.26-.446-.267-.194-.013-.284.245-.6.212-.317-.034-.416-.077-.61-.103zM14.002 53.226c-.117-.023-.27.133-.328.546-.06.413-.178.743.184.817.228.046 1.411-.074 2.26.007.307.03.666-.12.9-.333a.167.167 0 00.049-.17.145.145 0 00-.13-.103c-.689-.038-.71.019-1.212-.367-.183-.14-.333-.27-.438-.285-.205-.028-.328.148-.66.09-.332-.058-.422-.162-.625-.202z" fill="#0b224e" fill-rule="nonzero"/></g><g><path d="M49.354 19.047h-13.37a.431.431 0 01-.429-.43c0-.235.194-.429.43-.429h13.369c.235 0 .43.194.429.43 0 .235-.194.43-.429.43zM49.354 21.625h-13.37a.431.431 0 01-.429-.43c0-.236.194-.43.43-.43h13.369c.235 0 .43.194.429.43 0 .236-.194.43-.429.43zM49.354 24.202h-13.37a.431.431 0 01-.429-.43c0-.235.194-.43.43-.43h13.369c.235 0 .43.195.429.43 0 .236-.194.43-.429.43zM49.354 26.779h-13.37a.431.431 0 01-.429-.43c0-.235.194-.43.43-.43h13.369c.235 0 .43.195.429.43 0 .236-.194.43-.429.43zM49.354 29.356h-13.37a.431.431 0 01-.429-.43c0-.235.194-.43.43-.43h13.369c.235 0 .43.195.429.43 0 .236-.194.43-.429.43zM49.354 31.933h-13.37a.431.431 0 01-.429-.43c0-.235.194-.429.43-.43h13.369c.235.001.43.195.429.43 0 .236-.194.43-.429.43zM49.354 34.51h-13.37a.431.431 0 01-.429-.43c0-.235.194-.429.43-.43h13.369c.235.001.43.195.429.43 0 .236-.194.43-.429.43zM49.354 37.087h-13.37a.431.431 0 01-.429-.43c0-.235.194-.429.43-.429h13.369c.235 0 .43.194.429.43 0 .235-.194.429-.429.43z" fill="#fff" fill-rule="nonzero"/></g><g><path d="M51.32 37.831c1.396.675 2.267 1.615 2.267 2.66 0 1.041-.871 1.985-2.267 2.656l-5.318-2.656 5.318-2.66z" fill="#7266d5" fill-rule="nonzero"/><path d="M51.32 43.147v1.847c1.095-.527 2.267-1.435 2.267-2.656v-1.847c0 1.224-1.17 2.129-2.267 2.656z" fill="#877cd8" fill-rule="nonzero"/><path d="M51.32 43.147v1.846l-5.318-2.655V40.49l5.318 2.656z" fill="#5f50d0" fill-rule="nonzero"/><g><path d="M52.519 44.81s-1.461 3.163-1.752 5.298c-.207 1.524-.23 6.663-.654 6.975-.518.38-1.14.792-1.14.792l.28.197s1.666-.192 1.738-.359c.073-.167.188-.823.27-1.224.39-1.897 1.02-3.1.964-5.331.416-.762.972-1.671.972-1.671s.136-4.735-.678-4.677z" fill="#ffd7c2" fill-rule="nonzero"/><path d="M51.025 57.46c.164.019.027.591-.169.762l-.723-.008.013-.188s-.658.226-1.007.202c-.358-.024-.652-.067-.648-.126.006-.082.489-.332.593-.325.143.01.276.193.399.196.122.003 1.408-.528 1.542-.513z" fill="#0b224e" fill-rule="nonzero"/><path d="M56.818 55.183c-.676-1.423-.98-3.501-2.139-4.888.2-1.455 1.11-2.262 1.11-3.95.003-.5-.115-.993-.344-1.438l-2.926-.097s-.308 3.14.498 5.96c.315 1.1 3.403 4.632 3.209 5.523a5.133 5.133 0 01-.488 1.245l.37.014s1.289-1.09 1.26-1.27c-.03-.18-.375-.73-.55-1.099zM54.661 36.062c-.266.089-.246.545-.329.678-.083.133-.218.317-.21.42.008.104.274.1.253.355-.02.254-.024.57.365.65.388.079.326.426.34.755.015.329.065.423.198.417a1.91 1.91 0 00.86-.377c.32-.237.692-.928.625-1.323-.129-.763-.412-1.38-1.032-1.554-.62-.173-.845-.096-1.07-.021z" fill="#ffd7c2" fill-rule="nonzero"/><path d="M57.267 56.079c.149-.073.343.483.27.732l-.613.384-.09-.164s-.433.545-.74.714c-.314.173-.584.295-.612.244-.04-.072.232-.544.323-.594.126-.07.337.013.442-.051.104-.065.9-1.206 1.02-1.265zM55.584 44.584c0 .602.446.863.37 2.08-.077 1.219-.777 2.998-1.064 3.189-.288.19-3.984.128-4.114-.123-.346-.665 1.51-4.87 1.87-5.146.36-.276 2.938 0 2.938 0z" fill="#0b224e" fill-rule="nonzero"/><path d="M55.584 44.584c0-1.308 1.276-2.05 1.287-4.352 0-1.077-.656-1.459-1.671-1.46-.676 0-2.1 1.45-2.1 1.908-.001.458.265 1.054.265 1.528 0 .855-.745 1.727-.745 2.376h2.964z" fill="#2ccd7f" fill-rule="nonzero"/><path d="M55.9 40.565s-.166 2.583-2.774 3.623c-.237.094-.315.176-.494.246.053-.356.282-.769.469-1.203l2.1-1.362s.467-.79.7-1.304z" fill="#1eaf69" fill-rule="nonzero"/><path d="M55.2 41.869s-.926 1.212-1.741 1.66c-1.65.907-3.012 1.097-3.012 1.097s-1.509.333-1.739-.325c-.082-.235.273.072 1.02-.054.242-.048-.03-.233-.117-.378-.087-.146.145-.204.485.039.34.242 1.561-.301 2.724-1.242 1.14-.924 1.397-1.748 1.397-1.748s.615.689.983.95z" fill="#ffd7c2" fill-rule="nonzero"/><path d="M54.595 36.191s-.464-.03-.464-.492c0-.827 1.882-1.423 2.633-.418.75 1.005.733 2.343 1.647 3.036.915.693-.101 2.446-1.067 2.472-.966.026-1.957-.937-1.652-1.777.305-.84.644-1.967.093-1.764-.55.204-.322-1.096-1.19-1.057z" fill="#0b224e" fill-rule="nonzero"/><path d="M55.355 38.094a1.075 1.075 0 01-.303.363.347.347 0 00-.223-.266.896.896 0 00.526-.097z" fill="#cd916a" fill-rule="nonzero"/></g></g><g><path d="M23.412 20.241c1.695 0 3.23.337 4.36.873l-4.559 2.273v-3.142c.071-.004.133-.004.199-.004z" fill="#1b90fb" fill-rule="nonzero"/><path d="M27.771 21.114v1.58l-4.558 2.275v-1.582l4.558-2.273z" fill="#1277d7" fill-rule="nonzero"/><path d="M23.213 21.818v3.146l-4.355 2.176c-1.077-.563-1.743-1.33-1.743-2.176 0-.85.666-1.613 1.748-2.179 1.1-.574 2.64-.94 4.35-.967z" fill="#ffd255" fill-rule="nonzero"/><path d="M23.213 24.964v1.581l-4.354 2.176V27.14l4.354-2.176z" fill="#ffbc00" fill-rule="nonzero"/><path d="M17.236 25.582a1.666 1.666 0 01-.12-.618v1.581c0 .846.665 1.613 1.742 2.176V27.14c-.808-.422-1.384-.96-1.622-1.558z" fill="#ffc31b" fill-rule="nonzero"/><g><path d="M28.165 22.94c1.195.578 1.941 1.382 1.941 2.278 0 .891-.746 1.7-1.941 2.273l-4.553-2.273 4.553-2.278z" fill="#dae7ff" fill-rule="nonzero"/><path d="M28.165 27.491v1.581c.94-.452 1.941-1.23 1.941-2.273v-1.582c0 1.048-1.002 1.823-1.941 2.274z" fill="#aec1e8" fill-rule="nonzero"/><path d="M28.165 27.491v1.581L23.612 26.8v-1.582l4.553 2.274z" fill="#c3d3f3" fill-rule="nonzero"/></g><g><path d="M23.344 26.2l4.559 2.274c-1.13.54-2.664.872-4.36.872-.061 0-.127 0-.194-.003-1.71-.023-3.245-.39-4.359-.967l4.354-2.176z" fill="#7ce3b0" fill-rule="nonzero"/><path d="M23.543 29.346c-.062 0-.128 0-.194-.003-1.71-.023-3.245-.39-4.36-.967v1.58c1.116.579 2.65.945 4.36.968.066.003.132.003.194.003 1.166.01 2.327-.161 3.44-.508.315-.1.622-.223.92-.364v-1.581c-1.13.54-2.664.872-4.36.872z" fill="#2ccd7f" fill-rule="nonzero"/></g></g><g><path d="M31.382 34.931c-.166.359-.085.553-.125.704-.041.151-.198.456-.204.6-.007.145.146.165.18.354.033.189-.054.435.06.633.116.198.562.152.536.343-.026.191-.308.9-.308.9l1.836.03s-.073-1.032.02-1.46c.094-.426.3-1.993-.08-2.183-.382-.19-1.738-.301-1.915.08z" fill="#ffd7c2" fill-rule="nonzero"/><path d="M32.39 34.119c1.527.047 2.063.433 2.046 1.628-.01.712-.403 1.698-.918 1.694-.372-.002-1.105-.043-1.233-.247-.305-.482-.044-1.148-.248-1.378-.29-.327-.95-.159-.86-1.285.091-1.125.705-.428 1.213-.412z" fill="#0b224e" fill-rule="nonzero"/><path d="M30.731 58.72v.679h-1.024v-.968l1.024.289zM34.263 58.748v.802h1.042v-.984l-1.042.182z" fill="#f1b282" fill-rule="nonzero"/><path d="M34.872 46.377s.314 4.27.372 5.504c.058 1.233.06 6.685.06 6.685l-1.086.01s-.776-3.517-.734-5.534c-.25-.809-1.57-5.529-1.59-6.492-.02-.963 2.497-.655 2.978-.173z" fill="#0b224e" fill-rule="nonzero"/><path d="M30.026 46.377s-.451 4.329-.509 5.561c-.057 1.233.162 6.628.162 6.628l1.125.077s.565-2.928.614-5.63c.25-.808 1.794-5.563 1.813-6.526.02-.963-2.724-.592-3.205-.11z" fill="#102b5e" fill-rule="nonzero"/><path d="M35.155 41.195s.854 1.06.68 1.9c-.173.838-1.243 2.536-1.503 2.912-.26.375.429.78.429.78s2.192-2.851 2.538-3.718c.346-.867-1.206-3.13-1.206-3.13l-.938 1.256zM29.639 37.616s-.961-.12-1.487-1.755c-.525-1.635-.678-3.831-.487-4.315.303-.768-.023-1.523-.108-1.838-.065-.239-.257-.568-.31-.31-.032.154-.008.555.053.85.053.263-.77.29-.655.694.116.405.231.379.25.666.02.287-.134 3.562.078 4.333.211.77 1.02 2.774 1.616 3.14.596.366 1.05-1.465 1.05-1.465z" fill="#ffd7c2" fill-rule="nonzero"/><path d="M32.11 38.233c.447-.005 2.337-.145 3.276.722.938.867 1.27 1.532 1.327 1.705.058.174-1.155 1.113-1.4.925-.245-.188-.418-.535-.707-.535-.288 0-.144 1.575-.029 2.384.116.81.809 3.092.318 3.309-.49.217-1.76-.072-2.497.116-.736.188-1.962.332-2.366-.13-.404-.463.288-2.211.303-3.338.015-1.127-.029-2.89-.707-3.338-.678-.447-1.5-.592-1.53-1.01-.029-.42 1.183-1.749 1.472-1.604.289.144.812.75 1.357.765.544.015.865.032 1.183.029z" fill="#ffcb01" fill-rule="nonzero"/><path d="M29.427 58.616c.088.271.42.229.63.273.211.045.945.147.971-.054.027-.2-.076-.347-.063-.5.014-.154.182-.35.012-.464-.17-.115-.454-.008-.66-.002-.15.004-.705-.233-.773-.138-.067.095.025.278.001.396-.034.175-.186.279-.118.49zM35.498 58.76c-.101.266-.431.207-.644.24-.212.033-.95.096-.966-.105-.017-.202.094-.343.089-.497-.006-.154-.164-.358.012-.464.177-.106.454.017.66.033.15.012.716-.196.778-.097.063.099-.039.276-.022.395.026.177.172.289.093.495z" fill="#355aa2" fill-rule="nonzero"/><path d="M30.874 59.268c-.143-.144-.39.087-.643.087-.252 0-.392-.173-.524-.183-.132-.01-.2.299-.478.44-.166.084-.558.125-.558.606 0 .12 2.134.09 2.203.05.133-.074.142-.855 0-1zM35.434 59.268c-.143-.144-.39.087-.643.087-.252 0-.392-.173-.524-.183-.132-.01-.2.299-.478.44-.166.084-.558.125-.558.606 0 .12 2.134.09 2.203.05.133-.074.142-.855 0-1z" fill="#102b5e" fill-rule="nonzero"/></g></svg>