<?xml version="1.0" encoding="UTF-8" standalone="no"?>
<!DOCTYPE svg PUBLIC "-//W3C//DTD SVG 1.1//EN" "http://www.w3.org/Graphics/SVG/1.1/DTD/svg11.dtd">
<svg width="100%" height="100%" viewBox="0 0 64 64" version="1.1" xmlns="http://www.w3.org/2000/svg" xmlns:xlink="http://www.w3.org/1999/xlink" xml:space="preserve" xmlns:serif="http://www.serif.com/" style="fill-rule:evenodd;clip-rule:evenodd;stroke-linecap:round;stroke-linejoin:round;stroke-miterlimit:1.5;">
    <path d="M42.26,12.338C41.98,12.556 39.546,11.216 39.846,10.198C40.329,8.558 40.903,9.868 44.245,8.802C44.164,8.4 44.312,7.722 44.675,7.529C45.221,7.239 47.338,7.679 46.73,8.31C46.324,8.731 45.765,8.977 45.051,9.046C46.507,9.726 47.321,11.339 47.947,11.31C48.888,11.266 48.386,12.031 49.618,11.793C50.07,11.705 52.471,12.572 50.353,15.828C48.236,19.085 45.603,19.998 44.621,19.478C44.184,19.246 44.011,18.698 44.102,17.831C43.935,18.214 43.681,18.311 43.341,18.124C42.831,17.843 42.229,17.351 42.914,16.082C43.598,14.812 42.445,12.193 42.259,12.338L42.26,12.338Z" style="fill:rgb(66,53,101);fill-rule:nonzero;"/>
    <path d="M44.574,13.487C44.966,11.996 45.321,11.518 45.686,11.917C46.052,12.317 46.948,12.973 48.088,13.34C48.984,12.672 49.473,13.933 49.857,13.917C50.137,13.906 49.139,14.511 47.946,16.048C46.693,17.663 45.333,18.561 45.439,18.012C45.648,16.941 44.688,15.772 45.168,15.273C45.648,14.774 46.218,14.69 45.848,14.303C45.48,13.917 44.958,13.325 44.574,13.487Z" style="fill:rgb(255,215,194);fill-rule:nonzero;"/>
    <path d="M43.117,17.215C44.006,16.043 45.314,15.055 45.571,14.849C45.878,14.776 45.835,15.174 45.939,15.299C46.124,15.524 46.253,15.822 45.939,17.716C45.832,18.361 45.174,19.546 44.729,20.112C44.494,20.41 42.41,18.774 42.519,17.65C42.535,17.481 43.001,17.369 43.117,17.215Z" style="fill:rgb(140,125,254);"/>
    <path d="M45.723,14.858C45.785,14.801 46.459,16.458 47.473,15.911C48.488,15.364 47.838,13.293 48.045,13.249C48.979,13.053 49.431,13.043 50.077,13.249C50.723,13.455 52.282,16.108 52.809,19.054C53.336,22.001 55.642,22.999 55.201,24.211C49.16,21.605 51.825,22.801 47.324,24.084C48.359,22.701 48.368,21.449 47.352,20.327C46.985,19.923 45.823,19.797 45.623,19.267C45.2,18.151 45.397,15.852 45.477,15.442C45.537,15.13 45.459,15.096 45.723,14.858Z" style="fill:rgb(173,125,254);"/>
    <path d="M45.104,14.146L46.116,12.711C45.941,13.767 45.773,14.218 45.611,14.063C45.449,13.908 45.281,13.936 45.104,14.146Z" style="fill:rgb(239,105,73);fill-rule:nonzero;"/>
    <path d="M45.946,10.775C46.373,10.563 47.086,11.235 46.99,11.723C46.918,12.089 46.626,12.374 46.259,12.438C46.036,13.531 45.124,14.348 44.578,14.551C44.113,14.725 42.618,13.392 42.23,12.221C41.855,11.586 42.268,11.014 42.137,10.551C42.801,11.224 44.133,11.172 44.616,11.221C44.657,11.226 45.382,12.064 45.48,12.059C45.623,12.05 45.527,11.709 45.565,11.759C45.535,11.245 45.662,10.917 45.946,10.775Z" style="fill:rgb(255,215,194);fill-rule:nonzero;"/>
    <path d="M43.697,12.493C43.673,12.513 43.642,12.525 43.61,12.525C43.61,12.525 43.61,12.525 43.61,12.525C43.535,12.525 43.474,12.464 43.474,12.389C43.474,12.314 43.535,12.253 43.61,12.253C43.661,12.253 43.708,12.282 43.731,12.327C43.766,12.382 43.751,12.457 43.697,12.493ZM42.868,12.871C42.844,12.891 42.813,12.902 42.782,12.902C42.707,12.902 42.646,12.841 42.646,12.766C42.646,12.692 42.707,12.63 42.781,12.63C42.833,12.63 42.88,12.66 42.903,12.706C42.938,12.761 42.923,12.835 42.868,12.871ZM43.533,11.688C43.386,11.754 43.248,11.763 43.223,11.71C43.2,11.656 43.3,11.56 43.447,11.495C43.594,11.429 43.732,11.42 43.756,11.473C43.78,11.526 43.68,11.623 43.533,11.688ZM42.381,12.482C42.261,12.589 42.133,12.642 42.094,12.598C42.054,12.555 42.12,12.432 42.239,12.325C42.359,12.218 42.488,12.165 42.527,12.209C42.566,12.252 42.501,12.374 42.381,12.482Z" style="fill:rgb(66,53,101);fill-rule:nonzero;"/>
    <path d="M43.274,12.6C43.299,13.012 43.288,13.275 43.238,13.393C43.221,13.435 43.23,13.453 43.273,13.464C43.371,13.476 43.47,13.469 43.566,13.444C43.58,13.444 43.592,13.456 43.592,13.47C43.592,13.482 43.584,13.493 43.572,13.496C43.47,13.523 43.364,13.53 43.26,13.516C43.212,13.511 43.176,13.47 43.176,13.423C43.176,13.405 43.181,13.388 43.19,13.373C43.235,13.265 43.246,13.006 43.22,12.603L43.22,12.6C43.22,12.585 43.233,12.573 43.247,12.573C43.261,12.573 43.273,12.584 43.274,12.598L43.274,12.6ZM46.437,11.352C46.288,11.132 46.181,11.068 46.111,11.139C46.029,11.219 45.972,11.431 45.944,11.771C45.943,11.784 45.931,11.795 45.918,11.795C45.903,11.795 45.891,11.783 45.891,11.768L45.891,11.766C45.921,11.415 45.98,11.194 46.073,11.101C46.178,10.997 46.316,11.078 46.481,11.322C46.484,11.326 46.486,11.332 46.486,11.337C46.485,11.351 46.473,11.362 46.459,11.362C46.451,11.362 46.443,11.358 46.438,11.352L46.437,11.352Z" style="fill:rgb(239,105,73);fill-rule:nonzero;"/>
    <path d="M46.01,11.348C46.192,11.365 46.27,11.435 46.218,11.552C46.213,11.561 46.204,11.567 46.194,11.567C46.18,11.567 46.168,11.555 46.168,11.541C46.168,11.537 46.168,11.533 46.17,11.53C46.203,11.456 46.156,11.415 46.005,11.4C45.992,11.399 45.981,11.387 45.981,11.374C45.981,11.36 45.993,11.348 46.008,11.348L46.011,11.348L46.01,11.348ZM44.604,13.736C44.494,13.809 44.142,13.746 44.036,13.589C43.93,13.432 44.437,12.883 44.543,13.041C44.649,13.198 44.713,13.661 44.603,13.736L44.604,13.736Z" style="fill:rgb(239,105,73);fill-rule:nonzero;"/>
    <path d="M42.651,10.532C42.644,10.527 42.64,10.519 42.64,10.51C42.642,10.496 42.654,10.485 42.668,10.485C42.672,10.485 42.676,10.486 42.68,10.488C43.08,10.774 43.567,10.908 44.055,10.864C44.503,10.836 44.935,10.686 45.305,10.431C45.309,10.429 45.313,10.428 45.318,10.428C45.333,10.428 45.345,10.439 45.345,10.454C45.345,10.462 45.341,10.469 45.335,10.474C44.958,10.735 44.517,10.888 44.06,10.917C43.56,10.961 43.06,10.824 42.651,10.532Z" style="fill:white;fill-rule:nonzero;"/>
    <path d="M9.402,27.95C8.352,27.95 7.499,28.742 7.499,29.718L7.499,52.312C7.499,53.288 8.351,54.079 9.402,54.079L23.67,54.079C24.72,54.079 25.572,53.288 25.572,52.312L25.572,29.718C25.572,28.742 24.72,27.951 23.67,27.951L9.402,27.951L9.402,27.95ZM9.402,27.698L23.67,27.698C24.87,27.698 25.844,28.603 25.844,29.718L25.844,52.312C25.844,53.427 24.87,54.332 23.67,54.332L9.402,54.332C8.202,54.332 7.228,53.427 7.228,52.312L7.228,29.718C7.228,28.603 8.201,27.698 9.402,27.698Z" style="fill:rgb(217,217,217);fill-rule:nonzero;"/>
    <path d="M30.464,39.384L54.787,39.384C55.905,39.384 56.825,40.304 56.825,41.423L56.825,52.158C56.825,53.276 55.905,54.196 54.787,54.196L30.464,54.196C29.35,54.186 28.436,53.272 28.426,52.158L28.426,41.422C28.426,40.303 29.346,39.383 30.464,39.383L30.464,39.384Z" style="fill:rgb(242,242,242);"/>
    <g transform="matrix(0.08533,0,0,0.08533,-4.988,-7.142)">
        <path d="M552.8,676.6C529.869,676.6 511,657.731 511,634.8C511,611.869 529.869,593 552.8,593C575.731,593 594.6,611.869 594.6,634.8C594.6,657.731 575.731,676.6 552.8,676.6ZM552.8,670.931C572.621,670.931 588.932,654.62 588.932,634.799C588.932,614.978 572.621,598.667 552.8,598.667C532.979,598.667 516.668,614.978 516.668,634.799L516.668,634.801C516.668,654.622 532.978,670.932 552.799,670.932L552.8,670.932L552.8,670.931Z" style="fill:url(#_Linear1);"/>
    </g>
    <g transform="matrix(0.08533,0,0,0.08533,-5.731,-7.743)">
        <path d="M557.408,627.975L575.293,639.688C575.967,640.129 576.375,640.882 576.375,641.688C576.375,642.494 575.967,643.247 575.293,643.688L557.408,655.4C557.018,655.656 556.562,655.793 556.096,655.793C554.791,655.781 553.72,654.71 553.708,653.405L553.708,629.97C553.72,628.664 554.791,627.593 556.097,627.581C556.563,627.581 557.019,627.717 557.408,627.973L557.408,627.975Z" style="fill:url(#_Linear2);"/>
    </g>
    <path d="M30.464,27.97C29.424,27.98 28.572,28.832 28.562,29.872L28.562,34.357C28.562,35.4 29.42,36.259 30.464,36.259L54.787,36.259C55.827,36.25 56.68,35.397 56.69,34.357L56.69,29.872C56.68,28.832 55.827,27.979 54.787,27.97L30.464,27.97ZM30.464,27.698L54.787,27.698C55.98,27.698 56.962,28.68 56.962,29.872L56.962,34.357C56.952,35.546 55.977,36.521 54.788,36.531L30.464,36.531C29.275,36.521 28.3,35.546 28.29,34.357L28.29,29.872C28.29,28.68 29.271,27.698 30.464,27.698Z" style="fill:rgb(204,204,204);fill-rule:nonzero;"/>
    <path d="M29.854,35.251C29.845,35.253 29.836,35.254 29.827,35.254C29.752,35.254 29.69,35.193 29.689,35.118C29.689,35.055 29.733,35 29.795,34.986L55.816,29.196C55.825,29.194 55.835,29.193 55.844,29.193C55.919,29.193 55.98,29.253 55.982,29.328C55.982,29.392 55.937,29.448 55.875,29.461L29.854,35.251Z" style="fill:rgb(217,217,217);fill-rule:nonzero;"/>
    <g transform="matrix(0.99286,0,0,1.02632,0.029,-1.658)">
        <rect x="4" y="25" width="56" height="38" style="fill:none;stroke:rgb(204,204,204);stroke-width:0.2px;"/>
    </g>
    <path d="M55.816,35.251L29.795,29.461C29.733,29.447 29.689,29.392 29.688,29.329C29.688,29.254 29.75,29.193 29.825,29.193C29.835,29.193 29.844,29.194 29.854,29.196L55.875,34.986C55.937,35 55.982,35.055 55.982,35.119C55.98,35.194 55.919,35.254 55.844,35.254C55.835,35.254 55.825,35.253 55.816,35.251Z" style="fill:rgb(217,217,217);fill-rule:nonzero;"/>
    <path d="M7.296,19.817L56.35,19.817C58.207,19.835 59.729,21.357 59.747,23.214L59.747,24.844L3.899,24.844L3.899,23.214C3.917,21.357 5.439,19.835 7.296,19.817Z" style="fill:rgb(242,242,242);"/>
    <g transform="matrix(0.08533,0,0,0.08533,7.733,21.12)">
        <ellipse cx="13.45" cy="16.812" rx="13.45" ry="16.812" style="fill:rgb(255,159,94);"/>
    </g>
    <g transform="matrix(0.08533,0,0,0.08533,11.176,21.12)">
        <ellipse cx="20.174" cy="16.812" rx="20.174" ry="16.812" style="fill:rgb(255,159,94);"/>
    </g>
    <path d="M24.566,52.942C24.578,52.963 24.585,52.987 24.585,53.011C24.585,53.086 24.524,53.147 24.449,53.147C24.407,53.147 24.367,53.128 24.341,53.094L8.541,29.66C8.528,29.639 8.521,29.614 8.521,29.589C8.521,29.514 8.582,29.453 8.657,29.453C8.7,29.453 8.741,29.474 8.767,29.509L24.567,52.941L24.566,52.942Z" style="fill:rgb(217,217,217);fill-rule:nonzero;"/>
    <path d="M8.542,52.942L24.342,29.509C24.368,29.478 24.406,29.459 24.447,29.459C24.522,29.459 24.583,29.521 24.583,29.595C24.583,29.596 24.583,29.596 24.583,29.596C24.583,29.619 24.577,29.641 24.566,29.661L8.767,53.094C8.741,53.128 8.701,53.147 8.659,53.147C8.584,53.147 8.523,53.086 8.523,53.011C8.523,52.987 8.53,52.963 8.542,52.942Z" style="fill:rgb(217,217,217);fill-rule:nonzero;"/>
    <path d="M37.37,20.9C38.49,20.751 39.351,20.524 39.951,20.219C40.336,20.04 40.745,19.915 41.164,19.847C41.796,19.691 42.229,18.947 42.811,18.591C43.198,19.035 43.614,19.453 44.056,19.841C43.104,20.787 42.502,21.3 42.25,21.379C41.45,21.629 39.746,21.832 37.137,21.986C36.88,22.125 36.608,22.234 36.327,22.312C35.301,22.686 34.336,21.522 34.37,21.137C34.393,20.877 36.364,21.062 36.426,20.814C36.463,20.672 36.311,20.264 36.386,20.203C36.535,20.083 37.191,20.687 37.37,20.9ZM42.381,23.392C43.266,22.688 44.359,21.549 44.854,21.067C45.171,20.757 45.332,20.785 45.722,20.437C47.842,18.327 47.084,17.307 48.352,16.723C49.457,16.213 49.599,16.795 50.034,17.29C50.47,17.785 48.164,20.773 47.329,21.713C46.773,22.34 44.899,22.968 42.742,24.443C42.593,24.695 42.416,24.929 42.215,25.141C41.529,25.989 40.101,25.489 39.932,25.141C39.819,24.907 41.602,24.05 41.529,23.805C41.486,23.665 41.145,23.393 41.179,23.302C41.245,23.123 42.119,23.302 42.381,23.392Z" style="fill:rgb(255,215,194);fill-rule:nonzero;"/>
    <path d="M50.287,17.873C50.194,18.043 50.281,18.513 50.133,18.597C49.151,19.153 46.808,17.915 46.985,17.579C47.167,17.235 47.898,16.443 48.379,15.463C48.787,14.631 48.938,13.585 49.239,13.378C49.929,12.902 50.779,13.138 51.507,15.408C51.597,15.691 50.996,16.585 50.287,17.873Z" style="fill:rgb(173,125,254);"/>
    <path d="M16.252,33.501C15.647,33.467 16.636,31.821 18.649,30.877C19.805,31.216 19.705,32.817 20.503,33.442C20.809,33.681 19.127,35.513 18.725,35.282C17.538,34.6 16.929,33.539 16.252,33.501Z" style="fill:rgb(72,82,149);"/>
    <path d="M17.963,27.893C17.703,28.966 17.223,29.585 16.523,29.749C15.472,29.995 15.367,29.225 14.476,29.749C13.883,30.099 13.452,31.429 13.186,33.739C12.855,36.359 12.344,38.304 11.651,39.57C11.325,40.167 13.086,40.167 16.933,39.57C18.103,37.737 18.844,36.39 19.157,35.53C19.627,34.24 19.571,32.131 19.157,31.597C18.937,31.32 18.731,31.032 18.542,30.733C18.969,29.642 19.252,29.096 19.394,29.096C19.534,29.096 19.058,28.696 17.963,27.893ZM11.302,59.33L10.986,59.825L12.417,60.113C12.837,58.818 13.051,57.845 13.057,57.193C13.117,50.226 11.679,58.189 11.302,59.33ZM18.324,59.826L19.877,59.972C19.646,58.883 19.533,58.014 19.539,57.363C19.571,53.733 19.069,53.873 18.033,57.788L18.324,59.826Z" style="fill:rgb(255,215,194);fill-rule:nonzero;"/>
    <path d="M12.082,40.805C12.349,39.386 14.023,38.843 17.106,39.175C18.592,42.739 19.43,45.688 19.619,48.02C19.809,50.353 19.809,53.63 19.619,57.85C18.817,58.423 18.167,58.51 17.669,58.111C16.922,57.514 17.696,57.313 17.106,56.219C16.516,55.124 16.532,50.749 16.207,49.876C14.841,46.211 11.89,41.828 12.082,40.805Z" style="fill:rgb(173,125,254);"/>
    <path d="M11.65,39.57C11.151,40.483 12.225,45.455 12.39,49.362C12.416,49.982 11.35,53.479 11.35,56.49C11.35,57.873 10.87,57.353 10.99,57.814C11.233,58.738 11.997,58.82 13.283,58.061C14.231,54.856 14.976,52.115 15.518,49.838C16.06,47.561 16.532,44.138 16.933,39.569C14.104,38.303 12.343,38.303 11.651,39.569L11.65,39.57Z" style="fill:rgb(173,125,254);"/>
    <path d="M17.424,26.388C17.318,25.25 18.024,24.192 19.116,23.941C20.311,23.665 21.344,23.054 22.009,24.621C22.673,26.189 21.075,29.872 20.459,29.758C19.183,29.521 18.465,28.915 18.033,28.194L18.016,28.198C17.946,28.214 17.875,28.222 17.804,28.222C17.279,28.222 16.847,27.792 16.844,27.267C16.844,26.885 17.072,26.537 17.424,26.387L17.424,26.388Z" style="fill:rgb(255,215,194);fill-rule:nonzero;"/>
    <g transform="matrix(0.08533,0,0,0.08533,20.603,26.439)">
        <ellipse cx="1.686" cy="2.105" rx="1.686" ry="2.105" style="fill:rgb(66,53,101);"/>
    </g>
    <g transform="matrix(0.08533,0,0,0.08533,21.718,26.295)">
        <ellipse cx="1.686" cy="2.105" rx="1.686" ry="2.105" style="fill:rgb(66,53,101);"/>
    </g>
    <path d="M20.554,24.968C20.375,25.713 19.948,26.008 19.271,25.849C19.555,26.358 19.364,26.845 18.699,27.312C18.437,26.941 18.071,26.656 17.647,26.494C17.234,26.322 16.447,27.571 18.021,28.251C17.879,28.484 17.726,28.71 17.561,28.928C17.175,28.258 16.893,27.818 16.715,27.609C16.201,27.004 15.733,26.589 15.655,26.186C15.535,25.573 15.905,25.124 16.766,24.84C16.546,24.044 16.722,23.464 17.293,23.1C17.864,22.735 18.395,22.666 18.885,22.894C19.318,20.826 20.459,20.021 22.308,20.476C25.083,21.159 23.908,24.948 22.459,25.229C21.493,25.417 20.858,25.33 20.554,24.969L20.554,24.968Z" style="fill:rgb(66,53,101);fill-rule:nonzero;"/>
    <path d="M10.857,59.455C10.64,59.965 10.541,60.946 11.268,60.946C11.995,60.946 15.795,61.122 15.4,60.8C15.137,60.586 14.2,60.137 12.592,59.455C12.302,59.725 12.042,59.795 11.811,59.665C11.605,59.549 11.073,58.943 10.857,59.455ZM18.05,59.455C17.834,59.965 17.735,60.946 18.462,60.946C19.189,60.946 22.989,61.122 22.594,60.8C22.331,60.586 21.394,60.137 19.785,59.455C19.495,59.725 19.235,59.795 19.005,59.665C18.799,59.549 18.267,58.943 18.05,59.455ZM16.145,29.727C15.505,29.695 14.328,29.118 13.593,29.551C12.999,29.9 12.873,31.301 13.213,33.753C12.742,36.461 11.945,38.404 10.822,39.584C9.859,40.596 12.852,41.844 15.052,41.902C16.701,41.946 17.552,40.915 17.892,40.848C18.687,40.692 17.712,38.604 17.892,38.198C18.383,37.08 18.955,36.175 19.185,35.544C19.654,34.254 19.599,32.145 19.185,31.611C18.964,31.334 18.759,31.045 18.57,30.746C18.761,31.323 18.535,31.611 17.892,31.611C16.928,31.611 16.28,29.733 16.145,29.727Z" style="fill:rgb(72,82,149);"/>
    <path d="M8.392,39.06L26.968,28.335C27.88,27.814 29.059,28.129 29.588,29.037L31.564,32.461C32.09,33.372 31.774,34.555 30.862,35.081L12.287,45.805C11.376,46.331 10.193,46.015 9.667,45.104L7.691,41.679C7.169,40.767 7.485,39.588 8.392,39.059L8.392,39.06Z" style="fill:rgb(255,197,101);"/>
    <g transform="matrix(0.08533,0,0,0.08533,10.527,38.987)">
        <circle cx="26.687" cy="26.687" r="26.687" style="fill:rgb(250,254,255);"/>
    </g>
    <path d="M29.094,36.108C29.124,36.575 29.074,36.844 28.942,36.916C28.746,37.024 28.481,37.085 27.907,37.206C27.55,37.282 26.995,36.858 27.017,36.718C27.031,36.625 27.219,36.682 27.58,36.89C27.197,36.407 27.045,36.147 27.123,36.108C27.202,36.07 27.478,36.244 27.953,36.63C27.509,36.028 27.343,35.7 27.453,35.645C27.565,35.591 27.873,35.853 28.378,36.43C27.936,35.677 27.778,35.29 27.904,35.27C28.02,35.252 28.234,35.607 28.768,36.152C28.796,36.181 28.905,36.166 29.094,36.108ZM11.164,32.37C11.304,31.363 13.337,33.033 13.014,33.608C12.34,34.804 11.987,35.003 11.999,35.65C12.004,35.925 12.49,36.251 12.747,36.766C13.365,38.006 14.455,40.044 14.961,40.279C15.019,40.305 16.004,39.675 16.231,39.697C16.403,39.713 15.836,40.383 15.851,40.394C16.004,40.514 17.368,40.651 17.571,40.803C17.707,40.903 17.361,40.937 16.533,40.903C17.247,41.097 17.587,41.221 17.553,41.274C17.518,41.327 17.099,41.326 16.295,41.271C16.996,41.519 17.333,41.662 17.305,41.699C17.277,41.736 16.879,41.674 16.112,41.512C16.63,41.812 16.862,41.987 16.81,42.036C16.731,42.11 16.095,41.796 15.753,41.846C15.339,41.908 14.813,41.508 14.748,41.472C12.986,40.514 9.807,36.388 9.596,35.992C9.069,34.999 10.925,34.095 11.164,32.37Z" style="fill:rgb(255,215,194);fill-rule:nonzero;"/>
    <g transform="matrix(0.08533,0,0,0.08533,21.479,25.732)">
        <ellipse cx="4.637" cy="1.684" rx="4.637" ry="1.684" style="fill:rgb(66,53,101);"/>
    </g>
    <g transform="matrix(0.08533,0,0,0.08533,20.052,25.912)">
        <ellipse cx="4.637" cy="1.684" rx="4.637" ry="1.684" style="fill:rgb(66,53,101);"/>
    </g>
    <path d="M21.386,26.538L21.386,26.536C21.386,26.516 21.402,26.5 21.422,26.5C21.44,26.5 21.455,26.514 21.458,26.531C21.51,27.078 21.58,27.421 21.664,27.557C21.684,27.58 21.695,27.61 21.695,27.641C21.695,27.699 21.655,27.75 21.599,27.764C21.463,27.804 21.319,27.818 21.177,27.804C21.158,27.803 21.142,27.786 21.143,27.767C21.143,27.747 21.159,27.732 21.179,27.732L21.18,27.732C21.311,27.745 21.444,27.733 21.571,27.697C21.626,27.674 21.635,27.647 21.602,27.595C21.511,27.447 21.44,27.096 21.386,26.538ZM20.637,28.618C20.623,28.613 20.614,28.6 20.614,28.585C20.614,28.565 20.631,28.548 20.651,28.548C20.656,28.548 20.66,28.549 20.664,28.551C20.901,28.645 21.056,28.609 21.144,28.444C21.151,28.434 21.162,28.428 21.174,28.428C21.193,28.428 21.21,28.445 21.21,28.464C21.21,28.469 21.209,28.474 21.207,28.478C21.1,28.678 20.905,28.725 20.637,28.618ZM17.448,27.361C17.444,27.377 17.43,27.389 17.413,27.389C17.393,27.389 17.377,27.373 17.377,27.353L17.378,27.345C17.469,26.955 17.604,26.785 17.788,26.866C17.952,26.939 18.135,27.19 18.343,27.621L18.346,27.635C18.346,27.655 18.329,27.671 18.31,27.671C18.297,27.671 18.284,27.664 18.278,27.652C18.078,27.236 17.902,26.995 17.758,26.932C17.636,26.877 17.531,27.01 17.448,27.362L17.448,27.361Z" style="fill:rgb(239,105,73);fill-rule:nonzero;"/>
    <path d="M15.94,33.77C15.033,34.263 13.69,37.052 13.218,37.117C12.746,37.181 9.588,35.359 10.502,34.81C11.417,34.26 13.069,32.009 13.581,31.55C13.885,31.278 14.726,31.66 15.631,32.167C16.248,32.512 16.244,33.604 15.941,33.769L15.94,33.77Z" style="fill:rgb(72,82,149);"/>
    <path d="M18.075,27.21C18.093,27.212 18.107,27.228 18.107,27.246C18.107,27.266 18.091,27.282 18.071,27.282L18.068,27.282C17.862,27.262 17.79,27.305 17.815,27.412L17.815,27.418C17.814,27.437 17.798,27.452 17.779,27.452C17.764,27.452 17.75,27.442 17.745,27.428C17.705,27.258 17.828,27.186 18.075,27.21Z" style="fill:rgb(239,105,73);fill-rule:nonzero;"/>
    <path d="M23.327,23.447C23.69,23.213 23.78,22.792 23.572,22.397C23.569,22.392 23.568,22.386 23.568,22.38C23.568,22.36 23.584,22.344 23.604,22.344C23.617,22.344 23.629,22.352 23.636,22.364C23.861,22.791 23.761,23.253 23.366,23.507C23.163,23.623 22.945,23.711 22.719,23.769C22.839,23.934 22.871,24.101 22.773,24.221C22.553,24.486 22.11,24.581 21.443,24.51C21.425,24.508 21.411,24.492 21.411,24.474C21.411,24.454 21.428,24.438 21.447,24.438L21.452,24.438C22.096,24.507 22.517,24.418 22.717,24.175C22.794,24.082 22.757,23.937 22.643,23.79C22.54,23.817 22.435,23.838 22.329,23.854C22.162,23.887 21.99,23.882 21.826,23.838C21.714,23.809 21.636,23.707 21.636,23.591C21.636,23.568 21.639,23.544 21.646,23.521C21.666,23.378 21.799,23.276 21.942,23.294C22.105,23.312 22.262,23.372 22.394,23.469C22.497,23.536 22.59,23.616 22.67,23.709C22.9,23.651 23.12,23.563 23.327,23.447ZM22.354,23.529C22.223,23.434 22.069,23.376 21.908,23.363C21.811,23.363 21.728,23.437 21.717,23.534C21.711,23.552 21.708,23.572 21.708,23.591C21.708,23.676 21.767,23.751 21.85,23.77C22.003,23.81 22.164,23.814 22.319,23.783C22.406,23.77 22.499,23.751 22.592,23.729C22.521,23.653 22.441,23.586 22.354,23.529Z" style="fill:white;fill-rule:nonzero;"/>
    <path d="M18.334,28.64L18.974,29.68L19.178,29.275L18.334,28.64Z" style="fill:rgb(239,105,73);fill-rule:nonzero;"/>
    <path d="M16.064,38.426C16.021,38.453 15.97,38.468 15.919,38.468C15.771,38.468 15.649,38.347 15.648,38.199C15.648,38.098 15.705,38.005 15.794,37.959L26.204,31.967C26.241,31.949 26.282,31.939 26.323,31.939C26.471,31.939 26.593,32.061 26.594,32.209C26.594,32.299 26.548,32.384 26.473,32.434L16.064,38.426ZM16.963,40.164C16.922,40.187 16.876,40.199 16.829,40.199C16.681,40.199 16.559,40.078 16.558,39.93C16.558,39.834 16.61,39.744 16.693,39.696L27.103,33.704C27.145,33.679 27.194,33.665 27.243,33.665C27.391,33.665 27.513,33.786 27.514,33.934C27.514,34.033 27.459,34.125 27.372,34.172L16.962,40.164L16.963,40.164Z" style="fill:rgb(250,254,255);fill-rule:nonzero;"/>
    <g>
        <path d="M52.588,53.667C52.588,53.667 46.086,44.389 46.098,38.746C46.112,33.103 52.142,32.434 52.588,40.36C53.034,48.28 52.588,53.667 52.588,53.667Z" style="fill:rgb(255,213,116);fill-rule:nonzero;"/>
        <path d="M52.588,53.667C52.588,53.667 53.368,44.717 58.165,42.151C62.961,39.586 64.339,43.076 63.933,44.067C63.519,45.051 52.588,53.667 52.588,53.667Z" style="fill:rgb(27,144,251);fill-rule:nonzero;"/>
        <path d="M52.588,53.667L48.645,38.49M59.504,44.454C55.632,47.184 52.588,53.666 52.588,53.666C52.588,53.666 49.241,51.226 46.584,50.681" style="fill:none;stroke:white;stroke-width:0.26px;stroke-miterlimit:4;"/>
        <path d="M52.955,62.512L51.923,62.512C49.189,62.512 46.938,60.262 46.938,57.527L46.938,53.667L57.948,53.667L57.948,57.525C57.944,60.261 55.692,62.511 52.955,62.512Z" style="fill:rgb(206,213,229);fill-rule:nonzero;"/>
    </g>
    <defs>
        <linearGradient id="_Linear1" x1="0" y1="0" x2="1" y2="0" gradientUnits="userSpaceOnUse" gradientTransform="matrix(4.14298e-14,676.6,-676.6,4.14298e-14,552.8,0)"><stop offset="0" style="stop-color:rgb(255,156,204);stop-opacity:1"/><stop offset="1" style="stop-color:rgb(255,115,183);stop-opacity:1"/></linearGradient>
        <linearGradient id="_Linear2" x1="0" y1="0" x2="1" y2="0" gradientUnits="userSpaceOnUse" gradientTransform="matrix(4.01557e-14,655.793,-655.793,4.01557e-14,565.042,0)"><stop offset="0" style="stop-color:rgb(255,156,204);stop-opacity:1"/><stop offset="1" style="stop-color:rgb(255,115,183);stop-opacity:1"/></linearGradient>
    </defs>
</svg>
