<?xml version="1.0" encoding="UTF-8" standalone="no"?>
<!DOCTYPE svg PUBLIC "-//W3C//DTD SVG 1.1//EN" "http://www.w3.org/Graphics/SVG/1.1/DTD/svg11.dtd">
<svg width="100%" height="100%" viewBox="0 0 64 64" version="1.1" xmlns="http://www.w3.org/2000/svg" xmlns:xlink="http://www.w3.org/1999/xlink" xml:space="preserve" xmlns:serif="http://www.serif.com/" style="fill-rule:evenodd;clip-rule:evenodd;stroke-miterlimit:10;">
    <g id="金刚区卡片默认icon_8" transform="matrix(0.0853333,0,0,0.0853333,0.171957,0)">
        <g id="路径_12322" transform="matrix(1,0,0,1,-0.008,136.729)">
            <path d="M731.336,424.027C731.336,424.027 716.3,271.186 574.292,244.283C523.511,234.788 477.207,208.926 442.492,170.667C437.745,165.415 432.973,159.867 428.234,153.928C379.934,93.869 299.072,70.928 227.288,98.255C202.536,107.543 180.033,121.977 161.269,140.6C135.289,166.728 118.18,200.381 112.379,236.767C106.623,272.218 92.072,331.95 58.424,347.79C55.074,349.334 51.898,351.233 48.952,353.453C36.743,362.773 11.741,386.953 19.996,424.766L731.336,424.027Z" style="fill:white;fill-opacity:0.26;fill-rule:nonzero;"/>
        </g>
        <g id="路径_12323" transform="matrix(1,0,0,1,-664.99,37.347)">
            <path d="M1284.1,291.139C1284.1,304.977 1239.02,316.939 1173.25,322.853L1173.25,259.43C1239.03,265.339 1284.1,277.306 1284.1,291.139Z" style="fill:rgb(141,191,252);fill-rule:nonzero;"/>
        </g>
        <g id="路径_12324" transform="matrix(1,0,0,1,-596.125,-201.061)">
            <path d="M1053.65,673.48L1143.06,673.48" style="fill:none;fill-rule:nonzero;stroke:white;stroke-width:1.73px;"/>
        </g>
        <g id="路径_12325" transform="matrix(1,0,0,1,-575.511,-218.634)">
            <path d="M1017.85,704L1100.33,704" style="fill:none;fill-rule:nonzero;stroke:white;stroke-width:1.73px;"/>
        </g>
        <g id="路径_12326" transform="matrix(1,0,0,1,-544.09,-236.282)">
            <path d="M963.28,734.65L1074.04,734.65" style="fill:none;fill-rule:nonzero;stroke:white;stroke-width:1.73px;"/>
        </g>
        <g id="路径_12327" transform="matrix(1,0,0,1,-556.291,-183.51)">
            <path d="M984.47,643L1061.82,643" style="fill:none;fill-rule:nonzero;stroke:white;stroke-width:1.73px;"/>
        </g>
        <g id="路径_12328" transform="matrix(1,0,0,1,-606,-221.444)">
            <path d="M1070.8,708.88L1070.8,717.742" style="fill:none;fill-rule:nonzero;stroke:white;stroke-width:1.73px;"/>
        </g>
        <g id="路径_12329" transform="matrix(1,0,0,1,-606,-186.487)">
            <path d="M1070.8,648.17L1070.8,657.006" style="fill:none;fill-rule:nonzero;stroke:white;stroke-width:1.73px;"/>
        </g>
        <g id="路径_12330" transform="matrix(1,0,0,1,-651.142,-221.444)">
            <path d="M1149.2,708.88L1149.2,717.742" style="fill:none;fill-rule:nonzero;stroke:white;stroke-width:1.73px;"/>
        </g>
        <g id="路径_12331" transform="matrix(1,0,0,1,-651.142,-186.286)">
            <path d="M1149.2,647.82L1149.2,656.635" style="fill:none;fill-rule:nonzero;stroke:white;stroke-width:1.73px;"/>
        </g>
        <g id="路径_12332" transform="matrix(1,0,0,1,-627.874,-203.865)">
            <path d="M1108.79,678.35L1108.79,687.216" style="fill:none;fill-rule:nonzero;stroke:white;stroke-width:1.73px;"/>
        </g>
        <g id="路径_12333" transform="matrix(1,0,0,1,-674.272,-203.865)">
            <path d="M1189.37,678.35L1189.37,687.216" style="fill:none;fill-rule:nonzero;stroke:white;stroke-width:1.73px;"/>
        </g>
        <g id="路径_12334" transform="matrix(1,0,0,1,-244.164,73.035)">
            <path d="M531.7,197.45L442.39,197.45" style="fill:none;fill-rule:nonzero;stroke:white;stroke-width:1.73px;"/>
        </g>
        <g id="路径_12335" transform="matrix(1,0,0,1,-300.241,90.614)">
            <path d="M617.176,166.92L539.776,166.92" style="fill:none;fill-rule:nonzero;stroke:white;stroke-width:1.73px;"/>
        </g>
        <g id="路径_12336" transform="matrix(1,0,0,1,-355.586,87.609)">
            <path d="M635.9,172.14L635.9,180.989" style="fill:none;fill-rule:nonzero;stroke:white;stroke-width:1.73px;"/>
        </g>
        <g id="路径_12337" transform="matrix(1,0,0,1,-310.444,87.81)">
            <path d="M557.5,171.79L557.5,180.6" style="fill:none;fill-rule:nonzero;stroke:white;stroke-width:1.73px;"/>
        </g>
        <g id="路径_12338" transform="matrix(1,0,0,1,-333.712,70.231)">
            <path d="M597.91,202.32L597.91,211.186" style="fill:none;fill-rule:nonzero;stroke:white;stroke-width:1.73px;"/>
        </g>
        <g id="路径_12339" transform="matrix(1,0,0,1,-70.372,-271.906)">
            <path d="M229.872,796.52L140.56,796.52" style="fill:none;fill-rule:nonzero;stroke:white;stroke-width:1.73px;"/>
        </g>
        <g id="路径_12340" transform="matrix(1,0,0,1,-100.33,-289.549)">
            <path d="M311.541,827.16L192.59,827.16" style="fill:none;fill-rule:nonzero;stroke:white;stroke-width:1.73px;"/>
        </g>
        <g id="路径_12341" transform="matrix(1,0,0,1,-126.443,-254.333)">
            <path d="M315.34,766L237.94,766" style="fill:none;fill-rule:nonzero;stroke:white;stroke-width:1.73px;"/>
        </g>
        <g id="路径_12342" transform="matrix(1,0,0,1,-136.652,-257.137)">
            <path d="M255.67,770.87L255.67,779.681" style="fill:none;fill-rule:nonzero;stroke:white;stroke-width:1.73px;"/>
        </g>
        <g id="路径_12343" transform="matrix(1,0,0,1,-187.425,-257.137)">
            <path d="M343.85,770.87L343.85,779.681" style="fill:none;fill-rule:nonzero;stroke:white;stroke-width:1.73px;"/>
        </g>
        <g id="路径_12344" transform="matrix(1,0,0,1,-136.652,-291.622)">
            <path d="M255.67,830.76L255.67,839.626" style="fill:none;fill-rule:nonzero;stroke:white;stroke-width:1.73px;"/>
        </g>
        <g id="路径_12345" transform="matrix(1,0,0,1,-187.425,-291.622)">
            <path d="M343.85,830.76L343.85,839.626" style="fill:none;fill-rule:nonzero;stroke:white;stroke-width:1.73px;"/>
        </g>
        <g id="路径_12346" transform="matrix(1,0,0,1,-159.919,-274.711)">
            <path d="M296.08,801.39L296.08,810.256" style="fill:none;fill-rule:nonzero;stroke:white;stroke-width:1.73px;"/>
        </g>
        <g id="路径_12347" transform="matrix(1,0,0,1,-113.522,-274.711)">
            <path d="M215.5,801.39L215.5,810.256" style="fill:none;fill-rule:nonzero;stroke:rgb(1,110,252);stroke-opacity:0.25;stroke-width:1.73px;"/>
        </g>
        <g id="路径_12348" transform="matrix(1,0,0,1,-11.968,-321.166)">
            <path d="M83.763,882.808C83.763,882.808 -69.523,900.281 192.029,926.386C192.029,926.386 213.905,928.159 183.829,935.837C154.529,943.273 154.529,957.7 198.918,959.817C280.467,963.66 589.479,967.796 630.105,945.589C630.105,945.589 656.673,934.755 604.905,930.962C570.235,928.451 602.759,926.631 604.905,926.431C644.56,922.393 712.534,911.02 680.061,882.068L83.763,882.808Z" style="fill:white;fill-opacity:0.49;fill-rule:nonzero;"/>
        </g>
        <g id="路径_12349" transform="matrix(1,0,0,1,10.562,-321.431)">
            <path d="M0,882.53L734.438,882.53" style="fill:none;fill-rule:nonzero;stroke:rgb(1,110,252);stroke-width:1.73px;"/>
        </g>
        <g id="路径_12350" transform="matrix(1,0,0,1,-420.277,41.493)">
            <path d="M814.905,252.23C791.574,252.23 769.091,252.921 748.25,254.203L748.25,334.429C769.15,333.156 791.566,332.456 814.905,332.456C845.134,332.456 873.848,333.64 899.631,335.705L899.631,255.484C873.849,253.363 845.181,252.23 814.905,252.23Z" style="fill:rgb(141,191,252);fill-rule:nonzero;"/>
        </g>
        <g id="路径_12351" transform="matrix(1,0,0,1,-239.99,35.407)">
            <path d="M531.922,262.8L531.922,323.364C473.861,317.111 435.14,305.883 435.14,293.08C435.14,280.277 473.861,269.053 531.922,262.8Z" style="fill:rgb(198,221,255);fill-rule:nonzero;"/>
        </g>
        <g id="路径_12352" transform="matrix(1,0,0,1,-656.042,43.921)">
            <path d="M1159.28,261.866L1157.71,251.528C1157.71,251.528 1170.7,246.259 1183.89,248.622C1183.89,248.622 1198.83,249.657 1198.34,253.25C1198.34,253.25 1199.32,256.105 1183.6,254.972C1180.03,254.726 1179.5,255.366 1179.54,256.351C1179.54,256.351 1180.18,258.472 1185.2,258.472C1186.15,258.469 1187.08,258.672 1187.94,259.066L1187.99,259.066C1188.51,259.322 1188.84,259.851 1188.84,260.428C1188.84,261.156 1188.31,261.788 1187.6,261.921C1183.6,262.71 1174.02,264.042 1167.19,261.23C1165.86,260.67 1164.41,260.467 1162.99,260.64C1161.69,260.846 1160.44,261.26 1159.28,261.866Z" style="fill:rgb(250,200,151);fill-rule:nonzero;"/>
        </g>
        <g id="路径_12353" transform="matrix(1,0,0,1,-342.66,-389.34)">
            <path d="M687.626,1011.79C728.591,1011.79 761.802,1009.25 761.802,1006.13C761.802,1003.01 728.591,1000.47 687.626,1000.47C646.661,1000.47 613.45,1003.01 613.45,1006.13C613.45,1009.24 646.661,1011.79 687.626,1011.79Z" style="fill:rgb(141,191,252);fill-rule:nonzero;"/>
        </g>
        <g id="路径_12354" transform="matrix(1,0,0,1,-476.56,-350.082)">
            <path d="M869.725,936.786C869.725,936.786 866.599,947.226 877.636,953.725C877.636,953.725 888.767,959.24 885.251,966.281L846,952.529C846,952.529 845.9,947.439 849.907,944.503C852.712,942.552 854.872,939.807 856.107,936.621C856.683,935.245 857.013,933.78 857.083,932.29L869.725,936.786Z" style="fill:rgb(33,42,113);fill-rule:nonzero;"/>
        </g>
        <g id="路径_12355" transform="matrix(1,0,0,1,-306.736,-203.226)">
            <path d="M576.109,697.212C576.109,697.212 565.317,696.521 561.509,708.784C561.509,708.784 558.675,720.946 551.061,719.122L555.502,677.465C558.546,676.81 561.729,677.572 564.147,679.535C566.638,681.848 569.77,683.358 573.132,683.866C574.584,684.141 576.075,684.141 577.527,683.866L576.109,697.212Z" style="fill:rgb(33,42,113);fill-rule:nonzero;"/>
        </g>
        <g id="路径_12356" transform="matrix(1,0,0,1,-331.362,-79.683)">
            <path d="M725.991,462.68C725.991,462.68 763.346,560.62 721.94,569.88C721.94,569.88 674.035,596.605 593.83,571.899L594.369,557.128C594.369,557.128 663.807,555.855 673.33,536.495C673.33,536.495 649.596,492.229 660.388,465.046L725.991,462.68Z" style="fill:rgb(0,120,229);fill-rule:nonzero;"/>
        </g>
        <g id="路径_12357" transform="matrix(1,0,0,1,-430.4,-86.557)">
            <path d="M766.674,562.421C762.911,550.161 772.774,546.721 775.71,542.038C778.056,538.229 778.874,533.669 778,529.282C776,518.991 770.139,485.411 789.229,474.628C789.717,474.328 795.138,481.568 795.429,482.064C811.689,505.794 853.587,586.155 822.629,677.3L805.686,673.754C805.686,673.754 808.957,605.313 784.9,573.697C784.89,573.7 772.974,566.8 766.674,562.421Z" style="fill:rgb(27,144,251);fill-rule:nonzero;"/>
        </g>
        <g id="路径_12358" transform="matrix(1,0,0,1,-392.782,-81.299)">
            <path d="M758.7,564.6C746,564.206 742.44,562.78 729.108,557.164C711.677,540.62 691.308,523.139 704.988,481.087C704.988,481.087 719.488,453.662 753.288,471.538C753.288,471.538 754.505,471.928 757.878,476.807C756.94,505.155 755.914,531.905 758.7,564.6Z" style="fill:rgb(4,121,74);fill-rule:nonzero;"/>
        </g>
        <g id="路径_12362" transform="matrix(1,0,0,1,-105.851,-72.658)">
            <path d="M209.78,584.749C209.78,584.749 211.439,568.205 226.969,561.015C232.626,558.448 236.718,553.312 237.956,547.224C238.403,545.079 238.387,542.863 237.909,540.724C236.45,536.097 235.918,531.227 236.344,526.394C236.717,522.848 238.127,519.491 240.399,516.743C243.94,512.563 246.09,507.38 246.55,501.921C246.73,497.684 245.338,493.526 242.643,490.251C238.476,485.027 236.67,478.296 237.663,471.688C238.656,465.08 240.399,452.141 227.508,450.478C227.508,450.478 212.856,451.611 214.714,474.361C214.714,474.361 216.714,485.59 212.224,493.17C212.224,493.17 202.505,502.87 208.461,521.486C208.461,521.486 212.953,531.875 206.119,539.209C206.166,539.266 195.132,551.131 209.78,584.749Z" style="fill:url(#_Linear1);fill-rule:nonzero;"/>
        </g>
        <g id="路径_12363" transform="matrix(1,0,0,1,-67.795,-41.11)">
            <path d="M158.392,563.212C158.392,563.212 160,538 140.181,527.265C140.181,527.265 134.416,513.873 138.03,503.828C138.03,503.828 143.596,491.815 141.937,478.028C141.937,478.028 130.802,461.874 139.252,444.003C139.252,444.003 150.09,436.516 150.532,419.577C150.532,419.577 151.266,395.155 164.45,395.698C164.45,395.698 178.95,400.029 173.044,427.458C173.044,427.458 169.044,440.799 172.196,450.942C172.196,450.942 180.205,464.733 170.923,486.249C170.923,486.249 164.56,498.067 170.142,508.308C170.112,508.358 179.05,525.1 158.392,563.212Z" style="fill:url(#_Linear2);fill-rule:nonzero;"/>
        </g>
        <g id="路径_12364" transform="matrix(1,0,0,1,-97.469,-71.933)">
            <path d="M191.438,449.22L187.62,605.013" style="fill:none;fill-rule:nonzero;stroke:white;stroke-width:1.73px;"/>
        </g>
        <g id="路径_12365" transform="matrix(1,0,0,1,-113.125,-104.816)">
            <path d="M232.045,506.33L214.81,636.077" style="fill:none;fill-rule:nonzero;stroke:white;stroke-width:1.73px;"/>
        </g>
        <g id="路径_12366" transform="matrix(1,0,0,1,-37.603,-101.747)">
            <path d="M118.974,622.963C118.974,622.963 117.116,607.946 102.854,601.753C97.633,599.521 93.782,594.923 92.5,589.392C92.031,587.457 91.996,585.442 92.4,583.492C92.804,581.542 95.577,573.892 92.107,564.186C92.107,564.186 79.949,554.386 84.785,540.061C90.027,535.032 92.418,527.7 91.148,520.548C89.878,513.396 88.206,502.816 99.918,501C99.918,501 113.297,501.687 112.08,522.469C112.08,522.469 110.515,532.76 114.765,539.556C114.765,539.556 123.847,548.172 118.765,565.256C118.765,565.256 114.905,574.856 121.255,581.356C121.315,581.4 131.572,592.039 118.974,622.963Z" style="fill:url(#_Linear3);fill-rule:nonzero;"/>
        </g>
        <g id="路径_12367" transform="matrix(1,0,0,1,-62.944,-141.644)">
            <path d="M127.66,570.29L144.314,662.86" style="fill:none;fill-rule:nonzero;stroke:white;stroke-width:1.73px;"/>
        </g>
        <g id="路径_12368" transform="matrix(1,0,0,1,-66.658,-263.35)">
            <path d="M179.029,824.225L138.454,824.225L134.11,781.66L183.381,781.66L179.029,824.225Z" style="fill:rgb(204,213,221);fill-rule:nonzero;"/>
        </g>
        <g id="路径_12369" transform="matrix(1,0,0,1,-66.658,-263.35)">
            <path d="M179.029,824.225L138.454,824.225L134.11,781.66L183.381,781.66L179.029,824.225Z" style="fill:rgb(141,191,252);fill-rule:nonzero;"/>
        </g>
        <g id="路径_12370" transform="matrix(1,0,0,1,-74.212,-272.183)">
            <path d="M147.23,797L184.492,797" style="fill:none;fill-rule:nonzero;stroke:white;stroke-width:1.73px;"/>
        </g>
        <g id="路径_12371" transform="matrix(1,0,0,1,-74.212,-312.874)">
            <path d="M147.23,867.67L184.492,867.67" style="fill:none;fill-rule:nonzero;stroke:white;stroke-width:1.73px;"/>
        </g>
        <g id="路径_12372" transform="matrix(1,0,0,1,-759.046,-272.707)">
            <path d="M1336.6,797.91L1373.86,797.91" style="fill:none;fill-rule:nonzero;stroke:white;stroke-width:1.73px;"/>
        </g>
        <g id="路径_12373" transform="matrix(1,0,0,1,-759.046,-313.41)">
            <path d="M1336.6,868.6L1373.86,868.6" style="fill:none;fill-rule:nonzero;stroke:white;stroke-width:1.73px;"/>
        </g>
        <g id="路径_12374" transform="matrix(1,0,0,1,-691.908,-260.212)">
            <path d="M1229.76,776.21L1220,820.87L1354.78,820.87L1347.94,776.21L1229.76,776.21Z" style="fill:rgb(141,191,252);fill-rule:nonzero;"/>
        </g>
        <g id="路径_12375" transform="matrix(1,0,0,1,-705.151,-219.307)">
            <path d="M1302.09,773.318C1334.73,773.318 1361.18,758.047 1361.18,739.242C1361.18,720.437 1334.73,705.17 1302.09,705.17C1269.45,705.17 1243,720.424 1243,739.242C1243,758.06 1269.46,773.318 1302.09,773.318Z" style="fill:rgb(105,165,255);fill-rule:nonzero;"/>
        </g>
        <g id="路径_12376" transform="matrix(1,0,0,1,-705.151,-214.603)">
            <path d="M1302.09,765.165C1334.73,765.165 1361.18,749.894 1361.18,731.093C1361.18,712.292 1334.73,697 1302.09,697C1269.45,697 1243,712.271 1243,731.093C1243,749.915 1269.46,765.165 1302.09,765.165Z" style="fill:rgb(198,221,255);fill-rule:nonzero;"/>
        </g>
        <g id="路径_12377" transform="matrix(1,0,0,1,-728.356,-255.848)">
            <path d="M1283.3,788.437L1368.76,788.437C1368.76,788.437 1327.69,743.874 1283.3,788.437Z" style="fill:rgb(141,191,252);fill-rule:nonzero;"/>
        </g>
        <g id="路径_12378" transform="matrix(1,0,0,1,-749.988,-249.953)">
            <path d="M1369.73,784.412C1372.52,780.624 1373.55,777.078 1372.81,773.926C1372.69,773.329 1372.48,772.755 1372.18,772.226L1371.75,765.286C1371.51,759.377 1368.63,757.947 1365.26,758.499C1365.26,758.499 1331.66,764.557 1331.56,764.557L1331.56,762.143L1328.68,764.998L1323.75,764.998L1320.87,762.143L1320.87,774.869C1320.87,774.88 1320.87,774.89 1320.87,774.901C1320.87,776.474 1322.16,777.769 1323.74,777.769C1323.74,777.769 1323.75,777.769 1323.75,777.769L1330.44,777.769C1330.77,777.773 1331.1,777.724 1331.42,777.625C1331.75,777.724 1332.1,777.773 1332.44,777.769L1334.5,777.769C1334.34,778.321 1334.31,778.902 1334.4,779.469C1334.57,780.662 1335.59,781.566 1336.79,781.59C1336.91,781.597 1337.03,781.582 1337.14,781.543C1338.34,781.352 1339.24,780.299 1339.24,779.078C1340.03,778.497 1340.92,778.066 1341.87,777.805L1355.69,777.805C1355.53,778.357 1355.5,778.938 1355.59,779.505C1355.76,780.698 1356.78,781.602 1357.98,781.626C1358.1,781.633 1358.22,781.617 1358.33,781.579C1359.53,781.388 1360.43,780.335 1360.43,779.114C1361.22,778.533 1362.11,778.102 1363.06,777.841L1368.86,777.841C1368.36,779.415 1367.59,780.884 1366.56,782.176C1365.62,783.448 1364.97,784.91 1364.66,786.46C1364.08,789.612 1365.05,791.283 1365.98,792.123C1366.34,792.45 1366.81,792.631 1367.3,792.631C1368.37,792.631 1369.26,791.746 1369.26,790.67C1369.26,790.117 1369.02,789.589 1368.61,789.217C1368.41,789.017 1368.28,788.33 1368.51,787.198C1368.72,786.193 1369.13,785.243 1369.73,784.412Z" style="fill:white;fill-rule:nonzero;"/>
        </g>
        <g id="路径_12379" transform="matrix(1,0,0,1,-754.67,-268.715)">
            <path d="M1329,791.309C1329.98,790.866 1331.1,790.866 1332.08,791.309" style="fill:none;fill-rule:nonzero;stroke:rgb(1,110,252);stroke-width:1.73px;stroke-linecap:round;stroke-linejoin:round;stroke-miterlimit:4;"/>
        </g>
        <g id="路径_12380" transform="matrix(1,0,0,1,-440.007,182.771)">
            <path d="M798.256,27.444C791.515,24.244 795.287,19.613 797.522,12.817C798.158,10.552 800.356,6.662 795.622,6.878C793.996,7.547 792.481,8.459 791.13,9.584C789.779,10.709 771.056,23.617 792.2,41.15C792.2,41.15 795.029,65.571 808.8,69.707C808.8,69.707 814.12,58.483 817.539,53.507C813.976,51.488 811.139,50.457 808.164,47.895C802.506,43.2 806.9,32.22 798.256,27.444Z" style="fill:rgb(10,14,23);fill-rule:nonzero;"/>
        </g>
        <g id="路径_12381" transform="matrix(1,0,0,1,-450.351,183.907)">
            <path d="M846.591,23.1C846.491,23.1 843.952,21.183 843.855,21.183C843.855,21.183 841.734,11.583 819.879,12.368C819.879,12.368 815.094,2.026 805.961,5.668C804.289,6.995 803.077,8.814 802.495,10.868C800.295,17.655 798.444,27.459 805.18,30.661C813.774,35.438 808.014,46.518 813.664,51.193C816.633,53.738 820.939,55.231 824.507,57.251C827.68,52.585 832.172,48.979 837.594,52.72C838.21,52.781 838.832,52.781 839.448,52.72L843.748,49.326C844.144,49.007 844.439,48.58 844.596,48.096C847.274,39.3 838.68,29.213 846.591,23.1Z" style="fill:rgb(45,61,100);fill-rule:nonzero;"/>
        </g>
        <g id="路径_12382" transform="matrix(1,0,0,1,-503.329,162.013)">
            <path d="M901.326,50.712C901.734,49.424 901.852,48.062 901.67,46.724C901.377,44.654 900.351,42.389 897.08,43.029C888.927,49.282 897.373,62.542 893.907,71.489C893.565,72.593 893.089,73.652 892.49,74.641C895.858,74.297 902.45,72.181 900.936,59.968C900.889,60.019 900.342,54.013 901.326,50.712Z" style="fill:rgb(229,181,135);fill-rule:nonzero;"/>
        </g>
        <g id="路径_12383" transform="matrix(1,0,0,1,-477.897,112.846)">
            <path d="M854.408,141.753C853.9,138.685 854.308,135.533 855.583,132.696C853.027,131.501 850.609,130.03 848.372,128.31C847.964,132.968 850.013,139.42 854.408,141.753Z" style="fill:rgb(242,157,89);fill-rule:nonzero;"/>
        </g>
        <g id="路径_12384" transform="matrix(1,0,0,1,-457.197,156.64)">
            <path d="M852.462,73.613L850.765,68C851.035,63.547 850.767,59.077 849.965,54.688C847.77,44.4 832.193,70 832.193,70C832.193,70 830.03,64.3 825.211,65.537C817.253,67.552 824.579,80.456 824.579,80.456C826.191,96.016 812.37,102.171 812.37,102.171C821.278,116.645 839.812,109.111 839.812,109.111C836.656,106.106 834.536,102.175 833.759,97.887C829.313,95.571 827.311,89.123 827.701,84.487C829.938,86.206 832.356,87.677 834.912,88.873L835.06,88.573C843.36,87.44 847.46,82.073 849.368,75.919L851.222,75.619C851.977,75.516 852.546,74.864 852.546,74.102C852.546,73.931 852.517,73.761 852.461,73.6L852.462,73.613Z" style="fill:rgb(250,200,151);fill-rule:nonzero;"/>
        </g>
        <g id="路径_12385" transform="matrix(1,0,0,1,-403.872,93.223)">
            <path d="M786.733,240.189C787.709,235.264 791.128,228.668 792.103,223.743C794.546,206.512 799.136,191.983 788.052,177.853C787.513,175.982 782.872,169.483 781.557,167.905C778.235,170.874 772.224,171.549 765.976,165.36C765.158,164.455 764.446,163.459 763.855,162.391C763.264,161.323 728.845,172.733 720.981,197.549L741.394,247.037L719.76,300.409C734.723,304.051 750.211,305.035 765.515,303.315C775.025,302.253 784.32,299.763 793.088,295.93C785.512,277.909 784.243,260.377 786.733,240.189Z" style="fill:white;fill-rule:nonzero;"/>
        </g>
        <g id="路径_12387" transform="matrix(1,0,0,1,-488.814,87.089)">
            <path d="M917.285,199.643C910.544,192.538 887.79,170.691 867.28,173.249C867.28,173.249 888.13,197.475 873.38,260.555C866.398,290.491 888.321,314.077 896.58,343.92C896.58,343.92 896.627,321.12 887.057,300.685C881.733,289.312 882.026,262.867 889.057,237.61C889.683,233.357 890.565,229.146 891.7,225C923.685,243.614 978.912,229.187 994.1,215.841L994.524,204.663C994.524,204.663 952.184,217.663 922.545,203.53C920.572,202.562 918.79,201.245 917.285,199.643Z" style="fill:rgb(255,197,101);fill-rule:nonzero;"/>
        </g>
        <g id="路径_12388" transform="matrix(1,0,0,1,-494.779,-50.611)">
            <path d="M877.64,412.19C878.616,421.298 879.935,424.547 879.935,424.547C882.679,423.078 884.962,420.875 886.527,418.184L877.64,412.19Z" style="fill:rgb(4,121,74);fill-rule:nonzero;"/>
        </g>
        <g id="路径_12389" transform="matrix(1,0,0,1,-518.444,31.797)">
            <path d="M921.4,277.834C920.976,282.759 918.52,287.485 918.761,292.948C919.69,289.648 920.717,286.348 921.887,283.102C921.887,283.102 959.93,307.574 1023.7,275.517L1023.94,269.069C992.768,286.153 954.289,295.706 921.4,277.834Z" style="fill:rgb(4,121,74);fill-rule:nonzero;"/>
        </g>
        <g id="路径_12390" transform="matrix(1,0,0,1,-527.524,28.192)">
            <path d="M945.836,275.33L987.688,276.908L971.67,351.8L934.51,330.53L945.836,275.33Z" style="fill:rgb(1,59,255);fill-rule:nonzero;"/>
        </g>
        <g id="路径_12391" transform="matrix(1,0,0,1,-531.365,24.928)">
            <path d="M952.511,281L994.359,282.578L978.34,357.471L941.18,336.2L952.511,281Z" style="fill:rgb(237,243,255);fill-rule:nonzero;"/>
        </g>
        <g id="路径_12392" transform="matrix(1,0,0,1,-537.065,21.375)">
            <path d="M962.359,287.17L1004.26,288.795L988.24,363.641L951.08,342.371L962.359,287.17Z" style="fill:rgb(141,191,252);fill-rule:nonzero;"/>
        </g>
        <g id="路径_12393" transform="matrix(1,0,0,1,-540.048,18.099)">
            <path d="M967.6,292.86L1009.45,294.485L993.434,369.332L956.26,348.066L967.6,292.86Z" style="fill:rgb(237,243,255);fill-rule:nonzero;"/>
        </g>
        <g id="路径_12394" transform="matrix(1,0,0,1,-521.358,28.192)">
            <path d="M939.182,275.33L992.263,288.824L976.563,362.585L923.8,350.274L939.182,275.33Z" style="fill:rgb(1,59,255);fill-rule:nonzero;"/>
        </g>
        <g id="路径_12395" transform="matrix(1,0,0,1,-527.524,18.767)">
            <path d="M947.741,291.7L934.51,356.5" style="fill:none;fill-rule:nonzero;stroke:white;stroke-width:2.31px;stroke-linecap:round;stroke-linejoin:round;stroke-miterlimit:4;"/>
        </g>
        <g id="路径_12396" transform="matrix(1,0,0,1,-481.224,-193.657)">
            <path d="M854.125,661.1C861.057,676.465 865.795,693.255 866.919,710.147C867.093,712.221 866.462,714.285 865.159,715.908C864.451,716.708 864.068,717.746 864.086,718.814C864.286,720.829 866.207,722.259 867.357,723.735C870.237,727.335 866.967,729.742 866.233,733.288C865.601,736.342 867.357,739.988 867.896,742.939C869.718,752.761 869.484,762.855 867.209,772.582C867.203,772.606 867.2,772.631 867.2,772.656C867.2,772.822 867.336,772.958 867.501,772.958C867.639,772.958 867.76,772.863 867.794,772.73C869.679,764.549 870.158,756.107 869.211,747.766C868.67,743.91 867.92,740.087 866.963,736.313C866.378,733.704 867.256,732.071 868.38,729.865C869.055,728.812 869.364,727.565 869.258,726.319C869.016,724.198 867.137,722.773 865.89,721.199C865.202,720.476 864.788,719.535 864.719,718.539C864.719,717.109 865.741,716.325 866.475,715.192C867.095,714.29 867.451,713.232 867.502,712.138C867.795,708.32 866.866,704.014 866.28,700.222C865.644,696.035 864.816,691.899 863.837,687.763C861.586,678.501 858.48,669.468 854.56,660.779C854.515,660.413 853.976,660.757 854.125,661.1Z" style="fill:white;fill-rule:nonzero;"/>
        </g>
        <g id="路径_12397" transform="matrix(1,0,0,1,-518.243,64.416)">
            <path d="M918.39,212.42C918.39,212.42 923.273,222.762 921.466,233.494C921.466,233.494 926.709,220.446 918.39,212.42Z" style="fill:rgb(217,144,43);fill-rule:nonzero;"/>
        </g>
        <g id="路径_12398" transform="matrix(1,0,0,1,-498.159,83.866)">
            <path d="M883.51,178.64L891.57,185.682L888.982,189.228L892.304,193.313C892.304,193.313 894.357,211.486 892.987,221.921" style="fill:none;fill-rule:nonzero;stroke:rgb(217,144,43);stroke-width:2.31px;stroke-linecap:round;stroke-linejoin:round;stroke-miterlimit:4;"/>
        </g>
        <g id="路径_12399" transform="matrix(1,0,0,1,-492.828,138.803)">
            <path d="M882.133,88.151L876.567,88.104C875.276,88.04 874.249,86.96 874.249,85.668C874.249,84.356 875.307,83.268 876.618,83.23L882.184,83.277C883.501,83.29 884.577,84.378 884.577,85.695C884.577,85.711 884.577,85.726 884.577,85.742C884.538,87.062 883.453,88.131 882.133,88.151Z" style="fill:none;fill-rule:nonzero;stroke:white;stroke-width:2.31px;stroke-linecap:round;stroke-linejoin:round;stroke-miterlimit:4;"/>
        </g>
        <g id="路径_12400" transform="matrix(1,0,0,1,-503.393,-24.412)">
            <path d="M892.6,377.176C892.6,377.176 901.084,375.008 904.809,372.45C907.34,370.164 910.165,368.227 913.209,366.689L912.038,372.301C915.806,372.26 919.551,371.713 923.173,370.676C926.795,369.639 930.69,367.376 929.573,373.645C929.034,376.551 925.861,381.378 923.273,382.905C919.51,385.119 911.747,387.041 905.456,384.038L894.028,390.138L892.6,377.176Z" style="fill:rgb(250,200,151);fill-rule:nonzero;"/>
        </g>
        <g id="路径_12401" transform="matrix(1,0,0,1,-381.309,93.223)">
            <path d="M750.205,257.671C760.705,194.889 741.297,162.39 741.297,162.39C690.952,174.65 680.941,207.937 686.07,231.476C690.312,250.989 706.334,262.35 706.334,262.35C666.488,346.767 684.75,355.675 684.75,355.675C705.799,380.885 741.738,383.991 741.738,383.991C740.419,354.199 741.738,317.959 742.586,299.891C742.862,293.108 743.857,286.374 745.555,279.801C745.703,279.16 745.899,278.528 746.043,277.879C755.198,278.487 764.385,277.317 773.095,274.434L773.095,257.59C765.559,259.257 757.752,259.284 750.205,257.671Z" style="fill:rgb(255,197,101);fill-rule:nonzero;"/>
        </g>
        <g id="路径_12402" transform="matrix(1,0,0,1,-427.181,52.652)">
            <path d="M768.683,232.85C768.683,232.85 748.66,263.528 770.291,282.779C770.341,282.779 754.472,266.383 768.683,232.85Z" style="fill:rgb(255,197,101);fill-rule:nonzero;"/>
        </g>
        <g id="路径_12403" transform="matrix(1,0,0,1,-399.134,-99.202)">
            <path d="M742.879,496.58L737.606,527.547C737.606,527.547 721.249,527.102 711.53,514.397C711.53,514.397 717.244,533.597 741.513,532.566L742.879,496.58Z" style="fill:rgb(255,197,101);fill-rule:nonzero;"/>
        </g>
        <g id="路径_12404" transform="matrix(1,0,0,1,-407.88,-42.44)">
            <path d="M732.875,398L726.72,411.49C752.359,418.277 772.534,413.509 772.534,413.509C745.376,408.206 732.875,398 732.875,398Z" style="fill:rgb(255,197,101);fill-rule:nonzero;"/>
        </g>
        <g id="路径_12405" transform="matrix(1,0,0,1,-443.671,85.133)">
            <path d="M797.479,176.44L788.879,185.586L801.379,193.956L796.594,200.356C796.594,200.356 808.268,213.356 808.12,228.778" style="fill:none;fill-rule:nonzero;stroke:rgb(217,144,43);stroke-width:2.31px;stroke-linecap:round;stroke-linejoin:round;stroke-miterlimit:4;"/>
        </g>
        <g id="路径_12406" transform="matrix(1,0,0,1,-641.129,-5.693)">
            <path d="M1149.39,365.894C1215.22,360.036 1260.24,348.018 1260.24,334.18L1260.24,414.444C1260.24,429.461 1207.01,442.314 1131.81,447.532L1131.81,367.272C1137.83,366.827 1143.68,366.386 1149.39,365.894Z" style="fill:rgb(198,221,255);fill-rule:nonzero;"/>
        </g>
        <g id="路径_12407" transform="matrix(1,0,0,1,-239.99,-5.693)">
            <path d="M531.922,364.515C537.297,365.105 542.811,365.648 548.522,366.14L548.522,446.4C481.379,440.542 435.136,428.431 435.136,414.445L435.136,334.18C435.14,346.982 473.861,358.211 531.922,364.515Z" style="fill:rgb(141,191,252);fill-rule:nonzero;"/>
        </g>
        <g id="路径_12408" transform="matrix(1,0,0,1,-240.798,-39.314)">
            <path d="M437.119,392.57C437.509,392.965 436.092,394.292 436.695,394.789C436.941,394.989 438.502,393.754 438.846,394C439.19,394.246 438.21,396.019 438.553,396.265C438.896,396.511 440.309,395.132 440.653,395.378C440.997,395.624 440.114,397.444 440.453,397.643C440.792,397.842 442.153,396.459 442.502,396.659C442.851,396.859 442.078,398.725 442.402,398.924C442.726,399.123 444.102,397.69 444.402,397.889C444.702,398.088 444.012,399.955 444.355,400.154C444.698,400.353 446.014,398.881 446.355,399.068C446.696,399.255 446.055,401.189 446.402,401.384C446.749,401.579 448.014,400.056 448.353,400.2C448.692,400.344 448.111,402.321 448.453,402.465C448.795,402.609 450.014,401.086 450.353,401.235C450.692,401.384 450.153,403.356 450.501,403.5C450.849,403.644 452.062,402.07 452.401,402.227C452.74,402.384 452.253,404.348 452.647,404.492C453.041,404.636 454.157,403.016 454.501,403.164C454.845,403.312 454.401,405.285 454.794,405.429C455.187,405.573 456.258,403.902 456.601,404.05C456.944,404.198 456.55,406.171 456.945,406.315C457.34,406.459 458.358,404.788 458.745,404.936C459.132,405.084 458.745,407.057 459.14,407.201C459.535,407.345 460.553,405.623 460.896,405.771C461.239,405.919 460.943,407.892 461.32,408.036C461.697,408.18 462.686,406.411 463.076,406.56C463.466,406.709 463.176,408.681 463.564,408.774C463.952,408.867 464.883,407.149 465.264,407.247C465.645,407.345 465.412,409.368 465.803,409.466C466.194,409.564 467.118,407.79 467.462,407.939C467.806,408.088 467.662,410.06 468.047,410.153C468.432,410.246 469.32,408.477 469.71,408.579C470.1,408.681 469.952,410.7 470.295,410.793C470.638,410.886 471.512,409.071 471.907,409.168C472.302,409.265 472.2,411.289 472.539,411.382C472.878,411.475 473.761,409.66 474.104,409.757C474.447,409.854 474.397,411.878 474.787,411.925C475.177,411.972 475.958,410.152 476.348,410.249C476.738,410.346 476.692,412.319 477.082,412.417C477.472,412.515 478.206,410.644 478.596,410.717C478.986,410.79 478.986,412.787 479.377,412.885C479.768,412.983 480.501,411.112 480.891,411.163C481.281,411.214 481.315,413.229 481.672,413.331C482.029,413.433 482.745,411.507 483.136,411.558C483.527,411.609 483.56,413.624 483.984,413.679C484.408,413.734 485.057,411.855 485.401,411.906C485.745,411.957 485.889,413.972 486.279,414.027C486.669,414.082 487.306,412.156 487.696,412.254C488.086,412.352 488.231,414.324 488.625,414.375C489.019,414.426 489.601,412.504 489.991,412.555C490.381,412.606 490.525,414.621 490.92,414.621C491.315,414.621 491.896,412.75 492.286,412.801C492.676,412.852 492.871,414.82 493.262,414.867C493.653,414.914 494.208,413 494.6,413C494.992,413 495.236,415.019 495.627,415.07C496.018,415.121 496.552,413.148 496.942,413.199C497.332,413.25 497.578,415.218 497.969,415.218C498.36,415.218 498.847,413.296 499.242,413.296C499.637,413.296 499.929,415.315 500.319,415.315C500.709,415.315 501.197,413.393 501.592,413.393C501.987,413.393 502.275,415.412 502.665,415.412" style="fill:none;fill-rule:nonzero;stroke:rgb(1,110,252);stroke-width:1.16px;stroke-linecap:round;stroke-linejoin:round;stroke-miterlimit:4;"/>
        </g>
        <g id="路径_12409" transform="matrix(1,0,0,1,-240.798,-62.305)">
            <path d="M437.119,432.5C437.509,432.895 436.092,434.222 436.695,434.719C436.941,434.919 438.502,433.684 438.846,433.93C439.19,434.176 438.21,435.949 438.553,436.195C438.896,436.441 440.309,435.062 440.653,435.308C440.997,435.554 440.114,437.374 440.453,437.573C440.792,437.772 442.153,436.39 442.502,436.589C442.851,436.788 442.078,438.655 442.402,438.854C442.726,439.053 444.102,437.62 444.402,437.819C444.702,438.018 444.012,439.885 444.355,440.084C444.698,440.283 446.014,438.811 446.355,438.998C446.696,439.185 446.055,441.119 446.402,441.314C446.749,441.509 448.014,439.986 448.353,440.13C448.692,440.274 448.111,442.251 448.453,442.395C448.795,442.539 450.014,441.016 450.353,441.165C450.692,441.314 450.153,443.286 450.501,443.43C450.849,443.574 452.062,442 452.401,442.157C452.74,442.314 452.253,444.278 452.647,444.422C453.041,444.566 454.157,442.946 454.501,443.094C454.845,443.242 454.401,445.215 454.794,445.359C455.187,445.503 456.258,443.832 456.601,443.98C456.944,444.128 456.55,446.101 456.945,446.245C457.34,446.389 458.358,444.718 458.745,444.866C459.132,445.014 458.745,446.987 459.14,447.131C459.535,447.275 460.553,445.553 460.896,445.701C461.239,445.849 460.943,447.822 461.32,447.966C461.697,448.11 462.686,446.341 463.076,446.49C463.466,446.639 463.176,448.611 463.564,448.704C463.952,448.797 464.883,447.079 465.264,447.177C465.645,447.275 465.412,449.298 465.803,449.396C466.194,449.494 467.118,447.72 467.462,447.869C467.806,448.018 467.662,449.99 468.047,450.083C468.432,450.176 469.32,448.407 469.71,448.509C470.1,448.611 469.952,450.63 470.295,450.723C470.638,450.816 471.512,449.001 471.907,449.098C472.302,449.195 472.2,451.219 472.539,451.312C472.878,451.405 473.761,449.59 474.104,449.687C474.447,449.784 474.397,451.808 474.787,451.855C475.177,451.902 475.958,450.082 476.348,450.179C476.738,450.276 476.692,452.249 477.082,452.347C477.472,452.445 478.206,450.574 478.596,450.671C478.986,450.768 478.986,452.741 479.377,452.839C479.768,452.937 480.501,451.066 480.891,451.117C481.281,451.168 481.315,453.183 481.672,453.285C482.029,453.387 482.745,451.461 483.136,451.512C483.527,451.563 483.56,453.578 483.984,453.633C484.408,453.688 485.057,451.809 485.401,451.86C485.745,451.911 485.889,453.93 486.279,453.981C486.669,454.032 487.306,452.11 487.696,452.208C488.086,452.306 488.231,454.278 488.625,454.329C489.019,454.38 489.601,452.458 489.991,452.509C490.381,452.56 490.525,454.575 490.92,454.575C491.315,454.575 491.896,452.704 492.286,452.755C492.676,452.806 492.871,454.774 493.262,454.821C493.653,454.868 494.191,452.95 494.581,452.95C494.971,452.95 495.217,454.969 495.608,455.02C495.999,455.071 496.533,453.098 496.923,453.149C497.313,453.2 497.559,455.168 497.95,455.168C498.341,455.168 498.828,453.246 499.223,453.246C499.618,453.246 499.91,455.265 500.3,455.265C500.69,455.265 501.178,453.343 501.573,453.343C501.968,453.343 502.256,455.362 502.646,455.362" style="fill:none;fill-rule:nonzero;stroke:rgb(1,110,252);stroke-width:1.16px;stroke-linecap:round;stroke-linejoin:round;stroke-miterlimit:4;"/>
        </g>
        <g id="路径_12410" transform="matrix(1,0,0,1,-240.798,-85.297)">
            <path d="M437.119,472.43C437.509,472.825 436.092,474.157 436.695,474.649C436.941,474.849 438.502,473.614 438.846,473.86C439.19,474.106 438.21,475.879 438.553,476.125C438.896,476.371 440.309,474.992 440.653,475.238C440.997,475.484 440.114,477.304 440.453,477.503C440.792,477.702 442.153,476.319 442.502,476.519C442.851,476.719 442.078,478.585 442.402,478.784C442.726,478.983 444.102,477.55 444.402,477.749C444.702,477.948 444.012,479.815 444.355,480.014C444.698,480.213 446.014,478.741 446.355,478.928C446.696,479.115 446.055,481.049 446.402,481.244C446.749,481.439 448.014,479.916 448.353,480.06C448.692,480.204 448.111,482.181 448.453,482.325C448.795,482.469 450.014,480.946 450.353,481.095C450.692,481.244 450.153,483.216 450.501,483.36C450.849,483.504 452.062,481.935 452.401,482.087C452.74,482.239 452.253,484.208 452.647,484.352C453.041,484.496 454.157,482.876 454.501,483.024C454.845,483.172 454.401,485.145 454.794,485.289C455.187,485.433 456.258,483.762 456.601,483.91C456.944,484.058 456.55,486.031 456.945,486.175C457.34,486.319 458.358,484.648 458.745,484.796C459.132,484.944 458.745,486.917 459.14,487.061C459.535,487.205 460.553,485.483 460.896,485.631C461.239,485.779 460.943,487.752 461.32,487.896C461.697,488.04 462.686,486.271 463.076,486.42C463.466,486.569 463.176,488.541 463.564,488.634C463.952,488.727 464.883,487.009 465.264,487.107C465.645,487.205 465.412,489.228 465.803,489.326C466.194,489.424 467.118,487.65 467.462,487.799C467.806,487.948 467.662,489.92 468.047,490.013C468.432,490.106 469.32,488.342 469.71,488.439C470.1,488.536 469.952,490.56 470.295,490.653C470.638,490.746 471.512,488.931 471.907,489.028C472.302,489.125 472.2,491.149 472.539,491.242C472.878,491.335 473.761,489.52 474.104,489.617C474.447,489.714 474.397,491.738 474.787,491.785C475.177,491.832 475.958,490.012 476.348,490.109C476.738,490.206 476.692,492.179 477.082,492.277C477.472,492.375 478.206,490.504 478.596,490.577C478.986,490.65 478.986,492.647 479.377,492.745C479.768,492.843 480.501,490.972 480.891,491.023C481.281,491.074 481.315,493.089 481.672,493.191C482.029,493.293 482.745,491.367 483.136,491.418C483.527,491.469 483.56,493.484 483.984,493.539C484.408,493.594 485.057,491.715 485.401,491.766C485.745,491.817 485.889,493.836 486.279,493.887C486.669,493.938 487.306,492.016 487.696,492.114C488.086,492.212 488.231,494.184 488.625,494.235C489.019,494.286 489.601,492.364 489.991,492.415C490.381,492.466 490.525,494.481 490.92,494.481C491.315,494.481 491.896,492.61 492.286,492.661C492.676,492.712 492.871,494.68 493.262,494.731C493.653,494.782 494.191,492.856 494.581,492.856C494.971,492.856 495.217,494.875 495.608,494.926C495.999,494.977 496.533,493.004 496.923,493.055C497.313,493.106 497.559,495.074 497.95,495.074C498.341,495.074 498.828,493.152 499.223,493.152C499.618,493.152 499.91,495.171 500.3,495.171C500.69,495.171 501.178,493.249 501.573,493.249C501.968,493.249 502.256,495.268 502.646,495.268" style="fill:none;fill-rule:nonzero;stroke:rgb(1,110,252);stroke-width:1.16px;stroke-linecap:round;stroke-linejoin:round;stroke-miterlimit:4;"/>
        </g>
        <g id="路径_12411" transform="matrix(1,0,0,1,-779.487,-40.086)">
            <path d="M1398.11,394.623C1397.87,394.967 1396.45,393.588 1396.11,393.982C1395.96,394.13 1397.13,395.704 1396.96,395.95C1396.76,396.098 1395.3,394.817 1395.06,395.017C1394.82,395.217 1395.93,396.837 1395.69,397.036C1395.45,397.235 1394.08,395.806 1393.83,396.001C1393.59,396.196 1394.57,397.872 1394.37,398.067C1394.18,398.262 1392.81,396.794 1392.62,396.939C1392.42,397.084 1393.25,398.856 1393.04,399.005C1392.83,399.154 1391.58,397.626 1391.34,397.775C1391.1,397.924 1391.93,399.743 1391.68,399.896C1391.44,400.049 1390.27,398.466 1390.03,398.623C1389.78,398.78 1390.51,400.591 1390.27,400.744C1390.02,400.897 1388.9,399.268 1388.66,399.365C1388.41,399.462 1389.08,401.384 1388.86,401.486C1388.63,401.588 1387.54,399.963 1387.3,400.061C1387.05,400.159 1387.64,402.08 1387.39,402.182C1387.15,402.284 1386.12,400.604 1385.88,400.706C1385.64,400.808 1386.17,402.725 1385.93,402.827C1385.69,402.929 1384.66,401.202 1384.42,401.351C1384.18,401.5 1384.66,403.37 1384.42,403.472C1384.18,403.574 1383.2,401.847 1382.95,401.945C1382.7,402.043 1383.15,403.964 1382.9,404.066C1382.66,404.168 1381.73,402.39 1381.49,402.492C1381.24,402.594 1381.63,404.507 1381.39,404.613C1381.14,404.719 1380.26,402.913 1380.02,402.988C1379.78,403.063 1380.12,405.007 1379.87,405.109C1379.62,405.211 1378.8,403.387 1378.51,403.484C1378.21,403.581 1378.55,405.503 1378.31,405.605C1378.06,405.707 1377.23,403.883 1376.99,403.929C1376.74,403.975 1377.04,405.948 1376.74,406.05C1376.44,406.152 1375.72,404.277 1375.47,404.379C1375.22,404.481 1375.47,406.398 1375.23,406.5C1374.98,406.602 1374.25,404.727 1373.95,404.778C1373.66,404.829 1373.9,406.793 1373.66,406.899C1373.41,407.005 1372.68,405.126 1372.44,405.172C1372.19,405.218 1372.34,407.191 1372.1,407.293" style="fill:none;fill-rule:nonzero;stroke:rgb(1,110,252);stroke-width:1.16px;stroke-linecap:round;stroke-linejoin:round;stroke-miterlimit:4;"/>
        </g>
        <g id="路径_12412" transform="matrix(1,0,0,1,-779.227,-89.588)">
            <path d="M1397.8,480.781C1397.51,481.081 1396.24,479.597 1395.85,479.933C1395.7,480.082 1396.83,481.706 1396.58,481.901C1396.33,482.096 1394.92,480.768 1394.68,480.964C1394.44,481.16 1395.56,482.788 1395.32,482.983C1395.07,483.178 1393.7,481.753 1393.46,481.952C1393.21,482.151 1394.24,483.823 1394.05,484.018C1393.85,484.213 1392.48,482.745 1392.24,482.936C1392,483.127 1392.97,484.858 1392.73,485.002C1392.49,485.146 1391.21,483.674 1390.97,483.823C1390.72,483.972 1391.6,485.74 1391.36,485.889C1391.11,486.038 1389.85,484.51 1389.66,484.659C1389.47,484.808 1390.24,486.627 1390,486.78C1389.75,486.933 1388.53,485.355 1388.34,485.507C1388.14,485.659 1388.83,487.48 1388.63,487.628C1388.43,487.776 1387.21,486.148 1387.02,486.296C1386.82,486.444 1387.44,488.264 1387.22,488.417C1386.99,488.57 1385.85,486.89 1385.61,487.038C1385.36,487.186 1386,489.057 1385.76,489.159C1385.51,489.261 1384.44,487.585 1384.19,487.734C1383.94,487.883 1384.48,489.753 1384.24,489.855C1384,489.957 1383.02,488.23 1382.73,488.328C1382.43,488.426 1382.97,490.347 1382.73,490.449C1382.49,490.551 1381.56,488.824 1381.26,488.875C1380.97,488.926 1381.41,490.894 1381.16,490.996C1380.92,491.098 1380.04,489.296 1379.79,489.371C1379.55,489.446 1379.89,491.39 1379.65,491.492C1379.4,491.594 1378.57,489.77 1378.33,489.867C1378.09,489.964 1378.38,491.886 1378.08,491.988C1377.79,492.09 1377.06,490.215 1376.81,490.312C1376.56,490.409 1376.76,492.331 1376.52,492.433C1376.27,492.535 1375.54,490.664 1375.3,490.711C1375.05,490.758 1375.2,492.73 1374.91,492.832C1374.62,492.934 1374.03,491.012 1373.74,491.059C1373.44,491.106 1373.54,493.078 1373.31,493.129C1373.09,493.18 1372.46,491.258 1372.19,491.305C1371.91,491.352 1371.95,493.324 1371.65,493.375" style="fill:none;fill-rule:nonzero;stroke:rgb(1,110,252);stroke-width:1.16px;stroke-linecap:round;stroke-linejoin:round;stroke-miterlimit:4;"/>
        </g>
        <g id="路径_12413" transform="matrix(1,0,0,1,-779.372,-64.939)">
            <path d="M1398.1,437.645C1397.89,437.989 1396.39,436.758 1396.04,437.153C1395.9,437.301 1397.17,438.829 1396.97,439.075C1396.78,439.321 1395.27,438.04 1395.02,438.227C1394.76,438.414 1395.94,440.051 1395.75,440.246C1395.55,440.441 1394.09,439.067 1393.89,439.262C1393.7,439.457 1394.68,441.133 1394.48,441.332C1394.28,441.531 1392.91,440.059 1392.67,440.199C1392.43,440.339 1393.36,442.116 1393.1,442.265C1392.84,442.414 1391.58,440.886 1391.34,441.035C1391.1,441.184 1391.93,443.003 1391.68,443.156C1391.44,443.309 1390.27,441.731 1390.02,441.883C1389.78,442.035 1390.51,443.856 1390.27,444.004C1390.03,444.152 1388.9,442.524 1388.66,442.625C1388.41,442.726 1389.08,444.64 1388.86,444.746C1388.63,444.852 1387.54,443.219 1387.29,443.316C1387.05,443.413 1387.63,445.335 1387.39,445.437C1387.15,445.539 1386.12,443.863 1385.88,443.961C1385.63,444.059 1386.17,445.98 1385.92,446.082C1385.68,446.184 1384.7,444.457 1384.46,444.555C1384.22,444.653 1384.7,446.574 1384.41,446.676C1384.12,446.778 1383.24,445.005 1382.99,445.102C1382.75,445.199 1383.19,447.121 1382.89,447.223C1382.59,447.325 1381.77,445.547 1381.48,445.649C1381.18,445.751 1381.62,447.668 1381.33,447.77C1381.04,447.872 1380.21,446.043 1379.96,446.145C1379.72,446.247 1380.06,448.164 1379.76,448.266C1379.46,448.368 1378.69,446.544 1378.44,446.59C1378.2,446.636 1378.49,448.609 1378.2,448.711C1377.91,448.813 1377.18,446.938 1376.88,447.04C1376.59,447.142 1376.88,449.059 1376.64,449.161C1376.39,449.263 1375.61,447.388 1375.37,447.439C1375.12,447.49 1375.31,449.454 1375.07,449.56C1374.83,449.666 1374.09,447.787 1373.85,447.833C1373.61,447.879 1373.75,449.852 1373.51,449.954C1373.26,450.056 1372.58,448.134 1372.28,448.232C1371.99,448.33 1372.18,450.251 1371.89,450.353" style="fill:none;fill-rule:nonzero;stroke:rgb(1,110,252);stroke-width:1.16px;stroke-linecap:round;stroke-linejoin:round;stroke-miterlimit:4;"/>
        </g>
        <g id="路径_12414" transform="matrix(1,0,0,1,-492.856,119.824)">
            <path d="M877.036,119.193C875.729,118.642 874.728,117.545 874.3,116.193" style="fill:none;fill-rule:nonzero;stroke:rgb(3,92,142);stroke-width:1.73px;stroke-linecap:round;stroke-linejoin:round;stroke-miterlimit:4;"/>
        </g>
        <g id="路径_12415" transform="matrix(1,0,0,1,-660.999,-75.606)">
            <path d="M1243.1,463.036C1239.8,464.35 1236.4,465.372 1232.92,466.09L1230.33,463.036L1226.77,469.781L1218.52,455.6L1211.48,476.674L1203.09,463.723L1198.79,470.472L1194.74,466.137L1190,474.952L1182.53,463.723L1177.64,473.03C1173.91,473.892 1170.13,474.534 1166.32,474.952" style="fill:none;fill-rule:nonzero;stroke:rgb(1,110,252);stroke-width:2.31px;stroke-linecap:round;stroke-linejoin:round;stroke-miterlimit:4;"/>
        </g>
        <g id="路径_12416" transform="matrix(1,0,0,1,-401.758,42.018)">
            <path d="M720.794,251.51C718.478,257.801 716.953,264.356 716.255,271.023C715.865,275.01 715.831,280.182 720.013,282.15C722.698,283.38 726.213,283.529 725.922,287.47C725.722,289.735 724.603,291.852 724.458,294.117C724.409,295.937 725.201,297.682 726.604,298.843C729.243,301.354 732.025,303.67 734.711,306.08C735.004,306.326 735.445,305.88 735.135,305.656L727.856,299.204C726.583,298.071 725.366,297.041 725.073,295.267C724.937,293.881 725.121,292.482 725.612,291.178C726.49,288.026 727.419,284.578 723.856,282.859C721.565,281.726 719.084,281.697 717.671,279.181C716.258,276.665 716.547,273.666 716.823,270.956C717.534,264.343 719.064,257.844 721.379,251.608C721.527,251.315 720.942,251.184 720.794,251.51Z" style="fill:white;fill-rule:nonzero;"/>
        </g>
        <g id="路径_12417" transform="matrix(1,0,0,1,-441.237,-42.257)">
            <path d="M784.8,398.271C794.37,404.38 805.849,405.118 816.883,405.656C817.273,405.656 817.273,405.066 816.883,405.015C805.994,404.476 794.617,403.785 785.144,397.731C785.09,397.693 785.026,397.673 784.961,397.673C784.785,397.673 784.641,397.818 784.641,397.993C784.641,398.107 784.701,398.213 784.8,398.27L784.8,398.271Z" style="fill:white;fill-rule:nonzero;"/>
        </g>
        <g id="路径_12418" transform="matrix(1,0,0,1,-458.191,99.209)">
            <path d="M824.105,222.287C823.986,222.278 823.871,222.244 823.766,222.187C823.419,221.994 823.288,221.554 823.473,221.203C828.203,212.454 828.203,201.882 823.473,193.133C823.473,193.086 823.422,193.086 823.422,193.033C812.24,168.463 813.122,158.672 815.854,154.774C817.854,151.919 822.005,151.919 822.103,152.017C821.742,152.564 821.351,153.091 820.932,153.595C819.383,153.593 817.932,154.37 817.076,155.661C815.076,158.63 813.364,167.28 824.792,192.393C825.326,193.28 832.945,206.871 824.792,221.888C824.635,222.117 824.382,222.264 824.105,222.287Z" style="fill:rgb(217,144,43);fill-rule:nonzero;"/>
        </g>
        <g id="路径_12419" transform="matrix(1,0,0,1,-459.982,100.163)">
            <path d="M827.215,220.4C827.096,220.391 826.981,220.357 826.876,220.3C826.527,220.109 826.396,219.667 826.583,219.316C831.309,210.568 831.309,199.999 826.583,191.251C826.583,191.2 826.532,191.2 826.532,191.151C815.35,166.577 816.232,156.79 818.964,152.892C820.213,151.171 822.263,150.209 824.385,150.347L823.456,151.726C823.356,151.726 821.649,151.626 820.134,153.792C818.134,156.761 816.422,165.415 827.85,190.528C828.384,191.415 836.003,205.002 827.85,220.023C827.717,220.249 827.477,220.392 827.215,220.4Z" style="fill:rgb(237,243,255);fill-rule:nonzero;"/>
        </g>
        <g id="路径_12420" transform="matrix(1,0,0,1,-487.155,90.574)">
            <path d="M881.3,227.656C880.668,227.15 879.937,226.781 879.154,226.574C881.742,176.518 865.185,167.139 864.404,166.99L864.892,168.224C865.04,168.324 880.274,177.332 877.686,226.524C876.082,226.695 874.609,227.491 873.586,228.738C868.118,234.995 869.437,252.523 869.535,253.261C869.561,253.644 869.881,253.947 870.265,253.952L873.442,254.052C873.847,254.052 874.18,253.719 874.18,253.314C874.18,252.909 873.847,252.576 873.442,252.576L870.952,252.525C870.752,249.276 870.218,234.895 874.71,229.775C875.55,228.734 876.788,228.09 878.123,228L878.229,228C879.029,227.984 879.803,228.29 880.376,228.848C882.376,230.473 885.797,235.635 886.238,252.336L884.238,252.629C883.837,252.698 883.556,253.073 883.602,253.477C883.669,253.833 883.974,254.097 884.336,254.113L884.436,254.113L887.07,253.723C887.428,253.654 887.693,253.345 887.706,252.981C887.349,236.042 884.032,229.84 881.3,227.656Z" style="fill:rgb(206,147,66);fill-rule:nonzero;"/>
        </g>
        <g id="路径_12421" transform="matrix(1,0,0,1,-486.626,92.353)">
            <path d="M882.132,225.6C881.499,225.095 880.769,224.726 879.986,224.518C882.866,173.456 864.163,164.281 863.48,163.903C863.704,164.727 863.987,165.534 864.328,166.317C864.493,166.417 881.128,175.327 878.535,224.467C876.93,224.637 875.455,225.435 874.435,226.686C868.963,232.939 870.282,250.467 870.38,251.205C870.411,251.588 870.73,251.889 871.114,251.896L874.287,251.996C874.692,251.996 875.025,251.663 875.025,251.258C875.025,250.853 874.692,250.52 874.287,250.52C874.287,250.52 871.797,250.469 871.797,250.469C871.597,247.22 871.063,232.843 875.555,227.723C876.397,226.681 877.637,226.038 878.974,225.95L879.074,225.95C879.876,225.932 880.652,226.238 881.225,226.798C883.225,228.423 886.642,233.585 887.083,250.286L885.083,250.586C884.68,250.651 884.397,251.029 884.447,251.434C884.513,251.791 884.819,252.058 885.181,252.075L885.281,252.075L887.92,251.68C888.275,251.61 888.537,251.303 888.552,250.942C888.139,233.936 884.818,227.764 882.132,225.6Z" style="fill:rgb(237,243,255);fill-rule:nonzero;"/>
        </g>
        <g id="路径_12422" transform="matrix(1,0,0,1,-461.107,8.155)">
            <path d="M825.069,322.008C825.079,322.008 825.089,322.008 825.099,322.008C828.357,322.008 831.038,319.327 831.038,316.069C831.038,312.811 828.357,310.13 825.099,310.13C821.841,310.13 819.16,312.811 819.16,316.069C819.16,319.316 821.822,321.992 825.069,322.008Z" style="fill:rgb(217,144,43);fill-rule:nonzero;"/>
        </g>
        <g id="路径_12423" transform="matrix(1,0,0,1,-463.225,8.609)">
            <path d="M828.749,321.26C828.766,321.26 828.783,321.26 828.8,321.26C832.07,321.26 834.76,318.57 834.76,315.3C834.76,312.031 832.07,309.34 828.8,309.34C825.531,309.34 822.84,312.031 822.84,315.3C822.84,318.55 825.499,321.232 828.749,321.26Z" style="fill:rgb(237,243,255);fill-rule:nonzero;"/>
        </g>
        <g id="路径_12424" transform="matrix(1,0,0,1,-466.605,5.201)">
            <path d="M832.129,322.158C832.139,322.158 832.149,322.158 832.159,322.158C834.051,322.158 835.608,320.601 835.608,318.709C835.608,316.817 834.051,315.26 832.159,315.26C830.267,315.26 828.71,316.817 828.71,318.709C828.71,320.59 830.248,322.142 832.129,322.158Z" style="fill:rgb(217,144,43);fill-rule:nonzero;"/>
        </g>
    </g>
    <defs>
        <linearGradient id="_Linear1" x1="0" y1="0" x2="1" y2="0" gradientUnits="userSpaceOnUse" gradientTransform="matrix(3.58055e-14,584.749,-584.749,3.58055e-14,224.371,0)"><stop offset="0" style="stop-color:rgb(255,197,101);stop-opacity:1"/><stop offset="1" style="stop-color:rgb(255,127,25);stop-opacity:1"/></linearGradient>
        <linearGradient id="_Linear2" x1="0" y1="0" x2="1" y2="0" gradientUnits="userSpaceOnUse" gradientTransform="matrix(3.44868e-14,563.212,-563.212,3.44868e-14,155.746,-5.68434e-14)"><stop offset="0" style="stop-color:white;stop-opacity:0.38"/><stop offset="1" style="stop-color:rgb(202,230,255);stop-opacity:0.38"/></linearGradient>
        <linearGradient id="_Linear3" x1="0" y1="0" x2="1" y2="0" gradientUnits="userSpaceOnUse" gradientTransform="matrix(3.81455e-14,622.963,-622.963,3.81455e-14,104.448,-5.68434e-14)"><stop offset="0" style="stop-color:rgb(170,201,249);stop-opacity:1"/><stop offset="1" style="stop-color:rgb(97,147,247);stop-opacity:1"/></linearGradient>
    </defs>
</svg>
