<?xml version="1.0" encoding="UTF-8" standalone="no"?>
<!DOCTYPE svg PUBLIC "-//W3C//DTD SVG 1.1//EN" "http://www.w3.org/Graphics/SVG/1.1/DTD/svg11.dtd">
<svg width="100%" height="100%" viewBox="0 0 64 64" version="1.1" xmlns="http://www.w3.org/2000/svg" xmlns:xlink="http://www.w3.org/1999/xlink" xml:space="preserve" xmlns:serif="http://www.serif.com/" style="fill-rule:evenodd;clip-rule:evenodd;stroke-linejoin:round;stroke-miterlimit:2;">
    <path d="M11.947,18.754L25.422,18.754C25.908,18.743 26.303,18.344 26.31,17.858C26.306,17.371 25.909,16.97 25.422,16.961L11.94,16.961C11.455,16.968 11.057,17.366 11.05,17.851L11.05,17.858C11.053,18.348 11.456,18.751 11.947,18.754ZM11.947,24.533L25.422,24.533C25.908,24.522 26.304,24.122 26.31,23.636C26.306,23.149 25.909,22.748 25.422,22.739L11.94,22.739C11.455,22.746 11.057,23.144 11.05,23.629L11.05,23.636C11.06,24.124 11.459,24.522 11.947,24.533ZM11.947,30.29L35.235,30.29C35.724,30.283 36.125,29.882 36.132,29.393C36.125,28.904 35.724,28.503 35.235,28.496L11.94,28.496C11.455,28.503 11.057,28.901 11.05,29.386L11.05,29.393C11.057,29.882 11.458,30.283 11.947,30.29ZM35.227,34.441L11.937,34.441C11.448,34.448 11.048,34.849 11.041,35.338C11.045,35.828 11.448,36.231 11.938,36.235L35.233,36.235C35.722,36.235 36.123,35.834 36.123,35.345L36.123,35.338C36.113,34.85 35.715,34.452 35.227,34.441ZM35.227,40.199L11.947,40.199C11.461,40.21 11.065,40.61 11.058,41.096C11.058,41.585 11.458,41.988 11.947,41.993L35.233,41.993C35.722,41.993 36.123,41.591 36.123,41.103L36.123,41.096C36.113,40.608 35.715,40.21 35.227,40.199ZM30.304,24.408L34.225,24.408C34.827,24.396 35.319,23.904 35.331,23.302L35.331,18.046C35.319,17.444 34.827,16.952 34.225,16.94L30.304,16.94C29.699,16.944 29.202,17.44 29.198,18.045L29.198,23.302C29.202,23.907 29.698,24.404 30.304,24.408Z" style="fill:rgb(242,242,242);fill-rule:nonzero;"/>
    <path d="M42.774,23.409C43.374,22.726 43.756,21.853 43.702,20.898C43.511,18.141 39.69,18.742 38.952,20.133C38.216,21.525 38.298,25.046 39.252,25.292C39.635,25.401 40.454,25.155 41.3,24.637L40.781,28.349L43.865,28.349L42.774,23.409Z" style="fill:rgb(255,215,194);fill-rule:nonzero;"/>
    <path d="M40.7,18.551C41.11,18.469 42.202,18.442 42.393,18.442C42.529,18.442 42.666,18.469 42.72,18.36C42.763,18.247 42.782,18.126 42.775,18.005C42.802,17.869 42.829,17.732 42.857,17.623C42.941,17.259 43.079,16.909 43.267,16.586C43.607,15.971 44.146,15.49 44.795,15.221C45.505,14.921 46.323,14.839 47.087,14.894C47.907,14.976 48.67,15.221 49.435,15.494C50.172,15.743 50.956,15.818 51.727,15.713C52.519,15.603 53.092,15.166 53.774,14.757C54.457,14.348 55.221,14.075 56.012,14.129C56.777,14.184 57.432,14.484 58.059,14.921C58.633,15.303 59.097,15.767 59.397,16.422C59.697,17.132 59.697,17.896 59.206,18.524C58.523,19.424 57.241,19.67 56.176,19.616C55.564,19.591 54.958,19.481 54.376,19.288C53.584,19.015 52.928,18.551 52.219,18.169C51.878,17.991 51.522,17.844 51.154,17.732C50.8,17.623 50.444,17.596 50.117,17.814C49.804,18.066 49.454,18.268 49.08,18.414C48.704,18.553 48.307,18.627 47.906,18.634C47.115,18.634 46.351,18.387 45.614,18.224C44.986,18.087 44.331,17.95 43.703,18.087C43.43,18.142 43.048,18.251 42.966,18.524C44.549,18.824 45.204,20.789 44.74,22.263C44.495,23.055 43.02,23.983 42.475,23.573C42.12,23.3 42.338,22.973 42.475,22.754C42.748,22.317 42.83,21.771 42.338,21.444C41.902,21.171 41.465,21.799 41.438,21.799C41.328,21.771 40.291,21.199 39.582,20.352C38.899,20.407 38.79,19.915 38.954,19.561C39.09,19.124 40.127,18.633 40.7,18.551Z" style="fill:rgb(33,42,113);fill-rule:nonzero;"/>
    <path d="M26.48,59.983C28.118,56.326 29.319,53.16 29.783,51.468C30.602,48.602 31.229,46.063 31.366,45.135C31.721,42.87 28.5,42.761 28.063,43.88C27.408,45.572 26.289,51.14 24.897,59.52L26.48,59.983ZM45.504,48.52C44.004,47.92 38.735,46.036 36.17,45.518C35.433,45.381 34.723,45.218 34.068,45.081C32.103,44.699 31.066,48.301 32.976,48.547C37.726,49.23 44.467,49.939 45.04,50.021C45.86,50.185 46.46,48.902 45.504,48.521L45.504,48.52Z" style="fill:rgb(255,78,134);fill-rule:nonzero;"/>
    <path d="M32.867,44.126L41.027,39.95L41.027,39.049L40.045,39.049C32.157,41.069 28.145,42.351 27.955,42.925L27.955,42.952L27.927,42.979C26.371,45.136 25.443,55.671 25.115,56.463L28.118,56.899C29.264,52.641 32.922,49.666 32.84,44.562C32.862,44.418 32.87,44.272 32.867,44.126Z" style="fill:rgb(0,120,229);fill-rule:nonzero;"/>
    <path d="M40.346,46.61C41.11,46.473 41.766,46.336 42.366,46.227C46.16,45.572 47.279,43.525 46.596,39.077L39.61,39.077C38.463,39.404 32.54,41.915 29.456,43.225C27.409,44.099 28.064,47.265 29.211,48.111C29.211,48.154 29.231,48.194 29.265,48.221C35.461,50.786 40.401,49.448 42.039,49.885L42.803,47.483L40.347,46.609L40.346,46.61Z" style="fill:rgb(27,144,251);fill-rule:nonzero;"/>
    <path d="M44.991,48.162C45.284,48.18 45.572,48.245 45.844,48.354C46.148,48.505 46.434,48.693 46.693,48.912C46.569,49.155 45.522,51.305 43.528,55.436C42.907,55.344 42.628,55.085 42.767,54.684C42.905,54.282 43.005,53.99 43.081,53.71L43.227,50.025C43.233,49.96 43.286,49.909 43.351,49.904L43.911,49.934C44.169,49.748 44.384,49.509 44.541,49.232C44.616,49.074 44.668,48.806 44.696,48.428L44.696,48.424C44.697,48.293 44.804,48.187 44.935,48.186L44.942,48.186L44.992,48.162L44.991,48.162ZM27.217,59.328C27.354,59.711 27.436,60.011 27.436,60.202C27.436,60.448 27.381,60.775 27.326,61.212L20.093,61.212C19.903,60.584 20.012,60.256 20.421,60.202C20.831,60.147 21.158,60.12 21.431,60.065L24.788,58.565C24.848,58.54 24.918,58.563 24.952,58.619L25.17,59.137C25.525,59.301 25.853,59.41 26.07,59.41C26.262,59.41 26.535,59.328 26.862,59.165C26.999,59.11 27.135,59.165 27.217,59.328Z" style="fill:rgb(33,42,113);fill-rule:nonzero;"/>
    <path d="M33.057,35.527L28.417,33.48C27.597,32.661 26.834,32.061 26.07,31.624C25.851,31.542 25.442,31.542 25.851,32.143C26.261,32.743 26.671,33.398 26.506,33.617C26.342,33.835 25.851,33.589 25.687,33.944C25.551,34.19 26.37,34.435 28.117,34.764L31.583,37.438L33.057,35.528L33.057,35.527ZM51.835,36.1L49.215,36.619C51.862,41.559 53.254,44.179 53.445,44.479C53.882,45.134 53.472,46.363 53.335,47.018C54.264,47.236 53.909,45.817 55.083,46.117C56.147,46.39 57.075,47.072 58.085,46.144C58.194,46.035 58.303,45.68 57.867,45.489C56.829,45.025 55.274,44.179 55.028,43.852C54.673,43.388 53.608,40.795 51.835,36.1Z" style="fill:rgb(255,215,194);fill-rule:nonzero;"/>
    <path d="M42.064,26.22L40.973,26.03C38.543,28.377 37.561,34.027 35.95,34.79C34.422,35.5 32.293,34.818 29.728,33.89L28.936,35.637C31.256,38.175 36.224,40.304 38.243,39.076C41.437,37.138 42.201,30.178 42.064,26.221L42.064,26.22Z" style="fill:rgb(246,150,14);fill-rule:nonzero;"/>
    <path d="M46.896,40.223L37.098,40.223C36.661,40.223 36.743,39.568 36.798,39.24C37.562,35.446 40.455,31.38 40.455,26.003L43.293,25.566C45.641,29.332 46.433,33.972 46.896,40.223Z" style="fill:white;fill-rule:nonzero;"/>
    <path d="M54.974,43.825C53.882,37.083 51.126,31.788 46.704,27.94C47.524,26.384 47.277,25.456 46.459,25.074C45.613,24.692 44.821,25.238 43.456,25.102C43.384,25.088 43.31,25.088 43.238,25.102L42.555,25.074C42.501,25.238 42.365,25.566 42.365,25.566C39.826,34.272 39.125,40.067 40.263,42.951L49.079,42.951C48.943,40.822 48.479,38.584 47.879,36.401C49.871,40.031 51.563,42.624 52.927,44.234L54.974,43.824L54.974,43.825Z" style="fill:rgb(246,150,14);fill-rule:nonzero;"/>
    <path d="M38.123,46.306L38.123,54.588C38.123,54.588 39.875,56.028 45.758,56.028C51.578,56.028 53.727,54.588 53.727,54.588L53.747,46.306L38.123,46.306Z" style="fill:rgb(248,216,175);fill-rule:nonzero;"/>
    <g transform="matrix(0.08533,0,0,0.08533,38.123,45.097)">
        <ellipse cx="91.427" cy="14.178" rx="91.427" ry="14.178" style="fill:rgb(242,242,242);"/>
    </g>
</svg>
