<?xml version="1.0" encoding="UTF-8" standalone="no"?>
<!DOCTYPE svg PUBLIC "-//W3C//DTD SVG 1.1//EN" "http://www.w3.org/Graphics/SVG/1.1/DTD/svg11.dtd">
<svg width="100%" height="100%" viewBox="0 0 64 64" version="1.1" xmlns="http://www.w3.org/2000/svg" xmlns:xlink="http://www.w3.org/1999/xlink" xml:space="preserve" xmlns:serif="http://www.serif.com/" style="fill-rule:evenodd;clip-rule:evenodd;stroke-linecap:round;">
    <g transform="matrix(1,0,0,1,0,6)">
        <g id="组_5944" transform="matrix(0.247567,-0.0347933,0.0347933,0.247567,1.691,16.9498)">
            <g id="组_5940" transform="matrix(1,0,0,1,56.751,52.58)">
                <path id="路径_8521" d="M3.748,1.53L0,0.329L9.425,0L13.173,1.2L3.748,1.53Z" style="fill:rgb(199,204,224);fill-rule:nonzero;"/>
            </g>
            <g id="组_5941" transform="matrix(1,0,0,1,42.86,67.594)">
                <path id="路径_8522" d="M3.809,15.626L0.059,14.426L0,0L3.748,1.2L3.809,15.626Z" style="fill:rgb(174,181,206);fill-rule:nonzero;"/>
            </g>
            <g id="组_5942" transform="matrix(1,0,0,1,42.664,18.374)">
                <path id="路径_8523" d="M3.9,36.612L0.15,35.412L0,0L3.748,1.2L3.9,36.612Z" style="fill:rgb(174,181,206);fill-rule:nonzero;"/>
            </g>
            <g id="组_5943" transform="matrix(1,0,0,1,15.588,53.416)">
                <path id="路径_8524" d="M3.748,2.183L0,0.981L28.064,0L31.814,1.2L3.748,2.183Z" style="fill:rgb(199,204,224);fill-rule:nonzero;"/>
            </g>
            <path id="路径_8525" d="M60.274,1.2L56.736,0L37.821,0.709L0,53.049L0.067,70.566L3.606,71.766L3.539,54.246L41.369,1.892L60.274,1.2Z" style="fill:rgb(174,181,206);fill-rule:nonzero;"/>
            <g id="路径_8526" transform="matrix(1,0,0,1,3.762,1.201)">
                <path d="M57.009,0L57.233,52.9L66.177,52.577L66.235,67L57.291,67.323L57.348,81.5L42.918,82.021L42.862,67.837L0.067,69.39L0,52.165L38.015,0.688L57.009,0ZM42.792,53.427L42.653,18.606L16.162,54.392L42.792,53.427" style="fill:rgb(226,228,237);fill-rule:nonzero;"/>
            </g>
        </g>
        <g id="编组-20" transform="matrix(0.25,0,0,0.25,20.5598,11.0745)">
            <g transform="matrix(1,0,0,1,16.628,13.553)">
                <circle cx="35.539" cy="35.539" r="35.539" style="fill:rgb(226,228,237);"/>
            </g>
            <g transform="matrix(1,0,0,1,32.424,31.605)">
                <path d="M5.077,0C7.705,-0.145 9.99,1.887 10.154,4.513C9.991,7.14 7.705,9.172 5.077,9.027C2.449,9.172 0.163,7.14 0,4.513C0.164,1.887 2.449,-0.145 5.077,-0Z" style="fill:rgb(215,228,237);fill-rule:nonzero;"/>
            </g>
            <g transform="matrix(1,0,0,1,39.193,63.196)">
                <path d="M4.513,0C6.989,-0 9.026,2.037 9.026,4.513C9.026,6.989 6.989,9.026 4.513,9.026C2.037,9.026 0,6.989 0,4.513C-0,2.037 2.037,0 4.513,0Z" style="fill:rgb(239,241,252);fill-rule:nonzero;"/>
            </g>
            <g transform="matrix(1,0,0,1,51.603,28.221)">
                <circle cx="7.333" cy="7.333" r="7.333" style="fill:rgb(247,248,255);"/>
            </g>
            <g transform="matrix(1,0,0,1,-0.84,-12.255)">
                <path d="M19.23,71.091L20.64,75.191C18.151,78.344 17.549,80.604 18.834,81.97C20.761,84.019 51.32,70.262 59.574,65.443C67.828,60.624 90.111,42.465 88.726,40.481C87.802,39.159 85.455,39.149 81.709,40.481L79.184,37.564C93.692,29.32 102.235,26.342 105.643,30.737C110.443,36.327 83.506,57.772 62.57,68.743C41.634,79.714 6.776,96.881 2.678,91.036C-0.053,87.141 5.464,80.492 19.23,71.091Z" style="fill:rgb(226,228,237);"/>
            </g>
            <g transform="matrix(1,0,0,1,0,-12.231)">
                <path d="M18.351,71.067L19.42,74.7C16.34,78.167 15.438,80.585 16.713,81.954C18.628,84.003 46.613,71.184 57.239,65.427C67.865,59.67 82.912,47.555 87.013,42.4C91.114,37.245 83.946,38.426 80.208,39.746L77.67,36.734C92.102,28.49 99.97,27.044 103.151,30.77C107.93,36.36 81.034,57.748 60.2,68.722C39.366,79.696 4.718,96.857 0.642,91.012C-2.075,87.117 3.828,80.468 18.351,71.067Z" style="fill:rgb(194,199,219);"/>
            </g>
            <g transform="matrix(1,0,0,1,-6.727,-7.994)">
                <path d="M27,41.492C1.227,70.785 20.74,63.287 85.537,19" style="fill:none;stroke:rgb(200,204,222);stroke-width:1px;stroke-dasharray:2,4;"/>
            </g>
            <g id="形状" transform="matrix(1,0,0,1,80.131,-0.002)">
                <path d="M10.121,0.4C10.092,0.279 9.998,0.184 9.878,0.153C7.67,-0.368 5.353,0.484 4.008,2.311C3.961,2.376 3.892,2.422 3.814,2.442C3.028,2.639 2.311,3.047 1.741,3.622C1.471,3.89 1.236,4.19 1.041,4.516C1.014,4.566 0.999,4.623 0.999,4.68C0.999,4.868 1.154,5.023 1.342,5.023C1.385,5.023 1.427,5.015 1.466,5C1.955,4.824 2.471,4.736 2.99,4.74C2.986,4.786 2.978,4.831 2.966,4.876C3.339,5.31 3.727,5.73 4.13,6.135C4.533,6.54 4.953,6.929 5.389,7.3L5.518,7.29C5.521,7.809 5.433,8.325 5.256,8.814C5.242,8.852 5.235,8.892 5.235,8.933C5.235,9.121 5.39,9.276 5.578,9.276C5.635,9.276 5.692,9.261 5.742,9.234C6.068,9.039 6.368,8.804 6.636,8.534C7.21,7.965 7.618,7.249 7.815,6.465C7.835,6.387 7.881,6.318 7.946,6.271C8.178,6.102 8.397,5.915 8.6,5.712C9.99,4.325 10.566,2.312 10.121,0.4ZM7.8,4.083C7.584,4.299 7.292,4.42 6.987,4.42C6.356,4.42 5.837,3.901 5.837,3.27C5.837,2.639 6.356,2.12 6.987,2.12C7.292,2.12 7.584,2.241 7.8,2.457C8.246,2.903 8.246,3.637 7.8,4.083Z" style="fill:rgb(189,193,201);fill-rule:nonzero;"/>
            </g>
            <g id="路径" transform="matrix(1,0,0,1,80.547,-4.628)">
                <path d="M1.592,11.242C1.218,11.616 -0.374,13.942 0.08,14.402C0.534,14.862 2.856,13.265 3.24,12.89C3.608,12.438 3.545,11.765 3.099,11.39C2.725,10.938 2.047,10.871 1.592,11.242Z" style="fill:rgb(189,193,201);fill-rule:nonzero;"/>
            </g>
        </g>
        <g id="组_5954" transform="matrix(0.249049,0.0217889,-0.0217889,0.249049,45.7095,16.5125)">
            <g id="组_5940-2" transform="matrix(1,0,0,1,54.651,48.45)">
                <path id="路径_8521-2" d="M3.4,1.386L0,0.3L8.54,0L11.94,1.088L3.4,1.386Z" style="fill:rgb(199,204,224);fill-rule:nonzero;"/>
            </g>
            <g id="组_5941-2" transform="matrix(1,0,0,1,40.926,62.503)">
                <path id="路径_8522-2" d="M3.452,14.158L0.052,13.07L0,0L3.4,1.086L3.452,14.158Z" style="fill:rgb(199,204,224);fill-rule:nonzero;"/>
            </g>
            <g id="组_5942-2" transform="matrix(1,0,0,1,40.741,17.144)">
                <path id="路径_8523-2" d="M3.531,33.172L0.131,32.084L0,0L3.4,1.088L3.531,33.172Z" style="fill:rgb(199,204,224);fill-rule:nonzero;"/>
            </g>
            <g id="组_5943-2" transform="matrix(1,0,0,1,15.443,49.228)">
                <path id="路径_8524-2" d="M3.4,1.978L0,0.889L25.427,0L28.827,1.088L3.4,1.978Z" style="fill:rgb(192,197,214);fill-rule:nonzero;"/>
            </g>
            <path id="路径_8525-2" d="M57.843,1.088L54.447,0L36.3,0.643L0,48.064L0.064,63.936L3.464,65.024L3.4,49.151L39.7,1.714L57.843,1.088Z" style="fill:rgb(174,181,206);fill-rule:nonzero;"/>
            <g id="路径_8526-2" transform="matrix(1,0,0,1,3.409,1.088)">
                <path d="M54.434,0L54.648,48.746L63.188,48.446L63.244,61.729L54.704,62.029L54.758,75.1L40.98,75.58L40.926,62.511L0.064,63.936L0,48.065L36.3,0.634L54.434,0ZM40.859,49.228L40.726,17.144L15.432,50.117L40.859,49.228" style="fill:rgb(226,228,237);fill-rule:nonzero;stroke:rgb(205,209,227);stroke-width:1px;stroke-linecap:butt;"/>
            </g>
        </g>
    </g>
</svg>
