<svg viewBox="0 0 64 64" xmlns="http://www.w3.org/2000/svg" fill-rule="evenodd" clip-rule="evenodd" stroke-linecap="round"><path d="M18.551 34.24l-.97-.166 2.322-.41.97.167-2.322.41z" fill="#c7cce0" fill-rule="nonzero"/><path d="M16.14 41.929l-.97-.167-.516-3.57.97.167.516 3.57zM15.132 34.942l-.97-.166-1.27-8.762.97.167 1.27 8.761z" fill="#aeb5ce" fill-rule="nonzero"/><path d="M8.412 36.042l-.97-.168 6.914-1.219.97.167-6.914 1.22z" fill="#c7cce0" fill-rule="nonzero"/><path d="M16.655 21.15l-.918-.174-4.658.833-7.542 14.274.626 4.334.918.174-.626-4.335 7.543-14.277 4.657-.83z" fill="#aeb5ce" fill-rule="nonzero"/><path d="M16.778 21.133l1.896 13.088 2.203-.391.516 3.569-2.203.39.507 3.509-3.554.63-.507-3.509-10.541 1.874-.616-4.262 7.62-14.067 4.679-.831zm-1.661 13.721l-1.246-8.616-5.313 9.782 6.559-1.166" fill="#e2e4ed" fill-rule="nonzero"/><g><circle cx="35.539" cy="35.539" r="35.539" fill="#e2e4ed" transform="matrix(.25 0 0 .25 24.717 20.463)"/><path d="M29.935 24.976a1.21 1.21 0 011.27 1.128 1.21 1.21 0 01-1.27 1.129 1.21 1.21 0 01-1.27-1.129 1.21 1.21 0 011.27-1.128z" fill="#d7e4ed" fill-rule="nonzero"/><path d="M31.486 32.873c.62 0 1.129.51 1.129 1.129s-.51 1.128-1.129 1.128-1.128-.51-1.128-1.128c0-.62.51-1.129 1.128-1.129z" fill="#eff1fc" fill-rule="nonzero"/><circle cx="7.333" cy="7.333" r="7.333" fill="#f7f8ff" transform="matrix(.25 0 0 .25 33.46 24.13)"/><path d="M25.157 31.783l.353 1.025c-.622.789-.773 1.354-.452 1.695.482.512 8.122-2.927 10.185-4.132 2.064-1.204 7.635-5.744 7.288-6.24-.23-.33-.817-.333-1.754 0l-.631-.73c3.627-2.06 5.763-2.805 6.615-1.706 1.2 1.397-5.535 6.759-10.769 9.501-5.234 2.743-13.948 7.035-14.973 5.574-.682-.974.697-2.636 4.138-4.987z" fill="#e2e4ed"/><path d="M25.148 31.783l.267.909c-.77.866-.996 1.471-.677 1.813.479.512 7.475-2.692 10.132-4.132 2.656-1.439 6.418-4.468 7.443-5.756 1.025-1.289-.767-.994-1.701-.664l-.635-.753c3.608-2.06 5.575-2.422 6.37-1.49 1.195 1.397-5.529 6.744-10.737 9.487-5.209 2.744-13.87 7.034-14.89 5.573-.679-.974.797-2.636 4.428-4.987z" fill="#c2c7db"/><path d="M25.628 25.449c-6.443 7.323-1.565 5.449 14.634-5.623" fill="none" stroke="#c8ccde" stroke-dasharray="2,4" stroke-width=".25"/><path d="M43.123 17.174a.084.084 0 00-.06-.062 1.42 1.42 0 00-1.468.54.086.086 0 01-.049.033 1.138 1.138 0 00-.693.518.086.086 0 00.106.121 1.1 1.1 0 01.381-.065.198.198 0 01-.006.034 5.875 5.875 0 00.606.606l.032-.002a1.1 1.1 0 01-.065.38.086.086 0 00.121.106 1.138 1.138 0 00.518-.693.086.086 0 01.033-.048 1.422 1.422 0 00.544-1.468zm-.58.92a.287.287 0 11-.407-.405.287.287 0 01.407.406z" fill="#bdc1c9" fill-rule="nonzero"/><path d="M41.095 18.728c-.094.093-.492.675-.378.79.113.115.694-.284.79-.378a.27.27 0 00-.036-.375.27.27 0 00-.376-.037z" fill="#bdc1c9" fill-rule="nonzero"/></g><g><path d="M59.081 36.189l-.823-.345 2.133.112.824.345-2.134-.112zM55.091 42.572l-.823-.345.272-3.256.823.344-.272 3.257zM55.64 36.008l-.824-.345.666-7.993.824.345-.667 7.993z" fill="#c7cce0" fill-rule="nonzero"/><path d="M49.287 35.676l-.823-.345 6.352.332.823.345-6.352-.332z" fill="#c0c5d6" fill-rule="nonzero"/><path d="M60.092 24.044l-.823-.345-4.533-.235-10.074 11.019-.33 3.954.823.345.33-3.954L55.56 23.804l4.533.24z" fill="#aeb5ce" fill-rule="nonzero"/><path d="M60.092 24.044l-1.01 12.145 2.134.111-.275 3.31-2.134-.112-.271 3.256-3.442-.18.271-3.256-10.207-.536.33-3.954L55.56 23.807l4.53.237zm-4.454 11.964l.666-7.993-7.018 7.66 6.352.333" fill="#e2e4ed" fill-rule="nonzero" stroke="#cdd1e3" stroke-linecap="butt" stroke-width=".25"/></g></svg>