<svg viewBox="0 0 64 64" xmlns="http://www.w3.org/2000/svg" fill-rule="evenodd" clip-rule="evenodd" stroke-linejoin="round" stroke-miterlimit="2"><path fill="none" d="M0 0h64v64H0z"/><path d="M31.355 32.828c9.44 0 29.89 1.39 29.89 9.055 0 7.666-13.094 13.88-29.245 13.88-16.152 0-29.245-6.215-29.245-13.88 0-7.665 19.996-9.055 28.6-9.055z" fill="#e2e4ed" fill-opacity=".39" fill-rule="nonzero"/><path d="M59.878 42.625l-23.18 9.12-6.45-15.539 14.002-1.275 15.628 7.694z" fill="#e2e4ed" fill-opacity=".71" fill-rule="nonzero"/><circle cx="2.652" cy="2.652" r="2.652" fill="#e2e4ed" fill-opacity=".76" transform="matrix(.25 0 0 .25 15.876 18.549)"/><circle cx="5.556" cy="5.556" r="5.556" fill="#e2e4ed" fill-opacity=".76" transform="matrix(.25 0 0 .25 50.392 25.716)"/><circle cx="2.192" cy="2.192" r="2.192" fill="#e2e4ed" fill-opacity=".76" transform="matrix(.25 0 0 .25 40.326 12.687)"/><circle cx="1.889" cy="1.889" r="1.889" fill="#e2e4ed" fill-opacity=".76" transform="matrix(.25 0 0 .25 48.3 8.423)"/><circle cx="2.611" cy="2.611" r="2.611" fill="#e2e4ed" fill-opacity=".76" transform="matrix(.25 0 0 .25 53.17 18.976)"/><circle cx="2.469" cy="2.469" r="2.469" fill="#e2e4ed" fill-opacity=".76" transform="matrix(.25 0 0 .25 43.89 37.499)"/><path d="M26.666 42.587a.923.923 0 01-.919-.919c0-.504.415-.918.919-.918.503 0 .918.414.918.918a.924.924 0 01-.918.919zm0-1.325a.41.41 0 00-.408.407.41.41 0 00.408.408.41.41 0 00.407-.408.41.41 0 00-.407-.408zM7.47 22.136H5.699a.281.281 0 01-.28-.28c0-.154.127-.28.28-.28h1.773c.153 0 .279.126.28.28-.001.153-.127.28-.28.28z" fill="#e2e4ed" fill-opacity=".76" fill-rule="nonzero"/><path d="M6.293 22.731v-1.75c0-.16.132-.291.291-.291.16 0 .291.131.291.29v1.751c0 .16-.13.29-.29.29a.292.292 0 01-.292-.29zM10.227 15.469h-1.15a.182.182 0 01-.182-.182c0-.1.082-.181.182-.181h1.15c.1 0 .181.082.181.181 0 .1-.082.182-.181.182z" fill="#e2e4ed" fill-opacity=".76" fill-rule="nonzero"/><path d="M9.462 15.855v-1.136a.19.19 0 01.19-.19.19.19 0 01.189.19v1.136a.19.19 0 01-.19.189.19.19 0 01-.189-.19zM31.37 9.605l-1.578-2.29.267-.508 1.175.062.136 2.736zM30.785 9.952c-.729-.133-1.457-.267-2.186-.402l-.137-.439.7-.63 1.623 1.471zM31.731 9.242l.164-1.963.375-.158.617.562-1.156 1.559z" fill="#e2e4ed" fill-opacity=".76" fill-rule="nonzero"/><path d="M29.58 32.99l15.561 1.713 3.062-20.462-18.622-2.244V32.99z" fill="#c7cce0" fill-rule="nonzero"/><path d="M29.58 33.32l-12.086 1.556-3.062-20.462 15.149-2.417v21.322z" fill="#e2e4ed" fill-rule="nonzero"/><path d="M14.432 35.41l17.4 4.593V19.01l-17.4-4.592v20.993z" fill="#e2e4ed" fill-rule="nonzero"/><path d="M48.204 35.234l-16.37 4.77v-21.17l16.37-4.593v20.993z" fill="#c7cce0" fill-rule="nonzero"/><path d="M51.644 21.553l-15.103 5.27-4.707-7.988 16.37-4.594 3.44 7.312z" fill="#eff1fc" fill-rule="nonzero"/><path d="M10.163 22.083l17.839 4.74 3.27-7.96-16.84-4.45-4.27 7.67z" fill="#c7cce0" fill-rule="nonzero"/></svg>