<svg viewBox="0 0 64 64" xmlns="http://www.w3.org/2000/svg" fill-rule="evenodd" clip-rule="evenodd" stroke-miterlimit="10"><path fill="#edf6fe" d="M.001 0H64v64H.001z"/><path d="M85.156 231.186c-2.046-4.122-5.427-6.755-15.973-6.755-10.546 0-13.925 2.629-15.974 6.755h31.947z" fill="url(#_Linear1)" fill-rule="nonzero" transform="matrix(1.99997 0 0 2 -106.417 -398.558)"/><path d="M35.352 36.286c.082-.02.162-.05.238-.09.088-.034.166-.064.24-.088l1.928 4.578-.454-.214-.446-.2-1.8-3.854.294-.132z" fill="#53b9f5" fill-rule="nonzero"/><path d="M37.294 48.43v-7.958l.454.214v-4.768l.646-.024v13.14l-1.8 5.322-1.306-1.26 2.006-4.666zM22.79 28.138l-4.785.86c-.6 0-1.084.936-1.084 2.09s.484 2.088 1.084 2.088l4.786.87c-.484 6.14-2.442 10.728-4.786 10.728-2.708 0-4.898-6.126-4.898-13.686s2.2-13.688 4.898-13.688c2.344.008 4.302 4.602 4.786 10.738z" fill="#fff" fill-rule="nonzero"/><path d="M22.79 28.138a38.311 38.311 0 010 5.916l-4.785-.87c.6 0 1.09-.936 1.09-2.088 0-1.152-.488-2.09-1.09-2.09l4.786-.868z" fill="#53b9f5" fill-rule="nonzero"/><path d="M18.005 29c.6 0 1.09.936 1.09 2.09s-.488 2.088-1.09 2.088c-.602 0-1.084-.936-1.084-2.088 0-1.152.486-2.09 1.084-2.09zm18.393 6.97l1.36-.06v4.774l-1.928-4.578c.184-.068.374-.114.568-.136z" fill="#40a8f5" fill-rule="nonzero"/><path d="M35.594 36.196c.984-.512 1.714-2.6 1.714-5.1a6.347 6.347 0 00-1.768-5.114c.276.116.568.198.864.244 1.108 0 2 2.182 2 4.874 0 2.692-.902 4.874-2 4.874-.194.024-.384.07-.568.138-.082.022-.164.05-.242.084z" fill="#53b9f5" fill-rule="nonzero"/><path d="M44.514 31.106c0 2.684-.8 3.42-1.898 3.424a8.402 8.402 0 00.628-3.424 8.1 8.1 0 00-.716-3.61c1.1 0 1.986.924 1.986 3.61z" fill="#0b70bb" fill-rule="nonzero"/><path d="M41.238 35.748v18.6h-4.632l1.8-5.322V35.888c1.26-.056 1.702-.07 2.832-.14z" fill="#599af0" fill-rule="nonzero"/><path d="M42.53 27.494a8.072 8.072 0 01.716 3.61 8.402 8.402 0 01-.628 3.424c-.36.774-.846 1.228-1.378 1.228-1.122.07-1.574.084-2.834.136l-.646.024-1.36.06c1.108 0 2-2.182 2-4.874 0-2.692-.902-4.874-2-4.874 2.84.102 3.268.126 4.84.22.488 0 .94.382 1.29 1.046z" fill="#8cd7ff" fill-rule="nonzero"/><path d="M37.304 31.106c0 2.494-.732 4.588-1.714 5.1l-.238.09-.3.124c-3.4 1.422-11.377 5.876-13.655 7.166 1.7-2.148 2.882-6.92 2.882-12.478s-1.182-10.324-2.88-12.476c2.4 1.354 11.1 6.2 14.14 7.358a6.352 6.352 0 011.765 5.116z" fill="#599af0" fill-rule="nonzero"/><path d="M58.494 55.926c.154-.072.16-.374.064-.506.042.084-.022.154-.142.148a7.014 7.014 0 01-3.25-.674c-.3-.072-1.02-.054-1.4-.126a.512.512 0 01-.46-.424.533.533 0 00-.088.68c.154.28 1.138.376 1.324.4.186.024 2.106.264 2.374.374.516.126 1.048.17 1.578.128z" fill="#ebfcff" fill-rule="nonzero"/><path d="M54.19 52.996v.106c.2.03.352.138.354.262 0 .186-.112.364.148.37a.764.764 0 00.64-.334c.084-.166.078-.3.276-.274v-.2h-.142c-.088 0-.282.4-.4.49-.386.274-.388-.234-.526-.3a.84.84 0 00-.35-.12z" fill="#e55c5c" fill-opacity=".2" fill-rule="nonzero"/><path d="M53.564 53.514a4.11 4.11 0 00-.268.732.418.418 0 000 .1.512.512 0 00.46.424c.388.072 1.12.054 1.4.126a7.014 7.014 0 003.25.674c.12 0 .184-.064.142-.148a8.072 8.072 0 00-1.318-.944 3.566 3.566 0 01-1.642-1.354.679.679 0 00-.21-.034c-.24 0-.454.126-.458.27-.004.144.112.364-.148.37a.764.764 0 01-.64-.334c-.084-.166-.078-.3-.276-.274h-.132c-.106 0-.16 0-.2.042-.04.042.098.202.04.35zm-8.022 1.908c-.042.084.022.154.142.148a7.04 7.04 0 003.25-.674c.3-.072 1.02-.054 1.4-.126a.508.508 0 00.46-.424.418.418 0 000-.1 4.11 4.11 0 00-.268-.732c-.058-.144.076-.264.03-.342-.046-.078-.13-.028-.328-.048s-.2.108-.276.274a.764.764 0 01-.64.334c-.258 0-.148-.184-.148-.37 0-.124-.156-.232-.354-.262a.636.636 0 00-.3.024 3.566 3.566 0 01-1.642 1.354 7.821 7.821 0 00-1.326.944z" fill="#ffb056" fill-rule="nonzero"/><path d="M50.78 40.074l.19.87 2.506 11.522h.252l1.462-.03h.084l-1.664-12.19c-.048-.066-.168-.214-.3-.386-.836.144-1.682.216-2.53.214z" fill="#599af0" fill-rule="nonzero"/><path d="M48.616 39.88l.084 12.576h1.72l.556-11.514-.19-.87a7.339 7.339 0 01-2.17-.192z" fill="#599af0" fill-rule="nonzero"/><path d="M50.776 40.074c.848.002 1.694-.068 2.53-.21-.238-.3-.518-.694-.47-.786.082-.15.4-.184.562-.2l.422-.756-.422-4.33.412.8.434-.3 1.386-1 .154-.112-1.442-2.164a.95.95 0 00-.746-.526 12.309 12.309 0 01-1.546-.268c-.082.282-1.64.216-1.824-.2-.3 0-1.2-.048-1.786-.078a1.332 1.332 0 00-.884.28l-1.504 1.174.776 1.618.4.854 1.152-1.044s.132 6.434.136 7.016c.024.022.052.04.082.052.714.16 1.448.22 2.178.18z" fill="#ffb056" fill-rule="nonzero"/><path d="M48.816 52.464v.644c.2.03.352.138.354.262 0 .186-.112.364.148.37a.764.764 0 00.64-.334c.084-.166.078-.3.276-.274v-.668h-1.418z" fill="#ffeed2" fill-rule="nonzero"/><path d="M48.816 52.464v.124c.2.03 1.228 0 1.426 0v-.124h-1.426z" fill="#e55c5c" fill-opacity=".2" fill-rule="nonzero"/><path d="M53.728 52.464c.044.218.044.44 0 .658h.132c.2-.022.2.108.276.274a.764.764 0 00.64.334c.258 0 .148-.184.148-.37s.216-.27.458-.27a4.882 4.882 0 01-.2-.65l-1.454.024z" fill="#ffeed2" fill-rule="nonzero"/><path d="M53.728 52.464c.02.054.03.11.028.168.036 0 1.236-.036 1.48-.036-.024-.072-.034-.124-.046-.162l-1.462.03z" fill="#e55c5c" fill-opacity=".2" fill-rule="nonzero"/><path d="M53.3 39.862c.132.172.252.318.3.386l.016.02c.21-.036.412-.812.412-.812l-.634-.578c-.154 0-.482.048-.562.2-.05.088.252.474.468.784z" fill="#fae4cd" fill-rule="nonzero"/><path d="M53.826 38.128l-.422.756.634.578 2.708-3.456a.526.526 0 00.048-.574l-1.27-2.058-1.264.92.956 1.35-1.39 2.484z" fill="#ffeed2" fill-rule="nonzero"/><path d="M55.708 33.686l-.2-.318-1.264.92.154.216s1.092-.72 1.31-.818z" fill="#e55c5c" fill-opacity=".2" fill-rule="nonzero"/><path d="M43.408 27.446c-.042.022-.16.028-.154.102-.018.6-.004 1.202.042 1.8l.572 5.04a.352.352 0 00.544.25l2.424-1.63-.776-1.618-1.32 1.034-.52-3.138c.198-.378.462-.72.776-1.01a.156.156 0 00-.132-.238c-.058 0-.228.148-.3.13-.072-.018.048-.848.022-.902-.026-.054-.168-.138-.222-.046-.054.092-.084.628-.112.638a7.658 7.658 0 01-.096-.8c0-.078-.22-.112-.24-.018-.048-.052-.2 0-.214.06-.014.06-.064.752-.078.8-.046-.044-.168-.476-.216-.454z" fill="#ffeed2" fill-rule="nonzero"/><path d="M46.562 33.194l.276-.19-.776-1.618-.1.078s.442 1.388.6 1.73z" fill="#e55c5c" fill-opacity=".2" fill-rule="nonzero"/><path d="M50.32 30.01h-.088c.184.418 1.742.484 1.824.2a1.019 1.019 0 01-.358-.154.824.824 0 01-.184-.74c.006-.084.02-.166.042-.246a1.21 1.21 0 01-.674.178 1.19 1.19 0 01-.47-.102c.004.154.034.846-.092.864z" fill="#ffeed2" fill-rule="nonzero"/><path d="M51.498 29.518c.008-.15.026-.3.058-.446a1.21 1.21 0 01-.674.178 1.19 1.19 0 01-.47-.102c.32.222.696.352 1.086.37z" fill="#e55c5c" fill-opacity=".2" fill-rule="nonzero"/><path d="M52.204 27.522a.602.602 0 000-.12v.022a.667.667 0 01-.246.3 1.044 1.044 0 00-.028-.658.753.753 0 00-.136-.2 1.023 1.023 0 00-.734-.342 4.81 4.81 0 00-1.026.148l-.022.018c-.07.118-.568 2 .4 2.46.148.066.308.1.47.102a1.21 1.21 0 00.674-.178c.332-.2.624-.63.648-1.552z" fill="#ffeed2" fill-rule="nonzero"/><path d="M51.668 29.442c0-.634.634-.86.972-1.368.29-.454.354-1.018.172-1.526-.142-.4-.704-.658-.854-.586-.03-.2-.358-.464-.8-.514-.438-.03-.866.15-1.15.484-.2.27-.424.508-.638.4.078.16.218.282.388.334a.69.69 0 00.286 0 4.81 4.81 0 011.026-.148c.282.008.546.132.734.342.056.06.102.126.136.2.08.21.09.442.028.658a.667.667 0 00.246-.3v-.022c.004.04.004.08 0 .12a1.718 1.718 0 01-.65 1.55c0 .064-.03.148-.042.246a.998.998 0 00.146.13z" fill-rule="nonzero"/><path d="M302.851 234.788c.048.066.045.217-.032.253a2.49 2.49 0 01-.793-.066c-.138-.054-1.094-.176-1.187-.187-.093-.011-.585-.059-.662-.2a.267.267 0 01.044-.34" fill="none" stroke="#4986d9" stroke-width=".12" transform="matrix(1.99997 0 0 2 -547.137 -414.154)"/><path d="M274.75 234.788c-.048.066-.045.217.032.253a2.49 2.49 0 00.793-.066c.138-.054 1.094-.176 1.187-.187.093-.011.585-.059.662-.2a.267.267 0 00-.044-.34" fill="none" stroke="#4986d9" stroke-width=".12" transform="matrix(1.99997 0 0 2 -503.95 -414.154)"/><ellipse cx=".105" cy=".072" rx=".105" ry=".072" fill="#e55c5c" fill-opacity=".2" transform="scale(1.99997 2) rotate(-67.44 23.44 -12.495)"/></svg>