<svg viewBox="0 0 64 64" xmlns="http://www.w3.org/2000/svg" fill-rule="evenodd" clip-rule="evenodd"><path fill="none" d="M0 0h64v64H0z"/><circle cx="2.652" cy="2.652" r="2.652" fill="#e2e4ed" transform="matrix(.25 0 0 .25 15.876 18.549)"/><circle cx="5.556" cy="5.556" r="5.556" fill="#e2e4ed" transform="matrix(.25 0 0 .25 50.392 25.716)"/><circle cx="2.192" cy="2.192" r="2.192" fill="#e2e4ed" transform="matrix(.25 0 0 .25 40.326 12.687)"/><circle cx="1.889" cy="1.889" r="1.889" fill="#e2e4ed" transform="matrix(.25 0 0 .25 48.3 8.423)"/><circle cx="2.611" cy="2.611" r="2.611" fill="#e2e4ed" transform="matrix(.25 0 0 .25 53.17 18.976)"/><circle cx="2.469" cy="2.469" r="2.469" fill="#e2e4ed" transform="matrix(.25 0 0 .25 43.89 37.499)"/><path d="M26.666 42.587a.923.923 0 01-.919-.919c0-.504.415-.919.919-.919.503 0 .918.415.918.919a.924.924 0 01-.918.919zm0-1.326a.41.41 0 00-.408.408.41.41 0 00.408.407.41.41 0 00.407-.407.41.41 0 00-.407-.408z" fill="#e2e4ed" fill-rule="nonzero"/><path d="M7.47 22.136H5.699a.281.281 0 01-.28-.28c0-.154.127-.28.28-.28h1.773c.153 0 .279.126.28.28-.001.153-.127.28-.28.28z" fill="#e2e4ed" fill-opacity=".76" fill-rule="nonzero"/><path d="M6.293 22.731v-1.75c0-.16.132-.291.291-.291.16 0 .291.131.291.29v1.751c0 .16-.13.29-.29.29a.292.292 0 01-.292-.29zM10.227 15.469h-1.15a.182.182 0 01-.182-.182c0-.1.082-.181.182-.181h1.15c.1 0 .181.082.181.181 0 .1-.082.182-.181.182z" fill="#e2e4ed" fill-opacity=".76" fill-rule="nonzero"/><path d="M9.462 15.855v-1.136a.19.19 0 01.19-.19.19.19 0 01.189.19v1.136a.19.19 0 01-.19.189.19.19 0 01-.189-.19zM31.37 9.605l-1.578-2.29.267-.508 1.175.062.136 2.736zM30.785 9.952c-.729-.133-1.457-.267-2.186-.402l-.137-.439.7-.63 1.623 1.471zM31.731 9.242l.164-1.963.375-.158.617.562-1.156 1.559z" fill="#e2e4ed" fill-opacity=".76" fill-rule="nonzero"/><path d="M31.93 36.752a86.008 86.008 0 0115.9 1.408c9.556 1.818 16.03 5.26 16.03 9.204 0 5.86-14.295 10.611-31.93 10.611C14.296 57.975 0 53.225 0 47.364c0-5.86 14.296-10.611 31.93-10.611z" fill="#e2e4ed" fill-opacity=".35" fill-rule="nonzero"/><path d="M14.404 25.135l8.967-7.104a.85.85 0 01.53-.19h16.478c.195.001.383.069.533.192l8.882 7.101v15.75c0 .616-.425 1.116-.948 1.116H15.352c-.523 0-.948-.5-.948-1.116v-15.75z" fill="#f3f4f8" fill-rule="nonzero"/><path d="M14.404 25.135h11.183c.523 0 .948.549.948 1.225v2.282c0 .676.425 1.225.948 1.225h9.208c.523 0 .948-.55.948-1.225V26.36c0-.677.425-1.225.948-1.225h11.206v18.127a.373.373 0 01-.316.408H14.72a.373.373 0 01-.316-.408V25.135z" fill="#c7cce0" fill-rule="nonzero" stroke="#fff" stroke-width=".175"/><path d="M31.071 13.703c-.047-.002-.093.002-.14.002V12.5a.377.377 0 00-.588-.34l-3.951 2.936a.434.434 0 000 .68l3.953 2.936a.376.376 0 00.587-.34v-1.22a3.497 3.497 0 013.565 3.309 3.522 3.522 0 01-2.041 3.31.073.073 0 00-.044.075c.001.035.034.045.063.036a5.18 5.18 0 003.54-4.824c.07-2.875-2.143-5.273-4.944-5.355z" fill="#c7cce0" fill-rule="nonzero"/><path d="M28.558 37.81a.75.75 0 00-.19-.505.626.626 0 00-.462-.21H19.27a.626.626 0 00-.462.21.75.75 0 00-.191.506v.004a.69.69 0 00.653.714h8.634a.69.69 0 00.653-.714v-.004zm-3.934-3.584a.75.75 0 00-.19-.506.626.626 0 00-.463-.21h-4.7a.626.626 0 00-.462.21.75.75 0 00-.191.506v.004a.69.69 0 00.653.714h4.7a.69.69 0 00.654-.714l-.001-.004zm-3.934-3.591a.69.69 0 00-.654-.715h-.765a.69.69 0 00-.653.715v.005a.69.69 0 00.653.715h.764a.69.69 0 00.654-.715v-.005z" fill="#fff" fill-rule="nonzero"/></svg>