<svg viewBox="0 0 64 64" xmlns="http://www.w3.org/2000/svg" fill-rule="evenodd" clip-rule="evenodd" stroke-linejoin="round" stroke-miterlimit="2"><path d="M31.355 32.828c9.44 0 29.89 1.39 29.89 9.055 0 7.666-13.094 13.88-29.245 13.88-16.152 0-29.245-6.215-29.245-13.88 0-7.665 19.996-9.055 28.6-9.055z" fill="#e2e4ed" fill-opacity=".41" fill-rule="nonzero"/><path d="M45.383 45.777l-26.853-.683-1.405-5.485h22.309l5.949 6.168z" fill="#e2e4ed" fill-opacity=".8" fill-rule="nonzero"/><path d="M36.432 20.617h-1.05v-4.238c-.004-4.043-3.332-7.368-7.375-7.368-4.046 0-7.375 3.33-7.375 7.375v4.243h-1.103a3.13 3.13 0 00-3.114 3.178v13.808a3.129 3.129 0 003.166 3.113h16.902a3.13 3.13 0 003.113-3.178V23.781v-.038a3.142 3.142 0 00-3.127-3.127h-.038zM29.05 30.873V33.3c0 .576-.474 1.051-1.05 1.051-.577 0-1.051-.474-1.051-1.05v-2.43a2.05 2.05 0 01-1.05-1.795v-.023c0-1.16.954-2.115 2.115-2.115 1.16 0 2.115.955 2.115 2.115v.023a2.148 2.148 0 01-1.079 1.796zm4.215-10.256H22.733v-4.238c0-2.889 2.377-5.266 5.266-5.266 2.89 0 5.267 2.377 5.267 5.266v4.237z" fill="#a7b1c1" fill-opacity=".33" fill-rule="nonzero"/><path d="M37.182 21.299h-1.023v-4.122c0-3.919-3.225-7.143-7.143-7.143-3.919 0-7.143 3.224-7.143 7.143v4.135H20.791a3.013 3.013 0 00-2.998 3.069v13.334a3.028 3.028 0 003.014 3.014h16.406a3.013 3.013 0 002.998-3.069V24.368l.001-.086a2.997 2.997 0 00-2.983-2.983h-.047zm-7.15 9.915v2.346c0 .562-.462 1.023-1.023 1.023a1.028 1.028 0 01-1.024-1.023v-2.346a1.96 1.96 0 01-1.023-1.728v-.023c0-1.123.924-2.046 2.047-2.046 1.122 0 2.046.923 2.046 2.046v.023a1.991 1.991 0 01-1.023 1.728zm4.08-9.915H23.919v-4.123c0-2.792 2.298-5.09 5.09-5.09s5.09 2.298 5.09 5.09l-.001.036c.014.013.014 4.087.014 4.087z" fill="#a7b1c1" fill-opacity=".86" fill-rule="nonzero"/><ellipse cx="20.358" cy="7.914" rx="20.358" ry="7.914" fill="#a7b1c1" fill-opacity=".43" transform="matrix(.25 0 0 .25 39.243 39.173)"/><path d="M42.736 17.137c-.86.041-1.283.477-1.242 1.35l.027.764-.532.027h-.041a1.297 1.297 0 00-1.217 1.29 1.298 1.298 0 001.367 1.289l.532-.027.041 1.078-1.828.068a1.303 1.303 0 00-1.232 1.296c0 .711.586 1.297 1.298 1.297h.03l1.828-.069.054 1.515a6.47 6.47 0 00-4.891 6.262c0 3.54 2.913 6.454 6.454 6.454 3.54 0 6.454-2.914 6.454-6.454a6.475 6.475 0 00-5.424-6.371l-.341-8.542c-.014-.859-.464-1.268-1.337-1.227zm2.551 17.942a2.598 2.598 0 01-1.91.838 2.61 2.61 0 01-2.597-2.598 2.61 2.61 0 012.597-2.597c.652 0 1.28.245 1.76.687a2.617 2.617 0 01.15 3.67z" fill="#a7b1c1" fill-opacity=".92" fill-rule="nonzero"/><path d="M43.554 17.275c-.859.04-1.282.477-1.241 1.35l.027.763-.532.028h-.041a1.297 1.297 0 00-1.217 1.289 1.298 1.298 0 001.367 1.29l.532-.028.041 1.078-1.828.069a1.303 1.303 0 00-1.232 1.295c0 .712.585 1.297 1.297 1.297h.03l1.828-.068.055 1.514a6.47 6.47 0 00-4.892 6.262c0 3.54 2.914 6.454 6.454 6.454 3.541 0 6.454-2.913 6.454-6.454a6.475 6.475 0 00-5.424-6.371l-.34-8.542c-.028-.845-.478-1.255-1.338-1.226zm2.552 17.942a2.599 2.599 0 01-1.91.838 2.61 2.61 0 01-2.598-2.598 2.61 2.61 0 012.598-2.598c.652 0 1.28.246 1.76.688a2.617 2.617 0 01.15 3.669v.001z" fill="#c6d0e0" fill-rule="nonzero"/><path fill="#e2e4ed" fill-opacity=".45" d="M40.75.75h.75v4h-.75z"/><path fill="#e2e4ed" fill-opacity=".33" d="M53.25 11.75H56v8h-2.75z"/><path fill="url(#_Linear1)" d="M0 0h13v21H0z" transform="matrix(.25 0 0 .25 6.25 30)"/><path fill="url(#_Linear2)" d="M0 0h8v10H0z" transform="matrix(.25 0 0 .25 57.25 35.25)"/></svg>