<svg viewBox="0 0 64 64" xmlns="http://www.w3.org/2000/svg" fill-rule="evenodd" clip-rule="evenodd" stroke-linejoin="round" stroke-miterlimit="2"><path fill="#fff" d="M0 0h64v64H0z"/><ellipse cx="105.257" cy="34.844" rx="105.257" ry="34.844" fill="#e2e4ed" fill-opacity=".3" transform="matrix(.25 0 0 .25 6.186 35.434)"/><path d="M34.802 15.46a9.971 9.971 0 00-8.64-5.004c-5.463 0-9.959 4.496-9.959 9.96 0 5.463 4.496 9.96 9.96 9.96a9.96 9.96 0 003.795-.752l6.128 11.648c.367.632 1.591.898 2.377.393a1.356 1.356 0 00.486-1.81l-6.688-11.564c3.926-3.02 5.02-8.54 2.542-12.83zm-4.975 11.284a7.295 7.295 0 01-3.646.977c-4.002 0-7.294-3.294-7.294-7.295 0-4.002 3.292-7.294 7.294-7.294a7.302 7.302 0 016.321 3.654c1.996 3.465.789 7.959-2.675 9.958z" fill="#c7cce0" fill-rule="nonzero"/><path d="M34.138 15.46a9.971 9.971 0 00-8.64-5.004c-5.464 0-9.96 4.496-9.96 9.96 0 5.463 4.496 9.96 9.96 9.96a9.96 9.96 0 003.796-.752l6.689 11.564a1.33 1.33 0 001.144.654 1.327 1.327 0 001.157-1.98L31.596 28.3c3.93-3.021 5.024-8.547 2.542-12.838zm-4.97 11.284a7.295 7.295 0 01-3.647.977c-4.002 0-7.295-3.294-7.295-7.295 0-4.002 3.293-7.294 7.295-7.294a7.302 7.302 0 016.321 3.654c1.996 3.465.789 7.959-2.675 9.958z" fill="#e2e4ed" fill-rule="nonzero"/><path d="M7.777 23.812l1.116-1.256.369-.207s.23.458.862.095c.631-.362.395-.803.395-.803l.594-.019 1.45.21s.063.96 0 .98c-.063.02-.922-.036-.922-.036s1.027 2.42.993 2.42c-.033.002-2.582 1.011-2.593.995-.01-.015-.658-2.304-.658-2.304l-.704.718-.902-.793z" fill="#c7cce0" fill-rule="nonzero"/><path d="M7.652 23.777l1.114-1.259.37-.207s.23.458.861.095c.631-.362.395-.803.395-.803l.595-.019 1.45.21s.063.96 0 .98c-.064.02-.923-.036-.923-.036s1.027 2.42.994 2.42c-.033.002-2.589 1.017-2.589.998 0-.017-.659-2.304-.659-2.304l-.703.718-.905-.793z" fill="#e2e4ed" fill-rule="nonzero"/><path d="M48.575 22.875l.408.2s-.713.924-.209 1.295c.504.371 1.039.44 1.568-.603l.375.167s-1.375 3.073-1.384 3.45a5.618 5.618 0 01-1.655-.525 9.464 9.464 0 01-1.122-.656l2.02-3.328z" fill="#c7cce0" fill-rule="nonzero"/><path d="M48.503 22.772l.404.199s-.713.925-.209 1.296c.505.37 1.039.439 1.568-.603l.375.167s-1.375 3.073-1.384 3.45a5.618 5.618 0 01-1.655-.525 9.47 9.47 0 01-1.125-.66l2.026-3.324z" fill="#e2e4ed" fill-rule="nonzero"/></svg>