<svg viewBox="0 0 64 64" xmlns="http://www.w3.org/2000/svg" fill-rule="evenodd" clip-rule="evenodd" stroke-linejoin="round" stroke-miterlimit="2"><path fill="none" d="M0 0h64v64H0z"/><ellipse cx="127.722" cy="42.446" rx="127.722" ry="42.446" fill="#e2e4ed" fill-opacity=".36" transform="matrix(.25 0 0 .25 .07 36.752)"/><path d="M45.957 13.84H22.258c-.995 0-1.814.82-1.814 1.815v28.12c0 .995.82 1.815 1.814 1.815h19.05c.996 0 1.815-.82 1.815-1.815V16.79a2.961 2.961 0 012.834-2.949z" fill="#e2e4ed" fill-rule="nonzero"/><path d="M49.018 17.015a3.19 3.19 0 00-3.061-3.175 2.961 2.961 0 00-2.835 2.949v3.855h5.896v-3.629z" fill="#c7cce0" fill-rule="nonzero"/><path d="M38.587 20.644a.34.34 0 00-.34-.34H25.32a.34.34 0 000 .68h12.927a.34.34 0 00.34-.34zM38.587 22.742a.34.34 0 00-.34-.34H25.32a.34.34 0 000 .68h12.927a.34.34 0 00.34-.34zM38.587 24.84a.34.34 0 00-.34-.341H25.32a.34.34 0 000 .68h12.927a.34.34 0 00.34-.34zM38.587 26.937a.34.34 0 00-.34-.34H25.32a.34.34 0 000 .68h12.927a.34.34 0 00.34-.34zM38.587 29.035a.34.34 0 00-.34-.34H25.32a.34.34 0 000 .68h12.927a.34.34 0 00.34-.34zM38.587 31.132a.34.34 0 00-.34-.34H25.32a.34.34 0 000 .68h12.927a.34.34 0 00.34-.34zM38.587 33.23a.34.34 0 00-.34-.34H25.32a.34.34 0 000 .68h12.927a.34.34 0 00.34-.34zM38.587 35.328a.34.34 0 00-.34-.34H25.32a.34.34 0 000 .68h12.927a.34.34 0 00.34-.34z" fill="#fff"/><path d="M38.21 42.641v-3.336H14.548v3.336a2.962 2.962 0 002.948 2.949H41.16a2.962 2.962 0 01-2.949-2.949zM48.323 42.182c-.371-.167-1.323.21-1.323.21s.33.946.7 1.116l3.82 1.714.62-1.326-3.817-1.714zM53.18 45.163a.725.725 0 00-.363-.965l-.225-.102-.62 1.327.224.101c.37.165.81.004.984-.361z" fill="#c7cce0" fill-rule="nonzero"/></svg>