<svg viewBox="0 0 64 64" xmlns="http://www.w3.org/2000/svg" fill-rule="evenodd" clip-rule="evenodd" stroke-linejoin="round" stroke-miterlimit="2"><path fill="none" d="M0 0h64v64H0z"/><path fill="none" d="M9 9h46v46H9z"/><ellipse cx="92" cy="30.455" rx="92" ry="30.455" fill="#e2e4ed" fill-opacity=".34" transform="matrix(.25 0 0 .25 9 35.002)"/><path d="M36.006 19l1.764-.127-.77 1.255c2.363.82 4.725 2.444 6.612 4.33l2.672-2.677c-2.825-2.825-6.536-4.382-10.165-5.2l-1.008 2.436.895-.016zM17.687 21.887l2.62 2.642a16.923 16.923 0 019.919-4.845l.834-3.495c-4.785.297-9.712 2.029-13.373 5.698zM30.703 23.159h-1.464l.087-.367c-2.44.542-5.02 1.454-6.918 3.353l2.663 2.707a10.155 10.155 0 016.52-2.96l.504-3.276-1.392.543zM38.98 28.836l2.69-2.667c-1.596-1.596-3.778-2.446-5.792-3.083l-1.628 2.931c1.788.53 3.414 1.5 4.73 2.82zM30.745 29.033c-1.27.254-2.608.655-3.594 1.638l2.53 2.62a3.43 3.43 0 01.328-.287l.717-3.885.02-.086zM31.442 32.209c.983-.096 2.162.437 2.91 1.185l2.644-2.732c-1.021-1.022-2.526-1.32-3.847-1.556l-.377.819-1.33 2.284z" fill="#c7cce0" fill-rule="nonzero"/><path d="M35.94 18.59h1.8l-.585 1.265c2.436.84 4.649 2.225 6.469 4.05l2.404-2.404a20.305 20.305 0 00-9.9-5.468l-.84 2.55.651.006zM18.031 21.509l2.404 2.404a16.923 16.923 0 019.92-4.845l.833-3.495a20.326 20.326 0 00-13.157 5.936zM32.088 22.636h-2.855l.087-.366a13.532 13.532 0 00-6.66 3.656l2.404 2.404a10.155 10.155 0 016.52-2.96l.504-2.734zM38.986 28.319l2.4-2.404a13.537 13.537 0 00-5.501-3.35l-1.446 3.111a10.153 10.153 0 014.547 2.643zM30.831 28.614a6.766 6.766 0 00-3.468 1.859l2.404 2.404a3.43 3.43 0 01.328-.287l.718-3.89.018-.085zM31.618 31.898c1.013-.1 2.02.261 2.738.983l2.404-2.404a6.765 6.765 0 00-3.602-1.883l-.377.819-1.163 2.485z" fill="#e2e4ed" fill-rule="nonzero"/><path d="M32.548 14.18l3.69-.18-1.856 5.742 2.25-.22-4.95 10.044 1.812-7.692-3.142-.181 2.196-7.513z" fill="#c7cce0" fill-rule="nonzero"/><path d="M32.196 14h3.669l-1.836 5.562h2.25l-4.556 9.825 1.42-7.694H30.36L32.196 14z" fill="#e2e4ed" fill-rule="nonzero"/><path d="M30.67 34.153l1.332 1.342 1.336-1.336c-.642-.642-2.03-.647-2.668-.006z" fill="#c7cce0" fill-rule="nonzero"/><path d="M30.843 34.018L32 35.176l1.158-1.158a1.645 1.645 0 00-2.316 0z" fill="#e2e4ed" fill-rule="nonzero"/></svg>