<svg viewBox="0 0 24 24" xmlns="http://www.w3.org/2000/svg" fill-rule="evenodd" clip-rule="evenodd" stroke-linejoin="round" stroke-miterlimit="2"><path d="M12 0C5.417 0 0 5.417 0 12s5.417 12 12 12 12-5.417 12-12S18.583 0 12 0zm6.017 10.786a3.559 3.559 0 01-2.047 1.541 1.934 1.934 0 01-.574.1l-.026.001a.685.685 0 01-.682-.682c0-.375.308-.682.682-.682h.026a.373.373 0 00.151-.029 2.146 2.146 0 001.31-.96 1.76 1.76 0 00.259-.929 2.117 2.117 0 00-2.21-1.966c-.42.001-.833.109-1.2.314a1.922 1.922 0 00-1.025 1.651v5.724a3.25 3.25 0 01-1.7 2.822 3.743 3.743 0 01-1.87.48 3.494 3.494 0 01-3.6-3.329 3.198 3.198 0 01.46-1.642 3.559 3.559 0 012.047-1.541 2 2 0 01.574-.1l.026-.001c.374 0 .682.308.682.682a.685.685 0 01-.682.682h-.026a.373.373 0 00-.151.029 2.25 2.25 0 00-1.31.96 1.76 1.76 0 00-.259.929A2.123 2.123 0 009.1 16.812c.42-.001.833-.109 1.2-.314a1.921 1.921 0 001.022-1.651v-5.7a3.256 3.256 0 011.706-2.825 3.547 3.547 0 011.855-.5 3.494 3.494 0 013.6 3.329 3.186 3.186 0 01-.463 1.637l-.003-.002z" fill="#e0f0ff" fill-rule="nonzero"/><path d="M18.037 10.779a3.574 3.574 0 01-2.057 1.549c-.186.062-.38.096-.576.1a.688.688 0 01-.684-.684c0-.375.309-.684.684-.684a.377.377 0 00.152-.029 2.152 2.152 0 001.315-.964 1.77 1.77 0 00.26-.932 2.125 2.125 0 00-2.218-1.973c-.42.002-.833.11-1.2.316a1.931 1.931 0 00-1.033 1.653v5.748a3.26 3.26 0 01-1.71 2.833 3.754 3.754 0 01-1.876.482 3.506 3.506 0 01-3.612-3.341c.003-.58.164-1.148.465-1.643a3.576 3.576 0 012.054-1.547c.186-.061.38-.095.576-.1.375 0 .684.309.684.684a.688.688 0 01-.684.684.377.377 0 00-.152.029 2.257 2.257 0 00-1.315.964 1.77 1.77 0 00-.26.932 2.13 2.13 0 002.232 1.973c.42-.002.833-.11 1.2-.316a1.93 1.93 0 001.026-1.657V9.139a3.267 3.267 0 011.712-2.835 3.555 3.555 0 011.861-.506 3.506 3.506 0 013.612 3.341 3.194 3.194 0 01-.465 1.643l.009-.003z" fill="#508cff" fill-rule="nonzero"/></svg>