<svg viewBox="0 0 24 24" xmlns="http://www.w3.org/2000/svg" fill-rule="evenodd" clip-rule="evenodd" stroke-linejoin="round" stroke-miterlimit="2"><g fill-rule="nonzero"><path d="M20.438 11.904H3.58V2.721A2.543 2.543 0 015.866 0h12.285a2.543 2.543 0 012.286 2.721v9.183h.001zM18.151 24H5.866a2.543 2.543 0 01-2.286-2.721v-3.741h16.858v3.743A2.552 2.552 0 0118.151 24z" fill="#21c9b8"/><path d="M17.959 4.87h-11.9a.683.683 0 01-.68-.68c0-.373.307-.68.68-.68h11.9c.373 0 .68.307.68.68a.694.694 0 01-.68.68z" fill="#fff"/><path d="M21.6 19.945H2.4A2.586 2.586 0 010 17.224v-6.122a2.587 2.587 0 012.4-2.721h19.2a2.586 2.586 0 012.4 2.721v6.118a2.587 2.587 0 01-2.4 2.721v.004z" fill="#90e4dc"/><path d="M17.959 7.522h-11.9a.684.684 0 01-.681-.68c0-.374.308-.681.681-.681h11.9c.373 0 .68.307.68.68a.694.694 0 01-.68.68v.001z" fill="#fff"/><g fill="#fff"><path d="M9.311 15.27h.072l.376-.161c.036-.018.072-.072.054-.107-.16-.4-.345-.788-.555-1.164a.1.1 0 00-.125-.036l-.322.161a.087.087 0 00-.05.078c0 .017.005.033.014.047.179.358.34.752.5 1.164.01.01.022.016.036.018zm-1.915-1.361c.179-.483.322-.949.448-1.36v-.376-.005a.085.085 0 00-.085-.085H6.263a.085.085 0 00-.085.085V16.939c0 .047.038.085.085.085h.385a.085.085 0 00.085-.085v-.845h.018a2.5 2.5 0 00.519 0c.483-.09.68-.483.573-1.181a2.794 2.794 0 00-.447-1.004zm-.662-1.289h.483c-.143.5-.286.967-.412 1.36-.018.036 0 .054.018.09.215.254.369.554.448.877.072.376.018.591-.161.627-.12.011-.24.005-.358-.018V12.62h-.018z"/><path d="M8.971 11.994c-.018-.018-.036-.036-.054-.036l-.394-.09c-.054-.018-.09.018-.107.072a7.257 7.257 0 01-.9 2.023.113.113 0 000 .107c.077.113.144.233.2.358.018.036.036.054.072.054a.139.139 0 00.089-.036c.072-.107.143-.215.215-.34v2.85c0 .047.038.085.085.085h.404a.085.085 0 00.085-.085v-3.978c.107-.269.215-.573.322-.877 0-.054 0-.089-.018-.107h.001z"/><path d="M11.084 12.961h-.555v-1-.004a.085.085 0 00-.085-.085h-.406a.085.085 0 00-.085.085v1.004H8.748a.085.085 0 00-.085.085v.386c0 .047.038.085.085.085H9.953v2.56c0 .179-.089.268-.286.268a4.709 4.709 0 01-.627-.054c-.036 0-.054 0-.072.036-.018.036-.036.054-.018.072a2.1 2.1 0 01.072.43.082.082 0 00.09.072c.215 0 .412.018.609.018.537 0 .823-.269.823-.77V13.5h.56a.085.085 0 00.085-.085v-.381a.147.147 0 00-.107-.072l.002-.001zm3.186-.913c-.018-.018-.036-.036-.054-.036l-.412-.125h-.072c-.018.018-.036.036-.036.054a9.386 9.386 0 01-1.11 2.488.08.08 0 000 .089c.067.14.127.284.179.43.018.036.036.054.072.054s.072 0 .09-.036c.146-.187.277-.385.394-.591V16.922c0 .047.038.085.085.085h.402a.085.085 0 00.085-.085v-3.713c.156-.361.287-.732.394-1.11a.064.064 0 00-.017-.051z"/><path d="M17.743 14.698h-1.289v-1.11H17.587a.085.085 0 00.085-.085v-.363-.005a.085.085 0 00-.085-.085H16.454v-1.092-.005a.085.085 0 00-.085-.085h-.421a.085.085 0 00-.085.085v1.097h-.644c.054-.2.125-.394.179-.609a.088.088 0 00-.054-.107l-.412-.125a.108.108 0 00-.072.018c-.018.018-.036.036-.036.054a6.94 6.94 0 01-.7 1.88.095.095 0 00.036.125c.119.075.227.165.322.268.018.018.054.036.072.018a.092.092 0 00.072-.036c.172-.297.315-.608.43-.931h.823v1.11h-1.688a.085.085 0 00-.085.085v.367c0 .047.038.085.085.085h1.688v1.688c0 .047.038.085.085.085h.421a.085.085 0 00.085-.085v-1.688h1.295a.085.085 0 00.084-.084v-.358a.13.13 0 00-.106-.112z"/></g></g></svg>