<svg viewBox="0 0 24 24" xmlns="http://www.w3.org/2000/svg" fill-rule="evenodd" clip-rule="evenodd" stroke-linejoin="round" stroke-miterlimit="2"><path d="M5.51 2.186a2.735 2.735 0 002.67 2.181h7.638a2.737 2.737 0 002.67-2.181h2.237A3.287 3.287 0 0124 5.452v15.282A3.285 3.285 0 0120.73 24H3.273A3.289 3.289 0 010 20.734V5.452a3.285 3.285 0 013.27-3.266H5.51zM6.547 8.73c-.598 0-1.091.493-1.091 1.091s.493 1.091 1.091 1.091h6.547c.598 0 1.091-.493 1.091-1.09 0-.599-.493-1.092-1.091-1.092H6.547zm0 4.363c-.598 0-1.091.493-1.091 1.091s.493 1.091 1.091 1.091h10.912c.598 0 1.09-.493 1.09-1.09 0-.599-.492-1.092-1.09-1.092H6.547zm0 4.364c-.598 0-1.091.492-1.091 1.09 0 .598.493 1.091 1.091 1.091h6.547c.598 0 1.091-.493 1.091-1.09 0-.599-.493-1.091-1.091-1.091H6.547zM8.183 0h7.638c.898 0 1.638.738 1.638 1.637 0 .897-.74 1.635-1.638 1.635H8.183a1.644 1.644 0 01-1.636-1.635C6.547.738 7.286 0 8.183 0z" fill="#508cff" fill-rule="nonzero"/></svg>