<svg viewBox="0 0 24 24" xmlns="http://www.w3.org/2000/svg" fill-rule="evenodd" clip-rule="evenodd" stroke-linejoin="round" stroke-miterlimit="2"><path fill="#e0f0ff" fill-rule="nonzero" d="M0 0h23v23H0z"/><path d="M9.01 12.011a2.659 2.659 0 01-1.179-.266 3.002 3.002 0 01-.949-.724 3.605 3.605 0 01-.642-1.065 3.55 3.55 0 01.642-3.631c.267-.297.589-.539.949-.713a2.66 2.66 0 011.179-.267c.402-.002.799.089 1.16.266.36.174.682.416.949.713a3.567 3.567 0 010 4.696 3.002 3.002 0 01-.949.724 2.605 2.605 0 01-1.16.266v.001zM24 24H0V0h24v24zM21.603 2.662H2.415v16.461c.23-.369.486-.738.767-1.107.269-.355.564-.689.882-1a5.01 5.01 0 01.949-.735c.297-.184.638-.283.987-.288.345-.004.689.03 1.026.1.263.056.52.138.767.245.215.095.424.205.623.33.199.125.408.235.623.33.244.106.497.188.757.245.334.071.675.104 1.016.1.38.006.748-.135 1.026-.394.312-.291.581-.624.8-.99.243-.4.485-.826.728-1.278.239-.448.514-.876.824-1.278a4.13 4.13 0 011.093-.99 2.841 2.841 0 011.534-.394 2.456 2.456 0 011.476.522c.502.378.943.832 1.307 1.344a12.88 12.88 0 011.112 1.853c.339.681.636 1.348.891 2V2.662z" fill="#508cff" fill-rule="nonzero"/></svg>