<svg viewBox="0 0 24 24" xmlns="http://www.w3.org/2000/svg" fill-rule="evenodd" clip-rule="evenodd" stroke-linejoin="round" stroke-miterlimit="2"><path d="M12 0c6.583 0 12 5.417 12 12s-5.417 12-12 12S0 18.583 0 12 5.417 0 12 0z" fill="#edf6fe" fill-rule="nonzero"/><path d="M17.814 11.16c-1.706 1.042-5.222-.764-5.81-3.253-.587 2.498-4.121 4.31-5.818 3.242a5.033 5.033 0 01-.007-.265v.1c0 3.192 2.628 5.82 5.82 5.82 3.125 0 5.72-2.516 5.817-5.64l-.002-.004z" fill="#fce9ea" fill-rule="nonzero"/><path d="M14.673 17.213l.067.023c-.066.186-.15.365-.253.534.416.636.313 3.419-.312 2.979l-1.09-.764L12 19.221l.071-.05h-.145l.071.05-1.086.764-1.09.764c-.623.44-.728-2.35-.311-2.981a2.894 2.894 0 01-.25-.53l.067-.025a6.755 6.755 0 00-4.381 4.577 12.388 12.388 0 0014.113 0 6.757 6.757 0 00-4.384-4.575v-.002zm-3.74-.374l.103-.014-.103.014zm-.675.115l.1-.02-.1.02zm-.318.073h.007-.007zm3.703-.093l.102.02-.102-.02zm.727.18l.105.032-.105-.033zm-.321-.09l.02.006-.02-.005zm-4.518.12l.1-.03-.1.03zm3.433-.317l.104.013-.104-.013z" fill="#508cff" fill-rule="nonzero"/><path d="M9.508 17.768c.083-.125.187-.166.311-.079l1.09.765 1.015.717h.145l1.016-.718 1.09-.764c.124-.087.228-.046.311.082.102-.17.187-.348.253-.534l-.066-.024a7.007 7.007 0 00-.199-.064l-.105-.033c-.1-.03-.2-.058-.3-.083l-.021-.005a8.412 8.412 0 00-.304-.07l-.102-.02a7.893 7.893 0 00-.574-.094l-.104-.013a8.285 8.285 0 00-.338-.033h-.665c-.046.003-.091.003-.137 0h-.448a8.33 8.33 0 00-.34.033l-.102.013a9.373 9.373 0 00-.576.094l-.101.02a7.475 7.475 0 00-.311.071h-.007a8.926 8.926 0 00-.31.086l-.099.031-.206.068-.068.025c.066.184.15.362.252.529z" fill="#fff" fill-rule="nonzero"/><path d="M14.174 17.69l-1.09.763-1.015.718-.07.05 1.086.764 1.09.764c.624.44.728-2.343.311-2.98-.083-.126-.187-.167-.312-.08zm-4.355 0c-.124-.088-.228-.047-.311.078-.418.631-.312 3.421.311 2.981l1.09-.764 1.086-.764-.07-.05-1.016-.718-1.09-.764z" fill="#ffb67e" fill-rule="nonzero"/><path d="M12.004 7.907V5.152c-3.165-.009-5.783 2.57-5.825 5.733 0 .088 0 .176.007.265 1.692 1.066 5.23-.744 5.818-3.243z" fill="#acd7fe" fill-rule="nonzero"/><path d="M12.004 7.906c.588 2.489 4.104 4.295 5.81 3.253l.02-.01.002-.195c0-3.184-2.62-5.803-5.803-5.803h-.03v2.755z" fill="#61b1f9" fill-rule="nonzero"/></svg>