<svg viewBox="0 0 24 24" xmlns="http://www.w3.org/2000/svg" fill-rule="evenodd" clip-rule="evenodd" stroke-linejoin="round" stroke-miterlimit="2"><path d="M0 12C.007 5.42 5.42.007 12 0c6.58.007 11.993 5.42 12 12-.008 6.58-5.42 11.992-12 12C5.42 23.993.007 18.58 0 12zm2.22 0c.006 5.363 4.417 9.774 9.78 9.78 5.363-.006 9.774-4.417 9.78-9.78-.006-5.363-4.417-9.774-9.78-9.78-5.363.006-9.774 4.417-9.78 9.78zm8.58 6v-4.8H6c-.659 0-1.2-.541-1.2-1.2 0-.659.541-1.2 1.2-1.2h4.8V6c0-.659.541-1.2 1.2-1.2.659 0 1.2.541 1.2 1.2v4.8H18c.659 0 1.2.541 1.2 1.2 0 .659-.541 1.2-1.2 1.2h-4.8V18c0 .659-.541 1.2-1.2 1.2-.659 0-1.2-.541-1.2-1.2z"  fill-rule="nonzero"/></svg>