<svg viewBox="0 0 24 24" xmlns="http://www.w3.org/2000/svg" fill-rule="evenodd" clip-rule="evenodd" stroke-linejoin="round" stroke-miterlimit="2"><path d="M22.351 11.063h-.3V1.725C22.052.713 21.267 0 20.256 0H3.819C2.808 0 2.022.825 2.022 1.725v9.337h-.3C.712 11.063 0 11.85 0 12.75v9.525C0 23.288.786 24 1.722 24h20.555c1.01 0 1.722-.788 1.722-1.725V12.75c.037-.9-.75-1.688-1.648-1.688zm-2.32-9.038v3.6c-.413.187-.712.3-.9.487-.486.413-.898.6-1.797.6-.898 0-1.31-.3-1.797-.6-.599-.412-1.385-.9-2.92-.9s-2.321.488-2.92.9c-.487.3-.899.6-1.797.6-.899 0-1.31-.3-1.797-.6-.712-.187-1.198-.6-2.097-.787v-3.3H20.03zm-16.025 5.4c.3.112.487.3.786.412.6.413 1.386.9 2.92.9 1.536 0 2.322-.487 2.92-.9.488-.3.9-.6 1.798-.6s1.31.3 1.797.6c.599.413 1.385.9 2.92.9 1.386 0 2.097-.412 2.808-.787v3.112H4.006V7.425zm18.046 5.625v2.212c-1.086.188-1.722.6-2.321 1.013-.6.413-1.086.712-2.21.712-1.085 0-1.61-.3-2.208-.712-.712-.487-1.61-1.012-3.295-1.012-1.685 0-2.62.6-3.295 1.012-.599.413-1.085.712-2.209.712-1.123 0-1.61-.3-2.208-.712-.6-.413-1.199-.788-2.322-1.012V13.05h20.068zm-20.03 9.037v-4.725c.486.113.786.3 1.198.6.711.488 1.61 1.013 3.294 1.013 1.685 0 2.621-.6 3.295-1.013.6-.412 1.086-.712 2.21-.712 1.122 0 1.609.3 2.208.712.711.488 1.61 1.013 3.295 1.013 1.684 0 2.62-.6 3.294-1.013.412-.3.712-.487 1.198-.6v4.725H2.022z" fill-rule="nonzero"/></svg>