<svg viewBox="0 0 24 24" xmlns="http://www.w3.org/2000/svg" fill-rule="evenodd" clip-rule="evenodd" stroke-linejoin="round" stroke-miterlimit="2"><path d="M12 21.778l-3.113-2.392H3C1.355 19.384.002 18.131 0 16.609L.009 5.276C.01 3.754 1.363 2.502 3.007 2.5H21c1.645.001 2.998 1.253 3 2.776l-.01 11.333c-.002 1.522-1.356 2.774-3 2.776h-5.896L12 21.777v.001zM18.75 9.445c-.822 0-1.5.627-1.5 1.388 0 .761.678 1.388 1.5 1.388s1.5-.627 1.5-1.388c-.002-.761-.678-1.387-1.5-1.388zm-6.748 0c-.822.001-1.499.627-1.499 1.388 0 .761.678 1.388 1.5 1.388s1.5-.627 1.5-1.388c-.002-.762-.678-1.388-1.501-1.388h-.004.004zm-6.748 0c-.822 0-1.499.627-1.499 1.388 0 .761.677 1.388 1.5 1.388.821 0 1.499-.627 1.499-1.388-.001-.761-.678-1.387-1.5-1.388z"  fill-rule="nonzero"/></svg>