<svg viewBox="0 0 24 24" xmlns="http://www.w3.org/2000/svg" fill-rule="evenodd" clip-rule="evenodd" stroke-linejoin="round" stroke-miterlimit="2"><path d="M11.971 24C5.404 24 0 18.595 0 12.028c0-3.173 1.262-6.22 3.506-8.465A11.975 11.975 0 0112.028 0C18.596 0 24 5.404 24 11.972c0 3.202-1.284 6.273-3.563 8.521A11.895 11.895 0 0111.97 24zm0-10.433l3.464 3.468a1.092 1.092 0 101.543-1.544l-3.468-3.463 3.468-3.463a1.09 1.09 0 00.319-.77c0-.597-.491-1.087-1.089-1.087a1.081 1.081 0 00-.769.318l-3.468 3.463-3.463-3.467a1.088 1.088 0 00-1.862.77c0 .289.114.567.32.77l3.467 3.466-3.468 3.463c-.193.203-.3.473-.3.752 0 .599.493 1.092 1.091 1.092.28 0 .55-.108.752-.3l3.463-3.468z"  fill-rule="nonzero"/></svg>