<svg viewBox="0 0 24 24" xmlns="http://www.w3.org/2000/svg" fill-rule="evenodd" clip-rule="evenodd" stroke-linejoin="round" stroke-miterlimit="2"><path d="M12 24a11.968 11.968 0 01-8.49-3.514A11.968 11.968 0 010 12a11.968 11.968 0 013.514-8.488A11.968 11.968 0 0112 0a11.93 11.93 0 014.671.944 11.968 11.968 0 013.819 2.57 11.97 11.97 0 012.572 3.82c.623 1.476.942 3.063.938 4.666a11.97 11.97 0 01-3.516 8.49A11.968 11.968 0 0112 24zm3.218-10.56a6.263 6.263 0 00-2.446.58c-1.212.576-1.466 1.263-1.466 1.738v.725a.44.44 0 00.437.436h6.955a.44.44 0 00.437-.436v-.725c0-.475-.255-1.163-1.467-1.738a6.284 6.284 0 00-2.45-.58zm-3.614-.873c-1.233.03-2.451.277-3.6.727-1.781.719-2.156 1.577-2.156 2.17v1.015a.44.44 0 00.437.437H10.2v-1.482a2.36 2.36 0 01.93-1.654 5.098 5.098 0 011.97-1.068 8.857 8.857 0 00-1.469-.143l-.027-.002zm3.615-4.346a2.159 2.159 0 00-1.527.667c-.4.414-.62.973-.606 1.549.01.568.246 1.11.654 1.506.407.402.957.625 1.527.622h.057a2.163 2.163 0 001.459-.626 2.162 2.162 0 00.068-3.033 2.15 2.15 0 00-1.541-.685h-.09zm-5.018-1.745a2.625 2.625 0 00-2.608 2.608 2.625 2.625 0 002.608 2.608 2.625 2.625 0 002.609-2.608 2.623 2.623 0 00-2.61-2.6l.001-.008z"  fill-rule="nonzero"/></svg>