<svg viewBox="0 0 24 24" xmlns="http://www.w3.org/2000/svg" fill-rule="evenodd" clip-rule="evenodd" stroke-linejoin="round" stroke-miterlimit="2"><path d="M4.808 23.222c-1.627-.004-2.964-1.365-2.967-3.02v-7.54l-.13.132a.994.994 0 01-1.417 0 1.026 1.026 0 01-.294-.72c0-.271.105-.531.294-.722L9.9 1.577a2.951 2.951 0 014.2 0l9.606 9.775c.189.19.294.451.294.721 0 .27-.105.53-.294.721a.993.993 0 01-1.419 0l-.13-.133v7.541c-.003 1.655-1.34 3.016-2.967 3.02H4.808zm6.51-20.203l-7.472 7.603v9.58c0 .538.435.98.964.98h14.378c.529 0 .964-.442.964-.98v-9.58l-7.47-7.603a.956.956 0 00-1.362 0h-.001zM6.294 13.398a.96.96 0 01.39-1.292.938.938 0 011.272.397 4.624 4.624 0 004.043 2.674 4.624 4.624 0 004.043-2.674.94.94 0 01.831-.51c.153 0 .304.04.44.113.308.164.5.49.5.844 0 .156-.037.31-.109.448-1.065 2.222-3.276 3.652-5.706 3.691-2.43-.04-4.639-1.47-5.704-3.691z"  fill-rule="nonzero"/></svg>