<?xml version="1.0" encoding="UTF-8" standalone="no"?>
<!DOCTYPE svg PUBLIC "-//W3C//DTD SVG 1.1//EN" "http://www.w3.org/Graphics/SVG/1.1/DTD/svg11.dtd">
<svg width="100%" height="100%" viewBox="0 0 24 24" version="1.1" xmlns="http://www.w3.org/2000/svg" xmlns:xlink="http://www.w3.org/1999/xlink" xml:space="preserve" xmlns:serif="http://www.serif.com/" style="fill-rule:evenodd;clip-rule:evenodd;stroke-linejoin:round;stroke-miterlimit:2;">
    <g transform="matrix(0.409726,0,0,0.403777,-1.1389,-0.920864)">
        <path d="M35.439,2.281L28.561,2.281L28.561,37.158L35.439,37.158L35.439,2.281ZM47.883,10.795L42.807,15.871C45.972,17.727 48.456,20.238 50.258,23.404C52.059,26.569 52.959,30.036 52.959,33.801C52.959,37.567 52.031,41.061 50.176,44.281C48.32,47.501 45.782,50.039 42.562,51.895C39.341,53.751 35.821,54.679 32.001,54.679C28.18,54.679 24.659,53.751 21.439,51.895C18.219,50.039 15.681,47.501 13.825,44.281C11.969,41.061 11.041,37.568 11.041,33.801C11.041,30.035 11.942,26.569 13.743,23.404C15.544,20.238 17.973,17.727 21.03,15.871L16.118,10.795C12.406,13.415 9.459,16.717 7.275,20.701C5.092,24.686 4,29.026 4,33.719C4,38.741 5.255,43.408 7.766,47.719C10.278,52.031 13.688,55.443 18,57.953C22.312,60.464 26.979,61.719 32,61.719C37.021,61.719 41.688,60.464 46,57.953C50.312,55.443 53.723,52.031 56.234,47.719C58.744,43.408 60,38.741 60,33.719C60,29.026 58.908,24.686 56.725,20.702C54.542,16.718 51.594,13.415 47.883,10.795Z" style="fill:rgb(0,3,51);fill-rule:nonzero;"/>
    </g>
</svg>
