<svg viewBox="0 0 24 24" xmlns="http://www.w3.org/2000/svg" fill-rule="evenodd" clip-rule="evenodd" stroke-linejoin="round" stroke-miterlimit="2"><path d="M21.745 23.618l-3.288-3.27a11.424 11.424 0 01-7.019 2.395C5.17 22.738.011 17.611 0 11.375.008 5.137 5.167.005 11.438 0c6.271.006 11.43 5.136 11.437 11.374a11.283 11.283 0 01-2.528 7.125l3.272 3.253c.508.509.508 1.34 0 1.849l-.018.018c-.245.244-.58.382-.927.381a1.31 1.31 0 01-.93-.382zM2.408 11.375c.005 4.925 4.079 8.975 9.03 8.98 4.95-.005 9.024-4.056 9.03-8.98-.006-4.925-4.078-8.976-9.03-8.98-4.951.004-9.025 4.055-9.03 8.98z" fill-rule="nonzero"/></svg>